<?xml version="1.0" encoding="utf-8"?>
<!-- Generator: Adobe Illustrator 16.0.4, SVG Export Plug-In . SVG Version: 6.00 Build 0)  -->
<!DOCTYPE svg PUBLIC "-//W3C//DTD SVG 1.1//EN" "http://www.w3.org/Graphics/SVG/1.1/DTD/svg11.dtd">
<svg version="1.1" id="Warstwa_1" xmlns="http://www.w3.org/2000/svg" xmlns:xlink="http://www.w3.org/1999/xlink" x="0px" y="0px"
	 width="367.734px" height="169.628px" viewBox="0 0 367.734 169.628" enable-background="new 0 0 367.734 169.628"
	 xml:space="preserve">
<g>
	<defs>
		<rect id="SVGID_1_" width="367.734" height="169.628"/>
	</defs>
	<clipPath id="SVGID_2_">
		<use xlink:href="#SVGID_1_"  overflow="visible"/>
	</clipPath>
	<path clip-path="url(#SVGID_2_)" fill="#77777A" d="M138.304,79.77h-0.18c0,0-1.197-2.793-5.295-2.793
		c-4.027,0-7.107,3.12-7.107,7.977c0,4.753,3.045,7.978,6.996,7.978c3.735,0,4.787-2.319,4.787-2.319h0.146v1.051
		c0.037,2.977-1.451,4.571-4.132,4.571c-2.506,0-3.955-1.452-4.244-1.778l-1.778,2.249c0.508,0.579,2.321,2.356,6.094,2.356
		c5.039,0,7.614-3.153,7.614-7.506V77.339h-2.395L138.304,79.77z M133.553,89.997c-2.467,0-4.243-2.07-4.243-5.044
		c0-2.935,1.776-5.04,4.243-5.04c2.432,0,4.316,1.924,4.316,5.04C137.869,88.109,135.985,89.997,133.553,89.997"/>
	<path clip-path="url(#SVGID_2_)" fill="#77777A" d="M149.762,79.77h-0.18l-0.435-2.43h-2.32v15.23h3.552v-8.559
		c0.074-2.211,1.705-3.736,3.736-3.736h0.834v-2.973h-0.834C152.084,77.303,150.562,78.174,149.762,79.77"/>
	<path clip-path="url(#SVGID_2_)" fill="#77777A" d="M169.418,86.262c0,1.557-1.16,3.696-3.734,3.696
		c-2.359,0-3.482-1.812-3.482-4.204V77.34h-3.554v8.739c0,4.098,2.285,6.852,6.237,6.852c3.083,0,4.461-1.665,5.004-2.462h0.146
		l0.617,2.102h2.322V77.34h-3.556V86.262z"/>
	<path clip-path="url(#SVGID_2_)" fill="#77777A" d="M187.005,76.977c-3.952,0-5.33,2.539-5.33,2.539h-0.216l-0.508-2.176h-2.359
		v20.89h3.556v-7.436h0.143c0,0,1.054,2.137,4.824,2.137c3.915,0,6.963-3.225,6.963-7.978
		C194.077,80.096,190.995,76.977,187.005,76.977 M186.246,89.997c-2.395,0-4.281-1.888-4.281-5.044c0-3.116,1.887-5.04,4.281-5.04
		c2.467,0,4.241,2.105,4.241,5.04C190.487,87.927,188.713,89.997,186.246,89.997"/>
	<path clip-path="url(#SVGID_2_)" fill="#77777A" d="M210.396,79.586h-0.144c0,0-1.308-2.61-5.367-2.61
		c-3.991,0-7.035,3.228-7.035,7.977c0,4.861,3.081,7.978,7.105,7.978c3.989,0,5.297-2.61,5.297-2.61h0.144l0.543,2.251h2.394V77.339
		h-2.394L210.396,79.586z M205.683,89.997c-2.466,0-4.242-2.104-4.242-5.044c0-2.973,1.776-5.04,4.242-5.04
		c2.43,0,4.314,1.887,4.314,5.04C209.997,88.073,208.112,89.997,205.683,89.997"/>
	<path clip-path="url(#SVGID_2_)" fill="#77777A" d="M236.398,76.977c-3.955,0-5.33,2.539-5.33,2.539h-0.22l-0.507-2.176h-2.356
		v20.89h3.553v-7.436h0.145c0,0,1.054,2.137,4.824,2.137c3.915,0,6.963-3.225,6.963-7.978
		C243.47,80.096,240.388,76.977,236.398,76.977 M235.636,89.997c-2.394,0-4.277-1.888-4.277-5.044c0-3.116,1.884-5.04,4.277-5.04
		c2.467,0,4.242,2.105,4.242,5.04C239.878,87.927,238.103,89.997,235.636,89.997"/>
	<path clip-path="url(#SVGID_2_)" fill="#77777A" d="M251.084,79.77h-0.18l-0.437-2.43h-2.32v15.23h3.554v-8.559
		c0.071-2.211,1.705-3.736,3.735-3.736h0.834v-2.973h-0.834C253.406,77.303,251.883,78.174,251.084,79.77"/>
	<path clip-path="url(#SVGID_2_)" fill="#77777A" d="M271.499,79.586h-0.143c0,0-1.306-2.61-5.367-2.61
		c-3.989,0-7.035,3.228-7.035,7.977c0,4.861,3.083,7.978,7.106,7.978c3.99,0,5.296-2.61,5.296-2.61h0.143l0.547,2.251h2.393V77.339
		h-2.393L271.499,79.586z M266.786,89.997c-2.465,0-4.242-2.104-4.242-5.044c0-2.973,1.777-5.04,4.242-5.04
		c2.43,0,4.316,1.887,4.316,5.04C271.103,88.073,269.216,89.997,266.786,89.997"/>
	<path clip-path="url(#SVGID_2_)" fill="#77777A" d="M287.202,79.913c2.068,0,3.483,1.017,3.483,1.017l0.978-2.612
		c0,0-1.413-1.342-4.712-1.342c-4.682,0-7.834,3.336-7.834,8.016c0,4.642,3.152,7.938,7.834,7.938c3.299,0,4.677-1.377,4.677-1.377
		l-0.942-2.573c0,0-1.415,1.017-3.483,1.017c-2.539,0-4.496-1.776-4.496-5.005C282.706,81.801,284.663,79.913,287.202,79.913"/>
	<path clip-path="url(#SVGID_2_)" fill="#77777A" d="M306.75,86.262c0,1.557-1.16,3.696-3.735,3.696
		c-2.357,0-3.482-1.812-3.482-4.204V77.34h-3.553v8.739c0,4.098,2.284,6.852,6.236,6.852c3.083,0,4.462-1.665,5.007-2.462h0.144
		l0.615,2.102h2.32V77.34h-3.552V86.262z"/>
	<path clip-path="url(#SVGID_2_)" fill="#77777A" d="M317.736,74.546c1.234,0,2.211-0.906,2.211-2.139
		c0-1.197-0.977-2.139-2.211-2.139c-1.231,0-2.174,0.942-2.174,2.139C315.562,73.64,316.505,74.546,317.736,74.546"/>
	<path clip-path="url(#SVGID_2_)" fill="#77777A" d="M315.962,93.621c0,0.944-0.508,1.632-1.598,1.632h-0.543v2.977h1.379
		c2.899,0,4.35-1.743,4.35-4.425V77.339h-3.588V93.621z"/>
	<path clip-path="url(#SVGID_2_)" fill="#40B4E5" d="M52.364,56.555c-2.304,0-4.181,1.877-4.181,4.187v16.721
		c0,2.311,1.877,4.188,4.181,4.188c2.308,0,4.187-1.877,4.187-4.188V60.742C56.551,58.432,54.672,56.555,52.364,56.555"/>
	<path clip-path="url(#SVGID_2_)" fill="#1825AA" d="M67.061,48.185c-2.307,0-4.182,1.877-4.182,4.182v25.099
		c0,2.312,1.875,4.185,4.182,4.185c2.31,0,4.182-1.873,4.182-4.185V52.367C71.243,50.062,69.371,48.185,67.061,48.185"/>
	<path clip-path="url(#SVGID_2_)" fill="#40B4E5" d="M81.748,81.651c2.308,0,4.184-1.874,4.184-4.185v-8.38
		c0-2.307-1.876-4.185-4.184-4.185c-2.305,0-4.179,1.878-4.179,4.185v8.38C77.568,79.777,79.442,81.651,81.748,81.651"/>
	<path clip-path="url(#SVGID_2_)" fill="#1825AA" d="M96.439,56.555c-2.304,0-4.184,1.881-4.184,4.187v16.721
		c0,2.311,1.88,4.188,4.184,4.188c2.307,0,4.187-1.877,4.187-4.188V60.742C100.626,58.436,98.747,56.555,96.439,56.555"/>
	<path clip-path="url(#SVGID_2_)" fill="#40B4E5" d="M96.442,87.979c-2.308,0-4.184,1.874-4.184,4.185v8.366
		c0,2.311,1.876,4.182,4.184,4.182c2.305,0,4.184-1.871,4.184-4.182v-8.366C100.626,89.853,98.748,87.979,96.442,87.979"/>
	<path clip-path="url(#SVGID_2_)" fill="#1825AA" d="M52.364,87.979c-2.304,0-4.181,1.874-4.181,4.185v25.094
		c0,2.306,1.877,4.187,4.181,4.187c2.308,0,4.187-1.881,4.187-4.187V92.163C56.551,89.853,54.672,87.979,52.364,87.979"/>
	<path clip-path="url(#SVGID_2_)" fill="#40B4E5" d="M67.061,87.979c-2.307,0-4.182,1.874-4.182,4.185v8.365
		c0,2.303,1.875,4.183,4.182,4.183c2.31,0,4.182-1.88,4.182-4.183v-8.365C71.243,89.853,69.371,87.979,67.061,87.979"/>
	<path clip-path="url(#SVGID_2_)" fill="#1825AA" d="M81.748,87.979c-2.305,0-4.179,1.874-4.179,4.185v16.738
		c0,2.304,1.874,4.185,4.179,4.185c2.31,0,4.187-1.881,4.187-4.185V92.163C85.935,89.853,84.058,87.979,81.748,87.979"/>
</g>
</svg>
