<svg width="775" height="130" viewBox="0 0 775 130" fill="none" xmlns="http://www.w3.org/2000/svg">
<path d="M651.719 4.68694H774.859V29.2709H651.719V4.68694" fill="#B11B32"/>
<path d="M16.6989 92.9324L26.6635 90.0751V98.0605L16.6989 100.918V119.966H43.4281V129.149H4.72493V104.397L0 105.708V97.7308L4.72493 96.3693V69.5043H16.6989V92.9324Z" fill="#1E2C52"/>
<path d="M119.309 69.5043V108.524C119.309 115.257 117.078 120.514 112.602 124.324C108.162 128.13 102.357 130 95.2779 130C88.2005 130 82.4592 128.13 78.0485 124.324C73.6179 120.514 71.4045 115.257 71.4045 108.524V69.5043H83.3939V108.524C83.3939 112.535 84.5112 115.585 86.6339 117.655C88.7752 119.756 91.6379 120.84 95.2779 120.84C98.9699 120.84 101.873 119.756 104.039 117.655C106.213 115.585 107.318 112.535 107.318 108.524V69.5043H119.309" fill="#1E2C52"/>
<path d="M170.349 104.261H165.977V129.149H153.994V69.5043H165.977V93.8787H169.339L185.71 69.5043H200.491L179.83 97.2428L202.106 129.149H186.866L170.349 104.261Z" fill="#1E2C52"/>
<path d="M246.558 106.892H260.05L253.446 85.9043H253.217L246.558 106.892ZM262.953 116.271H243.605L239.61 129.149H227.097L247.207 69.5043H259.474L279.511 129.149H267.021L262.953 116.271" fill="#1E2C52"/>
<path d="M340.728 113.579C340.728 111.271 339.916 109.45 338.326 108.039C336.735 106.656 333.92 105.342 329.903 104.118C323.015 102.042 317.798 99.6 314.23 96.7844C310.67 93.9683 308.875 90.1229 308.875 85.2511C308.875 80.3605 310.882 76.3776 314.918 73.2763C318.904 70.1683 324.03 68.6229 330.272 68.6229C336.9 68.6229 342.206 70.2883 346.242 73.6296C350.276 76.9724 352.211 81.3297 352.072 86.7256L352.006 87.0109H340.4C340.4 84.0043 339.498 81.7281 337.704 80.1324C335.907 78.5229 333.372 77.7333 330.118 77.7333C327.163 77.7333 324.882 78.4297 323.268 79.8537C321.654 81.2855 320.85 83.1109 320.85 85.324C320.85 87.3256 321.724 89.012 323.472 90.2735C325.228 91.5948 328.246 92.9761 332.511 94.412C339.066 96.2751 344.091 98.6776 347.528 101.672C350.99 104.645 352.695 108.594 352.695 113.485C352.695 118.604 350.711 122.615 346.699 125.571C342.738 128.542 337.446 130 330.871 130C324.492 130 318.954 128.408 314.344 125.203C309.752 122.018 307.528 117.266 307.627 110.923L307.719 110.65H319.347C319.347 114.197 320.382 116.775 322.456 118.459C324.538 120.104 327.343 120.935 330.871 120.935C334.102 120.935 336.538 120.288 338.211 118.947C339.9 117.615 340.728 115.811 340.728 113.579" fill="#1E2C52"/>
<path d="M398.666 129.149H386.693V69.5056H398.666V129.149Z" fill="#1E2C52"/>
<path d="M468.937 102.945H446.827V119.966H473.137V129.149H434.827V69.5043H473.046V78.7281H446.827V93.7163H468.937V102.945" fill="#1E2C52"/>
<path d="M552.966 109.957H553.216L561.14 69.5043H573.486L559.555 129.149H548.419L537.444 89.8657H537.191L526.25 129.149H515.138L501.203 69.5043H513.523L521.5 109.928H521.73L532.478 69.5043H542.161L552.966 109.957" fill="#1E2C52"/>
<path d="M616.968 129.149H604.994V69.5056H616.968V129.149Z" fill="#1E2C52"/>
<path d="M697.902 109.382L697.992 109.631C698.1 115.995 696.163 120.983 692.178 124.578C688.194 128.199 682.672 130 675.668 130C668.516 130 662.694 127.695 658.315 123.106C653.916 118.49 651.719 112.557 651.719 105.247V93.4109C651.719 86.1485 653.87 80.224 658.163 75.5641C662.454 70.9509 668.072 68.6229 675.038 68.6229C682.303 68.6229 688.003 70.4269 692.087 73.9523C696.188 77.5016 698.199 82.5068 698.058 88.9657L697.992 89.1923H686.364C686.364 85.3907 685.444 82.5333 683.572 80.6417C681.746 78.7709 678.916 77.8537 675.038 77.8537C671.47 77.8537 668.655 79.3 666.672 82.1667C664.636 85.0428 663.646 88.7803 663.646 93.3297V105.247C663.646 109.84 664.711 113.596 666.8 116.504C668.95 119.371 671.886 120.84 675.668 120.84C679.236 120.84 681.94 119.899 683.674 118.006C685.444 116.138 686.323 113.276 686.323 109.382H697.902" fill="#1E2C52"/>
<path d="M742.684 119.966H770.068V129.149H728.575V122.918L755.14 78.7281H728.615V69.5043H769.371V75.4709L742.684 119.966Z" fill="#1E2C52"/>
<path d="M8.3828 13.7376H12.3437C13.9099 13.7376 15.0744 13.4056 15.8369 12.7403C16.6009 12.0816 16.9848 11.1003 16.9848 9.79627C16.9848 8.52561 16.6009 7.51094 15.8285 6.75894C15.0588 6.00694 13.9271 5.63495 12.4339 5.63495H8.3828V13.7376ZM8.3828 18.0349V29.1603H2.80574V1.32694H12.4339C15.6077 1.32694 18.0921 2.05895 19.8807 3.50161C21.6681 4.94961 22.5713 6.96161 22.5713 9.55095C22.5713 10.9776 22.1932 12.2109 21.4307 13.2483C20.6681 14.2869 19.5687 15.1283 18.1181 15.7616C19.7588 16.2469 20.9396 17.0549 21.6619 18.1896C22.3828 19.3269 22.7437 20.7296 22.7437 22.3976V24.4403C22.7437 25.2203 22.8421 26.0269 23.0557 26.8776C23.2672 27.7256 23.6208 28.3523 24.1385 28.7616V29.1603H18.3796C17.8713 28.7589 17.5443 28.0789 17.3968 27.1403C17.2479 26.1949 17.1755 25.2816 17.1755 24.4043V22.4323C17.1755 21.0443 16.8057 19.9629 16.0432 19.1963C15.2796 18.4243 14.2047 18.0349 12.8192 18.0349H8.3828" fill="#1E2C52"/>
<path d="M59.314 16.9323H48.9885V24.8829H61.2579V29.1603H43.4041V1.32827H61.2259V5.63495H48.9885V12.6296H59.314V16.9323" fill="#1E2C52"/>
<path d="M95.3445 21.9016C95.3445 20.8269 94.9672 19.9656 94.2299 19.3189C93.4819 18.6696 92.1699 18.0563 90.2992 17.4816C87.0845 16.5123 84.6499 15.3736 82.9832 14.0629C81.3285 12.7496 80.4912 10.9563 80.4912 8.69227C80.4912 6.40827 81.4272 4.54294 83.3032 3.09627C85.1752 1.65227 87.5699 0.9256 90.4725 0.9256C93.5565 0.9256 96.0405 1.7056 97.9205 3.26294C99.7979 4.81894 100.701 6.85627 100.642 9.37894L100.602 9.4936H95.1885C95.1885 8.1056 94.7699 7.0376 93.9339 6.2896C93.0899 5.54826 91.9085 5.17493 90.3912 5.17493C89.0205 5.17493 87.9539 5.50294 87.1992 6.16694C86.4552 6.83227 86.0765 7.67626 86.0765 8.7056C86.0765 9.65226 86.4872 10.4283 87.2979 11.0296C88.1112 11.6389 89.5205 12.2776 91.5219 12.9536C94.5819 13.8203 96.9192 14.9509 98.5192 16.3456C100.126 17.7443 100.93 19.5763 100.93 21.8563C100.93 24.2443 99.9952 26.1229 98.1405 27.5029C96.2712 28.8776 93.8192 29.5656 90.7592 29.5656C87.7565 29.5656 85.1912 28.8203 83.0499 27.3269C80.9005 25.8403 79.8525 23.6123 79.9165 20.6563L79.9579 20.5403H85.3725C85.3725 22.1856 85.8552 23.3949 86.8232 24.1696C87.7912 24.9483 89.1032 25.3389 90.7592 25.3389C92.2525 25.3389 93.3832 25.0296 94.1712 24.4029C94.9592 23.7763 95.3445 22.9403 95.3445 21.9016" fill="#1E2C52"/>
<path d="M136.606 16.9323H126.271V24.8829H138.55V29.1603H120.703V1.32827H138.519V5.63495H126.271V12.6296H136.606V16.9323Z" fill="#1E2C52"/>
<path d="M164.993 18.7816H171.275L168.199 8.97627H168.086L164.993 18.7816ZM172.637 23.1563H163.614L161.737 29.1603H155.913L165.295 1.32694H171.013L180.362 29.1603H174.533L172.637 23.1563Z" fill="#1E2C52"/>
<path d="M204.27 13.7376H208.233C209.798 13.7376 210.962 13.4056 211.734 12.7403C212.498 12.0816 212.874 11.1003 212.874 9.79627C212.874 8.52561 212.498 7.51094 211.718 6.75894C210.954 6.00694 209.822 5.63495 208.331 5.63495H204.27V13.7376ZM204.27 18.0349V29.1603H198.694V1.32694H208.331C211.497 1.32694 213.982 2.05895 215.777 3.50161C217.563 4.94961 218.459 6.96161 218.459 9.55095C218.459 10.9776 218.081 12.2109 217.321 13.2483C216.563 14.2869 215.458 15.1283 214.005 15.7616C215.646 16.2469 216.826 17.0549 217.55 18.1896C218.271 19.3269 218.631 20.7296 218.631 22.3976V24.4403C218.631 25.2203 218.738 26.0269 218.942 26.8776C219.158 27.7256 219.509 28.3523 220.025 28.7616V29.1603H214.269C213.761 28.7589 213.433 28.0789 213.291 27.1403C213.143 26.1949 213.073 25.2816 213.073 24.4043V22.4323C213.073 21.0443 212.695 19.9629 211.93 19.1963C211.177 18.4243 210.094 18.0349 208.709 18.0349H204.27" fill="#1E2C52"/>
<path d="M260.173 19.9456L260.215 20.0643C260.263 23.0283 259.353 25.3603 257.499 27.0403C255.638 28.7216 253.07 29.5656 249.79 29.5656C246.453 29.5656 243.753 28.4923 241.703 26.3443C239.653 24.1989 238.627 21.4216 238.627 18.0189V12.4896C238.627 9.10426 239.629 6.33094 241.63 4.16961C243.63 2.00828 246.255 0.9256 249.502 0.9256C252.899 0.9256 255.547 1.75894 257.459 3.41627C259.369 5.06694 260.297 7.4016 260.247 10.4096L260.215 10.5229H254.775C254.775 8.74293 254.35 7.4136 253.489 6.54026C252.635 5.66693 251.307 5.22693 249.502 5.22693C247.831 5.22693 246.533 5.90427 245.599 7.24427C244.665 8.5896 244.189 10.3243 244.189 12.4576V18.0189C244.189 20.1589 244.681 21.9069 245.674 23.2549C246.657 24.6043 248.035 25.2816 249.79 25.2816C251.463 25.2816 252.702 24.8469 253.53 23.9723C254.35 23.1003 254.761 21.7589 254.761 19.9456H260.173" fill="#1E2C52"/>
<path d="M302.36 29.1603H296.776V17.6003H285.443V29.1603H279.867V1.32827H285.443V13.2989H296.776V1.32827H302.36V29.1603Z" fill="#1E2C52"/>
<path d="M371.051 29.1603H365.465L354.245 10.3896L354.131 10.4096V29.1603H348.545V1.32827H354.131L365.351 20.0856L365.465 20.0643V1.32827H371.051V29.1603Z" fill="#1E2C52"/>
<path d="M407.737 16.9323H397.41V24.8829H409.681V29.1603H391.833V1.32827H409.646V5.63495H397.41V12.6296H407.737V16.9323Z" fill="#1E2C52"/>
<path d="M448.663 5.63495H440.709V29.1603H435.129V5.63495H427.289V1.32694H448.663V5.63495" fill="#1E2C52"/>
<path d="M489.63 20.2176H489.743L493.436 1.32827H499.183L492.69 29.1603H487.504L482.389 10.8296H482.272L477.164 29.1603H471.99L465.484 1.32827H471.243L474.951 20.2003H475.062L480.068 1.32827H484.586L489.63 20.2176" fill="#1E2C52"/>
<path d="M534.766 12.7043C534.766 10.5349 534.223 8.76293 533.14 7.37226C532.056 5.9816 530.556 5.28561 528.646 5.28561C526.76 5.28561 525.29 5.9816 524.243 7.37226C523.183 8.76293 522.665 10.5349 522.665 12.7043V17.7483C522.665 19.9536 523.19 21.7536 524.25 23.1443C525.306 24.5296 526.782 25.2229 528.689 25.2229C530.599 25.2229 532.083 24.5296 533.159 23.1443C534.23 21.7536 534.766 19.9536 534.766 17.7483V12.7043ZM540.326 17.7483C540.326 21.1763 539.25 24.0056 537.094 26.2283C534.937 28.4549 532.141 29.5656 528.689 29.5656C525.242 29.5656 522.453 28.4509 520.311 26.2163C518.171 23.9883 517.098 21.1683 517.098 17.7483V12.7403C517.098 9.3416 518.171 6.52028 520.303 4.28561C522.438 2.04961 525.216 0.9256 528.646 0.9256C532.098 0.9256 534.911 2.04961 537.078 4.28561C539.243 6.52028 540.326 9.3416 540.326 12.7403V17.7483" fill="#1E2C52"/>
<path d="M565.978 13.7376H569.939C571.506 13.7376 572.671 13.4056 573.44 12.7403C574.206 12.0816 574.583 11.1003 574.583 9.79627C574.583 8.52561 574.195 7.51094 573.427 6.75894C572.655 6.00694 571.532 5.63495 570.031 5.63495H565.978V13.7376ZM565.978 18.0349V29.1603H560.403V1.32694H570.031C573.215 1.32694 575.69 2.05895 577.478 3.50161C579.274 4.94961 580.168 6.96161 580.168 9.55095C580.168 10.9776 579.79 12.2109 579.028 13.2483C578.272 14.2869 577.166 15.1283 575.715 15.7616C577.354 16.2469 578.538 17.0549 579.258 18.1896C579.979 19.3269 580.339 20.7296 580.339 22.3976V24.4403C580.339 25.2203 580.447 26.0269 580.659 26.8776C580.864 27.7256 581.227 28.3523 581.735 28.7616V29.1603H575.978C575.467 28.7589 575.14 28.0789 574.992 27.1403C574.846 26.1949 574.779 25.2816 574.779 24.4043V22.4323C574.779 21.0443 574.4 19.9629 573.638 19.1963C572.886 18.4243 571.802 18.0349 570.416 18.0349H565.978" fill="#1E2C52"/>
<path d="M608.628 17.5389H606.587V29.1616H601.01V1.32694H606.587V12.7029H608.152L615.78 1.32694H622.683L613.047 14.2709L623.431 29.1616H616.314L608.628 17.5389" fill="#1E2C52"/>
</svg>
