<?xml version="1.0" encoding="UTF-8" standalone="no"?>
<svg
   xmlns:dc="http://purl.org/dc/elements/1.1/"
   xmlns:cc="http://creativecommons.org/ns#"
   xmlns:rdf="http://www.w3.org/1999/02/22-rdf-syntax-ns#"
   xmlns:svg="http://www.w3.org/2000/svg"
   xmlns="http://www.w3.org/2000/svg"
   viewBox="0 0 688.96002 119.89333"
   height="119.89333"
   width="688.96002"
   xml:space="preserve"
   id="svg2"
   version="1.1"><metadata
     id="metadata8"><rdf:RDF><cc:Work
         rdf:about=""><dc:format>image/svg+xml</dc:format><dc:type
           rdf:resource="http://purl.org/dc/dcmitype/StillImage" /></cc:Work></rdf:RDF></metadata><defs
     id="defs6" /><g
     transform="matrix(1.3333333,0,0,-1.3333333,0,119.89333)"
     id="g10"><g
       transform="scale(0.1)"
       id="g12"><path
         id="path14"
         style="fill:#231f20;fill-opacity:1;fill-rule:nonzero;stroke:none"
         d="M 635.664,779.242 H 777.113 L 449.363,269.238 H 353.621 L 17.2578,779.242 H 173.363 l 234.59,-366 227.711,366" /><path
         id="path16"
         style="fill:#231f20;fill-opacity:1;fill-rule:nonzero;stroke:none"
         d="m 906.484,779.242 h 608.066 v -87 h -472.66 v -116.25 h 276.87 v -91.5 h -276.87 v -123 h 476.96 V 269.238 H 906.484 v 510.004" /><path
         id="path18"
         style="fill:#231f20;fill-opacity:1;fill-rule:nonzero;stroke:none"
         d="m 2170.89,548.992 c 9.77,0 18.12,0.242 25.01,0.754 6.9,0.488 12.51,1.871 16.82,4.117 4.31,2.25 7.33,6 9.06,11.25 1.72,5.254 2.59,12.383 2.59,21.379 v 65.25 c 0,9.492 -0.87,16.992 -2.59,22.5 -1.73,5.504 -4.61,9.621 -8.62,12.375 -4.04,2.746 -9.5,4.379 -16.39,4.875 -6.91,0.488 -15.53,0.754 -25.88,0.754 H 1852.63 V 548.992 Z m -31.91,-91.496 255.3,-188.25 h -181.99 l -237.19,188.25 h -122.47 v -188.25 h -135.41 v 509.996 h 499.38 c 43.69,0 77.2,-7.379 100.48,-22.129 23.29,-14.75 34.93,-41.383 34.93,-79.867 v -122.25 c 0,-19.504 -3.59,-35.621 -10.78,-48.379 -7.2,-12.754 -17.11,-22.754 -29.75,-30 -12.66,-7.254 -27.17,-12.254 -43.56,-15 -16.39,-2.754 -33.5,-4.121 -51.32,-4.121 h -77.62" /><path
         id="path20"
         style="fill:#231f20;fill-opacity:1;fill-rule:nonzero;stroke:none"
         d="m 2553.84,779.242 h 127.64 l 266.52,-300 266.51,300 h 131.96 V 269.238 h -135.42 v 354.004 l -259.6,-292.5 h -25.87 l -251,286.5 V 269.238 h -120.74 v 510.004" /><path
         id="path22"
         style="fill:#231f20;fill-opacity:1;fill-rule:nonzero;stroke:none"
         d="m 3556.04,779.242 h 608.06 v -87 h -472.64 v -116.25 h 276.86 v -91.5 h -276.86 v -123 h 476.96 v -92.254 h -612.38 v 510.004" /><path
         id="path24"
         style="fill:#231f20;fill-opacity:1;fill-rule:nonzero;stroke:none"
         d="m 5063.68,369.734 c 0,-22.5 -4.02,-40.496 -12.07,-53.992 -8.07,-13.508 -18.96,-23.625 -32.77,-30.383 -13.81,-6.738 -29.91,-11.132 -48.29,-13.125 -18.42,-1.992 -37.96,-2.996 -58.67,-2.996 h -431.25 c -24.72,0 -45,2.996 -60.81,9.004 -15.82,5.996 -28.32,14.246 -37.52,24.746 -9.19,10.496 -15.5,22.754 -18.97,36.746 -3.45,13.996 -5.18,28.75 -5.18,44.258 v 290.25 c 0,20.5 3.03,37.5 9.08,50.996 6.02,13.5 15.21,24.254 27.58,32.25 12.36,7.989 27.74,13.625 46.15,16.883 18.4,3.242 39.67,4.871 63.83,4.871 h 426.93 c 24.72,0 45.28,-2 61.67,-6 16.39,-4.015 29.61,-9.629 39.68,-16.871 10.05,-7.25 17.1,-15.879 21.13,-25.879 4.01,-10.015 6.03,-20.75 6.03,-32.25 v -48.75 l -129.37,-18.75 v 61.5 H 4493.57 V 359.238 h 437.29 v 115.504 h -230.29 v 87 h 363.11 V 369.734" /></g></g></svg>