<svg width="775" height="388" viewBox="0 0 775 388" fill="none" xmlns="http://www.w3.org/2000/svg">
<g clip-path="url(#clip0)">
<g clip-path="url(#clip1)">
<path d="M651.719 24.6869H774.859V49.2709H651.719V24.6869Z" fill="#B11B32"/>
<path d="M16.6989 112.932L26.6635 110.075V118.061L16.6989 120.918V139.966H43.4281V149.149H4.72493V124.397L0 125.708V117.731L4.72493 116.369V89.5043H16.6989V112.932Z" fill="#1E2C52"/>
<path d="M119.309 89.5043V128.524C119.309 135.257 117.078 140.514 112.602 144.324C108.162 148.13 102.357 150 95.2779 150C88.2005 150 82.4592 148.13 78.0485 144.324C73.6179 140.514 71.4045 135.257 71.4045 128.524V89.5043H83.3939V128.524C83.3939 132.535 84.5112 135.585 86.6339 137.655C88.7752 139.756 91.6379 140.84 95.2779 140.84C98.9699 140.84 101.873 139.756 104.039 137.655C106.213 135.585 107.318 132.535 107.318 128.524V89.5043H119.309Z" fill="#1E2C52"/>
<path d="M170.349 124.261H165.977V149.149H153.994V89.5043H165.977V113.879H169.339L185.71 89.5043H200.491L179.83 117.243L202.106 149.149H186.866L170.349 124.261Z" fill="#1E2C52"/>
<path d="M246.558 126.892H260.05L253.446 105.904H253.217L246.558 126.892ZM262.953 136.271H243.605L239.61 149.149H227.097L247.207 89.5043H259.474L279.511 149.149H267.021L262.953 136.271Z" fill="#1E2C52"/>
<path d="M340.728 133.579C340.728 131.271 339.916 129.45 338.326 128.039C336.735 126.656 333.92 125.342 329.903 124.118C323.015 122.042 317.798 119.6 314.23 116.784C310.67 113.968 308.875 110.123 308.875 105.251C308.875 100.36 310.882 96.3776 314.918 93.2763C318.904 90.1683 324.03 88.6229 330.272 88.6229C336.9 88.6229 342.206 90.2883 346.242 93.6296C350.276 96.9724 352.211 101.33 352.072 106.726L352.006 107.011H340.4C340.4 104.004 339.498 101.728 337.704 100.132C335.907 98.5229 333.372 97.7333 330.118 97.7333C327.163 97.7333 324.882 98.4297 323.268 99.8537C321.654 101.285 320.85 103.111 320.85 105.324C320.85 107.326 321.724 109.012 323.472 110.273C325.228 111.595 328.246 112.976 332.511 114.412C339.066 116.275 344.091 118.678 347.528 121.672C350.99 124.645 352.695 128.594 352.695 133.485C352.695 138.604 350.711 142.615 346.699 145.571C342.738 148.542 337.446 150 330.871 150C324.492 150 318.954 148.408 314.344 145.203C309.752 142.018 307.528 137.266 307.627 130.923L307.719 130.65H319.347C319.347 134.197 320.382 136.775 322.456 138.459C324.538 140.104 327.343 140.935 330.871 140.935C334.102 140.935 336.538 140.288 338.211 138.947C339.9 137.615 340.728 135.811 340.728 133.579Z" fill="#1E2C52"/>
<path d="M398.666 149.149H386.693V89.5056H398.666V149.149Z" fill="#1E2C52"/>
<path d="M468.937 122.945H446.827V139.966H473.137V149.149H434.827V89.5043H473.046V98.7281H446.827V113.716H468.937V122.945Z" fill="#1E2C52"/>
<path d="M552.966 129.957H553.216L561.14 89.5043H573.486L559.555 149.149H548.419L537.444 109.866H537.191L526.25 149.149H515.138L501.203 89.5043H513.523L521.5 129.928H521.73L532.478 89.5043H542.161L552.966 129.957Z" fill="#1E2C52"/>
<path d="M616.968 149.149H604.994V89.5056H616.968V149.149Z" fill="#1E2C52"/>
<path d="M697.902 129.382L697.992 129.631C698.1 135.995 696.163 140.983 692.178 144.578C688.194 148.199 682.672 150 675.668 150C668.516 150 662.694 147.695 658.315 143.106C653.916 138.49 651.719 132.557 651.719 125.247V113.411C651.719 106.148 653.87 100.224 658.163 95.5641C662.454 90.9509 668.072 88.6229 675.038 88.6229C682.303 88.6229 688.003 90.4269 692.087 93.9523C696.188 97.5016 698.199 102.507 698.058 108.966L697.992 109.192H686.364C686.364 105.391 685.444 102.533 683.572 100.642C681.746 98.7709 678.916 97.8537 675.038 97.8537C671.47 97.8537 668.655 99.3 666.672 102.167C664.636 105.043 663.646 108.78 663.646 113.33V125.247C663.646 129.84 664.711 133.596 666.8 136.504C668.95 139.371 671.886 140.84 675.668 140.84C679.236 140.84 681.94 139.899 683.674 138.006C685.444 136.138 686.323 133.276 686.323 129.382H697.902Z" fill="#1E2C52"/>
<path d="M742.684 139.966H770.068V149.149H728.575V142.918L755.14 98.7281H728.615V89.5043H769.371V95.4709L742.684 139.966Z" fill="#1E2C52"/>
<path d="M8.3828 33.7376H12.3437C13.9099 33.7376 15.0744 33.4056 15.8369 32.7403C16.6009 32.0816 16.9848 31.1003 16.9848 29.7963C16.9848 28.5256 16.6009 27.5109 15.8285 26.7589C15.0588 26.0069 13.9271 25.635 12.4339 25.635H8.3828V33.7376ZM8.3828 38.0349V49.1603H2.80574V21.3269H12.4339C15.6077 21.3269 18.0921 22.059 19.8807 23.5016C21.6681 24.9496 22.5713 26.9616 22.5713 29.551C22.5713 30.9776 22.1932 32.2109 21.4307 33.2483C20.6681 34.2869 19.5687 35.1283 18.1181 35.7616C19.7588 36.2469 20.9396 37.0549 21.6619 38.1896C22.3828 39.3269 22.7437 40.7296 22.7437 42.3976V44.4403C22.7437 45.2203 22.8421 46.0269 23.0557 46.8776C23.2672 47.7256 23.6208 48.3523 24.1385 48.7616V49.1603H18.3796C17.8713 48.7589 17.5443 48.0789 17.3968 47.1403C17.2479 46.1949 17.1755 45.2816 17.1755 44.4043V42.4323C17.1755 41.0443 16.8057 39.9629 16.0432 39.1963C15.2796 38.4243 14.2047 38.0349 12.8192 38.0349H8.3828Z" fill="#1E2C52"/>
<path d="M59.314 36.9323H48.9885V44.8829H61.2579V49.1603H43.4041V21.3283H61.2259V25.635H48.9885V32.6296H59.314V36.9323Z" fill="#1E2C52"/>
<path d="M95.3445 41.9016C95.3445 40.8269 94.9672 39.9656 94.2299 39.3189C93.4819 38.6696 92.1699 38.0563 90.2992 37.4816C87.0845 36.5123 84.6499 35.3736 82.9832 34.0629C81.3285 32.7496 80.4912 30.9563 80.4912 28.6923C80.4912 26.4083 81.4272 24.5429 83.3032 23.0963C85.1752 21.6523 87.5699 20.9256 90.4725 20.9256C93.5565 20.9256 96.0405 21.7056 97.9205 23.2629C99.7979 24.8189 100.701 26.8563 100.642 29.3789L100.602 29.4936H95.1885C95.1885 28.1056 94.7699 27.0376 93.9339 26.2896C93.0899 25.5483 91.9085 25.1749 90.3912 25.1749C89.0205 25.1749 87.9539 25.5029 87.1992 26.1669C86.4552 26.8323 86.0765 27.6763 86.0765 28.7056C86.0765 29.6523 86.4872 30.4283 87.2979 31.0296C88.1112 31.6389 89.5205 32.2776 91.5219 32.9536C94.5819 33.8203 96.9192 34.9509 98.5192 36.3456C100.126 37.7443 100.93 39.5763 100.93 41.8563C100.93 44.2443 99.9952 46.1229 98.1405 47.5029C96.2712 48.8776 93.8192 49.5656 90.7592 49.5656C87.7565 49.5656 85.1912 48.8203 83.0499 47.3269C80.9005 45.8403 79.8525 43.6123 79.9165 40.6563L79.9579 40.5403H85.3725C85.3725 42.1856 85.8552 43.3949 86.8232 44.1696C87.7912 44.9483 89.1032 45.3389 90.7592 45.3389C92.2525 45.3389 93.3832 45.0296 94.1712 44.4029C94.9592 43.7763 95.3445 42.9403 95.3445 41.9016Z" fill="#1E2C52"/>
<path d="M136.606 36.9323H126.271V44.8829H138.55V49.1603H120.703V21.3283H138.519V25.635H126.271V32.6296H136.606V36.9323Z" fill="#1E2C52"/>
<path d="M164.993 38.7816H171.275L168.199 28.9763H168.086L164.993 38.7816ZM172.637 43.1563H163.614L161.737 49.1603H155.913L165.295 21.3269H171.013L180.362 49.1603H174.533L172.637 43.1563Z" fill="#1E2C52"/>
<path d="M204.27 33.7376H208.233C209.798 33.7376 210.962 33.4056 211.734 32.7403C212.498 32.0816 212.874 31.1003 212.874 29.7963C212.874 28.5256 212.498 27.5109 211.718 26.7589C210.954 26.0069 209.822 25.635 208.331 25.635H204.27V33.7376ZM204.27 38.0349V49.1603H198.694V21.3269H208.331C211.497 21.3269 213.982 22.059 215.777 23.5016C217.563 24.9496 218.459 26.9616 218.459 29.551C218.459 30.9776 218.081 32.2109 217.321 33.2483C216.563 34.2869 215.458 35.1283 214.005 35.7616C215.646 36.2469 216.826 37.0549 217.55 38.1896C218.271 39.3269 218.631 40.7296 218.631 42.3976V44.4403C218.631 45.2203 218.738 46.0269 218.942 46.8776C219.158 47.7256 219.509 48.3523 220.025 48.7616V49.1603H214.269C213.761 48.7589 213.433 48.0789 213.291 47.1403C213.143 46.1949 213.073 45.2816 213.073 44.4043V42.4323C213.073 41.0443 212.695 39.9629 211.93 39.1963C211.177 38.4243 210.094 38.0349 208.709 38.0349H204.27Z" fill="#1E2C52"/>
<path d="M260.173 39.9456L260.215 40.0643C260.263 43.0283 259.353 45.3603 257.499 47.0403C255.638 48.7216 253.07 49.5656 249.79 49.5656C246.453 49.5656 243.753 48.4923 241.703 46.3443C239.653 44.1989 238.627 41.4216 238.627 38.0189V32.4896C238.627 29.1043 239.629 26.3309 241.63 24.1696C243.63 22.0083 246.255 20.9256 249.502 20.9256C252.899 20.9256 255.547 21.7589 257.459 23.4163C259.369 25.0669 260.297 27.4016 260.247 30.4096L260.215 30.5229H254.775C254.775 28.7429 254.35 27.4136 253.489 26.5403C252.635 25.6669 251.307 25.2269 249.502 25.2269C247.831 25.2269 246.533 25.9043 245.599 27.2443C244.665 28.5896 244.189 30.3243 244.189 32.4576V38.0189C244.189 40.1589 244.681 41.9069 245.674 43.2549C246.657 44.6043 248.035 45.2816 249.79 45.2816C251.463 45.2816 252.702 44.8469 253.53 43.9723C254.35 43.1003 254.761 41.7589 254.761 39.9456H260.173Z" fill="#1E2C52"/>
<path d="M302.36 49.1603H296.776V37.6003H285.443V49.1603H279.867V21.3283H285.443V33.2989H296.776V21.3283H302.36V49.1603Z" fill="#1E2C52"/>
<path d="M371.051 49.1603H365.465L354.245 30.3896L354.131 30.4096V49.1603H348.545V21.3283H354.131L365.351 40.0856L365.465 40.0643V21.3283H371.051V49.1603Z" fill="#1E2C52"/>
<path d="M407.737 36.9323H397.41V44.8829H409.681V49.1603H391.833V21.3283H409.646V25.635H397.41V32.6296H407.737V36.9323Z" fill="#1E2C52"/>
<path d="M448.663 25.635H440.709V49.1603H435.129V25.635H427.289V21.3269H448.663V25.635Z" fill="#1E2C52"/>
<path d="M489.63 40.2176H489.743L493.436 21.3283H499.183L492.69 49.1603H487.504L482.389 30.8296H482.272L477.164 49.1603H471.99L465.484 21.3283H471.243L474.951 40.2003H475.062L480.068 21.3283H484.586L489.63 40.2176Z" fill="#1E2C52"/>
<path d="M534.766 32.7043C534.766 30.5349 534.223 28.7629 533.14 27.3723C532.056 25.9816 530.556 25.2856 528.646 25.2856C526.76 25.2856 525.29 25.9816 524.243 27.3723C523.183 28.7629 522.665 30.5349 522.665 32.7043V37.7483C522.665 39.9536 523.19 41.7536 524.25 43.1443C525.306 44.5296 526.782 45.2229 528.689 45.2229C530.599 45.2229 532.083 44.5296 533.159 43.1443C534.23 41.7536 534.766 39.9536 534.766 37.7483V32.7043ZM540.326 37.7483C540.326 41.1763 539.25 44.0056 537.094 46.2283C534.937 48.4549 532.141 49.5656 528.689 49.5656C525.242 49.5656 522.453 48.4509 520.311 46.2163C518.171 43.9883 517.098 41.1683 517.098 37.7483V32.7403C517.098 29.3416 518.171 26.5203 520.303 24.2856C522.438 22.0496 525.216 20.9256 528.646 20.9256C532.098 20.9256 534.911 22.0496 537.078 24.2856C539.243 26.5203 540.326 29.3416 540.326 32.7403V37.7483Z" fill="#1E2C52"/>
<path d="M565.978 33.7376H569.939C571.506 33.7376 572.671 33.4056 573.44 32.7403C574.206 32.0816 574.583 31.1003 574.583 29.7963C574.583 28.5256 574.195 27.5109 573.427 26.7589C572.655 26.0069 571.532 25.635 570.031 25.635H565.978V33.7376ZM565.978 38.0349V49.1603H560.403V21.3269H570.031C573.215 21.3269 575.69 22.059 577.478 23.5016C579.274 24.9496 580.168 26.9616 580.168 29.551C580.168 30.9776 579.79 32.2109 579.028 33.2483C578.272 34.2869 577.166 35.1283 575.715 35.7616C577.354 36.2469 578.538 37.0549 579.258 38.1896C579.979 39.3269 580.339 40.7296 580.339 42.3976V44.4403C580.339 45.2203 580.447 46.0269 580.659 46.8776C580.864 47.7256 581.227 48.3523 581.735 48.7616V49.1603H575.978C575.467 48.7589 575.14 48.0789 574.992 47.1403C574.846 46.1949 574.779 45.2816 574.779 44.4043V42.4323C574.779 41.0443 574.4 39.9629 573.638 39.1963C572.886 38.4243 571.802 38.0349 570.416 38.0349H565.978Z" fill="#1E2C52"/>
<path d="M608.628 37.5389H606.587V49.1616H601.01V21.3269H606.587V32.7029H608.152L615.78 21.3269H622.683L613.047 34.2709L623.431 49.1616H616.314L608.628 37.5389Z" fill="#1E2C52"/>
</g>
<g clip-path="url(#clip2)">
<path fill-rule="evenodd" clip-rule="evenodd" d="M229.035 287.979V327.964H222.738V287.979H229.035ZM229.198 270.236V278.411H222.329V270.236H229.198ZM244.571 287.979L244.818 294.358C246.126 292.013 247.775 290.255 249.765 289.084C251.756 287.911 254.003 287.326 256.512 287.326C262.291 287.324 265.834 289.533 267.142 293.949C268.45 298.364 269.132 303.216 269.187 308.504C269.187 308.666 269.187 308.817 269.187 308.953C269.187 309.088 269.187 309.239 269.187 309.402V327.964H262.889V309.975C262.889 307.139 262.862 305.123 262.807 303.924C262.753 302.723 262.645 301.663 262.481 300.736C262.481 300.625 262.468 300.53 262.441 300.45C262.413 300.366 262.399 300.273 262.399 300.163C261.908 298.036 261.036 296.415 259.783 295.298C258.527 294.18 256.975 293.621 255.122 293.621C253.049 293.621 251.195 294.358 249.561 295.83C247.924 297.302 246.781 299.29 246.126 301.798C246.071 302.015 246.016 302.235 245.964 302.453C245.909 302.671 245.881 302.889 245.881 303.106C245.662 304.142 245.525 305.342 245.471 306.704C245.418 308.066 245.391 310.275 245.391 313.328V327.964H239.093V308.257C239.093 307.33 239.08 306.418 239.053 305.519C239.023 304.619 239.011 303.706 239.011 302.779C238.956 301.851 238.931 300.94 238.931 300.04C238.931 299.141 238.931 298.228 238.931 297.302C238.874 295.719 238.834 294.153 238.806 292.6C238.779 291.046 238.737 289.506 238.684 287.979L244.571 287.979ZM295.682 288.961L295.191 295.175C294.7 294.902 294.224 294.658 293.761 294.44C293.298 294.22 292.82 294.031 292.329 293.867C291.731 293.649 291.103 293.486 290.448 293.376C289.795 293.266 289.085 293.212 288.323 293.212C286.633 293.211 285.256 293.662 284.192 294.562C283.131 295.461 282.598 296.674 282.598 298.2C282.598 299.563 283.074 300.694 284.03 301.593C284.984 302.493 286.143 303.352 287.503 304.17C287.941 304.387 288.377 304.62 288.813 304.865C289.249 305.11 289.685 305.369 290.121 305.642C291.975 306.731 293.679 308.081 295.231 309.688C296.786 311.296 297.563 313.573 297.563 316.517C297.563 320.168 296.432 323.099 294.17 325.307C291.908 327.514 288.923 328.619 285.214 328.619C284.125 328.618 283.089 328.537 282.107 328.374C281.126 328.208 280.171 327.992 279.247 327.718C278.754 327.554 278.278 327.364 277.812 327.145C277.351 326.927 276.873 326.682 276.384 326.41V319.786C277.638 320.55 278.769 321.123 279.778 321.504C280.784 321.885 281.781 322.159 282.762 322.322C283.034 322.322 283.308 322.336 283.579 322.362C283.851 322.389 284.125 322.404 284.399 322.404C286.305 322.404 287.872 321.914 289.1 320.933C290.326 319.95 290.939 318.697 290.939 317.171C290.939 315.916 290.49 314.854 289.591 313.983C288.691 313.109 287.585 312.265 286.277 311.447C285.844 311.174 285.378 310.902 284.887 310.629C284.399 310.357 283.906 310.057 283.417 309.729C281.562 308.583 279.86 307.208 278.305 305.6C276.751 303.99 275.976 301.771 275.976 298.937C275.976 295.393 277.052 292.572 279.205 290.474C281.357 288.374 284.207 287.326 287.75 287.326C288.295 287.324 288.813 287.339 289.304 287.366C289.795 287.393 290.286 287.461 290.776 287.57C291.539 287.678 292.316 287.857 293.106 288.103C293.898 288.348 294.755 288.634 295.682 288.961ZM313.672 276.449V288.142H322.75V293.949H313.672V309.647C313.672 311.718 313.714 313.341 313.796 314.513C313.878 315.685 313.973 316.681 314.082 317.498C314.299 318.969 314.872 320.115 315.799 320.933C316.726 321.749 317.899 322.159 319.316 322.159C319.588 322.159 319.847 322.144 320.094 322.118C320.338 322.089 320.57 322.049 320.787 321.995C321.225 321.94 321.646 321.818 322.057 321.627C322.463 321.435 322.914 321.205 323.403 320.933V327.309C322.533 327.637 321.715 327.869 320.951 328.005C320.188 328.14 319.453 328.264 318.743 328.374C318.527 328.374 318.32 328.374 318.131 328.374C317.939 328.374 317.762 328.374 317.6 328.374C312.856 328.374 309.979 326.751 308.97 323.508C307.962 320.265 307.458 316.38 307.458 311.856V293.949H299.526V288.142H307.458V278.985L313.672 276.449ZM336.407 287.979V327.964H330.111V287.979H336.407ZM336.571 270.236V278.411H329.702V270.236H336.571ZM355.133 276.449V288.142H364.211V293.949H355.133V309.647C355.133 311.718 355.176 313.341 355.258 314.513C355.338 315.685 355.433 316.681 355.542 317.498C355.761 318.969 356.334 320.115 357.259 320.933C358.185 321.749 359.359 322.159 360.776 322.159C361.048 322.159 361.307 322.144 361.553 322.118C361.798 322.089 362.029 322.049 362.248 321.995C362.684 321.94 363.106 321.818 363.516 321.627C363.925 321.435 364.374 321.205 364.864 320.933V327.309C363.992 327.637 363.175 327.869 362.413 328.005C361.648 328.14 360.913 328.264 360.203 328.374C359.986 328.374 359.782 328.374 359.59 328.374C359.399 328.374 359.222 328.374 359.06 328.374C354.316 328.374 351.439 326.751 350.432 323.508C349.423 320.265 348.918 316.38 348.918 311.856V293.949H340.986V288.142H348.918V278.985L355.133 276.449ZM400.848 288.061V313.245C400.848 315.098 400.875 316.939 400.928 318.766C400.983 320.591 401.037 322.432 401.092 324.284C401.147 324.883 401.187 325.498 401.214 326.125C401.242 326.75 401.254 327.364 401.254 327.964H395.45L395.205 321.749C393.84 323.984 392.178 325.661 390.215 326.779C388.252 327.895 386.072 328.455 383.673 328.455C378.549 328.454 375.183 326.534 373.574 322.691C371.967 318.845 371.162 314.364 371.162 309.239V288.061H377.46V306.622C377.46 309.566 377.513 311.815 377.624 313.368C377.732 314.921 377.951 316.216 378.277 317.253C378.875 318.997 379.749 320.332 380.893 321.259C382.039 322.186 383.402 322.65 384.981 322.65C387.873 322.649 390.188 321.327 391.932 318.684C393.676 316.039 394.55 312.564 394.55 308.258V305.558V288.061H400.848ZM419.981 276.449V288.142H429.059V293.949H419.981V309.647C419.981 311.718 420.023 313.341 420.105 314.513C420.188 315.685 420.282 316.681 420.392 317.498C420.609 318.969 421.182 320.115 422.109 320.933C423.035 321.749 424.208 322.159 425.624 322.159C425.898 322.159 426.157 322.144 426.403 322.118C426.648 322.089 426.879 322.049 427.096 321.995C427.532 321.94 427.956 321.818 428.364 321.627C428.773 321.435 429.224 321.205 429.714 320.933V327.309C428.84 327.637 428.023 327.869 427.26 328.005C426.496 328.14 425.761 328.264 425.053 328.374C424.834 328.374 424.63 328.374 424.44 328.374C424.249 328.374 424.072 328.374 423.907 328.374C419.164 328.374 416.289 326.751 415.28 323.508C414.273 320.265 413.768 316.38 413.768 311.856V293.949H405.833V288.142H413.768V278.985L419.981 276.449ZM440.673 309.893C441.107 313.872 442.322 317.008 444.311 319.296C446.301 321.584 448.85 322.73 451.956 322.73C453.321 322.73 454.669 322.554 456.005 322.2C457.34 321.845 458.663 321.314 459.971 320.604C460.407 320.386 460.843 320.142 461.279 319.869C461.715 319.594 462.153 319.296 462.587 318.971V326.083C461.553 326.629 460.558 327.078 459.602 327.433C458.648 327.786 457.681 328.101 456.7 328.374C455.883 328.535 455.065 328.673 454.246 328.783C453.429 328.89 452.584 328.945 451.712 328.945C446.423 328.945 442.198 327.025 439.037 323.181C435.875 319.337 434.293 314.118 434.293 307.522C434.293 301.308 435.766 296.32 438.71 292.558C441.655 288.796 445.524 286.917 450.322 286.917C456.102 286.916 460.013 289.288 462.056 294.031C464.101 298.772 465.123 304.06 465.123 309.893H440.673ZM440.673 304.087H458.745C458.526 301.09 457.749 298.46 456.413 296.198C455.078 293.934 452.965 292.804 450.076 292.804C447.624 292.804 445.551 293.812 443.862 295.83C442.171 297.846 441.107 300.599 440.673 304.087ZM539.375 291.004C539.975 290.623 540.561 290.268 541.134 289.942C541.707 289.613 542.265 289.314 542.81 289.042C544.064 288.443 545.331 288.006 546.612 287.734C547.893 287.461 549.27 287.326 550.742 287.326C553.904 287.324 556.562 288.034 558.717 289.452C560.869 290.868 562.382 292.886 563.254 295.502C563.637 296.7 563.909 298.159 564.071 299.876C564.235 301.593 564.317 303.842 564.317 306.622V314.39C564.317 315.535 564.317 316.666 564.317 317.783C564.317 318.901 564.345 320.033 564.397 321.178C564.397 322.322 564.427 323.453 564.48 324.571C564.534 325.688 564.589 326.82 564.644 327.964H558.837C558.837 327.529 558.837 327.174 558.837 326.901C558.837 326.629 558.837 326.356 558.837 326.083C558.837 325.865 558.837 325.661 558.837 325.47C558.837 325.279 558.837 325.075 558.837 324.857C558.837 324.583 558.837 324.352 558.837 324.162C558.837 323.969 558.837 323.767 558.837 323.549C558.837 323.167 558.837 322.786 558.837 322.404C558.837 322.022 558.837 321.586 558.837 321.096C557.584 323.657 556.044 325.525 554.218 326.696C552.392 327.868 550.142 328.455 547.471 328.455C543.929 328.454 541.079 327.378 538.926 325.225C536.774 323.071 535.695 320.168 535.695 316.517C535.695 312.319 537.237 309.089 540.316 306.827C543.396 304.564 547.773 303.434 553.441 303.434C553.55 303.434 553.66 303.434 553.767 303.434C553.877 303.434 553.986 303.434 554.096 303.434C554.641 303.434 555.239 303.447 555.894 303.475C556.547 303.502 557.312 303.543 558.184 303.597C558.129 300.218 557.419 297.71 556.059 296.075C554.696 294.439 552.569 293.621 549.679 293.621C548.588 293.621 547.566 293.731 546.612 293.949C545.658 294.167 544.719 294.494 543.792 294.93C543.082 295.202 542.402 295.556 541.747 295.993C541.092 296.428 540.411 296.919 539.701 297.465L539.375 291.004ZM558.348 309.075C558.022 309.022 557.721 308.981 557.449 308.953C557.175 308.926 556.903 308.912 556.629 308.912C556.358 308.857 556.084 308.83 555.812 308.83C555.541 308.83 555.239 308.83 554.913 308.83C550.77 308.83 547.636 309.458 545.508 310.712C543.383 311.964 542.32 313.872 542.32 316.434C542.32 318.287 542.92 319.788 544.118 320.933C545.317 322.075 546.899 322.65 548.862 322.65C552.514 322.649 555.01 321.3 556.343 318.602C557.678 315.903 558.348 312.728 558.348 309.075ZM601.853 287.979L589.668 327.964H582.391L569.878 287.979H576.666L583.617 311.037C583.725 311.528 583.861 312.007 584.026 312.469C584.188 312.931 584.352 313.41 584.516 313.9C584.843 315.098 585.172 316.284 585.498 317.456C585.824 318.628 586.043 319.815 586.151 321.014C586.26 320.25 586.385 319.528 586.519 318.846C586.656 318.165 586.806 317.471 586.968 316.763C587.078 316.378 587.187 316.013 587.297 315.658C587.404 315.303 587.514 314.963 587.623 314.637L595.638 287.979H601.853ZM613.383 287.979V327.964H607.085V287.979H613.383ZM613.545 270.236V278.411H606.677V270.236H613.545ZM624.913 291.004C625.513 290.623 626.098 290.268 626.671 289.942C627.244 289.613 627.802 289.314 628.348 289.042C629.601 288.443 630.869 288.006 632.152 287.734C633.43 287.461 634.806 287.326 636.28 287.326C639.442 287.324 642.1 288.034 644.252 289.452C646.405 290.868 647.919 292.886 648.791 295.502C649.173 296.7 649.446 298.159 649.609 299.876C649.773 301.593 649.855 303.842 649.855 306.622V314.39C649.855 315.535 649.855 316.666 649.855 317.783C649.855 318.901 649.882 320.033 649.937 321.178C649.937 322.322 649.965 323.453 650.017 324.571C650.074 325.688 650.127 326.82 650.181 327.964H644.377C644.377 327.529 644.377 327.174 644.377 326.901C644.377 326.629 644.377 326.356 644.377 326.083C644.377 325.865 644.377 325.661 644.377 325.47C644.377 325.279 644.377 325.075 644.377 324.857C644.377 324.583 644.377 324.352 644.377 324.162C644.377 323.969 644.377 323.767 644.377 323.549C644.377 323.167 644.377 322.786 644.377 322.404C644.377 322.022 644.377 321.586 644.377 321.096C643.121 323.657 641.582 325.525 639.755 326.696C637.929 327.868 635.68 328.455 633.009 328.455C629.466 328.454 626.617 327.378 624.464 325.225C622.309 323.071 621.233 320.168 621.233 316.517C621.233 312.319 622.773 309.089 625.852 306.827C628.933 304.564 633.31 303.434 638.978 303.434C639.088 303.434 639.197 303.434 639.305 303.434C639.414 303.434 639.524 303.434 639.633 303.434C640.177 303.434 640.777 303.447 641.432 303.475C642.087 303.502 642.85 303.543 643.722 303.597C643.667 300.218 642.957 297.71 641.596 296.075C640.231 294.439 638.106 293.621 635.216 293.621C634.127 293.621 633.104 293.731 632.152 293.949C631.196 294.167 630.256 294.494 629.329 294.93C628.62 295.202 627.939 295.556 627.284 295.993C626.629 296.428 625.949 296.919 625.239 297.465L624.913 291.004ZM643.886 309.075C643.557 309.022 643.258 308.981 642.984 308.953C642.713 308.926 642.441 308.912 642.167 308.912C641.895 308.857 641.622 308.83 641.35 308.83C641.076 308.83 640.777 308.83 640.45 308.83C636.307 308.83 633.171 309.458 631.046 310.712C628.921 311.964 627.857 313.872 627.857 316.434C627.857 318.287 628.457 319.788 629.656 320.933C630.854 322.075 632.436 322.65 634.399 322.65C638.051 322.649 640.545 321.3 641.881 318.602C643.218 315.903 643.886 312.728 643.886 309.075ZM668.908 276.449V288.142H677.986V293.949H668.908V309.647C668.908 311.718 668.95 313.341 669.033 314.513C669.113 315.685 669.209 316.681 669.317 317.498C669.536 318.969 670.109 320.115 671.033 320.933C671.962 321.749 673.133 322.159 674.551 322.159C674.823 322.159 675.082 322.144 675.328 322.118C675.572 322.089 675.804 322.049 676.023 321.995C676.461 321.94 676.88 321.818 677.291 321.627C677.7 321.435 678.151 321.205 678.639 320.933V327.309C677.767 327.637 676.95 327.869 676.188 328.005C675.423 328.14 674.686 328.264 673.98 328.374C673.761 328.374 673.557 328.374 673.365 328.374C673.173 328.374 672.997 328.374 672.834 328.374C668.089 328.374 665.216 326.751 664.207 323.508C663.198 320.265 662.693 316.38 662.693 311.856V293.949H654.763V288.142H662.693V278.985L668.908 276.449ZM691.643 287.979V327.964H685.346V287.979H691.643ZM691.808 270.236V278.411H684.937V270.236H691.808ZM734.002 308.094C734.002 314.2 732.381 319.202 729.137 323.099C725.893 326.996 721.683 328.945 716.504 328.945C711.486 328.945 707.343 326.983 704.072 323.058C700.801 319.133 699.165 314.146 699.165 308.094C699.165 301.934 700.801 296.864 704.072 292.886C707.343 288.905 711.514 286.917 716.584 286.917C721.708 286.916 725.881 288.893 729.097 292.845C732.313 296.797 733.948 301.88 734.002 308.094ZM727.296 308.257C727.296 303.732 726.302 300.027 724.312 297.138C722.321 294.247 719.773 292.804 716.666 292.804C713.504 292.804 710.914 294.234 708.898 297.096C706.88 299.957 705.873 303.597 705.873 308.013C705.873 312.482 706.88 316.122 708.898 318.929C710.914 321.736 713.504 323.14 716.666 323.14C719.72 323.139 722.254 321.736 724.271 318.929C726.289 316.122 727.296 312.564 727.296 308.257ZM747.413 287.979L747.659 294.358C748.967 292.013 750.617 290.255 752.607 289.084C754.598 287.911 756.845 287.326 759.353 287.326C765.131 287.324 768.676 289.533 769.984 293.949C771.292 298.364 771.974 303.216 772.029 308.504C772.029 308.666 772.029 308.817 772.029 308.953C772.029 309.088 772.029 309.239 772.029 309.402V327.964H765.731V309.975C765.731 307.139 765.704 305.123 765.649 303.924C765.596 302.723 765.485 301.663 765.323 300.736C765.323 300.625 765.31 300.53 765.283 300.45C765.255 300.366 765.24 300.273 765.24 300.163C764.75 298.036 763.878 296.415 762.624 295.298C761.371 294.18 759.817 293.621 757.963 293.621C755.891 293.621 754.037 294.358 752.403 295.83C750.766 297.302 749.623 299.29 748.967 301.798C748.913 302.015 748.858 302.235 748.803 302.453C748.751 302.671 748.721 302.889 748.721 303.106C748.504 304.142 748.367 305.342 748.315 306.704C748.26 308.066 748.232 310.275 748.232 313.328V327.964H741.935V308.257C741.935 307.33 741.922 306.418 741.895 305.519C741.867 304.619 741.855 303.706 741.855 302.779C741.798 301.851 741.772 300.94 741.772 300.04C741.772 299.141 741.772 298.228 741.772 297.302C741.718 295.719 741.676 294.153 741.648 292.6C741.621 291.046 741.581 289.506 741.526 287.979L747.413 287.979Z" fill="#7B7979"/>
<path fill-rule="evenodd" clip-rule="evenodd" d="M505.439 308.094C505.439 314.2 503.817 319.202 500.573 323.099C497.328 326.996 493.117 328.945 487.94 328.945C482.923 328.945 478.78 326.983 475.509 323.058C472.238 319.133 470.601 314.146 470.601 308.094C470.601 301.934 472.238 296.864 475.509 292.886C478.78 288.905 482.95 286.917 488.02 286.917C493.144 286.916 497.317 288.893 500.531 292.845C503.747 296.797 505.384 301.88 505.439 308.094ZM498.732 308.257C498.732 303.732 497.738 300.027 495.748 297.138C493.757 294.247 491.209 292.804 488.102 292.804C484.938 292.804 482.35 294.234 480.332 297.096C478.316 299.957 477.307 303.597 477.307 308.013C477.307 312.482 478.316 316.122 480.332 318.929C482.35 321.736 484.938 323.14 488.102 323.14C491.156 323.139 493.69 321.736 495.706 318.929C497.723 316.122 498.732 312.564 498.732 308.257ZM531.933 269.417V275.63C531.443 275.468 531.007 275.36 530.625 275.305C530.244 275.251 529.888 275.197 529.562 275.142C529.454 275.142 529.315 275.142 529.153 275.142C528.989 275.142 528.827 275.142 528.662 275.142C525.882 275.142 524.193 276.232 523.593 278.412C522.992 280.592 522.693 282.991 522.693 285.608C522.693 285.716 522.693 285.813 522.693 285.895C522.693 285.977 522.693 286.044 522.693 286.099V288.142H531.933V293.949H522.693V327.964H516.313V293.949H508.381V288.142H516.313C516.313 287.816 516.313 287.488 516.313 287.162C516.313 286.833 516.313 286.535 516.313 286.262C516.423 281.845 517.133 277.827 518.441 274.202C519.749 270.576 522.721 268.764 527.354 268.764C527.681 268.762 527.995 268.778 528.296 268.804C528.595 268.831 528.881 268.846 529.153 268.846C529.589 268.899 530.025 268.969 530.461 269.05C530.897 269.131 531.388 269.254 531.933 269.417Z" fill="#F5932E"/>
<path d="M201.65 238.36C201.65 374.967 201.65 374.967 201.65 374.967" stroke="#F5932E" stroke-width="27.4257" stroke-miterlimit="22.9256"/>
<path fill-rule="evenodd" clip-rule="evenodd" d="M226.681 357.87L222.152 343.073H224.745L227.1 351.616L227.974 354.794C228.014 354.633 228.271 353.615 228.741 351.741L231.095 343.073H233.673L235.891 351.656L236.633 354.486L237.479 351.626L240.015 343.073H242.454L237.827 357.87H235.226L232.871 349.009L232.296 346.486L229.303 357.87H226.681ZM254.218 356.045C253.287 356.834 252.392 357.392 251.537 357.72C250.675 358.042 249.753 358.205 248.769 358.205C247.141 358.205 245.894 357.81 245.02 357.016C244.148 356.221 243.71 355.204 243.71 353.972C243.71 353.245 243.874 352.583 244.205 351.984C244.533 351.384 244.967 350.904 245.5 350.542C246.037 350.18 246.635 349.906 247.307 349.72C247.798 349.591 248.542 349.463 249.534 349.344C251.558 349.101 253.053 348.816 254.009 348.478C254.02 348.135 254.024 347.917 254.024 347.826C254.024 346.803 253.786 346.081 253.31 345.667C252.674 345.096 251.718 344.817 250.456 344.817C249.277 344.815 248.407 345.02 247.84 345.434C247.278 345.847 246.865 346.581 246.593 347.631L244.144 347.294C244.367 346.248 244.733 345.397 245.243 344.754C245.753 344.107 246.494 343.607 247.461 343.261C248.424 342.913 249.544 342.737 250.818 342.737C252.082 342.736 253.106 342.89 253.896 343.185C254.686 343.482 255.265 343.854 255.642 344.308C256.013 344.757 256.269 345.324 256.421 346.014C256.503 346.441 256.545 347.215 256.545 348.325V351.671C256.545 354.002 256.596 355.479 256.705 356.093C256.811 356.71 257.026 357.306 257.339 357.872L254.719 357.87C254.46 357.352 254.29 356.745 254.218 356.045ZM254.009 350.442C253.095 350.819 251.733 351.132 249.915 351.393C248.883 351.542 248.148 351.708 247.726 351.893C247.297 352.078 246.966 352.35 246.737 352.712C246.503 353.066 246.385 353.463 246.385 353.9C246.385 354.571 246.642 355.128 247.145 355.575C247.649 356.017 248.392 356.241 249.367 356.241C250.332 356.241 251.195 356.031 251.945 355.609C252.695 355.186 253.253 354.605 253.605 353.872C253.877 353.306 254.009 352.469 254.009 351.366V350.442ZM260.408 357.87V343.073H262.662V345.315C263.239 344.27 263.77 343.574 264.261 343.242C264.745 342.908 265.284 342.737 265.868 342.737C266.714 342.736 267.572 343.008 268.446 343.546L267.58 345.875C266.974 345.51 266.359 345.33 265.743 345.33C265.194 345.328 264.703 345.495 264.265 345.824C263.829 346.157 263.517 346.614 263.334 347.199C263.054 348.085 262.915 349.066 262.915 350.124V357.87H260.408ZM268.937 353.454L271.416 353.062C271.553 354.057 271.944 354.82 272.58 355.351C273.212 355.877 274.103 356.146 275.249 356.146C276.399 356.146 277.256 355.908 277.812 355.442C278.371 354.971 278.651 354.418 278.651 353.791C278.651 353.22 278.404 352.779 277.909 352.45C277.566 352.225 276.709 351.945 275.344 351.603C273.507 351.137 272.229 350.738 271.521 350.396C270.811 350.055 270.268 349.585 269.903 348.987C269.537 348.387 269.349 347.727 269.349 347.004C269.349 346.342 269.503 345.734 269.806 345.172C270.106 344.605 270.52 344.14 271.039 343.769C271.43 343.482 271.961 343.236 272.633 343.036C273.309 342.836 274.032 342.737 274.803 342.737C275.963 342.736 276.98 342.911 277.861 343.242C278.739 343.573 279.388 344.027 279.807 344.597C280.224 345.171 280.511 345.934 280.668 346.89L278.217 347.225C278.103 346.466 277.779 345.87 277.248 345.444C276.715 345.017 275.959 344.801 274.984 344.801C273.832 344.801 273.008 344.993 272.519 345.372C272.024 345.752 271.776 346.2 271.776 346.709C271.776 347.035 271.881 347.328 272.085 347.589C272.292 347.859 272.61 348.079 273.048 348.26C273.299 348.35 274.036 348.564 275.264 348.897C277.037 349.372 278.274 349.758 278.973 350.063C279.679 350.361 280.23 350.804 280.628 351.38C281.029 351.954 281.229 352.668 281.229 353.526C281.229 354.361 280.98 355.147 280.496 355.889C280.005 356.626 279.301 357.197 278.385 357.601C277.467 358.005 276.424 358.205 275.264 358.205C273.337 358.205 271.871 357.806 270.862 357.007C269.855 356.207 269.212 355.023 268.937 353.454ZM293.866 356.045C292.935 356.834 292.042 357.392 291.183 357.72C290.324 358.042 289.401 358.205 288.415 358.205C286.789 358.205 285.542 357.81 284.668 357.016C283.796 356.221 283.36 355.204 283.36 353.972C283.36 353.245 283.52 352.583 283.853 351.984C284.182 351.384 284.616 350.904 285.149 350.542C285.686 350.18 286.286 349.906 286.956 349.72C287.446 349.591 288.19 349.463 289.182 349.344C291.208 349.101 292.702 348.816 293.658 348.478C293.668 348.135 293.673 347.917 293.673 347.826C293.673 346.803 293.435 346.081 292.959 345.667C292.322 345.096 291.366 344.817 290.105 344.817C288.925 344.815 288.055 345.02 287.489 345.434C286.926 345.847 286.513 346.581 286.242 347.631L283.792 347.294C284.017 346.248 284.382 345.397 284.892 344.754C285.399 344.107 286.143 343.607 287.107 343.261C288.074 342.913 289.19 342.737 290.465 342.737C291.731 342.736 292.754 342.89 293.544 343.185C294.334 343.482 294.915 343.854 295.29 344.308C295.661 344.757 295.918 345.324 296.07 346.014C296.152 346.441 296.194 347.215 296.194 348.325V351.671C296.194 354.002 296.246 355.479 296.356 356.093C296.459 356.71 296.674 357.306 296.988 357.872L294.368 357.87C294.111 357.352 293.94 356.745 293.866 356.045ZM293.658 350.442C292.746 350.819 291.379 351.132 289.563 351.393C288.529 351.542 287.798 351.708 287.375 351.893C286.947 352.078 286.614 352.35 286.385 352.712C286.151 353.066 286.033 353.463 286.033 353.9C286.033 354.571 286.29 355.128 286.796 355.575C287.299 356.017 288.04 356.241 289.016 356.241C289.98 356.241 290.844 356.031 291.594 355.609C292.344 355.186 292.904 354.605 293.256 353.872C293.525 353.306 293.658 352.469 293.658 351.366V350.442ZM302.814 357.87L298.287 343.073H300.88L303.235 351.616L304.109 354.794C304.149 354.633 304.404 353.615 304.876 351.741L307.231 343.073H309.809L312.024 351.656L312.768 354.486L313.615 351.626L316.149 343.073H318.59L313.96 357.87H311.359L309.004 349.009L308.429 346.486L305.436 357.87H302.814ZM317.459 357.87V355.014H320.315V357.87C320.315 358.918 320.129 359.769 319.761 360.417C319.384 361.057 318.794 361.559 317.989 361.914L317.29 360.84C317.819 360.606 318.208 360.265 318.461 359.817C318.714 359.365 318.851 358.719 318.88 357.872L317.459 357.87ZM329.814 353.633L332.291 353.242C332.43 354.237 332.82 354.999 333.458 355.53C334.088 356.055 334.979 356.324 336.124 356.324C337.277 356.324 338.134 356.087 338.69 355.621C339.246 355.149 339.526 354.598 339.526 353.971C339.526 353.4 339.28 352.957 338.785 352.629C338.443 352.405 337.586 352.125 336.221 351.782C334.385 351.316 333.106 350.916 332.396 350.575C331.686 350.235 331.145 349.763 330.779 349.166C330.414 348.568 330.227 347.907 330.227 347.183C330.227 346.52 330.378 345.913 330.684 345.351C330.983 344.786 331.398 344.32 331.916 343.948C332.306 343.662 332.839 343.416 333.511 343.216C334.185 343.015 334.907 342.916 335.678 342.916C336.838 342.916 337.858 343.089 338.736 343.421C339.617 343.751 340.263 344.205 340.682 344.776C341.101 345.351 341.388 346.113 341.544 347.068L339.094 347.406C338.98 346.645 338.654 346.05 338.123 345.622C337.59 345.195 336.834 344.98 335.859 344.98C334.709 344.98 333.885 345.171 333.397 345.551C332.9 345.931 332.653 346.379 332.653 346.888C332.653 347.215 332.759 347.506 332.963 347.768C333.167 348.038 333.485 348.257 333.923 348.438C334.174 348.529 334.913 348.742 336.139 349.076C337.915 349.552 339.151 349.937 339.85 350.241C340.554 350.54 341.106 350.984 341.506 351.558C341.904 352.133 342.106 352.848 342.106 353.704C342.106 354.54 341.858 355.326 341.371 356.068C340.882 356.803 340.179 357.376 339.261 357.78C338.342 358.184 337.3 358.384 336.139 358.384C334.214 358.383 332.748 357.984 331.739 357.186C330.732 356.385 330.09 355.203 329.814 353.633ZM345.097 340.509V337.622H347.61V340.509H345.097ZM345.097 358.05V343.253H347.61V358.05H345.097ZM351.051 358.05V343.253H353.307V345.355C354.396 343.728 355.965 342.916 358.017 342.916C358.912 342.916 359.729 343.078 360.477 343.397C361.227 343.718 361.783 344.138 362.156 344.662C362.531 345.179 362.788 345.798 362.939 346.512C363.03 346.977 363.078 347.796 363.078 348.952V358.05H360.565V349.047C360.565 348.03 360.471 347.264 360.277 346.755C360.081 346.25 359.734 345.846 359.239 345.546C358.739 345.243 358.16 345.09 357.488 345.09C356.418 345.09 355.5 345.432 354.719 346.108C353.946 346.788 353.56 348.076 353.56 349.97V358.05H351.051ZM376.582 352.628L379.046 352.951C378.781 354.649 378.09 355.983 376.978 356.943C375.87 357.903 374.505 358.384 372.885 358.384C370.865 358.383 369.233 357.723 368.007 356.401C366.775 355.078 366.156 353.181 366.156 350.707C366.156 349.108 366.423 347.711 366.95 346.512C367.482 345.314 368.287 344.414 369.372 343.816C370.45 343.215 371.632 342.916 372.902 342.916C374.509 342.916 375.825 343.326 376.845 344.138C377.868 344.952 378.524 346.103 378.814 347.601L376.373 347.976C376.141 346.982 375.731 346.237 375.141 345.731C374.551 345.233 373.839 344.98 373.001 344.98C371.735 344.98 370.707 345.432 369.919 346.341C369.127 347.243 368.734 348.676 368.734 350.635C368.734 352.624 369.117 354.072 369.879 354.974C370.64 355.869 371.636 356.324 372.864 356.324C373.848 356.324 374.667 356.017 375.326 355.416C375.985 354.813 376.407 353.885 376.582 352.628ZM391.325 353.285L393.916 353.603C393.508 355.12 392.751 356.296 391.648 357.134C390.54 357.965 389.126 358.384 387.41 358.384C385.245 358.383 383.528 357.718 382.262 356.387C380.994 355.053 380.36 353.185 380.36 350.779C380.36 348.285 381.003 346.355 382.281 344.98C383.566 343.604 385.226 342.916 387.271 342.916C389.251 342.916 390.866 343.592 392.12 344.938C393.375 346.283 394.005 348.181 394.005 350.621C394.005 350.773 393.996 350.997 393.988 351.292L382.951 351.291C383.044 352.918 383.503 354.166 384.331 355.027C385.16 355.892 386.186 356.324 387.423 356.324C388.343 356.324 389.126 356.082 389.779 355.597C390.43 355.116 390.944 354.346 391.325 353.285ZM383.09 349.227H391.353C391.243 347.986 390.923 347.049 390.405 346.432C389.607 345.465 388.57 344.98 387.3 344.98C386.148 344.98 385.177 345.366 384.394 346.135C383.608 346.906 383.176 347.939 383.09 349.227ZM413.749 358.05H411.242V342.07C410.638 342.645 409.848 343.221 408.869 343.796C407.883 344.372 407.002 344.805 406.223 345.09V342.667C407.626 342.009 408.854 341.208 409.905 340.271C410.952 339.329 411.699 338.421 412.135 337.537H413.749V358.05ZM420.55 353.329L422.962 353.104C423.168 354.237 423.558 355.06 424.133 355.573C424.71 356.08 425.447 356.339 426.351 356.339C427.119 356.339 427.795 356.163 428.377 355.806C428.956 355.453 429.432 354.983 429.803 354.394C430.18 353.803 430.487 353.005 430.74 352.006C430.986 351.002 431.117 349.98 431.117 348.938C431.117 348.829 431.111 348.657 431.102 348.438C430.597 349.232 429.912 349.884 429.047 350.379C428.177 350.877 427.235 351.126 426.226 351.126C424.533 351.126 423.101 350.512 421.929 349.286C420.76 348.056 420.175 346.446 420.175 344.438C420.175 342.363 420.788 340.698 422.007 339.435C423.229 338.172 424.762 337.537 426.601 337.537C427.93 337.537 429.141 337.898 430.245 338.611C431.344 339.324 432.183 340.351 432.751 341.67C433.322 342.989 433.609 344.91 433.609 347.421C433.609 350.026 433.329 352.106 432.762 353.656C432.191 355.201 431.349 356.377 430.232 357.186C429.11 357.994 427.802 358.398 426.294 358.398C424.695 358.397 423.391 357.957 422.378 357.066C421.363 356.18 420.756 354.936 420.55 353.329ZM430.822 344.309C430.822 342.872 430.441 341.728 429.674 340.885C428.903 340.038 427.985 339.615 426.907 339.615C425.792 339.614 424.824 340.071 423.996 340.98C423.168 341.893 422.753 343.073 422.753 344.519C422.753 345.822 423.149 346.88 423.933 347.691C424.716 348.501 425.685 348.909 426.835 348.909C428 348.908 428.952 348.505 429.697 347.691C430.449 346.878 430.822 345.752 430.822 344.309ZM449.237 355.639V358.05H435.73C435.711 357.446 435.806 356.866 436.02 356.31C436.364 355.386 436.916 354.484 437.672 353.589C438.432 352.7 439.525 351.668 440.955 350.498C443.173 348.674 444.677 347.235 445.459 346.169C446.24 345.109 446.628 344.101 446.628 343.154C446.628 342.159 446.272 341.324 445.564 340.638C444.85 339.956 443.921 339.615 442.782 339.615C441.573 339.614 440.606 339.978 439.883 340.704C439.155 341.426 438.788 342.432 438.78 343.71L436.202 343.449C436.378 341.52 437.046 340.056 438.194 339.05C439.344 338.043 440.896 337.537 442.836 337.537C444.797 337.537 446.35 338.086 447.489 339.169C448.635 340.255 449.208 341.604 449.208 343.212C449.208 344.028 449.041 344.834 448.702 345.622C448.369 346.412 447.813 347.244 447.038 348.116C446.263 348.989 444.972 350.189 443.169 351.711C441.667 352.976 440.701 353.832 440.273 354.284C439.845 354.73 439.494 355.184 439.214 355.64L449.237 355.639ZM464.937 342.626L462.446 342.821C462.222 341.835 461.909 341.118 461.498 340.675C460.82 339.956 459.981 339.601 458.987 339.601C458.189 339.601 457.49 339.825 456.885 340.271C456.095 340.847 455.472 341.688 455.015 342.793C454.564 343.895 454.326 345.472 454.307 347.515C454.909 346.596 455.647 345.913 456.523 345.465C457.395 345.023 458.311 344.799 459.267 344.799C460.942 344.799 462.366 345.415 463.539 346.645C464.712 347.874 465.304 349.466 465.304 351.415C465.304 352.7 465.024 353.889 464.472 354.993C463.92 356.09 463.158 356.941 462.195 357.523C461.23 358.106 460.133 358.398 458.905 358.398C456.813 358.397 455.11 357.632 453.793 356.091C452.47 354.555 451.813 352.019 451.813 348.491C451.813 344.542 452.542 341.676 454.002 339.881C455.274 338.321 456.984 337.537 459.143 337.537C460.746 337.537 462.064 337.988 463.092 338.892C464.12 339.791 464.733 341.037 464.937 342.626ZM454.697 351.429C454.697 352.296 454.882 353.123 455.249 353.913C455.615 354.701 456.129 355.301 456.784 355.716C457.445 356.129 458.14 356.339 458.863 356.339C459.924 356.339 460.834 355.909 461.595 355.054C462.353 354.199 462.736 353.038 462.736 351.573C462.736 350.159 462.357 349.046 461.607 348.234C460.86 347.423 459.91 347.017 458.768 347.017C457.631 347.016 456.67 347.421 455.88 348.234C455.091 349.047 454.697 350.112 454.697 351.429Z" fill="#7B7979"/>
<path fill-rule="evenodd" clip-rule="evenodd" d="M169.206 239.566L122.336 317.122L118.402 328.811H132.087L169.206 239.566Z" fill="#7B7979"/>
<path fill-rule="evenodd" clip-rule="evenodd" d="M152.517 374.952L136.921 339.802C136.038 341.86 135.535 343.927 135.499 346.211C132.69 345.87 129.856 345.654 126.991 345.598L152.517 374.952Z" fill="#7B7979"/>
<path fill-rule="evenodd" clip-rule="evenodd" d="M103.772 318.765L108.223 318.247C110.398 308.773 111.979 298.966 113.321 289.025C117.336 289.557 121.671 289.506 126.244 289.014C122.169 304.909 118.452 320.815 115.584 337.177L119.966 337.479L132.106 328.822L136.617 339.113L133.795 339.531C133.328 340.816 133.093 342.101 133.091 343.386C124.234 342.298 113.66 342.473 102.024 343.431L103.574 337.749L100.708 337.55L100.604 336.079L103.951 336.269L105.794 328.837H100.206L103.772 318.765Z" fill="#7B7979"/>
<path fill-rule="evenodd" clip-rule="evenodd" d="M150.118 355.993C157.198 349.948 163.011 342.416 167.001 333.905L146.693 338.377L150.118 355.993ZM47.4131 333.616C57.9586 356.141 80.856 371.807 107.296 371.807C119.173 371.806 130.335 368.646 139.984 363.121L141.589 365.029C131.403 371.309 119.383 374.265 107.29 374.308C80.1517 374.409 55.5652 358.098 44.592 333.398L43.9173 331.94L85.6198 334.994L87.1434 328.855L0.380116 328.82L89.0186 320.117C91.2829 309.874 92.8009 299.709 93.6392 288.93C98.0657 289.585 102.889 289.728 107.137 288.957C103.05 307.077 99.2734 325.229 96.6119 343.526C92.4512 342.669 88.0222 342.616 83.3258 343.365L85.2282 336.321L47.4131 333.616ZM145.137 337.284L170.733 331.73C166.062 343.28 158.787 352.344 149.396 359.741L145.137 337.284Z" fill="#7B7979"/>
<path fill-rule="evenodd" clip-rule="evenodd" d="M161.976 268.719C169.162 279.295 173.368 292.044 173.368 305.741C173.368 311.993 172.491 318.052 170.853 323.769L173.247 324.445C178.962 304.411 175.097 282.587 162.938 265.673L161.863 264.3L145.873 318.844L132.142 328.811H183.999L147.402 319.222L161.976 268.719Z" fill="#7B7979"/>
<path fill-rule="evenodd" clip-rule="evenodd" d="M40.9858 323.249L43.4344 322.691C41.9929 317.278 41.2245 311.597 41.2245 305.741C41.2245 269.353 70.9047 239.677 107.296 239.677C126.06 239.674 143.04 247.567 155.067 260.187L156.331 257.876C143.864 245.11 126.479 237.167 107.296 237.167C69.5224 237.165 38.7142 267.971 38.7142 305.741C38.7142 311.788 39.5041 317.658 40.9858 323.249Z" fill="#7B7979"/>
</g>
</g>
<defs>
<clipPath id="clip0">
<rect width="775" height="388" fill="white"/>
</clipPath>
<clipPath id="clip1">
<rect width="775" height="130" fill="white" transform="translate(0 20)"/>
</clipPath>
<clipPath id="clip2">
<rect width="773" height="139" fill="white" transform="translate(0 236)"/>
</clipPath>
</defs>
</svg>
