<svg width="775" height="388" viewBox="0 0 775 388" fill="none" xmlns="http://www.w3.org/2000/svg">
<g clip-path="url(#clip0)">
<g clip-path="url(#clip1)">
<path d="M651.719 24.6869H774.859V49.2709H651.719V24.6869Z" fill="#B11B32"/>
<path d="M16.6989 112.932L26.6635 110.075V118.061L16.6989 120.918V139.966H43.4281V149.149H4.72493V124.397L0 125.708V117.731L4.72493 116.369V89.5043H16.6989V112.932Z" fill="#1E2C52"/>
<path d="M119.309 89.5043V128.524C119.309 135.257 117.078 140.514 112.602 144.324C108.162 148.13 102.357 150 95.2779 150C88.2005 150 82.4592 148.13 78.0485 144.324C73.6179 140.514 71.4045 135.257 71.4045 128.524V89.5043H83.3939V128.524C83.3939 132.535 84.5112 135.585 86.6339 137.655C88.7752 139.756 91.6379 140.84 95.2779 140.84C98.9699 140.84 101.873 139.756 104.039 137.655C106.213 135.585 107.318 132.535 107.318 128.524V89.5043H119.309Z" fill="#1E2C52"/>
<path d="M170.349 124.261H165.977V149.149H153.994V89.5043H165.977V113.879H169.339L185.71 89.5043H200.491L179.83 117.243L202.106 149.149H186.866L170.349 124.261Z" fill="#1E2C52"/>
<path d="M246.558 126.892H260.05L253.446 105.904H253.217L246.558 126.892ZM262.953 136.271H243.605L239.61 149.149H227.097L247.207 89.5043H259.474L279.511 149.149H267.021L262.953 136.271Z" fill="#1E2C52"/>
<path d="M340.728 133.579C340.728 131.271 339.916 129.45 338.326 128.039C336.735 126.656 333.92 125.342 329.903 124.118C323.015 122.042 317.798 119.6 314.23 116.784C310.67 113.968 308.875 110.123 308.875 105.251C308.875 100.36 310.882 96.3776 314.918 93.2763C318.904 90.1683 324.03 88.6229 330.272 88.6229C336.9 88.6229 342.206 90.2883 346.242 93.6296C350.276 96.9724 352.211 101.33 352.072 106.726L352.006 107.011H340.4C340.4 104.004 339.498 101.728 337.704 100.132C335.907 98.5229 333.372 97.7333 330.118 97.7333C327.163 97.7333 324.882 98.4297 323.268 99.8537C321.654 101.285 320.85 103.111 320.85 105.324C320.85 107.326 321.724 109.012 323.472 110.273C325.228 111.595 328.246 112.976 332.511 114.412C339.066 116.275 344.091 118.678 347.528 121.672C350.99 124.645 352.695 128.594 352.695 133.485C352.695 138.604 350.711 142.615 346.699 145.571C342.738 148.542 337.446 150 330.871 150C324.492 150 318.954 148.408 314.344 145.203C309.752 142.018 307.528 137.266 307.627 130.923L307.719 130.65H319.347C319.347 134.197 320.382 136.775 322.456 138.459C324.538 140.104 327.343 140.935 330.871 140.935C334.102 140.935 336.538 140.288 338.211 138.947C339.9 137.615 340.728 135.811 340.728 133.579Z" fill="#1E2C52"/>
<path d="M398.666 149.149H386.693V89.5056H398.666V149.149Z" fill="#1E2C52"/>
<path d="M468.937 122.945H446.827V139.966H473.137V149.149H434.827V89.5043H473.046V98.7281H446.827V113.716H468.937V122.945Z" fill="#1E2C52"/>
<path d="M552.966 129.957H553.216L561.14 89.5043H573.486L559.555 149.149H548.419L537.444 109.866H537.191L526.25 149.149H515.138L501.203 89.5043H513.523L521.5 129.928H521.73L532.478 89.5043H542.161L552.966 129.957Z" fill="#1E2C52"/>
<path d="M616.968 149.149H604.994V89.5056H616.968V149.149Z" fill="#1E2C52"/>
<path d="M697.902 129.382L697.992 129.631C698.1 135.995 696.163 140.983 692.178 144.578C688.194 148.199 682.672 150 675.668 150C668.516 150 662.694 147.695 658.315 143.106C653.916 138.49 651.719 132.557 651.719 125.247V113.411C651.719 106.148 653.87 100.224 658.163 95.5641C662.454 90.9509 668.072 88.6229 675.038 88.6229C682.303 88.6229 688.003 90.4269 692.087 93.9523C696.188 97.5016 698.199 102.507 698.058 108.966L697.992 109.192H686.364C686.364 105.391 685.444 102.533 683.572 100.642C681.746 98.7709 678.916 97.8537 675.038 97.8537C671.47 97.8537 668.655 99.3 666.672 102.167C664.636 105.043 663.646 108.78 663.646 113.33V125.247C663.646 129.84 664.711 133.596 666.8 136.504C668.95 139.371 671.886 140.84 675.668 140.84C679.236 140.84 681.94 139.899 683.674 138.006C685.444 136.138 686.323 133.276 686.323 129.382H697.902Z" fill="#1E2C52"/>
<path d="M742.684 139.966H770.068V149.149H728.575V142.918L755.14 98.7281H728.615V89.5043H769.371V95.4709L742.684 139.966Z" fill="#1E2C52"/>
<path d="M8.3828 33.7376H12.3437C13.9099 33.7376 15.0744 33.4056 15.8369 32.7403C16.6009 32.0816 16.9848 31.1003 16.9848 29.7963C16.9848 28.5256 16.6009 27.5109 15.8285 26.7589C15.0588 26.0069 13.9271 25.635 12.4339 25.635H8.3828V33.7376ZM8.3828 38.0349V49.1603H2.80574V21.3269H12.4339C15.6077 21.3269 18.0921 22.059 19.8807 23.5016C21.6681 24.9496 22.5713 26.9616 22.5713 29.551C22.5713 30.9776 22.1932 32.2109 21.4307 33.2483C20.6681 34.2869 19.5687 35.1283 18.1181 35.7616C19.7588 36.2469 20.9396 37.0549 21.6619 38.1896C22.3828 39.3269 22.7437 40.7296 22.7437 42.3976V44.4403C22.7437 45.2203 22.8421 46.0269 23.0557 46.8776C23.2672 47.7256 23.6208 48.3523 24.1385 48.7616V49.1603H18.3796C17.8713 48.7589 17.5443 48.0789 17.3968 47.1403C17.2479 46.1949 17.1755 45.2816 17.1755 44.4043V42.4323C17.1755 41.0443 16.8057 39.9629 16.0432 39.1963C15.2796 38.4243 14.2047 38.0349 12.8192 38.0349H8.3828Z" fill="#1E2C52"/>
<path d="M59.314 36.9323H48.9885V44.8829H61.2579V49.1603H43.4041V21.3283H61.2259V25.635H48.9885V32.6296H59.314V36.9323Z" fill="#1E2C52"/>
<path d="M95.3445 41.9016C95.3445 40.8269 94.9672 39.9656 94.2299 39.3189C93.4819 38.6696 92.1699 38.0563 90.2992 37.4816C87.0845 36.5123 84.6499 35.3736 82.9832 34.0629C81.3285 32.7496 80.4912 30.9563 80.4912 28.6923C80.4912 26.4083 81.4272 24.5429 83.3032 23.0963C85.1752 21.6523 87.5699 20.9256 90.4725 20.9256C93.5565 20.9256 96.0405 21.7056 97.9205 23.2629C99.7979 24.8189 100.701 26.8563 100.642 29.3789L100.602 29.4936H95.1885C95.1885 28.1056 94.7699 27.0376 93.9339 26.2896C93.0899 25.5483 91.9085 25.1749 90.3912 25.1749C89.0205 25.1749 87.9539 25.5029 87.1992 26.1669C86.4552 26.8323 86.0765 27.6763 86.0765 28.7056C86.0765 29.6523 86.4872 30.4283 87.2979 31.0296C88.1112 31.6389 89.5205 32.2776 91.5219 32.9536C94.5819 33.8203 96.9192 34.9509 98.5192 36.3456C100.126 37.7443 100.93 39.5763 100.93 41.8563C100.93 44.2443 99.9952 46.1229 98.1405 47.5029C96.2712 48.8776 93.8192 49.5656 90.7592 49.5656C87.7565 49.5656 85.1912 48.8203 83.0499 47.3269C80.9005 45.8403 79.8525 43.6123 79.9165 40.6563L79.9579 40.5403H85.3725C85.3725 42.1856 85.8552 43.3949 86.8232 44.1696C87.7912 44.9483 89.1032 45.3389 90.7592 45.3389C92.2525 45.3389 93.3832 45.0296 94.1712 44.4029C94.9592 43.7763 95.3445 42.9403 95.3445 41.9016Z" fill="#1E2C52"/>
<path d="M136.606 36.9323H126.271V44.8829H138.55V49.1603H120.703V21.3283H138.519V25.635H126.271V32.6296H136.606V36.9323Z" fill="#1E2C52"/>
<path d="M164.993 38.7816H171.275L168.199 28.9763H168.086L164.993 38.7816ZM172.637 43.1563H163.614L161.737 49.1603H155.913L165.295 21.3269H171.013L180.362 49.1603H174.533L172.637 43.1563Z" fill="#1E2C52"/>
<path d="M204.27 33.7376H208.233C209.798 33.7376 210.962 33.4056 211.734 32.7403C212.498 32.0816 212.874 31.1003 212.874 29.7963C212.874 28.5256 212.498 27.5109 211.718 26.7589C210.954 26.0069 209.822 25.635 208.331 25.635H204.27V33.7376ZM204.27 38.0349V49.1603H198.694V21.3269H208.331C211.497 21.3269 213.982 22.059 215.777 23.5016C217.563 24.9496 218.459 26.9616 218.459 29.551C218.459 30.9776 218.081 32.2109 217.321 33.2483C216.563 34.2869 215.458 35.1283 214.005 35.7616C215.646 36.2469 216.826 37.0549 217.55 38.1896C218.271 39.3269 218.631 40.7296 218.631 42.3976V44.4403C218.631 45.2203 218.738 46.0269 218.942 46.8776C219.158 47.7256 219.509 48.3523 220.025 48.7616V49.1603H214.269C213.761 48.7589 213.433 48.0789 213.291 47.1403C213.143 46.1949 213.073 45.2816 213.073 44.4043V42.4323C213.073 41.0443 212.695 39.9629 211.93 39.1963C211.177 38.4243 210.094 38.0349 208.709 38.0349H204.27Z" fill="#1E2C52"/>
<path d="M260.173 39.9456L260.215 40.0643C260.263 43.0283 259.353 45.3603 257.499 47.0403C255.638 48.7216 253.07 49.5656 249.79 49.5656C246.453 49.5656 243.753 48.4923 241.703 46.3443C239.653 44.1989 238.627 41.4216 238.627 38.0189V32.4896C238.627 29.1043 239.629 26.3309 241.63 24.1696C243.63 22.0083 246.255 20.9256 249.502 20.9256C252.899 20.9256 255.547 21.7589 257.459 23.4163C259.369 25.0669 260.297 27.4016 260.247 30.4096L260.215 30.5229H254.775C254.775 28.7429 254.35 27.4136 253.489 26.5403C252.635 25.6669 251.307 25.2269 249.502 25.2269C247.831 25.2269 246.533 25.9043 245.599 27.2443C244.665 28.5896 244.189 30.3243 244.189 32.4576V38.0189C244.189 40.1589 244.681 41.9069 245.674 43.2549C246.657 44.6043 248.035 45.2816 249.79 45.2816C251.463 45.2816 252.702 44.8469 253.53 43.9723C254.35 43.1003 254.761 41.7589 254.761 39.9456H260.173Z" fill="#1E2C52"/>
<path d="M302.36 49.1603H296.776V37.6003H285.443V49.1603H279.867V21.3283H285.443V33.2989H296.776V21.3283H302.36V49.1603Z" fill="#1E2C52"/>
<path d="M371.051 49.1603H365.465L354.245 30.3896L354.131 30.4096V49.1603H348.545V21.3283H354.131L365.351 40.0856L365.465 40.0643V21.3283H371.051V49.1603Z" fill="#1E2C52"/>
<path d="M407.737 36.9323H397.41V44.8829H409.681V49.1603H391.833V21.3283H409.646V25.635H397.41V32.6296H407.737V36.9323Z" fill="#1E2C52"/>
<path d="M448.663 25.635H440.709V49.1603H435.129V25.635H427.289V21.3269H448.663V25.635Z" fill="#1E2C52"/>
<path d="M489.63 40.2176H489.743L493.436 21.3283H499.183L492.69 49.1603H487.504L482.389 30.8296H482.272L477.164 49.1603H471.99L465.484 21.3283H471.243L474.951 40.2003H475.062L480.068 21.3283H484.586L489.63 40.2176Z" fill="#1E2C52"/>
<path d="M534.766 32.7043C534.766 30.5349 534.223 28.7629 533.14 27.3723C532.056 25.9816 530.556 25.2856 528.646 25.2856C526.76 25.2856 525.29 25.9816 524.243 27.3723C523.183 28.7629 522.665 30.5349 522.665 32.7043V37.7483C522.665 39.9536 523.19 41.7536 524.25 43.1443C525.306 44.5296 526.782 45.2229 528.689 45.2229C530.599 45.2229 532.083 44.5296 533.159 43.1443C534.23 41.7536 534.766 39.9536 534.766 37.7483V32.7043ZM540.326 37.7483C540.326 41.1763 539.25 44.0056 537.094 46.2283C534.937 48.4549 532.141 49.5656 528.689 49.5656C525.242 49.5656 522.453 48.4509 520.311 46.2163C518.171 43.9883 517.098 41.1683 517.098 37.7483V32.7403C517.098 29.3416 518.171 26.5203 520.303 24.2856C522.438 22.0496 525.216 20.9256 528.646 20.9256C532.098 20.9256 534.911 22.0496 537.078 24.2856C539.243 26.5203 540.326 29.3416 540.326 32.7403V37.7483Z" fill="#1E2C52"/>
<path d="M565.978 33.7376H569.939C571.506 33.7376 572.671 33.4056 573.44 32.7403C574.206 32.0816 574.583 31.1003 574.583 29.7963C574.583 28.5256 574.195 27.5109 573.427 26.7589C572.655 26.0069 571.532 25.635 570.031 25.635H565.978V33.7376ZM565.978 38.0349V49.1603H560.403V21.3269H570.031C573.215 21.3269 575.69 22.059 577.478 23.5016C579.274 24.9496 580.168 26.9616 580.168 29.551C580.168 30.9776 579.79 32.2109 579.028 33.2483C578.272 34.2869 577.166 35.1283 575.715 35.7616C577.354 36.2469 578.538 37.0549 579.258 38.1896C579.979 39.3269 580.339 40.7296 580.339 42.3976V44.4403C580.339 45.2203 580.447 46.0269 580.659 46.8776C580.864 47.7256 581.227 48.3523 581.735 48.7616V49.1603H575.978C575.467 48.7589 575.14 48.0789 574.992 47.1403C574.846 46.1949 574.779 45.2816 574.779 44.4043V42.4323C574.779 41.0443 574.4 39.9629 573.638 39.1963C572.886 38.4243 571.802 38.0349 570.416 38.0349H565.978Z" fill="#1E2C52"/>
<path d="M608.628 37.5389H606.587V49.1616H601.01V21.3269H606.587V32.7029H608.152L615.78 21.3269H622.683L613.047 34.2709L623.431 49.1616H616.314L608.628 37.5389Z" fill="#1E2C52"/>
</g>
<g clip-path="url(#clip2)">
<path fill-rule="evenodd" clip-rule="evenodd" d="M229.02 294.979V334.964H222.722V294.979H229.02ZM229.181 277.236V285.411H222.313V277.236H229.181ZM244.554 294.979L244.8 301.358C246.108 299.013 247.757 297.255 249.748 296.084C251.738 294.911 253.986 294.326 256.494 294.326C262.274 294.324 265.815 296.533 267.123 300.949C268.431 305.364 269.113 310.216 269.169 315.504C269.169 315.666 269.169 315.817 269.169 315.953C269.169 316.088 269.169 316.239 269.169 316.402V334.964H262.871V316.975C262.871 314.139 262.844 312.123 262.789 310.924C262.735 309.723 262.628 308.663 262.463 307.736C262.463 307.625 262.451 307.53 262.422 307.45C262.395 307.366 262.381 307.273 262.381 307.163C261.89 305.036 261.018 303.415 259.765 302.298C258.51 301.18 256.957 300.621 255.104 300.621C253.032 300.621 251.179 301.358 249.544 302.83C247.907 304.302 246.764 306.29 246.108 308.798C246.055 309.015 245.999 309.235 245.947 309.453C245.892 309.671 245.865 309.889 245.865 310.106C245.645 311.142 245.508 312.342 245.454 313.704C245.401 315.066 245.374 317.275 245.374 320.328V334.964H239.076V315.257C239.076 314.33 239.063 313.418 239.036 312.519C239.006 311.619 238.994 310.706 238.994 309.779C238.94 308.851 238.915 307.94 238.915 307.04C238.915 306.141 238.915 305.228 238.915 304.302C238.858 302.719 238.817 301.153 238.79 299.6C238.763 298.046 238.721 296.506 238.668 294.98L244.554 294.979ZM295.662 295.961L295.17 302.175C294.681 301.902 294.204 301.658 293.741 301.44C293.278 301.22 292.799 301.031 292.308 300.867C291.711 300.648 291.082 300.485 290.429 300.376C289.775 300.266 289.065 300.212 288.302 300.212C286.614 300.211 285.236 300.662 284.173 301.561C283.112 302.461 282.578 303.674 282.578 305.2C282.578 306.563 283.055 307.694 284.011 308.593C284.965 309.493 286.123 310.352 287.484 311.17C287.922 311.387 288.358 311.62 288.794 311.865C289.23 312.11 289.666 312.369 290.102 312.642C291.954 313.731 293.659 315.081 295.212 316.688C296.766 318.296 297.543 320.573 297.543 323.517C297.543 327.168 296.412 330.099 294.15 332.307C291.888 334.514 288.903 335.619 285.194 335.619C284.105 335.618 283.069 335.537 282.088 335.374C281.106 335.208 280.152 334.992 279.228 334.718C278.735 334.554 278.259 334.364 277.793 334.145C277.332 333.927 276.853 333.682 276.365 333.41V326.786C277.618 327.55 278.749 328.123 279.758 328.504C280.765 328.885 281.761 329.159 282.742 329.322C283.014 329.322 283.289 329.336 283.56 329.362C283.832 329.389 284.105 329.404 284.379 329.404C286.285 329.404 287.852 328.914 289.08 327.933C290.305 326.95 290.918 325.697 290.918 324.17C290.918 322.916 290.47 321.854 289.571 320.983C288.672 320.109 287.566 319.265 286.258 318.447C285.824 318.174 285.358 317.902 284.868 317.629C284.379 317.357 283.886 317.057 283.398 316.729C281.542 315.583 279.84 314.208 278.286 312.6C276.732 310.99 275.956 308.771 275.956 305.937C275.956 302.393 277.034 299.572 279.185 297.474C281.338 295.374 284.188 294.326 287.731 294.326C288.276 294.324 288.794 294.339 289.285 294.366C289.775 294.393 290.266 294.461 290.757 294.57C291.518 294.678 292.296 294.857 293.085 295.103C293.878 295.348 294.734 295.634 295.662 295.961ZM313.65 283.449V295.142H322.728V300.949H313.65V316.647C313.65 318.718 313.693 320.341 313.775 321.513C313.857 322.685 313.952 323.681 314.061 324.498C314.277 325.969 314.851 327.115 315.778 327.933C316.703 328.749 317.877 329.158 319.294 329.158C319.566 329.158 319.825 329.144 320.071 329.118C320.316 329.089 320.548 329.049 320.765 328.995C321.202 328.94 321.624 328.818 322.035 328.627C322.44 328.435 322.892 328.205 323.38 327.933V334.309C322.51 334.637 321.693 334.869 320.929 335.005C320.166 335.14 319.431 335.264 318.722 335.374C318.504 335.374 318.299 335.374 318.109 335.374C317.917 335.374 317.74 335.374 317.579 335.374C312.835 335.374 309.959 333.751 308.949 330.509C307.94 327.264 307.438 323.38 307.438 318.856V300.949H299.505V295.142H307.438V285.985L313.65 283.449ZM336.384 294.979V334.964H330.089V294.979H336.384ZM336.548 277.236V285.411H329.68V277.236H336.548ZM355.11 283.449V295.142H364.186V300.949H355.11V316.647C355.11 318.718 355.151 320.341 355.233 321.513C355.313 322.685 355.408 323.681 355.517 324.498C355.737 325.969 356.31 327.115 357.234 327.933C358.161 328.749 359.333 329.158 360.752 329.158C361.024 329.158 361.283 329.144 361.529 329.118C361.772 329.089 362.005 329.049 362.224 328.995C362.66 328.94 363.08 328.818 363.491 328.627C363.9 328.435 364.349 328.205 364.84 327.933V334.309C363.968 334.637 363.15 334.869 362.388 335.005C361.624 335.14 360.888 335.264 360.179 335.374C359.962 335.374 359.757 335.374 359.566 335.374C359.375 335.374 359.198 335.374 359.035 335.374C354.291 335.374 351.415 333.751 350.409 330.509C349.399 327.264 348.894 323.38 348.894 318.856V300.949H340.963V295.142H348.894V285.985L355.11 283.449ZM400.82 295.061V320.245C400.82 322.098 400.848 323.939 400.9 325.766C400.956 327.591 401.009 329.432 401.065 331.284C401.12 331.883 401.159 332.498 401.186 333.125C401.215 333.75 401.227 334.364 401.227 334.964H395.422L395.178 328.749C393.813 330.984 392.151 332.661 390.189 333.779C388.226 334.895 386.046 335.455 383.647 335.455C378.522 335.453 375.158 333.534 373.548 329.691C371.942 325.845 371.136 321.364 371.136 316.239V295.061H377.434V313.622C377.434 316.566 377.486 318.815 377.598 320.368C377.706 321.921 377.925 323.216 378.251 324.253C378.849 325.997 379.723 327.332 380.866 328.259C382.013 329.186 383.375 329.65 384.954 329.65C387.847 329.649 390.161 328.328 391.905 325.684C393.648 323.039 394.524 319.564 394.524 315.258V312.558V295.061H400.82ZM419.952 283.449V295.142H429.03V300.949H419.952V316.647C419.952 318.718 419.995 320.341 420.077 321.513C420.159 322.685 420.254 323.681 420.363 324.498C420.581 325.969 421.152 327.115 422.08 327.933C423.007 328.749 424.179 329.158 425.594 329.158C425.869 329.158 426.128 329.144 426.374 329.118C426.618 329.089 426.85 329.049 427.066 328.995C427.502 328.94 427.926 328.818 428.335 328.627C428.744 328.435 429.194 328.205 429.685 327.933V334.309C428.81 334.637 427.994 334.869 427.231 335.005C426.466 335.14 425.732 335.264 425.024 335.374C424.804 335.374 424.601 335.374 424.411 335.374C424.22 335.374 424.043 335.374 423.879 335.374C419.135 335.374 416.26 333.751 415.251 330.509C414.245 327.264 413.739 323.38 413.739 318.856V300.949H405.805V295.142H413.739V285.985L419.952 283.449ZM440.643 316.893C441.077 320.872 442.292 324.008 444.281 326.296C446.271 328.584 448.819 329.73 451.926 329.73C453.291 329.73 454.638 329.554 455.973 329.2C457.309 328.845 458.631 328.314 459.939 327.604C460.375 327.386 460.811 327.142 461.247 326.869C461.683 326.594 462.121 326.296 462.555 325.971V333.083C461.52 333.629 460.527 334.078 459.571 334.433C458.617 334.786 457.65 335.101 456.668 335.374C455.851 335.535 455.035 335.673 454.215 335.783C453.398 335.89 452.553 335.945 451.681 335.945C446.393 335.945 442.167 334.025 439.006 330.181C435.846 326.337 434.263 321.118 434.263 314.522C434.263 308.308 435.735 303.32 438.68 299.558C441.624 295.796 445.494 293.916 450.291 293.916C456.071 293.916 459.982 296.288 462.024 301.031C464.07 305.772 465.09 311.06 465.09 316.893H440.643ZM440.643 311.087H458.713C458.494 308.09 457.717 305.46 456.382 303.198C455.047 300.934 452.934 299.804 450.045 299.804C447.593 299.804 445.521 300.812 443.832 302.83C442.14 304.846 441.077 307.598 440.643 311.087ZM539.337 298.004C539.938 297.623 540.524 297.268 541.097 296.942C541.669 296.613 542.228 296.315 542.773 296.042C544.026 295.443 545.294 295.006 546.575 294.734C547.855 294.461 549.232 294.326 550.704 294.326C553.866 294.324 556.523 295.034 558.678 296.452C560.831 297.868 562.343 299.886 563.215 302.502C563.598 303.7 563.87 305.159 564.033 306.876C564.197 308.593 564.279 310.842 564.279 313.622V321.39C564.279 322.535 564.279 323.666 564.279 324.783C564.279 325.901 564.306 327.033 564.358 328.178C564.358 329.322 564.388 330.453 564.44 331.571C564.496 332.688 564.551 333.82 564.605 334.964H558.798C558.798 334.529 558.798 334.174 558.798 333.901C558.798 333.629 558.798 333.356 558.798 333.083C558.798 332.865 558.798 332.661 558.798 332.47C558.798 332.279 558.798 332.075 558.798 331.857C558.798 331.583 558.798 331.352 558.798 331.162C558.798 330.969 558.798 330.767 558.798 330.549C558.798 330.167 558.798 329.786 558.798 329.404C558.798 329.022 558.798 328.586 558.798 328.096C557.545 330.657 556.005 332.525 554.179 333.696C552.353 334.868 550.104 335.455 547.434 335.455C543.891 335.453 541.042 334.378 538.889 332.225C536.737 330.071 535.659 327.168 535.659 323.517C535.659 319.319 537.2 316.089 540.279 313.827C543.359 311.564 547.734 310.434 553.402 310.434C553.513 310.434 553.622 310.434 553.729 310.434C553.838 310.434 553.949 310.434 554.058 310.434C554.603 310.434 555.201 310.447 555.857 310.475C556.509 310.502 557.274 310.543 558.146 310.597C558.09 307.218 557.381 304.71 556.021 303.075C554.658 301.439 552.53 300.621 549.641 300.621C548.55 300.621 547.529 300.731 546.575 300.949C545.621 301.167 544.681 301.494 543.754 301.93C543.045 302.202 542.364 302.556 541.71 302.993C541.054 303.428 540.374 303.919 539.664 304.465L539.337 298.004ZM558.31 316.075C557.983 316.022 557.683 315.981 557.411 315.953C557.136 315.926 556.865 315.912 556.591 315.912C556.32 315.857 556.046 315.83 555.775 315.83C555.503 315.83 555.201 315.83 554.874 315.83C550.733 315.83 547.599 316.458 545.471 317.712C543.346 318.964 542.282 320.872 542.282 323.434C542.282 325.287 542.882 326.788 544.081 327.933C545.28 329.075 546.861 329.65 548.824 329.65C552.476 329.649 554.972 328.3 556.305 325.602C557.64 322.903 558.31 319.728 558.31 316.075ZM601.812 294.979L589.628 334.964H582.351L569.839 294.979H576.627L583.577 318.037C583.684 318.528 583.822 319.007 583.986 319.469C584.147 319.931 584.312 320.41 584.476 320.9C584.803 322.098 585.131 323.284 585.458 324.456C585.784 325.628 586.003 326.815 586.111 328.014C586.22 327.25 586.344 326.528 586.479 325.846C586.616 325.165 586.766 324.471 586.927 323.763C587.038 323.378 587.147 323.013 587.256 322.658C587.363 322.303 587.474 321.963 587.583 321.637L595.596 294.979H601.812ZM613.341 294.979V334.964H607.043V294.979H613.341ZM613.502 277.236V285.411H606.634V277.236H613.502ZM624.869 298.004C625.469 297.623 626.055 297.268 626.629 296.942C627.201 296.613 627.76 296.315 628.305 296.042C629.557 295.443 630.826 295.006 632.108 294.734C633.386 294.461 634.762 294.326 636.236 294.326C639.398 294.324 642.055 295.034 644.208 296.452C646.361 297.868 647.874 299.886 648.746 302.502C649.128 303.7 649.402 305.159 649.564 306.876C649.729 308.593 649.811 310.842 649.811 313.622V321.39C649.811 322.535 649.811 323.666 649.811 324.783C649.811 325.901 649.838 327.033 649.893 328.178C649.893 329.322 649.92 330.453 649.972 331.571C650.029 332.688 650.083 333.82 650.136 334.964H644.333C644.333 334.529 644.333 334.174 644.333 333.901C644.333 333.629 644.333 333.356 644.333 333.083C644.333 332.865 644.333 332.661 644.333 332.47C644.333 332.279 644.333 332.075 644.333 331.857C644.333 331.583 644.333 331.352 644.333 331.162C644.333 330.969 644.333 330.767 644.333 330.549C644.333 330.167 644.333 329.786 644.333 329.404C644.333 329.022 644.333 328.586 644.333 328.096C643.077 330.657 641.537 332.525 639.711 333.696C637.885 334.868 635.636 335.455 632.966 335.455C629.423 335.453 626.573 334.378 624.42 332.225C622.266 330.071 621.19 327.168 621.19 323.517C621.19 319.319 622.73 316.089 625.809 313.827C628.891 311.564 633.266 310.434 638.934 310.434C639.044 310.434 639.153 310.434 639.261 310.434C639.37 310.434 639.48 310.434 639.589 310.434C640.133 310.434 640.733 310.447 641.388 310.475C642.042 310.502 642.805 310.543 643.677 310.597C643.622 307.218 642.913 304.71 641.553 303.075C640.188 301.439 638.062 300.621 635.173 300.621C634.084 300.621 633.061 300.731 632.108 300.949C631.153 301.167 630.213 301.494 629.286 301.93C628.576 302.202 627.896 302.556 627.242 302.993C626.586 303.428 625.905 303.919 625.196 304.465L624.869 298.004ZM643.842 316.075C643.513 316.022 643.214 315.981 642.94 315.953C642.668 315.926 642.396 315.912 642.123 315.912C641.851 315.857 641.578 315.83 641.306 315.83C641.031 315.83 640.733 315.83 640.406 315.83C636.264 315.83 633.127 316.458 631.003 317.712C628.878 318.964 627.813 320.872 627.813 323.434C627.813 325.287 628.414 326.788 629.613 327.933C630.812 329.075 632.393 329.65 634.356 329.65C638.008 329.649 640.501 328.3 641.837 325.602C643.173 322.903 643.842 319.728 643.842 316.075ZM668.862 283.449V295.142H677.94V300.949H668.862V316.647C668.862 318.718 668.905 320.341 668.987 321.513C669.066 322.685 669.164 323.681 669.271 324.498C669.489 325.969 670.063 327.115 670.987 327.933C671.916 328.749 673.088 329.158 674.505 329.158C674.776 329.158 675.035 329.144 675.282 329.118C675.527 329.089 675.757 329.049 675.977 328.995C676.414 328.94 676.835 328.818 677.245 328.627C677.653 328.435 678.105 328.205 678.593 327.933V334.309C677.721 334.637 676.904 334.869 676.141 335.005C675.377 335.14 674.639 335.264 673.934 335.374C673.715 335.374 673.511 335.374 673.318 335.374C673.127 335.374 672.95 335.374 672.788 335.374C668.042 335.374 665.171 333.751 664.161 330.509C663.152 327.264 662.647 323.38 662.647 318.856V300.949H654.717V295.142H662.647V285.985L668.862 283.449ZM691.596 294.979V334.964H685.298V294.979H691.596ZM691.76 277.236V285.411H684.89V277.236H691.76ZM733.953 315.094C733.953 321.2 732.33 326.202 729.087 330.099C725.843 333.996 721.633 335.945 716.454 335.945C711.437 335.945 707.295 333.983 704.024 330.058C700.753 326.133 699.116 321.146 699.116 315.094C699.116 308.934 700.753 303.864 704.024 299.886C707.295 295.905 711.465 293.916 716.534 293.916C721.659 293.916 725.83 295.893 729.046 299.845C732.262 303.797 733.897 308.88 733.953 315.094ZM727.246 315.257C727.246 310.732 726.252 307.027 724.262 304.138C722.271 301.247 719.724 299.804 716.617 299.804C713.456 299.804 710.865 301.234 708.85 304.096C706.831 306.957 705.825 310.597 705.825 315.013C705.825 319.482 706.831 323.122 708.85 325.929C710.865 328.736 713.456 330.14 716.617 330.14C719.67 330.139 722.204 328.736 724.222 325.929C726.239 323.122 727.246 319.564 727.246 315.257ZM747.362 294.979L747.608 301.358C748.916 299.013 750.565 297.255 752.555 296.084C754.546 294.911 756.793 294.326 759.302 294.326C765.078 294.324 768.623 296.533 769.931 300.949C771.239 305.364 771.921 310.216 771.976 315.504C771.976 315.666 771.976 315.817 771.976 315.953C771.976 316.088 771.976 316.239 771.976 316.402V334.964H765.679V316.975C765.679 314.139 765.652 312.123 765.596 310.924C765.544 309.723 765.432 308.663 765.27 307.736C765.27 307.625 765.257 307.53 765.23 307.45C765.203 307.366 765.187 307.273 765.187 307.163C764.698 305.036 763.826 303.415 762.572 302.298C761.319 301.18 759.765 300.621 757.912 300.621C755.839 300.621 753.985 301.358 752.352 302.83C750.715 304.302 749.572 306.29 748.916 308.798C748.861 309.015 748.807 309.235 748.752 309.453C748.7 309.671 748.67 309.889 748.67 310.106C748.453 311.142 748.316 312.342 748.264 313.704C748.208 315.066 748.182 317.275 748.182 320.328V334.964H741.884V315.257C741.884 314.33 741.871 313.418 741.844 312.519C741.816 311.619 741.803 310.706 741.803 309.779C741.746 308.851 741.721 307.94 741.721 307.04C741.721 306.141 741.721 305.228 741.721 304.302C741.667 302.719 741.625 301.153 741.598 299.6C741.569 298.046 741.53 296.506 741.475 294.98L747.362 294.979Z" fill="#7B7979"/>
<path fill-rule="evenodd" clip-rule="evenodd" d="M505.405 315.094C505.405 321.2 503.782 326.202 500.539 330.099C497.293 333.996 493.084 335.945 487.906 335.945C482.889 335.945 478.747 333.983 475.476 330.058C472.205 326.133 470.568 321.146 470.568 315.094C470.568 308.934 472.205 303.864 475.476 299.886C478.747 295.905 482.918 293.916 487.986 293.916C493.111 293.916 497.282 295.893 500.497 299.845C503.713 303.797 505.349 308.88 505.405 315.094ZM498.698 315.257C498.698 310.732 497.704 307.027 495.714 304.138C493.724 301.247 491.176 299.804 488.069 299.804C484.905 299.804 482.317 301.234 480.299 304.096C478.283 306.957 477.275 310.597 477.275 315.013C477.275 319.482 478.283 323.122 480.299 325.929C482.317 328.736 484.905 330.14 488.069 330.14C491.122 330.139 493.656 328.736 495.671 325.929C497.69 323.122 498.698 319.564 498.698 315.257ZM531.898 276.417V282.63C531.406 282.468 530.97 282.36 530.59 282.305C530.207 282.251 529.852 282.197 529.525 282.142C529.418 282.142 529.279 282.142 529.117 282.142C528.953 282.142 528.79 282.142 528.626 282.142C525.846 282.142 524.158 283.232 523.557 285.413C522.957 287.592 522.657 289.991 522.657 292.608C522.657 292.716 522.657 292.813 522.657 292.895C522.657 292.977 522.657 293.044 522.657 293.099V295.142H531.898V300.949H522.657V334.964H516.279V300.949H508.346V295.142H516.279C516.279 294.816 516.279 294.488 516.279 294.162C516.279 293.833 516.279 293.535 516.279 293.262C516.388 288.845 517.097 284.827 518.405 281.202C519.713 277.576 522.685 275.764 527.318 275.764C527.645 275.762 527.958 275.778 528.26 275.804C528.558 275.831 528.846 275.846 529.117 275.846C529.553 275.899 529.989 275.969 530.425 276.05C530.861 276.131 531.351 276.254 531.898 276.417Z" fill="#F5932E"/>
<path fill-rule="evenodd" clip-rule="evenodd" d="M226.665 364.87L222.136 350.073H224.73L227.084 358.616L227.959 361.794C227.998 361.633 228.256 360.615 228.725 358.741L231.08 350.073H233.658L235.876 358.656L236.617 361.486L237.463 358.626L239.998 350.073H242.437L237.811 364.87H235.209L232.856 356.009L232.281 353.486L229.287 364.87H226.665ZM254.201 363.045C253.27 363.834 252.375 364.392 251.52 364.72C250.658 365.042 249.735 365.205 248.753 365.205C247.124 365.205 245.878 364.81 245.003 364.016C244.131 363.221 243.693 362.204 243.693 360.972C243.693 360.245 243.857 359.583 244.188 358.984C244.516 358.384 244.95 357.904 245.483 357.542C246.02 357.18 246.619 356.906 247.29 356.72C247.781 356.591 248.525 356.463 249.517 356.344C251.541 356.101 253.036 355.816 253.992 355.478C254.003 355.135 254.006 354.917 254.006 354.826C254.006 353.803 253.769 353.081 253.292 352.667C252.657 352.097 251.7 351.817 250.44 351.817C249.26 351.815 248.389 352.02 247.824 352.435C247.261 352.847 246.848 353.581 246.576 354.631L244.127 354.294C244.35 353.248 244.717 352.397 245.227 351.754C245.736 351.107 246.478 350.607 247.445 350.261C248.407 349.913 249.527 349.737 250.801 349.737C252.065 349.736 253.089 349.89 253.878 350.185C254.668 350.482 255.248 350.854 255.624 351.308C255.995 351.757 256.252 352.324 256.404 353.015C256.486 353.441 256.527 354.215 256.527 355.325V358.671C256.527 361.002 256.578 362.48 256.688 363.093C256.793 363.71 257.007 364.306 257.322 364.872L254.701 364.87C254.442 364.352 254.272 363.745 254.201 363.045ZM253.992 357.442C253.077 357.819 251.716 358.132 249.898 358.393C248.866 358.542 248.13 358.708 247.71 358.893C247.28 359.078 246.949 359.35 246.72 359.712C246.486 360.066 246.367 360.463 246.367 360.9C246.367 361.571 246.625 362.128 247.129 362.575C247.631 363.018 248.375 363.241 249.35 363.241C250.315 363.241 251.179 363.031 251.928 362.609C252.678 362.186 253.235 361.605 253.588 360.872C253.859 360.306 253.992 359.469 253.992 358.366V357.442ZM260.391 364.87V350.073H262.643V352.315C263.222 351.27 263.752 350.574 264.242 350.242C264.727 349.908 265.266 349.737 265.85 349.737C266.697 349.736 267.553 350.009 268.428 350.546L267.562 352.876C266.956 352.51 266.34 352.33 265.725 352.33C265.176 352.328 264.684 352.495 264.247 352.825C263.811 353.157 263.5 353.614 263.316 354.199C263.035 355.085 262.896 356.066 262.896 357.124V364.87H260.391ZM268.918 360.454L271.398 360.062C271.533 361.057 271.925 361.821 272.562 362.351C273.194 362.877 274.084 363.146 275.23 363.146C276.38 363.146 277.237 362.908 277.793 362.442C278.351 361.971 278.632 361.418 278.632 360.791C278.632 360.219 278.386 359.778 277.89 359.45C277.547 359.225 276.689 358.945 275.324 358.603C273.489 358.137 272.209 357.738 271.502 357.396C270.793 357.055 270.249 356.585 269.884 355.987C269.518 355.387 269.331 354.727 269.331 354.004C269.331 353.342 269.485 352.734 269.788 352.172C270.087 351.605 270.502 351.14 271.02 350.769C271.412 350.482 271.943 350.236 272.614 350.036C273.29 349.837 274.013 349.737 274.784 349.737C275.944 349.736 276.961 349.911 277.842 350.242C278.721 350.573 279.368 351.027 279.788 351.597C280.205 352.171 280.491 352.934 280.649 353.89L278.198 354.225C278.084 353.466 277.76 352.871 277.229 352.444C276.696 352.017 275.94 351.801 274.964 351.801C273.813 351.801 272.99 351.993 272.5 352.372C272.006 352.752 271.758 353.2 271.758 353.709C271.758 354.036 271.862 354.328 272.067 354.589C272.273 354.859 272.592 355.079 273.029 355.26C273.28 355.35 274.017 355.564 275.245 355.897C277.018 356.372 278.255 356.758 278.954 357.063C279.659 357.361 280.212 357.804 280.61 358.38C281.009 358.954 281.21 359.668 281.21 360.526C281.21 361.361 280.96 362.147 280.477 362.889C279.986 363.626 279.283 364.197 278.367 364.601C277.447 365.005 276.405 365.205 275.245 365.205C273.318 365.205 271.852 364.806 270.843 364.007C269.837 363.207 269.194 362.023 268.918 360.454ZM293.847 363.045C292.915 363.834 292.022 364.392 291.163 364.72C290.304 365.042 289.381 365.205 288.396 365.205C286.77 365.205 285.522 364.81 284.649 364.016C283.777 363.221 283.341 362.204 283.341 360.972C283.341 360.245 283.5 359.583 283.834 358.984C284.162 358.384 284.597 357.904 285.129 357.542C285.666 357.18 286.266 356.906 286.936 356.72C287.427 356.591 288.17 356.463 289.162 356.344C291.188 356.101 292.681 355.816 293.638 355.478C293.648 355.135 293.652 354.917 293.652 354.826C293.652 353.803 293.414 353.081 292.938 352.667C292.302 352.097 291.346 351.817 290.084 351.817C288.906 351.815 288.035 352.02 287.468 352.435C286.906 352.847 286.494 353.581 286.222 354.631L283.772 354.294C283.998 353.248 284.363 352.397 284.871 351.754C285.38 351.107 286.123 350.607 287.088 350.261C288.054 349.913 289.171 349.737 290.444 349.737C291.711 349.736 292.735 349.89 293.524 350.185C294.314 350.482 294.896 350.854 295.27 351.308C295.641 351.757 295.897 352.324 296.049 353.015C296.131 353.441 296.173 354.215 296.173 355.325V358.671C296.173 361.002 296.226 362.48 296.336 363.093C296.439 363.71 296.654 364.306 296.968 364.872L294.347 364.87C294.09 364.352 293.919 363.745 293.847 363.045ZM293.638 357.442C292.725 357.819 291.359 358.132 289.544 358.393C288.509 358.542 287.778 358.708 287.355 358.893C286.928 359.078 286.595 359.35 286.366 359.712C286.132 360.066 286.014 360.463 286.014 360.9C286.014 361.571 286.271 362.128 286.776 362.575C287.279 363.018 288.021 363.241 288.996 363.241C289.961 363.241 290.823 363.031 291.574 362.609C292.324 362.186 292.883 361.605 293.235 360.872C293.506 360.306 293.638 359.469 293.638 358.366V357.442ZM302.794 364.87L298.266 350.073H300.86L303.214 358.616L304.089 361.794C304.128 361.633 304.383 360.615 304.855 358.741L307.21 350.073H309.788L312.003 358.656L312.747 361.486L313.593 358.626L316.127 350.073H318.567L313.939 364.87H311.338L308.982 356.009L308.407 353.486L305.416 364.87H302.794ZM317.436 364.87V362.014H320.292V364.87C320.292 365.918 320.107 366.769 319.739 367.417C319.362 368.057 318.773 368.559 317.967 368.914L317.269 367.84C317.796 367.606 318.187 367.265 318.439 366.817C318.692 366.365 318.83 365.719 318.858 364.872L317.436 364.87ZM329.792 360.633L332.269 360.243C332.408 361.237 332.796 361.999 333.434 362.53C334.065 363.055 334.956 363.324 336.101 363.324C337.254 363.324 338.11 363.087 338.666 362.621C339.222 362.149 339.503 361.597 339.503 360.971C339.503 360.4 339.257 359.957 338.761 359.629C338.42 359.405 337.564 359.125 336.199 358.782C334.362 358.316 333.084 357.916 332.373 357.575C331.664 357.235 331.122 356.763 330.755 356.166C330.392 355.568 330.204 354.907 330.204 354.183C330.204 353.52 330.356 352.913 330.661 352.351C330.961 351.786 331.375 351.32 331.893 350.948C332.283 350.662 332.815 350.416 333.488 350.216C334.161 350.015 334.885 349.916 335.655 349.916C336.815 349.916 337.835 350.089 338.713 350.421C339.593 350.751 340.239 351.205 340.66 351.776C341.078 352.351 341.364 353.113 341.52 354.068L339.07 354.406C338.957 353.645 338.631 353.05 338.101 352.622C337.567 352.195 336.812 351.98 335.835 351.98C334.685 351.98 333.863 352.171 333.374 352.551C332.877 352.931 332.63 353.379 332.63 353.888C332.63 354.215 332.736 354.506 332.94 354.768C333.144 355.038 333.463 355.257 333.9 355.438C334.152 355.529 334.891 355.742 336.117 356.077C337.892 356.552 339.127 356.937 339.827 357.241C340.53 357.54 341.083 357.983 341.482 358.558C341.881 359.133 342.083 359.848 342.083 360.704C342.083 361.54 341.835 362.326 341.348 363.068C340.859 363.803 340.156 364.376 339.238 364.78C338.319 365.184 337.276 365.384 336.117 365.384C334.191 365.384 332.725 364.985 331.716 364.186C330.71 363.385 330.067 362.203 329.792 360.633ZM345.073 347.509V344.622H347.586V347.509H345.073ZM345.073 365.05V350.253H347.586V365.05H345.073ZM351.028 365.05V350.253H353.284V352.356C354.372 350.728 355.94 349.916 357.992 349.916C358.888 349.916 359.705 350.078 360.452 350.397C361.202 350.719 361.758 351.138 362.131 351.662C362.505 352.179 362.763 352.798 362.914 353.512C363.004 353.977 363.053 354.796 363.053 355.952V365.05H360.54V356.047C360.54 355.03 360.445 354.264 360.253 353.755C360.057 353.25 359.709 352.846 359.213 352.546C358.714 352.243 358.136 352.09 357.463 352.09C356.394 352.09 355.476 352.432 354.694 353.108C353.922 353.788 353.536 355.076 353.536 356.97V365.05H351.028ZM376.556 359.628L379.02 359.951C378.755 361.649 378.064 362.983 376.952 363.943C375.843 364.903 374.479 365.384 372.86 365.384C370.839 365.384 369.207 364.723 367.982 363.401C366.75 362.078 366.13 360.181 366.13 357.707C366.13 356.108 366.397 354.711 366.925 353.512C367.457 352.315 368.261 351.414 369.346 350.816C370.425 350.215 371.607 349.916 372.877 349.916C374.483 349.916 375.799 350.326 376.82 351.138C377.843 351.952 378.497 353.103 378.788 354.601L376.347 354.976C376.115 353.982 375.704 353.237 375.115 352.732C374.526 352.233 373.814 351.98 372.975 351.98C371.71 351.98 370.681 352.432 369.895 353.341C369.102 354.243 368.708 355.676 368.708 357.635C368.708 359.624 369.092 361.072 369.854 361.974C370.615 362.869 371.61 363.324 372.839 363.324C373.821 363.324 374.641 363.018 375.3 362.416C375.96 361.813 376.38 360.885 376.556 359.628ZM391.298 360.285L393.889 360.603C393.481 362.12 392.724 363.296 391.62 364.134C390.513 364.965 389.099 365.384 387.384 365.384C385.218 365.384 383.501 364.718 382.236 363.387C380.968 362.053 380.334 360.185 380.334 357.779C380.334 355.285 380.977 353.355 382.255 351.98C383.539 350.604 385.199 349.916 387.245 349.916C389.224 349.916 390.84 350.592 392.093 351.938C393.348 353.283 393.977 355.181 393.977 357.621C393.977 357.773 393.969 357.997 393.961 358.292L382.925 358.291C383.018 359.918 383.476 361.166 384.304 362.027C385.135 362.892 386.16 363.324 387.396 363.324C388.316 363.324 389.099 363.082 389.753 362.597C390.404 362.116 390.917 361.346 391.298 360.285ZM383.064 356.227H391.326C391.216 354.986 390.897 354.049 390.379 353.432C389.579 352.465 388.543 351.98 387.273 351.98C386.122 351.98 385.15 352.366 384.367 353.135C383.582 353.906 383.151 354.939 383.064 356.227ZM413.72 365.05H411.214V349.07C410.61 349.645 409.82 350.221 408.841 350.796C407.855 351.372 406.974 351.805 406.195 352.09V349.667C407.598 349.009 408.825 348.208 409.877 347.272C410.923 346.329 411.672 345.421 412.108 344.537H413.72V365.05ZM420.521 360.329L422.933 360.104C423.139 361.237 423.528 362.06 424.103 362.573C424.681 363.08 425.417 363.339 426.321 363.339C427.09 363.339 427.766 363.163 428.347 362.806C428.927 362.453 429.403 361.983 429.774 361.394C430.15 360.803 430.458 360.005 430.71 359.006C430.957 358.002 431.088 356.98 431.088 355.938C431.088 355.829 431.082 355.657 431.072 355.438C430.567 356.232 429.883 356.884 429.017 357.379C428.147 357.877 427.205 358.126 426.198 358.126C424.504 358.126 423.072 357.512 421.901 356.286C420.732 355.056 420.146 353.446 420.146 351.438C420.146 349.363 420.759 347.698 421.979 346.435C423.2 345.172 424.733 344.537 426.572 344.537C427.9 344.537 429.112 344.898 430.216 345.611C431.315 346.324 432.153 347.351 432.721 348.67C433.293 349.989 433.579 351.91 433.579 354.421C433.579 357.026 433.299 359.106 432.732 360.656C432.162 362.201 431.319 363.377 430.203 364.186C429.08 364.994 427.772 365.398 426.264 365.398C424.665 365.397 423.362 364.957 422.35 364.066C421.334 363.18 420.727 361.936 420.521 360.329ZM430.793 351.309C430.793 349.872 430.412 348.728 429.644 347.885C428.873 347.038 427.956 346.615 426.877 346.615C425.763 346.614 424.795 347.071 423.967 347.98C423.14 348.893 422.724 350.073 422.724 351.519C422.724 352.822 423.121 353.88 423.904 354.691C424.687 355.501 425.656 355.91 426.806 355.91C427.97 355.908 428.922 355.505 429.668 354.691C430.42 353.878 430.793 352.752 430.793 351.309ZM449.206 362.639V365.05H435.7C435.681 364.447 435.776 363.867 435.991 363.31C436.334 362.386 436.885 361.484 437.642 360.589C438.401 359.7 439.495 358.668 440.926 357.498C443.143 355.674 444.647 354.235 445.428 353.169C446.209 352.109 446.596 351.101 446.596 350.154C446.596 349.159 446.241 348.324 445.533 347.638C444.819 346.956 443.891 346.615 442.752 346.615C441.542 346.614 440.575 346.978 439.853 347.704C439.125 348.426 438.758 349.432 438.749 350.71L436.171 350.449C436.348 348.52 437.016 347.056 438.165 346.05C439.314 345.044 440.866 344.537 442.805 344.537C444.767 344.537 446.318 345.086 447.459 346.169C448.604 347.255 449.177 348.604 449.177 350.212C449.177 351.028 449.01 351.834 448.672 352.622C448.339 353.412 447.783 354.244 447.007 355.116C446.233 355.989 444.941 357.189 443.139 358.711C441.637 359.976 440.67 360.832 440.243 361.284C439.815 361.73 439.463 362.184 439.183 362.64L449.206 362.639ZM464.905 349.626L462.414 349.821C462.19 348.835 461.877 348.118 461.467 347.675C460.787 346.956 459.95 346.601 458.955 346.601C458.157 346.601 457.458 346.825 456.854 347.272C456.064 347.847 455.441 348.688 454.984 349.793C454.532 350.895 454.295 352.472 454.276 354.515C454.878 353.596 455.616 352.913 456.491 352.465C457.363 352.023 458.279 351.8 459.236 351.8C460.911 351.799 462.334 352.415 463.508 353.645C464.68 354.874 465.272 356.466 465.272 358.416C465.272 359.7 464.992 360.889 464.439 361.993C463.888 363.09 463.125 363.941 462.163 364.523C461.198 365.106 460.102 365.398 458.873 365.398C456.782 365.397 455.079 364.632 453.761 363.092C452.439 361.555 451.782 359.019 451.782 355.491C451.782 351.542 452.51 348.676 453.97 346.882C455.243 345.321 456.952 344.537 459.112 344.537C460.715 344.537 462.032 344.989 463.061 345.892C464.089 346.791 464.702 348.037 464.905 349.626ZM454.665 358.429C454.665 359.296 454.851 360.123 455.218 360.913C455.584 361.701 456.098 362.301 456.753 362.715C457.413 363.129 458.108 363.339 458.832 363.339C459.893 363.339 460.803 362.909 461.563 362.054C462.321 361.199 462.705 360.038 462.705 358.573C462.705 357.159 462.326 356.046 461.576 355.234C460.829 354.423 459.878 354.017 458.737 354.017C457.6 354.016 456.639 354.421 455.85 355.234C455.06 356.047 454.665 357.112 454.665 358.429Z" fill="#7B7979"/>
<path fill-rule="evenodd" clip-rule="evenodd" d="M169.195 246.566L122.328 324.122L118.394 335.811H132.078L169.195 246.566Z" fill="#7B7979"/>
<path fill-rule="evenodd" clip-rule="evenodd" d="M152.506 381.952L136.912 346.803C136.028 348.86 135.526 350.927 135.49 353.211C132.681 352.871 129.847 352.654 126.982 352.598L152.506 381.952Z" fill="#7B7979"/>
<path fill-rule="evenodd" clip-rule="evenodd" d="M103.765 325.765L108.216 325.247C110.391 315.773 111.972 305.966 113.313 296.025C117.328 296.557 121.663 296.506 126.236 296.014C122.161 311.909 118.444 327.815 115.576 344.177L119.958 344.479L132.097 335.822L136.608 346.113L133.786 346.531C133.319 347.816 133.084 349.101 133.081 350.386C124.225 349.298 113.652 349.473 102.017 350.431L103.567 344.749L100.701 344.55L100.597 343.079L103.944 343.269L105.787 335.837H100.199L103.765 325.765Z" fill="#7B7979"/>
<path fill-rule="evenodd" clip-rule="evenodd" d="M150.107 362.993C157.188 356.948 163 349.416 166.99 340.905L146.683 345.377L150.107 362.993ZM47.4099 340.616C57.9546 363.141 80.8505 378.807 107.289 378.807C119.165 378.806 130.326 375.646 139.974 370.121L141.579 372.029C131.394 378.309 119.375 381.265 107.282 381.308C80.1461 381.408 55.5614 365.098 44.5889 340.398L43.9144 338.94L85.6139 341.994L87.1374 335.855L0.380089 335.82L89.0125 327.117C91.2766 316.874 92.7945 306.709 93.6327 295.93C98.059 296.585 102.882 296.728 107.13 295.957C103.043 314.077 99.2666 332.229 96.6053 350.526C92.4448 349.669 88.0161 349.616 83.3202 350.365L85.2223 343.321L47.4099 340.616ZM145.127 344.284L170.721 338.73C166.05 350.28 158.776 359.344 149.386 366.741L145.127 344.284Z" fill="#7B7979"/>
<path fill-rule="evenodd" clip-rule="evenodd" d="M161.965 275.719C169.151 286.295 173.355 299.044 173.355 312.741C173.355 318.993 172.479 325.052 170.841 330.769L173.235 331.446C178.95 311.411 175.085 289.587 162.927 272.673L161.853 271.3L145.863 325.844L132.133 335.811H183.986L147.392 326.222L161.965 275.719Z" fill="#7B7979"/>
<path fill-rule="evenodd" clip-rule="evenodd" d="M40.983 330.249L43.4314 329.691C41.99 324.278 41.2217 318.597 41.2217 312.741C41.2217 276.353 70.8998 246.677 107.289 246.677C126.051 246.674 143.03 254.567 155.057 267.187L156.32 264.876C143.854 252.11 126.47 244.167 107.289 244.167C69.5177 244.165 38.7115 274.971 38.7115 312.741C38.7115 318.788 39.5013 324.658 40.983 330.249Z" fill="#7B7979"/>
<path d="M205.347 244.58H199.029V382H205.347V244.58Z" fill="#F5932E"/>
</g>
</g>
<defs>
<clipPath id="clip0">
<rect width="775" height="388" fill="white"/>
</clipPath>
<clipPath id="clip1">
<rect width="775" height="130" fill="white" transform="translate(0 20)"/>
</clipPath>
<clipPath id="clip2">
<rect width="774" height="139" fill="white" transform="translate(0 243)"/>
</clipPath>
</defs>
</svg>
