<?xml version="1.0" encoding="UTF-8"?>
<svg width="1225px" height="209px" viewBox="0 0 1225 209" version="1.1" xmlns="http://www.w3.org/2000/svg" xmlns:xlink="http://www.w3.org/1999/xlink">
    <!-- Generator: Sketch 53.2 (72643) - https://sketchapp.com -->
    <title>logo-docplanner-turquoise-rgb</title>
    <desc>Created with Sketch.</desc>
    <g id="Logo-Docplanner" stroke="none" stroke-width="1" fill="none" fill-rule="evenodd">
        <g id="logo-docplanner-turquoise" transform="translate(-150.000000, -150.000000)" fill="#00C3A5">
            <path d="M1321,220 L1340.84751,220 L1342.47218,236.101 L1342.67864,236.101 C1347.75,228.72998 1360.10587,219.290039 1374.5,218.5 C1374.5,220.555 1374.5,236.614929 1374.5,239.5 C1353.53861,243.576172 1343.91742,257.411133 1343.91742,269.964844 C1343.91742,282.518555 1343.91742,320 1343.91742,320 L1321,320 L1321,220 Z M1216,270.307544 L1216,269.897485 C1216,239.143133 1230.97436,217 1261.94872,217 C1290.66667,217 1304,233.60735 1304,268.462282 C1304,272.152805 1303.74014,277.246948 1303.34282,281 L1239.93967,281 C1241.57785,295.085596 1249.79133,303.5 1266.64951,303.5 C1277.31618,303.5 1287.33853,302.502441 1296.62812,301.287109 L1296.62812,320.389053 C1286.19027,322.025879 1277.33333,323 1266.05128,323 C1233.23077,323 1216,306.597679 1216,270.307544 Z M1240,264 L1281,264 C1281,248.352941 1276.9204,236 1261.62189,236 C1245.71144,236 1240.40796,249.176471 1240,264 Z M1111.5,220 L1131.4103,220 C1131.4103,220 1132.33296,229.927229 1132.74058,233.5 C1132.83396,233.5 1133.01009,233.5 1133.01009,233.5 C1138.52487,224.880127 1150.10349,217 1164.10785,217 C1187.76141,217 1199.5,229.559814 1199.5,255.033932 L1199.5,320 L1176.62412,320 L1176.62412,259.734531 C1176.62412,243.474121 1170.34689,237.104004 1158.01444,237.97006 C1146.83837,238.754908 1134.37588,251.48584 1134.37588,267.407471 L1134.37588,320 L1111.5,320 L1111.5,220 Z M1004,220 L1023.9103,220 C1023.9103,220 1024.83296,229.927229 1025.24058,233.5 C1025.33396,233.5 1025.51009,233.5 1025.51009,233.5 C1031.02487,224.880127 1042.60349,217 1056.60785,217 C1080.26141,217 1092,229.559814 1092,255.033932 L1092,320 L1069.12412,320 L1069.12412,259.734531 C1069.12412,243.474121 1062.84689,237.104004 1050.51444,237.97006 C1039.33837,238.754908 1026.87588,251.48584 1026.87588,267.407471 L1026.87588,320 L1004,320 L1004,220 Z M914.105363,218.064854 C923.988693,217.244335 934.708355,217 945.061728,217 C969.449383,217 984,226.453 984,253.168 L984,320 L963.545594,320 L962.529679,309.996704 L962.263464,309.996704 C955.249547,317.574951 945.061728,322 932.013918,322 C914.732185,322 901,310.776367 901,288.535 C901,267.849609 918.201558,248.588867 961.251852,257.7505 L961.251852,251.7295 C961.251852,239.8105 954.283443,236.480311 940.552579,236.480311 C932.124317,236.480311 924.976687,237.052805 914.105363,237.985107 L914.105363,218.064854 Z M961.5,273.599412 C943.25,268.914769 925,274.67043 925,288.904557 C925,298.345978 931.209766,303.893675 940.468021,303.478201 C947.764813,303.15075 955.797418,299.883837 961.5,294.787783 C961.5,294.787783 961.5,282.931995 961.5,273.599412 Z M884,180 L884,320 L861,320 L861,182.644618 L884,180 Z M753,220 L772.255963,220 L773.495495,230.829643 L773.862533,230.829643 C780.547821,222.738525 791.736486,217 804.648649,217 C830.268018,217 844,236.071643 844,268.47293 L844,269.498287 C844,300.669145 830.268018,323.021931 801.574324,323.021931 C791.531532,323.021931 781.693694,319.125574 775.75,314.614002 L775.75,358.5 L753,358.5 L753,220 Z M776,249.063441 L776,295.039023 C780.71659,298.724246 788.304147,302 795.686636,302 C814.963134,302 820.5,287.054372 820.5,269.447194 C820.5,253.477894 817.423922,238 798.762632,238 C789.739591,238 781.015791,243.298312 776,249.063441 Z M683.307592,270 C683.370788,291.847928 692.821455,303.49939 711.637206,303.49939 C719.585969,303.49939 727.66617,302.512207 735,301.524658 L735,320 C728.976908,321.208252 718.995454,322.5 708.753526,322.5 C680.694456,322.5 659.584924,307.035506 659.5,270 C659.584924,232.964494 680.694456,217.5 708.753526,217.5 C718.995454,217.5 728.976908,218.791748 735,220 L735,238.475342 C727.66617,237.487793 719.585969,236.50061 711.637206,236.50061 C692.821455,236.50061 683.370788,248.152072 683.307592,270 Z M551,270.512573 L551,269.487427 C551,236.067698 566.359477,217 598.102397,217 C629.640523,217 645,236.067698 645,269.487427 L645,270.512573 C645,303.932302 629.640523,323 598.102397,323 C566.359477,323 551,303.932302 551,270.512573 Z M598.103524,236 C581.953744,236 574.5,246.958008 574.5,269.851964 C574.5,292.74592 581.953744,303.5 598.103524,303.5 C614.253304,303.5 621.5,292.779123 621.5,269.851964 C621.5,246.924805 614.253304,236 598.103524,236 Z M430,320 L430,180 L465.175032,180 C514.190039,180 537,194.714844 537,250 C537,305.285156 514.190039,320 465.175032,320 L430,320 Z M511,249.75 C511,218.347865 504.58946,202.5 470.705403,202.5 L455,202.5 L455,297 L470.705403,297 C504.58946,297 511,281.152135 511,249.75 Z M266.5,311.663466 C271.562433,299.27637 285.805744,281.942556 300.33375,273 L332.5,326.110448 L299.552444,350 L266.5,311.663466 Z M218.842018,350 L173.5,320.844989 C207.829132,256.694549 271.976092,211.011303 347.371348,202.5 L360,241.390469 C297.856161,253.62774 245.995439,294.636939 218.842018,350 Z M228.919952,217.975026 L234.644893,150 L275.330879,150 L280.5,211.473141 C257.155582,219.470203 243.426841,225.858881 227.69715,235.517726 C216.084798,242.630497 205.524228,250.954362 196.075297,260.5 L150,241.071241 L162.559382,202.367512 L228.919952,217.975026 Z" id="logo-docplanner-turquoise-rgb"></path>
        </g>
    </g>
</svg>