<svg width="272" height="74" viewBox="0 0 272 74" fill="none" xmlns="http://www.w3.org/2000/svg">
<path d="M90.304 31.77H90.124C90.124 31.77 88.927 28.977 84.829 28.977C80.802 28.977 77.722 32.097 77.722 36.954C77.722 41.707 80.767 44.932 84.718 44.932C88.453 44.932 89.505 42.613 89.505 42.613H89.651V43.664C89.688 46.641 88.2 48.235 85.519 48.235C83.013 48.235 81.564 46.783 81.275 46.457L79.497 48.706C80.005 49.285 81.818 51.062 85.591 51.062C90.63 51.062 93.205 47.909 93.205 43.556V29.339H90.81L90.304 31.77ZM85.553 41.997C83.086 41.997 81.31 39.927 81.31 36.953C81.31 34.018 83.086 31.913 85.553 31.913C87.985 31.913 89.869 33.837 89.869 36.953C89.869 40.109 87.985 41.997 85.553 41.997Z" fill="#77777A"/>
<path d="M101.762 31.77H101.582L101.147 29.34H98.827V44.57H102.379V36.011C102.453 33.8 104.084 32.275 106.115 32.275H106.949V29.302H106.115C104.084 29.303 102.562 30.174 101.762 31.77Z" fill="#77777A"/>
<path d="M121.418 38.262C121.418 39.819 120.258 41.958 117.684 41.958C115.325 41.958 114.202 40.146 114.202 37.754V29.34H110.648V38.079C110.648 42.177 112.933 44.931 116.885 44.931C119.968 44.931 121.346 43.266 121.889 42.469H122.035L122.652 44.571H124.974V29.34H121.418V38.262V38.262Z" fill="#77777A"/>
<path d="M139.005 28.977C135.053 28.977 133.675 31.516 133.675 31.516H133.459L132.951 29.34H130.592V50.23H134.148V42.794H134.291C134.291 42.794 135.345 44.931 139.115 44.931C143.03 44.931 146.078 41.706 146.078 36.953C146.077 32.096 142.995 28.977 139.005 28.977ZM138.246 41.997C135.851 41.997 133.965 40.109 133.965 36.953C133.965 33.837 135.852 31.913 138.246 31.913C140.713 31.913 142.487 34.018 142.487 36.953C142.487 39.927 140.713 41.997 138.246 41.997Z" fill="#77777A"/>
<path d="M162.396 31.586H162.252C162.252 31.586 160.944 28.976 156.885 28.976C152.894 28.976 149.85 32.204 149.85 36.953C149.85 41.814 152.931 44.931 156.955 44.931C160.944 44.931 162.252 42.321 162.252 42.321H162.396L162.939 44.572H165.333V29.339H162.939L162.396 31.586ZM157.683 41.997C155.217 41.997 153.441 39.893 153.441 36.953C153.441 33.98 155.217 31.913 157.683 31.913C160.113 31.913 161.997 33.8 161.997 36.953C161.997 40.073 160.112 41.997 157.683 41.997Z" fill="#77777A"/>
<path d="M188.398 28.977C184.443 28.977 183.068 31.516 183.068 31.516H182.848L182.341 29.34H179.985V50.23H183.538V42.794H183.683C183.683 42.794 184.737 44.931 188.507 44.931C192.422 44.931 195.47 41.706 195.47 36.953C195.47 32.096 192.388 28.977 188.398 28.977ZM187.636 41.997C185.242 41.997 183.359 40.109 183.359 36.953C183.359 33.837 185.243 31.913 187.636 31.913C190.103 31.913 191.878 34.018 191.878 36.953C191.878 39.927 190.103 41.997 187.636 41.997Z" fill="#77777A"/>
<path d="M203.084 31.77H202.904L202.467 29.34H200.147V44.57H203.701V36.011C203.772 33.8 205.406 32.275 207.436 32.275H208.27V29.302H207.436C205.406 29.303 203.883 30.174 203.084 31.77Z" fill="#77777A"/>
<path d="M223.499 31.586H223.356C223.356 31.586 222.05 28.976 217.989 28.976C214 28.976 210.954 32.204 210.954 36.953C210.954 41.814 214.037 44.931 218.06 44.931C222.05 44.931 223.356 42.321 223.356 42.321H223.499L224.046 44.572H226.439V29.339H224.046L223.499 31.586ZM218.786 41.997C216.321 41.997 214.544 39.893 214.544 36.953C214.544 33.98 216.321 31.913 218.786 31.913C221.216 31.913 223.102 33.8 223.102 36.953C223.103 40.073 221.216 41.997 218.786 41.997Z" fill="#77777A"/>
<path d="M239.202 31.913C241.27 31.913 242.685 32.93 242.685 32.93L243.663 30.318C243.663 30.318 242.25 28.976 238.951 28.976C234.269 28.976 231.117 32.312 231.117 36.992C231.117 41.634 234.269 44.93 238.951 44.93C242.25 44.93 243.628 43.553 243.628 43.553L242.686 40.98C242.686 40.98 241.271 41.997 239.203 41.997C236.664 41.997 234.707 40.221 234.707 36.992C234.706 33.801 236.663 31.913 239.202 31.913Z" fill="#77777A"/>
<path d="M258.75 38.262C258.75 39.819 257.59 41.958 255.015 41.958C252.658 41.958 251.533 40.146 251.533 37.754V29.34H247.98V38.079C247.98 42.177 250.264 44.931 254.216 44.931C257.299 44.931 258.678 43.266 259.223 42.469H259.367L259.982 44.571H262.302V29.34H258.75V38.262V38.262Z" fill="#77777A"/>
<path d="M269.736 26.546C270.97 26.546 271.947 25.64 271.947 24.407C271.947 23.21 270.97 22.268 269.736 22.268C268.505 22.268 267.562 23.21 267.562 24.407C267.562 25.64 268.505 26.546 269.736 26.546Z" fill="#77777A"/>
<path d="M267.962 45.621C267.962 46.565 267.454 47.253 266.364 47.253H265.821V50.23H267.2C270.099 50.23 271.55 48.487 271.55 45.805V29.339H267.962V45.621Z" fill="#77777A"/>
<path d="M4.36398 8.55499C2.05998 8.55499 0.182983 10.432 0.182983 12.742V29.463C0.182983 31.774 2.05998 33.651 4.36398 33.651C6.67198 33.651 8.55098 31.774 8.55098 29.463V12.742C8.55098 10.432 6.67198 8.55499 4.36398 8.55499Z" fill="#40B4E5"/>
<path d="M19.061 0.184998C16.754 0.184998 14.879 2.062 14.879 4.367V29.466C14.879 31.778 16.754 33.651 19.061 33.651C21.371 33.651 23.243 31.778 23.243 29.466V4.367C23.243 2.062 21.371 0.184998 19.061 0.184998Z" fill="#1825AA"/>
<path d="M33.748 33.651C36.056 33.651 37.932 31.777 37.932 29.466V21.086C37.932 18.779 36.056 16.901 33.748 16.901C31.443 16.901 29.569 18.779 29.569 21.086V29.466C29.568 31.777 31.442 33.651 33.748 33.651Z" fill="#40B4E5"/>
<path d="M48.439 8.55499C46.135 8.55499 44.255 10.436 44.255 12.742V29.463C44.255 31.774 46.135 33.651 48.439 33.651C50.746 33.651 52.626 31.774 52.626 29.463V12.742C52.626 10.436 50.747 8.55499 48.439 8.55499Z" fill="#1825AA"/>
<path d="M48.442 39.979C46.134 39.979 44.258 41.853 44.258 44.164V52.53C44.258 54.841 46.134 56.712 48.442 56.712C50.747 56.712 52.626 54.841 52.626 52.53V44.164C52.626 41.853 50.748 39.979 48.442 39.979Z" fill="#40B4E5"/>
<path d="M4.36398 39.979C2.05998 39.979 0.182983 41.853 0.182983 44.164V69.258C0.182983 71.564 2.05998 73.445 4.36398 73.445C6.67198 73.445 8.55098 71.564 8.55098 69.258V44.163C8.55098 41.853 6.67198 39.979 4.36398 39.979Z" fill="#1825AA"/>
<path d="M19.061 39.979C16.754 39.979 14.879 41.853 14.879 44.164V52.529C14.879 54.832 16.754 56.712 19.061 56.712C21.371 56.712 23.243 54.832 23.243 52.529V44.164C23.243 41.853 21.371 39.979 19.061 39.979Z" fill="#40B4E5"/>
<path d="M33.748 39.979C31.443 39.979 29.569 41.853 29.569 44.164V60.902C29.569 63.206 31.443 65.087 33.748 65.087C36.058 65.087 37.935 63.206 37.935 60.902V44.163C37.935 41.853 36.058 39.979 33.748 39.979Z" fill="#1825AA"/>
</svg>
