<?xml version="1.0" encoding="UTF-8" standalone="no"?>
<svg
   xmlns:dc="http://purl.org/dc/elements/1.1/"
   xmlns:cc="http://creativecommons.org/ns#"
   xmlns:rdf="http://www.w3.org/1999/02/22-rdf-syntax-ns#"
   xmlns:svg="http://www.w3.org/2000/svg"
   xmlns="http://www.w3.org/2000/svg"
   viewBox="0 0 489.33334 88"
   height="88"
   width="489.33334"
   xml:space="preserve"
   id="svg2"
   version="1.1"><metadata
     id="metadata8"><rdf:RDF><cc:Work
         rdf:about=""><dc:format>image/svg+xml</dc:format><dc:type
           rdf:resource="http://purl.org/dc/dcmitype/StillImage" /></cc:Work></rdf:RDF></metadata><defs
     id="defs6" /><g
     transform="matrix(1.3333333,0,0,-1.3333333,0,88)"
     id="g10"><g
       transform="scale(0.1)"
       id="g12"><path
         id="path14"
         style="fill:#7b7979;fill-opacity:1;fill-rule:evenodd;stroke:none"
         d="M 1087.4,413.195 V 223.336 h -29.9 v 189.859 z m 0.77,84.246 v -38.816 h -32.61 v 38.816 z m 72.99,-84.246 1.17,-30.289 c 6.21,11.133 14.04,19.481 23.49,25.039 9.45,5.571 20.12,8.348 32.03,8.348 27.44,0.008 44.26,-10.48 50.47,-31.445 6.21,-20.965 9.45,-44.004 9.71,-69.11 0,-0.769 0,-1.488 0,-2.133 0,-0.64 0,-1.359 0,-2.132 v -88.137 h -29.9 v 85.414 c 0,13.469 -0.13,23.039 -0.39,28.734 -0.26,5.7 -0.77,10.735 -1.55,15.137 0,0.527 -0.06,0.977 -0.19,1.359 -0.13,0.395 -0.2,0.84 -0.2,1.36 -2.33,10.101 -6.47,17.797 -12.42,23.101 -5.96,5.309 -13.33,7.961 -22.13,7.961 -9.84,0.004 -18.64,-3.496 -26.4,-10.488 -7.77,-6.988 -13.2,-16.43 -16.31,-28.336 -0.26,-1.031 -0.52,-2.074 -0.77,-3.109 -0.26,-1.035 -0.39,-2.071 -0.39,-3.102 -1.04,-4.918 -1.69,-10.617 -1.95,-17.086 -0.25,-6.465 -0.38,-16.953 -0.38,-31.449 v -69.496 h -29.9 v 93.574 c 0,4.399 -0.06,8.731 -0.19,13 -0.14,4.274 -0.2,8.61 -0.2,13.008 -0.26,4.406 -0.38,8.734 -0.38,13.008 0,4.269 0,8.605 0,13 -0.27,7.515 -0.46,14.953 -0.59,22.328 -0.13,7.375 -0.33,14.687 -0.58,21.937 z m 242.66,-4.664 -2.33,-29.508 c -2.33,1.297 -4.59,2.457 -6.79,3.493 -2.2,1.043 -4.47,1.941 -6.8,2.718 -2.84,1.039 -5.82,1.813 -8.93,2.332 -3.1,0.524 -6.47,0.778 -10.09,0.778 -8.02,0.008 -14.56,-2.137 -19.61,-6.406 -5.04,-4.27 -7.57,-10.032 -7.57,-17.278 0,-6.469 2.26,-11.84 6.8,-16.109 4.53,-4.274 10.03,-8.352 16.49,-12.235 2.08,-1.031 4.15,-2.14 6.22,-3.3 2.07,-1.164 4.14,-2.395 6.21,-3.688 8.8,-5.172 16.89,-11.582 24.26,-19.215 7.38,-7.633 11.07,-18.445 11.07,-32.422 0,-17.339 -5.37,-31.253 -16.11,-41.738 -10.74,-10.48 -24.91,-15.726 -42.52,-15.726 -5.17,0.003 -10.09,0.39 -14.75,1.164 -4.66,0.785 -9.19,1.812 -13.58,3.113 -2.34,0.777 -4.6,1.68 -6.81,2.719 -2.19,1.035 -4.46,2.199 -6.78,3.492 v 31.453 c 5.95,-3.629 11.32,-6.348 16.11,-8.16 4.78,-1.809 9.51,-3.106 14.17,-3.883 1.29,0 2.59,-0.066 3.88,-0.191 1.29,-0.125 2.59,-0.196 3.89,-0.196 9.05,0 16.49,2.325 22.32,6.985 5.82,4.664 8.73,10.617 8.73,17.863 0,5.957 -2.13,11 -6.4,15.137 -4.27,4.148 -9.52,8.156 -15.73,12.039 -2.06,1.297 -4.27,2.59 -6.6,3.883 -2.32,1.293 -4.66,2.718 -6.98,4.273 -8.81,5.441 -16.89,11.973 -24.27,19.605 -7.38,7.645 -11.06,18.184 -11.06,31.641 0,16.824 5.11,30.219 15.33,40.184 10.22,9.968 23.75,14.945 40.57,14.945 2.59,0.008 5.05,-0.059 7.38,-0.191 2.33,-0.125 4.66,-0.45 6.99,-0.969 3.62,-0.512 7.31,-1.36 11.06,-2.528 3.76,-1.164 7.83,-2.523 12.23,-4.074 z m 85.41,59.41 v -55.523 h 43.1 v -27.57 h -43.1 v -74.539 c 0,-9.832 0.2,-17.539 0.59,-23.106 0.39,-5.562 0.84,-10.293 1.36,-14.172 1.03,-6.984 3.75,-12.426 8.15,-16.308 4.4,-3.875 9.97,-5.821 16.7,-5.821 1.29,0 2.52,0.067 3.69,0.192 1.16,0.136 2.26,0.328 3.29,0.586 2.08,0.258 4.08,0.84 6.03,1.746 1.93,0.91 4.07,2.004 6.39,3.297 v -30.278 c -4.13,-1.558 -8.01,-2.656 -11.64,-3.304 -3.62,-0.641 -7.11,-1.231 -10.48,-1.75 -1.03,0 -2.01,0 -2.91,0 -0.91,0 -1.75,0 -2.52,0 -22.52,0 -36.18,7.703 -40.97,23.101 -4.79,15.403 -7.18,33.848 -7.18,55.328 v 85.028 h -37.66 v 27.57 h 37.66 v 43.48 z m 107.94,-54.746 V 223.336 h -29.89 v 189.859 z m 0.78,84.246 v -38.816 h -32.61 v 38.816 z m 88.13,-29.5 v -55.523 h 43.1 v -27.57 h -43.1 v -74.539 c 0,-9.832 0.2,-17.539 0.59,-23.106 0.38,-5.562 0.83,-10.293 1.35,-14.172 1.04,-6.984 3.76,-12.426 8.15,-16.308 4.4,-3.875 9.97,-5.821 16.7,-5.821 1.29,0 2.52,0.067 3.69,0.192 1.16,0.136 2.26,0.328 3.3,0.586 2.07,0.258 4.07,0.84 6.02,1.746 1.94,0.91 4.07,2.004 6.4,3.297 v -30.278 c -4.14,-1.558 -8.02,-2.656 -11.64,-3.304 -3.63,-0.641 -7.12,-1.231 -10.49,-1.75 -1.03,0 -2,0 -2.91,0 -0.91,0 -1.75,0 -2.52,0 -22.52,0 -36.18,7.703 -40.96,23.101 -4.79,15.403 -7.19,33.848 -7.19,55.328 v 85.028 h -37.66 v 27.57 h 37.66 v 43.48 z m 217.04,-55.136 V 293.227 c 0,-8.801 0.13,-17.543 0.38,-26.215 0.26,-8.668 0.52,-17.41 0.78,-26.203 0.26,-2.844 0.45,-5.762 0.58,-8.739 0.13,-2.968 0.19,-5.886 0.19,-8.734 h -27.56 l -1.16,29.512 c -6.48,-10.614 -14.37,-18.578 -23.69,-23.883 -9.32,-5.301 -19.67,-7.961 -31.06,-7.961 -24.33,0.008 -40.31,9.121 -47.95,27.371 -7.63,18.258 -11.45,39.539 -11.45,63.871 v 100.559 h 29.9 v -88.133 c 0,-13.977 0.25,-24.656 0.78,-32.031 0.51,-7.375 1.55,-13.524 3.1,-18.446 2.84,-8.281 6.99,-14.621 12.42,-19.023 5.44,-4.399 11.91,-6.602 19.41,-6.602 13.73,0.004 24.72,6.278 33,18.832 8.28,12.559 12.43,29.055 12.43,49.504 v 12.817 83.082 z m 90.84,55.136 v -55.523 h 43.1 v -27.57 h -43.1 v -74.539 c 0,-9.832 0.2,-17.539 0.59,-23.106 0.39,-5.562 0.84,-10.293 1.36,-14.172 1.03,-6.984 3.75,-12.426 8.15,-16.308 4.4,-3.875 9.97,-5.821 16.69,-5.821 1.3,0 2.53,0.067 3.7,0.192 1.16,0.136 2.26,0.328 3.29,0.586 2.07,0.258 4.08,0.84 6.02,1.746 1.94,0.91 4.08,2.004 6.41,3.297 v -30.278 c -4.15,-1.558 -8.03,-2.656 -11.65,-3.304 -3.63,-0.641 -7.12,-1.231 -10.48,-1.75 -1.04,0 -2.01,0 -2.91,0 -0.91,0 -1.75,0 -2.53,0 -22.52,0 -36.17,7.703 -40.96,23.101 -4.78,15.403 -7.18,33.848 -7.18,55.328 v 85.028 h -37.67 v 27.57 h 37.67 v 43.48 z m 98.24,-158.8 c 2.06,-18.891 7.83,-33.782 17.27,-44.649 9.45,-10.863 21.55,-16.304 36.3,-16.304 6.48,0 12.88,0.835 19.22,2.519 6.34,1.684 12.62,4.207 18.83,7.574 2.07,1.035 4.14,2.196 6.21,3.492 2.07,1.305 4.15,2.719 6.21,4.266 V 232.27 c -4.91,-2.594 -9.63,-4.727 -14.17,-6.411 -4.53,-1.679 -9.12,-3.171 -13.78,-4.468 -3.88,-0.766 -7.76,-1.422 -11.65,-1.942 -3.88,-0.508 -7.89,-0.773 -12.03,-0.773 -25.11,0.004 -45.17,9.121 -60.18,27.371 -15.01,18.254 -22.52,43.031 -22.52,74.351 0,29.508 6.99,53.192 20.97,71.055 13.98,17.863 32.35,26.785 55.13,26.785 27.44,0.004 46.01,-11.258 55.71,-33.781 9.71,-22.512 14.56,-47.621 14.56,-75.316 z m 0,27.57 h 85.8 c -1.04,14.23 -4.73,26.715 -11.07,37.457 -6.34,10.75 -16.37,16.117 -30.09,16.117 -11.64,0 -21.48,-4.789 -29.5,-14.371 -8.03,-9.57 -13.08,-22.641 -15.14,-39.203 z m 468.61,62.121 c 2.85,1.805 5.63,3.492 8.35,5.039 2.72,1.563 5.37,2.981 7.96,4.274 5.95,2.847 11.97,4.918 18.05,6.21 6.08,1.297 12.62,1.938 19.61,1.938 15.01,0.008 27.63,-3.363 37.86,-10.094 10.22,-6.722 17.4,-16.304 21.54,-28.726 1.82,-5.688 3.11,-12.618 3.88,-20.77 0.78,-8.152 1.17,-18.832 1.17,-32.031 v -36.883 c 0,-5.437 0,-10.809 0,-16.113 0,-5.309 0.13,-10.68 0.38,-16.117 0,-5.434 0.14,-10.805 0.39,-16.11 0.26,-5.304 0.52,-10.679 0.78,-16.113 h -27.57 c 0,2.066 0,3.75 0,5.047 0,1.293 0,2.59 0,3.883 0,1.039 0,2.004 0,2.91 0,0.91 0,1.879 0,2.914 0,1.301 0,2.398 0,3.297 0,0.918 0,1.879 0,2.914 0,1.812 0,3.621 0,5.437 0,1.813 0,3.883 0,6.207 -5.95,-12.16 -13.26,-21.027 -21.93,-26.59 -8.67,-5.562 -19.35,-8.351 -32.03,-8.351 -16.82,0.008 -30.35,5.113 -40.57,15.34 -10.22,10.226 -15.34,24.008 -15.34,41.347 0,19.93 7.32,35.266 21.94,46.008 14.62,10.746 35.4,16.11 62.31,16.11 0.52,0 1.04,0 1.55,0 0.52,0 1.04,0 1.56,0 2.59,0 5.43,-0.063 8.54,-0.192 3.1,-0.129 6.73,-0.324 10.87,-0.582 -0.26,16.047 -3.63,27.953 -10.09,35.719 -6.47,7.766 -16.57,11.648 -30.29,11.648 -5.18,0.004 -10.03,-0.519 -14.56,-1.554 -4.53,-1.035 -8.99,-2.59 -13.39,-4.66 -3.37,-1.29 -6.6,-2.973 -9.71,-5.047 -3.11,-2.063 -6.34,-4.399 -9.71,-6.989 z m 90.08,-85.809 c -1.55,0.254 -2.98,0.45 -4.27,0.582 -1.3,0.129 -2.59,0.196 -3.89,0.196 -1.29,0.258 -2.59,0.387 -3.88,0.387 -1.29,0 -2.72,0 -4.27,0 -19.67,0 -34.55,-2.981 -44.65,-8.934 -10.09,-5.945 -15.14,-15.008 -15.14,-27.172 0,-8.797 2.85,-15.926 8.54,-21.359 5.69,-5.426 13.2,-8.153 22.52,-8.153 17.34,0.004 29.19,6.407 35.52,19.219 6.34,12.816 9.52,27.891 9.52,45.234 z m 206.55,100.172 -57.85,-189.859 h -34.55 l -59.41,189.859 h 32.23 l 33,-109.488 c 0.51,-2.328 1.16,-4.602 1.94,-6.797 0.77,-2.195 1.55,-4.469 2.33,-6.797 1.55,-5.687 3.11,-11.32 4.66,-16.883 1.55,-5.566 2.59,-11.199 3.1,-16.894 0.52,3.629 1.11,7.055 1.75,10.293 0.65,3.234 1.36,6.531 2.13,9.894 0.52,1.825 1.04,3.559 1.56,5.247 0.51,1.683 1.03,3.296 1.55,4.847 l 38.05,126.578 z m 54.74,0 V 223.336 h -29.9 v 189.859 z m 0.77,84.246 v -38.816 h -32.61 v 38.816 z m 53.97,-98.609 c 2.85,1.805 5.63,3.492 8.35,5.039 2.72,1.563 5.37,2.981 7.96,4.274 5.95,2.847 11.97,4.918 18.06,6.21 6.07,1.297 12.6,1.938 19.6,1.938 15.01,0.008 27.63,-3.363 37.85,-10.094 10.22,-6.722 17.41,-16.304 21.55,-28.726 1.81,-5.688 3.11,-12.618 3.88,-20.77 0.78,-8.152 1.17,-18.832 1.17,-32.031 v -36.883 c 0,-5.437 0,-10.809 0,-16.113 0,-5.309 0.13,-10.68 0.39,-16.117 0,-5.434 0.13,-10.805 0.38,-16.11 0.27,-5.304 0.52,-10.679 0.78,-16.113 h -27.56 c 0,2.066 0,3.75 0,5.047 0,1.293 0,2.59 0,3.883 0,1.039 0,2.004 0,2.91 0,0.91 0,1.879 0,2.914 0,1.301 0,2.398 0,3.297 0,0.918 0,1.879 0,2.914 0,1.812 0,3.621 0,5.437 0,1.813 0,3.883 0,6.207 -5.96,-12.16 -13.27,-21.027 -21.94,-26.59 -8.67,-5.562 -19.35,-8.351 -32.03,-8.351 -16.82,0.008 -30.35,5.113 -40.57,15.34 -10.23,10.226 -15.34,24.008 -15.34,41.347 0,19.93 7.31,35.266 21.93,46.008 14.63,10.746 35.41,16.11 62.32,16.11 0.52,0 1.04,0 1.55,0 0.52,0 1.04,0 1.56,0 2.58,0 5.43,-0.063 8.54,-0.192 3.11,-0.129 6.73,-0.324 10.87,-0.582 -0.26,16.047 -3.63,27.953 -10.09,35.719 -6.48,7.766 -16.57,11.648 -30.29,11.648 -5.17,0.004 -10.03,-0.519 -14.55,-1.554 -4.54,-1.035 -9,-2.59 -13.4,-4.66 -3.37,-1.29 -6.6,-2.973 -9.71,-5.047 -3.11,-2.063 -6.34,-4.399 -9.71,-6.989 z M 3057,313.023 c -1.56,0.254 -2.98,0.45 -4.28,0.582 -1.29,0.129 -2.58,0.196 -3.88,0.196 -1.29,0.258 -2.59,0.387 -3.88,0.387 -1.3,0 -2.72,0 -4.27,0 -19.67,0 -34.56,-2.981 -44.65,-8.934 -10.09,-5.945 -15.14,-15.008 -15.14,-27.172 0,-8.797 2.85,-15.926 8.54,-21.359 5.69,-5.426 13.2,-8.153 22.52,-8.153 17.34,0.004 29.18,6.407 35.52,19.219 6.35,12.816 9.52,27.891 9.52,45.234 z m 118.8,154.918 v -55.523 h 43.1 v -27.57 h -43.1 v -74.539 c 0,-9.832 0.2,-17.539 0.59,-23.106 0.38,-5.562 0.84,-10.293 1.35,-14.172 1.04,-6.984 3.76,-12.426 8.15,-16.308 4.41,-3.875 9.97,-5.821 16.7,-5.821 1.29,0 2.52,0.067 3.69,0.192 1.16,0.136 2.26,0.328 3.3,0.586 2.08,0.258 4.07,0.84 6.02,1.746 1.94,0.91 4.08,2.004 6.4,3.297 v -30.278 c -4.14,-1.558 -8.02,-2.656 -11.64,-3.304 -3.63,-0.641 -7.13,-1.231 -10.48,-1.75 -1.04,0 -2.01,0 -2.92,0 -0.91,0 -1.75,0 -2.52,0 -22.53,0 -36.17,7.703 -40.96,23.101 -4.79,15.403 -7.19,33.848 -7.19,55.328 v 85.028 h -37.65 v 27.57 h 37.65 v 43.48 z m 107.94,-54.746 V 223.336 h -29.9 v 189.859 z m 0.78,84.246 v -38.816 h -32.62 v 38.816 z m 200.33,-179.757 c 0,-28.993 -7.7,-52.743 -23.1,-71.246 -15.4,-18.504 -35.39,-27.762 -59.98,-27.762 -23.82,0.004 -43.49,9.32 -59.02,27.957 -15.53,18.633 -23.3,42.316 -23.3,71.051 0,29.246 7.77,53.32 23.3,72.211 15.53,18.902 35.33,28.343 59.4,28.343 24.33,0.004 44.14,-9.383 59.41,-28.148 15.27,-18.766 23.03,-42.902 23.29,-72.406 z m -31.84,-0.774 c 0,21.485 -4.72,39.078 -14.17,52.793 -9.45,13.727 -21.55,20.582 -36.3,20.582 -15.01,0 -27.31,-6.793 -36.88,-20.383 -9.58,-13.582 -14.36,-30.867 -14.36,-51.832 0,-21.222 4.78,-38.504 14.36,-51.832 9.57,-13.332 21.87,-19.996 36.88,-19.996 14.5,0.004 26.53,6.664 36.11,19.996 9.58,13.328 14.36,30.219 14.36,50.672 z m 95.51,96.285 1.17,-30.289 c 6.21,11.133 14.04,19.481 23.49,25.039 9.45,5.571 20.12,8.348 32.03,8.348 27.43,0.008 44.26,-10.48 50.47,-31.445 6.21,-20.965 9.45,-44.004 9.71,-69.11 0,-0.769 0,-1.488 0,-2.133 0,-0.64 0,-1.359 0,-2.132 v -88.137 h -29.9 v 85.414 c 0,13.469 -0.13,23.039 -0.39,28.734 -0.25,5.7 -0.78,10.735 -1.55,15.137 0,0.527 -0.06,0.977 -0.19,1.359 -0.13,0.395 -0.2,0.84 -0.2,1.36 -2.33,10.101 -6.47,17.797 -12.42,23.101 -5.95,5.309 -13.33,7.961 -22.13,7.961 -9.84,0.004 -18.64,-3.496 -26.4,-10.488 -7.77,-6.988 -13.2,-16.43 -16.31,-28.336 -0.26,-1.031 -0.52,-2.074 -0.78,-3.109 -0.25,-1.035 -0.39,-2.071 -0.39,-3.102 -1.03,-4.918 -1.68,-10.617 -1.93,-17.086 -0.26,-6.465 -0.39,-16.953 -0.39,-31.449 v -69.496 h -29.9 v 93.574 c 0,4.399 -0.06,8.731 -0.19,13 -0.13,4.274 -0.19,8.61 -0.19,13.008 -0.27,4.406 -0.39,8.734 -0.39,13.008 0,4.269 0,8.605 0,13 -0.26,7.515 -0.46,14.953 -0.59,22.328 -0.13,7.375 -0.32,14.687 -0.58,21.937 l 27.95,0.004" /><path
         id="path16"
         style="fill:#f5932e;fill-opacity:1;fill-rule:evenodd;stroke:none"
         d="m 2399.69,317.684 c 0,-28.993 -7.7,-52.743 -23.1,-71.246 -15.41,-18.504 -35.4,-27.762 -59.98,-27.762 -23.82,0.004 -43.49,9.32 -59.02,27.957 -15.53,18.633 -23.3,42.316 -23.3,71.051 0,29.246 7.77,53.32 23.3,72.211 15.53,18.902 35.33,28.343 59.4,28.343 24.33,0.004 44.14,-9.383 59.4,-28.148 15.27,-18.766 23.04,-42.902 23.3,-72.406 z m -31.84,-0.774 c 0,21.485 -4.72,39.078 -14.17,52.793 -9.45,13.727 -21.55,20.582 -36.3,20.582 -15.02,0 -27.31,-6.793 -36.89,-20.383 -9.57,-13.582 -14.36,-30.867 -14.36,-51.832 0,-21.222 4.79,-38.504 14.36,-51.832 9.58,-13.332 21.87,-19.996 36.89,-19.996 14.5,0.004 26.53,6.664 36.1,19.996 9.58,13.328 14.37,30.219 14.37,50.672 z m 157.63,184.418 v -29.5 c -2.33,0.77 -4.4,1.281 -6.21,1.543 -1.81,0.258 -3.5,0.516 -5.05,0.777 -0.51,0 -1.17,0 -1.94,0 -0.78,0 -1.55,0 -2.33,0 -13.2,0 -21.22,-5.179 -24.07,-15.531 -2.85,-10.351 -4.27,-21.742 -4.27,-34.168 0,-0.511 0,-0.972 0,-1.359 0,-0.391 0,-0.711 0,-0.969 v -9.703 h 43.87 v -27.57 h -43.87 V 223.336 h -30.29 v 161.512 h -37.66 v 27.57 h 37.66 c 0,1.551 0,3.105 0,4.656 0,1.559 0,2.977 0,4.27 0.52,20.976 3.89,40.054 10.1,57.265 6.21,17.219 20.32,25.821 42.32,25.821 1.55,0.008 3.04,-0.067 4.47,-0.192 1.42,-0.125 2.78,-0.199 4.07,-0.199 2.07,-0.25 4.14,-0.582 6.21,-0.969 2.07,-0.382 4.4,-0.968 6.99,-1.742" /><path
         id="path18"
         style="fill:none;stroke:#f5932e;stroke-width:27.42569923;stroke-linecap:butt;stroke-linejoin:miter;stroke-miterlimit:22.92560005;stroke-dasharray:none;stroke-opacity:1"
         d="m 957.379,648.793 c 0,-648.63675 0,-648.63675 0,-648.63675" /><path
         id="path20"
         style="fill:#7b7979;fill-opacity:1;fill-rule:evenodd;stroke:none"
         d="m 1076.22,81.3359 -21.5,70.2581 h 12.31 l 11.18,-40.563 4.15,-15.0896 c 0.19,0.7656 1.41,5.5976 3.64,14.4966 l 11.18,41.156 h 12.24 l 10.53,-40.75 3.52,-13.4377 4.02,13.5777 12.04,40.61 h 11.58 l -21.97,-70.2581 h -12.35 l -11.18,42.0741 -2.73,11.981 -14.21,-54.0551 z m 130.74,8.668 c -4.42,-3.7461 -8.67,-6.3984 -12.73,-7.9531 -4.09,-1.5313 -8.47,-2.3047 -13.14,-2.3047 -7.73,0 -13.65,1.875 -17.8,5.6445 -4.14,3.7735 -6.22,8.6055 -6.22,14.4532 0,3.4532 0.78,6.5972 2.35,9.4412 1.56,2.848 3.62,5.129 6.15,6.848 2.55,1.715 5.39,3.019 8.58,3.902 2.33,0.613 5.86,1.219 10.57,1.785 9.61,1.153 16.71,2.508 21.25,4.114 0.05,1.625 0.07,2.66 0.07,3.093 0,4.856 -1.13,8.286 -3.39,10.25 -3.02,2.711 -7.56,4.039 -13.55,4.039 -5.6,0.008 -9.73,-0.964 -12.42,-2.933 -2.67,-1.957 -4.63,-5.445 -5.92,-10.43 l -11.63,1.602 c 1.06,4.965 2.8,9.008 5.22,12.058 2.42,3.075 5.94,5.446 10.53,7.09 4.57,1.652 9.89,2.488 15.94,2.488 6,0.004 10.86,-0.726 14.61,-2.125 3.75,-1.414 6.5,-3.179 8.29,-5.332 1.76,-2.132 2.98,-4.828 3.7,-8.105 0.39,-2.027 0.59,-5.699 0.59,-10.973 v -15.883 c 0,-11.0699 0.24,-18.0855 0.76,-20.9996 0.5,-2.9296 1.52,-5.7578 3.01,-8.4453 l -12.44,0.0078 c -1.23,2.461 -2.04,5.3438 -2.38,8.668 z m -0.99,26.6011 c -4.34,-1.789 -10.81,-3.273 -19.44,-4.515 -4.9,-0.707 -8.39,-1.496 -10.39,-2.375 -2.04,-0.879 -3.61,-2.168 -4.7,-3.887 -1.11,-1.683 -1.67,-3.566 -1.67,-5.64 0,-3.188 1.22,-5.8325 3.61,-7.9536 2.39,-2.1016 5.92,-3.1641 10.55,-3.1641 4.58,0 8.68,1 12.24,3.0039 3.56,2.0078 6.21,4.7656 7.88,8.2458 1.29,2.688 1.92,6.66 1.92,11.899 z m 30.38,-35.2691 v 70.2581 h 10.7 v -10.645 c 2.74,4.965 5.26,8.266 7.59,9.844 2.3,1.586 4.86,2.398 7.63,2.398 4.02,0.004 8.09,-1.289 12.24,-3.839 l -4.11,-11.063 c -2.88,1.734 -5.8,2.59 -8.72,2.59 -2.61,0.008 -4.94,-0.785 -7.02,-2.348 -2.07,-1.578 -3.55,-3.75 -4.42,-6.527 -1.33,-4.207 -1.99,-8.863 -1.99,-13.887 V 81.3359 Z m 40.49,20.9691 11.77,1.859 c 0.65,-4.7226 2.51,-8.3476 5.53,-10.8671 3,-2.4961 7.23,-3.7735 12.67,-3.7735 5.46,0 9.53,1.1289 12.17,3.3438 2.65,2.2344 3.98,4.8594 3.98,7.8358 0,2.715 -1.17,4.809 -3.52,6.371 -1.63,1.067 -5.7,2.395 -12.18,4.02 -8.72,2.211 -14.79,4.105 -18.15,5.73 -3.37,1.621 -5.95,3.852 -7.68,6.692 -1.74,2.847 -2.63,5.98 -2.63,9.414 0,3.144 0.73,6.031 2.17,8.699 1.42,2.691 3.39,4.902 5.85,6.66 1.86,1.363 4.38,2.531 7.57,3.481 3.21,0.949 6.64,1.421 10.3,1.421 5.51,0.004 10.34,-0.824 14.52,-2.398 4.17,-1.57 7.25,-3.727 9.24,-6.434 1.98,-2.726 3.34,-6.347 4.09,-10.886 l -11.64,-1.594 c -0.54,3.605 -2.08,6.434 -4.6,8.461 -2.53,2.027 -6.12,3.051 -10.75,3.051 -5.47,0 -9.38,-0.911 -11.7,-2.711 -2.35,-1.805 -3.53,-3.93 -3.53,-6.348 0,-1.551 0.5,-2.941 1.47,-4.18 0.98,-1.281 2.49,-2.324 4.57,-3.183 1.19,-0.43 4.69,-1.446 10.52,-3.028 8.42,-2.253 14.29,-4.089 17.61,-5.535 3.35,-1.414 5.97,-3.519 7.86,-6.254 1.9,-2.726 2.85,-6.117 2.85,-10.187 0,-3.9689 -1.18,-7.6994 -3.48,-11.2228 -2.33,-3.5 -5.67,-6.2109 -10.02,-8.1289 -4.36,-1.918 -9.31,-2.8672 -14.82,-2.8672 -9.15,0 -16.11,1.8945 -20.9,5.6875 -4.78,3.8008 -7.83,9.4219 -9.14,16.8714 z M 1395.2,90.0039 c -4.42,-3.7461 -8.66,-6.3984 -12.74,-7.9531 -4.08,-1.5313 -8.46,-2.3047 -13.14,-2.3047 -7.72,0 -13.64,1.875 -17.79,5.6445 -4.14,3.7735 -6.21,8.6055 -6.21,14.4532 0,3.4532 0.76,6.5972 2.34,9.4412 1.56,2.848 3.62,5.129 6.15,6.848 2.55,1.715 5.4,3.019 8.58,3.902 2.33,0.613 5.86,1.219 10.57,1.785 9.62,1.153 16.71,2.508 21.25,4.114 0.05,1.625 0.07,2.66 0.07,3.093 0,4.856 -1.13,8.286 -3.39,10.25 -3.02,2.711 -7.56,4.039 -13.55,4.039 -5.6,0.008 -9.73,-0.964 -12.42,-2.933 -2.67,-1.957 -4.63,-5.445 -5.92,-10.43 l -11.63,1.602 c 1.07,4.965 2.8,9.008 5.22,12.058 2.41,3.075 5.94,5.446 10.52,7.09 4.59,1.652 9.89,2.488 15.94,2.488 6.01,0.004 10.87,-0.726 14.62,-2.125 3.75,-1.414 6.51,-3.179 8.29,-5.332 1.76,-2.132 2.98,-4.828 3.7,-8.105 0.39,-2.027 0.59,-5.699 0.59,-10.973 v -15.883 c 0,-11.0699 0.25,-18.0855 0.77,-20.9996 0.49,-2.9296 1.51,-5.7578 3,-8.4453 l -12.44,0.0078 c -1.22,2.461 -2.03,5.3438 -2.38,8.668 z m -0.99,26.6011 c -4.33,-1.789 -10.82,-3.273 -19.44,-4.515 -4.91,-0.707 -8.38,-1.496 -10.39,-2.375 -2.03,-0.879 -3.61,-2.168 -4.7,-3.887 -1.11,-1.683 -1.67,-3.566 -1.67,-5.64 0,-3.188 1.22,-5.8325 3.62,-7.9536 2.39,-2.1016 5.91,-3.1641 10.54,-3.1641 4.58,0 8.68,1 12.24,3.0039 3.56,2.0078 6.22,4.7656 7.89,8.2458 1.28,2.688 1.91,6.66 1.91,11.899 z m 43.47,-35.2691 -21.49,70.2581 h 12.31 l 11.18,-40.563 4.15,-15.0896 c 0.19,0.7656 1.4,5.5976 3.64,14.4966 l 11.18,41.156 h 12.24 l 10.52,-40.75 3.53,-13.4377 4.02,13.5777 12.03,40.61 h 11.59 L 1490.6,81.3359 h -12.35 l -11.18,42.0741 -2.73,11.981 -14.21,-54.0551 z m 69.53,0 v 13.5625 h 13.56 V 81.3359 c 0,-4.9765 -0.88,-9.0156 -2.63,-12.0937 -1.79,-3.0391 -4.59,-5.4219 -8.41,-7.1094 l -3.32,5.1016 c 2.51,1.1094 4.36,2.7304 5.56,4.8554 1.2,2.1485 1.85,5.2149 1.99,9.2383 z m 58.66,20.1211 11.76,1.852 c 0.66,-4.7231 2.51,-8.3402 5.54,-10.8598 2.99,-2.4961 7.22,-3.7734 12.66,-3.7734 5.47,0 9.54,1.1289 12.18,3.3398 2.64,2.2422 3.97,4.8594 3.97,7.836 0,2.7114 -1.17,4.8124 -3.52,6.3714 -1.62,1.062 -5.69,2.394 -12.17,4.019 -8.72,2.215 -14.79,4.113 -18.16,5.735 -3.37,1.613 -5.94,3.851 -7.68,6.687 -1.73,2.84 -2.62,5.981 -2.62,9.418 0,3.145 0.72,6.027 2.17,8.695 1.42,2.684 3.39,4.899 5.85,6.664 1.85,1.36 4.38,2.528 7.57,3.477 3.2,0.953 6.63,1.422 10.29,1.422 5.51,0 10.35,-0.82 14.52,-2.395 4.18,-1.57 7.25,-3.726 9.24,-6.437 1.99,-2.727 3.35,-6.348 4.09,-10.883 l -11.63,-1.605 c -0.54,3.617 -2.09,6.441 -4.61,8.472 -2.53,2.028 -6.12,3.047 -10.75,3.047 -5.46,0 -9.37,-0.906 -11.69,-2.711 -2.36,-1.801 -3.53,-3.93 -3.53,-6.348 0,-1.55 0.5,-2.933 1.47,-4.175 0.97,-1.285 2.48,-2.325 4.56,-3.184 1.19,-0.43 4.7,-1.445 10.52,-3.031 8.43,-2.258 14.3,-4.086 17.62,-5.531 3.34,-1.418 5.96,-3.524 7.86,-6.254 1.89,-2.727 2.85,-6.121 2.85,-10.188 0,-3.9686 -1.18,-7.7029 -3.49,-11.2225 -2.32,-3.4922 -5.66,-6.2109 -10.02,-8.1289 -4.36,-1.9179 -9.31,-2.8711 -14.82,-2.8711 -9.14,0.0039 -16.1,1.8985 -20.89,5.6914 -4.78,3.8008 -7.83,9.4141 -9.14,16.8711 z m 72.56,62.313 v 13.707 h 11.93 V 163.77 Z m 0,-83.2895 v 70.2615 h 11.93 V 80.4805 Z m 28.27,0 v 70.2615 h 10.71 v -9.984 c 5.17,7.726 12.62,11.582 22.36,11.582 4.25,0 8.13,-0.766 11.68,-2.281 3.56,-1.528 6.2,-3.52 7.97,-6.008 1.78,-2.453 3,-5.395 3.72,-8.785 0.43,-2.207 0.66,-6.094 0.66,-11.586 V 80.4805 h -11.93 V 123.23 c 0,4.829 -0.45,8.465 -1.37,10.883 -0.93,2.399 -2.58,4.317 -4.93,5.739 -2.37,1.441 -5.12,2.168 -8.31,2.168 -5.08,0 -9.44,-1.625 -13.15,-4.836 -3.67,-3.227 -5.5,-9.344 -5.5,-18.336 V 80.4805 Z m 121.21,25.7465 11.7,-1.536 c -1.26,-8.0621 -4.54,-14.3941 -9.82,-18.9527 -5.26,-4.5586 -11.74,-6.8438 -19.43,-6.8438 -9.59,0.0039 -17.34,3.1407 -23.16,9.418 -5.85,6.2813 -8.79,15.2895 -8.79,27.0355 0,7.593 1.27,14.226 3.77,19.918 2.53,5.687 6.35,9.961 11.5,12.804 5.12,2.852 10.73,4.27 16.76,4.27 7.63,0 13.88,-1.945 18.72,-5.801 4.86,-3.863 7.97,-9.328 9.35,-16.445 l -11.59,-1.778 c -1.1,4.719 -3.05,8.258 -5.85,10.657 -2.8,2.367 -6.18,3.566 -10.16,3.566 -6.01,0 -10.89,-2.144 -14.63,-6.461 -3.76,-4.281 -5.63,-11.086 -5.63,-20.39 0,-9.442 1.82,-16.3169 5.44,-20.6021 3.61,-4.25 8.34,-6.4101 14.17,-6.4101 4.67,0 8.56,1.457 11.69,4.3125 3.13,2.8633 5.13,7.2697 5.96,13.2387 z m 70,-3.118 12.3,-1.511 c -1.94,-7.2035 -5.53,-12.7855 -10.77,-16.766 -5.26,-3.9453 -11.97,-5.9375 -20.12,-5.9375 -10.28,0.0039 -18.43,3.1641 -24.44,9.4844 -6.02,6.332 -9.03,15.2031 -9.03,26.6251 0,11.844 3.05,21.008 9.12,27.535 6.1,6.535 13.98,9.801 23.69,9.801 9.4,0 17.07,-3.207 23.02,-9.598 5.96,-6.39 8.95,-15.402 8.95,-26.988 0,-0.719 -0.04,-1.785 -0.08,-3.184 l -52.4,0.004 c 0.44,-7.726 2.62,-13.6482 6.55,-17.7381 3.94,-4.1054 8.81,-6.1601 14.68,-6.1601 4.37,0 8.09,1.1523 11.19,3.4531 3.09,2.2852 5.53,5.9414 7.34,10.9801 z m -39.1,19.266 h 39.23 c -0.52,5.895 -2.04,10.34 -4.5,13.273 -3.79,4.59 -8.71,6.891 -14.74,6.891 -5.47,0 -10.08,-1.832 -13.8,-5.484 -3.73,-3.657 -5.78,-8.563 -6.19,-14.68 z m 145.56,-41.8945 h -11.9 v 75.8785 c -2.87,-2.73 -6.62,-5.464 -11.27,-8.195 -4.68,-2.734 -8.86,-4.793 -12.56,-6.144 v 11.503 c 6.66,3.125 12.49,6.926 17.48,11.375 4.97,4.473 8.52,8.786 10.59,12.985 h 7.66 z m 32.29,22.4175 11.45,1.067 c 0.98,-5.3791 2.83,-9.2853 5.56,-11.7228 2.74,-2.4063 6.24,-3.6367 10.53,-3.6367 3.65,0 6.86,0.8359 9.62,2.5312 2.75,1.6758 5.01,3.9063 6.77,6.7031 1.79,2.8082 3.25,6.5982 4.45,11.3402 1.17,4.765 1.79,9.621 1.79,14.566 0,0.52 -0.03,1.336 -0.07,2.375 -2.4,-3.769 -5.65,-6.867 -9.76,-9.215 -4.13,-2.367 -8.6,-3.547 -13.39,-3.547 -8.04,0 -14.84,2.914 -20.4,8.735 -5.55,5.84 -8.33,13.484 -8.33,23.019 0,9.852 2.91,17.762 8.7,23.758 5.8,5.996 13.08,9.012 21.81,9.012 6.31,0 12.06,-1.715 17.3,-5.102 5.22,-3.383 9.2,-8.261 11.9,-14.523 2.71,-6.262 4.07,-15.383 4.07,-27.309 0,-12.367 -1.33,-22.242 -4.02,-29.605 -2.71,-7.3362 -6.71,-12.9182 -12.01,-16.7581 -5.33,-3.8359 -11.54,-5.7578 -18.7,-5.7578 -7.59,0.0078 -13.78,2.0977 -18.59,6.3242 -4.82,4.2071 -7.7,10.1133 -8.68,17.7457 z m 48.77,42.829 c 0,6.824 -1.81,12.257 -5.45,16.257 -3.66,4.024 -8.02,6.032 -13.14,6.032 -5.29,0.004 -9.89,-2.168 -13.82,-6.481 -3.93,-4.336 -5.9,-9.941 -5.9,-16.805 0,-6.187 1.88,-11.21 5.6,-15.062 3.72,-3.844 8.32,-5.785 13.78,-5.785 5.53,0.008 10.05,1.922 13.59,5.785 3.57,3.859 5.34,9.207 5.34,16.059 z m 87.43,-53.7973 V 80.4805 h -64.13 c -0.09,2.8672 0.36,5.6211 1.38,8.2617 1.63,4.3867 4.25,8.6719 7.84,12.9218 3.61,4.219 8.8,9.121 15.59,14.676 10.53,8.66 17.67,15.492 21.38,20.555 3.71,5.031 5.55,9.82 5.55,14.316 0,4.723 -1.69,8.691 -5.05,11.945 -3.39,3.239 -7.8,4.86 -13.21,4.86 -5.74,0.004 -10.33,-1.723 -13.76,-5.172 -3.46,-3.43 -5.2,-8.203 -5.24,-14.274 l -12.24,1.239 c 0.84,9.16 4.01,16.113 9.46,20.89 5.46,4.778 12.83,7.184 22.04,7.184 9.31,0 16.68,-2.606 22.09,-7.75 5.44,-5.156 8.16,-11.563 8.16,-19.195 0,-3.879 -0.79,-7.704 -2.4,-11.446 -1.58,-3.75 -4.22,-7.703 -7.9,-11.84 -3.68,-4.148 -9.81,-9.843 -18.37,-17.07 -7.13,-6.008 -11.72,-10.074 -13.75,-12.2187 -2.03,-2.1172 -3.7,-4.2735 -5.03,-6.4375 z m 74.54,61.7893 -11.83,-0.926 c -1.06,4.68 -2.55,8.086 -4.5,10.187 -3.22,3.415 -7.2,5.102 -11.92,5.102 -3.79,0 -7.11,-1.062 -9.98,-3.184 -3.75,-2.734 -6.71,-6.726 -8.88,-11.972 -2.14,-5.235 -3.27,-12.719 -3.36,-22.422 2.86,4.363 6.36,7.605 10.52,9.734 4.14,2.098 8.49,3.16 13.03,3.16 7.95,0.004 14.71,-2.921 20.28,-8.761 5.57,-5.836 8.38,-13.395 8.38,-22.653 0,-6.101 -1.33,-11.746 -3.95,-16.9879 -2.62,-5.207 -6.24,-9.2461 -10.81,-12.0117 -4.58,-2.7696 -9.79,-4.1563 -15.62,-4.1563 -9.93,0.0078 -18.02,3.6367 -24.27,10.9532 -6.28,7.2968 -9.4,19.3357 -9.4,36.0897 0,18.75 3.46,32.359 10.39,40.879 6.04,7.41 14.16,11.133 24.41,11.133 7.61,0 13.87,-2.145 18.75,-6.434 4.88,-4.269 7.79,-10.187 8.76,-17.73 z m -48.62,-41.801 c 0,-4.113 0.88,-8.043 2.62,-11.793 1.74,-3.7422 4.18,-6.5898 7.29,-8.5586 3.14,-1.9648 6.44,-2.9609 9.87,-2.9609 5.04,0 9.36,2.0429 12.97,6.1015 3.6,4.0625 5.42,9.574 5.42,16.527 0,6.715 -1.8,12 -5.36,15.856 -3.55,3.851 -8.06,5.781 -13.48,5.781 -5.4,0.004 -9.96,-1.922 -13.71,-5.781 -3.75,-3.86 -5.62,-8.918 -5.62,-15.172" /><path
         id="path22"
         style="fill:#7b7979;fill-opacity:1;fill-rule:evenodd;stroke:none"
         d="M 803.344,643.07 580.82,274.816 l -18.679,-55.5 h 64.972 L 803.344,643.07" /><path
         id="path24"
         style="fill:#7b7979;fill-opacity:1;fill-rule:evenodd;stroke:none"
         d="M 724.109,0.226563 650.066,167.125 c -4.195,-9.77 -6.582,-19.582 -6.753,-30.43 -13.336,1.618 -26.79,2.645 -40.395,2.91 L 724.109,0.226563" /><path
         id="path26"
         style="fill:#7b7979;fill-opacity:1;fill-rule:evenodd;stroke:none"
         d="m 492.684,267.016 21.132,2.457 c 10.325,44.988 17.832,91.55 24.2,138.754 19.066,-2.524 39.648,-2.282 61.359,0.05 C 580.027,332.805 562.379,257.281 548.762,179.59 l 20.804,-1.434 57.637,41.106 21.418,-48.864 -13.398,-1.984 c -2.215,-6.101 -3.332,-12.203 -3.344,-18.305 -42.051,5.168 -92.25,4.336 -147.496,-0.214 l 7.359,26.98 -13.609,0.945 -0.492,6.985 15.89,-0.903 8.75,35.289 H 475.75 l 16.934,47.825" /><path
         id="path28"
         style="fill:#7b7979;fill-opacity:1;fill-rule:evenodd;stroke:none"
         d="m 712.719,90.25 c 33.617,28.703 61.215,64.465 80.156,104.875 l -96.414,-21.23 z M 225.105,196.5 C 275.172,89.5469 383.883,15.1602 509.414,15.1602 565.801,15.168 618.797,30.1719 664.605,56.4023 l 7.622,-9.0585 C 623.867,17.5234 566.801,3.49219 509.383,3.28516 380.539,2.80859 263.809,80.2539 211.711,197.535 l -3.203,6.922 197.992,-14.5 7.234,29.148 -411.92931,0.168 420.83231,41.321 c 10.75,48.636 17.957,96.902 21.937,148.082 21.016,-3.11 43.914,-3.789 64.086,-0.125 -19.406,-86.039 -37.336,-172.227 -49.972,-259.106 -19.754,4.071 -40.782,4.321 -63.079,0.766 l 9.032,33.445 z M 689.07,179.082 810.594,205.453 C 788.418,150.613 753.879,107.574 709.293,72.4531 L 689.07,179.082" /><path
         id="path30"
         style="fill:#7b7979;fill-opacity:1;fill-rule:evenodd;stroke:none"
         d="m 769.02,504.645 c 34.117,-50.219 54.085,-110.754 54.085,-175.79 0,-29.687 -4.164,-58.453 -11.941,-85.601 l 11.367,-3.211 c 27.133,95.129 8.785,198.754 -48.945,279.062 l -5.102,6.52 -75.918,-258.984 -65.191,-47.325 h 246.203 l -173.75,45.528 69.192,239.801" /><path
         id="path32"
         style="fill:#7b7979;fill-opacity:1;fill-rule:evenodd;stroke:none"
         d="m 194.59,245.723 11.625,2.652 c -6.844,25.699 -10.492,52.676 -10.492,80.48 0,172.778 140.914,313.688 313.691,313.688 89.086,0.012 169.703,-37.465 226.805,-97.387 l 6,10.973 c -59.192,60.613 -141.731,98.332 -232.805,98.332 -179.34,0.008 -325.609,-146.266 -325.609,-325.606 0,-28.71 3.75,-56.582 10.785,-83.132" /></g></g></svg>