<svg id="svg" version="1.1" xmlns="http://www.w3.org/2000/svg" xmlns:xlink="http://www.w3.org/1999/xlink" width="400" height="100.87976539589442" viewBox="0, 0, 400,100.87976539589442"><g id="svgg"><path id="path0" d="M76.250 0.219 C 75.333 0.310,74.546 0.435,74.500 0.496 C 74.454 0.556,73.517 0.698,72.417 0.810 C 70.042 1.052,69.965 1.063,69.750 1.196 C 69.658 1.252,68.852 1.353,67.958 1.419 C 67.065 1.485,66.333 1.593,66.333 1.658 C 66.333 1.723,65.265 1.872,63.958 1.990 C 62.652 2.108,61.461 2.269,61.312 2.347 C 61.162 2.426,60.318 2.541,59.437 2.603 C 58.555 2.665,57.833 2.770,57.833 2.836 C 57.833 2.903,57.158 3.010,56.333 3.074 C 55.508 3.139,54.833 3.247,54.833 3.315 C 54.833 3.383,54.456 3.425,53.996 3.409 C 53.535 3.392,53.122 3.438,53.077 3.510 C 53.033 3.581,52.246 3.693,51.328 3.758 C 50.410 3.824,49.619 3.942,49.570 4.022 C 49.521 4.101,49.222 4.167,48.907 4.167 C 48.591 4.167,48.333 4.223,48.333 4.292 C 48.333 4.361,47.945 4.400,47.471 4.379 C 46.997 4.358,46.528 4.400,46.429 4.472 C 46.331 4.545,46.137 4.597,46.000 4.588 C 45.862 4.579,45.694 4.650,45.625 4.744 C 45.544 4.856,45.445 4.831,45.342 4.671 C 45.208 4.462,45.167 4.471,45.069 4.727 C 44.979 4.961,44.923 4.979,44.818 4.808 C 44.712 4.637,44.604 4.671,44.334 4.961 C 43.932 5.392,43.667 5.441,43.667 5.083 C 43.667 4.946,43.584 4.833,43.482 4.833 C 43.381 4.833,43.344 4.954,43.401 5.102 C 43.475 5.296,43.432 5.343,43.246 5.271 C 43.020 5.185,42.990 5.479,43.009 7.670 L 43.030 10.167 43.682 10.167 C 44.040 10.167,44.333 10.103,44.333 10.025 C 44.333 9.947,44.783 9.913,45.333 9.950 C 45.963 9.992,46.333 9.952,46.333 9.842 C 46.333 9.745,46.627 9.667,46.986 9.667 C 47.352 9.667,47.676 9.575,47.723 9.458 C 47.776 9.328,47.812 9.320,47.820 9.438 C 47.835 9.643,49.287 9.554,49.583 9.331 C 49.675 9.262,50.035 9.221,50.383 9.240 C 50.732 9.259,51.055 9.213,51.102 9.137 C 51.148 9.062,51.538 8.996,51.968 8.990 C 52.398 8.985,53.125 8.905,53.583 8.814 C 54.042 8.723,55.092 8.574,55.917 8.485 C 56.742 8.395,57.529 8.279,57.667 8.227 C 57.804 8.175,58.254 8.115,58.667 8.095 C 59.079 8.074,59.529 8.012,59.667 7.958 C 59.804 7.903,60.546 7.809,61.316 7.749 C 62.085 7.689,62.835 7.577,62.982 7.500 C 63.130 7.424,64.168 7.276,65.291 7.171 C 66.414 7.067,67.501 6.938,67.708 6.886 C 67.914 6.834,68.796 6.707,69.667 6.604 C 70.537 6.501,71.325 6.369,71.417 6.312 C 71.508 6.254,72.240 6.154,73.042 6.088 C 74.530 5.968,74.756 6.054,74.258 6.551 C 74.125 6.684,73.967 6.990,73.907 7.230 C 73.847 7.470,73.730 7.667,73.649 7.667 C 73.567 7.667,73.499 7.760,73.498 7.875 C 73.496 8.077,72.269 10.580,72.006 10.917 C 71.935 11.008,71.786 11.365,71.675 11.708 C 71.565 12.052,71.405 12.333,71.320 12.333 C 71.236 12.333,71.167 12.420,71.167 12.525 C 71.167 12.746,70.305 14.541,70.138 14.668 C 70.077 14.715,69.976 14.956,69.914 15.203 C 69.851 15.451,69.700 15.736,69.578 15.838 C 69.455 15.940,69.306 16.243,69.247 16.512 C 69.188 16.780,69.077 17.000,69.000 17.000 C 68.923 17.000,68.810 17.225,68.750 17.500 C 68.690 17.775,68.571 18.000,68.487 18.000 C 68.402 18.000,68.333 18.078,68.333 18.174 C 68.333 18.397,66.810 21.555,66.648 21.668 C 66.581 21.715,66.475 21.959,66.412 22.210 C 66.349 22.461,66.236 22.667,66.162 22.667 C 66.087 22.667,65.977 22.892,65.917 23.167 C 65.856 23.442,65.750 23.667,65.680 23.667 C 65.610 23.667,65.454 23.967,65.333 24.333 C 65.212 24.700,65.058 25.000,64.991 25.000 C 64.924 25.000,64.818 25.206,64.755 25.457 C 64.577 26.166,64.351 26.333,63.573 26.333 C 63.177 26.333,62.812 26.400,62.761 26.482 C 62.710 26.564,61.978 26.686,61.133 26.753 C 60.288 26.820,59.481 26.934,59.340 27.008 C 59.088 27.139,55.565 27.555,54.924 27.529 C 54.745 27.522,54.520 27.578,54.424 27.653 C 54.328 27.729,53.613 27.845,52.834 27.911 C 52.055 27.976,51.380 28.091,51.334 28.165 C 51.288 28.239,50.538 28.352,49.667 28.416 C 48.796 28.481,48.062 28.590,48.036 28.659 C 48.010 28.728,47.806 28.750,47.584 28.708 C 47.362 28.665,46.783 28.728,46.298 28.848 C 45.813 28.968,45.285 29.046,45.125 29.022 C 44.965 28.999,44.833 29.060,44.833 29.159 C 44.833 29.264,44.646 29.306,44.389 29.259 C 44.094 29.206,43.869 29.275,43.720 29.464 C 43.572 29.652,43.510 29.671,43.539 29.521 C 43.616 29.122,43.214 29.135,43.107 29.535 C 43.051 29.745,43.004 32.785,43.002 36.292 C 43.000 41.993,42.908 43.442,42.618 42.333 C 42.530 41.995,42.167 41.861,42.167 42.167 C 42.167 42.258,42.246 42.333,42.343 42.333 C 42.440 42.333,42.484 42.390,42.441 42.460 C 42.320 42.656,42.790 43.213,42.977 43.097 C 43.069 43.041,43.191 43.071,43.248 43.164 C 43.306 43.257,43.236 43.333,43.093 43.333 C 42.950 43.333,42.833 43.417,42.833 43.519 C 42.833 43.625,42.981 43.667,43.175 43.616 C 43.424 43.551,43.509 43.602,43.489 43.805 C 43.420 44.502,43.521 44.818,43.845 44.920 C 44.053 44.986,44.155 45.124,44.101 45.265 C 44.051 45.394,44.091 45.500,44.190 45.500 C 44.288 45.500,44.328 45.607,44.278 45.737 C 44.228 45.867,44.370 46.171,44.594 46.412 C 44.817 46.653,45.000 46.959,45.000 47.092 C 45.000 47.225,45.150 47.483,45.333 47.667 C 45.517 47.850,45.667 48.075,45.667 48.167 C 45.667 48.258,45.739 48.333,45.828 48.333 C 45.917 48.333,45.946 48.446,45.894 48.583 C 45.841 48.721,45.881 48.833,45.982 48.833 C 46.084 48.833,46.167 48.946,46.167 49.083 C 46.167 49.221,46.298 49.334,46.458 49.336 C 46.708 49.338,46.714 49.362,46.500 49.500 C 46.275 49.645,46.379 49.738,46.708 49.686 C 46.777 49.676,46.833 49.814,46.833 49.993 C 46.833 50.475,47.382 51.491,47.644 51.496 C 47.793 51.499,47.840 51.621,47.781 51.850 C 47.730 52.042,47.732 52.157,47.784 52.105 C 47.836 52.053,48.090 52.458,48.349 53.005 C 48.607 53.552,48.897 54.000,48.993 54.000 C 49.088 54.000,49.167 54.112,49.167 54.250 C 49.167 54.387,49.246 54.500,49.343 54.500 C 49.440 54.500,49.473 54.576,49.416 54.668 C 49.359 54.760,49.429 54.953,49.573 55.097 C 49.899 55.423,49.907 55.902,49.591 56.218 C 49.458 56.351,49.396 56.507,49.452 56.563 C 49.509 56.620,49.468 56.667,49.361 56.667 C 49.254 56.667,49.166 56.798,49.166 56.958 C 49.165 57.237,49.084 57.419,48.345 58.810 C 48.168 59.144,47.558 60.392,46.991 61.583 C 46.423 62.775,45.874 63.805,45.771 63.872 C 45.668 63.940,45.641 63.996,45.712 63.997 C 45.859 64.000,44.846 66.030,44.620 66.185 C 44.538 66.241,44.485 66.339,44.502 66.401 C 44.538 66.541,43.655 68.384,43.495 68.500 C 43.432 68.546,43.401 68.715,43.426 68.875 C 43.450 69.035,43.404 69.167,43.324 69.167 C 43.243 69.167,43.224 69.298,43.282 69.458 C 43.339 69.619,43.325 69.694,43.250 69.626 C 43.175 69.558,42.999 69.666,42.859 69.866 C 42.674 70.129,42.658 70.247,42.802 70.295 C 43.059 70.381,43.090 81.500,42.833 81.500 C 42.742 81.500,42.667 81.612,42.667 81.750 C 42.667 81.887,42.779 82.000,42.917 82.000 C 43.257 82.000,43.423 81.936,43.384 81.819 C 43.366 81.766,43.456 81.722,43.584 81.722 C 43.747 81.722,43.772 81.803,43.669 81.995 C 43.497 82.316,43.815 82.563,44.632 82.742 C 44.928 82.807,45.128 82.928,45.076 83.012 C 45.025 83.095,45.099 83.118,45.241 83.064 C 45.388 83.007,45.500 83.052,45.500 83.167 C 45.500 83.278,45.609 83.327,45.741 83.276 C 45.889 83.220,46.024 83.313,46.088 83.515 C 46.150 83.709,46.396 83.888,46.680 83.944 C 46.948 83.998,47.167 84.112,47.167 84.197 C 47.167 84.283,47.242 84.307,47.333 84.250 C 47.425 84.193,47.500 84.235,47.500 84.343 C 47.500 84.457,47.640 84.502,47.833 84.452 C 48.057 84.393,48.271 84.497,48.482 84.766 C 48.656 84.986,48.881 85.167,48.982 85.167 C 49.084 85.167,49.167 85.223,49.168 85.292 C 49.170 85.457,49.990 85.833,50.349 85.833 C 50.504 85.833,50.674 85.946,50.727 86.083 C 50.780 86.221,50.931 86.333,51.064 86.333 C 51.197 86.333,51.331 86.393,51.361 86.466 C 51.418 86.603,52.182 87.046,53.500 87.707 C 53.913 87.914,54.288 88.125,54.333 88.176 C 54.379 88.227,54.660 88.368,54.958 88.488 C 55.256 88.609,55.500 88.767,55.500 88.840 C 55.500 88.914,55.725 89.023,56.000 89.083 C 56.275 89.144,56.500 89.246,56.500 89.310 C 56.500 89.374,56.706 89.516,56.958 89.624 C 57.210 89.733,58.167 90.234,59.083 90.738 C 60.000 91.243,61.237 91.901,61.833 92.203 C 62.429 92.504,62.954 92.799,63.000 92.858 C 63.148 93.049,64.709 93.833,64.941 93.833 C 65.065 93.833,65.167 93.897,65.167 93.975 C 65.167 94.052,65.860 94.471,66.708 94.905 C 67.556 95.339,68.475 95.837,68.750 96.011 C 69.332 96.381,69.955 96.667,70.178 96.667 C 70.263 96.667,70.333 96.725,70.333 96.797 C 70.333 96.868,70.540 97.018,70.792 97.129 C 71.044 97.240,71.775 97.622,72.417 97.979 C 73.058 98.335,74.240 98.974,75.044 99.400 C 75.847 99.826,76.747 100.322,77.044 100.503 C 78.382 101.319,76.536 104.693,95.567 66.646 C 104.972 47.843,112.667 32.356,112.667 32.229 C 112.667 32.103,112.736 32.000,112.820 32.000 C 112.904 32.000,113.023 31.775,113.083 31.500 C 113.144 31.225,113.259 31.000,113.340 31.000 C 113.421 31.000,113.577 30.700,113.686 30.333 C 113.796 29.967,113.943 29.667,114.013 29.667 C 114.083 29.667,114.190 29.442,114.250 29.167 C 114.310 28.892,114.426 28.667,114.507 28.667 C 114.587 28.667,114.743 28.367,114.853 28.000 C 114.963 27.633,115.108 27.333,115.175 27.333 C 115.242 27.333,115.349 27.128,115.412 26.877 C 115.475 26.626,115.577 26.382,115.638 26.335 C 115.799 26.212,116.667 24.417,116.667 24.206 C 116.667 24.108,116.723 24.003,116.792 23.972 C 116.953 23.900,117.833 22.138,117.833 21.886 C 117.833 21.781,117.907 21.669,117.996 21.639 C 118.477 21.475,118.342 20.583,117.796 20.328 C 116.904 19.910,114.423 18.591,114.333 18.487 C 114.287 18.433,114.006 18.284,113.708 18.154 C 113.410 18.025,113.167 17.868,113.167 17.806 C 113.167 17.744,112.942 17.644,112.667 17.583 C 112.392 17.523,112.167 17.416,112.167 17.345 C 112.167 17.275,111.885 17.096,111.542 16.948 C 110.902 16.672,110.315 16.330,110.167 16.147 C 110.121 16.091,109.896 15.988,109.667 15.918 C 109.438 15.848,108.758 15.500,108.157 15.145 C 107.556 14.790,106.975 14.500,106.865 14.500 C 106.756 14.500,106.667 14.425,106.667 14.333 C 106.667 14.242,106.560 14.167,106.429 14.167 C 106.298 14.167,106.089 14.065,105.964 13.940 C 105.840 13.816,105.459 13.613,105.119 13.490 C 104.778 13.367,104.500 13.212,104.500 13.146 C 104.500 13.080,104.275 12.977,104.000 12.917 C 103.725 12.856,103.500 12.750,103.500 12.681 C 103.500 12.612,102.844 12.224,102.043 11.819 C 101.242 11.415,100.487 10.990,100.365 10.875 C 100.243 10.761,99.961 10.621,99.738 10.566 C 99.516 10.510,99.333 10.403,99.333 10.329 C 99.333 10.254,99.108 10.144,98.833 10.083 C 98.558 10.023,98.333 9.922,98.333 9.859 C 98.333 9.797,98.052 9.617,97.708 9.460 C 97.365 9.303,96.408 8.797,95.583 8.336 C 94.758 7.875,93.821 7.366,93.500 7.207 C 93.179 7.047,92.879 6.878,92.833 6.830 C 92.787 6.782,92.563 6.654,92.333 6.544 C 92.104 6.435,91.242 5.966,90.417 5.502 C 89.592 5.039,88.654 4.540,88.333 4.394 C 88.013 4.248,87.712 4.081,87.667 4.022 C 87.621 3.963,86.909 3.577,86.085 3.166 C 85.261 2.754,84.487 2.323,84.365 2.209 C 84.243 2.094,83.961 1.955,83.738 1.899 C 83.516 1.843,83.333 1.749,83.333 1.690 C 83.333 1.631,82.864 1.359,82.291 1.084 C 81.719 0.810,81.211 0.533,81.163 0.470 C 80.803 -0.009,79.312 -0.085,76.250 0.219 M41.538 5.198 C 41.641 5.507,42.000 5.558,42.000 5.264 C 42.000 5.119,41.881 5.000,41.736 5.000 C 41.591 5.000,41.502 5.089,41.538 5.198 M40.133 5.533 C 40.289 5.689,40.378 5.689,40.533 5.533 C 40.689 5.378,40.644 5.333,40.333 5.333 C 40.022 5.333,39.978 5.378,40.133 5.533 M80.667 6.299 C 80.667 6.371,80.910 6.547,81.208 6.688 C 81.998 7.064,83.570 7.903,83.667 8.000 C 83.712 8.046,84.200 8.308,84.750 8.583 C 85.300 8.858,85.787 9.131,85.833 9.190 C 85.879 9.248,86.179 9.419,86.500 9.569 C 86.821 9.718,87.496 10.063,88.000 10.334 C 88.504 10.606,89.010 10.829,89.125 10.831 C 89.240 10.832,89.333 10.896,89.333 10.973 C 89.333 11.049,89.765 11.327,90.292 11.591 C 90.819 11.854,91.288 12.123,91.335 12.188 C 91.382 12.253,91.626 12.358,91.877 12.422 C 92.128 12.485,92.333 12.598,92.333 12.674 C 92.333 12.750,92.596 12.907,92.917 13.023 C 93.237 13.139,93.500 13.285,93.500 13.349 C 93.500 13.412,93.705 13.515,93.957 13.578 C 94.208 13.642,94.452 13.752,94.498 13.823 C 94.581 13.950,95.813 14.628,98.333 15.935 C 99.021 16.292,99.621 16.628,99.667 16.682 C 99.712 16.737,100.125 16.973,100.583 17.208 C 101.042 17.443,101.829 17.862,102.333 18.138 C 102.837 18.415,103.662 18.847,104.167 19.099 C 104.671 19.350,105.121 19.601,105.167 19.656 C 105.212 19.712,105.456 19.847,105.708 19.958 C 106.390 20.258,106.264 20.500,105.427 20.500 C 105.019 20.500,104.648 20.562,104.601 20.639 C 104.553 20.715,103.405 20.875,102.049 20.993 C 100.693 21.112,99.508 21.266,99.417 21.336 C 99.325 21.406,98.612 21.517,97.833 21.583 C 97.054 21.649,96.342 21.761,96.250 21.831 C 96.158 21.901,94.977 22.055,93.625 22.173 C 92.273 22.291,91.167 22.442,91.167 22.509 C 91.167 22.576,90.417 22.684,89.500 22.750 C 88.583 22.816,87.833 22.921,87.833 22.984 C 87.833 23.048,86.877 23.190,85.708 23.300 C 83.341 23.524,83.154 23.550,82.917 23.693 C 82.825 23.748,82.019 23.847,81.125 23.912 C 80.231 23.978,79.500 24.085,79.500 24.151 C 79.500 24.217,78.581 24.363,77.458 24.476 C 76.335 24.589,75.229 24.715,75.000 24.756 C 74.771 24.797,73.833 24.929,72.915 25.048 C 71.997 25.167,71.146 25.326,71.023 25.402 C 70.850 25.509,70.835 25.471,70.957 25.228 C 71.467 24.219,71.833 23.369,71.833 23.197 C 71.833 23.089,71.907 23.000,71.997 23.000 C 72.087 23.000,72.207 22.813,72.265 22.583 C 72.322 22.354,72.436 22.167,72.518 22.167 C 72.600 22.167,72.667 22.074,72.667 21.961 C 72.667 21.699,73.542 19.935,73.708 19.861 C 73.777 19.831,73.833 19.732,73.833 19.642 C 73.833 19.387,74.707 17.590,74.862 17.528 C 74.938 17.497,75.000 17.399,75.000 17.309 C 75.000 17.054,75.874 15.256,76.028 15.194 C 76.104 15.164,76.167 15.065,76.167 14.976 C 76.167 14.720,77.041 12.923,77.195 12.861 C 77.271 12.831,77.333 12.724,77.333 12.624 C 77.333 12.418,78.685 9.628,78.847 9.500 C 78.904 9.454,79.049 9.119,79.168 8.755 C 79.286 8.390,79.485 7.991,79.608 7.868 C 79.732 7.744,79.833 7.536,79.833 7.405 C 79.833 7.274,79.902 7.167,79.987 7.167 C 80.071 7.167,80.190 6.942,80.250 6.667 C 80.346 6.228,80.667 5.945,80.667 6.299 M41.370 10.196 C 41.410 10.318,41.688 10.441,41.989 10.470 C 42.384 10.509,42.516 10.463,42.463 10.304 C 42.424 10.182,42.145 10.059,41.844 10.030 C 41.450 9.991,41.318 10.037,41.370 10.196 M40.333 10.500 C 40.333 10.592,40.483 10.667,40.667 10.667 C 40.850 10.667,41.000 10.592,41.000 10.500 C 41.000 10.408,40.850 10.333,40.667 10.333 C 40.483 10.333,40.333 10.408,40.333 10.500 M110.167 25.255 C 110.167 25.345,109.207 27.316,108.871 27.917 C 108.768 28.100,108.201 29.225,107.611 30.417 C 107.020 31.608,106.417 32.808,106.270 33.083 C 106.122 33.358,106.002 33.671,106.001 33.778 C 106.000 33.885,105.944 33.997,105.875 34.028 C 105.806 34.058,105.525 34.570,105.250 35.165 C 104.975 35.760,104.394 36.899,103.958 37.696 C 103.523 38.493,103.167 39.226,103.167 39.326 C 103.167 39.425,102.994 39.786,102.783 40.128 C 102.572 40.470,102.029 41.537,101.578 42.500 C 101.126 43.462,100.557 44.587,100.313 45.000 C 100.070 45.413,99.815 45.938,99.746 46.167 C 99.678 46.396,99.574 46.621,99.517 46.667 C 99.393 46.765,94.500 56.575,94.500 56.725 C 94.500 56.782,94.283 57.186,94.019 57.622 C 93.754 58.059,93.481 58.604,93.413 58.833 C 93.344 59.063,93.240 59.288,93.182 59.333 C 93.090 59.405,92.440 60.712,91.359 63.000 C 91.207 63.321,91.038 63.621,90.982 63.667 C 90.927 63.712,90.790 64.031,90.678 64.375 C 90.566 64.719,90.411 65.000,90.334 65.000 C 90.256 65.000,90.144 65.225,90.083 65.500 C 90.023 65.775,89.904 66.000,89.820 66.000 C 89.736 66.000,89.667 66.084,89.667 66.188 C 89.667 66.438,86.452 72.901,86.292 72.972 C 86.223 73.003,86.167 73.107,86.167 73.203 C 86.167 73.399,84.808 76.202,84.649 76.333 C 84.594 76.379,84.457 76.698,84.345 77.042 C 84.233 77.385,84.078 77.667,84.000 77.667 C 83.923 77.667,83.810 77.892,83.750 78.167 C 83.690 78.442,83.583 78.667,83.513 78.667 C 83.444 78.667,83.288 78.967,83.167 79.333 C 83.046 79.700,82.884 80.000,82.807 80.000 C 82.730 80.000,82.667 80.085,82.667 80.189 C 82.667 80.441,81.285 83.235,81.125 83.306 C 81.056 83.336,81.000 83.435,81.000 83.524 C 81.000 83.760,80.107 85.573,79.958 85.639 C 79.890 85.669,79.833 85.774,79.833 85.872 C 79.833 86.083,78.966 87.879,78.805 88.002 C 78.743 88.048,78.642 88.292,78.578 88.543 C 78.515 88.795,78.397 89.000,78.315 89.000 C 78.234 89.000,78.167 89.080,78.167 89.177 C 78.167 89.274,77.896 89.908,77.566 90.586 L 76.965 91.818 76.549 91.034 C 76.320 90.603,76.075 90.212,76.005 90.167 C 75.935 90.121,75.826 89.915,75.762 89.709 C 75.697 89.504,75.556 89.238,75.447 89.119 C 75.140 88.782,74.845 88.293,74.648 87.792 C 74.549 87.540,74.387 87.333,74.289 87.333 C 74.191 87.333,74.156 87.289,74.211 87.234 C 74.296 87.148,73.437 85.571,73.175 85.333 C 73.125 85.287,72.861 84.819,72.589 84.292 C 72.317 83.765,72.051 83.333,71.998 83.333 C 71.944 83.333,71.800 83.057,71.678 82.720 C 71.470 82.145,71.366 81.974,70.897 81.445 C 70.794 81.329,70.653 81.050,70.583 80.826 C 70.514 80.601,70.316 80.218,70.145 79.974 C 69.973 79.731,69.833 79.450,69.833 79.349 C 69.833 79.249,69.767 79.167,69.686 79.167 C 69.605 79.167,69.496 79.035,69.443 78.875 C 69.391 78.715,69.147 78.246,68.900 77.833 C 68.654 77.421,68.266 76.746,68.038 76.333 C 67.810 75.921,67.530 75.471,67.415 75.333 C 67.300 75.196,67.155 74.915,67.092 74.708 C 67.029 74.502,66.916 74.333,66.842 74.333 C 66.767 74.333,66.670 74.197,66.626 74.031 C 66.583 73.865,66.106 72.995,65.565 72.099 C 65.025 71.202,64.450 70.232,64.288 69.943 C 64.125 69.653,63.849 69.192,63.675 68.917 C 63.500 68.642,63.122 67.967,62.835 67.417 C 62.547 66.867,62.089 66.042,61.818 65.583 C 61.546 65.125,61.280 64.619,61.226 64.458 C 61.172 64.298,61.062 64.167,60.981 64.167 C 60.900 64.167,60.833 64.052,60.833 63.911 C 60.833 63.771,60.725 63.615,60.594 63.564 C 60.462 63.514,60.305 63.248,60.244 62.975 C 60.184 62.701,60.030 62.437,59.901 62.388 C 59.772 62.338,59.667 62.161,59.667 61.994 C 59.667 61.827,59.570 61.591,59.452 61.470 C 59.334 61.349,59.112 60.987,58.958 60.667 C 58.804 60.346,58.305 59.483,57.848 58.750 C 57.392 58.017,56.873 57.108,56.695 56.730 C 56.517 56.352,56.288 55.991,56.186 55.928 C 55.820 55.702,56.015 55.018,57.000 53.070 C 57.550 51.981,58.000 50.996,58.000 50.879 C 58.000 50.762,58.063 50.667,58.140 50.667 C 58.216 50.667,58.456 50.250,58.671 49.740 C 58.887 49.230,59.156 48.649,59.271 48.448 C 59.740 47.625,60.333 46.373,60.333 46.206 C 60.333 46.108,60.392 46.003,60.463 45.972 C 60.535 45.942,61.564 43.967,62.751 41.583 C 63.938 39.200,64.967 37.225,65.038 37.194 C 65.109 37.164,65.167 37.051,65.167 36.944 C 65.167 36.837,65.505 36.078,65.917 35.257 C 66.329 34.437,66.667 33.668,66.667 33.549 C 66.667 33.430,66.737 33.333,66.822 33.333 C 66.908 33.333,67.030 33.165,67.095 32.958 C 67.159 32.752,67.262 32.546,67.323 32.500 C 67.384 32.454,67.545 32.117,67.681 31.750 L 67.929 31.083 70.339 30.833 C 71.665 30.696,72.825 30.536,72.917 30.478 C 73.008 30.421,73.758 30.319,74.583 30.253 C 75.408 30.186,76.158 30.083,76.250 30.024 C 76.342 29.965,77.504 29.785,78.833 29.623 C 80.162 29.462,82.000 29.220,82.917 29.087 C 84.489 28.858,88.087 28.395,89.000 28.304 C 89.229 28.281,89.492 28.212,89.583 28.151 C 89.675 28.090,90.425 27.986,91.250 27.920 C 92.075 27.854,92.825 27.743,92.917 27.673 C 93.008 27.604,94.133 27.452,95.417 27.337 C 96.700 27.222,97.825 27.070,97.917 27.000 C 98.008 26.930,98.815 26.819,99.708 26.754 C 100.602 26.689,101.333 26.576,101.333 26.502 C 101.333 26.429,102.083 26.316,103.000 26.250 C 103.917 26.184,104.667 26.075,104.667 26.008 C 104.667 25.940,105.792 25.786,107.167 25.667 C 108.542 25.547,109.667 25.385,109.667 25.308 C 109.667 25.230,109.779 25.167,109.917 25.167 C 110.054 25.167,110.167 25.206,110.167 25.255 M61.239 32.542 C 61.174 32.748,61.076 32.954,61.019 33.000 C 60.963 33.046,60.692 33.571,60.417 34.167 C 60.142 34.762,59.866 35.288,59.805 35.335 C 59.743 35.382,59.642 35.626,59.578 35.877 C 59.515 36.128,59.397 36.333,59.315 36.333 C 59.234 36.333,59.176 36.390,59.188 36.458 C 59.226 36.673,58.767 37.667,58.630 37.667 C 58.559 37.667,58.500 37.753,58.500 37.858 C 58.500 38.080,57.639 39.875,57.472 40.002 C 57.410 40.048,57.309 40.289,57.247 40.536 C 57.185 40.784,57.034 41.070,56.911 41.171 C 56.788 41.273,56.640 41.576,56.581 41.845 C 56.522 42.114,56.410 42.333,56.333 42.333 C 56.256 42.333,56.144 42.558,56.083 42.833 C 56.023 43.108,55.912 43.333,55.837 43.333 C 55.761 43.333,55.610 43.708,55.500 44.167 C 55.390 44.625,55.251 45.002,55.192 45.003 C 55.132 45.005,54.896 45.416,54.667 45.917 C 54.438 46.417,54.196 46.828,54.130 46.830 C 54.064 46.832,54.054 46.946,54.106 47.083 C 54.159 47.221,54.127 47.333,54.036 47.333 C 53.944 47.333,53.822 47.521,53.765 47.750 C 53.707 47.979,53.593 48.167,53.510 48.167 C 53.427 48.167,53.310 48.392,53.250 48.668 C 53.189 48.944,53.075 49.129,52.995 49.080 C 52.916 49.031,52.880 49.143,52.916 49.329 C 52.963 49.575,52.893 49.667,52.657 49.667 C 52.479 49.667,52.345 49.610,52.360 49.542 C 52.419 49.268,51.990 48.486,51.834 48.583 C 51.739 48.642,51.667 48.506,51.667 48.272 C 51.667 48.044,51.564 47.755,51.439 47.629 C 51.313 47.504,51.158 47.236,51.094 47.035 C 51.030 46.833,50.889 46.573,50.781 46.456 C 50.672 46.340,50.396 45.881,50.167 45.437 C 49.938 44.993,49.656 44.593,49.542 44.547 C 49.427 44.502,49.333 44.320,49.333 44.144 C 49.333 43.967,49.221 43.780,49.083 43.727 C 48.946 43.674,48.833 43.527,48.833 43.399 C 48.833 43.271,48.683 43.017,48.500 42.833 C 48.317 42.650,48.167 42.367,48.167 42.204 C 48.167 42.041,48.017 41.779,47.833 41.622 C 47.650 41.465,47.500 41.186,47.500 41.002 C 47.500 40.817,47.421 40.667,47.323 40.667 C 47.226 40.667,47.193 40.592,47.250 40.500 C 47.307 40.408,47.274 40.333,47.177 40.333 C 47.079 40.333,47.000 40.221,47.000 40.083 C 47.000 39.946,46.887 39.833,46.750 39.833 C 46.612 39.833,46.500 39.721,46.500 39.583 C 46.500 39.446,46.420 39.333,46.322 39.333 C 46.223 39.333,46.189 39.192,46.246 39.014 C 46.317 38.789,46.259 38.676,46.049 38.636 C 45.841 38.595,45.750 38.425,45.750 38.080 C 45.750 37.772,45.671 37.599,45.542 37.625 C 45.427 37.648,45.333 37.533,45.333 37.370 C 45.333 37.207,45.183 36.946,45.000 36.789 C 44.817 36.632,44.667 36.350,44.667 36.163 C 44.667 35.976,44.554 35.780,44.417 35.727 C 44.279 35.674,44.167 35.527,44.167 35.399 C 44.167 35.271,44.094 35.167,44.005 35.167 C 43.916 35.167,43.884 35.061,43.934 34.932 C 43.988 34.790,43.886 34.653,43.676 34.586 C 43.485 34.526,43.376 34.398,43.435 34.304 C 43.504 34.192,43.588 34.207,43.675 34.346 C 43.783 34.522,43.856 34.522,44.071 34.344 C 44.263 34.185,44.333 34.179,44.333 34.324 C 44.333 34.455,44.460 34.481,44.708 34.399 C 44.915 34.331,45.252 34.288,45.458 34.303 C 45.665 34.317,45.833 34.247,45.833 34.145 C 45.833 34.044,45.980 33.999,46.159 34.046 C 46.338 34.093,46.510 34.053,46.542 33.958 C 46.580 33.842,46.715 33.847,46.953 33.975 C 47.223 34.120,47.326 34.115,47.391 33.957 C 47.457 33.793,47.505 33.793,47.622 33.959 C 47.736 34.119,47.853 34.090,48.126 33.835 C 48.322 33.653,48.526 33.575,48.580 33.662 C 48.686 33.832,50.859 33.692,51.000 33.505 C 51.046 33.444,52.133 33.296,53.417 33.175 C 54.700 33.054,55.900 32.894,56.083 32.820 C 56.267 32.746,57.073 32.637,57.874 32.578 C 58.676 32.518,59.374 32.402,59.426 32.318 C 59.662 31.936,61.362 32.146,61.239 32.542 M40.891 40.082 C 41.110 40.555,41.552 40.668,41.382 40.208 C 41.275 39.918,41.015 39.674,40.807 39.669 C 40.747 39.668,40.785 39.854,40.891 40.082 M41.599 41.417 C 41.862 41.818,42.167 41.972,42.167 41.704 C 42.167 41.567,41.557 41.000,41.411 41.000 C 41.364 41.000,41.449 41.188,41.599 41.417 M53.233 61.410 C 53.290 61.635,53.526 62.024,53.757 62.274 C 53.989 62.524,54.141 62.827,54.095 62.947 C 54.048 63.068,54.083 63.167,54.172 63.167 C 54.261 63.167,54.333 63.282,54.333 63.422 C 54.333 63.562,54.441 63.719,54.573 63.769 C 54.705 63.820,54.861 64.080,54.920 64.347 C 54.978 64.615,55.087 64.833,55.162 64.833 C 55.236 64.833,55.343 65.016,55.399 65.238 C 55.455 65.461,55.595 65.742,55.711 65.863 C 55.826 65.984,56.014 66.271,56.127 66.500 C 56.489 67.229,57.368 68.747,57.477 68.833 C 57.629 68.952,58.126 69.836,58.346 70.375 C 58.449 70.627,58.594 70.833,58.670 70.833 C 58.745 70.833,58.857 71.063,58.919 71.345 C 58.981 71.626,59.130 71.894,59.251 71.940 C 59.371 71.986,59.517 72.213,59.575 72.443 C 59.672 72.830,59.775 72.995,60.262 73.547 C 60.360 73.659,60.463 73.825,60.490 73.917 C 60.661 74.490,60.846 74.833,60.983 74.833 C 61.069 74.833,61.190 75.058,61.250 75.333 C 61.310 75.608,61.423 75.833,61.501 75.833 C 61.579 75.833,61.873 76.302,62.155 76.875 C 62.437 77.448,62.761 78.067,62.875 78.250 C 62.990 78.433,63.273 78.883,63.506 79.250 C 63.738 79.617,64.029 80.160,64.151 80.458 C 64.274 80.756,64.440 81.000,64.520 81.000 C 64.601 81.000,64.667 81.081,64.667 81.180 C 64.667 81.278,65.177 82.234,65.801 83.305 C 66.425 84.375,66.985 85.381,67.046 85.542 C 67.107 85.702,67.228 85.833,67.315 85.833 C 67.402 85.833,67.523 86.058,67.583 86.333 C 67.644 86.608,67.747 86.833,67.812 86.833 C 67.877 86.833,68.148 87.265,68.414 87.792 C 68.680 88.319,68.996 88.849,69.116 88.970 C 69.235 89.091,69.333 89.300,69.333 89.434 C 69.333 89.568,69.438 89.717,69.567 89.767 C 69.695 89.816,69.836 89.993,69.880 90.161 C 69.966 90.491,68.905 90.139,68.455 89.688 C 68.351 89.585,68.169 89.500,68.050 89.500 C 67.931 89.500,67.833 89.428,67.833 89.340 C 67.833 89.252,67.533 89.090,67.167 88.980 C 66.800 88.870,66.500 88.723,66.500 88.654 C 66.500 88.584,66.275 88.477,66.000 88.417 C 65.725 88.356,65.500 88.247,65.500 88.174 C 65.500 88.100,65.256 87.942,64.958 87.821 C 64.660 87.701,64.379 87.560,64.333 87.509 C 64.214 87.376,62.762 86.580,61.500 85.955 C 60.904 85.661,60.318 85.325,60.197 85.210 C 60.076 85.095,59.776 84.951,59.530 84.891 C 59.284 84.831,59.046 84.727,59.000 84.660 C 58.885 84.492,57.327 83.621,55.886 82.919 C 55.227 82.599,54.641 82.261,54.584 82.168 C 54.527 82.076,54.335 82.000,54.157 82.000 C 53.979 82.000,53.833 81.930,53.833 81.844 C 53.833 81.758,53.571 81.593,53.250 81.477 C 52.929 81.361,52.667 81.210,52.667 81.141 C 52.667 81.072,52.404 80.966,52.083 80.906 C 51.762 80.845,51.496 80.711,51.491 80.606 C 51.485 80.502,50.850 80.117,50.078 79.750 C 49.307 79.383,48.674 79.034,48.671 78.974 C 48.669 78.914,48.517 78.904,48.335 78.951 C 48.107 79.011,47.850 78.875,47.518 78.519 C 47.251 78.234,46.913 78.000,46.766 78.000 C 46.620 78.000,46.500 77.927,46.500 77.839 C 46.500 77.750,46.387 77.720,46.250 77.773 C 46.112 77.826,46.000 77.778,46.000 77.667 C 46.000 77.555,45.888 77.507,45.750 77.560 C 45.612 77.613,45.500 77.579,45.500 77.485 C 45.500 77.391,45.429 77.358,45.342 77.411 C 44.732 77.788,44.800 76.477,45.443 75.458 C 45.660 75.115,45.794 74.833,45.741 74.833 C 45.688 74.833,45.797 74.619,45.984 74.356 C 46.171 74.094,46.276 73.831,46.217 73.773 C 46.159 73.714,46.199 73.667,46.306 73.667 C 46.413 73.667,46.500 73.548,46.500 73.404 C 46.500 73.259,46.720 72.921,46.990 72.652 C 47.259 72.382,47.531 71.994,47.595 71.789 C 47.659 71.584,47.758 71.379,47.816 71.333 C 47.982 71.201,48.833 69.432,48.833 69.220 C 48.833 69.114,48.890 69.003,48.958 68.972 C 49.107 68.906,50.000 67.093,50.000 66.858 C 50.000 66.768,50.056 66.669,50.125 66.639 C 50.292 66.565,51.167 64.801,51.167 64.539 C 51.167 64.426,51.236 64.333,51.320 64.333 C 51.404 64.333,51.523 64.108,51.583 63.833 C 51.644 63.558,51.755 63.333,51.830 63.333 C 51.906 63.333,52.061 63.090,52.175 62.792 C 52.289 62.494,52.399 62.212,52.419 62.167 C 52.438 62.121,52.556 61.840,52.680 61.542 C 52.951 60.894,53.095 60.859,53.233 61.410 M39.569 69.833 C 39.620 70.063,39.663 70.306,39.664 70.375 C 39.666 70.444,39.742 70.500,39.833 70.500 C 40.084 70.500,40.034 70.106,39.738 69.740 C 39.484 69.428,39.479 69.431,39.569 69.833 " stroke="none" fill="#eb6b42" fill-rule="evenodd"></path><path id="path1" d="M17.301 8.454 C 16.911 8.495,16.712 8.592,16.761 8.718 C 16.815 8.860,16.539 8.911,15.793 8.897 C 15.117 8.884,14.606 8.966,14.342 9.130 C 14.053 9.310,13.915 9.328,13.870 9.192 C 13.796 8.972,12.833 8.926,12.833 9.143 C 12.833 9.222,12.445 9.333,11.971 9.389 C 11.497 9.445,11.048 9.587,10.973 9.704 C 10.868 9.871,10.838 9.871,10.836 9.708 C 10.834 9.594,10.646 9.500,10.417 9.500 C 10.188 9.500,10.000 9.574,10.000 9.663 C 10.000 9.761,9.699 9.786,9.250 9.724 C 8.771 9.659,8.500 9.685,8.500 9.797 C 8.500 9.893,8.181 9.983,7.792 9.996 C 7.402 10.010,6.858 10.047,6.583 10.080 C 6.308 10.113,5.783 10.147,5.417 10.156 C 4.906 10.168,4.808 10.212,5.000 10.343 C 5.207 10.486,5.193 10.509,4.917 10.480 C 4.300 10.415,1.172 10.708,1.244 10.824 C 1.283 10.886,1.019 10.915,0.657 10.886 C 0.061 10.839,-0.000 10.871,-0.000 11.231 C -0.000 11.688,0.401 12.543,0.547 12.397 C 0.601 12.344,0.728 12.607,0.829 12.983 C 0.930 13.359,1.077 13.667,1.155 13.667 C 1.233 13.667,1.345 13.857,1.403 14.090 C 1.462 14.323,1.583 14.469,1.672 14.414 C 1.761 14.359,1.833 14.421,1.833 14.553 C 1.833 14.685,1.941 14.882,2.073 14.992 C 2.205 15.101,2.268 15.310,2.212 15.456 C 2.144 15.632,2.176 15.681,2.305 15.601 C 2.429 15.524,2.500 15.601,2.500 15.812 C 2.500 15.994,2.598 16.242,2.718 16.363 C 2.914 16.562,3.199 17.102,3.236 17.345 C 3.244 17.398,3.381 17.572,3.542 17.732 C 3.702 17.893,3.833 18.122,3.833 18.241 C 3.833 18.361,3.948 18.554,4.087 18.670 C 4.227 18.786,4.306 18.917,4.262 18.961 C 4.218 19.004,4.366 19.311,4.591 19.642 C 4.816 19.973,5.000 20.344,5.000 20.465 C 5.000 20.587,5.075 20.640,5.167 20.583 C 5.258 20.527,5.333 20.635,5.333 20.823 C 5.333 21.017,5.442 21.167,5.583 21.167 C 5.786 21.167,5.936 21.541,5.799 21.708 C 5.726 21.798,6.413 22.833,6.546 22.833 C 6.623 22.833,6.643 22.904,6.590 22.990 C 6.536 23.076,6.596 23.207,6.723 23.281 C 6.849 23.356,7.042 23.691,7.151 24.027 C 7.260 24.363,7.458 24.679,7.591 24.730 C 7.724 24.781,7.833 24.938,7.833 25.078 C 7.833 25.218,7.908 25.333,8.000 25.333 C 8.092 25.333,8.155 25.390,8.140 25.458 C 8.087 25.705,8.503 26.518,8.903 26.950 C 9.128 27.192,9.357 27.572,9.413 27.795 C 9.511 28.187,10.112 29.148,10.383 29.348 C 10.457 29.402,10.529 29.609,10.544 29.807 C 10.559 30.005,10.675 30.167,10.803 30.167 C 10.931 30.167,10.997 30.268,10.950 30.391 C 10.902 30.514,11.000 30.713,11.167 30.833 C 11.333 30.953,11.436 31.139,11.396 31.245 C 11.355 31.351,11.513 31.645,11.747 31.897 C 12.112 32.291,12.265 32.640,12.321 33.208 C 12.328 33.277,12.446 33.333,12.583 33.333 C 12.721 33.333,12.843 33.446,12.854 33.583 C 12.894 34.064,12.918 34.140,13.068 34.278 C 13.157 34.358,13.170 34.329,13.100 34.208 C 13.034 34.094,13.060 34.000,13.157 34.000 C 13.254 34.000,13.333 34.123,13.333 34.273 C 13.333 34.424,13.465 34.647,13.625 34.770 C 13.860 34.950,13.873 35.022,13.694 35.140 C 13.512 35.261,13.515 35.303,13.712 35.379 C 13.844 35.430,14.001 35.715,14.061 36.012 C 14.120 36.310,14.212 36.510,14.265 36.457 C 14.400 36.322,15.017 36.969,14.986 37.214 C 14.933 37.632,15.005 37.850,15.165 37.751 C 15.259 37.693,15.287 37.760,15.230 37.908 C 15.168 38.071,15.223 38.167,15.380 38.167 C 15.533 38.167,15.672 38.391,15.738 38.742 C 15.815 39.156,15.914 39.292,16.089 39.225 C 16.257 39.160,16.333 39.243,16.333 39.487 C 16.333 39.683,16.452 39.889,16.597 39.945 C 16.761 40.008,16.828 40.169,16.774 40.375 C 16.714 40.604,16.786 40.729,17.011 40.788 C 17.188 40.834,17.333 40.980,17.333 41.113 C 17.333 41.252,17.252 41.303,17.141 41.234 C 17.022 41.160,16.994 41.188,17.067 41.308 C 17.133 41.413,17.299 41.500,17.436 41.500 C 17.574 41.500,17.640 41.576,17.582 41.668 C 17.394 41.973,17.663 42.491,17.952 42.380 C 18.160 42.300,18.200 42.356,18.129 42.626 C 18.066 42.867,18.104 42.950,18.252 42.893 C 18.522 42.789,18.734 43.105,18.495 43.253 C 18.318 43.362,18.576 43.833,18.812 43.833 C 18.870 43.833,18.896 41.683,18.870 39.055 C 18.833 35.312,18.869 34.247,19.037 34.141 C 19.196 34.040,19.138 33.909,18.808 33.623 C 18.565 33.412,18.340 33.054,18.308 32.828 C 18.270 32.558,18.127 32.399,17.893 32.366 C 17.632 32.329,17.559 32.228,17.620 31.993 C 17.673 31.792,17.603 31.632,17.436 31.568 C 17.288 31.511,17.167 31.355,17.167 31.222 C 17.167 31.089,17.242 31.027,17.333 31.083 C 17.425 31.140,17.500 31.107,17.500 31.010 C 17.500 30.913,17.425 30.824,17.333 30.813 C 17.242 30.801,17.073 30.780,16.958 30.766 C 16.844 30.752,16.768 30.574,16.790 30.371 C 16.812 30.167,16.755 30.000,16.665 30.000 C 16.574 30.000,16.500 29.897,16.500 29.770 C 16.500 29.644,16.387 29.447,16.250 29.333 C 16.112 29.219,16.000 28.987,16.000 28.818 C 16.000 28.613,15.917 28.542,15.750 28.606 C 15.575 28.673,15.500 28.594,15.500 28.341 C 15.500 28.111,15.570 28.023,15.692 28.099 C 15.812 28.173,15.840 28.145,15.766 28.026 C 15.701 27.920,15.534 27.833,15.397 27.833 C 15.259 27.833,15.189 27.765,15.241 27.682 C 15.384 27.449,15.155 26.988,14.957 27.110 C 14.859 27.171,14.831 27.139,14.894 27.037 C 14.955 26.938,14.928 26.809,14.833 26.750 C 14.739 26.691,14.707 26.569,14.764 26.477 C 14.821 26.386,14.709 26.270,14.517 26.219 C 14.259 26.152,14.163 25.990,14.154 25.606 C 14.146 25.318,14.102 25.178,14.056 25.293 C 13.940 25.581,13.667 25.382,13.667 25.008 C 13.667 24.840,13.554 24.659,13.417 24.606 C 13.279 24.554,13.167 24.391,13.167 24.245 C 13.167 24.088,13.251 24.023,13.375 24.086 C 13.490 24.144,13.463 24.092,13.317 23.971 C 13.170 23.849,13.040 23.675,13.026 23.583 C 13.013 23.492,12.897 23.293,12.768 23.143 C 12.639 22.992,12.484 22.711,12.422 22.518 C 12.361 22.325,12.241 22.167,12.155 22.167 C 12.070 22.167,12.000 22.058,12.000 21.925 C 12.000 21.452,11.618 20.809,11.474 21.037 C 11.386 21.175,11.338 21.086,11.336 20.782 C 11.334 20.452,11.272 20.351,11.125 20.439 C 10.983 20.524,10.990 20.474,11.145 20.282 C 11.387 19.984,11.586 19.893,11.425 20.153 C 11.373 20.237,11.550 20.354,11.818 20.413 C 12.086 20.472,12.344 20.621,12.391 20.744 C 12.439 20.868,12.708 21.019,12.989 21.081 C 13.270 21.143,13.500 21.260,13.500 21.341 C 13.500 21.423,13.625 21.442,13.777 21.383 C 13.964 21.312,14.015 21.341,13.934 21.472 C 13.868 21.579,13.874 21.673,13.948 21.681 C 14.023 21.688,14.259 21.714,14.474 21.737 C 14.688 21.761,14.929 21.885,15.008 22.013 C 15.088 22.142,15.250 22.255,15.368 22.265 C 15.486 22.275,15.715 22.294,15.875 22.308 C 16.035 22.322,16.167 22.441,16.167 22.573 C 16.167 22.901,16.385 23.011,17.194 23.092 C 17.917 23.164,18.227 23.328,17.875 23.453 C 17.760 23.494,17.667 23.599,17.667 23.687 C 17.667 23.891,18.542 23.804,18.711 23.583 C 18.960 23.258,18.817 18.017,18.562 18.115 C 18.427 18.167,18.333 18.093,18.333 17.934 C 18.333 17.639,17.914 17.568,17.748 17.836 C 17.599 18.077,17.293 17.846,17.398 17.572 C 17.446 17.447,17.402 17.293,17.300 17.230 C 17.182 17.156,17.159 17.199,17.237 17.349 C 17.303 17.478,17.243 17.442,17.103 17.270 C 16.936 17.065,16.725 16.990,16.489 17.051 C 16.228 17.120,16.107 17.058,16.046 16.825 C 15.964 16.509,15.024 15.920,14.862 16.083 C 14.816 16.129,14.870 16.167,14.982 16.167 C 15.094 16.167,15.138 16.244,15.080 16.339 C 15.017 16.440,14.840 16.341,14.650 16.100 C 14.472 15.873,14.121 15.665,13.871 15.636 C 13.621 15.607,13.425 15.508,13.436 15.417 C 13.462 15.190,12.870 14.791,12.681 14.908 C 12.598 14.959,12.549 14.870,12.574 14.709 C 12.604 14.508,12.737 14.434,12.999 14.473 C 13.208 14.504,13.443 14.429,13.520 14.306 C 13.626 14.140,13.662 14.136,13.664 14.292 C 13.666 14.406,13.817 14.500,14.000 14.500 C 14.183 14.500,14.333 14.421,14.333 14.323 C 14.333 14.226,14.402 14.190,14.487 14.242 C 14.571 14.294,14.758 14.218,14.903 14.073 C 15.048 13.928,15.167 13.890,15.167 13.988 C 15.167 14.086,15.279 14.167,15.417 14.167 C 15.554 14.167,15.667 14.100,15.667 14.019 C 15.667 13.938,15.888 13.839,16.158 13.799 C 16.428 13.759,16.611 13.788,16.565 13.863 C 16.518 13.939,16.714 14.000,17.000 14.000 C 17.304 14.000,17.477 13.931,17.417 13.833 C 17.360 13.742,17.453 13.667,17.623 13.667 C 17.794 13.667,18.034 13.573,18.158 13.458 C 18.337 13.292,18.359 13.292,18.265 13.458 C 18.192 13.588,18.249 13.667,18.417 13.667 C 18.565 13.667,18.640 13.592,18.583 13.500 C 18.527 13.408,18.560 13.333,18.657 13.333 C 18.890 13.333,18.900 8.561,18.667 8.417 C 18.575 8.360,18.500 8.424,18.500 8.558 C 18.500 8.720,18.388 8.773,18.169 8.715 C 17.986 8.668,17.878 8.562,17.928 8.481 C 17.979 8.400,17.996 8.346,17.968 8.361 C 17.940 8.377,17.639 8.419,17.301 8.454 M18.946 18.285 C 18.896 18.366,18.916 18.531,18.990 18.651 C 19.093 18.817,19.155 18.821,19.248 18.670 C 19.316 18.560,19.296 18.396,19.204 18.304 C 19.111 18.211,18.997 18.203,18.946 18.285 M19.439 18.751 C 19.381 18.902,19.440 19.000,19.589 19.000 C 19.858 19.000,19.919 18.740,19.684 18.594 C 19.602 18.543,19.492 18.614,19.439 18.751 M20.437 19.300 C 20.369 19.410,20.337 19.500,20.366 19.500 C 20.395 19.500,20.657 19.568,20.949 19.652 C 21.388 19.778,21.462 19.762,21.383 19.555 C 21.328 19.413,21.158 19.340,20.985 19.386 C 20.819 19.429,20.655 19.383,20.622 19.282 C 20.580 19.157,20.522 19.162,20.437 19.300 M18.833 24.003 C 18.611 24.148,18.611 24.185,18.833 24.335 C 19.196 24.579,19.831 24.725,19.961 24.594 C 20.134 24.422,19.622 24.153,19.279 24.236 C 19.067 24.287,19.002 24.236,19.065 24.071 C 19.172 23.791,19.161 23.788,18.833 24.003 M21.014 25.325 C 20.843 25.430,20.877 25.492,21.157 25.580 C 21.603 25.722,21.755 25.614,21.457 25.367 C 21.332 25.263,21.143 25.245,21.014 25.325 M19.579 35.220 C 19.510 35.389,19.538 35.604,19.642 35.708 C 19.923 35.990,20.076 35.720,19.877 35.293 C 19.716 34.948,19.692 34.942,19.579 35.220 M20.443 36.907 C 20.327 37.210,20.523 37.358,20.808 37.183 C 20.970 37.082,20.964 37.011,20.777 36.856 C 20.590 36.700,20.519 36.711,20.443 36.907 M21.422 38.382 C 21.351 38.547,21.339 38.728,21.396 38.785 C 21.565 38.954,21.702 38.716,21.624 38.388 C 21.555 38.097,21.546 38.097,21.422 38.382 M21.942 39.244 C 21.829 39.538,22.214 39.986,22.583 39.992 C 22.675 39.994,22.660 39.938,22.550 39.868 C 22.440 39.798,22.284 39.562,22.203 39.344 C 22.073 38.992,22.043 38.981,21.942 39.244 M19.271 44.967 C 19.225 45.040,19.333 45.191,19.511 45.301 C 19.861 45.520,19.886 45.497,19.732 45.097 C 19.623 44.813,19.404 44.751,19.271 44.967 M20.357 46.651 C 20.190 46.755,20.182 46.823,20.327 46.913 C 20.555 47.054,20.727 46.929,20.642 46.682 C 20.608 46.582,20.490 46.569,20.357 46.651 M21.167 48.500 C 21.167 48.592,21.227 48.667,21.301 48.667 C 21.375 48.667,21.520 48.873,21.623 49.125 L 21.811 49.583 21.716 49.083 C 21.583 48.388,21.167 47.945,21.167 48.500 " stroke="none" fill="#dc305c" fill-rule="evenodd"></path><path id="path2" d="M208.919 37.280 C 208.553 37.323,208.175 37.424,208.077 37.505 C 207.980 37.586,207.585 37.702,207.200 37.764 C 206.815 37.826,206.500 37.926,206.500 37.987 C 206.500 38.048,206.162 38.188,205.750 38.298 C 205.338 38.408,205.000 38.574,205.000 38.666 C 205.000 38.758,204.903 38.833,204.784 38.833 C 204.500 38.833,203.978 39.240,203.026 40.200 C 201.967 41.270,201.863 41.408,201.739 41.902 C 201.679 42.139,201.569 42.333,201.494 42.333 C 201.004 42.333,200.828 47.808,201.299 48.375 C 201.408 48.506,201.448 48.663,201.387 48.724 C 201.327 48.784,201.359 48.833,201.459 48.833 C 201.559 48.833,201.690 49.058,201.750 49.333 C 201.810 49.608,201.919 49.833,201.992 49.833 C 202.064 49.833,202.302 50.095,202.520 50.416 C 202.738 50.736,202.994 50.998,203.088 50.999 C 203.182 50.999,203.383 51.131,203.535 51.292 C 204.012 51.798,204.326 52.015,204.837 52.193 C 205.110 52.288,205.333 52.428,205.333 52.503 C 205.333 52.578,205.577 52.692,205.875 52.756 C 206.173 52.820,206.492 52.930,206.583 53.001 C 206.675 53.072,207.181 53.225,207.708 53.341 C 208.235 53.458,208.667 53.609,208.667 53.678 C 208.667 53.746,209.042 53.854,209.500 53.917 C 209.958 53.980,210.333 54.092,210.333 54.167 C 210.333 54.241,210.708 54.354,211.167 54.417 C 211.625 54.480,212.000 54.585,212.000 54.651 C 212.000 54.717,212.392 54.871,212.870 54.993 C 213.349 55.116,213.832 55.299,213.943 55.400 C 214.055 55.501,214.409 55.771,214.729 56.000 C 216.966 57.600,214.777 60.480,211.599 60.118 C 210.292 59.970,208.000 59.456,208.000 59.312 C 208.000 59.232,207.892 59.167,207.761 59.167 C 207.629 59.167,207.311 59.080,207.053 58.973 C 206.794 58.867,206.527 58.792,206.458 58.806 C 206.390 58.821,206.333 58.764,206.333 58.680 C 206.333 58.596,206.108 58.477,205.833 58.417 C 205.558 58.356,205.333 58.239,205.333 58.157 C 205.333 58.074,205.146 57.959,204.917 57.902 C 204.688 57.844,204.500 57.742,204.500 57.675 C 204.500 57.608,204.310 57.467,204.077 57.361 C 203.844 57.255,203.563 57.091,203.452 56.997 C 201.979 55.753,201.826 55.733,201.348 56.719 C 201.157 57.115,201.000 57.521,201.000 57.622 C 201.000 57.723,200.944 57.831,200.875 57.861 C 200.713 57.933,199.833 59.695,199.833 59.947 C 199.833 60.052,199.757 60.164,199.663 60.196 C 198.951 60.433,199.706 62.500,200.505 62.500 C 200.566 62.500,200.789 62.650,201.000 62.833 C 201.211 63.017,201.485 63.167,201.609 63.167 C 201.732 63.167,201.833 63.223,201.833 63.293 C 201.833 63.362,202.227 63.591,202.708 63.802 C 203.190 64.013,203.884 64.328,204.251 64.501 C 204.619 64.675,205.238 64.867,205.626 64.930 C 206.015 64.992,206.333 65.099,206.333 65.169 C 206.333 65.238,206.765 65.348,207.292 65.414 C 207.819 65.479,208.353 65.617,208.479 65.720 C 208.787 65.973,214.803 65.982,214.967 65.730 C 215.031 65.632,215.458 65.501,215.917 65.440 C 216.375 65.379,216.775 65.255,216.806 65.164 C 216.836 65.074,216.981 65.000,217.127 65.000 C 217.498 65.000,218.500 64.624,218.500 64.485 C 218.500 64.421,218.689 64.322,218.921 64.264 C 219.152 64.206,219.477 64.029,219.642 63.871 C 219.807 63.713,220.255 63.326,220.637 63.012 C 221.020 62.698,221.333 62.350,221.333 62.238 C 221.333 62.127,221.439 61.995,221.568 61.946 C 221.696 61.896,221.852 61.626,221.914 61.345 C 221.976 61.063,222.090 60.833,222.167 60.833 C 222.244 60.833,222.359 60.590,222.423 60.292 C 222.486 59.994,222.620 59.649,222.720 59.525 C 222.965 59.221,222.961 55.439,222.716 55.141 C 222.613 55.018,222.477 54.635,222.413 54.292 C 222.349 53.948,222.237 53.667,222.164 53.667 C 222.092 53.667,221.954 53.442,221.858 53.167 C 221.762 52.892,221.609 52.667,221.518 52.667 C 221.427 52.667,221.219 52.442,221.057 52.167 C 220.894 51.892,220.668 51.667,220.553 51.667 C 220.439 51.667,220.265 51.517,220.167 51.333 C 220.069 51.150,219.884 51.000,219.756 51.000 C 219.628 51.000,219.425 50.903,219.304 50.785 C 218.970 50.460,217.804 49.890,217.202 49.758 C 216.907 49.693,216.667 49.576,216.667 49.497 C 216.667 49.418,216.329 49.303,215.917 49.241 C 215.504 49.179,215.167 49.074,215.167 49.008 C 215.167 48.941,214.642 48.788,214.000 48.667 C 213.358 48.546,212.833 48.388,212.833 48.317 C 212.833 48.245,212.495 48.136,212.081 48.074 C 211.668 48.012,211.289 47.897,211.241 47.819 C 211.192 47.740,210.844 47.593,210.468 47.491 C 210.091 47.390,209.677 47.200,209.546 47.070 C 209.416 46.940,209.215 46.833,209.100 46.833 C 208.984 46.833,208.783 46.627,208.653 46.375 C 208.524 46.123,208.351 45.868,208.269 45.809 C 207.606 45.329,208.473 43.597,209.477 43.396 C 209.765 43.339,210.000 43.226,210.000 43.146 C 210.000 42.957,212.785 42.954,212.902 43.143 C 212.951 43.222,213.555 43.377,214.245 43.488 C 214.935 43.600,215.500 43.760,215.500 43.845 C 215.500 43.930,215.631 44.000,215.792 44.001 C 215.952 44.002,216.282 44.106,216.526 44.233 C 216.769 44.360,217.256 44.558,217.609 44.673 C 217.961 44.788,218.288 44.927,218.334 44.982 C 218.780 45.519,220.333 45.997,220.333 45.597 C 220.333 45.467,220.390 45.336,220.458 45.306 C 220.527 45.275,220.710 44.987,220.864 44.667 C 221.573 43.194,222.000 42.202,222.000 42.026 C 222.000 41.920,222.075 41.833,222.167 41.833 C 222.258 41.833,222.334 41.740,222.334 41.625 C 222.335 41.510,222.453 41.192,222.597 40.917 C 222.891 40.354,222.314 39.657,221.357 39.417 C 221.117 39.356,220.882 39.249,220.835 39.179 C 220.703 38.980,218.569 38.167,218.180 38.167 C 217.989 38.167,217.833 38.099,217.833 38.016 C 217.833 37.933,217.440 37.812,216.958 37.747 C 216.477 37.682,215.985 37.550,215.865 37.453 C 215.640 37.270,210.158 37.134,208.919 37.280 M145.883 37.466 C 145.665 37.604,145.923 39.000,146.166 39.000 C 146.235 39.000,146.337 39.225,146.392 39.500 C 146.447 39.775,146.644 40.333,146.829 40.741 C 147.015 41.148,147.167 41.552,147.167 41.638 C 147.167 41.725,147.279 42.010,147.416 42.273 C 147.553 42.535,147.665 42.881,147.666 43.042 C 147.666 43.202,147.732 43.333,147.813 43.333 C 147.893 43.333,148.003 43.558,148.058 43.833 C 148.113 44.108,148.310 44.667,148.496 45.074 C 148.681 45.482,148.833 45.932,148.833 46.074 C 148.833 46.217,148.901 46.333,148.983 46.333 C 149.066 46.333,149.223 46.708,149.333 47.167 C 149.443 47.625,149.601 48.000,149.683 48.000 C 149.766 48.000,149.833 48.117,149.833 48.259 C 149.833 48.402,149.975 48.833,150.148 49.217 C 150.321 49.602,150.514 50.160,150.578 50.458 C 150.641 50.756,150.754 51.000,150.828 51.000 C 150.902 51.000,151.012 51.262,151.072 51.583 C 151.133 51.904,151.253 52.167,151.341 52.167 C 151.428 52.167,151.500 52.274,151.500 52.406 C 151.500 52.537,151.587 52.856,151.694 53.114 C 151.801 53.372,151.901 53.621,151.917 53.667 C 151.932 53.712,152.032 53.961,152.139 54.219 C 152.246 54.477,152.333 54.796,152.333 54.928 C 152.333 55.059,152.402 55.167,152.487 55.167 C 152.571 55.167,152.692 55.410,152.756 55.708 C 152.819 56.006,153.013 56.565,153.186 56.949 C 153.358 57.334,153.500 57.765,153.500 57.908 C 153.500 58.050,153.569 58.167,153.653 58.167 C 153.738 58.167,153.860 58.410,153.925 58.708 C 153.990 59.006,154.146 59.398,154.271 59.579 C 154.397 59.760,154.500 60.062,154.500 60.250 C 154.500 60.438,154.603 60.740,154.729 60.921 C 154.854 61.102,155.010 61.494,155.075 61.792 C 155.140 62.090,155.250 62.333,155.320 62.333 C 155.390 62.333,155.546 62.746,155.667 63.250 C 155.788 63.754,155.941 64.167,156.008 64.167 C 156.075 64.167,156.179 64.429,156.239 64.750 C 156.299 65.071,156.420 65.333,156.508 65.333 C 156.595 65.333,156.667 65.446,156.667 65.583 C 156.667 65.798,157.167 65.833,160.167 65.833 C 162.510 65.833,163.667 65.775,163.667 65.658 C 163.667 65.561,163.808 65.167,163.981 64.783 C 164.154 64.398,164.348 63.840,164.411 63.542 C 164.475 63.244,164.596 63.000,164.680 63.000 C 164.764 63.000,164.833 62.883,164.833 62.741 C 164.833 62.598,164.985 62.148,165.171 61.741 C 165.356 61.333,165.557 60.757,165.617 60.459 C 165.676 60.162,165.824 59.819,165.946 59.697 C 166.067 59.576,166.167 59.326,166.167 59.143 C 166.167 58.960,166.279 58.697,166.417 58.560 C 166.554 58.422,166.667 58.127,166.667 57.905 C 166.667 57.682,166.733 57.500,166.814 57.500 C 166.894 57.500,167.044 57.167,167.147 56.760 C 167.249 56.353,167.408 55.973,167.500 55.917 C 167.592 55.860,167.667 55.701,167.667 55.564 C 167.667 55.427,167.819 54.982,168.004 54.574 C 168.190 54.167,168.387 53.608,168.442 53.333 C 168.497 53.058,168.604 52.833,168.680 52.833 C 168.756 52.833,168.867 52.571,168.928 52.250 C 168.988 51.929,169.096 51.667,169.169 51.667 C 169.241 51.667,169.390 51.292,169.500 50.833 C 169.610 50.375,169.767 50.000,169.850 50.000 C 169.932 50.000,170.000 49.883,170.000 49.741 C 170.000 49.598,170.152 49.148,170.338 48.741 C 170.523 48.333,170.720 47.775,170.775 47.500 C 170.830 47.225,170.937 47.000,171.013 47.000 C 171.089 47.000,171.201 46.737,171.261 46.417 C 171.321 46.096,171.428 45.833,171.498 45.833 C 171.568 45.833,171.670 45.608,171.725 45.333 C 171.815 44.882,172.035 44.330,172.762 42.725 C 172.893 42.436,173.000 42.084,173.000 41.943 C 173.000 41.802,173.075 41.640,173.167 41.583 C 173.258 41.527,173.417 41.147,173.520 40.740 C 173.622 40.333,173.772 40.000,173.853 40.000 C 173.934 40.000,174.003 39.869,174.006 39.708 C 174.009 39.548,174.156 39.117,174.333 38.750 C 175.028 37.311,175.138 37.360,171.167 37.340 L 167.667 37.322 167.667 37.744 C 167.667 37.977,167.597 38.167,167.512 38.167 C 167.427 38.167,167.265 38.579,167.152 39.083 C 167.039 39.587,166.887 40.000,166.814 40.000 C 166.741 40.000,166.633 40.262,166.572 40.583 C 166.512 40.904,166.405 41.167,166.333 41.167 C 166.262 41.167,166.151 41.445,166.088 41.786 C 166.024 42.126,165.872 42.598,165.750 42.833 C 165.628 43.069,165.476 43.540,165.412 43.881 C 165.349 44.221,165.230 44.500,165.148 44.500 C 165.067 44.500,165.000 44.617,165.000 44.759 C 165.000 44.902,164.857 45.333,164.682 45.717 C 164.507 46.102,164.311 46.698,164.247 47.042 C 164.182 47.385,164.063 47.667,163.981 47.667 C 163.900 47.667,163.833 47.798,163.832 47.958 C 163.832 48.119,163.726 48.451,163.598 48.697 C 163.470 48.943,163.312 49.393,163.247 49.697 C 163.182 50.001,162.987 50.565,162.814 50.949 C 162.642 51.334,162.500 51.765,162.500 51.908 C 162.500 52.050,162.437 52.167,162.360 52.167 C 162.283 52.167,162.128 52.578,162.015 53.080 C 161.903 53.583,161.747 54.033,161.670 54.081 C 161.592 54.129,161.478 54.468,161.417 54.834 C 161.355 55.200,161.243 55.500,161.169 55.500 C 161.094 55.500,160.939 55.892,160.824 56.371 C 160.613 57.253,160.167 57.970,160.167 57.429 C 160.167 57.285,160.100 57.167,160.019 57.167 C 159.938 57.167,159.821 56.829,159.759 56.417 C 159.697 56.004,159.588 55.667,159.516 55.667 C 159.445 55.667,159.288 55.254,159.167 54.750 C 159.046 54.246,158.890 53.833,158.821 53.833 C 158.752 53.833,158.645 53.533,158.583 53.167 C 158.521 52.800,158.413 52.500,158.341 52.500 C 158.270 52.500,158.117 52.050,158.000 51.500 C 157.883 50.950,157.730 50.500,157.659 50.500 C 157.587 50.500,157.479 50.200,157.417 49.833 C 157.355 49.467,157.241 49.167,157.164 49.167 C 157.087 49.167,156.932 48.754,156.819 48.250 C 156.706 47.746,156.551 47.333,156.473 47.333 C 156.396 47.333,156.333 47.202,156.332 47.042 C 156.332 46.881,156.226 46.549,156.098 46.303 C 155.970 46.057,155.812 45.607,155.747 45.303 C 155.682 44.999,155.487 44.435,155.314 44.051 C 155.142 43.666,155.000 43.235,155.000 43.092 C 155.000 42.950,154.937 42.833,154.860 42.833 C 154.783 42.833,154.628 42.422,154.515 41.920 C 154.403 41.417,154.247 40.967,154.170 40.919 C 154.092 40.871,153.978 40.532,153.917 40.166 C 153.855 39.800,153.736 39.500,153.652 39.500 C 153.568 39.500,153.500 39.388,153.500 39.252 C 153.500 39.115,153.336 38.627,153.135 38.168 L 152.771 37.333 149.427 37.336 C 147.588 37.337,145.993 37.396,145.883 37.466 M183.167 51.578 L 183.167 65.833 186.500 65.833 L 189.833 65.833 189.833 51.596 L 189.833 37.359 186.500 37.340 L 183.167 37.322 183.167 51.578 M232.444 37.444 C 232.280 37.609,232.310 54.799,232.475 54.901 C 232.553 54.949,232.663 55.599,232.721 56.344 C 232.778 57.090,232.934 57.917,233.066 58.182 C 233.198 58.447,233.356 58.889,233.416 59.165 C 233.477 59.441,233.587 59.667,233.662 59.667 C 233.736 59.667,233.847 59.863,233.907 60.103 C 233.967 60.344,234.107 60.642,234.217 60.766 C 234.327 60.890,234.567 61.186,234.750 61.423 C 235.485 62.373,236.215 63.167,236.353 63.167 C 236.434 63.167,236.641 63.298,236.814 63.458 C 237.317 63.927,237.890 64.333,238.046 64.333 C 238.125 64.333,238.303 64.446,238.440 64.583 C 238.578 64.721,238.856 64.833,239.058 64.833 C 239.260 64.833,239.578 64.940,239.763 65.070 C 239.949 65.199,240.397 65.359,240.759 65.425 C 241.120 65.490,241.522 65.627,241.651 65.730 C 241.975 65.988,248.799 65.990,248.964 65.731 C 249.030 65.630,249.438 65.494,249.871 65.430 C 250.304 65.366,250.696 65.254,250.742 65.180 C 250.787 65.106,251.164 64.951,251.579 64.835 C 251.994 64.718,252.333 64.558,252.333 64.478 C 252.333 64.399,252.434 64.333,252.558 64.333 C 252.681 64.333,252.955 64.183,253.167 64.000 C 253.378 63.817,253.610 63.667,253.682 63.667 C 253.830 63.667,255.833 61.762,255.833 61.621 C 255.833 61.571,256.096 61.131,256.416 60.644 C 256.737 60.158,257.045 59.514,257.101 59.213 C 257.158 58.913,257.266 58.667,257.342 58.667 C 257.418 58.667,257.532 58.310,257.596 57.875 C 257.660 57.440,257.796 57.030,257.898 56.965 C 258.029 56.880,258.099 54.008,258.136 47.084 L 258.188 37.322 254.769 37.340 L 251.349 37.358 251.300 46.570 C 251.264 53.184,251.196 55.848,251.059 56.016 C 250.954 56.145,250.774 56.566,250.659 56.953 C 250.544 57.339,250.387 57.616,250.309 57.568 C 250.231 57.520,250.167 57.557,250.167 57.651 C 250.167 57.894,248.809 59.167,248.550 59.167 C 248.431 59.167,248.333 59.236,248.333 59.320 C 248.333 59.809,245.348 60.174,243.917 59.860 C 242.511 59.552,240.333 58.130,240.333 57.520 C 240.333 57.440,240.226 57.285,240.094 57.176 C 239.962 57.066,239.803 56.738,239.740 56.447 C 239.677 56.155,239.540 55.863,239.437 55.798 C 239.303 55.713,239.235 53.065,239.198 46.506 L 239.146 37.333 235.851 37.333 C 234.038 37.333,232.506 37.383,232.444 37.444 M274.537 37.708 C 274.074 38.644,273.650 39.709,273.558 40.167 C 273.503 40.442,273.396 40.667,273.320 40.667 C 273.244 40.667,273.133 40.929,273.072 41.250 C 273.012 41.571,272.906 41.833,272.836 41.833 C 272.766 41.833,272.662 42.064,272.606 42.347 C 272.549 42.629,272.395 43.098,272.264 43.388 C 271.517 45.035,271.333 45.514,271.333 45.812 C 271.333 45.994,271.221 46.255,271.083 46.393 C 270.946 46.530,270.833 46.768,270.833 46.921 C 270.833 47.074,270.730 47.398,270.605 47.641 C 270.157 48.507,269.820 49.376,269.902 49.457 C 269.947 49.503,269.875 49.649,269.742 49.782 C 269.609 49.915,269.500 50.206,269.500 50.429 C 269.500 50.651,269.428 50.833,269.341 50.833 C 269.253 50.833,269.133 51.096,269.072 51.417 C 269.012 51.737,268.892 52.000,268.805 52.000 C 268.718 52.000,268.690 52.070,268.743 52.155 C 268.796 52.240,268.771 52.352,268.688 52.403 C 268.606 52.454,268.488 52.760,268.428 53.081 C 268.368 53.403,268.255 53.667,268.178 53.667 C 268.100 53.667,267.988 53.929,267.928 54.250 C 267.867 54.571,267.759 54.833,267.686 54.833 C 267.613 54.833,267.454 55.246,267.333 55.750 C 267.212 56.254,267.054 56.667,266.981 56.667 C 266.908 56.667,266.799 56.929,266.739 57.250 C 266.679 57.571,266.570 57.833,266.498 57.833 C 266.426 57.833,266.277 58.208,266.167 58.667 C 266.057 59.125,265.899 59.500,265.817 59.500 C 265.734 59.500,265.667 59.617,265.667 59.759 C 265.667 59.902,265.515 60.352,265.329 60.759 C 265.144 61.167,264.947 61.725,264.892 62.000 C 264.837 62.275,264.729 62.500,264.653 62.500 C 264.577 62.500,264.466 62.762,264.406 63.083 C 264.345 63.404,264.230 63.667,264.148 63.667 C 264.067 63.667,264.000 63.787,264.000 63.933 C 264.000 64.080,263.879 64.454,263.732 64.765 C 263.232 65.817,263.282 65.834,266.953 65.831 C 270.615 65.828,270.589 65.834,270.753 64.958 C 270.818 64.614,270.925 64.333,270.992 64.333 C 271.059 64.333,271.212 63.921,271.333 63.417 C 271.454 62.913,271.610 62.500,271.679 62.500 C 271.748 62.500,271.855 62.200,271.917 61.834 C 271.978 61.468,272.092 61.129,272.170 61.081 C 272.247 61.033,272.403 60.583,272.515 60.080 C 272.628 59.578,272.783 59.167,272.860 59.167 C 272.937 59.167,273.000 59.050,273.000 58.908 C 273.000 58.765,273.143 58.334,273.318 57.949 C 273.493 57.565,273.689 56.969,273.753 56.625 C 273.818 56.281,273.930 56.000,274.004 56.000 C 274.077 56.000,274.188 55.700,274.250 55.333 C 274.312 54.967,274.419 54.667,274.488 54.667 C 274.557 54.667,274.706 54.254,274.819 53.750 C 274.932 53.246,275.087 52.833,275.164 52.833 C 275.241 52.833,275.355 52.533,275.417 52.167 C 275.479 51.800,275.584 51.500,275.650 51.500 C 275.716 51.500,275.869 51.106,275.990 50.625 C 276.111 50.144,276.268 49.675,276.340 49.583 C 276.412 49.492,276.523 49.135,276.587 48.792 C 276.651 48.448,276.764 48.167,276.839 48.167 C 276.913 48.167,277.026 47.923,277.089 47.625 C 277.153 47.327,277.265 47.008,277.338 46.917 C 277.410 46.825,277.534 46.502,277.612 46.198 C 277.801 45.467,278.049 45.500,278.232 46.282 C 278.314 46.631,278.435 46.954,278.500 47.000 C 278.566 47.046,278.719 47.477,278.841 47.958 C 278.963 48.440,279.124 48.833,279.198 48.833 C 279.273 48.833,279.334 48.965,279.334 49.125 C 279.335 49.285,279.434 49.606,279.555 49.838 C 279.676 50.070,279.869 50.631,279.983 51.086 C 280.098 51.540,280.252 51.988,280.326 52.081 C 280.401 52.174,280.514 52.494,280.577 52.792 C 280.641 53.090,280.754 53.333,280.828 53.333 C 280.902 53.333,281.015 53.615,281.080 53.958 C 281.144 54.302,281.284 54.689,281.390 54.817 C 281.496 54.946,281.565 55.077,281.542 55.109 C 281.463 55.219,281.903 56.667,282.016 56.667 C 282.078 56.667,282.181 56.948,282.244 57.292 C 282.307 57.635,282.459 58.074,282.584 58.267 C 282.708 58.460,282.860 58.891,282.923 59.226 C 282.986 59.560,283.097 59.833,283.171 59.833 C 283.244 59.833,283.355 60.133,283.417 60.500 C 283.479 60.867,283.587 61.167,283.659 61.167 C 283.730 61.167,283.883 61.617,284.000 62.167 C 284.117 62.717,284.269 63.167,284.338 63.167 C 284.406 63.167,284.512 63.429,284.572 63.750 C 284.633 64.071,284.743 64.333,284.817 64.333 C 284.892 64.333,285.020 64.652,285.102 65.042 L 285.251 65.750 288.876 65.795 L 292.500 65.840 292.500 65.337 C 292.500 65.060,292.433 64.833,292.352 64.833 C 292.270 64.833,292.155 64.571,292.094 64.250 C 292.034 63.929,291.925 63.667,291.852 63.667 C 291.780 63.667,291.621 63.254,291.500 62.750 C 291.379 62.246,291.225 61.833,291.159 61.833 C 291.092 61.833,290.988 61.571,290.928 61.250 C 290.867 60.929,290.756 60.667,290.680 60.667 C 290.604 60.667,290.497 60.442,290.442 60.167 C 290.387 59.892,290.190 59.333,290.004 58.926 C 289.819 58.518,289.667 58.112,289.667 58.023 C 289.667 57.933,289.541 57.611,289.388 57.305 C 289.234 57.000,289.009 56.551,288.888 56.308 C 288.766 56.064,288.667 55.722,288.667 55.548 C 288.667 55.373,288.557 55.085,288.422 54.907 C 288.287 54.729,288.175 54.485,288.172 54.366 C 288.169 54.246,288.025 53.834,287.852 53.449 C 287.679 53.065,287.486 52.506,287.422 52.208 C 287.359 51.910,287.246 51.667,287.172 51.667 C 287.098 51.667,286.988 51.404,286.928 51.083 C 286.867 50.762,286.756 50.500,286.680 50.500 C 286.604 50.500,286.497 50.275,286.442 50.000 C 286.387 49.725,286.190 49.167,286.004 48.759 C 285.819 48.352,285.667 47.902,285.667 47.759 C 285.667 47.617,285.601 47.500,285.521 47.500 C 285.441 47.500,285.330 47.275,285.275 47.000 C 285.220 46.725,285.023 46.167,284.838 45.759 C 284.652 45.352,284.500 44.902,284.500 44.759 C 284.500 44.617,284.432 44.500,284.350 44.500 C 284.267 44.500,284.110 44.125,284.000 43.667 C 283.890 43.208,283.741 42.833,283.669 42.833 C 283.596 42.833,283.488 42.571,283.428 42.250 C 283.367 41.929,283.247 41.667,283.159 41.667 C 283.072 41.667,282.997 41.535,282.994 41.375 C 282.991 41.215,282.844 40.783,282.667 40.417 C 282.490 40.050,282.342 39.649,282.339 39.525 C 282.336 39.402,282.231 39.064,282.107 38.775 C 281.982 38.486,281.796 38.044,281.694 37.792 L 281.507 37.333 278.115 37.333 C 274.764 37.333,274.721 37.338,274.537 37.708 M299.500 51.583 L 299.500 65.833 308.833 65.833 L 318.167 65.833 318.167 62.750 L 318.167 59.667 312.250 59.667 L 306.333 59.667 306.333 48.601 C 306.333 38.665,306.306 37.525,306.070 37.434 C 305.925 37.379,304.387 37.333,302.653 37.333 L 299.500 37.333 299.500 51.583 M327.000 51.578 L 327.000 65.833 330.333 65.833 L 333.667 65.833 333.667 51.596 L 333.667 37.359 330.333 37.340 L 327.000 37.322 327.000 51.578 M342.167 40.333 L 342.167 43.333 346.417 43.333 L 350.667 43.333 350.667 54.587 L 350.667 65.840 354.042 65.795 L 357.417 65.750 357.460 54.542 L 357.502 43.333 361.668 43.333 L 365.833 43.333 365.833 40.333 L 365.833 37.333 354.000 37.333 L 342.167 37.333 342.167 40.333 M373.000 37.488 C 373.000 37.694,373.378 38.742,373.486 38.833 C 373.539 38.879,373.737 39.217,373.925 39.583 C 374.507 40.716,375.079 41.745,375.176 41.833 C 375.227 41.879,375.368 42.160,375.488 42.458 C 375.609 42.756,375.765 43.000,375.835 43.000 C 375.906 43.000,376.015 43.205,376.078 43.457 C 376.142 43.708,376.243 43.952,376.305 43.998 C 376.366 44.045,376.639 44.515,376.911 45.042 C 377.183 45.569,377.458 46.000,377.523 46.000 C 377.587 46.000,377.688 46.206,377.746 46.458 C 377.805 46.710,378.032 47.217,378.252 47.583 C 378.471 47.950,378.896 48.737,379.195 49.333 C 379.495 49.929,379.785 50.454,379.841 50.500 C 379.897 50.546,380.049 50.827,380.179 51.125 C 380.309 51.423,380.465 51.667,380.527 51.667 C 380.589 51.667,380.690 51.892,380.750 52.167 C 380.810 52.442,380.929 52.667,381.013 52.667 C 381.098 52.667,381.167 52.774,381.167 52.905 C 381.167 53.036,381.260 53.245,381.375 53.369 C 381.490 53.493,381.808 54.042,382.083 54.589 C 382.358 55.136,382.626 55.621,382.679 55.667 C 383.006 55.952,383.092 56.907,383.167 61.083 L 383.250 65.750 386.625 65.795 L 390.000 65.840 390.000 61.372 C 390.000 57.233,390.025 56.856,390.333 56.250 C 390.517 55.890,390.667 55.500,390.667 55.381 C 390.667 55.263,390.729 55.167,390.806 55.167 C 390.883 55.167,391.161 54.735,391.424 54.208 C 391.687 53.681,391.956 53.212,392.021 53.165 C 392.087 53.118,392.192 52.874,392.255 52.623 C 392.318 52.372,392.422 52.167,392.487 52.167 C 392.552 52.167,392.707 51.904,392.833 51.583 C 392.959 51.262,393.117 51.000,393.185 51.000 C 393.252 51.000,393.356 50.775,393.417 50.500 C 393.477 50.225,393.580 50.000,393.645 50.000 C 393.710 50.000,393.879 49.756,394.020 49.458 C 394.479 48.491,395.826 45.921,395.965 45.750 C 396.039 45.658,396.321 45.133,396.592 44.583 C 396.862 44.033,397.134 43.545,397.195 43.498 C 397.257 43.452,397.357 43.213,397.418 42.969 C 397.480 42.724,397.629 42.486,397.749 42.440 C 397.870 42.394,398.019 42.126,398.081 41.845 C 398.143 41.563,398.261 41.333,398.343 41.333 C 398.426 41.333,398.541 41.146,398.598 40.917 C 398.656 40.688,398.762 40.500,398.833 40.500 C 398.905 40.500,399.013 40.305,399.073 40.067 C 399.132 39.828,399.334 39.427,399.520 39.176 C 399.706 38.924,399.900 38.405,399.952 38.022 L 400.045 37.326 396.747 37.371 L 393.449 37.417 392.975 38.250 C 392.714 38.708,392.409 39.271,392.296 39.500 C 392.183 39.729,392.047 39.954,391.994 40.000 C 391.941 40.046,391.799 40.327,391.679 40.625 C 391.558 40.923,391.400 41.167,391.326 41.167 C 391.253 41.167,391.144 41.392,391.083 41.667 C 391.023 41.942,390.914 42.167,390.840 42.167 C 390.767 42.167,390.607 42.410,390.486 42.708 C 390.364 43.006,390.167 43.349,390.049 43.470 C 389.930 43.591,389.833 43.798,389.833 43.929 C 389.833 44.060,389.773 44.167,389.700 44.167 C 389.627 44.167,389.472 44.429,389.356 44.750 C 389.240 45.071,389.081 45.333,389.002 45.333 C 388.924 45.333,388.810 45.558,388.750 45.833 C 388.690 46.108,388.585 46.333,388.518 46.333 C 388.451 46.333,388.293 46.596,388.167 46.917 C 388.041 47.237,387.885 47.500,387.820 47.500 C 387.756 47.500,387.654 47.694,387.595 47.931 C 387.535 48.168,387.412 48.449,387.321 48.556 C 387.230 48.663,387.041 48.900,386.901 49.083 C 386.719 49.321,386.620 49.356,386.558 49.205 C 386.510 49.089,386.364 48.888,386.235 48.759 C 386.106 48.630,386.000 48.474,386.000 48.412 C 386.000 48.351,385.597 47.614,385.105 46.775 C 384.613 45.936,384.158 45.081,384.094 44.875 C 384.030 44.669,383.908 44.500,383.822 44.500 C 383.737 44.500,383.667 44.393,383.667 44.262 C 383.667 44.131,383.568 43.925,383.448 43.804 C 383.328 43.682,383.117 43.358,382.979 43.083 C 382.635 42.398,382.269 41.767,382.157 41.667 C 382.106 41.621,381.966 41.340,381.845 41.042 C 381.725 40.744,381.568 40.500,381.498 40.500 C 381.427 40.500,381.320 40.303,381.260 40.063 C 381.200 39.823,381.060 39.526,380.950 39.402 C 380.447 38.839,380.340 38.667,380.238 38.260 C 380.020 37.394,379.705 37.323,376.208 37.342 C 374.444 37.351,373.000 37.417,373.000 37.488 " stroke="none" fill="#242424" fill-rule="evenodd"></path><path id="path3" d="M42.458 4.967 C 42.197 4.998,42.000 5.125,42.000 5.261 C 42.000 5.585,41.719 5.563,41.529 5.224 C 41.389 4.974,41.326 4.982,40.855 5.318 C 40.546 5.538,40.251 5.635,40.126 5.556 C 39.854 5.385,39.284 5.482,39.128 5.726 C 39.039 5.864,39.004 5.860,39.003 5.708 C 39.000 5.468,37.825 5.416,37.575 5.645 C 37.326 5.873,36.453 6.044,36.579 5.840 C 36.714 5.622,36.567 5.619,36.170 5.831 C 36.001 5.922,35.387 6.040,34.806 6.093 C 33.061 6.254,32.894 6.276,32.736 6.371 C 32.652 6.421,31.946 6.517,31.167 6.583 C 30.387 6.649,29.675 6.763,29.583 6.836 C 29.492 6.909,28.821 7.018,28.093 7.078 C 27.365 7.138,26.713 7.221,26.644 7.264 C 26.575 7.307,26.059 7.355,25.499 7.370 C 24.938 7.386,24.442 7.459,24.396 7.533 C 24.351 7.606,23.943 7.667,23.490 7.667 C 22.869 7.667,22.667 7.728,22.667 7.917 C 22.667 8.219,22.394 8.248,22.277 7.958 C 22.211 7.798,22.159 7.796,22.050 7.950 C 21.956 8.081,21.824 8.096,21.662 7.994 C 21.266 7.743,21.046 7.808,20.936 8.208 C 20.850 8.522,20.806 8.542,20.667 8.333 C 20.528 8.125,20.475 8.121,20.354 8.311 C 20.251 8.470,20.188 8.480,20.142 8.344 C 20.100 8.215,19.855 8.186,19.414 8.256 L 18.750 8.362 18.800 10.848 C 18.835 12.587,18.795 13.333,18.665 13.333 C 18.564 13.333,18.532 13.416,18.594 13.518 C 18.674 13.647,18.756 13.634,18.867 13.476 C 18.990 13.300,19.044 13.296,19.110 13.458 C 19.232 13.760,19.623 13.714,19.815 13.375 C 19.946 13.141,20.021 13.125,20.190 13.292 C 20.461 13.561,21.114 13.561,21.223 13.292 C 21.281 13.149,21.312 13.162,21.323 13.333 C 21.335 13.526,21.370 13.534,21.473 13.371 C 21.549 13.252,22.032 13.132,22.573 13.100 C 23.104 13.067,23.595 12.949,23.665 12.836 C 23.751 12.698,23.827 12.688,23.900 12.807 C 24.029 13.015,25.644 12.871,25.958 12.623 C 26.103 12.509,26.167 12.529,26.169 12.688 C 26.171 12.869,26.200 12.872,26.307 12.704 C 26.394 12.567,27.035 12.454,28.096 12.388 C 29.006 12.331,29.787 12.234,29.833 12.171 C 29.918 12.056,33.599 11.626,34.292 11.650 C 34.498 11.657,34.667 11.600,34.667 11.522 C 34.667 11.445,35.360 11.329,36.208 11.265 C 37.056 11.201,37.821 11.078,37.908 10.991 C 37.995 10.904,38.277 10.833,38.533 10.833 C 38.794 10.833,39.001 10.741,39.003 10.625 C 39.004 10.472,39.043 10.476,39.148 10.643 C 39.307 10.894,40.333 10.759,40.333 10.487 C 40.333 10.402,40.483 10.333,40.667 10.333 C 40.850 10.333,41.000 10.415,41.000 10.514 C 41.000 10.613,41.094 10.662,41.208 10.622 C 41.323 10.582,41.395 10.425,41.368 10.274 C 41.303 9.910,42.257 9.894,42.460 10.256 C 42.571 10.454,42.696 10.476,43.010 10.350 C 43.234 10.261,43.330 10.183,43.223 10.177 C 43.087 10.170,43.024 9.433,43.009 7.670 C 42.990 5.479,43.020 5.185,43.246 5.271 C 43.423 5.340,43.475 5.295,43.411 5.130 C 43.317 4.883,43.248 4.871,42.458 4.967 M43.667 5.083 C 43.667 5.364,43.697 5.375,44.070 5.232 C 44.442 5.089,44.397 4.833,44.000 4.833 C 43.815 4.833,43.667 4.944,43.667 5.083 M17.759 8.515 C 17.908 8.756,18.500 8.800,18.500 8.570 C 18.500 8.425,18.346 8.350,18.095 8.371 C 17.873 8.389,17.722 8.454,17.759 8.515 M16.255 8.661 C 15.963 8.767,15.977 8.790,16.380 8.867 C 16.629 8.915,16.833 8.894,16.833 8.820 C 16.833 8.598,16.602 8.535,16.255 8.661 M10.944 9.444 C 10.883 9.506,10.834 9.637,10.836 9.736 C 10.838 9.858,10.878 9.856,10.961 9.728 C 11.028 9.624,11.233 9.501,11.417 9.455 C 11.739 9.375,11.739 9.371,11.403 9.353 C 11.212 9.342,11.006 9.383,10.944 9.444 M9.417 9.667 C 9.473 9.758,9.628 9.833,9.760 9.833 C 9.892 9.833,10.000 9.758,10.000 9.667 C 10.000 9.575,9.846 9.500,9.657 9.500 C 9.468 9.500,9.360 9.575,9.417 9.667 M4.333 10.297 C 4.333 10.369,4.540 10.443,4.792 10.462 C 5.143 10.489,5.191 10.459,5.000 10.334 C 4.698 10.138,4.333 10.118,4.333 10.297 M16.125 13.786 C 15.873 13.824,15.667 13.925,15.667 14.011 C 15.667 14.269,16.457 14.186,16.560 13.917 C 16.613 13.779,16.640 13.678,16.620 13.692 C 16.600 13.705,16.377 13.748,16.125 13.786 M12.654 14.375 C 12.511 14.842,12.549 15.000,12.762 14.824 C 12.891 14.717,12.955 14.562,12.905 14.481 C 12.819 14.342,12.682 14.284,12.654 14.375 M13.415 15.336 C 13.358 15.428,13.433 15.549,13.580 15.605 C 13.939 15.743,14.018 15.631,13.742 15.377 C 13.599 15.245,13.480 15.231,13.415 15.336 M14.591 16.034 C 14.768 16.245,14.922 16.437,14.933 16.462 C 14.944 16.487,15.049 16.392,15.166 16.250 C 15.347 16.033,15.337 16.009,15.107 16.097 C 14.956 16.155,14.833 16.127,14.833 16.036 C 14.833 15.944,14.706 15.820,14.551 15.761 C 14.309 15.668,14.315 15.707,14.591 16.034 M16.071 16.782 C 16.095 16.948,16.170 17.071,16.238 17.056 C 16.491 16.998,16.501 16.875,16.267 16.681 C 16.072 16.519,16.035 16.538,16.071 16.782 M17.285 17.614 C 17.500 17.941,17.584 17.971,17.799 17.795 C 18.023 17.609,18.010 17.577,17.692 17.530 C 17.492 17.500,17.364 17.419,17.407 17.349 C 17.450 17.279,17.383 17.222,17.257 17.222 C 17.072 17.222,17.077 17.296,17.285 17.614 M18.571 18.262 C 19.082 18.773,18.923 23.921,18.403 23.722 C 18.273 23.672,18.167 23.723,18.167 23.834 C 18.167 23.965,18.343 24.012,18.656 23.966 C 19.107 23.900,19.131 23.922,18.962 24.239 C 18.799 24.545,18.809 24.559,19.048 24.361 C 19.391 24.078,20.062 24.266,19.930 24.608 C 19.831 24.865,20.885 25.424,21.155 25.257 C 21.348 25.138,21.694 25.581,21.540 25.750 C 21.472 25.825,21.535 25.844,21.679 25.793 C 21.833 25.738,22.024 25.833,22.142 26.023 C 22.253 26.201,22.407 26.307,22.484 26.260 C 22.561 26.212,22.795 26.322,23.004 26.503 C 23.213 26.685,23.453 26.833,23.537 26.833 C 23.622 26.833,23.803 26.946,23.940 27.083 C 24.078 27.220,24.390 27.383,24.635 27.445 C 24.880 27.506,25.180 27.656,25.302 27.778 C 25.424 27.900,25.652 28.000,25.808 28.000 C 25.965 28.000,26.221 28.150,26.378 28.333 C 26.535 28.517,26.777 28.667,26.915 28.667 C 27.053 28.667,27.167 28.736,27.167 28.820 C 27.167 28.905,27.448 29.066,27.792 29.178 C 28.135 29.290,28.454 29.427,28.500 29.482 C 28.613 29.619,29.160 29.958,29.667 30.206 C 29.896 30.318,30.121 30.457,30.167 30.514 C 30.212 30.571,30.530 30.710,30.873 30.821 C 31.215 30.933,31.538 31.094,31.591 31.179 C 31.643 31.264,31.832 31.333,32.010 31.333 C 32.188 31.333,32.333 31.446,32.333 31.583 C 32.333 31.721,32.408 31.843,32.500 31.854 C 33.046 31.922,33.667 32.176,33.667 32.331 C 33.667 32.410,33.885 32.522,34.153 32.580 C 34.420 32.639,34.680 32.795,34.731 32.927 C 34.781 33.059,34.938 33.167,35.079 33.167 C 35.414 33.167,36.518 33.762,36.692 34.036 C 36.798 34.202,36.829 34.204,36.831 34.042 C 36.832 33.927,36.908 33.833,37.000 33.833 C 37.092 33.833,37.167 33.946,37.167 34.083 C 37.167 34.221,37.278 34.333,37.413 34.333 C 37.549 34.333,37.707 34.521,37.765 34.750 C 37.822 34.979,37.936 35.167,38.018 35.167 C 38.100 35.167,38.167 35.274,38.167 35.405 C 38.167 35.536,38.269 35.745,38.395 35.871 C 38.520 35.996,38.676 36.266,38.741 36.471 C 38.811 36.693,38.971 36.824,39.138 36.796 C 39.323 36.765,39.400 36.848,39.368 37.042 C 39.341 37.202,39.387 37.333,39.470 37.333 C 39.553 37.333,39.600 37.527,39.573 37.765 C 39.547 38.002,39.570 38.152,39.624 38.098 C 39.678 38.044,39.933 38.370,40.191 38.821 C 40.448 39.273,40.803 39.687,40.978 39.743 C 41.343 39.859,41.560 40.451,41.274 40.550 C 41.169 40.586,41.327 40.832,41.625 41.095 C 42.207 41.610,42.337 41.934,41.893 41.764 C 41.669 41.678,41.656 41.703,41.822 41.903 C 41.933 42.037,42.136 42.104,42.272 42.052 C 42.432 41.991,42.553 42.083,42.613 42.312 C 42.909 43.443,43.000 42.026,43.002 36.292 C 43.004 32.785,43.050 29.747,43.106 29.539 C 43.186 29.239,43.152 29.183,42.937 29.265 C 42.788 29.322,42.666 29.492,42.664 29.643 C 42.662 29.850,42.628 29.864,42.525 29.701 C 42.361 29.442,39.822 29.485,39.628 29.750 C 39.513 29.906,39.441 29.624,39.542 29.412 C 39.587 29.315,37.596 28.333,37.353 28.333 C 37.270 28.333,37.157 28.216,37.102 28.073 C 37.047 27.929,36.932 27.856,36.846 27.909 C 36.760 27.962,36.647 27.937,36.596 27.853 C 36.436 27.595,35.207 27.016,35.073 27.136 C 35.004 27.199,34.999 27.158,35.063 27.047 C 35.139 26.915,35.017 26.802,34.717 26.727 C 34.462 26.663,34.153 26.511,34.031 26.389 C 33.909 26.267,33.702 26.167,33.571 26.167 C 33.440 26.167,33.333 26.087,33.333 25.990 C 33.333 25.893,33.264 25.856,33.180 25.908 C 33.096 25.960,32.917 25.893,32.783 25.759 C 32.649 25.625,32.495 25.561,32.440 25.615 C 32.386 25.670,32.294 25.591,32.236 25.441 C 32.178 25.290,32.041 25.167,31.932 25.167 C 31.653 25.167,30.836 24.773,30.835 24.638 C 30.834 24.577,30.615 24.478,30.347 24.420 C 30.080 24.361,29.820 24.205,29.769 24.073 C 29.719 23.941,29.562 23.833,29.422 23.833 C 29.282 23.833,29.167 23.771,29.167 23.694 C 29.167 23.618,29.073 23.555,28.958 23.554 C 28.671 23.552,26.834 22.555,26.934 22.455 C 26.978 22.411,26.895 22.329,26.749 22.272 C 26.567 22.203,26.521 22.236,26.603 22.377 C 26.670 22.490,26.574 22.452,26.391 22.292 C 26.207 22.131,25.969 22.000,25.862 22.000 C 25.755 22.000,25.667 21.925,25.667 21.833 C 25.667 21.742,25.531 21.667,25.365 21.667 C 25.199 21.667,24.892 21.507,24.683 21.313 C 24.474 21.118,24.122 20.958,23.901 20.958 C 23.675 20.958,23.500 20.860,23.500 20.732 C 23.500 20.608,23.313 20.459,23.083 20.402 C 22.854 20.344,22.667 20.238,22.667 20.165 C 22.667 20.093,22.446 20.048,22.177 20.067 C 21.908 20.086,21.718 20.052,21.755 19.992 C 21.792 19.932,21.706 19.740,21.564 19.566 C 21.357 19.312,21.323 19.305,21.392 19.527 C 21.466 19.765,21.404 19.783,20.949 19.652 C 20.657 19.568,20.407 19.500,20.392 19.500 C 20.377 19.500,20.401 19.360,20.446 19.190 C 20.502 18.976,20.419 18.851,20.180 18.789 C 19.989 18.739,19.833 18.766,19.833 18.849 C 19.833 18.932,19.723 19.000,19.589 19.000 C 19.425 19.000,19.380 18.903,19.453 18.708 C 19.549 18.453,19.527 18.445,19.281 18.645 C 19.022 18.856,18.960 18.798,19.014 18.394 C 19.031 18.270,18.647 18.006,18.446 18.003 C 18.371 18.001,18.427 18.118,18.571 18.262 M14.333 21.814 C 14.333 21.895,14.483 22.000,14.667 22.048 C 15.060 22.151,15.119 21.915,14.736 21.768 C 14.386 21.634,14.333 21.640,14.333 21.814 M15.571 22.482 C 15.787 22.723,15.947 22.786,16.060 22.673 C 16.262 22.471,16.208 22.413,15.667 22.249 C 15.250 22.123,15.250 22.123,15.571 22.482 M16.833 23.157 C 16.833 23.265,16.908 23.307,17.000 23.250 C 17.092 23.193,17.167 23.226,17.167 23.323 C 17.167 23.421,17.354 23.500,17.583 23.500 C 17.813 23.500,18.000 23.425,18.000 23.333 C 18.000 23.242,17.906 23.166,17.792 23.164 C 17.677 23.163,17.415 23.117,17.208 23.062 C 16.975 22.999,16.833 23.035,16.833 23.157 M13.167 24.255 C 13.167 24.396,13.279 24.554,13.417 24.606 C 13.554 24.659,13.667 24.840,13.667 25.008 C 13.667 25.176,13.742 25.360,13.833 25.417 C 14.109 25.587,14.021 25.119,13.668 24.542 C 13.305 23.946,13.167 23.867,13.167 24.255 M14.167 25.917 C 14.167 26.054,14.298 26.161,14.458 26.154 C 14.634 26.146,14.667 26.107,14.541 26.056 C 14.425 26.010,14.374 25.903,14.425 25.819 C 14.477 25.735,14.440 25.667,14.343 25.667 C 14.246 25.667,14.167 25.779,14.167 25.917 M15.500 28.323 C 15.500 28.512,15.575 28.667,15.667 28.667 C 15.758 28.667,15.833 28.559,15.833 28.427 C 15.833 28.294,15.758 28.140,15.667 28.083 C 15.575 28.027,15.500 28.135,15.500 28.323 M16.750 30.333 C 16.683 30.441,16.704 30.604,16.796 30.696 C 16.907 30.807,17.003 30.797,17.083 30.667 C 17.150 30.559,17.129 30.396,17.038 30.304 C 16.927 30.193,16.831 30.203,16.750 30.333 M17.171 31.191 C 17.169 31.341,17.288 31.511,17.436 31.568 C 17.606 31.633,17.673 31.792,17.618 32.002 C 17.554 32.247,17.614 32.333,17.849 32.333 C 18.277 32.333,18.245 32.187,17.667 31.500 C 17.332 31.103,17.174 31.004,17.171 31.191 M12.975 34.053 C 13.079 34.178,13.132 34.312,13.093 34.351 C 13.055 34.390,13.163 34.607,13.333 34.833 C 13.504 35.060,13.705 35.184,13.780 35.109 C 13.855 35.034,13.785 34.877,13.625 34.760 C 13.464 34.642,13.333 34.432,13.333 34.291 C 13.333 34.151,13.210 33.988,13.060 33.931 C 12.844 33.848,12.826 33.873,12.975 34.053 M46.500 34.000 C 46.500 34.092,46.669 34.166,46.875 34.164 C 47.178 34.162,47.202 34.131,47.000 34.000 C 46.677 33.791,46.500 33.791,46.500 34.000 M18.870 39.002 C 18.907 42.817,18.873 43.820,18.708 43.757 C 18.449 43.658,18.437 43.870,18.687 44.120 C 18.790 44.223,18.996 44.269,19.145 44.221 C 19.345 44.158,19.361 44.176,19.203 44.289 C 18.956 44.467,19.117 45.051,19.369 44.894 C 19.462 44.837,19.603 44.894,19.683 45.020 C 19.913 45.384,19.857 45.560,19.583 45.333 C 19.281 45.082,19.248 45.272,19.543 45.567 C 19.659 45.682,19.846 45.746,19.960 45.708 C 20.074 45.670,20.167 45.720,20.167 45.819 C 20.167 45.919,20.082 46.000,19.980 46.000 C 19.842 46.000,19.842 46.059,19.978 46.224 C 20.080 46.347,20.108 46.508,20.040 46.582 C 19.972 46.655,20.085 46.674,20.292 46.624 C 20.547 46.561,20.667 46.606,20.667 46.766 C 20.667 46.895,20.594 47.000,20.505 47.000 C 20.416 47.000,20.387 47.112,20.439 47.249 C 20.492 47.386,20.596 47.460,20.671 47.414 C 20.745 47.368,20.854 47.548,20.913 47.815 C 20.971 48.081,21.153 48.335,21.318 48.378 C 21.490 48.423,21.660 48.676,21.721 48.978 C 21.782 49.283,21.928 49.500,22.074 49.500 C 22.223 49.500,22.286 49.597,22.230 49.742 C 22.105 50.068,22.837 51.350,23.069 51.211 C 23.168 51.152,23.147 51.230,23.021 51.385 C 22.826 51.626,22.829 51.667,23.043 51.667 C 23.182 51.667,23.349 51.835,23.416 52.042 C 23.484 52.248,23.555 52.454,23.575 52.500 C 23.596 52.546,23.675 52.733,23.752 52.917 C 23.829 53.100,23.985 53.307,24.099 53.376 C 24.214 53.445,24.357 53.727,24.417 54.002 C 24.478 54.278,24.598 54.459,24.685 54.406 C 24.840 54.310,25.277 55.287,25.199 55.554 C 25.177 55.630,25.217 55.656,25.288 55.613 C 25.359 55.570,25.604 55.938,25.833 56.430 C 26.063 56.923,26.363 57.334,26.500 57.343 C 26.656 57.353,26.676 57.390,26.552 57.440 C 26.418 57.495,26.460 57.627,26.683 57.850 C 26.864 58.031,26.967 58.251,26.913 58.339 C 26.858 58.428,26.892 58.500,26.987 58.500 C 27.082 58.500,27.207 58.688,27.265 58.917 C 27.322 59.146,27.441 59.333,27.528 59.333 C 27.615 59.333,27.640 59.408,27.583 59.500 C 27.527 59.592,27.560 59.667,27.657 59.667 C 27.754 59.667,27.833 59.775,27.833 59.908 C 27.833 60.041,27.965 60.227,28.125 60.320 C 28.285 60.413,28.342 60.493,28.250 60.497 C 28.142 60.502,28.143 60.548,28.254 60.628 C 28.491 60.798,29.000 61.618,29.000 61.831 C 29.000 61.927,29.204 62.324,29.453 62.712 C 29.702 63.099,29.913 63.454,29.923 63.500 C 29.974 63.743,30.441 64.613,30.623 64.804 C 30.739 64.925,30.833 65.135,30.833 65.272 C 30.833 65.408,30.901 65.478,30.984 65.427 C 31.125 65.339,31.576 66.270,31.524 66.542 C 31.511 66.610,31.589 66.648,31.698 66.625 C 31.808 66.602,31.929 66.733,31.968 66.917 C 32.007 67.100,32.086 67.287,32.144 67.333 C 32.202 67.379,32.469 67.829,32.737 68.333 C 33.005 68.837,33.267 69.287,33.320 69.333 C 33.373 69.379,33.679 69.921,34.000 70.538 C 34.870 72.210,35.047 72.521,35.545 73.247 C 35.795 73.612,36.000 73.995,36.000 74.097 C 36.000 74.199,36.225 74.594,36.500 74.974 C 36.775 75.353,37.000 75.739,37.000 75.832 C 37.000 75.924,37.112 76.000,37.250 76.000 C 37.469 76.000,37.585 76.308,37.518 76.713 C 37.506 76.784,37.605 76.884,37.738 76.935 C 37.870 76.986,37.938 77.134,37.888 77.264 C 37.838 77.394,37.875 77.500,37.969 77.500 C 38.063 77.500,38.190 77.726,38.250 78.001 C 38.311 78.277,38.421 78.466,38.494 78.420 C 38.637 78.332,39.109 79.322,39.035 79.554 C 39.011 79.630,39.061 79.649,39.145 79.597 C 39.289 79.508,39.578 79.953,39.532 80.192 C 39.521 80.251,39.714 80.351,39.962 80.413 C 40.210 80.475,40.452 80.577,40.498 80.639 C 40.748 80.972,42.370 81.677,42.668 81.583 C 43.072 81.455,43.203 70.429,42.802 70.295 C 42.658 70.247,42.674 70.129,42.859 69.866 C 42.999 69.666,43.175 69.558,43.250 69.626 C 43.325 69.694,43.339 69.619,43.282 69.458 C 43.224 69.298,43.237 69.167,43.311 69.167 C 43.384 69.167,43.444 69.052,43.444 68.912 C 43.444 68.444,43.130 68.755,42.627 69.718 C 42.218 70.501,42.167 70.716,42.339 70.923 C 42.453 71.061,42.499 71.223,42.440 71.282 C 42.382 71.341,42.333 71.301,42.333 71.194 C 42.333 71.087,42.226 71.000,42.095 71.000 C 41.827 71.000,41.589 71.573,41.749 71.832 C 41.806 71.924,41.736 72.000,41.593 72.000 C 41.450 72.000,41.330 72.094,41.327 72.208 C 41.323 72.323,41.208 72.210,41.071 71.958 C 40.935 71.706,40.723 71.500,40.601 71.500 C 40.451 71.500,40.407 71.357,40.464 71.059 C 40.522 70.754,40.489 70.654,40.357 70.735 C 40.235 70.811,40.166 70.714,40.164 70.468 C 40.162 70.166,40.128 70.136,40.007 70.329 C 39.791 70.670,39.691 70.516,39.515 69.575 C 39.431 69.126,39.285 68.734,39.191 68.702 C 39.096 68.671,38.934 68.387,38.830 68.073 C 38.726 67.758,38.530 67.500,38.394 67.500 C 38.258 67.500,38.189 67.432,38.240 67.349 C 38.292 67.266,38.128 66.882,37.875 66.497 C 37.623 66.112,37.411 65.749,37.405 65.690 C 37.375 65.424,36.932 64.667,36.807 64.667 C 36.730 64.667,36.667 64.558,36.667 64.425 C 36.667 64.292,36.565 64.123,36.441 64.050 C 36.317 63.977,36.007 63.448,35.752 62.875 C 35.497 62.302,35.223 61.833,35.144 61.833 C 35.065 61.833,35.000 61.721,35.000 61.583 C 35.000 61.446,34.927 61.333,34.839 61.333 C 34.750 61.333,34.720 61.221,34.773 61.085 C 34.827 60.943,34.753 60.792,34.601 60.734 C 34.454 60.677,34.333 60.536,34.333 60.419 C 34.333 60.303,34.221 60.114,34.083 60.000 C 33.946 59.886,33.833 59.661,33.833 59.500 C 33.833 59.339,33.722 59.115,33.585 59.002 C 33.449 58.888,33.373 58.737,33.418 58.665 C 33.462 58.594,33.381 58.490,33.238 58.435 C 33.096 58.381,33.026 58.260,33.083 58.168 C 33.140 58.076,33.080 58.000,32.949 58.000 C 32.819 58.000,32.579 57.644,32.417 57.208 C 32.255 56.773,31.977 56.256,31.799 56.060 C 31.523 55.755,31.411 55.488,31.346 54.984 C 31.339 54.929,31.183 54.711,31.000 54.500 C 30.817 54.289,30.667 54.015,30.667 53.891 C 30.667 53.768,30.600 53.667,30.518 53.667 C 30.436 53.667,30.322 53.479,30.265 53.250 C 30.207 53.021,30.087 52.833,29.997 52.833 C 29.907 52.833,29.833 52.721,29.833 52.585 C 29.833 52.448,29.683 52.242,29.500 52.128 C 29.317 52.013,29.167 51.858,29.167 51.783 C 29.167 51.477,28.304 49.850,27.923 49.440 C 27.699 49.198,27.587 49.000,27.675 49.000 C 27.762 49.000,27.833 48.921,27.833 48.823 C 27.833 48.726,27.764 48.690,27.678 48.743 C 27.593 48.795,27.428 48.575,27.312 48.253 C 27.195 47.930,27.040 47.667,26.967 47.667 C 26.893 47.667,26.833 47.520,26.833 47.342 C 26.833 47.163,26.734 46.957,26.612 46.883 C 26.410 46.761,26.133 46.263,26.098 45.958 C 26.090 45.890,26.019 45.837,25.939 45.842 C 25.860 45.847,25.612 45.455,25.388 44.971 C 25.164 44.487,24.923 44.052,24.853 44.004 C 24.690 43.892,24.438 43.292,24.478 43.113 C 24.494 43.037,24.437 43.020,24.349 43.074 C 24.261 43.128,24.143 43.096,24.085 43.003 C 24.027 42.910,24.071 42.833,24.183 42.833 C 24.315 42.833,24.289 42.727,24.109 42.529 C 23.957 42.361,23.833 42.144,23.833 42.046 C 23.833 41.949,23.721 41.826,23.583 41.773 C 23.446 41.720,23.333 41.534,23.333 41.359 C 23.333 41.184,23.221 40.947,23.083 40.833 C 22.946 40.719,22.833 40.527,22.833 40.406 C 22.833 40.285,22.613 40.055,22.343 39.896 C 21.942 39.659,21.870 39.526,21.944 39.157 C 21.993 38.910,21.951 38.656,21.850 38.594 C 21.749 38.531,21.667 38.560,21.667 38.657 C 21.667 38.754,21.583 38.833,21.481 38.833 C 21.375 38.833,21.333 38.685,21.384 38.491 C 21.492 38.079,20.996 37.136,20.725 37.238 C 20.434 37.347,20.327 37.157,20.498 36.837 C 20.679 36.499,20.284 35.833,19.902 35.833 C 19.568 35.833,19.418 35.383,19.656 35.096 C 19.789 34.936,19.794 34.829,19.675 34.755 C 19.579 34.696,19.500 34.764,19.500 34.907 C 19.500 35.050,19.427 35.167,19.337 35.167 C 19.246 35.167,19.219 34.949,19.275 34.667 C 19.354 34.272,19.317 34.167,19.099 34.167 C 18.848 34.167,18.828 34.596,18.870 39.002 M43.428 34.316 C 43.365 34.417,43.374 34.510,43.448 34.521 C 44.131 34.629,44.333 34.595,44.333 34.374 C 44.333 34.167,44.290 34.162,44.071 34.344 C 43.856 34.522,43.783 34.522,43.675 34.346 C 43.581 34.195,43.508 34.186,43.428 34.316 M44.167 35.468 C 44.167 35.558,44.285 35.677,44.431 35.732 C 44.593 35.795,44.669 35.757,44.629 35.636 C 44.545 35.386,44.167 35.249,44.167 35.468 M44.732 36.430 C 44.788 36.575,44.833 36.725,44.833 36.764 C 44.833 36.802,44.901 36.833,44.984 36.833 C 45.067 36.833,45.096 36.683,45.048 36.500 C 45.000 36.317,44.887 36.167,44.796 36.167 C 44.705 36.167,44.677 36.285,44.732 36.430 M14.246 36.506 C 14.192 36.594,14.221 36.667,14.312 36.667 C 14.403 36.667,14.525 36.817,14.583 37.000 C 14.692 37.342,15.000 37.465,15.000 37.167 C 15.000 36.896,14.355 36.330,14.246 36.506 M45.705 38.365 C 45.806 38.667,46.111 38.709,46.111 38.421 C 46.111 38.281,46.005 38.167,45.875 38.167 C 45.745 38.167,45.669 38.256,45.705 38.365 M46.167 39.167 C 46.167 39.258,46.242 39.333,46.333 39.333 C 46.425 39.333,46.500 39.446,46.500 39.583 C 46.500 39.721,46.575 39.833,46.667 39.833 C 46.891 39.833,46.868 39.644,46.601 39.292 C 46.355 38.967,46.167 38.913,46.167 39.167 M15.927 39.316 C 15.877 39.398,15.947 39.508,16.084 39.561 C 16.236 39.619,16.333 39.560,16.333 39.411 C 16.333 39.142,16.073 39.081,15.927 39.316 M16.398 40.095 C 16.454 40.241,16.500 40.434,16.500 40.523 C 16.500 40.613,16.575 40.640,16.667 40.583 C 16.923 40.425,16.864 40.048,16.565 39.933 C 16.368 39.857,16.324 39.901,16.398 40.095 M16.833 40.982 C 16.833 41.064,16.946 41.174,17.083 41.227 C 17.236 41.285,17.333 41.227,17.333 41.078 C 17.333 40.943,17.221 40.833,17.083 40.833 C 16.946 40.833,16.833 40.900,16.833 40.982 M47.500 41.129 C 47.500 41.303,47.949 41.833,48.095 41.833 C 48.228 41.833,48.168 41.719,47.833 41.333 C 47.650 41.122,47.500 41.030,47.500 41.129 M48.167 42.301 C 48.167 42.376,48.277 42.582,48.411 42.760 C 48.661 43.090,48.748 42.905,48.566 42.430 C 48.461 42.158,48.167 42.063,48.167 42.301 M17.749 42.501 C 17.692 42.593,17.763 42.714,17.906 42.769 C 18.049 42.824,18.167 43.020,18.167 43.205 C 18.167 43.493,18.204 43.510,18.432 43.321 C 18.674 43.120,18.674 43.084,18.432 42.907 C 18.286 42.800,18.167 42.628,18.167 42.523 C 18.167 42.288,17.890 42.274,17.749 42.501 M42.339 42.758 C 42.336 42.855,42.423 43.023,42.533 43.133 C 42.776 43.376,43.396 43.402,43.248 43.164 C 43.191 43.071,43.069 43.041,42.977 43.097 C 42.886 43.154,42.706 43.061,42.578 42.892 C 42.449 42.722,42.342 42.662,42.339 42.758 M43.208 43.610 C 42.918 43.727,42.947 44.000,43.250 44.000 C 43.387 44.000,43.500 43.887,43.500 43.750 C 43.500 43.612,43.481 43.506,43.458 43.513 C 43.435 43.520,43.323 43.564,43.208 43.610 M47.556 51.716 C 47.556 51.834,47.670 52.038,47.810 52.169 C 48.032 52.376,48.049 52.368,47.948 52.106 C 47.885 51.941,47.833 51.737,47.833 51.653 C 47.833 51.569,47.771 51.500,47.694 51.500 C 47.618 51.500,47.556 51.597,47.556 51.716 M49.456 56.045 C 49.126 56.451,49.087 56.667,49.343 56.667 C 49.440 56.667,49.473 56.592,49.417 56.500 C 49.360 56.408,49.385 56.333,49.472 56.333 C 49.625 56.333,49.892 55.837,49.793 55.737 C 49.766 55.711,49.615 55.849,49.456 56.045 M48.699 57.629 C 48.497 58.098,48.257 58.527,48.166 58.584 C 48.075 58.640,48.000 58.809,48.000 58.960 C 48.000 59.341,48.214 59.079,48.748 58.046 C 48.995 57.567,49.167 57.086,49.131 56.976 C 49.095 56.867,48.900 57.161,48.699 57.629 M47.688 59.458 C 47.722 59.650,47.274 60.667,47.157 60.667 C 47.100 60.667,46.954 60.967,46.833 61.333 C 46.712 61.700,46.558 62.000,46.491 62.000 C 46.424 62.000,46.318 62.205,46.255 62.457 C 46.192 62.708,46.090 62.952,46.028 62.998 C 45.900 63.096,45.000 64.896,45.000 65.056 C 45.000 65.114,44.783 65.519,44.519 65.956 C 44.254 66.393,43.981 66.938,43.913 67.167 C 43.844 67.396,43.734 67.621,43.667 67.667 C 43.479 67.795,43.293 68.500,43.447 68.500 C 43.591 68.500,44.495 66.691,44.480 66.435 C 44.475 66.354,44.538 66.241,44.620 66.185 C 44.846 66.030,45.859 64.000,45.712 63.997 C 45.641 63.996,45.668 63.940,45.771 63.872 C 46.190 63.599,48.128 59.333,47.833 59.333 C 47.742 59.333,47.676 59.390,47.688 59.458 M46.866 72.746 C 46.665 73.002,46.500 73.314,46.500 73.439 C 46.500 73.564,46.412 73.667,46.306 73.667 C 46.199 73.667,46.159 73.714,46.217 73.773 C 46.276 73.831,46.171 74.094,45.984 74.356 C 45.797 74.619,45.688 74.833,45.741 74.833 C 45.794 74.833,45.652 75.127,45.425 75.486 C 44.872 76.363,44.769 76.849,45.055 77.240 C 45.273 77.538,45.291 77.507,45.274 76.858 C 45.264 76.469,45.338 76.098,45.439 76.034 C 45.647 75.901,46.500 74.152,46.500 73.859 C 46.500 73.753,46.575 73.667,46.667 73.667 C 46.758 73.667,46.833 73.560,46.833 73.429 C 46.833 73.298,46.952 73.072,47.097 72.927 C 47.242 72.782,47.331 72.577,47.296 72.472 C 47.261 72.367,47.068 72.490,46.866 72.746 M47.712 78.721 C 47.747 78.829,47.947 78.942,48.157 78.972 C 48.618 79.040,48.482 78.744,47.993 78.617 C 47.773 78.559,47.671 78.597,47.712 78.721 M44.896 83.033 C 44.827 83.145,44.858 83.171,44.974 83.099 C 45.080 83.034,45.167 83.060,45.167 83.157 C 45.167 83.254,45.242 83.333,45.333 83.333 C 45.588 83.333,45.531 83.048,45.255 82.942 C 45.121 82.890,44.959 82.931,44.896 83.033 M45.754 83.327 C 45.613 83.555,45.738 83.727,45.984 83.642 C 46.085 83.608,46.098 83.490,46.015 83.357 C 45.911 83.190,45.844 83.182,45.754 83.327 M47.866 84.480 C 47.719 84.570,47.789 84.669,48.100 84.811 C 48.647 85.060,48.766 84.975,48.372 84.619 C 48.202 84.464,47.987 84.405,47.866 84.480 " stroke="none" fill="#e43c54" fill-rule="evenodd"></path><path id="path4" d="" stroke="none" fill="#4c603c" fill-rule="evenodd"></path></g></svg>