<svg id="Capa_1" data-name="Capa 1" xmlns="http://www.w3.org/2000/svg" viewBox="0 0 1609.65 520.58"><defs><style>.cls-1{fill:#232323;}</style></defs><title>logo_signature_rgb</title><path class="cls-1" d="M294.19,38.61c-124.05,0-224.62,100.56-224.62,224.62S170.14,487.84,294.19,487.84,518.81,387.28,518.81,263.22,418.24,38.61,294.19,38.61Zm0,374.36a149.75,149.75,0,1,1,0-299.49V263.22H443.93A149.75,149.75,0,0,1,294.19,413ZM205.07,263.22h89.12v89.12A89.12,89.12,0,0,1,205.07,263.22Z"/><path class="cls-1" d="M662.91,318a66.47,66.47,0,0,1-22.53-3.81,53.44,53.44,0,0,1-18.8-11.43A54.08,54.08,0,0,1,608.7,283.7Q604,272.26,604,257q0-15.07,4.91-26.51a56,56,0,0,1,13-19.06,54.55,54.55,0,0,1,18.8-11.52,65.14,65.14,0,0,1,44.38,0,54.56,54.56,0,0,1,18.8,11.52,56,56,0,0,1,13,19.06q4.91,11.43,4.91,26.51,0,15.24-4.74,26.68a54.12,54.12,0,0,1-12.87,19.06,53.45,53.45,0,0,1-18.8,11.43A66.48,66.48,0,0,1,662.91,318Zm0-20.66A37.06,37.06,0,0,0,675.52,295a31.84,31.84,0,0,0,11.43-7.2,37.39,37.39,0,0,0,8.3-12.53,53.6,53.6,0,0,0,0-36.59,36.76,36.76,0,0,0-8.38-12.53,32.71,32.71,0,0,0-11.52-7.2,35,35,0,0,0-24.9,0,32.68,32.68,0,0,0-11.52,7.2,36.69,36.69,0,0,0-8.39,12.53A46.91,46.91,0,0,0,627.33,257a48,48,0,0,0,3.13,18.29,36.39,36.39,0,0,0,8.22,12.53,31.84,31.84,0,0,0,11.43,7.2A37.5,37.5,0,0,0,662.91,297.33Z"/><path class="cls-1" d="M740.31,201.12q0-3.39,3.39-3.39h15.24q3.39,0,3.39,3.39v94.52h56.74q3.39,0,3.39,3.39v13.89q0,3.39-3.39,3.39H743.7q-3.39,0-3.39-3.39Z"/><path class="cls-1" d="M864.81,254,833.47,201.8a4.26,4.26,0,0,1-.68-2q0-2,2.54-2H853.8a6.5,6.5,0,0,1,3,.51,6.16,6.16,0,0,1,1.95,2l19.14,32.35,19.31-32.35a6.13,6.13,0,0,1,1.95-2,6.49,6.49,0,0,1,3-.51h18.46q2.54,0,2.54,2a4.29,4.29,0,0,1-.68,2L891.06,254l35.06,58.61a2.93,2.93,0,0,1,.68,1.86q0,1.87-2.37,1.86H903.76a4.57,4.57,0,0,1-3.22-.85,13.28,13.28,0,0,1-1.86-2.54l-20.83-35.74-21,35.74a13.4,13.4,0,0,1-1.86,2.54,4.58,4.58,0,0,1-3.22.85H831.44q-2.37,0-2.37-1.86a2.91,2.91,0,0,1,.68-1.86Z"/><path class="cls-1" d="M1020.81,256.51q0-3.39,3.39-3.39h62.67q3.39,0,3.39,3.39v2.54a73.08,73.08,0,0,1-3.73,23.88,53.32,53.32,0,0,1-10.76,18.63,48.55,48.55,0,0,1-17,12.11,56.26,56.26,0,0,1-22.53,4.32,68.87,68.87,0,0,1-22.53-3.73,54.74,54.74,0,0,1-32.86-30.4q-5.08-11.43-5.08-26.85,0-14.9,5.17-26.34a57.46,57.46,0,0,1,13.64-19.14,56.75,56.75,0,0,1,19.48-11.6,67.55,67.55,0,0,1,22.7-3.9A61.16,61.16,0,0,1,1052.4,198a64.5,64.5,0,0,1,13.64,5.25,55.33,55.33,0,0,1,11.18,7.71,56.57,56.57,0,0,1,8.3,9.15,3.6,3.6,0,0,1,.85,2.37,4.67,4.67,0,0,1-1.69,3l-10.5,9.32a4.47,4.47,0,0,1-2.88,1.35,3.7,3.7,0,0,1-2.88-1.86,50.48,50.48,0,0,0-14.23-13.13q-7.62-4.49-18.29-4.49a37.87,37.87,0,0,0-13.72,2.54,33.84,33.84,0,0,0-11.69,7.54,37.52,37.52,0,0,0-8.22,12.53,45.86,45.86,0,0,0-3.13,17.7,44.4,44.4,0,0,0,3.13,17.19,39.43,39.43,0,0,0,8.22,12.7,33.47,33.47,0,0,0,11.77,7.79,37.42,37.42,0,0,0,13.8,2.63q11.85,0,19.82-5.84t10.5-17.7h-42.18q-3.39,0-3.39-3.39Z"/><path class="cls-1" d="M1108.55,201.12q0-3.39,3.39-3.39h43.19q18.8,0,29.13,8.64t10.33,24.22a31.82,31.82,0,0,1-2.54,13.13,30.08,30.08,0,0,1-6.86,9.74A32.47,32.47,0,0,1,1175,259.9a49.7,49.7,0,0,1-12.45,3.22L1199,312.58a2.93,2.93,0,0,1,.68,1.86q0,1.87-2.2,1.86h-21a4.79,4.79,0,0,1-2.71-.59,8.78,8.78,0,0,1-1.86-1.95l-37.26-50.64h-4.06v49.8q0,3.39-3.39,3.39h-15.24q-3.39,0-3.39-3.39Zm47.77,41.33q7.45,0,11.69-3t4.23-9q0-5.93-4.23-9t-11.69-3h-25.74v24.05Z"/><path class="cls-1" d="M1265.9,318a66.47,66.47,0,0,1-22.53-3.81,53.45,53.45,0,0,1-18.8-11.43,54.07,54.07,0,0,1-12.87-19.06Q1207,272.26,1207,257q0-15.07,4.91-26.51a56,56,0,0,1,13-19.06,54.56,54.56,0,0,1,18.8-11.52,65.14,65.14,0,0,1,44.38,0,54.54,54.54,0,0,1,18.8,11.52,56,56,0,0,1,13,19.06q4.91,11.43,4.91,26.51,0,15.24-4.74,26.68a54.15,54.15,0,0,1-12.87,19.06,53.46,53.46,0,0,1-18.8,11.43A66.48,66.48,0,0,1,1265.9,318Zm0-20.66a37.06,37.06,0,0,0,12.62-2.29,31.83,31.83,0,0,0,11.43-7.2,37.42,37.42,0,0,0,8.3-12.53,53.6,53.6,0,0,0,0-36.59,36.78,36.78,0,0,0-8.38-12.53,32.71,32.71,0,0,0-11.52-7.2,35,35,0,0,0-24.9,0,32.67,32.67,0,0,0-11.52,7.2,36.68,36.68,0,0,0-8.38,12.53,46.88,46.88,0,0,0-3.22,18.29,48,48,0,0,0,3.13,18.29,36.38,36.38,0,0,0,8.22,12.53,31.83,31.83,0,0,0,11.43,7.2A37.51,37.51,0,0,0,1265.9,297.33Z"/><path class="cls-1" d="M1343,201.12q0-3.39,3.39-3.39h15.24q3.39,0,3.39,3.39V266a46.73,46.73,0,0,0,2,14.82,25,25,0,0,0,5.59,9.65,20.76,20.76,0,0,0,8.3,5.25,31.84,31.84,0,0,0,20,0,20.78,20.78,0,0,0,8.3-5.25,25,25,0,0,0,5.59-9.65,46.73,46.73,0,0,0,2-14.82V201.12q0-3.39,3.39-3.39h15.25q3.39,0,3.39,3.39V264.3q0,27.27-12.62,40.48T1390.91,318q-22.7,0-35.32-13.21T1343,264.3Z"/><path class="cls-1" d="M1461.37,201.12q0-3.39,3.39-3.39h45.56a47.6,47.6,0,0,1,17.36,2.88,33.21,33.21,0,0,1,12.2,8,32.72,32.72,0,0,1,7.2,11.86,43.81,43.81,0,0,1,2.37,14.57,41.28,41.28,0,0,1-2.37,14.06,32.5,32.5,0,0,1-7,11.52,33.29,33.29,0,0,1-11.6,7.79,42.23,42.23,0,0,1-16.26,2.88h-28.79v41.67q0,3.39-3.39,3.39h-15.24q-3.39,0-3.39-3.39ZM1508,250.58q19.48,0,19.48-16.09T1508,218.4h-24.56v32.18Z"/></svg>