<?xml version="1.0" encoding="UTF-8"?>
<svg width="1091px" height="311px" viewBox="0 0 1091 311" version="1.1" xmlns="http://www.w3.org/2000/svg" xmlns:xlink="http://www.w3.org/1999/xlink">
    <!-- Generator: Sketch 59.1 (86144) - https://sketch.com -->
    <title>Artboard</title>
    <desc>Created with Sketch.</desc>
    <defs>
        <path d="M104.731656,3.29903335 C112.340454,-1.09967778 121.714879,-1.09967778 129.323676,3.29903335 L129.323676,3.29903335 L184.422433,35.1510967 C181.574995,41.864503 180,49.2483216 180,57 C180,87.2770793 204.027894,111.942143 234.055359,112.966868 L234.055333,184.93784 C234.055333,193.735262 229.36812,201.864416 221.759322,206.263127 L221.759322,206.263127 L129.323676,259.700967 C121.714879,264.099678 112.340454,264.099678 104.731656,259.700967 L104.731656,259.700967 L12.2960101,206.263127 C4.68721258,201.864416 1.42108547e-14,193.735262 1.42108547e-14,184.93784 L1.42108547e-14,184.93784 L1.42108547e-14,78.0621601 C1.42108547e-14,69.2647378 4.68721258,61.1355844 12.2960101,56.7368733 L12.2960101,56.7368733 Z M165,164 L69,164 C64.581722,164 61,167.581722 61,172 C61,176.418278 64.581722,180 69,180 L69,180 L165,180 C169.418278,180 173,176.418278 173,172 C173,167.581722 169.418278,164 165,164 L165,164 Z M133,124 L69,124 C64.581722,124 61,127.581722 61,132 C61,136.418278 64.581722,140 69,140 L69,140 L133,140 C137.418278,140 141,136.418278 141,132 C141,127.581722 137.418278,124 133,124 L133,124 Z M236.036035,14 C259.804181,14 279.072071,33.2931964 279.072071,57.0925603 C279.072071,80.8919241 259.804181,100.185121 236.036035,100.185121 C212.267889,100.185121 193,80.8919241 193,57.0925603 C193,33.2931964 212.267889,14 236.036035,14 Z M165,84 L69,84 C64.581722,84 61,87.581722 61,92 C61,96.418278 64.581722,100 69,100 L69,100 L165,100 C169.418278,100 173,96.418278 173,92 C173,87.581722 169.418278,84 165,84 L165,84 Z M249.058649,38.397374 L226.806953,38.397374 L225.935343,59.1894782 C227.23422,58.7103162 228.712524,58.3252811 230.370301,58.0343613 C232.028078,57.7434415 233.506382,57.5979838 234.805259,57.5979838 C235.693964,57.5979838 236.582655,57.6835471 237.47136,57.8546764 C238.360066,58.0258057 239.154761,58.3252775 239.855471,58.7531007 C240.55618,59.1809239 241.128703,59.7541984 241.573055,60.4729414 C242.017408,61.1916844 242.239581,62.0815433 242.239581,63.1425449 C242.239581,64.8880636 241.701239,66.2057393 240.624539,67.0956116 C239.547838,67.9854839 238.274616,68.4304134 236.804835,68.4304134 C235.369235,68.4304134 234.130193,68.0197092 233.087674,67.1982887 C232.125348,66.4400543 231.446997,65.4922747 231.052602,64.3549252 L230.95992,64.0666384 L223.115428,66.4795493 C223.525599,67.9170353 224.166483,69.209042 225.038097,70.3556082 C225.909712,71.5021744 226.952216,72.4690404 228.16564,73.2562351 C229.379064,74.0434298 230.729192,74.6509296 232.216064,75.0787528 C233.702936,75.5065761 235.266691,75.7204845 236.907377,75.7204845 C238.684787,75.7204845 240.4109,75.455238 242.085767,74.9247373 C243.760635,74.3942365 245.256029,73.5984972 246.571996,72.5374957 C247.887963,71.4764941 248.939012,70.1331494 249.725174,68.5074212 C250.511336,66.8816929 250.904412,64.9565174 250.904412,62.7318367 C250.904412,60.8151887 250.562607,59.1381468 249.878988,57.7006608 C249.195369,56.2631748 248.263951,55.0567315 247.084708,54.0812945 C245.905465,53.1058576 244.512612,52.3785691 242.906106,51.8994071 C241.299601,51.4202451 239.590579,51.1806677 237.778988,51.1806677 C237.232092,51.1806677 236.625389,51.2063367 235.95886,51.2576755 C235.425637,51.2987465 234.930703,51.3671973 234.474048,51.4630293 L234.138733,51.5400374 L234.44636,45.7901221 L249.058649,45.7901221 L249.058649,38.397374 Z" id="path-1"></path>
    </defs>
    <g id="Artboard" stroke="none" stroke-width="1" fill="none" fill-rule="evenodd">
        <g id="Group" transform="translate(52.000000, 24.000000)">
            <g id="Product-Icons/CKEditor-5">
                <mask id="mask-2" fill="white">
                    <use xlink:href="#path-1"></use>
                </mask>
                <use id="Icon" fill="#2EB95A" fill-rule="evenodd" xlink:href="#path-1"></use>
                <g id="Colors/products/ckeditor5" mask="url(#mask-2)" fill="#1F9961" fill-rule="evenodd">
                    <rect id="Rectangle" x="0" y="0" width="280" height="263"></rect>
                </g>
            </g>
            <path d="M307.734375,128 C307.734375,107.296875 317.265625,95.265625 333.4375,95.265625 C346.25,95.265625 355.3125,103.703125 356.484375,115.34375 L373.75,115.34375 L373.75,113.9375 C372.5,93.46875 355.78125,79.25 333.359375,79.25 C305.78125,79.25 289.765625,97.6875 289.765625,127.84375 L289.765625,141.90625 C289.765625,172.140625 305.46875,190.109375 333.359375,190.109375 C355.703125,190.109375 372.421875,176.359375 373.75,156.75 L373.75,155.265625 L356.484375,155.265625 C355.3125,166.359375 346.484375,174.09375 333.4375,174.09375 C317.109375,174.09375 307.734375,162.53125 307.734375,141.90625 L307.734375,128 Z M470.59375,81.359375 L450.671875,81.359375 L407.546875,130.34375 L406.765625,130.34375 L406.765625,81.359375 L389.03125,81.359375 L389.03125,188 L406.765625,188 L406.765625,152.6875 L418.71875,139.640625 L450.75,188 L472.46875,188 L431.765625,127.140625 L470.59375,81.359375 Z M547.4375,172.453125 L498.53125,172.453125 L498.53125,141.28125 L544.546875,141.28125 L544.546875,126.515625 L498.53125,126.515625 L498.53125,96.90625 L547.4375,96.90625 L547.4375,81.359375 L480.875,81.359375 L480.875,188 L547.4375,188 L547.4375,172.453125 Z M589.984375,104.25 C571,104.25 558.421875,117.765625 558.421875,139.796875 L558.421875,153.46875 C558.421875,175.5 570.765625,189.09375 589.75,189.09375 C601.78125,189.09375 611.703125,183.15625 614.203125,174.796875 L615.0625,174.796875 L615.0625,188 L631.9375,188 L631.9375,75.734375 L614.59375,75.734375 L614.59375,117.765625 L613.734375,117.765625 C610.53125,109.40625 601.625,104.25 589.984375,104.25 Z M594.828125,119.09375 C606.234375,119.09375 614.59375,127.375 614.59375,140.03125 L614.59375,152.0625 C614.59375,165.96875 606.9375,174.25 595.21875,174.25 C583.34375,174.25 576.078125,165.890625 576.078125,150.96875 L576.078125,142.21875 C576.078125,127.53125 583.265625,119.09375 594.828125,119.09375 Z M652.140625,188 L669.40625,188 L669.40625,105.34375 L652.140625,105.34375 L652.140625,188 Z M649.328125,80.578125 C649.328125,86.90625 654.09375,91.28125 660.65625,91.28125 C667.53125,91.28125 672.296875,86.90625 672.296875,80.578125 C672.296875,74.171875 667.53125,69.796875 660.65625,69.796875 C654.09375,69.796875 649.328125,74.171875 649.328125,80.578125 Z M694.375,105.96875 L681.5625,105.96875 L681.5625,120.109375 L694.140625,120.109375 L694.140625,164.71875 C694.140625,181.192969 699.500547,188.40218 719.08953,188.544716 L719.6875,188.546875 C723.59375,188.546875 729.375,188.078125 730.78125,187.765625 L730.78125,173.9375 L730.144225,174.001024 C728.61538,174.133458 726.008523,174.25 723.984375,174.25 L723.289658,174.245132 C714.633456,174.121045 711.41196,171.595362 711.329745,163.329282 L711.328125,120.109375 L729.84375,120.109375 L729.84375,105.96875 L711.328125,105.96875 L711.328125,85.34375 L694.375,85.34375 L694.375,105.96875 Z M776.296875,103.9375 C754.65625,103.9375 739.5,118.703125 739.5,141.4375 L739.5,151.671875 C739.5,175.96875 754.421875,189.40625 776.296875,189.40625 C797.859375,189.40625 812.9375,175.8125 812.9375,151.671875 L812.9375,141.359375 C812.9375,118.078125 797.859375,103.9375 776.296875,103.9375 Z M776.375,118.46875 C788.71875,118.46875 795.515625,128.703125 795.515625,142.140625 L795.515625,151.203125 C795.515625,164.71875 789.03125,174.875 776.375,174.875 C763.690625,174.875 757.131875,164.844289 757.001968,151.605282 L757,142.140625 C757,128.703125 764.03125,118.46875 776.375,118.46875 Z M828.296875,188 L845.875,188 L845.875,139.328125 C845.875,128.15625 852.671875,120.03125 866.578125,120.03125 L867.334615,120.034897 C869.986827,120.060787 872.644701,120.228261 874,120.65625 L874,104.640625 C872.359375,104.328125 870.484375,104.09375 868.140625,104.09375 C854.3125,104.09375 848.296875,112.6875 846.5,118.234375 L845.5625,118.234375 L845.5625,105.34375 L828.296875,105.34375 L828.296875,188 Z M910.03125,161.59375 L926.515625,161.59375 C928.390625,170.8125 937.609375,175.03125 946.90625,175.03125 C957.453125,175.03125 967.84375,167.140625 967.84375,153.15625 C967.84375,140.578125 958.078125,132.6875 946.75,132.6875 C936.515625,132.6875 930.1875,138.625 927.609375,143.15625 L912.296875,143.15625 L916.90625,81.359375 L979.640625,81.359375 L979.640625,96.671875 L931.359375,96.671875 L928.78125,127.140625 L929.640625,127.140625 C931.90625,123.703125 939.171875,118.078125 951.125,118.078125 C969.5625,118.078125 985.265625,130.578125 985.265625,152.609375 C985.265625,175.1875 969.484375,190.109375 946.28125,190.109375 C925.34375,190.109375 910.890625,177.84375 910.03125,161.59375 Z" id="CKEditor5" fill="#08131F" fill-rule="nonzero"></path>
        </g>
    </g>
</svg>