<svg width="745" height="590" viewBox="0 0 745 590" fill="none" xmlns="http://www.w3.org/2000/svg">
    <path opacity="0.1" fill-rule="evenodd" clip-rule="evenodd" d="M737.205 170.712C748.699 148.392 745.027 131.749 739.924 121.717C732.131 106.408 715.023 95.3391 694.202 92.1018L599.328 77.3954C579.92 74.3837 557.31 72.0053 534.459 81.9275L463.429 113.044L444.074 73.1495L391.748 89.9029L298.604 1.09187L210.718 0.046875L294.391 187.124L176.02 238.986L160.296 168.399L113.192 161.097L95.3506 216.704L47.0583 191.836L0.302612 217.824L71.9297 315.739L65.5298 446.483L120.021 440.326L144.391 372.061L323.994 341.61L313.286 589.708L405.528 550.655L462.918 344.509L543.579 318.684C558.111 314.039 565.463 295.131 561.923 274.311C597.211 259.292 719.358 205.369 737.205 170.712ZM433.514 97.8442L444.85 121.207L430.959 127.289L408.485 105.858L433.514 97.8442ZM242.197 20.7184L290.393 21.2914L410.811 136.104L312.966 178.97L242.197 20.7184ZM127.204 183.806L143.497 186.332L157.076 247.281L155.808 247.837L113.63 226.118L127.204 183.806ZM30.2394 224.387L47.4199 214.841L147.08 266.162L151.454 279.824L86.1082 300.746L30.2394 224.387ZM86.9561 423.641L92.0201 320.151L147.748 302.309L105.155 421.58L86.9561 423.641ZM152.206 350.151L174.91 286.563L167.903 264.676L236.798 234.491C237.666 262.121 222.213 313.827 198.915 342.233L152.206 350.151ZM542.567 100.525L279.969 215.576C290.939 243.229 277.554 300.807 256.842 332.413L324.88 320.879L326.822 275.807L516.265 230.832C529.759 226.497 546.034 236.989 555.383 255.038C616.229 229.14 707.484 184.114 719.169 161.425C725.243 149.629 726.145 139.368 721.845 130.924C716.99 121.408 705.505 114.375 691.096 112.158L649.032 105.638C648.155 121.011 639.82 138.26 637.735 142.31L627.201 163.652C624.723 168.685 618.633 170.741 613.614 168.258L613.46 168.179C608.545 165.649 606.548 159.645 609.007 154.671L619.62 133.175C624.158 124.319 629.291 110.008 628.958 102.523L596.213 97.4469C575.039 94.1646 558.674 93.53 542.567 100.525ZM388.601 535.778L334.934 558.503L346.437 292L464.257 264.008L388.601 535.778ZM469.421 321.114L486.809 258.655L497.168 256.197C495.682 264.776 496.219 274.591 499.39 284.519C502.316 293.659 507.084 301.305 512.648 307.274L469.421 321.114ZM529.669 295.867C524.999 291.842 520.996 285.456 518.713 278.325C516.429 271.193 515.97 263.666 517.443 257.681C518.606 252.94 520.634 250.71 521.704 250.36C525.01 249.301 535.499 256.14 540.381 271.387C542.664 278.519 543.124 286.046 541.651 292.03C540.487 296.771 538.46 299.002 537.39 299.352C536.315 299.688 533.374 299.041 529.669 295.867ZM587.461 173.469C584.896 178.45 578.78 180.409 573.799 177.844C568.818 175.279 566.86 169.162 569.425 164.182C571.989 159.201 578.106 157.243 583.087 159.807C588.067 162.372 590.026 168.489 587.461 173.469ZM532.018 191.68C536.999 194.245 543.115 192.287 545.68 187.306C548.245 182.326 546.287 176.209 541.306 173.644C536.325 171.079 530.209 173.038 527.644 178.018C525.079 182.999 527.038 189.116 532.018 191.68ZM505.488 199.715C502.924 204.695 496.807 206.654 491.826 204.089C486.846 201.524 484.887 195.408 487.452 190.427C490.017 185.446 496.134 183.488 501.114 186.053C506.095 188.618 508.053 194.734 505.488 199.715Z" fill="#ECEFF4"/>
</svg>
