<svg width="152" height="149" viewBox="0 0 152 149" fill="none" xmlns="http://www.w3.org/2000/svg">
    <mask id="path-1-inside-1" fill="white">
        <path fill-rule="evenodd" clip-rule="evenodd" d="M75.9871 148.096C117.955 148.096 151.975 114.942 151.975 74.0481C151.975 33.1517 117.955 0 75.9871 0C34.0221 0 0 33.1517 0 74.0481C0 90.826 5.72694 106.301 15.3798 118.718L8.79268 145.857L37.5779 137.953C48.8481 144.4 61.9748 148.096 75.9871 148.096Z"/>
    </mask>
    <path d="M15.3798 118.718L18.2951 119.426L18.6365 118.02L17.7483 116.877L15.3798 118.718ZM8.79268 145.857L5.87733 145.149L4.6761 150.098L9.58702 148.75L8.79268 145.857ZM37.5779 137.953L39.0674 135.349L37.9855 134.73L36.7835 135.06L37.5779 137.953ZM148.975 74.0481C148.975 113.212 116.372 145.096 75.9871 145.096V151.096C119.539 151.096 154.975 116.671 154.975 74.0481H148.975ZM75.9871 3C116.372 3 148.975 34.8812 148.975 74.0481H154.975C154.975 31.4222 119.538 -3 75.9871 -3V3ZM3 74.0481C3 34.8813 35.6053 3 75.9871 3V-3C32.4389 -3 -3 31.4222 -3 74.0481H3ZM17.7483 116.877C8.48611 104.963 3 90.1294 3 74.0481H-3C-3 91.5226 2.96776 107.64 13.0113 120.56L17.7483 116.877ZM11.708 146.565L18.2951 119.426L12.4644 118.011L5.87733 145.149L11.708 146.565ZM36.7835 135.06L7.99834 142.964L9.58702 148.75L38.3722 140.846L36.7835 135.06ZM75.9871 145.096C62.5078 145.096 49.8933 141.542 39.0674 135.349L36.0883 140.557C47.8029 147.258 61.4417 151.096 75.9871 151.096V145.096Z" fill="#ECEFF4" mask="url(#path-1-inside-1)"/>
</svg>
