<svg width="179" height="179" viewBox="0 0 179 179" fill="none" xmlns="http://www.w3.org/2000/svg">
<g clip-path="url(#clip0)">
<path d="M80.55 38.7832H14.9168C6.69152 38.7832 0 45.4751 0 53.7V149.167C0 157.392 6.69152 164.084 14.9168 164.084H53.7V158.117H14.9168C9.9824 158.117 5.96678 154.101 5.96678 149.167V53.7C5.96678 48.7656 9.9824 44.75 14.9168 44.75H80.55C85.4844 44.75 89.5 48.7656 89.5 53.7V56.6832H95.4668V53.7C95.4668 45.4751 88.7749 38.7832 80.55 38.7832Z" fill="#3B4252"/>
<path d="M65.6333 0H29.8333C24.8989 0 20.8833 4.01561 20.8833 8.95C20.8833 13.8844 24.8989 17.9 29.8333 17.9H65.6333C70.5677 17.9 74.5833 13.8844 74.5833 8.95C74.5833 4.01561 70.5677 0 65.6333 0ZM65.6333 11.9332H29.8333C28.1894 11.9332 26.8501 10.5939 26.8501 8.95C26.8501 7.30614 28.1894 5.96678 29.8333 5.96678H65.6333C67.2772 5.96678 68.6165 7.30614 68.6165 8.95C68.6169 10.5939 67.2772 11.9332 65.6333 11.9332Z" fill="#3B4252"/>
<path d="M38.7837 14.9168H32.8169V41.7668H38.7837V14.9168Z" fill="#3B4252"/>
<path d="M62.6499 14.9168H56.6831V41.7668H62.6499V14.9168Z" fill="#3B4252"/>
<path d="M23.8667 89.5H17.8999V143.2H23.8667V89.5Z" fill="#3B4252"/>
<path d="M59.6665 56.6832H53.6997V80.55H59.6665V56.6832Z" fill="#3B4252"/>
<path d="M13.4252 158.117C7.66747 158.117 2.9834 162.8 2.9834 168.559C2.9834 174.317 7.66747 179 13.4252 179C19.1829 179 23.867 174.316 23.867 168.558C23.867 162.8 19.1829 158.117 13.4252 158.117ZM13.4252 173.033C10.958 173.033 8.95018 171.025 8.95018 168.558C8.95018 166.091 10.958 164.083 13.4252 164.083C15.8924 164.083 17.9002 166.091 17.9002 168.558C17.9002 171.025 15.8924 173.033 13.4252 173.033Z" fill="#3B4252"/>
<path d="M41.7671 56.6832H35.8003V143.2H41.7671V56.6832Z" fill="#3B4252"/>
<path d="M32.6049 82.4235L26.6381 67.5068C26.3399 66.761 25.7522 66.1674 25.0093 65.8601C24.2636 65.5497 23.428 65.5528 22.6914 65.8751L1.80818 74.8251C0.710057 75.2933 0 76.3732 0 77.5668V95.4668C0 96.4782 0.51008 97.4179 1.35753 97.9696C1.84978 98.286 2.4165 98.45 2.98357 98.45C3.39541 98.45 3.8069 98.3664 4.19776 98.1906L31.0478 86.2574C32.5123 85.6067 33.1986 83.9153 32.6049 82.4235ZM5.96678 90.8753V79.5326L22.232 72.5635L25.997 81.9729L5.96678 90.8753Z" fill="#3B4252"/>
<path d="M23.8667 56.6832H17.8999V71.6H23.8667V56.6832Z" fill="#3B4252"/>
<path d="M77.5669 56.6832H71.6001V80.55H77.5669V56.6832Z" fill="#3B4252"/>
<path d="M82.0419 158.117C76.2842 158.117 71.6001 162.8 71.6001 168.559C71.6001 174.317 76.2838 179 82.0419 179C87.7996 179 92.4837 174.316 92.4837 168.558C92.4837 162.8 87.7996 158.117 82.0419 158.117ZM82.0419 173.033C79.5747 173.033 77.5669 171.025 77.5669 168.558C77.5669 166.091 79.5747 164.083 82.0419 164.083C84.5091 164.083 86.5169 166.091 86.5169 168.558C86.5169 171.025 84.5091 173.033 82.0419 173.033Z" fill="#3B4252"/>
<path d="M164.083 74.5832H59.6668C51.4415 74.5832 44.75 81.2751 44.75 89.5V149.167C44.75 157.392 51.4415 164.084 59.6668 164.084H164.084C172.308 164.084 179 157.392 179 149.167V89.5C179 81.2751 172.308 74.5832 164.083 74.5832ZM173.033 149.167C173.033 154.101 169.018 158.117 164.083 158.117H59.6668C54.7324 158.117 50.7168 154.101 50.7168 149.167V89.5C50.7168 84.5656 54.7324 80.55 59.6668 80.55H164.084C169.018 80.55 173.034 84.5656 173.034 89.5V149.167H173.033Z" fill="#3B4252"/>
<path d="M125.3 62.65H98.45C96.8002 62.65 95.4668 63.9866 95.4668 65.6332V77.5664H101.434V68.6164H122.317V77.5664H128.284V65.6332C128.283 63.9866 126.95 62.65 125.3 62.65Z" fill="#3B4252"/>
<path d="M125.3 50.7168H98.45C90.2251 50.7168 83.5332 57.4083 83.5332 65.6336V77.5668H89.5V65.6336C89.5 60.6992 93.5156 56.6836 98.45 56.6836H125.3C130.234 56.6836 134.25 60.6992 134.25 65.6336V77.5668H140.217V65.6336C140.217 57.4083 133.525 50.7168 125.3 50.7168Z" fill="#3B4252"/>
<path d="M124.742 108.65L109.825 87.7666C108.707 86.1973 106.09 86.1973 104.971 87.7666L90.0546 108.65C89.4043 109.56 89.3176 110.753 89.8277 111.749C90.3409 112.743 91.3642 113.366 92.483 113.366H122.316C123.435 113.366 124.458 112.743 124.968 111.749C125.479 110.753 125.393 109.56 124.742 108.65ZM98.2802 107.4L107.4 94.6344L116.517 107.4H98.2802Z" fill="#3B4252"/>
<path d="M153.83 117.325C144.444 114.267 134.748 118.14 132.2 125.95C130.924 129.859 131.589 134.095 134.074 137.883C136.422 141.463 140.154 144.229 144.578 145.676C146.759 146.386 148.955 146.723 151.076 146.723C158.078 146.723 164.254 143.048 166.214 137.051C168.764 129.235 163.209 120.387 153.83 117.325ZM160.536 135.202C159.009 139.891 152.675 142.042 146.428 140.005C143.284 138.976 140.667 137.061 139.059 134.611C137.589 132.368 137.165 129.951 137.866 127.803C137.866 127.803 137.866 127.803 137.869 127.803C139.006 124.316 142.801 122.233 147.24 122.233C148.77 122.233 150.376 122.478 151.971 123C158.224 125.043 162.064 130.515 160.536 135.202Z" fill="#3B4252"/>
<path d="M58.1752 158.117C52.4175 158.117 47.7334 162.8 47.7334 168.559C47.7334 174.317 52.4175 179 58.1752 179C63.9329 179 68.617 174.316 68.617 168.558C68.617 162.8 63.9329 158.117 58.1752 158.117ZM58.1752 173.033C55.708 173.033 53.7002 171.025 53.7002 168.558C53.7002 166.091 55.708 164.083 58.1752 164.083C60.6424 164.083 62.6502 166.091 62.6502 168.558C62.6502 171.025 60.6424 173.033 58.1752 173.033Z" fill="#3B4252"/>
<path d="M165.575 158.117C159.817 158.117 155.133 162.8 155.133 168.559C155.133 174.317 159.817 179 165.575 179C171.333 179 176.017 174.316 176.017 168.558C176.017 162.8 171.333 158.117 165.575 158.117ZM165.575 173.033C163.108 173.033 161.1 171.025 161.1 168.558C161.1 166.091 163.108 164.083 165.575 164.083C168.042 164.083 170.05 166.091 170.05 168.558C170.05 171.025 168.042 173.033 165.575 173.033Z" fill="#3B4252"/>
<path d="M77.5669 137.233H71.6001V161.1H77.5669V137.233Z" fill="#3B4252"/>
<path d="M74.5829 74.5832H62.6497C61.0031 74.5832 59.6665 75.9197 59.6665 77.5664V113.366H65.6333V80.55H71.5997V119.333H77.5665V77.5668C77.5665 75.9198 76.2299 74.5832 74.5829 74.5832Z" fill="#3B4252"/>
<path d="M65.6333 128.283H59.6665V161.1H65.6333V128.283Z" fill="#3B4252"/>
<path d="M164.083 140.217H158.117V161.1H164.083V140.217Z" fill="#3B4252"/>
<path d="M161.1 74.5832H149.167C147.517 74.5832 146.184 75.9197 146.184 77.5664V119.333H152.15V80.55H158.117V125.3H164.084V77.5668C164.083 75.9198 162.75 74.5832 161.1 74.5832Z" fill="#3B4252"/>
<path d="M152.15 143.2H146.183V161.1H152.15V143.2Z" fill="#3B4252"/>
<path d="M85.037 122.72L49.237 101.836L46.2296 106.994L79.6131 126.467L76.3373 133.015L49.2667 116.774L46.1968 121.89L76.03 139.79C76.5013 140.071 77.0295 140.217 77.5665 140.217C77.8469 140.217 78.1273 140.178 78.4017 140.098C79.1982 139.865 79.8635 139.31 80.2365 138.567L86.2033 126.634C86.9046 125.226 86.3973 123.516 85.037 122.72Z" fill="#3B4252"/>
</g>
<defs>
<clipPath id="clip0">
<rect width="179" height="179" fill="white"/>
</clipPath>
</defs>
</svg>
