<?xml version="1.0" encoding="UTF-8" standalone="no"?>
<svg
   xmlns:dc="http://purl.org/dc/elements/1.1/"
   xmlns:cc="http://creativecommons.org/ns#"
   xmlns:rdf="http://www.w3.org/1999/02/22-rdf-syntax-ns#"
   xmlns:svg="http://www.w3.org/2000/svg"
   xmlns="http://www.w3.org/2000/svg"
   viewBox="0 0 1133.8586 1133.8586"
   height="1133.8586"
   width="1133.8586"
   xml:space="preserve"
   id="svg2"
   version="1.1"><metadata
     id="metadata8"><rdf:RDF><cc:Work
         rdf:about=""><dc:format>image/svg+xml</dc:format><dc:type
           rdf:resource="http://purl.org/dc/dcmitype/StillImage" /></cc:Work></rdf:RDF></metadata><defs
     id="defs6"><clipPath
       id="clipPath18"
       clipPathUnits="userSpaceOnUse"><path
         id="path16"
         d="M 0,850.394 H 850.394 V 0 H 0 Z" /></clipPath></defs><g
     transform="matrix(1.3333333,0,0,-1.3333333,0,1133.8587)"
     id="g10"><g
       id="g12"><g
         clip-path="url(#clipPath18)"
         id="g14"><g
           transform="translate(149.2539,198.0122)"
           id="g20"><path
             id="path22"
             style="fill:#8a8c8e;fill-opacity:1;fill-rule:nonzero;stroke:none"
             d="M 0,0 H 4.424 L 13.533,26.367 22.578,0 h 4.359 L 38.778,33.67 H 33.572 L 24.724,6.85 15.615,33.799 H 11.451 L 2.408,6.85 -6.441,33.67 h -5.335 z m 53.938,0.258 h 5.01 v 19.129 c 0.022,2.101 0.455,3.943 1.324,5.503 0.867,1.563 2.06,2.781 3.578,3.643 1.507,0.871 3.232,1.313 5.184,1.324 1.984,-0.011 3.664,-0.419 5.041,-1.238 1.39,-0.808 2.441,-1.971 3.168,-3.468 0.726,-1.509 1.094,-3.297 1.094,-5.375 V 0.258 h 5.011 v 20.745 c -0.012,2.671 -0.521,4.998 -1.53,7.001 -1.019,2.003 -2.483,3.555 -4.402,4.674 -1.909,1.121 -4.229,1.681 -6.951,1.702 -1.92,-0.009 -3.611,-0.311 -5.065,-0.882 -1.452,-0.581 -2.71,-1.357 -3.774,-2.338 -1.051,-0.98 -1.951,-2.089 -2.678,-3.306 v 19.582 h -5.01 z m 61.616,-0.775 c 2.115,0.01 4.013,0.268 5.672,0.796 1.669,0.517 3.177,1.25 4.511,2.175 1.334,0.939 2.559,2.037 3.676,3.297 L 126.29,8.53 c -0.9,-0.959 -1.887,-1.778 -2.939,-2.488 -1.052,-0.701 -2.213,-1.25 -3.47,-1.637 -1.258,-0.388 -2.656,-0.592 -4.196,-0.592 -1.509,0 -2.929,0.248 -4.273,0.753 -1.345,0.495 -2.559,1.227 -3.621,2.186 -1.074,0.96 -1.953,2.144 -2.636,3.545 -0.683,1.411 -1.128,3.015 -1.312,4.825 h 26.676 c 0.033,0.281 0.055,0.539 0.055,0.787 0.01,0.236 0.01,0.516 0.01,0.828 0,2.456 -0.358,4.751 -1.052,6.872 -0.694,2.134 -1.713,3.996 -3.058,5.613 -1.333,1.604 -2.982,2.865 -4.923,3.781 -1.941,0.904 -4.153,1.368 -6.648,1.377 -2.341,-0.009 -4.489,-0.473 -6.44,-1.357 -1.963,-0.894 -3.666,-2.132 -5.119,-3.726 -1.442,-1.583 -2.57,-3.425 -3.362,-5.525 -0.803,-2.091 -1.204,-4.353 -1.215,-6.775 v -0.129 c 0.011,-2.597 0.456,-4.956 1.324,-7.078 0.867,-2.122 2.07,-3.952 3.611,-5.494 1.529,-1.54 3.308,-2.724 5.335,-3.554 2.017,-0.828 4.197,-1.249 6.517,-1.259 m -11.711,19.322 c 0.173,1.638 0.553,3.157 1.16,4.536 0.607,1.379 1.388,2.575 2.353,3.597 0.965,1.023 2.071,1.821 3.329,2.381 1.258,0.57 2.613,0.851 4.089,0.861 1.681,-0.01 3.155,-0.323 4.434,-0.927 1.28,-0.602 2.365,-1.432 3.254,-2.476 0.889,-1.057 1.583,-2.263 2.093,-3.631 0.509,-1.368 0.824,-2.81 0.955,-4.341 z M 146.201,0.258 h 5.008 V 13.57 c 0.012,2.522 0.358,4.74 1.053,6.648 0.682,1.905 1.637,3.511 2.862,4.793 1.215,1.281 2.635,2.251 4.24,2.907 1.606,0.647 3.329,0.969 5.184,0.969 h 0.39 v 5.365 c -2.136,0.065 -4.077,-0.28 -5.845,-1.067 -1.767,-0.776 -3.308,-1.874 -4.641,-3.296 -1.334,-1.422 -2.417,-3.069 -3.243,-4.944 v 8.725 h -5.008 z m 46.455,-0.775 c 2.115,0.01 4.012,0.268 5.671,0.796 1.67,0.517 3.178,1.25 4.512,2.175 1.333,0.939 2.559,2.037 3.676,3.297 l -3.123,2.779 c -0.9,-0.959 -1.887,-1.778 -2.939,-2.488 -1.052,-0.701 -2.212,-1.25 -3.471,-1.637 -1.256,-0.388 -2.656,-0.592 -4.195,-0.592 -1.509,0 -2.929,0.248 -4.273,0.753 -1.345,0.495 -2.559,1.227 -3.622,2.186 -1.074,0.96 -1.952,2.144 -2.635,3.545 -0.684,1.411 -1.129,3.015 -1.313,4.825 h 26.677 c 0.032,0.281 0.054,0.539 0.054,0.787 0.011,0.236 0.011,0.516 0.011,0.828 0,2.456 -0.358,4.751 -1.052,6.872 -0.694,2.134 -1.714,3.996 -3.058,5.613 -1.334,1.604 -2.982,2.865 -4.923,3.781 -1.941,0.904 -4.153,1.368 -6.648,1.377 -2.342,-0.009 -4.488,-0.473 -6.44,-1.357 -1.963,-0.894 -3.667,-2.132 -5.12,-3.726 -1.442,-1.583 -2.57,-3.425 -3.362,-5.525 -0.801,-2.091 -1.203,-4.353 -1.214,-6.775 v -0.129 c 0.011,-2.597 0.456,-4.956 1.323,-7.078 0.869,-2.122 2.071,-3.952 3.611,-5.494 1.53,-1.54 3.308,-2.724 5.335,-3.554 2.018,-0.828 4.197,-1.249 6.518,-1.259 m -11.712,19.322 c 0.174,1.638 0.554,3.157 1.161,4.536 0.607,1.379 1.388,2.575 2.353,3.597 0.966,1.023 2.071,1.821 3.329,2.381 1.258,0.57 2.614,0.851 4.088,0.861 1.681,-0.01 3.155,-0.323 4.435,-0.927 1.28,-0.602 2.364,-1.432 3.253,-2.476 0.89,-1.057 1.584,-2.263 2.094,-3.631 0.509,-1.368 0.824,-2.81 0.954,-4.341 z M 250.955,0.258 h 5.139 v 45.238 h -5.139 z m 37.345,0 h 5.205 v 40.52 h 15.292 v 4.718 H 273.011 V 40.778 H 288.3 Z m 62.463,0 h 5.01 v 19.064 c 0.021,2.069 0.433,3.89 1.246,5.462 0.814,1.574 1.92,2.812 3.32,3.705 1.409,0.895 3.003,1.357 4.804,1.368 1.789,0 3.327,-0.399 4.618,-1.186 1.291,-0.784 2.277,-1.916 2.983,-3.402 0.694,-1.477 1.04,-3.264 1.051,-5.364 V 0.258 h 5.01 v 19.259 c 0.011,1.647 0.251,3.112 0.727,4.393 0.478,1.284 1.15,2.37 1.995,3.255 0.846,0.882 1.822,1.549 2.94,2.002 1.105,0.464 2.299,0.69 3.578,0.69 1.833,0 3.394,-0.399 4.696,-1.174 1.291,-0.787 2.287,-1.917 2.983,-3.425 0.681,-1.497 1.04,-3.319 1.04,-5.482 V 0.258 h 5.009 v 20.681 c -0.011,2.768 -0.521,5.16 -1.518,7.163 -0.998,2.002 -2.43,3.543 -4.294,4.631 -1.866,1.087 -4.088,1.638 -6.681,1.647 -1.941,-0.009 -3.654,-0.311 -5.139,-0.903 -1.474,-0.594 -2.766,-1.39 -3.861,-2.393 -1.095,-1 -2.05,-2.12 -2.841,-3.359 -0.607,1.259 -1.397,2.391 -2.396,3.392 -0.987,1.002 -2.181,1.789 -3.578,2.372 -1.4,0.58 -3.006,0.882 -4.827,0.891 -1.875,-0.021 -3.491,-0.322 -4.835,-0.903 -1.357,-0.594 -2.517,-1.37 -3.493,-2.317 -0.965,-0.958 -1.812,-1.993 -2.537,-3.113 v 5.623 h -5.01 z m 83.412,-0.775 c 2.115,0.01 4.013,0.268 5.671,0.796 1.672,0.517 3.177,1.25 4.511,2.175 1.334,0.939 2.56,2.037 3.676,3.297 L 444.91,8.53 c -0.899,-0.959 -1.887,-1.778 -2.937,-2.488 -1.053,-0.701 -2.213,-1.25 -3.47,-1.637 -1.259,-0.388 -2.657,-0.592 -4.197,-0.592 -1.508,0 -2.929,0.248 -4.273,0.753 -1.345,0.495 -2.558,1.227 -3.622,2.186 -1.073,0.96 -1.953,2.144 -2.635,3.545 -0.683,1.411 -1.128,3.015 -1.313,4.825 h 26.678 c 0.032,0.281 0.053,0.539 0.053,0.787 0.01,0.236 0.01,0.516 0.01,0.828 0,2.456 -0.357,4.751 -1.051,6.872 -0.694,2.134 -1.714,3.996 -3.057,5.613 -1.334,1.604 -2.983,2.865 -4.924,3.781 -1.941,0.904 -4.154,1.368 -6.648,1.377 -2.341,-0.009 -4.489,-0.473 -6.441,-1.357 -1.964,-0.894 -3.666,-2.132 -5.118,-3.726 -1.444,-1.583 -2.57,-3.425 -3.361,-5.525 -0.803,-2.091 -1.205,-4.353 -1.214,-6.775 v -0.129 c 0.009,-2.597 0.455,-4.956 1.322,-7.078 0.868,-2.122 2.07,-3.952 3.61,-5.494 1.529,-1.54 3.309,-2.724 5.336,-3.554 2.017,-0.828 4.197,-1.249 6.517,-1.259 m -11.712,19.322 c 0.174,1.638 0.555,3.157 1.162,4.536 0.606,1.379 1.388,2.575 2.353,3.597 0.964,1.023 2.071,1.821 3.33,2.381 1.256,0.57 2.611,0.851 4.088,0.861 1.68,-0.01 3.155,-0.323 4.434,-0.927 1.279,-0.602 2.365,-1.432 3.253,-2.476 0.89,-1.057 1.583,-2.263 2.093,-3.631 0.511,-1.368 0.824,-2.81 0.955,-4.341 z m 57.061,-19.322 c 2.116,0.01 4.014,0.268 5.672,0.796 1.671,0.517 3.178,1.25 4.512,2.175 1.333,0.939 2.559,2.037 3.675,3.297 l -3.121,2.779 c -0.902,-0.959 -1.888,-1.778 -2.94,-2.488 -1.052,-0.701 -2.213,-1.25 -3.469,-1.637 -1.259,-0.388 -2.657,-0.592 -4.198,-0.592 -1.508,0 -2.928,0.248 -4.273,0.753 -1.343,0.495 -2.559,1.227 -3.621,2.186 -1.073,0.96 -1.952,2.144 -2.635,3.545 -0.684,1.411 -1.128,3.015 -1.313,4.825 h 26.677 c 0.032,0.281 0.053,0.539 0.053,0.787 0.013,0.236 0.013,0.516 0.013,0.828 0,2.456 -0.36,4.751 -1.053,6.872 -0.693,2.134 -1.714,3.996 -3.058,5.613 -1.334,1.604 -2.982,2.865 -4.923,3.781 -1.941,0.904 -4.154,1.368 -6.648,1.377 -2.342,-0.009 -4.489,-0.473 -6.441,-1.357 -1.962,-0.894 -3.664,-2.132 -5.119,-3.726 -1.44,-1.583 -2.568,-3.425 -3.361,-5.525 -0.802,-2.091 -1.204,-4.353 -1.214,-6.775 v -0.129 c 0.01,-2.597 0.455,-4.956 1.323,-7.078 0.867,-2.122 2.07,-3.952 3.61,-5.494 1.529,-1.54 3.309,-2.724 5.336,-3.554 2.016,-0.828 4.197,-1.249 6.516,-1.259 m -11.711,19.322 c 0.174,1.638 0.552,3.157 1.162,4.536 0.606,1.379 1.387,2.575 2.353,3.597 0.964,1.023 2.07,1.821 3.328,2.381 1.258,0.57 2.613,0.851 4.089,0.861 1.681,-0.01 3.155,-0.323 4.435,-0.927 1.28,-0.602 2.365,-1.432 3.253,-2.476 0.889,-1.057 1.583,-2.263 2.092,-3.631 0.509,-1.368 0.825,-2.81 0.955,-4.341 z m 53.614,-19.13 c 1.193,0 2.287,0.131 3.263,0.378 0.988,0.238 1.921,0.591 2.787,1.045 v 4.266 c -0.866,-0.422 -1.69,-0.712 -2.46,-0.896 -0.782,-0.181 -1.583,-0.267 -2.419,-0.267 -1.139,-0.011 -2.125,0.172 -2.971,0.538 -0.845,0.366 -1.507,0.948 -1.974,1.766 -0.466,0.819 -0.704,1.908 -0.715,3.253 v 19.516 h 10.67 v 4.396 h -10.67 v 10.081 h -5.01 V 33.67 h -4.686 v -4.396 h 4.686 V 9.112 c 0.02,-2.251 0.432,-4.072 1.268,-5.463 0.825,-1.387 1.942,-2.401 3.372,-3.036 1.421,-0.636 3.037,-0.948 4.859,-0.938 m 32.987,-0.063 c 1.682,0 3.254,0.225 4.696,0.679 1.453,0.44 2.722,1.097 3.807,1.959 1.083,0.851 1.93,1.908 2.537,3.146 0.618,1.239 0.922,2.649 0.933,4.232 v 0.13 c -0.011,1.496 -0.337,2.769 -0.955,3.812 -0.619,1.045 -1.453,1.929 -2.494,2.64 -1.041,0.721 -2.191,1.313 -3.47,1.811 -1.269,0.494 -2.559,0.925 -3.882,1.301 -1.128,0.336 -2.213,0.678 -3.243,1.023 -1.03,0.356 -1.951,0.744 -2.766,1.175 -0.813,0.431 -1.452,0.937 -1.93,1.508 -0.465,0.581 -0.705,1.261 -0.715,2.046 v 0.129 c 0.01,0.939 0.272,1.767 0.801,2.488 0.533,0.733 1.28,1.304 2.256,1.724 0.968,0.419 2.115,0.626 3.449,0.636 1.65,-0.01 3.319,-0.291 5.031,-0.863 1.704,-0.569 3.352,-1.356 4.924,-2.368 l 2.276,3.747 c -1.159,0.755 -2.405,1.413 -3.762,1.962 -1.344,0.549 -2.722,0.969 -4.142,1.27 -1.42,0.302 -2.82,0.453 -4.197,0.453 -1.67,0 -3.199,-0.237 -4.587,-0.689 -1.399,-0.454 -2.602,-1.1 -3.621,-1.939 -1.03,-0.841 -1.823,-1.841 -2.385,-3.017 -0.564,-1.174 -0.846,-2.477 -0.859,-3.92 v -0.13 c 0.023,-1.517 0.349,-2.811 0.999,-3.856 0.651,-1.043 1.509,-1.916 2.592,-2.606 1.072,-0.69 2.267,-1.271 3.578,-1.735 1.3,-0.463 2.625,-0.871 3.959,-1.238 1.116,-0.302 2.179,-0.624 3.176,-0.969 1.01,-0.334 1.899,-0.733 2.679,-1.175 0.781,-0.44 1.399,-0.968 1.855,-1.572 0.443,-0.614 0.672,-1.324 0.684,-2.165 V 9.112 c -0.012,-1.087 -0.316,-2.027 -0.913,-2.811 -0.584,-0.787 -1.409,-1.402 -2.451,-1.833 -1.041,-0.43 -2.244,-0.655 -3.598,-0.655 -1.996,0.011 -3.983,0.377 -5.944,1.109 -1.972,0.744 -3.871,1.787 -5.703,3.155 L 540.49,4.523 c 1.269,-1.012 2.68,-1.896 4.219,-2.627 1.541,-0.724 3.133,-1.292 4.793,-1.68 1.658,-0.4 3.296,-0.604 4.912,-0.604" /></g><g
           transform="translate(680.1436,273.416)"
           id="g24"><path
             id="path26"
             style="fill:#8a8c8e;fill-opacity:1;fill-rule:nonzero;stroke:none"
             d="m 0,0 c -4.531,0.045 -8.429,1.032 -11.715,3.028 -3.264,1.973 -5.799,4.697 -7.561,8.17 -1.784,3.5 -2.678,7.493 -2.701,12.045 0.023,4.557 0.917,8.572 2.701,12.046 1.762,3.475 4.297,6.197 7.561,8.172 3.286,1.996 7.184,3.005 11.715,3.028 4.533,-0.023 8.43,-1.032 11.718,-3.028 3.262,-1.975 5.797,-4.697 7.559,-8.172 C 21.062,31.815 21.953,27.8 21.978,23.243 21.953,18.691 21.062,14.698 19.277,11.198 17.515,7.725 14.98,5.001 11.718,3.028 8.43,1.032 4.533,0.045 0,0 m -34.656,-10.144 h 12.679 v 9.579 h 0.282 c 1.667,-2.393 3.732,-4.437 6.222,-6.105 2.466,-1.69 5.165,-2.959 8.077,-3.85 2.936,-0.869 5.917,-1.315 8.948,-1.315 5.186,0.024 9.885,0.939 14.039,2.702 4.18,1.783 7.749,4.271 10.708,7.441 2.958,3.17 5.236,6.904 6.807,11.131 1.575,4.249 2.373,8.851 2.397,13.804 -0.024,5.026 -0.822,9.675 -2.421,13.925 -1.572,4.249 -3.872,7.961 -6.83,11.131 -2.981,3.145 -6.551,5.609 -10.708,7.346 -4.181,1.763 -8.828,2.655 -13.992,2.677 -3.217,0 -6.318,-0.468 -9.276,-1.383 -2.983,-0.918 -5.658,-2.209 -8.077,-3.9 -2.396,-1.666 -4.368,-3.661 -5.894,-5.986 h -0.282 v 49.306 h -12.679 z m -64.832,38.883 c 0,2.254 0.493,4.507 1.478,6.784 0.963,2.278 2.35,4.369 4.18,6.27 1.808,1.902 3.991,3.428 6.528,4.603 2.535,1.149 5.377,1.76 8.525,1.783 4.271,-0.023 7.818,-0.892 10.634,-2.558 2.818,-1.691 4.956,-3.97 6.387,-6.904 1.431,-2.909 2.185,-6.244 2.278,-9.978 z m 53.534,-10.144 v 4.508 c 0,3.475 -0.377,6.879 -1.126,10.261 -0.753,3.381 -1.948,6.575 -3.547,9.556 -1.621,3.005 -3.709,5.66 -6.246,7.96 -2.56,2.302 -5.609,4.107 -9.204,5.425 -3.591,1.315 -7.724,1.995 -12.419,2.017 -5.025,-0.022 -9.626,-0.914 -13.831,-2.677 -4.202,-1.737 -7.843,-4.201 -10.918,-7.346 -3.1,-3.17 -5.494,-6.882 -7.186,-11.131 -1.689,-4.25 -2.557,-8.899 -2.58,-13.925 0.023,-5 0.821,-9.601 2.394,-13.853 1.596,-4.249 3.873,-7.959 6.88,-11.129 2.98,-3.17 6.596,-5.636 10.824,-7.394 4.226,-1.786 8.969,-2.678 14.274,-2.702 6.411,0 12.045,1.127 16.954,3.404 4.908,2.256 9.11,5.682 12.629,10.264 l -9.577,7.323 c -2.441,-3.076 -5.142,-5.495 -8.101,-7.279 -2.958,-1.785 -6.363,-2.677 -10.215,-2.724 -2.958,0 -5.775,0.471 -8.45,1.387 -2.701,0.915 -5.096,2.231 -7.211,3.943 -2.112,1.715 -3.779,3.757 -4.998,6.152 -1.222,2.374 -1.856,5.024 -1.88,7.96 z m -152.177,-28.739 h 13.666 l 15.917,49.871 h 0.283 l 17.61,-49.871 h 12.821 l 21.553,66.776 h -13.383 L -144.032,6.761 h -0.283 l -16.905,49.871 h -13.383 L -190.522,6.761 h -0.284 l -15.072,49.871 h -14.23 z" /></g><g
           transform="translate(405.4883,276.3745)"
           id="g28"><path
             id="path30"
             style="fill:#0c91c1;fill-opacity:1;fill-rule:nonzero;stroke:none"
             d="m 0,0 c 2.16,-3.077 4.507,-5.518 7.043,-7.304 2.56,-1.807 5.377,-3.076 8.453,-3.849 3.051,-0.752 6.434,-1.129 10.144,-1.104 3.31,0 6.527,0.377 9.65,1.126 3.124,0.776 5.917,1.973 8.43,3.64 2.512,1.644 4.508,3.78 5.986,6.409 1.48,2.629 2.255,5.799 2.278,9.534 -0.023,3.288 -0.587,6.081 -1.713,8.36 -1.129,2.276 -2.701,4.155 -4.672,5.633 -1.997,1.48 -4.276,2.655 -6.857,3.569 -2.607,0.892 -5.378,1.621 -8.311,2.161 -2.209,0.421 -4.298,0.893 -6.294,1.433 -1.971,0.539 -3.734,1.197 -5.307,1.924 -1.55,0.752 -2.77,1.62 -3.663,2.653 -0.893,1.01 -1.338,2.207 -1.362,3.569 0.024,1.55 0.4,2.912 1.175,4.04 0.751,1.15 1.76,2.113 3.029,2.862 1.268,0.754 2.655,1.317 4.179,1.692 1.526,0.377 3.053,0.564 4.578,0.564 3.241,-0.024 6.034,-0.776 8.359,-2.207 2.326,-1.431 4.181,-3.31 5.587,-5.682 l 9.159,6.057 c -1.525,2.819 -3.427,5.096 -5.752,6.857 -2.301,1.759 -4.86,3.075 -7.702,3.897 -2.841,0.821 -5.822,1.222 -8.945,1.222 -3.101,0 -6.106,-0.424 -9.017,-1.246 C 15.52,54.989 12.891,53.769 10.543,52.149 8.193,50.504 6.34,48.486 4.954,46.067 3.569,43.648 2.84,40.831 2.817,37.613 2.84,34.232 3.475,31.438 4.696,29.256 5.917,27.071 7.584,25.31 9.744,23.972 c 2.137,-1.338 4.603,-2.419 7.396,-3.264 2.795,-0.822 5.776,-1.571 8.922,-2.254 1.785,-0.374 3.499,-0.798 5.167,-1.29 1.665,-0.493 3.192,-1.106 4.53,-1.855 1.338,-0.753 2.396,-1.716 3.194,-2.89 C 39.727,11.245 40.128,9.767 40.15,8.03 40.128,6.246 39.705,4.694 38.859,3.404 38.015,2.136 36.887,1.079 35.478,0.256 34.091,-0.564 32.52,-1.151 30.829,-1.55 29.115,-1.926 27.376,-2.114 25.64,-2.114 c -2.559,0 -4.86,0.377 -6.856,1.103 -1.997,0.73 -3.828,1.762 -5.447,3.1 -1.622,1.315 -3.17,2.889 -4.603,4.672 z m -56.097,0 c 2.159,-3.077 4.508,-5.518 7.043,-7.304 2.559,-1.807 5.376,-3.076 8.453,-3.849 3.052,-0.752 6.434,-1.129 10.143,-1.104 3.312,0 6.527,0.377 9.651,1.126 3.122,0.776 5.917,1.973 8.429,3.64 2.513,1.644 4.508,3.78 5.987,6.409 1.479,2.629 2.255,5.799 2.279,9.534 -0.024,3.288 -0.588,6.081 -1.715,8.36 -1.128,2.276 -2.701,4.155 -4.673,5.633 -1.996,1.48 -4.274,2.655 -6.856,3.569 -2.606,0.892 -5.376,1.621 -8.312,2.161 -2.207,0.421 -4.297,0.893 -6.292,1.433 -1.973,0.539 -3.734,1.197 -5.307,1.924 -1.55,0.752 -2.771,1.62 -3.663,2.653 -0.893,1.01 -1.339,2.207 -1.362,3.569 0.023,1.55 0.4,2.912 1.174,4.04 0.751,1.15 1.762,2.113 3.029,2.862 1.268,0.754 2.654,1.317 4.18,1.692 1.526,0.377 3.052,0.564 4.578,0.564 3.241,-0.024 6.035,-0.776 8.359,-2.207 2.324,-1.431 4.18,-3.31 5.588,-5.682 l 9.158,6.057 c -1.526,2.819 -3.428,5.096 -5.752,6.857 -2.302,1.759 -4.861,3.075 -7.703,3.897 -2.84,0.821 -5.821,1.222 -8.944,1.222 -3.1,0 -6.106,-0.424 -9.018,-1.246 -2.935,-0.821 -5.565,-2.041 -7.911,-3.661 -2.351,-1.645 -4.204,-3.663 -5.59,-6.082 -1.384,-2.419 -2.112,-5.236 -2.136,-8.454 0.024,-3.381 0.657,-6.175 1.879,-8.357 1.221,-2.185 2.888,-3.946 5.048,-5.284 2.137,-1.338 4.602,-2.419 7.396,-3.264 2.793,-0.822 5.775,-1.571 8.922,-2.254 1.785,-0.374 3.499,-0.798 5.166,-1.29 1.666,-0.493 3.193,-1.106 4.53,-1.855 1.339,-0.753 2.396,-1.716 3.193,-2.89 0.776,-1.174 1.175,-2.652 1.199,-4.389 -0.024,-1.784 -0.446,-3.336 -1.291,-4.626 -0.845,-1.268 -1.973,-2.325 -3.381,-3.148 -1.386,-0.82 -2.959,-1.407 -4.649,-1.806 -1.713,-0.376 -3.452,-0.564 -5.19,-0.564 -2.559,0 -4.86,0.377 -6.855,1.103 -1.997,0.73 -3.829,1.762 -5.448,3.1 -1.621,1.315 -3.17,2.889 -4.602,4.672 z m -64.41,22.398 c 0,3.477 0.564,6.692 1.644,9.651 1.103,2.983 2.677,5.564 4.72,7.796 2.041,2.207 4.484,3.944 7.371,5.188 2.866,1.221 6.082,1.855 9.651,1.879 3.569,-0.024 6.786,-0.658 9.65,-1.879 2.888,-1.244 5.329,-2.981 7.373,-5.188 2.042,-2.232 3.616,-4.813 4.719,-7.796 1.081,-2.959 1.645,-6.174 1.645,-9.651 0,-3.473 -0.564,-6.692 -1.645,-9.65 -1.103,-2.959 -2.677,-5.562 -4.719,-7.794 -2.044,-2.207 -4.485,-3.945 -7.373,-5.188 -2.864,-1.223 -6.081,-1.857 -9.65,-1.88 -3.569,0.023 -6.785,0.657 -9.651,1.88 -2.887,1.243 -5.33,2.981 -7.371,5.188 -2.043,2.232 -3.617,4.835 -4.72,7.794 -1.08,2.958 -1.644,6.177 -1.644,9.65 m -11.834,0 c 0.023,-5.165 0.916,-9.862 2.654,-14.087 1.736,-4.227 4.179,-7.89 7.349,-10.941 3.17,-3.077 6.879,-5.447 11.153,-7.115 4.273,-1.644 8.968,-2.49 14.064,-2.512 5.095,0.022 9.79,0.868 14.065,2.512 4.272,1.668 8.007,4.038 11.152,7.115 3.169,3.051 5.612,6.714 7.349,10.941 1.739,4.225 2.631,8.922 2.654,14.087 -0.023,5.168 -0.915,9.863 -2.654,14.09 -1.737,4.249 -4.18,7.887 -7.349,10.964 -3.145,3.052 -6.88,5.423 -11.152,7.089 -4.275,1.646 -8.97,2.49 -14.065,2.515 -5.096,-0.025 -9.791,-0.869 -14.064,-2.515 -4.274,-1.666 -7.983,-4.037 -11.153,-7.089 -3.17,-3.077 -5.613,-6.715 -7.349,-10.964 -1.738,-4.227 -2.631,-8.922 -2.654,-14.09 m -39.333,-32.965 h 10.988 v 32.12 c 0,5.048 0.657,9.393 2.019,13.055 1.362,3.663 3.476,6.481 6.341,8.454 2.84,1.971 6.479,2.98 10.94,3.005 0.986,0 1.996,-0.069 3.006,-0.212 1.01,-0.142 1.995,-0.352 2.912,-0.635 l 0.704,11.131 c -0.776,0.281 -1.549,0.469 -2.301,0.562 -0.774,0.096 -1.503,0.143 -2.207,0.143 -3.638,-0.025 -6.927,-0.636 -9.862,-1.808 -2.934,-1.175 -5.448,-2.7 -7.512,-4.603 -2.067,-1.878 -3.594,-3.92 -4.603,-6.127 h -0.283 c -0.023,1.83 -0.069,3.661 -0.139,5.47 -0.095,1.831 -0.142,3.616 -0.142,5.376 h -10.423 c 0.022,-2.183 0.114,-4.579 0.28,-7.185 0.164,-2.605 0.258,-5.424 0.282,-8.452 z m -13.13,86.64 c -2.841,3.664 -6.153,6.645 -9.885,8.948 -3.733,2.299 -7.772,3.99 -12.069,5.071 -4.321,1.104 -8.735,1.643 -13.266,1.619 -5.941,-0.023 -11.482,-0.892 -16.647,-2.628 -5.142,-1.737 -9.815,-4.205 -13.995,-7.373 -4.156,-3.194 -7.748,-6.951 -10.754,-11.295 -2.981,-4.344 -5.283,-9.157 -6.878,-14.416 -1.621,-5.237 -2.42,-10.801 -2.443,-16.695 0.023,-6.082 0.869,-11.764 2.536,-17.07 1.667,-5.329 4.015,-10.144 7.091,-14.463 3.052,-4.322 6.667,-8.03 10.895,-11.153 4.202,-3.098 8.85,-5.495 13.948,-7.185 5.095,-1.668 10.494,-2.513 16.247,-2.535 7.982,-0.024 15.144,1.385 21.507,4.249 6.362,2.843 11.787,7.254 16.248,13.22 l -8.876,7.466 c -3.52,-4.532 -7.7,-7.983 -12.538,-10.355 -4.836,-2.37 -10.284,-3.569 -16.341,-3.592 -5.635,0.023 -10.753,1.103 -15.402,3.217 -4.626,2.112 -8.641,5.048 -12.022,8.828 -3.381,3.757 -5.989,8.149 -7.819,13.148 -1.832,5.002 -2.773,10.426 -2.795,16.225 0,4.391 0.611,8.618 1.808,12.702 1.222,4.062 2.936,7.843 5.166,11.319 2.254,3.473 4.931,6.505 8.054,9.109 3.122,2.606 6.644,4.626 10.495,6.082 3.875,1.455 8.053,2.184 12.515,2.207 3.217,0 6.338,-0.446 9.415,-1.361 3.052,-0.893 5.893,-2.256 8.548,-4.039 2.652,-1.808 4.976,-4.037 6.974,-6.715 z" /></g><g
           transform="translate(326.1992,595.3218)"
           id="g32"><path
             id="path34"
             style="fill:#03688c;fill-opacity:1;fill-rule:evenodd;stroke:none"
             d="m 0,0 c 0,-16.954 13.743,-30.696 30.697,-30.697 16.953,10e-4 30.696,13.744 30.696,30.696 0,16.955 -13.743,30.697 -30.697,30.696 C 13.743,30.696 0,16.954 0,0 m -10.054,40.751 v 0 c 22.434,22.434 59.144,22.433 81.577,0 L 91.271,21.002 77.152,6.884 56.806,27.23 c -14.669,14.669 -38.67,14.669 -53.34,0 L 3.465,27.229 c -14.666,-14.666 -14.666,-38.671 0,-53.337 L 56.357,-79 42.238,-93.12 -10.054,-40.827 c -22.434,22.434 -22.434,59.144 0,81.578" /></g><g
           transform="translate(517.7603,465.1543)"
           id="g36"><path
             id="path38"
             style="fill:#0c91c1;fill-opacity:1;fill-rule:evenodd;stroke:none"
             d="m 0,0 c 0,16.953 -13.743,30.696 -30.695,30.696 -16.954,0 -30.697,-13.743 -30.697,-30.696 0,-16.955 13.743,-30.697 30.697,-30.696 C -13.743,-30.697 0,-16.954 0,0 m 10.055,-40.751 v 0 c -22.434,-22.435 -59.144,-22.435 -81.577,0 l -19.991,19.991 14.117,14.118 20.591,-20.589 c 14.668,-14.668 38.67,-14.668 53.339,0 l 0.002,0.001 c 14.666,14.667 14.666,38.671 0,53.338 l -52.891,52.891 14.119,14.119 52.291,-52.292 c 22.435,-22.434 22.435,-59.143 0,-81.577" /></g><g
           transform="translate(356.8965,434.457)"
           id="g40"><path
             id="path42"
             style="fill:#bcbec0;fill-opacity:1;fill-rule:evenodd;stroke:none"
             d="M 0,0 C 16.953,0 30.695,13.743 30.696,30.696 30.695,47.649 16.953,61.392 0,61.392 -16.955,61.392 -30.697,47.65 -30.696,30.696 -30.697,13.743 -16.955,0 0,0 m -40.75,-10.056 -10e-4,0.002 c -22.435,22.433 -22.434,59.143 0,81.577 L -20.765,91.509 -6.646,77.39 -27.232,56.806 c -14.667,-14.667 -14.667,-38.672 0,-53.339 l 10e-4,-10e-4 c 14.667,-14.666 38.672,-14.666 53.34,0 L 79,56.357 93.119,42.238 40.826,-10.056 c -22.433,-22.432 -59.143,-22.432 -81.576,0 m 24.251,105.831 0.005,0.005 14.119,-14.118 -0.006,-0.005 z" /></g><g
           transform="translate(487.0635,626.0181)"
           id="g44"><path
             id="path46"
             style="fill:#8a8c8e;fill-opacity:1;fill-rule:evenodd;stroke:none"
             d="m 0,0 c -16.954,0 -30.695,-13.741 -30.697,-30.696 0.002,-16.953 13.745,-30.696 30.697,-30.696 16.954,0 30.697,13.743 30.697,30.696 C 30.697,-13.743 16.954,0 0,0 m 40.752,10.056 v -10e-4 c 22.435,-22.433 22.432,-59.144 0,-81.577 L 20.795,-91.48 6.675,-77.361 27.232,-56.805 c 14.668,14.668 14.668,38.671 0,53.338 l -0.002,10e-4 c -14.666,14.668 -38.672,14.668 -53.338,0 l -52.891,-52.89 -14.12,14.118 52.294,52.294 c 22.432,22.433 59.143,22.433 81.577,0 M 16.529,-95.745 16.493,-95.78 2.376,-81.661 l 0.035,0.035 z" /></g></g></g></g></svg>