<svg id="Layer_1" data-name="Layer 1" xmlns="http://www.w3.org/2000/svg" width="204.9284mm" height="160.6562mm" viewBox="0 0 580.8994 455.4035"><defs><style>.cls-1,.cls-6{fill:#8a8c8e;}.cls-2,.cls-4{fill:#1991c1;}.cls-3{fill:#05688b;}.cls-3,.cls-4,.cls-5,.cls-6{fill-rule:evenodd;}.cls-5{fill:#b4b4b4;}</style></defs><title>logo_alternatywne_claim_SVG</title><path class="cls-1" d="M703.668,652.77a15.61,15.61,0,0,0,4.6963-.6783,11.3356,11.3356,0,0,0,3.8066-1.96,8.9866,8.9866,0,0,0,2.5371-3.1455,9.4947,9.4947,0,0,0,.9326-4.2324v-.1294a7.4725,7.4725,0,0,0-.955-3.8125,8.2915,8.2915,0,0,0-2.4942-2.64,16.571,16.571,0,0,0-3.47-1.81c-1.2686-.4942-2.5586-.9253-3.8818-1.3018-1.128-.3354-2.2129-.6782-3.2432-1.0225a19.6421,19.6421,0,0,1-2.7656-1.1752,6.328,6.328,0,0,1-1.93-1.5084,3.2434,3.2434,0,0,1-.7158-2.0458v-.129a4.17,4.17,0,0,1,.8017-2.4882,5.2711,5.2711,0,0,1,2.2559-1.7237,8.7952,8.7952,0,0,1,3.4492-.6357,16.0728,16.0728,0,0,1,5.03.8623,21.8951,21.8951,0,0,1,4.9238,2.3686l2.2764-3.7475a21.9843,21.9843,0,0,0-3.7617-1.9619,24.1625,24.1625,0,0,0-4.1426-1.27,20.1255,20.1255,0,0,0-4.1963-.4536,14.737,14.737,0,0,0-4.5869.6895,10.908,10.908,0,0,0-3.6211,1.9389,8.6976,8.6976,0,0,0-2.3858,3.0166,9.1219,9.1219,0,0,0-.8584,3.9209v.1294a7.3952,7.3952,0,0,0,.9991,3.856,8.1971,8.1971,0,0,0,2.5918,2.606,17.1714,17.1714,0,0,0,3.5781,1.7348c1.3.4629,2.625.8716,3.959,1.2383,1.1162.3022,2.1787.6245,3.1758.9687a14.8841,14.8841,0,0,1,2.6787,1.1753,5.93,5.93,0,0,1,1.8554,1.5718,3.67,3.67,0,0,1,.6836,2.1655v.129a4.594,4.594,0,0,1-.9131,2.811,5.6757,5.6757,0,0,1-2.45,1.8325,9.372,9.372,0,0,1-3.5986.6558,17.1772,17.1772,0,0,1-5.9433-1.1094,23.1769,23.1769,0,0,1-5.7032-3.1548l-2.539,3.5537a21.6637,21.6637,0,0,0,4.2187,2.6275,24.2154,24.2154,0,0,0,4.793,1.68,20.9028,20.9028,0,0,0,4.9121.6036m-32.9873-.063a13.335,13.335,0,0,0,3.2637-.3775,12.0946,12.0946,0,0,0,2.7861-1.0449v-4.2661a11.9644,11.9644,0,0,1-2.46.8955,10.6186,10.6186,0,0,1-2.4189.2671,7.2312,7.2312,0,0,1-2.9707-.5376,4.0817,4.0817,0,0,1-1.9737-1.7666,6.679,6.679,0,0,1-.7158-3.2524V623.1075h10.6709v-4.3956H666.1914v-10.081h-5.01v10.081h-4.6856v4.3956h4.6856V643.27a10.7065,10.7065,0,0,0,1.2685,5.4624,7.291,7.291,0,0,0,3.3721,3.0366A11.6075,11.6075,0,0,0,670.6807,652.7066Zm-53.6143-19.13a15.1489,15.1489,0,0,1,1.1621-4.5361,12.5071,12.5071,0,0,1,2.3536-3.5967,10.29,10.29,0,0,1,3.3281-2.3814,9.9133,9.9133,0,0,1,4.0888-.86,10.41,10.41,0,0,1,4.4346.9263,9.5728,9.5728,0,0,1,3.2529,2.476,12.1794,12.1794,0,0,1,2.0928,3.6314,16.3666,16.3666,0,0,1,.9551,4.3408Zm11.7119,19.3223a19.0289,19.0289,0,0,0,5.6719-.7959,16.3583,16.3583,0,0,0,4.5117-2.1753,21.1982,21.1982,0,0,0,3.6748-3.2974l-3.1211-2.7788a17.2591,17.2591,0,0,1-2.9394,2.4878,13.3079,13.3079,0,0,1-3.47,1.6377,14.2055,14.2055,0,0,1-4.1973.5923,12.0306,12.0306,0,0,1-4.2734-.7534,11.0993,11.0993,0,0,1-3.6211-2.1866,11.3631,11.3631,0,0,1-2.6348-3.5449,14.3283,14.3283,0,0,1-1.3135-4.8247h26.6778a6.9262,6.9262,0,0,0,.0527-.7866c.0127-.2359.0127-.5166.0127-.8281a22.02,22.02,0,0,0-1.0527-6.8726,16.7906,16.7906,0,0,0-3.0577-5.6128,14.2128,14.2128,0,0,0-4.9228-3.7808,15.75,15.75,0,0,0-18.208,3.7061,17.11,17.11,0,0,0-3.3613,5.5244,18.9963,18.9963,0,0,0-1.2139,6.7754v.1294a18.741,18.741,0,0,0,1.3223,7.0781,16.5228,16.5228,0,0,0,3.61,5.4932,15.97,15.97,0,0,0,5.3359,3.5542A17.2143,17.2143,0,0,0,628.7783,652.899Zm-57.0615-19.3223a15.1763,15.1763,0,0,1,1.1621-4.5361,12.5256,12.5256,0,0,1,2.3526-3.5967,10.299,10.299,0,0,1,3.33-2.3814,9.906,9.906,0,0,1,4.0879-.86,10.41,10.41,0,0,1,4.4346.9263,9.5833,9.5833,0,0,1,3.2529,2.476,12.1816,12.1816,0,0,1,2.0928,3.6314,16.2886,16.2886,0,0,1,.9551,4.3408Zm11.7119,19.3223a19.0223,19.0223,0,0,0,5.6709-.7959,16.3467,16.3467,0,0,0,4.5118-2.1753,21.1708,21.1708,0,0,0,3.6757-3.2974l-3.123-2.7788a17.2122,17.2122,0,0,1-2.9375,2.4878,13.3083,13.3083,0,0,1-3.47,1.6377,14.21,14.21,0,0,1-4.1973.5923,12.0221,12.0221,0,0,1-4.2725-.7534,11.0929,11.0929,0,0,1-3.622-2.1866,11.3477,11.3477,0,0,1-2.6348-3.5449,14.3283,14.3283,0,0,1-1.3135-4.8247h26.6778a6.9418,6.9418,0,0,0,.0537-.7866c.01-.2359.01-.5166.01-.8281a22.0166,22.0166,0,0,0-1.0508-6.8726A16.8066,16.8066,0,0,0,594.35,623.16a14.2082,14.2082,0,0,0-4.9238-3.7808,15.7491,15.7491,0,0,0-18.207,3.7061,17.0274,17.0274,0,0,0-3.3614,5.5244,18.9761,18.9761,0,0,0-1.2138,6.7754v.1294a18.7329,18.7329,0,0,0,1.3222,7.0781,16.54,16.54,0,0,0,3.61,5.4932,15.95,15.95,0,0,0,5.3359,3.5542A17.2143,17.2143,0,0,0,583.4287,652.899Zm-83.4116-.7754h5.01V633.06a11.9968,11.9968,0,0,1,1.2461-5.4614,9.4251,9.4251,0,0,1,3.32-3.7056,8.87,8.87,0,0,1,4.8042-1.3677,8.7048,8.7048,0,0,1,4.6182,1.1856,7.7311,7.7311,0,0,1,2.9829,3.4023,12.717,12.717,0,0,1,1.0508,5.3643v19.6465h5.01V632.8648a12.83,12.83,0,0,1,.7276-4.3931,9.398,9.398,0,0,1,1.9951-3.2549,8.3965,8.3965,0,0,1,2.9394-2.0024,9.1614,9.1614,0,0,1,3.5786-.6895,9.0111,9.0111,0,0,1,4.6954,1.1739,7.6234,7.6234,0,0,1,2.9829,3.4253,13.1548,13.1548,0,0,1,1.04,5.4819v19.5176h5.0093V631.4429a16.0805,16.0805,0,0,0-1.5176-7.1626,10.8177,10.8177,0,0,0-4.2939-4.6313,13.1338,13.1338,0,0,0-6.6812-1.647,13.9945,13.9945,0,0,0-5.1392.9028,12.6751,12.6751,0,0,0-3.8613,2.3926,16.764,16.764,0,0,0-2.84,3.3594,12.3545,12.3545,0,0,0-2.3965-3.3916,10.7648,10.7648,0,0,0-3.5781-2.3721,12.6821,12.6821,0,0,0-4.8267-.8911,12.52,12.52,0,0,0-4.8354.9028,11.6891,11.6891,0,0,0-3.4927,2.3174,18.6757,18.6757,0,0,0-2.5371,3.1123v-5.6226h-5.01Zm-62.4629,0h5.2046v-40.52h15.2925v-4.7182H422.2652v4.7182h15.289Zm-37.3457,0h5.1392V606.8858h-5.1392Zm-70.01-18.5469a15.16,15.16,0,0,1,1.1611-4.5361,12.5343,12.5343,0,0,1,2.352-3.5967,10.3243,10.3243,0,0,1,3.33-2.3814,9.9176,9.9176,0,0,1,4.0879-.86,10.414,10.414,0,0,1,4.4351.9263,9.5833,9.5833,0,0,1,3.2529,2.476,12.1855,12.1855,0,0,1,2.0943,3.6314,16.33,16.33,0,0,1,.9536,4.3408ZM341.91,652.899a19.0217,19.0217,0,0,0,5.67-.7959,16.3729,16.3729,0,0,0,4.5127-2.1753,21.22,21.22,0,0,0,3.6753-3.2974l-3.1226-2.7788a17.1705,17.1705,0,0,1-2.9394,2.4878,13.2674,13.2674,0,0,1-3.47,1.6377,14.1935,14.1935,0,0,1-4.1959.5923,12.0257,12.0257,0,0,1-4.2729-.7534,11.0891,11.0891,0,0,1-3.6221-2.1866,11.3631,11.3631,0,0,1-2.6342-3.5449,14.28,14.28,0,0,1-1.313-4.8247h26.6762a6.83,6.83,0,0,0,.0542-.7866c.0113-.2359.0113-.5166.0113-.8281a22.0168,22.0168,0,0,0-1.0518-6.8726A16.8,16.8,0,0,0,352.83,623.16a14.2092,14.2092,0,0,0-4.9228-3.7808,15.7528,15.7528,0,0,0-18.2076,3.7061,17.07,17.07,0,0,0-3.3618,5.5244,19.0294,19.0294,0,0,0-1.2143,6.7754v.1294a18.778,18.778,0,0,0,1.3227,7.0781,16.5482,16.5482,0,0,0,3.6114,5.4932,15.9648,15.9648,0,0,0,5.3349,3.5542A17.22,17.22,0,0,0,341.91,652.899Zm-46.4556-.7754h5.0088v-13.312a19.68,19.68,0,0,1,1.0522-6.648,13.3659,13.3659,0,0,1,2.8624-4.7925,12.1077,12.1077,0,0,1,4.24-2.9072,13.72,13.72,0,0,1,5.1836-.9687h.39v-5.3658a13.1883,13.1883,0,0,0-5.8447,1.0674,14.0373,14.0373,0,0,0-4.6411,3.2959,17.4226,17.4226,0,0,0-3.2427,4.9443v-8.7251h-5.0088Zm-42.3579-18.5469a15.1332,15.1332,0,0,1,1.1606-4.5361,12.5356,12.5356,0,0,1,2.3526-3.5967,10.3051,10.3051,0,0,1,3.3291-2.3814,9.9173,9.9173,0,0,1,4.0893-.86,10.411,10.411,0,0,1,4.4341.9263,9.5958,9.5958,0,0,1,3.2539,2.476,12.2035,12.2035,0,0,1,2.0928,3.6314,16.327,16.327,0,0,1,.9546,4.3408Zm11.7114,19.3223a19.03,19.03,0,0,0,5.6714-.7959,16.38,16.38,0,0,0,4.5117-2.1753,21.1859,21.1859,0,0,0,3.6758-3.2974l-3.123-2.7788a17.2054,17.2054,0,0,1-2.939,2.4878,13.2942,13.2942,0,0,1-3.47,1.6377,14.2045,14.2045,0,0,1-4.1968.5923,12.0248,12.0248,0,0,1-4.273-.7534,11.0791,11.0791,0,0,1-3.621-2.1866,11.3567,11.3567,0,0,1-2.6353-3.5449,14.3163,14.3163,0,0,1-1.3125-4.8247h26.6758a6.623,6.623,0,0,0,.0552-.7866c.01-.2359.01-.5166.01-.8281a22.0055,22.0055,0,0,0-1.0517-6.8726,16.7768,16.7768,0,0,0-3.0586-5.6128,14.2,14.2,0,0,0-4.9229-3.7808,15.75,15.75,0,0,0-18.2065,3.7061,17.0625,17.0625,0,0,0-3.3623,5.5244,19.0054,19.0054,0,0,0-1.2149,6.7754v.1294a18.7606,18.7606,0,0,0,1.3237,7.0781,16.5114,16.5114,0,0,0,3.6114,5.4932,15.9508,15.9508,0,0,0,5.3349,3.5542A17.2131,17.2131,0,0,0,264.8081,652.899Zm-61.6162-.7754h5.01V632.9947a11.3967,11.3967,0,0,1,1.3237-5.503,9.269,9.269,0,0,1,3.5781-3.6425,10.2843,10.2843,0,0,1,5.1836-1.3243,9.8137,9.8137,0,0,1,5.0415,1.2383,7.8845,7.8845,0,0,1,3.1675,3.4673,12.2765,12.2765,0,0,1,1.0942,5.3755v19.5176h5.0108V631.3789a15.5022,15.5022,0,0,0-1.53-7.0014,11.1319,11.1319,0,0,0-4.4019-4.6739,13.7255,13.7255,0,0,0-6.9506-1.7016,13.9933,13.9933,0,0,0-5.065.8818,12.1553,12.1553,0,0,0-3.7739,2.3384,15.1284,15.1284,0,0,0-2.6782,3.3052V604.9463h-5.01Zm-53.938.2583h4.4243l9.1084-26.3672,9.045,26.3672h4.3593l11.8413-33.67h-5.206l-8.8486,26.82-9.1084-26.9493h-4.1641l-9.0435,26.9493-8.8491-26.82h-5.3349Z" transform="translate(-134.7471 -197.4955)"/><path class="cls-1" d="M482.0122,587.1216h13.666l15.9175-49.8706h.2832l17.61,49.8706H542.31l21.5532-66.7759H550.4795l-14.3677,49.8711h-.2832l-16.9052-49.8711H505.54l-15.9194,49.8711h-.2832l-15.0727-49.8711h-14.23Zm152.1773-28.7383V553.875a47.2061,47.2061,0,0,0-1.126-10.2612,37.3338,37.3338,0,0,0-3.5469-9.5557,29.7584,29.7584,0,0,0-6.2461-7.96,27.9411,27.9411,0,0,0-9.2041-5.4243,36.4916,36.4916,0,0,0-12.4189-2.0176,35.8114,35.8114,0,0,0-13.8311,2.6772,32.4426,32.4426,0,0,0-10.9179,7.3462,33.4177,33.4177,0,0,0-7.1856,11.1309,37.88,37.88,0,0,0-2.5806,13.9248,40.086,40.086,0,0,0,2.3941,13.853,32.6225,32.6225,0,0,0,6.88,11.1289,30.9976,30.9976,0,0,0,10.8242,7.3946,36.7413,36.7413,0,0,0,14.2744,2.7016,39.827,39.827,0,0,0,16.9541-3.4043,33.4289,33.4289,0,0,0,12.6289-10.2632l-9.5771-7.3237a30.4494,30.4494,0,0,1-8.1016,7.2793,19.8444,19.8444,0,0,1-10.2148,2.7236,25.914,25.914,0,0,1-8.45-1.3862,23.1706,23.1706,0,0,1-7.211-3.9433,18.8991,18.8991,0,0,1-4.998-6.1519,17.46,17.46,0,0,1-1.88-7.96Zm-53.5342-10.144a16.9476,16.9476,0,0,1,1.4785-6.7842,20.5156,20.5156,0,0,1,4.18-6.27,21.1443,21.1443,0,0,1,6.5283-4.602,22.403,22.403,0,0,1,19.1592.7744,16.1846,16.1846,0,0,1,6.3867,6.9038,23.732,23.732,0,0,1,2.2783,9.9785Zm64.832,38.8823h12.68v-9.5781h.2813a23.356,23.356,0,0,0,6.2226,6.105,29.4114,29.4114,0,0,0,8.0772,3.85,31.3621,31.3621,0,0,0,8.9472,1.3149,36.124,36.124,0,0,0,14.0391-2.7016,31.2214,31.2214,0,0,0,10.708-7.4414,33.0426,33.0426,0,0,0,6.8076-11.1309,41.1068,41.1068,0,0,0-.0244-27.729,32.8945,32.8945,0,0,0-6.83-11.1309,31.11,31.11,0,0,0-10.708-7.3462,36.033,36.033,0,0,0-13.9922-2.6772,31.2724,31.2724,0,0,0-9.2754,1.3828,28.63,28.63,0,0,0-8.0771,3.9009,21.9237,21.9237,0,0,0-5.8945,5.9858h-.2813V480.6187h-12.68Zm34.6563-10.1435a22.552,22.552,0,0,1-11.7149-3.0279,19.8789,19.8789,0,0,1-7.5615-8.17,28.2169,28.2169,0,0,1,0-24.0908,19.8847,19.8847,0,0,1,7.5615-8.1724,24.1826,24.1826,0,0,1,23.4327,0,19.8867,19.8867,0,0,1,7.5595,8.1724,28.2169,28.2169,0,0,1,0,24.0908,19.8808,19.8808,0,0,1-7.5595,8.17A22.5627,22.5627,0,0,1,680.1436,576.9781Z" transform="translate(-134.7471 -197.4955)"/><path class="cls-2" d="M220.6841,497.9468a37.14,37.14,0,0,0-9.8852-8.9477,42.8229,42.8229,0,0,0-12.0689-5.0718,54.528,54.528,0,0,0-29.9131,1.01,48.944,48.944,0,0,0-13.9946,7.3726,50.1881,50.1881,0,0,0-10.7544,11.2954A51.9842,51.9842,0,0,0,137.19,518.02a58.4834,58.4834,0,0,0,.0932,33.7652,50.8727,50.8727,0,0,0,7.09,14.4624A48.5774,48.5774,0,0,0,155.27,577.4014a49.68,49.68,0,0,0,13.9472,7.1855,52.5017,52.5017,0,0,0,16.2471,2.5347,51.4134,51.4134,0,0,0,21.5073-4.2495A41.0475,41.0475,0,0,0,223.22,569.6529l-8.8759-7.4663a35.6552,35.6552,0,0,1-12.5381,10.3554,38.7335,38.7335,0,0,1-31.7432.3745,36.0072,36.0072,0,0,1-12.0224-8.8281,39.9927,39.9927,0,0,1-7.8184-13.1474,47.4248,47.4248,0,0,1-2.7954-16.2251,44.2161,44.2161,0,0,1,6.9736-24.021,40.425,40.425,0,0,1,8.0542-9.1094,36.32,36.32,0,0,1,10.4951-6.0816,35.8491,35.8491,0,0,1,12.5147-2.207,32.77,32.77,0,0,1,9.415,1.36,30.7539,30.7539,0,0,1,8.5484,4.0395,29.117,29.117,0,0,1,6.9736,6.7144Zm13.13,86.64h10.9883v-32.12a37.46,37.46,0,0,1,2.0195-13.0556,17.1867,17.1867,0,0,1,6.34-8.4532,18.95,18.95,0,0,1,10.9405-3.0058,21.5615,21.5615,0,0,1,3.0058.2119,18.8446,18.8446,0,0,1,2.9121.6353l.7036-11.1309a10.5882,10.5882,0,0,0-2.3007-.562,17.9244,17.9244,0,0,0-2.2071-.1426,26.8718,26.8718,0,0,0-9.8618,1.8081,24.2334,24.2334,0,0,0-7.5127,4.603,18.9315,18.9315,0,0,0-4.6025,6.1265h-.2827c-.0235-1.83-.0694-3.6606-.14-5.47-.0947-1.8306-.1416-3.6162-.1416-5.3755H233.252q.0336,3.2739.2807,7.1851.2462,3.9066.2813,8.4516Zm39.333-32.9658a37.1505,37.1505,0,0,0,2.6548,14.0874A31.7137,31.7137,0,0,0,283.15,576.65a33.0706,33.0706,0,0,0,11.1533,7.1148,40.6246,40.6246,0,0,0,28.1285,0,32.8479,32.8479,0,0,0,11.1523-7.1148,31.7429,31.7429,0,0,0,7.3491-10.9414,38.7228,38.7228,0,0,0,0-28.1767,31.8651,31.8651,0,0,0-7.3491-10.9644,33.13,33.13,0,0,0-11.1523-7.0889,40.5882,40.5882,0,0,0-28.1285,0,33.3564,33.3564,0,0,0-11.1533,7.0889,31.8358,31.8358,0,0,0-7.3486,10.9644A37.1623,37.1623,0,0,0,273.147,551.6211Zm11.834,0a27.932,27.932,0,0,1,1.644-9.65,23.43,23.43,0,0,1,4.7207-7.7963,21.4833,21.4833,0,0,1,7.3706-5.188,25.7239,25.7239,0,0,1,19.3013,0,21.51,21.51,0,0,1,7.3726,5.188,23.45,23.45,0,0,1,4.7192,7.7963,29.1394,29.1394,0,0,1,0,19.3013,23.6875,23.6875,0,0,1-4.7192,7.794,21.5048,21.5048,0,0,1-7.3726,5.1879,25.7176,25.7176,0,0,1-19.3013,0,21.4777,21.4777,0,0,1-7.3706-5.1879,23.6675,23.6675,0,0,1-4.7207-7.794A27.9463,27.9463,0,0,1,284.981,551.6211ZM349.3916,574.02a29.56,29.56,0,0,0,7.043,7.3037,25.11,25.11,0,0,0,8.4526,3.85,44.4348,44.4348,0,0,0,19.794-.0225,26.689,26.689,0,0,0,8.4292-3.64,18.22,18.22,0,0,0,5.9873-6.4092,19.4,19.4,0,0,0,2.2783-9.5332,19.0651,19.0651,0,0,0-1.7148-8.36,15.6271,15.6271,0,0,0-4.6724-5.6337,25.9239,25.9239,0,0,0-6.8565-3.5689,58.1633,58.1633,0,0,0-8.312-2.1606c-2.207-.4214-4.2973-.8936-6.2924-1.4331a34.0234,34.0234,0,0,1-5.3062-1.9239,11.1921,11.1921,0,0,1-3.6636-2.6533,5.3641,5.3641,0,0,1-1.3623-3.5688,7.1848,7.1848,0,0,1,1.1748-4.04,9.0813,9.0813,0,0,1,3.0288-2.8623,15.2257,15.2257,0,0,1,4.18-1.6919,19.0586,19.0586,0,0,1,4.5786-.5639,15.8969,15.8969,0,0,1,8.3589,2.207,16.3786,16.3786,0,0,1,5.5879,5.6821l9.1577-6.0571a20.8953,20.8953,0,0,0-5.7519-6.8569,23.2,23.2,0,0,0-7.7031-3.897,32.0479,32.0479,0,0,0-8.9444-1.2217,33.011,33.011,0,0,0-9.0176,1.2461,26.2143,26.2143,0,0,0-7.9111,3.6606,18.67,18.67,0,0,0-5.59,6.0816,16.9961,16.9961,0,0,0-2.1358,8.4541,17.2463,17.2463,0,0,0,1.8784,8.3574,14.3273,14.3273,0,0,0,5.0484,5.2842,30.5155,30.5155,0,0,0,7.396,3.2637c2.7934.8217,5.7749,1.5712,8.9218,2.2539,1.7852.3745,3.5.7978,5.1661,1.29a22.1242,22.1242,0,0,1,4.53,1.855,9.2846,9.2846,0,0,1,3.1934,2.8891,8.035,8.035,0,0,1,1.1982,4.3892,8.4815,8.4815,0,0,1-1.291,4.6265,10.1563,10.1563,0,0,1-3.38,3.1474,16.5923,16.5923,0,0,1-4.6495,1.8062,24.1769,24.1769,0,0,1-5.19.5639,20.0247,20.0247,0,0,1-6.8555-1.103,18.4239,18.4239,0,0,1-5.4472-3.1,30.9667,30.9667,0,0,1-4.6021-4.6719Zm56.0967,0a29.5619,29.5619,0,0,0,7.0435,7.3037,25.117,25.117,0,0,0,8.4526,3.85,44.4342,44.4342,0,0,0,19.7939-.0225,26.6809,26.6809,0,0,0,8.43-3.64,18.2084,18.2084,0,0,0,5.9859-6.4092,19.375,19.375,0,0,0,2.2783-9.5332,19.0662,19.0662,0,0,0-1.7124-8.36,15.6526,15.6526,0,0,0-4.6729-5.6337,25.95,25.95,0,0,0-6.8569-3.5689,58.2177,58.2177,0,0,0-8.311-2.1606c-2.209-.4214-4.2979-.8936-6.294-1.4331a34.1192,34.1192,0,0,1-5.3066-1.9239,11.2081,11.2081,0,0,1-3.6636-2.6533,5.3652,5.3652,0,0,1-1.3613-3.5688,7.18,7.18,0,0,1,1.1748-4.04,9.0721,9.0721,0,0,1,3.0288-2.8623,15.2385,15.2385,0,0,1,4.18-1.6919,19.0489,19.0489,0,0,1,4.5771-.5639,15.9007,15.9007,0,0,1,8.36,2.207,16.3508,16.3508,0,0,1,5.5869,5.6821l9.1582-6.0571a20.8763,20.8763,0,0,0-5.7515-6.8569,23.1914,23.1914,0,0,0-7.7026-3.897,32.0549,32.0549,0,0,0-8.9443-1.2217,33,33,0,0,0-9.0176,1.2461,26.2121,26.2121,0,0,0-7.9111,3.6606,18.67,18.67,0,0,0-5.59,6.0816,16.985,16.985,0,0,0-2.1362,8.4541,17.2442,17.2442,0,0,0,1.8784,8.3574,14.32,14.32,0,0,0,5.0483,5.2842,30.5362,30.5362,0,0,0,7.396,3.2637c2.7945.8217,5.7754,1.5712,8.9214,2.2539,1.7852.3745,3.4995.7978,5.167,1.29a22.1368,22.1368,0,0,1,4.53,1.855,9.3,9.3,0,0,1,3.1943,2.8891,8.0433,8.0433,0,0,1,1.1973,4.3892,8.474,8.474,0,0,1-1.291,4.6265,10.1427,10.1427,0,0,1-3.3819,3.1474,16.5731,16.5731,0,0,1-4.6484,1.8062,24.1868,24.1868,0,0,1-5.1894.5639,20.0247,20.0247,0,0,1-6.8555-1.103,18.4133,18.4133,0,0,1-5.4473-3.1,30.9693,30.9693,0,0,1-4.6025-4.6719Z" transform="translate(-134.7471 -197.4955)"/><path class="cls-3" d="M316.145,214.3213h0a57.8536,57.8536,0,0,1,81.5772,0L417.4707,234.07,403.3516,248.188l-20.3462-20.3457a37.8262,37.8262,0,0,0-53.34,0l-.0009.0005a37.83,37.83,0,0,0,0,53.3379l52.8921,52.8916-14.1192,14.12L316.145,295.8994a57.854,57.854,0,0,1,0-81.5781m10.0542,40.751A30.6963,30.6963,0,1,0,356.895,224.377,30.6966,30.6966,0,0,0,326.1992,255.0723Z" transform="translate(-134.7471 -197.4955)"/><path class="cls-4" d="M527.8155,425.9908h0a57.852,57.852,0,0,1-81.5772,0L426.2471,406l14.1177-14.1186,20.59,20.59a37.8275,37.8275,0,0,0,53.3389,0l.0019-.001a37.8311,37.8311,0,0,0,0-53.3388l-52.8911-52.8906,14.1191-14.1192,52.2916,52.2925a57.8514,57.8514,0,0,1,0,81.5767M517.76,385.24a30.6958,30.6958,0,1,0-30.6948,30.6958A30.6952,30.6952,0,0,0,517.76,385.24Z" transform="translate(-134.7471 -197.4955)"/><path class="cls-5" d="M340.3975,320.1621l.0049-.0053,14.1191,14.1181-.0059.0054ZM316.146,425.9927l-.001-.0019a57.8531,57.8531,0,0,1,0-81.5767l19.9864-19.9858L350.25,338.5469l-20.5859,20.5845a37.8292,37.8292,0,0,0,0,53.3388l.0009.001a37.8324,37.8324,0,0,0,53.34,0L435.896,359.58l14.1192,14.1192-52.293,52.2934A57.8542,57.8542,0,0,1,316.146,425.9927Zm40.75-10.0557a30.696,30.696,0,1,0-30.6958-30.6962A30.6969,30.6969,0,0,0,356.8965,415.937Z" transform="translate(-134.7471 -197.4955)"/><path class="cls-6" d="M503.5923,320.1211l-.0356.0347-14.1172-14.1187.0351-.0346ZM527.8155,214.32v.001a57.8546,57.8546,0,0,1,0,81.5772L507.8584,315.856l-14.12-14.1187,20.5571-20.5566a37.8263,37.8263,0,0,0,0-53.3379l-.0019-.0005a37.8273,37.8273,0,0,0-53.3389,0l-52.8906,52.89-14.12-14.1182L446.2383,214.32A57.8545,57.8545,0,0,1,527.8155,214.32Zm-40.752,10.0557A30.6961,30.6961,0,1,0,517.76,255.0718,30.696,30.696,0,0,0,487.0635,224.376Z" transform="translate(-134.7471 -197.4955)"/></svg>