<?xml version="1.0" encoding="utf-8"?>
<!-- Generator: Adobe Illustrator 21.0.2, SVG Export Plug-In . SVG Version: 6.00 Build 0)  -->
<svg version="1.1" id="Layer_1" xmlns="http://www.w3.org/2000/svg" xmlns:xlink="http://www.w3.org/1999/xlink" x="0px" y="0px"
	 viewBox="0 0 892 306" style="enable-background:new 0 0 892 306;" xml:space="preserve">
<style type="text/css">
	.st0{fill-rule:evenodd;clip-rule:evenodd;fill:#000000;}
	.st1{fill:#000000;}
	.st2{fill-rule:evenodd;clip-rule:evenodd;fill:#D47050;}
</style>
<g>
	<g>
		<g>
			<path class="st0" d="M173.1,135.8c0,0,0,8.7,0,8.4c-18.8,7.6-37.8,14.8-56.6,22.3c18.7,7.7,38,14.7,56.6,22.3c0,2.7,0,5.4,0,8.2
				c-23.7-8.6-46.6-17.9-70.1-26.6c0-2.6,0-5.1,0-7.7C126.4,153.8,149.8,144.7,173.1,135.8z"/>
			<path class="st0" d="M305.3,162.7c0,2.6,0,5.1,0,7.7c-23.6,8.6-46.4,18-70.1,26.6c0-2.8,0-5.6,0-8.4c19-7.3,37.9-14.6,56.6-22.1
				c-18.9-7.4-37.9-14.8-56.6-22.3c0-2.8,0-5.6,0-8.4C258.7,144.7,281.8,153.9,305.3,162.7z"/>
		</g>
		<path class="st0" d="M220.3,135.5c15.7,0-7.7,0,8,0c0,0.3,0,3.6,0,3.6c-11,15.4-22.6,31.9-33.4,47.3c-0.5,0.7-0.5,0.7-0.5,0.7
			l-6.6,9.4l0,0c0,0,2.3,0-6.6,0c0-1.8,0-3.5,0-5.3c5.7-7.9,11.4-16.3,17.3-24.5c5.4-7.6,11.3-15.3,16.1-23c0.2-0.2,0,0,0,0"/>
	</g>
	<g>
		<path class="st1" d="M329.2,133.7h46.7l-36,53.2h34.9v6.8h-49l36-53.3h-32.6V133.7z"/>
		<path class="st1" d="M449.3,133.7v60h-8.1v-10.3c-3.4,3.9-7.3,6.9-11.6,8.9c-4.3,2-8.9,3-14,3c-9,0-16.7-3.1-23.1-9.2
			c-6.4-6.2-9.6-13.7-9.6-22.5c0-8.6,3.2-16,9.7-22.2c6.4-6.1,14.2-9.2,23.2-9.2c5.2,0,10,1,14.2,3.1c4.2,2.1,7.9,5.2,11.1,9.4v-11
			H449.3z M416.6,139.6c-4.6,0-8.8,1.1-12.6,3.2c-3.9,2.1-6.9,5.1-9.2,8.9c-2.3,3.8-3.4,7.9-3.4,12.1c0,4.2,1.1,8.3,3.4,12.1
			c2.3,3.9,5.4,6.9,9.3,9c3.9,2.2,8,3.2,12.5,3.2c4.5,0,8.7-1.1,12.7-3.2c4-2.1,7.1-5,9.3-8.7c2.2-3.6,3.2-7.7,3.2-12.3
			c0-6.9-2.4-12.8-7.3-17.4C429.6,142,423.7,139.6,416.6,139.6z"/>
		<path class="st1" d="M467.1,110.6h8.2v83.2h-8.2V110.6z"/>
		<path class="st1" d="M546.5,173.9l6.9,3.4c-2.3,4.2-4.9,7.6-7.8,10.2c-3,2.6-6.3,4.5-10,5.9c-3.7,1.3-7.9,2-12.6,2
			c-10.4,0-18.5-3.2-24.4-9.6c-5.9-6.4-8.8-13.7-8.8-21.8c0-7.6,2.5-14.4,7.4-20.4c6.3-7.6,14.7-11.4,25.2-11.4
			c10.9,0,19.5,3.9,26,11.6c4.6,5.5,6.9,12.3,7,20.5h-57.3c0.2,7,2.5,12.7,7.1,17.2c4.6,4.5,10.2,6.7,16.9,6.7
			c3.2,0,6.4-0.5,9.5-1.6c3.1-1.1,5.7-2.5,7.8-4.2C541.7,180.6,544,177.8,546.5,173.9z M546.5,157.7c-1.1-4.1-2.7-7.4-4.8-9.9
			c-2.1-2.5-4.9-4.5-8.3-6c-3.4-1.5-7-2.3-10.8-2.3c-6.2,0-11.6,1.9-16.1,5.7c-3.3,2.8-5.8,6.9-7.4,12.4H546.5z"/>
		<path class="st1" d="M562.8,133.7h8.4l19.5,43.6l20.3-43.6h1.5l20.4,43.6l19.9-43.6h8.5l-27.6,60h-1.5l-20.4-43l-20.3,43H590
			L562.8,133.7z"/>
		<path class="st1" d="M703.5,140.3l-5.3,5.1c-4.4-4-8.7-6-12.8-6c-2.7,0-4.9,0.8-6.8,2.5c-1.9,1.7-2.8,3.6-2.8,5.8
			c0,2,0.8,3.8,2.3,5.6c1.6,1.8,4.8,3.9,9.8,6.3c6.1,3,10.2,5.8,12.4,8.6c2.1,2.8,3.2,5.9,3.2,9.4c0,4.9-1.8,9.1-5.5,12.5
			c-3.7,3.4-8.3,5.1-13.8,5.1c-3.7,0-7.2-0.8-10.5-2.3c-3.3-1.5-6.1-3.6-8.3-6.2l5.1-5.5c4.2,4.5,8.6,6.7,13.3,6.7
			c3.3,0,6.1-1,8.4-3c2.3-2,3.5-4.3,3.5-7c0-2.2-0.8-4.2-2.3-5.9c-1.5-1.7-5-3.8-10.3-6.4c-5.7-2.8-9.7-5.6-11.7-8.3
			c-2.1-2.7-3.1-5.8-3.1-9.3c0-4.6,1.7-8.4,5-11.4c3.3-3,7.5-4.5,12.5-4.5C691.7,132.2,697.6,134.9,703.5,140.3z"/>
		<path class="st1" d="M718.6,110.6h8.2V158l29.5-24.2h12l-35,28.6l37,31.4h-11.5l-32.1-27v27h-8.2V110.6z"/>
		<path class="st1" d="M782.2,109c1.9,0,3.5,0.6,4.8,1.9c1.3,1.3,2,2.8,2,4.5c0,1.7-0.7,3.2-2,4.5c-1.3,1.3-2.9,1.9-4.8,1.9
			c-1.8,0-3.4-0.6-4.7-1.9c-1.3-1.2-2-2.7-2-4.5c0-1.8,0.7-3.3,2-4.5C778.8,109.6,780.4,109,782.2,109z M778.2,133.7h8.2v60h-8.2
			V133.7z"/>
	</g>
	<polygon class="st2" points="215,143.2 181.3,143.2 181.3,135.5 220.3,135.5 	"/>
	<polygon class="st2" points="193.2,189 228.3,189 228.3,196.6 187.9,196.5 	"/>
</g>
</svg>
