<svg id="svg" version="1.1" xmlns="http://www.w3.org/2000/svg" xmlns:xlink="http://www.w3.org/1999/xlink" width="400" height="90.70986183897094" viewBox="0, 0, 400,90.70986183897094"><g id="svgg"><path id="path0" d="M106.743 27.708 C 106.700 27.823,106.683 35.679,106.707 45.167 L 106.750 62.417 116.708 62.460 L 126.667 62.503 126.667 60.001 L 126.667 57.500 129.167 57.500 L 131.667 57.500 131.667 44.996 L 131.667 32.491 129.208 32.537 L 126.750 32.583 126.710 44.667 C 126.687 51.313,126.669 56.919,126.668 57.125 L 126.667 57.500 119.167 57.500 L 111.667 57.500 111.667 45.000 L 111.667 32.500 119.167 32.500 L 126.667 32.500 126.667 30.000 L 126.667 27.500 116.745 27.500 C 108.961 27.500,106.806 27.545,106.743 27.708 M143.333 45.000 L 143.333 62.502 155.792 62.459 L 168.250 62.417 168.250 60.000 L 168.250 57.583 158.250 57.500 L 148.250 57.417 148.250 52.500 L 148.250 47.583 155.792 47.540 L 163.333 47.497 163.333 45.000 L 163.333 42.503 155.792 42.460 L 148.250 42.417 148.250 37.500 L 148.250 32.583 158.250 32.500 L 168.250 32.417 168.250 30.000 L 168.250 27.583 155.792 27.541 L 143.333 27.498 143.333 45.000 M180.000 40.000 L 180.000 52.500 182.500 52.500 L 185.000 52.500 185.000 55.000 L 185.000 57.500 187.500 57.500 L 190.000 57.500 190.000 60.004 L 190.000 62.509 192.458 62.463 L 194.917 62.417 194.917 60.000 L 194.917 57.583 192.463 57.537 L 190.009 57.491 189.963 55.037 L 189.917 52.583 187.417 52.500 L 184.917 52.417 184.874 39.958 L 184.831 27.500 182.416 27.500 L 180.000 27.500 180.000 40.000 M199.959 39.958 L 199.917 52.417 197.458 52.463 L 195.000 52.509 195.000 55.004 L 195.000 57.500 197.417 57.500 L 199.833 57.500 199.833 55.000 L 199.833 52.500 202.333 52.500 L 204.833 52.500 204.833 40.000 L 204.833 27.500 202.418 27.500 L 200.002 27.500 199.959 39.958 M52.949 32.607 C 52.885 32.670,52.833 33.797,52.833 35.111 L 52.833 37.500 50.333 37.500 L 47.833 37.500 47.833 40.000 L 47.833 42.500 45.333 42.500 L 42.833 42.500 42.833 44.996 L 42.833 47.491 40.375 47.537 L 37.917 47.583 37.871 50.037 L 37.824 52.491 35.371 52.537 L 32.917 52.583 32.871 55.042 L 32.824 57.500 35.329 57.500 L 37.833 57.500 37.833 55.000 L 37.833 52.500 40.333 52.500 L 42.833 52.500 42.833 50.000 L 42.833 47.500 45.333 47.500 L 47.833 47.500 47.833 45.000 L 47.833 42.500 50.333 42.500 L 52.833 42.500 52.833 40.000 L 52.833 37.500 55.338 37.500 L 57.842 37.500 57.796 35.042 L 57.750 32.583 55.407 32.537 C 54.119 32.512,53.012 32.543,52.949 32.607 M77.500 34.996 L 77.500 37.500 80.004 37.500 L 82.509 37.500 82.463 35.042 L 82.417 32.583 79.958 32.537 L 77.500 32.491 77.500 34.996 M304.403 34.395 C 302.079 35.446,302.737 39.168,305.245 39.166 C 307.560 39.164,308.530 35.844,306.587 34.571 C 306.020 34.199,305.014 34.118,304.403 34.395 M72.500 40.000 L 72.500 42.500 70.000 42.500 L 67.500 42.500 67.500 45.000 L 67.500 47.500 65.000 47.500 L 62.500 47.500 62.500 49.996 L 62.500 52.491 60.042 52.537 L 57.583 52.583 57.537 55.042 L 57.491 57.500 59.996 57.500 L 62.500 57.500 62.500 55.004 L 62.500 52.509 64.958 52.463 L 67.417 52.417 67.463 49.958 L 67.509 47.500 69.917 47.500 L 72.324 47.500 72.371 45.042 L 72.417 42.583 74.875 42.537 L 77.333 42.491 77.333 39.996 L 77.333 37.500 74.917 37.500 L 72.500 37.500 72.500 40.000 M289.833 41.333 L 289.833 44.167 288.167 44.167 L 286.500 44.167 286.500 45.000 L 286.500 45.833 288.083 45.833 L 289.667 45.833 289.670 52.125 C 289.675 62.231,289.900 62.753,294.250 62.747 C 297.117 62.743,298.881 62.135,298.968 61.120 L 299.019 60.526 297.134 60.609 C 293.397 60.772,293.431 60.846,293.368 52.375 L 293.319 45.833 295.909 45.833 L 298.500 45.833 298.500 45.004 L 298.500 44.175 295.875 44.129 L 293.250 44.083 293.204 41.292 L 293.159 38.500 291.496 38.500 L 289.833 38.500 289.833 41.333 M368.170 43.991 L 367.967 44.482 367.108 44.133 C 363.814 42.793,359.679 43.945,358.333 46.578 C 356.482 50.198,358.346 52.988,363.796 54.755 C 367.105 55.828,368.031 56.647,368.022 58.491 C 367.998 63.459,360.493 62.247,358.748 56.993 C 358.473 56.166,358.455 56.150,357.859 56.199 L 357.250 56.250 357.310 59.333 C 357.378 62.876,357.324 62.667,358.169 62.667 C 358.779 62.667,358.825 62.631,358.928 62.083 C 359.062 61.370,358.995 61.369,360.423 62.093 C 364.764 64.293,370.161 62.275,370.814 58.207 C 371.363 54.793,369.867 53.049,364.908 51.322 C 361.357 50.086,360.583 49.434,360.583 47.679 C 360.583 43.734,366.606 44.185,368.325 48.259 C 368.790 49.360,368.841 49.417,369.365 49.417 L 369.917 49.417 369.882 48.417 C 369.863 47.867,369.799 46.535,369.740 45.458 L 369.634 43.500 369.004 43.500 C 368.463 43.500,368.345 43.570,368.170 43.991 M224.376 43.901 C 223.417 44.213,222.237 44.993,221.340 45.908 C 220.367 46.902,220.355 46.895,220.298 45.292 L 220.250 43.917 218.917 43.977 C 218.183 44.010,216.758 44.085,215.750 44.143 L 213.917 44.250 213.866 44.852 C 213.817 45.441,213.832 45.457,214.509 45.565 C 216.822 45.935,216.832 45.970,216.833 53.617 C 216.833 61.254,216.913 60.943,214.875 61.254 C 214.201 61.357,214.167 61.390,214.167 61.931 L 214.167 62.500 218.667 62.500 L 223.167 62.500 223.167 61.919 C 223.167 61.368,223.131 61.332,222.491 61.229 C 220.422 60.898,220.339 60.622,220.336 54.113 L 220.333 48.643 220.820 47.936 C 222.546 45.427,226.027 45.103,227.577 47.308 L 228.083 48.028 228.133 54.102 L 228.182 60.177 227.687 60.672 C 227.415 60.944,227.018 61.168,226.804 61.169 C 225.920 61.174,225.667 61.345,225.667 61.936 L 225.667 62.500 230.000 62.500 L 234.333 62.500 234.333 61.924 C 234.333 61.390,234.288 61.340,233.708 61.235 C 231.645 60.862,231.667 60.936,231.667 54.228 L 231.667 48.530 232.323 47.700 C 233.751 45.893,236.469 45.243,237.989 46.345 C 239.362 47.339,239.410 47.590,239.463 54.083 C 239.521 61.072,239.561 60.929,237.458 61.252 C 236.875 61.342,236.833 61.387,236.833 61.927 L 236.833 62.505 241.292 62.461 L 245.750 62.417 245.750 61.921 C 245.750 61.514,245.660 61.398,245.250 61.275 C 242.843 60.557,243.000 61.032,242.999 54.450 C 242.998 48.524,242.902 47.550,242.176 46.083 C 240.515 42.732,235.838 42.759,232.276 46.142 L 231.635 46.750 231.368 46.333 C 229.928 44.087,226.968 43.058,224.376 43.901 M254.521 43.991 C 247.441 46.614,246.758 58.757,253.500 62.130 C 257.301 64.032,262.288 62.696,264.528 59.176 C 265.116 58.252,265.115 58.140,264.516 57.786 C 263.876 57.408,263.927 57.387,263.310 58.292 C 261.937 60.305,260.845 60.909,258.583 60.909 C 254.859 60.908,252.509 58.029,252.501 53.458 L 252.500 52.667 258.583 52.667 L 264.667 52.667 264.667 51.439 C 264.667 47.969,263.304 45.492,260.691 44.214 C 259.406 43.585,255.953 43.461,254.521 43.991 M272.458 43.838 C 269.306 44.630,267.545 47.064,267.248 51.040 L 267.127 52.663 273.272 52.706 L 279.417 52.750 279.468 53.285 C 279.646 55.121,278.536 58.314,277.304 59.510 C 274.759 61.979,270.385 61.339,268.563 58.231 C 268.066 57.382,268.119 57.399,267.395 57.847 C 266.690 58.283,266.688 58.266,267.557 59.446 C 271.571 64.899,279.945 63.984,282.320 57.833 C 285.385 49.896,279.814 41.990,272.458 43.838 M323.740 43.816 C 322.877 44.034,321.544 44.845,320.513 45.778 C 319.279 46.895,319.333 46.915,319.333 45.343 C 319.333 44.615,319.275 43.983,319.203 43.939 C 318.959 43.788,313.252 44.227,313.128 44.406 C 312.800 44.880,312.991 45.500,313.465 45.500 C 314.213 45.500,315.356 46.182,315.700 46.833 C 315.986 47.376,316.004 47.867,315.962 53.890 L 315.917 60.362 315.449 60.765 C 315.192 60.986,314.779 61.168,314.532 61.169 C 313.585 61.174,313.333 61.334,313.333 61.936 L 313.333 62.500 317.750 62.500 L 322.167 62.500 322.167 61.920 C 322.167 61.423,322.101 61.325,321.708 61.238 C 320.655 61.005,320.194 60.800,319.816 60.399 L 319.417 59.974 319.367 54.395 C 319.311 48.217,319.281 48.415,320.447 47.301 C 322.651 45.193,325.830 45.352,326.946 47.625 L 327.417 48.583 327.462 54.250 C 327.515 60.742,327.490 60.877,326.216 61.086 C 324.609 61.349,324.667 61.317,324.667 61.930 L 324.667 62.500 329.167 62.500 L 333.667 62.500 333.667 61.928 C 333.667 61.371,333.644 61.352,332.765 61.170 C 332.250 61.063,331.678 60.811,331.432 60.583 L 331.000 60.183 330.999 54.716 C 330.997 46.799,330.585 45.239,328.185 44.051 C 327.527 43.726,324.687 43.576,323.740 43.816 M341.402 43.971 C 336.537 45.652,335.626 51.317,339.775 54.088 C 340.311 54.446,340.811 54.787,340.886 54.847 C 340.961 54.907,340.611 55.188,340.107 55.472 C 337.249 57.085,337.580 60.303,340.708 61.322 C 341.596 61.611,341.488 61.772,340.265 61.985 C 336.515 62.638,334.870 65.763,336.842 68.485 C 338.655 70.988,346.079 71.646,350.400 69.686 C 354.073 68.021,355.192 63.712,352.669 60.951 C 351.416 59.580,350.677 59.325,347.422 59.142 C 341.820 58.828,341.139 58.673,340.768 57.631 C 340.278 56.257,341.245 55.615,344.000 55.485 C 349.579 55.221,352.607 50.875,350.055 46.795 C 349.458 45.840,349.471 45.833,351.750 45.833 L 353.833 45.833 353.833 45.000 L 353.833 44.167 350.675 44.167 C 348.405 44.167,347.246 44.096,346.556 43.917 C 345.213 43.567,342.488 43.595,341.402 43.971 M303.333 44.066 L 300.583 44.250 300.532 44.875 C 300.486 45.432,300.522 45.500,300.865 45.501 C 301.632 45.503,302.544 45.869,303.141 46.416 L 303.750 46.974 303.797 53.578 L 303.844 60.181 303.352 60.674 C 303.040 60.985,302.685 61.168,302.388 61.169 C 301.417 61.174,301.167 61.331,301.167 61.936 L 301.167 62.500 305.583 62.500 L 310.000 62.500 310.000 61.920 C 310.000 61.423,309.934 61.325,309.542 61.238 C 307.242 60.729,307.431 61.516,307.333 52.024 L 307.250 43.917 306.667 43.899 C 306.346 43.889,304.846 43.964,303.333 44.066 M345.718 45.431 C 346.867 46.191,347.635 48.661,347.328 50.606 C 346.458 56.113,340.784 55.238,340.771 49.595 C 340.761 45.737,343.147 43.729,345.718 45.431 M258.547 45.230 C 259.888 45.806,260.762 47.496,260.948 49.875 L 261.049 51.167 256.775 51.167 L 252.500 51.167 252.500 50.675 C 252.500 46.958,255.751 44.030,258.547 45.230 M276.122 45.252 C 277.809 45.753,279.084 47.709,279.432 50.332 L 279.543 51.167 275.271 51.167 L 271.000 51.167 271.001 50.458 C 271.008 46.389,273.030 44.334,276.122 45.252 M349.573 62.752 C 352.187 64.071,351.058 68.161,347.833 69.057 C 341.913 70.700,336.771 66.758,340.395 63.354 C 341.541 62.277,347.815 61.866,349.573 62.752 " stroke="none" fill="#fbf8f8" fill-rule="evenodd"></path><path id="path1" d="M0.000 45.333 L 0.000 90.667 200.000 90.667 L 400.000 90.667 400.000 45.333 L 400.000 0.000 200.000 0.000 L 0.000 0.000 0.000 45.333 M126.963 29.875 L 127.009 32.333 129.421 32.333 L 131.833 32.333 131.833 45.000 L 131.833 57.667 129.417 57.667 L 127.000 57.667 127.000 60.167 L 127.000 62.667 116.750 62.667 L 106.500 62.667 106.500 44.999 L 106.500 27.331 116.708 27.374 L 126.917 27.417 126.963 29.875 M168.463 30.042 L 168.508 32.667 158.504 32.667 L 148.500 32.667 148.500 37.500 L 148.500 42.333 156.000 42.333 L 163.500 42.333 163.500 45.000 L 163.500 47.667 156.000 47.667 L 148.500 47.667 148.500 52.500 L 148.500 57.333 158.500 57.333 L 168.500 57.333 168.500 60.001 L 168.500 62.669 155.792 62.626 L 143.083 62.583 143.040 45.167 C 143.017 35.587,143.033 27.656,143.077 27.541 C 143.140 27.375,145.771 27.340,155.787 27.374 L 168.417 27.417 168.463 30.042 M185.126 39.875 L 185.169 52.333 187.584 52.333 L 190.000 52.333 190.000 54.833 L 190.000 57.333 192.329 57.333 L 194.658 57.333 194.704 54.875 L 194.750 52.417 197.207 52.371 L 199.665 52.324 199.707 39.871 L 199.750 27.417 202.417 27.417 L 205.083 27.417 205.083 40.000 L 205.083 52.583 202.625 52.629 L 200.167 52.676 200.167 55.171 L 200.167 57.667 197.667 57.667 L 195.167 57.667 195.167 60.171 L 195.167 62.675 192.458 62.629 L 189.750 62.583 189.704 60.125 L 189.658 57.667 187.246 57.667 L 184.833 57.667 184.833 55.171 L 184.833 52.675 182.292 52.629 L 179.750 52.583 179.707 40.167 C 179.683 33.337,179.700 27.654,179.745 27.537 C 179.807 27.375,180.443 27.336,182.455 27.371 L 185.083 27.417 185.126 39.875 M58.000 35.000 L 58.000 37.667 55.500 37.667 L 53.000 37.667 53.000 40.162 L 53.000 42.658 50.542 42.704 L 48.083 42.750 48.037 45.208 L 47.991 47.667 45.496 47.667 L 43.000 47.667 43.000 50.167 L 43.000 52.667 40.500 52.667 L 38.000 52.667 38.000 55.167 L 38.000 57.667 35.333 57.667 L 32.667 57.667 32.667 55.000 L 32.667 52.333 35.167 52.333 L 37.667 52.333 37.667 49.833 L 37.667 47.333 40.167 47.333 L 42.667 47.333 42.667 44.833 L 42.667 42.333 45.167 42.333 L 47.667 42.333 47.667 39.833 L 47.667 37.333 50.167 37.333 L 52.667 37.333 52.667 34.944 C 52.667 32.055,52.370 32.333,55.444 32.333 L 58.000 32.333 58.000 35.000 M82.583 35.000 L 82.583 37.583 80.125 37.629 L 77.667 37.676 77.667 40.171 L 77.667 42.667 75.167 42.667 L 72.667 42.667 72.667 45.167 L 72.667 47.667 70.171 47.667 L 67.676 47.667 67.629 50.125 L 67.583 52.583 65.129 52.629 L 62.676 52.676 62.629 55.129 L 62.583 57.583 59.958 57.629 L 57.333 57.675 57.333 55.004 L 57.333 52.333 59.833 52.333 L 62.333 52.333 62.333 49.833 L 62.333 47.333 64.746 47.333 L 67.158 47.333 67.204 44.875 L 67.250 42.417 69.704 42.371 L 72.158 42.324 72.204 39.871 L 72.250 37.417 74.792 37.371 L 77.333 37.325 77.333 34.825 L 77.333 32.325 79.958 32.371 L 82.583 32.417 82.583 35.000 M112.000 45.000 L 112.000 57.333 119.250 57.333 L 126.500 57.333 126.500 45.000 L 126.500 32.667 119.250 32.667 L 112.000 32.667 112.000 45.000 M306.627 34.332 C 308.720 35.609,308.003 39.050,305.566 39.420 C 303.589 39.721,302.155 37.391,303.070 35.363 C 303.630 34.121,305.425 33.600,306.627 34.332 M293.296 41.125 L 293.341 44.000 296.004 44.000 L 298.667 44.000 298.667 45.083 L 298.667 46.167 296.083 46.167 L 293.500 46.167 293.504 52.292 C 293.509 60.595,293.833 61.127,298.375 60.270 L 299.000 60.152 299.000 61.062 L 299.000 61.973 297.375 62.525 C 294.400 63.536,291.516 63.238,290.468 61.811 C 289.710 60.780,289.667 60.302,289.667 53.028 L 289.667 46.178 287.958 46.131 L 286.250 46.083 286.200 45.042 L 286.151 44.000 287.909 44.000 L 289.667 44.000 289.667 41.194 C 289.667 37.877,289.496 38.144,291.575 38.203 L 293.250 38.250 293.296 41.125 M229.036 43.915 C 229.917 44.333,231.039 45.337,231.455 46.081 C 231.615 46.367,231.711 46.321,232.607 45.520 C 235.639 42.810,239.637 42.628,241.813 45.100 C 242.995 46.442,243.042 46.756,243.153 53.889 C 243.264 61.085,243.108 60.446,244.875 60.967 L 245.833 61.250 245.833 61.958 L 245.833 62.667 241.250 62.667 L 236.667 62.667 236.667 61.938 L 236.667 61.210 237.644 61.018 C 239.334 60.685,239.250 61.038,239.250 54.261 L 239.250 48.390 238.750 47.586 C 237.425 45.455,234.454 45.526,232.565 47.733 L 232.000 48.393 232.000 54.160 C 232.000 58.995,232.040 59.983,232.248 60.280 C 232.493 60.630,233.774 61.167,234.363 61.167 C 234.612 61.167,234.667 61.302,234.667 61.919 L 234.667 62.672 230.042 62.628 L 225.417 62.583 225.366 61.892 L 225.316 61.200 226.168 61.083 C 226.686 61.012,227.197 60.814,227.469 60.581 L 227.917 60.196 227.965 54.747 C 228.016 48.933,227.925 48.066,227.149 46.975 C 226.017 45.385,222.588 45.951,221.103 47.973 L 220.500 48.795 220.500 54.156 C 220.500 60.404,220.473 60.279,221.921 60.820 C 222.429 61.011,222.956 61.167,223.090 61.167 C 223.267 61.167,223.333 61.370,223.333 61.917 L 223.333 62.667 218.667 62.667 L 214.000 62.667 214.000 61.932 L 214.000 61.198 214.840 61.082 C 215.364 61.010,215.866 60.811,216.174 60.552 L 216.667 60.137 216.667 53.709 L 216.667 47.281 216.246 46.729 C 215.967 46.364,215.587 46.114,215.121 45.989 C 213.621 45.586,213.348 45.240,213.827 44.346 C 213.979 44.062,216.540 43.809,219.750 43.760 L 220.417 43.750 220.465 45.043 L 220.514 46.337 221.672 45.340 C 224.058 43.286,226.651 42.785,229.036 43.915 M259.395 43.585 C 262.975 44.517,264.726 46.969,264.867 51.250 L 264.917 52.750 258.779 52.794 L 252.641 52.837 252.750 53.960 C 253.152 58.102,254.615 60.088,257.691 60.671 C 260.040 61.117,261.679 60.267,263.510 57.653 C 263.807 57.229,264.306 57.283,264.987 57.813 C 265.585 58.279,265.238 58.948,263.509 60.667 C 258.538 65.607,250.354 63.130,248.916 56.250 C 247.613 50.013,250.488 44.626,255.750 43.447 C 256.514 43.276,258.496 43.351,259.395 43.585 M277.811 44.001 C 282.702 45.888,284.855 52.755,282.338 58.444 C 279.703 64.403,270.710 64.890,267.151 59.267 C 266.444 58.150,266.454 57.996,267.263 57.611 C 268.105 57.209,268.255 57.254,268.721 58.049 C 269.933 60.118,272.076 61.113,274.393 60.685 C 277.253 60.156,278.877 57.968,279.260 54.125 L 279.372 53.000 273.162 53.000 L 266.953 53.000 267.067 51.197 C 267.367 46.454,269.231 44.204,273.500 43.433 C 274.561 43.241,276.503 43.497,277.811 44.001 M328.083 43.814 C 330.748 44.999,331.166 46.397,331.169 54.135 C 331.172 60.871,331.066 60.487,333.083 61.088 C 333.713 61.276,333.750 61.323,333.750 61.935 L 333.750 62.583 329.125 62.628 L 324.500 62.672 324.500 61.937 L 324.500 61.202 325.542 61.021 C 327.250 60.724,327.167 61.061,327.167 54.423 C 327.167 48.159,327.140 47.951,326.197 46.961 C 324.768 45.461,322.141 45.808,320.368 47.731 L 319.667 48.493 319.667 54.179 L 319.667 59.866 320.173 60.339 C 320.488 60.634,321.023 60.889,321.590 61.016 L 322.500 61.220 322.500 61.943 L 322.500 62.667 317.750 62.667 L 313.000 62.667 313.000 61.946 L 313.000 61.226 314.042 61.034 C 315.764 60.716,315.667 61.153,315.667 53.710 C 315.667 46.233,315.697 46.387,314.125 45.920 C 313.656 45.781,313.174 45.667,313.053 45.667 C 312.904 45.667,312.833 45.427,312.833 44.920 C 312.833 44.018,312.603 44.086,316.412 43.858 C 319.741 43.658,319.667 43.629,319.667 45.119 L 319.667 46.198 320.472 45.474 C 322.681 43.488,325.814 42.805,328.083 43.814 M346.646 43.733 C 347.226 43.945,348.073 44.000,350.779 44.000 L 354.183 44.000 354.133 45.042 L 354.083 46.083 352.059 46.130 L 350.035 46.177 350.366 46.861 C 352.579 51.441,349.779 55.443,344.212 55.658 C 341.533 55.762,340.996 56.006,340.964 57.133 C 340.928 58.397,341.649 58.634,346.209 58.854 C 351.228 59.096,352.613 59.694,353.758 62.116 C 356.476 67.862,349.239 72.533,340.539 70.649 C 334.452 69.330,334.146 62.632,340.130 61.734 L 340.867 61.624 339.844 61.133 C 337.273 59.899,337.201 57.070,339.699 55.430 C 340.640 54.813,340.639 54.818,339.958 54.447 C 335.572 52.058,336.148 45.744,340.917 43.957 C 342.757 43.267,345.120 43.175,346.646 43.733 M366.734 43.817 C 367.962 44.253,367.942 44.254,368.071 43.741 C 368.170 43.345,368.236 43.320,369.047 43.366 L 369.917 43.417 370.048 46.322 C 370.203 49.768,370.218 49.702,369.293 49.635 C 368.590 49.584,368.581 49.575,368.290 48.656 C 367.116 44.949,361.752 43.834,360.847 47.109 C 360.368 48.845,361.419 49.931,364.610 50.997 C 370.345 52.913,372.047 55.139,370.805 59.097 C 369.705 62.603,364.743 64.247,360.672 62.455 C 359.036 61.735,359.167 61.768,359.167 62.071 C 359.167 62.717,357.788 63.131,357.359 62.614 C 357.246 62.478,357.160 61.204,357.130 59.239 L 357.083 56.083 357.859 56.033 C 358.626 55.984,358.638 55.991,358.837 56.617 C 360.306 61.217,366.276 63.222,367.668 59.583 C 368.594 57.163,367.082 55.847,361.437 54.155 C 355.741 52.447,356.424 44.977,362.417 43.437 C 363.163 43.245,365.769 43.475,366.734 43.817 M307.308 43.886 C 307.433 44.037,307.505 46.605,307.537 52.036 C 307.590 61.102,307.461 60.400,309.169 60.917 L 310.167 61.219 310.167 61.943 L 310.167 62.667 305.583 62.667 L 301.000 62.667 301.000 61.935 C 301.000 61.221,301.014 61.201,301.625 61.094 C 302.791 60.888,303.283 60.660,303.475 60.237 C 303.741 59.655,303.744 47.795,303.479 47.281 C 302.999 46.349,302.426 46.003,300.950 45.755 L 300.316 45.648 300.366 44.866 L 300.417 44.083 302.750 43.963 C 304.033 43.897,305.308 43.815,305.583 43.781 C 306.671 43.648,307.134 43.676,307.308 43.886 M343.103 45.166 C 340.651 45.933,340.192 51.201,342.393 53.315 C 343.937 54.799,346.333 53.808,346.949 51.432 C 347.913 47.718,345.825 44.315,343.103 45.166 M255.540 45.588 C 254.043 46.346,253.018 48.090,252.776 50.292 L 252.698 51.000 256.787 51.000 L 260.876 51.000 260.760 49.823 C 260.382 45.980,258.224 44.229,255.540 45.588 M273.583 45.404 C 272.302 45.977,271.396 47.682,271.214 49.864 L 271.118 51.000 275.228 51.000 L 279.337 51.000 279.240 50.292 C 278.745 46.678,276.011 44.317,273.583 45.404 M341.932 62.753 C 340.098 63.450,339.215 64.991,339.674 66.694 C 340.521 69.839,348.126 70.204,350.205 67.199 C 351.246 65.693,350.920 63.763,349.483 62.917 C 348.722 62.469,343.005 62.345,341.932 62.753 " stroke="none" fill="#bc0404" fill-rule="evenodd"></path><path id="path2" d="M111.804 27.458 C 114.583 27.484,119.083 27.484,121.804 27.458 C 124.524 27.433,122.250 27.412,116.750 27.412 C 111.250 27.412,109.024 27.433,111.804 27.458 M149.554 27.458 C 153.021 27.483,158.646 27.483,162.054 27.458 C 165.462 27.433,162.625 27.412,155.750 27.413 C 148.875 27.413,146.087 27.433,149.554 27.458 M181.216 27.457 C 181.931 27.489,183.056 27.488,183.716 27.457 C 184.376 27.425,183.792 27.400,182.417 27.400 C 181.042 27.400,180.501 27.426,181.216 27.457 M201.216 27.457 C 201.931 27.489,203.056 27.488,203.716 27.457 C 204.376 27.425,203.792 27.400,202.417 27.400 C 201.042 27.400,200.501 27.426,201.216 27.457 M106.582 45.083 L 106.583 62.583 116.625 62.585 L 126.667 62.587 116.667 62.542 L 106.668 62.497 106.625 45.040 L 106.581 27.583 106.582 45.083 M168.400 30.000 C 168.400 31.329,168.425 31.873,168.457 31.208 C 168.489 30.544,168.489 29.456,168.457 28.792 C 168.425 28.127,168.400 28.671,168.400 30.000 M53.583 32.445 C 55.580 32.566,57.963 32.573,57.891 32.458 C 57.849 32.390,56.674 32.347,55.282 32.364 C 53.889 32.381,53.125 32.418,53.583 32.445 M78.708 32.457 C 79.419 32.488,80.581 32.488,81.292 32.457 C 82.002 32.426,81.421 32.400,80.000 32.400 C 78.579 32.400,77.998 32.426,78.708 32.457 M129.208 32.456 L 131.667 32.509 131.667 45.000 L 131.667 57.491 129.208 57.544 L 126.750 57.598 129.250 57.590 L 131.750 57.583 131.750 45.000 L 131.750 32.417 129.250 32.410 L 126.750 32.402 129.208 32.456 M115.636 32.625 C 117.682 32.651,120.982 32.651,122.970 32.625 C 124.957 32.598,123.283 32.577,119.250 32.577 C 115.217 32.577,113.591 32.598,115.636 32.625 M153.470 32.625 C 156.250 32.651,160.750 32.651,163.470 32.625 C 166.191 32.599,163.917 32.578,158.417 32.578 C 152.917 32.578,150.691 32.599,153.470 32.625 M49.049 37.457 C 49.764 37.489,50.889 37.488,51.549 37.457 C 52.210 37.425,51.625 37.400,50.250 37.400 C 48.875 37.400,48.335 37.426,49.049 37.457 M73.716 37.457 C 74.431 37.489,75.556 37.488,76.216 37.457 C 76.876 37.425,76.292 37.400,74.917 37.400 C 73.542 37.400,73.001 37.426,73.716 37.457 M54.216 37.624 C 54.931 37.655,56.056 37.655,56.716 37.624 C 57.376 37.592,56.792 37.566,55.417 37.567 C 54.042 37.567,53.501 37.593,54.216 37.624 M77.609 37.625 C 77.566 37.694,78.293 37.730,79.224 37.706 C 82.288 37.626,82.621 37.562,80.135 37.531 C 78.788 37.514,77.651 37.556,77.609 37.625 M289.735 41.167 C 289.735 42.771,289.760 43.427,289.791 42.625 C 289.821 41.823,289.821 40.510,289.791 39.708 C 289.760 38.906,289.735 39.563,289.735 41.167 M148.333 42.375 C 148.333 42.444,151.690 42.483,155.792 42.463 C 159.894 42.442,162.087 42.405,160.667 42.380 C 154.089 42.264,148.333 42.261,148.333 42.375 M70.875 42.448 C 71.035 42.490,71.298 42.490,71.458 42.448 C 71.619 42.406,71.487 42.372,71.167 42.372 C 70.846 42.372,70.715 42.406,70.875 42.448 M42.703 44.870 L 42.667 47.324 40.292 47.375 L 37.917 47.427 40.297 47.463 C 43.112 47.507,42.859 47.783,42.791 44.742 L 42.740 42.417 42.703 44.870 M49.216 42.624 C 49.931 42.655,51.056 42.655,51.716 42.624 C 52.376 42.592,51.792 42.566,50.417 42.567 C 49.042 42.567,48.501 42.593,49.216 42.624 M73.883 42.624 C 74.597 42.655,75.722 42.655,76.383 42.624 C 77.043 42.592,76.458 42.566,75.083 42.567 C 73.708 42.567,73.168 42.593,73.883 42.624 M47.900 45.167 C 47.900 46.496,47.925 47.040,47.957 46.375 C 47.989 45.710,47.989 44.623,47.957 43.958 C 47.925 43.294,47.900 43.837,47.900 45.167 M368.794 43.451 C 369.001 43.491,369.301 43.490,369.460 43.448 C 369.620 43.406,369.450 43.374,369.083 43.375 C 368.717 43.377,368.586 43.411,368.794 43.451 M220.390 45.417 C 220.391 46.150,220.420 46.429,220.456 46.037 C 220.491 45.645,220.490 45.045,220.454 44.704 C 220.419 44.363,220.390 44.683,220.390 45.417 M307.410 51.833 C 307.410 56.096,307.432 57.840,307.458 55.708 C 307.485 53.577,307.485 50.090,307.458 47.958 C 307.432 45.827,307.410 47.571,307.410 51.833 M312.897 44.915 C 312.912 45.422,312.987 45.587,313.212 45.607 C 313.400 45.623,313.418 45.605,313.263 45.556 C 313.126 45.513,312.988 45.208,312.948 44.865 L 312.877 44.250 312.897 44.915 M256.960 45.118 C 257.168 45.158,257.468 45.156,257.627 45.115 C 257.786 45.073,257.617 45.040,257.250 45.042 C 256.883 45.044,256.753 45.078,256.960 45.118 M363.458 45.118 C 363.665 45.157,364.002 45.157,364.208 45.118 C 364.415 45.078,364.246 45.045,363.833 45.045 C 363.421 45.045,363.252 45.078,363.458 45.118 M369.872 45.833 C 369.872 46.154,369.906 46.285,369.948 46.125 C 369.990 45.965,369.990 45.702,369.948 45.542 C 369.906 45.381,369.872 45.512,369.872 45.833 M224.627 45.951 C 224.834 45.991,225.134 45.990,225.294 45.948 C 225.453 45.906,225.283 45.874,224.917 45.875 C 224.550 45.877,224.420 45.911,224.627 45.951 M235.960 45.951 C 236.168 45.991,236.468 45.990,236.627 45.948 C 236.786 45.906,236.617 45.874,236.250 45.875 C 235.883 45.877,235.753 45.911,235.960 45.951 M323.794 45.951 C 324.001 45.991,324.301 45.990,324.460 45.948 C 324.620 45.906,324.450 45.874,324.083 45.875 C 323.717 45.877,323.586 45.911,323.794 45.951 M221.406 47.375 L 220.917 47.917 221.458 47.427 C 221.963 46.971,222.077 46.833,221.948 46.833 C 221.919 46.833,221.675 47.077,221.406 47.375 M63.716 47.457 C 64.431 47.489,65.556 47.488,66.216 47.457 C 66.876 47.425,66.292 47.400,64.917 47.400 C 63.542 47.400,63.001 47.426,63.716 47.457 M37.703 49.871 L 37.667 52.324 35.208 52.375 L 32.750 52.426 35.214 52.463 C 38.125 52.507,37.859 52.787,37.791 49.742 L 37.740 47.417 37.703 49.871 M42.870 50.037 L 42.833 52.491 40.375 52.542 L 37.917 52.593 40.380 52.630 C 43.292 52.673,43.026 52.954,42.958 49.909 L 42.906 47.583 42.870 50.037 M303.742 53.750 C 303.742 57.050,303.764 58.424,303.791 56.802 C 303.819 55.181,303.819 52.481,303.791 50.802 C 303.764 49.124,303.742 50.450,303.742 53.750 M357.539 49.000 C 357.539 49.321,357.573 49.452,357.615 49.292 C 357.657 49.131,357.657 48.869,357.615 48.708 C 357.573 48.548,357.539 48.679,357.539 49.000 M370.039 49.000 C 370.039 49.321,370.073 49.452,370.115 49.292 C 370.157 49.131,370.157 48.869,370.115 48.708 C 370.073 48.548,370.039 48.679,370.039 49.000 M337.050 49.500 C 337.050 50.004,337.081 50.210,337.119 49.958 C 337.158 49.706,337.158 49.294,337.119 49.042 C 337.081 48.790,337.050 48.996,337.050 49.500 M273.218 51.125 C 274.392 51.153,276.267 51.153,277.385 51.124 C 278.502 51.096,277.542 51.072,275.250 51.072 C 272.958 51.072,272.044 51.096,273.218 51.125 M57.442 52.458 C 57.399 52.527,58.126 52.564,59.057 52.539 C 62.121 52.460,62.455 52.395,59.968 52.364 C 58.621 52.347,57.485 52.390,57.442 52.458 M186.383 52.457 C 187.097 52.489,188.222 52.488,188.883 52.457 C 189.543 52.425,188.958 52.400,187.583 52.400 C 186.208 52.400,185.668 52.426,186.383 52.457 M196.125 52.457 C 196.790 52.489,197.877 52.489,198.542 52.457 C 199.206 52.425,198.662 52.400,197.333 52.400 C 196.004 52.400,195.460 52.425,196.125 52.457 M63.883 52.624 C 64.597 52.655,65.722 52.655,66.383 52.624 C 67.043 52.592,66.458 52.566,65.083 52.567 C 63.708 52.567,63.168 52.593,63.883 52.624 M181.216 52.624 C 181.931 52.655,183.056 52.655,183.716 52.624 C 184.376 52.592,183.792 52.566,182.417 52.567 C 181.042 52.567,180.501 52.593,181.216 52.624 M201.292 52.624 C 201.956 52.655,203.044 52.655,203.708 52.624 C 204.373 52.592,203.829 52.566,202.500 52.566 C 201.171 52.566,200.627 52.592,201.292 52.624 M338.583 53.333 C 338.941 53.700,339.272 54.000,339.318 54.000 C 339.363 54.000,339.108 53.700,338.750 53.333 C 338.392 52.967,338.062 52.667,338.016 52.667 C 337.970 52.667,338.225 52.967,338.583 53.333 M357.250 56.084 C 357.631 56.217,358.637 56.254,358.562 56.132 C 358.517 56.059,358.166 56.006,357.782 56.013 C 357.398 56.020,357.158 56.052,357.250 56.084 M366.667 56.052 C 366.667 56.081,366.910 56.325,367.208 56.594 L 367.750 57.083 367.260 56.542 C 366.804 56.037,366.667 55.923,366.667 56.052 M115.458 57.458 C 117.498 57.485,120.835 57.485,122.875 57.458 C 124.915 57.432,123.246 57.410,119.167 57.410 C 115.087 57.410,113.419 57.432,115.458 57.458 M153.470 57.458 C 156.250 57.484,160.750 57.484,163.470 57.458 C 166.191 57.433,163.917 57.412,158.417 57.412 C 152.917 57.412,150.691 57.433,153.470 57.458 M191.216 57.457 C 191.931 57.489,193.056 57.488,193.716 57.457 C 194.376 57.425,193.792 57.400,192.417 57.400 C 191.042 57.400,190.501 57.426,191.216 57.457 M34.042 57.624 C 34.752 57.655,35.915 57.655,36.625 57.624 C 37.335 57.593,36.754 57.567,35.333 57.567 C 33.912 57.567,33.331 57.593,34.042 57.624 M58.708 57.624 C 59.419 57.655,60.581 57.655,61.292 57.624 C 62.002 57.593,61.421 57.567,60.000 57.567 C 58.579 57.567,57.998 57.593,58.708 57.624 M186.125 57.624 C 186.790 57.655,187.877 57.655,188.542 57.624 C 189.206 57.592,188.662 57.566,187.333 57.566 C 186.004 57.566,185.460 57.592,186.125 57.624 M196.216 57.624 C 196.931 57.655,198.056 57.655,198.716 57.624 C 199.376 57.592,198.792 57.566,197.417 57.567 C 196.042 57.567,195.501 57.593,196.216 57.624 M168.370 60.041 L 168.333 62.498 155.792 62.542 L 143.250 62.585 155.797 62.626 C 165.958 62.659,168.360 62.626,168.427 62.450 C 168.472 62.331,168.487 61.188,168.458 59.909 L 168.406 57.583 168.370 60.041 M254.167 58.885 C 254.167 58.914,254.410 59.158,254.708 59.427 L 255.250 59.917 254.760 59.375 C 254.304 58.870,254.167 58.757,254.167 58.885 M348.708 59.115 C 348.869 59.157,349.131 59.157,349.292 59.115 C 349.452 59.073,349.321 59.039,349.000 59.039 C 348.679 59.039,348.548 59.073,348.708 59.115 M296.042 60.615 C 296.202 60.657,296.465 60.657,296.625 60.615 C 296.785 60.573,296.654 60.539,296.333 60.539 C 296.012 60.539,295.881 60.573,296.042 60.615 M272.958 60.951 C 273.165 60.991,273.502 60.991,273.708 60.951 C 273.915 60.911,273.746 60.879,273.333 60.879 C 272.921 60.879,272.752 60.911,272.958 60.951 M214.063 61.917 L 214.083 62.583 218.625 62.587 L 223.167 62.592 218.677 62.543 L 214.186 62.495 214.115 61.872 L 214.044 61.250 214.063 61.917 M346.042 62.448 C 346.202 62.490,346.465 62.490,346.625 62.448 C 346.785 62.406,346.654 62.372,346.333 62.372 C 346.012 62.372,345.881 62.406,346.042 62.448 M191.133 62.624 C 191.894 62.655,193.094 62.655,193.800 62.624 C 194.506 62.593,193.883 62.567,192.417 62.567 C 190.950 62.568,190.372 62.593,191.133 62.624 M227.718 62.625 C 228.984 62.653,231.009 62.653,232.218 62.624 C 233.427 62.596,232.392 62.573,229.917 62.573 C 227.442 62.573,226.452 62.596,227.718 62.625 M238.968 62.625 C 240.280 62.653,242.380 62.653,243.635 62.625 C 244.890 62.596,243.817 62.573,241.250 62.573 C 238.683 62.573,237.657 62.596,238.968 62.625 M303.385 62.625 C 304.651 62.653,306.676 62.653,307.885 62.624 C 309.094 62.596,308.058 62.573,305.583 62.573 C 303.108 62.573,302.119 62.596,303.385 62.625 M315.468 62.625 C 316.780 62.653,318.880 62.653,320.135 62.625 C 321.390 62.596,320.317 62.573,317.750 62.573 C 315.183 62.573,314.157 62.596,315.468 62.625 M326.875 62.625 C 328.135 62.653,330.198 62.653,331.458 62.625 C 332.719 62.596,331.688 62.573,329.167 62.573 C 326.646 62.573,325.615 62.596,326.875 62.625 M343.625 70.955 C 344.015 70.990,344.652 70.990,345.042 70.955 C 345.431 70.920,345.113 70.892,344.333 70.892 C 343.554 70.892,343.235 70.920,343.625 70.955 " stroke="none" fill="#d36161" fill-rule="evenodd"></path><path id="path3" d="M126.833 29.883 L 126.916 32.417 126.963 30.013 C 126.988 28.691,126.951 27.551,126.880 27.479 C 126.808 27.408,126.787 28.489,126.833 29.883 M143.111 27.444 C 142.957 27.599,142.971 62.462,143.125 62.558 C 143.194 62.600,143.250 54.692,143.250 44.984 C 143.250 35.276,143.244 27.333,143.236 27.333 C 143.228 27.333,143.172 27.383,143.111 27.444 M179.778 27.444 C 179.624 27.599,179.637 52.462,179.792 52.558 C 179.860 52.600,179.917 46.942,179.917 39.984 C 179.917 33.026,179.910 27.333,179.903 27.333 C 179.895 27.333,179.839 27.383,179.778 27.444 M185.000 39.883 L 185.083 52.417 185.126 40.009 C 185.150 33.185,185.112 27.545,185.043 27.476 C 184.973 27.407,184.954 32.990,185.000 39.883 M199.743 27.542 C 199.700 27.656,199.683 33.300,199.707 40.083 L 199.750 52.417 199.833 39.875 C 199.879 32.977,199.896 27.333,199.870 27.333 C 199.844 27.333,199.787 27.427,199.743 27.542 M204.917 40.000 C 204.917 46.949,204.973 52.600,205.042 52.558 C 205.110 52.515,205.167 46.864,205.167 40.000 C 205.167 33.136,205.110 27.485,205.042 27.442 C 204.973 27.400,204.917 33.051,204.917 40.000 M52.733 34.917 C 52.734 36.292,52.759 36.832,52.791 36.117 C 52.822 35.403,52.822 34.278,52.790 33.617 C 52.759 32.957,52.733 33.542,52.733 34.917 M82.567 35.000 C 82.567 36.421,82.593 37.002,82.624 36.292 C 82.655 35.581,82.655 34.419,82.624 33.708 C 82.593 32.998,82.567 33.579,82.567 35.000 M111.912 45.000 C 111.912 51.829,111.933 54.623,111.958 51.208 C 111.983 47.794,111.983 42.206,111.958 38.792 C 111.933 35.377,111.912 38.171,111.912 45.000 M148.407 37.417 C 148.407 40.075,148.430 41.139,148.458 39.781 C 148.486 38.424,148.486 36.249,148.458 34.948 C 148.430 33.647,148.407 34.758,148.407 37.417 M126.579 45.167 C 126.579 51.904,126.600 54.660,126.625 51.292 C 126.650 47.923,126.650 42.410,126.625 39.042 C 126.600 35.673,126.579 38.429,126.579 45.167 M47.703 39.787 L 47.667 42.325 45.125 42.375 L 42.583 42.426 45.130 42.463 C 48.141 42.507,47.859 42.804,47.791 39.659 L 47.740 37.250 47.703 39.787 M72.240 37.549 C 72.194 37.668,72.178 38.849,72.204 40.174 L 72.251 42.583 72.334 39.958 C 72.415 37.376,72.405 37.119,72.240 37.549 M77.567 40.250 C 77.567 41.625,77.593 42.165,77.624 41.451 C 77.655 40.736,77.655 39.611,77.624 38.951 C 77.592 38.290,77.566 38.875,77.567 40.250 M290.625 38.290 C 291.106 38.323,291.894 38.323,292.375 38.290 C 292.856 38.256,292.462 38.228,291.500 38.228 C 290.537 38.228,290.144 38.256,290.625 38.290 M67.240 42.550 C 67.194 42.669,67.180 43.812,67.209 45.091 L 67.260 47.417 67.297 44.964 L 67.333 42.512 69.042 42.458 L 70.750 42.404 69.036 42.368 C 67.759 42.342,67.302 42.388,67.240 42.550 M163.294 44.125 C 163.375 47.443,163.437 47.766,163.468 45.042 C 163.486 43.552,163.444 42.333,163.375 42.333 C 163.306 42.333,163.270 43.139,163.294 44.125 M72.567 45.167 C 72.567 46.587,72.593 47.169,72.624 46.458 C 72.655 45.748,72.655 44.585,72.624 43.875 C 72.593 43.165,72.567 43.746,72.567 45.167 M225.958 43.454 C 226.256 43.491,226.744 43.491,227.042 43.454 C 227.340 43.417,227.096 43.387,226.500 43.387 C 225.904 43.387,225.660 43.417,225.958 43.454 M237.292 43.454 C 237.590 43.491,238.077 43.491,238.375 43.454 C 238.673 43.417,238.429 43.387,237.833 43.387 C 237.237 43.387,236.994 43.417,237.292 43.454 M256.625 43.455 C 257.015 43.490,257.652 43.490,258.042 43.455 C 258.431 43.420,258.112 43.392,257.333 43.392 C 256.554 43.392,256.235 43.420,256.625 43.455 M274.295 43.454 C 274.594 43.491,275.044 43.490,275.295 43.452 C 275.545 43.414,275.300 43.384,274.750 43.385 C 274.200 43.386,273.995 43.417,274.295 43.454 M325.121 43.454 C 325.417 43.490,325.942 43.491,326.288 43.455 C 326.634 43.419,326.392 43.389,325.750 43.388 C 325.108 43.387,324.825 43.417,325.121 43.454 M343.463 43.456 C 343.855 43.491,344.455 43.490,344.796 43.454 C 345.137 43.419,344.817 43.390,344.083 43.390 C 343.350 43.391,343.071 43.420,343.463 43.456 M363.296 43.456 C 363.688 43.491,364.288 43.490,364.629 43.454 C 364.971 43.419,364.650 43.390,363.917 43.390 C 363.183 43.391,362.904 43.420,363.296 43.456 M369.831 44.383 L 369.912 45.417 369.966 44.518 C 369.995 44.024,369.959 43.558,369.885 43.484 C 369.811 43.410,369.786 43.814,369.831 44.383 M219.665 43.784 C 219.985 43.826,220.310 43.948,220.386 44.055 C 220.481 44.188,220.504 44.171,220.458 44.000 C 220.414 43.837,220.164 43.743,219.737 43.729 C 219.111 43.708,219.108 43.711,219.665 43.784 M306.294 43.785 C 306.501 43.824,306.801 43.823,306.960 43.781 C 307.120 43.739,306.950 43.707,306.583 43.709 C 306.217 43.711,306.086 43.745,306.294 43.785 M318.542 43.782 C 318.702 43.823,318.965 43.823,319.125 43.782 C 319.285 43.740,319.154 43.705,318.833 43.705 C 318.512 43.705,318.381 43.740,318.542 43.782 M286.236 45.000 L 286.250 46.083 287.875 46.093 L 289.501 46.102 287.925 46.045 L 286.349 45.988 286.285 44.952 L 286.222 43.917 286.236 45.000 M300.400 44.232 C 300.351 44.360,300.341 44.754,300.378 45.107 C 300.441 45.726,300.445 45.721,300.472 44.969 C 300.499 44.220,300.522 44.185,301.042 44.121 L 301.583 44.053 301.036 44.027 C 300.702 44.010,300.455 44.090,300.400 44.232 M319.533 45.125 C 319.495 46.535,319.549 46.566,320.425 45.625 L 321.083 44.917 320.383 45.567 L 319.683 46.218 319.624 45.067 L 319.565 43.917 319.533 45.125 M354.031 44.958 L 354.000 46.000 352.010 46.000 C 349.912 46.000,349.720 46.058,350.098 46.575 C 350.227 46.752,350.333 46.823,350.333 46.732 C 350.333 46.641,350.243 46.477,350.133 46.367 C 349.978 46.211,350.386 46.167,351.972 46.167 C 354.282 46.167,354.220 46.206,354.124 44.813 L 354.062 43.917 354.031 44.958 M230.417 45.000 C 230.775 45.367,231.105 45.667,231.151 45.667 C 231.197 45.667,230.941 45.367,230.583 45.000 C 230.225 44.633,229.895 44.333,229.849 44.333 C 229.803 44.333,230.059 44.633,230.417 45.000 M339.384 44.762 L 338.917 45.191 339.458 44.814 C 339.756 44.607,340.000 44.414,340.000 44.385 C 340.000 44.254,339.816 44.367,339.384 44.762 M213.705 45.000 C 213.705 45.321,213.740 45.452,213.782 45.292 C 213.823 45.131,213.823 44.869,213.782 44.708 C 213.740 44.548,213.705 44.679,213.705 45.000 M262.583 45.333 C 262.941 45.700,263.272 46.000,263.318 46.000 C 263.363 46.000,263.108 45.700,262.750 45.333 C 262.392 44.967,262.062 44.667,262.016 44.667 C 261.970 44.667,262.225 44.967,262.583 45.333 M269.073 45.542 L 268.583 46.083 269.125 45.594 C 269.630 45.138,269.743 45.000,269.615 45.000 C 269.586 45.000,269.342 45.244,269.073 45.542 M280.508 45.917 C 281.010 46.467,281.555 47.104,281.718 47.333 C 282.004 47.735,282.004 47.730,281.722 47.209 C 281.561 46.912,281.017 46.275,280.512 45.793 L 279.594 44.917 280.508 45.917 M358.740 45.542 L 358.250 46.083 358.792 45.594 C 359.297 45.138,359.410 45.000,359.281 45.000 C 359.252 45.000,359.009 45.244,358.740 45.542 M232.215 45.838 C 231.829 46.202,231.570 46.500,231.639 46.500 C 231.709 46.500,232.059 46.200,232.417 45.833 C 233.254 44.976,233.125 44.978,232.215 45.838 M220.991 45.958 L 220.417 46.583 221.042 46.009 C 221.385 45.693,221.667 45.412,221.667 45.384 C 221.667 45.257,221.526 45.377,220.991 45.958 M272.491 46.125 L 271.917 46.750 272.542 46.176 C 272.885 45.860,273.167 45.578,273.167 45.551 C 273.167 45.423,273.026 45.543,272.491 46.125 M361.336 46.081 C 361.026 46.400,360.805 46.687,360.845 46.719 C 360.884 46.750,361.169 46.489,361.478 46.138 C 362.179 45.341,362.088 45.304,361.336 46.081 M366.833 46.417 C 367.144 46.737,367.436 47.000,367.482 47.000 C 367.528 47.000,367.311 46.737,367.000 46.417 C 366.689 46.096,366.397 45.833,366.351 45.833 C 366.305 45.833,366.522 46.096,366.833 46.417 M293.409 46.210 C 293.365 46.325,293.350 48.894,293.375 51.918 L 293.421 57.417 293.461 51.796 L 293.500 46.175 296.125 46.125 L 298.750 46.074 296.120 46.037 C 294.133 46.009,293.470 46.051,293.409 46.210 M222.792 46.429 C 222.145 46.779,222.219 46.900,222.875 46.566 C 223.503 46.247,223.614 46.164,223.403 46.173 C 223.319 46.177,223.044 46.292,222.792 46.429 M303.014 46.603 C 303.236 46.889,303.450 47.093,303.491 47.056 C 303.532 47.020,303.351 46.786,303.089 46.537 L 302.612 46.083 303.014 46.603 M326.167 46.917 C 326.478 47.237,326.770 47.500,326.815 47.500 C 326.861 47.500,326.644 47.237,326.333 46.917 C 326.022 46.596,325.730 46.333,325.685 46.333 C 325.639 46.333,325.856 46.596,326.167 46.917 M320.324 47.625 L 319.750 48.250 320.375 47.676 C 320.719 47.360,321.000 47.078,321.000 47.051 C 321.000 46.923,320.859 47.043,320.324 47.625 M370.045 47.833 C 370.045 48.246,370.078 48.415,370.118 48.208 C 370.157 48.002,370.157 47.665,370.118 47.458 C 370.078 47.252,370.045 47.421,370.045 47.833 M315.742 53.667 C 315.742 57.196,315.764 58.640,315.791 56.875 C 315.818 55.110,315.818 52.223,315.791 50.458 C 315.764 48.694,315.742 50.137,315.742 53.667 M67.567 50.083 C 67.567 51.458,67.593 51.999,67.624 51.284 C 67.655 50.569,67.655 49.444,67.624 48.784 C 67.592 48.124,67.566 48.708,67.567 50.083 M148.407 52.500 C 148.407 55.204,148.430 56.310,148.458 54.958 C 148.486 53.606,148.486 51.394,148.458 50.042 C 148.430 48.690,148.407 49.796,148.407 52.500 M216.742 53.667 C 216.742 57.012,216.764 58.381,216.791 56.708 C 216.819 55.035,216.819 52.298,216.791 50.625 C 216.764 48.952,216.742 50.321,216.742 53.667 M331.075 53.917 C 331.075 57.033,331.097 58.285,331.125 56.698 C 331.152 55.111,331.152 52.561,331.125 51.031 C 331.097 49.501,331.075 50.800,331.075 53.917 M231.908 54.167 C 231.908 57.329,231.931 58.623,231.958 57.042 C 231.985 55.460,231.985 52.873,231.958 51.292 C 231.931 49.710,231.908 51.004,231.908 54.167 M243.074 53.917 C 243.074 56.850,243.097 58.027,243.125 56.531 C 243.152 55.036,243.152 52.636,243.125 51.198 C 243.097 49.760,243.074 50.983,243.074 53.917 M319.574 54.000 C 319.574 56.979,319.597 58.198,319.625 56.708 C 319.652 55.219,319.652 52.781,319.625 51.292 C 319.597 49.802,319.574 51.021,319.574 54.000 M351.052 49.750 C 351.053 50.300,351.084 50.505,351.121 50.205 C 351.158 49.906,351.157 49.456,351.119 49.205 C 351.081 48.955,351.051 49.200,351.052 49.750 M327.241 54.500 C 327.241 57.571,327.264 58.827,327.291 57.292 C 327.319 55.756,327.319 53.244,327.291 51.708 C 327.264 50.173,327.241 51.429,327.241 54.500 M340.875 49.583 C 340.877 49.950,340.911 50.080,340.951 49.873 C 340.991 49.666,340.990 49.366,340.948 49.206 C 340.906 49.047,340.874 49.217,340.875 49.583 M368.958 49.618 C 369.165 49.657,369.502 49.657,369.708 49.618 C 369.915 49.578,369.746 49.545,369.333 49.545 C 368.921 49.545,368.752 49.578,368.958 49.618 M228.074 54.583 C 228.074 57.333,228.097 58.482,228.125 57.135 C 228.153 55.789,228.153 53.539,228.125 52.135 C 228.097 50.732,228.074 51.833,228.074 54.583 M252.705 50.167 C 252.705 50.487,252.740 50.619,252.782 50.458 C 252.823 50.298,252.823 50.035,252.782 49.875 C 252.740 49.715,252.705 49.846,252.705 50.167 M267.032 51.875 L 267.000 53.000 273.208 52.960 L 279.417 52.921 273.300 52.875 L 267.182 52.829 267.123 51.790 L 267.064 50.750 267.032 51.875 M264.881 51.917 C 264.882 52.375,264.915 52.543,264.953 52.289 C 264.991 52.036,264.990 51.661,264.951 51.456 C 264.911 51.251,264.880 51.458,264.881 51.917 M32.735 55.000 C 32.735 56.512,32.760 57.131,32.791 56.375 C 32.822 55.619,32.822 54.381,32.791 53.625 C 32.760 52.869,32.735 53.487,32.735 55.000 M194.740 52.550 C 194.694 52.669,194.678 53.812,194.704 55.091 L 194.751 57.417 194.834 54.875 C 194.915 52.374,194.905 52.119,194.740 52.550 M345.952 53.181 C 345.605 53.550,345.469 53.773,345.649 53.676 C 345.923 53.530,346.802 52.488,346.636 52.506 C 346.607 52.509,346.299 52.813,345.952 53.181 M368.333 52.546 C 368.333 52.578,368.577 52.782,368.875 53.001 C 369.210 53.246,369.327 53.286,369.180 53.106 C 368.958 52.833,368.333 52.420,368.333 52.546 M62.567 55.083 C 62.567 56.458,62.593 56.999,62.624 56.284 C 62.655 55.569,62.655 54.444,62.624 53.784 C 62.592 53.124,62.566 53.708,62.567 55.083 M199.967 55.167 C 199.939 56.542,199.973 57.667,200.042 57.667 C 200.110 57.667,200.167 56.542,200.167 55.167 C 200.167 51.932,200.031 51.932,199.967 55.167 M283.375 53.250 C 283.377 53.617,283.411 53.747,283.451 53.540 C 283.491 53.332,283.490 53.032,283.448 52.873 C 283.406 52.714,283.374 52.883,283.375 53.250 M342.167 53.250 C 342.478 53.571,342.770 53.833,342.815 53.833 C 342.861 53.833,342.644 53.571,342.333 53.250 C 342.022 52.929,341.730 52.667,341.685 52.667 C 341.639 52.667,341.856 52.929,342.167 53.250 M252.705 54.333 C 252.705 54.654,252.740 54.785,252.782 54.625 C 252.823 54.465,252.823 54.202,252.782 54.042 C 252.740 53.881,252.705 54.012,252.705 54.333 M343.794 54.118 C 344.001 54.158,344.301 54.156,344.460 54.115 C 344.620 54.073,344.450 54.040,344.083 54.042 C 343.717 54.044,343.586 54.078,343.794 54.118 M340.417 54.843 C 340.325 54.930,340.063 55.153,339.833 55.338 C 339.444 55.652,339.458 55.651,340.042 55.321 C 340.385 55.126,340.667 54.899,340.667 54.817 C 340.667 54.634,340.631 54.638,340.417 54.843 M357.061 57.750 C 357.061 58.667,357.089 59.020,357.123 58.536 C 357.157 58.052,357.156 57.302,357.122 56.869 C 357.088 56.437,357.060 56.833,357.061 57.750 M371.053 57.167 C 371.053 57.762,371.084 58.006,371.121 57.708 C 371.158 57.410,371.158 56.923,371.121 56.625 C 371.084 56.327,371.053 56.571,371.053 57.167 M126.800 60.167 C 126.773 61.542,126.806 62.667,126.875 62.667 C 126.944 62.667,127.000 61.542,127.000 60.167 C 127.000 56.932,126.865 56.932,126.800 60.167 M189.733 60.083 C 189.734 61.458,189.759 61.999,189.791 61.284 C 189.822 60.569,189.822 59.444,189.790 58.784 C 189.759 58.124,189.733 58.708,189.733 60.083 M195.067 60.167 C 195.067 61.587,195.093 62.169,195.124 61.458 C 195.155 60.748,195.155 59.585,195.124 58.875 C 195.093 58.165,195.067 58.746,195.067 60.167 M265.091 58.040 C 265.156 58.212,265.053 58.582,264.838 58.946 C 264.633 59.294,264.581 59.473,264.719 59.359 C 265.141 59.009,265.413 58.179,265.181 57.949 C 265.025 57.794,265.005 57.815,265.091 58.040 M337.872 58.333 C 337.872 58.654,337.906 58.785,337.948 58.625 C 337.990 58.465,337.990 58.202,337.948 58.042 C 337.906 57.881,337.872 58.012,337.872 58.333 M343.042 58.782 C 343.202 58.823,343.465 58.823,343.625 58.782 C 343.785 58.740,343.654 58.705,343.333 58.705 C 343.012 58.705,342.881 58.740,343.042 58.782 M267.459 59.750 C 267.650 60.025,268.128 60.550,268.523 60.917 C 269.131 61.482,269.104 61.431,268.341 60.583 C 267.136 59.243,267.055 59.167,267.459 59.750 M263.494 60.625 L 262.583 61.583 263.542 60.672 C 264.069 60.171,264.500 59.740,264.500 59.714 C 264.500 59.590,264.341 59.735,263.494 60.625 M294.310 59.990 C 294.527 60.179,294.783 60.333,294.880 60.333 C 295.085 60.333,295.075 60.325,294.417 59.940 L 293.917 59.647 294.310 59.990 M360.917 60.071 C 361.192 60.309,361.567 60.585,361.750 60.684 C 361.933 60.782,361.858 60.668,361.583 60.429 C 361.308 60.191,360.933 59.915,360.750 59.816 C 360.567 59.718,360.642 59.832,360.917 60.071 M352.583 60.667 C 352.941 61.033,353.272 61.333,353.318 61.333 C 353.363 61.333,353.108 61.033,352.750 60.667 C 352.392 60.300,352.062 60.000,352.016 60.000 C 351.970 60.000,352.225 60.300,352.583 60.667 M216.116 60.589 C 215.859 60.815,215.714 61.000,215.795 61.000 C 215.876 61.000,216.118 60.813,216.333 60.583 C 216.831 60.053,216.721 60.056,216.116 60.589 M250.667 60.219 C 250.667 60.248,250.910 60.491,251.208 60.760 L 251.750 61.250 251.260 60.708 C 250.804 60.203,250.667 60.090,250.667 60.219 M297.208 60.448 C 297.369 60.490,297.631 60.490,297.792 60.448 C 297.952 60.406,297.821 60.372,297.500 60.372 C 297.179 60.372,297.048 60.406,297.208 60.448 M369.409 61.208 L 368.750 61.917 369.458 61.258 C 370.117 60.645,370.243 60.500,370.117 60.500 C 370.090 60.500,369.771 60.819,369.409 61.208 M357.218 61.583 C 357.219 62.133,357.250 62.338,357.287 62.039 C 357.325 61.739,357.324 61.289,357.286 61.039 C 357.248 60.788,357.217 61.033,357.218 61.583 M223.214 61.917 C 223.216 62.375,223.248 62.543,223.286 62.289 C 223.325 62.036,223.324 61.661,223.284 61.456 C 223.244 61.251,223.213 61.458,223.214 61.917 M225.379 61.833 C 225.379 62.246,225.411 62.415,225.451 62.208 C 225.491 62.002,225.491 61.665,225.451 61.458 C 225.411 61.252,225.379 61.421,225.379 61.833 M234.474 61.917 C 234.441 62.329,234.471 62.667,234.540 62.667 C 234.610 62.667,234.667 62.329,234.667 61.917 C 234.667 61.504,234.637 61.167,234.600 61.167 C 234.564 61.167,234.507 61.504,234.474 61.917 M313.048 61.917 C 313.049 62.375,313.081 62.543,313.120 62.289 C 313.158 62.036,313.157 61.661,313.117 61.456 C 313.078 61.251,313.046 61.458,313.048 61.917 M322.381 61.917 C 322.382 62.375,322.415 62.543,322.453 62.289 C 322.491 62.036,322.490 61.661,322.451 61.456 C 322.411 61.251,322.380 61.458,322.381 61.917 M333.709 61.917 C 333.711 62.283,333.745 62.414,333.785 62.206 C 333.824 61.999,333.823 61.699,333.781 61.540 C 333.739 61.380,333.707 61.550,333.709 61.917 M261.750 62.011 C 261.475 62.187,261.335 62.332,261.440 62.332 C 261.544 62.333,261.807 62.186,262.023 62.006 C 262.519 61.593,262.400 61.595,261.750 62.011 M290.583 61.974 C 290.764 62.189,291.064 62.441,291.248 62.536 C 291.602 62.717,291.551 62.661,290.751 61.998 C 290.270 61.598,290.264 61.597,290.583 61.974 M343.542 62.456 C 343.977 62.490,344.690 62.490,345.125 62.456 C 345.560 62.422,345.204 62.393,344.333 62.393 C 343.462 62.393,343.106 62.422,343.542 62.456 M357.794 62.785 C 358.001 62.824,358.301 62.823,358.460 62.781 C 358.620 62.739,358.450 62.707,358.083 62.709 C 357.717 62.711,357.586 62.745,357.794 62.785 M293.455 63.120 C 293.750 63.157,294.275 63.158,294.621 63.122 C 294.967 63.086,294.725 63.055,294.083 63.055 C 293.442 63.054,293.159 63.083,293.455 63.120 M335.881 66.083 C 335.882 66.542,335.915 66.709,335.953 66.456 C 335.991 66.203,335.990 65.828,335.951 65.623 C 335.911 65.418,335.880 65.625,335.881 66.083 M352.593 68.301 C 351.780 69.238,351.778 69.241,352.481 68.583 C 353.073 68.029,353.645 67.308,353.464 67.343 C 353.438 67.348,353.046 67.779,352.593 68.301 M342.127 70.951 C 342.334 70.991,342.634 70.990,342.794 70.948 C 342.953 70.906,342.783 70.874,342.417 70.875 C 342.050 70.877,341.920 70.911,342.127 70.951 M345.958 70.951 C 346.165 70.991,346.502 70.991,346.708 70.951 C 346.915 70.911,346.746 70.879,346.333 70.879 C 345.921 70.879,345.752 70.911,345.958 70.951 " stroke="none" fill="#cc2f32" fill-rule="evenodd"></path><path id="path4" d="M126.633 30.084 C 126.606 31.505,126.640 32.667,126.708 32.667 C 126.777 32.667,126.833 31.504,126.833 30.083 C 126.833 26.741,126.698 26.741,126.633 30.084 M143.247 45.000 C 143.247 54.671,143.267 58.627,143.292 53.792 C 143.316 48.956,143.316 41.044,143.292 36.208 C 143.267 31.373,143.247 35.329,143.247 45.000 M179.913 40.000 C 179.913 46.921,179.933 49.752,179.958 46.292 C 179.983 42.831,179.983 37.169,179.958 33.708 C 179.933 30.248,179.913 33.079,179.913 40.000 M184.835 42.496 C 184.837 50.776,184.876 57.513,184.922 57.467 C 185.031 57.358,185.024 27.635,184.915 27.526 C 184.869 27.480,184.833 34.217,184.835 42.496 M199.832 39.917 C 199.787 46.792,199.788 53.579,199.836 55.000 L 199.921 57.583 200.002 55.041 C 200.047 53.643,200.046 52.500,200.000 52.500 C 199.954 52.500,199.937 48.919,199.961 44.542 C 199.986 40.165,199.985 34.521,199.960 32.000 C 199.934 29.479,199.876 33.042,199.832 39.917 M204.913 40.000 C 204.913 46.921,204.933 49.752,204.958 46.292 C 204.983 42.831,204.983 37.169,204.958 33.708 C 204.933 30.248,204.913 33.079,204.913 40.000 M57.833 35.049 L 57.916 37.583 57.963 35.180 C 57.988 33.858,57.951 32.718,57.880 32.646 C 57.808 32.574,57.787 33.656,57.833 35.049 M77.333 37.500 C 77.333 40.281,77.372 42.517,77.420 42.469 C 77.532 42.357,77.532 32.643,77.419 32.530 C 77.372 32.483,77.333 34.719,77.333 37.500 M111.706 45.042 C 111.727 51.940,111.764 55.558,111.789 53.083 C 111.904 41.353,111.905 32.500,111.792 32.500 C 111.723 32.500,111.684 38.144,111.706 45.042 M148.242 32.711 C 148.197 32.827,148.181 34.871,148.206 37.253 L 148.251 41.583 148.334 37.042 C 148.379 34.544,148.396 32.500,148.370 32.500 C 148.344 32.500,148.286 32.595,148.242 32.711 M307.375 37.708 C 307.196 38.198,307.200 38.219,307.422 37.926 C 307.634 37.647,307.759 37.167,307.620 37.167 C 307.594 37.167,307.484 37.410,307.375 37.708 M52.833 39.966 L 52.916 42.583 52.962 40.096 C 52.988 38.728,52.951 37.551,52.880 37.479 C 52.808 37.408,52.787 38.527,52.833 39.966 M72.372 40.000 C 72.359 41.421,72.345 43.690,72.341 45.042 L 72.333 47.500 69.921 47.500 L 67.509 47.500 67.456 45.000 L 67.403 42.500 67.410 45.041 L 67.417 47.583 69.917 47.583 L 72.417 47.583 72.500 45.012 C 72.546 43.598,72.541 41.311,72.490 39.929 L 72.396 37.417 72.372 40.000 M291.454 38.454 L 293.159 38.512 293.204 41.297 L 293.250 44.083 295.875 44.129 L 298.500 44.175 298.500 45.000 L 298.500 45.825 295.916 45.877 L 293.333 45.930 295.958 45.923 L 298.583 45.917 298.583 45.000 L 298.583 44.083 295.962 44.037 L 293.341 43.992 293.296 41.204 L 293.250 38.417 291.500 38.407 L 289.750 38.397 291.454 38.454 M304.875 39.282 C 305.035 39.323,305.298 39.323,305.458 39.282 C 305.619 39.240,305.487 39.205,305.167 39.205 C 304.846 39.205,304.715 39.240,304.875 39.282 M225.958 43.621 C 226.256 43.658,226.744 43.658,227.042 43.621 C 227.340 43.584,227.096 43.553,226.500 43.553 C 225.904 43.553,225.660 43.584,225.958 43.621 M237.292 43.621 C 237.590 43.658,238.077 43.658,238.375 43.621 C 238.673 43.584,238.429 43.553,237.833 43.553 C 237.237 43.553,236.994 43.584,237.292 43.621 M256.625 43.622 C 257.015 43.657,257.652 43.657,258.042 43.622 C 258.431 43.587,258.112 43.558,257.333 43.558 C 256.554 43.558,256.235 43.587,256.625 43.622 M274.295 43.621 C 274.594 43.658,275.044 43.657,275.295 43.619 C 275.545 43.581,275.300 43.551,274.750 43.552 C 274.200 43.553,273.995 43.584,274.295 43.621 M325.121 43.620 C 325.417 43.657,325.942 43.658,326.288 43.622 C 326.634 43.586,326.392 43.555,325.750 43.555 C 325.108 43.554,324.825 43.583,325.121 43.620 M343.463 43.622 C 343.855 43.657,344.455 43.657,344.796 43.621 C 345.137 43.585,344.817 43.557,344.083 43.557 C 343.350 43.558,343.071 43.587,343.463 43.622 M363.296 43.622 C 363.688 43.657,364.288 43.657,364.629 43.621 C 364.971 43.585,364.650 43.557,363.917 43.557 C 363.183 43.558,362.904 43.587,363.296 43.622 M369.718 44.417 C 369.719 44.967,369.750 45.172,369.787 44.872 C 369.825 44.572,369.824 44.122,369.786 43.872 C 369.748 43.622,369.717 43.867,369.718 44.417 M218.375 43.948 C 218.535 43.990,218.798 43.990,218.958 43.948 C 219.119 43.906,218.987 43.872,218.667 43.872 C 218.346 43.872,218.215 43.906,218.375 43.948 M319.304 45.265 C 319.365 46.865,319.395 46.891,320.176 46.042 L 320.750 45.417 320.125 45.991 L 319.500 46.565 319.500 45.293 C 319.500 44.592,319.444 43.985,319.375 43.942 C 319.306 43.899,319.274 44.495,319.304 45.265 M215.792 44.118 C 215.998 44.157,216.335 44.157,216.542 44.118 C 216.748 44.078,216.579 44.045,216.167 44.045 C 215.754 44.045,215.585 44.078,215.792 44.118 M286.444 44.111 C 286.383 44.172,286.333 44.622,286.333 45.111 L 286.333 46.000 288.042 45.965 L 289.750 45.930 288.125 45.876 L 286.500 45.821 286.500 45.000 L 286.500 44.178 288.208 44.124 L 289.917 44.070 288.236 44.035 C 287.312 44.016,286.506 44.050,286.444 44.111 M302.458 44.118 C 302.665 44.157,303.002 44.157,303.208 44.118 C 303.415 44.078,303.246 44.045,302.833 44.045 C 302.421 44.045,302.252 44.078,302.458 44.118 M314.960 44.118 C 315.168 44.158,315.468 44.156,315.627 44.115 C 315.786 44.073,315.617 44.040,315.250 44.042 C 314.883 44.044,314.753 44.078,314.960 44.118 M350.500 44.123 L 353.833 44.174 353.833 45.003 L 353.833 45.833 351.750 45.833 C 349.723 45.833,349.164 46.003,349.831 46.415 C 349.926 46.474,349.954 46.407,349.897 46.259 C 349.810 46.033,350.069 46.000,351.907 46.000 L 354.017 46.000 353.967 45.042 L 353.917 44.083 350.542 44.078 L 347.166 44.073 350.500 44.123 M229.417 44.283 C 229.953 44.831,231.034 45.685,230.667 45.271 C 230.438 45.012,230.025 44.646,229.750 44.457 C 229.475 44.268,229.325 44.189,229.417 44.283 M359.718 44.762 L 359.250 45.191 359.792 44.814 C 360.090 44.607,360.333 44.414,360.333 44.385 C 360.333 44.254,360.149 44.367,359.718 44.762 M343.708 44.948 C 343.869 44.990,344.131 44.990,344.292 44.948 C 344.452 44.906,344.321 44.872,344.000 44.872 C 343.679 44.872,343.548 44.906,343.708 44.948 M262.167 45.052 C 262.167 45.081,262.410 45.325,262.708 45.594 L 263.250 46.083 262.760 45.542 C 262.304 45.037,262.167 44.923,262.167 45.052 M274.377 45.120 C 274.631 45.158,275.006 45.157,275.211 45.117 C 275.416 45.078,275.208 45.046,274.750 45.048 C 274.292 45.049,274.124 45.081,274.377 45.120 M269.073 45.708 L 268.583 46.250 269.125 45.760 C 269.630 45.304,269.743 45.167,269.615 45.167 C 269.586 45.167,269.342 45.410,269.073 45.708 M280.326 45.875 C 281.017 46.611,281.167 46.743,281.167 46.618 C 281.167 46.591,280.810 46.235,280.375 45.826 L 279.583 45.083 280.326 45.875 M221.075 46.042 L 220.417 46.750 221.125 46.091 C 221.515 45.729,221.833 45.410,221.833 45.383 C 221.833 45.257,221.688 45.383,221.075 46.042 M276.500 45.379 C 276.500 45.411,276.744 45.616,277.042 45.834 C 277.377 46.079,277.493 46.119,277.347 45.939 C 277.125 45.666,276.500 45.253,276.500 45.379 M232.073 46.208 L 231.583 46.750 232.125 46.260 C 232.630 45.804,232.743 45.667,232.615 45.667 C 232.586 45.667,232.342 45.910,232.073 46.208 M366.993 46.375 C 367.684 47.111,367.833 47.243,367.833 47.118 C 367.833 47.091,367.477 46.735,367.042 46.326 L 366.250 45.583 366.993 46.375 M237.000 45.952 C 237.137 46.003,237.400 46.114,237.583 46.198 C 237.911 46.349,237.911 46.348,237.593 46.093 C 237.415 45.950,237.153 45.839,237.010 45.846 C 236.785 45.858,236.784 45.872,237.000 45.952 M369.888 47.417 C 369.889 48.058,369.919 48.300,369.955 47.955 C 369.991 47.609,369.990 47.084,369.954 46.788 C 369.917 46.492,369.887 46.775,369.888 47.417 M263.783 47.248 C 263.935 47.568,264.089 47.800,264.125 47.763 C 264.202 47.687,263.696 46.667,263.582 46.667 C 263.540 46.667,263.630 46.928,263.783 47.248 M360.545 47.667 C 360.545 48.079,360.578 48.248,360.618 48.042 C 360.657 47.835,360.657 47.498,360.618 47.292 C 360.578 47.085,360.545 47.254,360.545 47.667 M42.812 47.546 C 42.884 47.618,44.062 47.655,45.430 47.629 L 47.917 47.582 45.300 47.499 C 43.860 47.454,42.741 47.475,42.812 47.546 M227.635 47.583 C 227.719 47.767,227.830 48.029,227.881 48.167 C 227.961 48.383,227.975 48.381,227.987 48.157 C 227.994 48.014,227.883 47.751,227.741 47.574 C 227.486 47.255,227.484 47.255,227.635 47.583 M315.909 53.667 C 315.909 57.196,315.931 58.640,315.958 56.875 C 315.985 55.110,315.985 52.223,315.958 50.458 C 315.931 48.694,315.909 50.137,315.909 53.667 M62.364 49.948 C 62.347 51.341,62.390 52.515,62.458 52.558 C 62.527 52.601,62.564 51.837,62.540 50.860 C 62.462 47.700,62.396 47.358,62.364 49.948 M148.278 47.611 C 148.217 47.672,148.168 47.803,148.169 47.903 C 148.171 48.011,148.224 48.001,148.303 47.877 C 148.403 47.719,150.172 47.660,155.842 47.625 L 163.250 47.580 155.819 47.540 C 151.733 47.518,148.339 47.550,148.278 47.611 M148.239 52.250 C 148.239 54.542,148.262 55.502,148.291 54.385 C 148.320 53.267,148.320 51.392,148.291 50.218 C 148.263 49.044,148.239 49.958,148.239 52.250 M220.408 54.083 C 220.408 57.200,220.431 58.451,220.458 56.864 C 220.486 55.277,220.485 52.727,220.458 51.198 C 220.431 49.668,220.408 50.967,220.408 54.083 M231.704 54.199 L 231.667 59.981 232.042 60.374 C 232.248 60.590,232.304 60.624,232.167 60.449 C 231.959 60.186,231.902 59.134,231.829 54.274 L 231.742 48.417 231.704 54.199 M319.408 54.083 C 319.408 57.108,319.430 58.369,319.458 56.886 C 319.486 55.402,319.486 52.927,319.458 51.386 C 319.431 49.844,319.408 51.058,319.408 54.083 M340.712 49.500 C 340.712 49.913,340.745 50.081,340.784 49.875 C 340.824 49.669,340.824 49.331,340.784 49.125 C 340.745 48.919,340.712 49.087,340.712 49.500 M350.885 49.750 C 350.886 50.300,350.917 50.505,350.954 50.205 C 350.991 49.906,350.990 49.456,350.952 49.205 C 350.914 48.955,350.884 49.200,350.885 49.750 M239.408 54.417 C 239.408 57.442,239.430 58.703,239.458 57.219 C 239.486 55.735,239.486 53.260,239.458 51.719 C 239.431 50.178,239.408 51.392,239.408 54.417 M327.408 54.500 C 327.408 57.571,327.431 58.827,327.458 57.292 C 327.486 55.756,327.486 53.244,327.458 51.708 C 327.431 50.173,327.408 51.429,327.408 54.500 M260.872 49.833 C 260.872 50.154,260.906 50.285,260.948 50.125 C 260.990 49.965,260.990 49.702,260.948 49.542 C 260.906 49.381,260.872 49.512,260.872 49.833 M267.205 50.500 C 267.205 50.821,267.240 50.952,267.282 50.792 C 267.323 50.631,267.323 50.369,267.282 50.208 C 267.240 50.048,267.205 50.179,267.205 50.500 M279.372 50.667 C 279.372 50.987,279.406 51.119,279.448 50.958 C 279.490 50.798,279.490 50.535,279.448 50.375 C 279.406 50.215,279.372 50.346,279.372 50.667 M357.833 50.564 C 357.833 50.743,358.329 51.667,358.425 51.667 C 358.471 51.667,358.385 51.423,358.233 51.125 C 357.924 50.517,357.833 50.390,357.833 50.564 M254.532 51.124 C 255.695 51.153,257.645 51.153,258.865 51.125 C 260.085 51.096,259.133 51.073,256.750 51.073 C 254.367 51.073,253.368 51.096,254.532 51.124 M264.695 51.873 L 264.667 52.663 258.542 52.708 L 252.417 52.754 258.547 52.794 C 265.326 52.838,264.911 52.908,264.789 51.726 C 264.726 51.114,264.721 51.121,264.695 51.873 M248.726 53.250 C 248.725 54.075,248.754 54.434,248.788 54.047 C 248.823 53.660,248.824 52.985,248.789 52.547 C 248.755 52.109,248.726 52.425,248.726 53.250 M358.667 52.052 C 358.667 52.081,358.910 52.325,359.208 52.594 L 359.750 53.083 359.260 52.542 C 358.804 52.037,358.667 51.923,358.667 52.052 M37.833 54.966 L 37.916 57.583 37.962 55.096 C 37.988 53.728,37.951 52.551,37.880 52.479 C 37.808 52.408,37.787 53.527,37.833 54.966 M57.407 52.716 C 57.361 52.835,57.345 53.979,57.371 55.258 L 57.418 57.583 57.501 55.041 C 57.582 52.540,57.572 52.286,57.407 52.716 M194.901 55.083 C 194.901 56.550,194.927 57.128,194.957 56.367 C 194.988 55.606,194.988 54.406,194.957 53.700 C 194.926 52.994,194.901 53.617,194.901 55.083 M283.212 53.167 C 283.212 53.579,283.245 53.748,283.284 53.542 C 283.324 53.335,283.324 52.998,283.284 52.792 C 283.245 52.585,283.212 52.754,283.212 53.167 M269.250 52.786 C 274.734 52.903,279.462 52.905,279.391 52.792 C 279.349 52.723,276.562 52.683,273.198 52.703 C 269.835 52.723,268.058 52.760,269.250 52.786 M349.244 53.542 L 348.417 54.417 349.292 53.590 C 349.773 53.135,350.167 52.741,350.167 52.715 C 350.167 52.590,350.012 52.729,349.244 53.542 M345.833 53.525 C 345.512 53.806,345.401 53.960,345.585 53.867 C 345.890 53.713,346.645 52.991,346.484 53.007 C 346.447 53.010,346.154 53.244,345.833 53.525 M341.986 53.394 C 342.208 53.667,342.833 54.080,342.833 53.954 C 342.833 53.922,342.590 53.718,342.292 53.499 C 341.956 53.254,341.840 53.214,341.986 53.394 M279.372 53.833 C 279.372 54.154,279.406 54.285,279.448 54.125 C 279.490 53.965,279.490 53.702,279.448 53.542 C 279.406 53.381,279.372 53.512,279.372 53.833 M360.333 53.415 C 360.333 53.529,361.354 54.035,361.430 53.959 C 361.466 53.923,361.234 53.768,360.915 53.616 C 360.595 53.463,360.333 53.373,360.333 53.415 M252.539 54.167 C 252.539 54.487,252.573 54.619,252.615 54.458 C 252.657 54.298,252.657 54.035,252.615 53.875 C 252.573 53.715,252.539 53.846,252.539 54.167 M343.708 54.282 C 343.869 54.323,344.131 54.323,344.292 54.282 C 344.452 54.240,344.321 54.205,344.000 54.205 C 343.679 54.205,343.548 54.240,343.708 54.282 M342.797 55.623 C 343.282 55.657,344.032 55.656,344.464 55.622 C 344.896 55.588,344.500 55.560,343.583 55.561 C 342.667 55.561,342.313 55.589,342.797 55.623 M340.926 56.370 C 340.541 56.920,340.608 57.584,341.100 58.116 L 341.533 58.583 341.183 58.103 C 340.768 57.532,340.734 56.882,341.093 56.370 C 341.235 56.167,341.315 56.000,341.269 56.000 C 341.223 56.000,341.069 56.167,340.926 56.370 M148.167 56.907 C 148.167 57.131,148.228 57.352,148.303 57.398 C 148.378 57.444,148.407 57.261,148.368 56.991 C 148.280 56.396,148.167 56.348,148.167 56.907 M126.666 59.966 L 126.749 62.583 126.796 60.096 C 126.822 58.728,126.784 57.551,126.713 57.479 C 126.642 57.408,126.621 58.527,126.666 59.966 M357.227 58.833 C 357.227 59.704,357.255 60.060,357.289 59.625 C 357.324 59.190,357.324 58.477,357.289 58.042 C 357.255 57.606,357.227 57.962,357.227 58.833 M189.794 59.208 C 189.874 62.314,189.938 62.618,189.969 60.042 C 189.986 58.644,189.944 57.500,189.875 57.500 C 189.806 57.499,189.770 58.268,189.794 59.208 M338.045 58.333 C 338.045 58.746,338.078 58.915,338.118 58.708 C 338.157 58.502,338.157 58.165,338.118 57.958 C 338.078 57.752,338.045 57.921,338.045 58.333 M264.875 58.542 C 264.696 59.031,264.700 59.052,264.922 58.760 C 265.134 58.480,265.259 58.000,265.120 58.000 C 265.094 58.000,264.984 58.244,264.875 58.542 M268.830 58.662 C 269.024 58.934,269.267 59.209,269.371 59.273 C 269.475 59.338,269.350 59.115,269.094 58.779 C 268.537 58.048,268.327 57.955,268.830 58.662 M344.208 58.955 C 344.552 58.991,345.115 58.991,345.458 58.955 C 345.802 58.919,345.521 58.889,344.833 58.889 C 344.146 58.889,343.865 58.919,344.208 58.955 M347.208 59.119 C 347.460 59.158,347.873 59.158,348.125 59.119 C 348.377 59.081,348.171 59.050,347.667 59.050 C 347.162 59.050,346.956 59.081,347.208 59.119 M307.340 59.721 C 307.332 60.073,308.202 61.003,308.529 60.993 C 308.650 60.990,308.538 60.872,308.278 60.731 C 308.019 60.591,307.703 60.237,307.577 59.946 C 307.430 59.609,307.344 59.528,307.340 59.721 M263.328 60.625 L 262.417 61.583 263.375 60.672 C 263.902 60.171,264.333 59.740,264.333 59.714 C 264.333 59.590,264.174 59.735,263.328 60.625 M294.293 60.125 C 294.509 60.331,294.775 60.498,294.884 60.495 C 294.994 60.492,294.933 60.407,294.750 60.305 C 294.567 60.203,294.300 60.037,294.158 59.935 C 294.017 59.833,294.077 59.919,294.293 60.125 M319.500 59.939 C 319.500 60.126,320.108 60.714,320.500 60.906 C 320.637 60.974,320.567 60.880,320.344 60.699 C 320.121 60.517,319.839 60.234,319.719 60.069 C 319.598 59.904,319.500 59.846,319.500 59.939 M268.000 60.219 C 268.000 60.248,268.244 60.491,268.542 60.760 L 269.083 61.250 268.594 60.708 C 268.138 60.203,268.000 60.090,268.000 60.219 M352.500 60.750 C 352.811 61.071,353.103 61.333,353.149 61.333 C 353.195 61.333,352.978 61.071,352.667 60.750 C 352.356 60.429,352.064 60.167,352.018 60.167 C 351.972 60.167,352.189 60.429,352.500 60.750 M339.083 60.586 C 339.267 60.736,339.567 60.931,339.750 61.021 L 340.083 61.185 339.750 60.914 C 339.567 60.764,339.267 60.569,339.083 60.479 L 338.750 60.315 339.083 60.586 M297.127 60.618 C 297.334 60.658,297.634 60.656,297.794 60.615 C 297.953 60.573,297.783 60.540,297.417 60.542 C 297.050 60.544,296.920 60.578,297.127 60.618 M290.167 61.104 C 290.167 61.191,290.397 61.522,290.679 61.840 L 291.191 62.417 290.727 61.750 C 290.472 61.383,290.242 61.052,290.215 61.014 C 290.188 60.976,290.167 61.016,290.167 61.104 M225.566 61.403 C 225.516 61.532,225.507 61.851,225.546 62.111 C 225.607 62.516,225.620 62.496,225.642 61.971 C 225.659 61.541,225.754 61.335,225.958 61.282 C 226.232 61.210,226.231 61.204,225.953 61.186 C 225.790 61.175,225.615 61.273,225.566 61.403 M234.032 61.270 C 234.212 61.323,234.340 61.578,234.385 61.969 L 234.456 62.583 234.437 61.918 C 234.421 61.383,234.352 61.246,234.083 61.219 C 233.842 61.195,233.827 61.209,234.032 61.270 M236.732 61.403 C 236.683 61.532,236.674 61.851,236.713 62.111 C 236.773 62.516,236.787 62.496,236.808 61.971 C 236.826 61.541,236.920 61.335,237.125 61.282 C 237.398 61.210,237.398 61.204,237.120 61.186 C 236.956 61.175,236.782 61.273,236.732 61.403 M301.066 61.403 C 301.016 61.532,301.007 61.851,301.046 62.111 C 301.107 62.516,301.120 62.496,301.142 61.971 C 301.159 61.541,301.254 61.335,301.458 61.282 C 301.732 61.210,301.731 61.204,301.453 61.186 C 301.290 61.175,301.115 61.273,301.066 61.403 M309.778 61.280 C 309.885 61.357,310.007 61.681,310.049 62.001 C 310.123 62.559,310.125 62.556,310.105 61.930 C 310.091 61.503,309.997 61.252,309.833 61.209 C 309.663 61.163,309.645 61.186,309.778 61.280 M313.232 61.403 C 313.183 61.532,313.174 61.851,313.213 62.111 C 313.273 62.516,313.287 62.496,313.308 61.971 C 313.326 61.541,313.420 61.335,313.625 61.282 C 313.898 61.210,313.898 61.204,313.620 61.186 C 313.456 61.175,313.282 61.273,313.232 61.403 M321.945 61.296 C 322.052 61.364,322.171 61.681,322.210 62.001 C 322.277 62.556,322.281 62.550,322.307 61.875 C 322.328 61.300,322.278 61.167,322.042 61.169 C 321.850 61.171,321.817 61.214,321.945 61.296 M324.566 61.403 C 324.516 61.532,324.507 61.851,324.546 62.111 C 324.607 62.516,324.620 62.496,324.642 61.971 C 324.659 61.541,324.754 61.335,324.958 61.282 C 325.232 61.210,325.231 61.204,324.953 61.186 C 324.790 61.175,324.615 61.273,324.566 61.403 M359.000 61.677 C 359.000 61.774,359.073 61.808,359.163 61.752 C 359.253 61.697,359.497 61.734,359.705 61.835 C 360.068 62.011,360.070 62.008,359.760 61.759 C 359.387 61.461,359.000 61.419,359.000 61.677 M347.125 62.451 C 347.331 62.491,347.669 62.491,347.875 62.451 C 348.081 62.411,347.912 62.379,347.500 62.379 C 347.087 62.379,346.919 62.411,347.125 62.451 M293.455 62.954 C 293.750 62.990,294.275 62.991,294.621 62.955 C 294.967 62.919,294.725 62.889,294.083 62.888 C 293.442 62.887,293.159 62.917,293.455 62.954 M336.991 63.458 L 336.417 64.083 337.042 63.509 C 337.385 63.193,337.667 62.912,337.667 62.884 C 337.667 62.757,337.526 62.877,336.991 63.458 M340.536 63.292 C 340.138 63.681,340.131 63.700,340.492 63.419 C 341.203 62.865,341.237 62.833,341.119 62.833 C 341.057 62.833,340.794 63.040,340.536 63.292 M257.208 63.115 C 257.369 63.157,257.631 63.157,257.792 63.115 C 257.952 63.073,257.821 63.039,257.500 63.039 C 257.179 63.039,257.048 63.073,257.208 63.115 M274.044 63.120 C 274.297 63.158,274.672 63.157,274.877 63.117 C 275.082 63.078,274.875 63.046,274.417 63.048 C 273.958 63.049,273.791 63.081,274.044 63.120 M350.879 65.167 C 350.879 65.579,350.911 65.748,350.951 65.542 C 350.991 65.335,350.991 64.998,350.951 64.792 C 350.911 64.585,350.879 64.754,350.879 65.167 M339.336 66.431 C 339.337 66.606,339.415 66.862,339.508 67.000 C 339.631 67.183,339.647 67.115,339.565 66.750 C 339.428 66.137,339.332 66.004,339.336 66.431 M352.409 68.375 L 351.750 69.083 352.458 68.425 C 353.117 67.812,353.243 67.667,353.117 67.667 C 353.090 67.667,352.771 67.985,352.409 68.375 M344.542 69.453 C 344.794 69.491,345.206 69.491,345.458 69.453 C 345.710 69.415,345.504 69.383,345.000 69.383 C 344.496 69.383,344.290 69.415,344.542 69.453 M338.000 69.582 C 338.000 69.696,339.020 70.202,339.097 70.125 C 339.133 70.089,338.901 69.935,338.581 69.783 C 338.262 69.630,338.000 69.540,338.000 69.582 " stroke="none" fill="#dc8484" fill-rule="evenodd"></path></g></svg>