<svg width="101" height="69" viewBox="0 0 101 69" fill="none" xmlns="http://www.w3.org/2000/svg">
<path d="M22.0439 19.1455V16.4954L22.0121 12.29L21.9962 10.3699L21.9804 9.16382C21.9804 8.59253 22.1761 8.30688 22.5675 8.30688C22.8003 8.30688 22.959 8.37565 23.0436 8.51318C23.1388 8.64014 23.1864 8.88875 23.1864 9.25903V9.4812C23.1759 9.70337 23.1706 10.0684 23.1706 10.5762L23.1071 15.9241L23.0595 20.8276L23.1071 25.9851L23.1706 31.1584C20.9912 29.7937 17.8015 27.9106 13.6015 25.509C9.40144 23.0969 6.00015 21.2032 3.39761 19.8279L3.41348 20.6055L3.57217 28.7939L3.58804 29.8889C3.58804 30.3438 3.37645 30.5713 2.95328 30.5713C2.51952 30.5713 2.30264 30.2909 2.30264 29.7302L2.31851 28.6194L2.33438 26.8262L2.39786 18.6853L2.2709 7.71973C6.55557 10.3752 13.1466 14.1838 22.0439 19.1455ZM33.1046 22.113V27.0325C33.1046 27.9846 33.1628 28.5876 33.2792 28.8416C33.5014 29.3282 34.0251 29.5715 34.8503 29.5715C36.0775 29.5715 37.2888 29.2383 38.4843 28.5718C39.6903 27.8947 40.7324 26.9637 41.6105 25.7788C41.8961 25.3874 42.1024 25.1388 42.2294 25.033C42.3564 24.9272 42.4939 24.8743 42.642 24.8743C42.8218 24.8743 42.97 24.943 43.0863 25.0806C43.2027 25.2075 43.2609 25.3715 43.2609 25.5725C43.2609 26.0168 42.9065 26.6146 42.1977 27.3657C41.2667 28.3285 40.1082 29.1113 38.7223 29.7144C37.347 30.3174 36.0034 30.6189 34.6916 30.6189C32.4381 30.6189 30.4492 29.8625 28.7248 28.3496C27.7197 27.4609 26.9474 26.366 26.4079 25.0647C25.9318 23.9221 25.6938 22.7795 25.6938 21.637C25.6938 20.5367 25.9053 19.4364 26.3285 18.3362C26.7517 17.2253 27.3336 16.2679 28.0741 15.4639C28.9311 14.5223 29.9467 13.7923 31.121 13.2739C32.2742 12.7661 33.4802 12.5122 34.7392 12.5122C36.6964 12.5122 38.4684 13.0888 40.0553 14.2419C42.5309 16.0404 43.7581 18.6483 43.737 22.0654H40.0395L35.2787 22.0813L33.1046 22.113ZM37.1671 21.0657V16.4319C37.146 15.4374 37.1248 14.845 37.1037 14.6545C37.0825 14.4535 37.0085 14.2684 36.8815 14.0991C36.5853 13.6865 35.9822 13.4802 35.0724 13.4802C34.1414 13.4802 33.5596 13.7183 33.3268 14.1943C33.1787 14.48 33.1046 15.2258 33.1046 16.4319V21.0657L35.0407 21.1292L37.1671 21.0657ZM54.528 7.35474L54.3534 12.4805L54.3376 12.9724C55.258 12.9724 56.0937 12.9354 56.8449 12.8613C56.9718 12.8507 57.0829 12.8455 57.1781 12.8455C57.6436 12.8455 57.8764 13.057 57.8764 13.4802C57.8764 13.8717 57.633 14.0674 57.1464 14.0674C56.9983 14.0674 56.8131 14.0568 56.591 14.0356C55.7552 13.9722 55.1575 13.9404 54.7978 13.9404H54.3376L54.3217 17.019L54.3852 23.1921L54.4328 26.4929C54.4328 27.2652 54.491 27.8048 54.6073 28.1116C54.7237 28.4184 54.9247 28.5718 55.2104 28.5718C55.5912 28.5718 55.9985 28.3496 56.4323 27.9053C56.8555 27.4609 57.1887 26.9161 57.432 26.2708C57.6542 25.6571 57.9187 25.3503 58.2255 25.3503C58.5852 25.3503 58.765 25.5514 58.765 25.9534C58.765 26.3554 58.5852 26.8579 58.2255 27.4609C57.8658 28.0534 57.432 28.5718 56.9242 29.0161C55.6759 30.1058 54.0572 30.6506 52.0683 30.6506C50.1957 30.6506 48.7463 30.0846 47.7201 28.9526C47.1912 28.3813 46.8262 27.7466 46.6252 27.0483C46.4241 26.3395 46.3236 25.3609 46.3236 24.1125V22.9224L46.3395 19.574V13.8928C46.1914 13.8822 46.0856 13.877 46.0221 13.877C45.9163 13.877 45.7047 13.8875 45.3874 13.9087C45.1229 13.9299 44.9007 13.9404 44.7209 13.9404C44.2025 13.9404 43.9433 13.7447 43.9433 13.3533C43.9433 12.9724 44.1919 12.782 44.6891 12.782C44.9219 12.782 45.0858 12.7873 45.1811 12.7979L46.3395 12.8772V11.084C49.471 9.95199 52.2005 8.7089 54.528 7.35474ZM68.588 7.35474L68.4135 12.4805L68.3976 12.9724C69.318 12.9724 70.1538 12.9354 70.9049 12.8613C71.0319 12.8507 71.143 12.8455 71.2382 12.8455C71.7037 12.8455 71.9364 13.057 71.9364 13.4802C71.9364 13.8717 71.6931 14.0674 71.2065 14.0674C71.0583 14.0674 70.8732 14.0568 70.651 14.0356C69.8153 13.9722 69.2175 13.9404 68.8578 13.9404H68.3976L68.3817 17.019L68.4452 23.1921L68.4928 26.4929C68.4928 27.2652 68.551 27.8048 68.6674 28.1116C68.7838 28.4184 68.9848 28.5718 69.2704 28.5718C69.6513 28.5718 70.0586 28.3496 70.4923 27.9053C70.9155 27.4609 71.2488 26.9161 71.4921 26.2708C71.7143 25.6571 71.9787 25.3503 72.2856 25.3503C72.6453 25.3503 72.8251 25.5514 72.8251 25.9534C72.8251 26.3554 72.6453 26.8579 72.2856 27.4609C71.9259 28.0534 71.4921 28.5718 70.9843 29.0161C69.7359 30.1058 68.1173 30.6506 66.1283 30.6506C64.2558 30.6506 62.8064 30.0846 61.7802 28.9526C61.2512 28.3813 60.8862 27.7466 60.6852 27.0483C60.4842 26.3395 60.3837 25.3609 60.3837 24.1125V22.9224L60.3996 19.574V13.8928C60.2515 13.8822 60.1457 13.877 60.0822 13.877C59.9764 13.877 59.7648 13.8875 59.4474 13.9087C59.1829 13.9299 58.9608 13.9404 58.7809 13.9404C58.2625 13.9404 58.0033 13.7447 58.0033 13.3533C58.0033 12.9724 58.2519 12.782 58.7492 12.782C58.9819 12.782 59.1459 12.7873 59.2411 12.7979L60.3996 12.8772V11.084C63.5311 9.95199 66.2606 8.7089 68.588 7.35474ZM80.4582 22.113V27.0325C80.4582 27.9846 80.5163 28.5876 80.6327 28.8416C80.8549 29.3282 81.3786 29.5715 82.2038 29.5715C83.431 29.5715 84.6423 29.2383 85.8378 28.5718C87.0439 27.8947 88.0859 26.9637 88.964 25.7788C89.2497 25.3874 89.456 25.1388 89.5829 25.033C89.7099 24.9272 89.8474 24.8743 89.9955 24.8743C90.1754 24.8743 90.3235 24.943 90.4398 25.0806C90.5562 25.2075 90.6144 25.3715 90.6144 25.5725C90.6144 26.0168 90.26 26.6146 89.5512 27.3657C88.6202 28.3285 87.4617 29.1113 86.0758 29.7144C84.7005 30.3174 83.3569 30.6189 82.0451 30.6189C79.7917 30.6189 77.8027 29.8625 76.0783 28.3496C75.0732 27.4609 74.3009 26.366 73.7614 25.0647C73.2853 23.9221 73.0473 22.7795 73.0473 21.637C73.0473 20.5367 73.2589 19.4364 73.682 18.3362C74.1052 17.2253 74.6871 16.2679 75.4276 15.4639C76.2846 14.5223 77.3002 13.7923 78.4745 13.2739C79.6277 12.7661 80.8337 12.5122 82.0927 12.5122C84.0499 12.5122 85.8219 13.0888 87.4088 14.2419C89.8844 16.0404 91.1116 18.6483 91.0905 22.0654H87.393L82.6322 22.0813L80.4582 22.113ZM84.5207 21.0657V16.4319C84.4995 15.4374 84.4783 14.845 84.4572 14.6545C84.436 14.4535 84.362 14.2684 84.235 14.0991C83.9388 13.6865 83.3358 13.4802 82.4259 13.4802C81.4949 13.4802 80.9131 13.7183 80.6803 14.1943C80.5322 14.48 80.4582 15.2258 80.4582 16.4319V21.0657L82.3942 21.1292L84.5207 21.0657Z" fill="black"/>
<path d="M13.7462 35.7657C10.4877 35.7657 7.8559 36.962 5.85069 39.3546C3.79991 41.77 2.77452 44.9601 2.77452 48.9249C2.77452 52.9809 3.79991 56.1938 5.85069 58.5636C7.83311 60.9106 10.465 62.0841 13.7462 62.0841C16.6401 62.0841 18.9529 61.2866 20.6847 59.6915C22.143 58.3699 23.1456 56.5698 23.6925 54.2911C23.7836 53.881 23.7381 53.5392 23.5558 53.2657C23.3963 53.0151 23.157 52.8556 22.838 52.7872C22.5418 52.7189 22.2683 52.7531 22.0177 52.8898C21.7442 53.0493 21.5733 53.3113 21.505 53.6759C21.0037 56.0001 20.0467 57.6977 18.6339 58.7687C17.3806 59.7029 15.7514 60.17 13.7462 60.17C11.103 60.17 8.99522 59.2472 7.42296 57.4015C5.73676 55.4191 4.89366 52.5935 4.89366 48.9249C4.89366 45.3475 5.73676 42.5447 7.42296 40.5167C9.0408 38.6254 11.1485 37.6798 13.7462 37.6798C15.7286 37.6798 17.3692 38.1355 18.6681 39.047C20.1036 40.0496 21.0151 41.5421 21.4025 43.5245C21.4708 43.9347 21.6417 44.2309 21.9151 44.4132C22.143 44.5727 22.3937 44.6183 22.6671 44.5499C22.9633 44.4816 23.1912 44.3335 23.3507 44.1056C23.533 43.8322 23.6013 43.5359 23.5558 43.2169C23.1456 41.0294 22.2 39.2863 20.7189 37.9874C18.9871 36.5063 16.6629 35.7657 13.7462 35.7657ZM39.2101 35.7657C35.4503 35.7657 32.545 37.1101 30.4942 39.799C28.7169 42.1915 27.8282 45.2335 27.8282 48.9249C27.8282 52.6163 28.7169 55.6469 30.4942 58.0167C32.545 60.7283 35.4503 62.0841 39.2101 62.0841C42.947 62.0841 45.8409 60.7283 47.8917 58.0167C49.7146 55.6469 50.6261 52.6163 50.6261 48.9249C50.6261 45.2335 49.7146 42.1915 47.8917 39.799C45.8409 37.1101 42.947 35.7657 39.2101 35.7657ZM39.2101 37.6456C42.309 37.6456 44.6788 38.7736 46.3194 41.0294C47.7778 43.0346 48.5069 45.6665 48.5069 48.9249C48.5069 52.1606 47.7778 54.7924 46.3194 56.8204C44.6788 59.0763 42.309 60.2042 39.2101 60.2042C36.0883 60.2042 33.7185 59.0763 32.1007 56.8204C30.6651 54.8152 29.9474 52.1834 29.9474 48.9249C29.9474 45.6437 30.6651 43.0118 32.1007 41.0294C33.7185 38.7736 36.0883 37.6456 39.2101 37.6456ZM59.2052 36.3468C58.157 36.3468 57.3367 36.6886 56.7442 37.3722C56.2202 37.9874 55.9581 38.7508 55.9581 39.6622V58.2218C55.9581 59.1105 56.2202 59.8624 56.7442 60.4777C57.3367 61.1613 58.157 61.5031 59.2052 61.5031H64.0929C67.8299 61.5031 70.7579 60.2498 72.8771 57.7433C74.8595 55.4419 75.8507 52.5024 75.8507 48.9249C75.8507 45.3475 74.8595 42.408 72.8771 40.1066C70.7579 37.6001 67.8299 36.3468 64.0929 36.3468H59.2052ZM59.5812 59.589C59.0799 59.589 58.6925 59.4295 58.4191 59.1105C58.1912 58.837 58.0773 58.4952 58.0773 58.0851V39.799C58.0773 39.366 58.1912 39.0128 58.4191 38.7394C58.6925 38.4204 59.0799 38.2609 59.5812 38.2609H64.0929C67.1463 38.2609 69.5388 39.309 71.2706 41.4054C72.8885 43.3422 73.6974 45.8488 73.6974 48.9249C73.6974 51.9783 72.8885 54.4734 71.2706 56.4103C69.5388 58.5294 67.1463 59.589 64.0929 59.589H59.5812ZM96.9396 36.3468H84.464C83.4158 36.3468 82.5955 36.6886 82.003 37.3722C81.4789 37.9874 81.2169 38.7508 81.2169 39.6622V58.2218C81.2169 59.1105 81.4789 59.8624 82.003 60.4777C82.5955 61.1613 83.4158 61.5031 84.464 61.5031H97.3839C97.7257 61.5031 97.9991 61.4005 98.2042 61.1954C98.3865 61.0131 98.4776 60.7967 98.4776 60.546C98.4776 60.2726 98.3865 60.0447 98.2042 59.8624C97.9991 59.6801 97.7257 59.589 97.3839 59.589H84.84C84.3386 59.589 83.9513 59.4295 83.6778 59.1105C83.45 58.837 83.336 58.4952 83.336 58.0851V49.4376H95.7433C96.0851 49.4376 96.3585 49.3351 96.5636 49.13C96.7459 48.9477 96.837 48.7312 96.837 48.4806C96.837 48.2072 96.7459 47.9793 96.5636 47.797C96.3585 47.6147 96.0851 47.5236 95.7433 47.5236H83.336V39.799C83.336 39.366 83.45 39.0128 83.6778 38.7394C83.9513 38.4204 84.3386 38.2609 84.84 38.2609H96.9396C97.2586 38.2609 97.5206 38.1583 97.7257 37.9532C97.908 37.771 97.9991 37.5545 97.9991 37.3038C97.9991 37.0304 97.908 36.8025 97.7257 36.6202C97.5206 36.4379 97.2586 36.3468 96.9396 36.3468Z" fill="black"/>
</svg>
