<svg id="Layer_1" data-name="Layer 1" xmlns="http://www.w3.org/2000/svg" viewBox="0 0 456.16 215.69"><title>JJIT</title><g id="layer1"><g id="justjoin.it"><g id="justjoin-it"><path id="path14" d="M31,63.62a7.54,7.54,0,0,0-8,7,6.77,6.77,0,0,0,0,.78,7.7,7.7,0,0,0,7.59,7.8H31a7.54,7.54,0,0,0,8-7c0-.26,0-.52,0-.78a7.54,7.54,0,0,0-7.27-7.8A6.57,6.57,0,0,0,31,63.62Zm-6.89,71.2c0,4-2.16,5.71-5.15,5.71a11,11,0,0,1-5.71-1.91l-3.79,10.2a21.1,21.1,0,0,0,11.48,3.27c9.15,0,17-5.71,17-16.74V85.26H24.07Zm60.07-25.51c0,7.06-4.07,12.32-10.76,12.39-5.6,0-9.15-3.72-9.15-9.85V85.26H50.31v30.56c0,11.49,6.79,18.65,17.59,18.65a17.27,17.27,0,0,0,16.29-9.15v8.6H98V85.26H84.14Zm37.55-10.76c0-2.51,2.36-3.62,5.6-3.62a33,33,0,0,1,14.83,4.7l4.8-9.5a36.22,36.22,0,0,0-19-5.42c-10.58,0-19.17,5.15-19.17,15.08,0,17.09,25.13,12.94,25.13,20.71,0,2.51-2.51,3.79-6.16,3.79a29.3,29.3,0,0,1-16.91-6.06l-4.53,9.4a34,34,0,0,0,21.09,6.79c11,0,19.8-5.25,19.8-15.08C147.38,102.07,121.69,105.79,121.69,98.55Zm62.15,22.62a15.9,15.9,0,0,1-6.5,1.81c-3,0-4.7-1.53-4.7-5.6V97.27h13.22V87.42H172.64V74H158.79v13.4H152V97h6.79v22.62c0,10,6.61,15.08,15.28,15.08a26,26,0,0,0,12.56-3.34ZM195.33,135c0,4-2.16,5.71-5.15,5.71a11,11,0,0,1-5.71-1.91l-3.79,10a21.1,21.1,0,0,0,11.48,3.27c9.15,0,17-5.71,17-16.74V85.26H195.36Zm6.89-71.4a7.54,7.54,0,0,0-8,7c0,.26,0,.52,0,.78a7.7,7.7,0,0,0,7.59,7.8h.46a7.54,7.54,0,0,0,8-7.07,5.77,5.77,0,0,0,0-.72,7.54,7.54,0,0,0-7.27-7.8A5.77,5.77,0,0,0,202.22,63.62Zm42.72,21.16c-15.65,0-26.13,9.85-26.13,24.78s10.5,24.88,26.13,24.88,26.07-10,26.07-24.88-10.53-24.75-26-24.75Zm0,38.35c-7.08,0-12.11-5.4-12.11-13.37s5-13.39,12.22-13.39,12.11,5.43,12.11,13.39-5,13.4-12.14,13.4Zm42.33-44.68a6.66,6.66,0,0,0,6.79-6.53v-.44a6.79,6.79,0,0,0-13.58,0,6.67,6.67,0,0,0,6.35,7Zm-7,55.54h13.92V85.26H280.31Zm58.08-49.28c-7.54,0-13.39,3-16.84,9V85.26H307.63v48.66h13.92v-24c0-7.14,4.17-12.39,11.14-12.57,6,0,9.6,3.8,9.6,10.06v26.49h13.92V103.35C356.21,91.94,349.25,84.71,338.39,84.71Zm33.76,35.63a6.79,6.79,0,0,0-7,6.6,4.86,4.86,0,0,0,0,.54,7,7,0,1,0,13.93,0v0a6.75,6.75,0,0,0-6.32-7.13Zm24.33-41.89a6.67,6.67,0,0,0,6.79-6.53c0-.14,0-.29,0-.44a6.79,6.79,0,0,0-13.57,0v0a6.66,6.66,0,0,0,6.35,7Zm-7,55.54h13.93V85.26H389.51ZM444,121a16.26,16.26,0,0,1-6.51,1.81c-3,0-4.7-1.54-4.7-5.61V97.1H446V87.42H432.74V74H418.9v13.4h-6.79V97h6.79v22.62c0,10,6.61,15.08,15.28,15.08a26,26,0,0,0,12.56-3.34Z"/></g></g></g></svg>