<?xml version="1.0" encoding="UTF-8"?>
<svg width="323px" height="91px" viewBox="0 0 323 91" version="1.1" xmlns="http://www.w3.org/2000/svg" xmlns:xlink="http://www.w3.org/1999/xlink">
    <!-- Generator: Sketch 52.3 (67297) - http://www.bohemiancoding.com/sketch -->
    <title>logo</title>
    <desc>Created with Sketch.</desc>
    <defs>
        <linearGradient x1="57.4979691%" y1="4.50281992%" x2="38.5313162%" y2="104.773202%" id="linearGradient-1">
            <stop stop-color="#3A02AA" offset="0%"></stop>
            <stop stop-color="#4002AD" offset="8%"></stop>
            <stop stop-color="#6602BC" offset="18%"></stop>
            <stop stop-color="#9401CF" offset="32%"></stop>
            <stop stop-color="#BB01DF" offset="46%"></stop>
            <stop stop-color="#D900EB" offset="60%"></stop>
            <stop stop-color="#EE00F4" offset="74%"></stop>
            <stop stop-color="#FB00F9" offset="87%"></stop>
            <stop stop-color="#FF00FB" offset="100%"></stop>
        </linearGradient>
        <linearGradient x1="71.8013952%" y1="-15.9443926%" x2="39.827657%" y2="86.7191166%" id="linearGradient-2">
            <stop stop-color="#FF00FB" offset="0%"></stop>
            <stop stop-color="#FB00F9" offset="13%"></stop>
            <stop stop-color="#EE00F4" offset="26%"></stop>
            <stop stop-color="#D900EB" offset="40%"></stop>
            <stop stop-color="#BB01DF" offset="54%"></stop>
            <stop stop-color="#9401CF" offset="68%"></stop>
            <stop stop-color="#6602BC" offset="82%"></stop>
            <stop stop-color="#4002AD" offset="92%"></stop>
            <stop stop-color="#3A02AA" offset="100%"></stop>
        </linearGradient>
    </defs>
    <g id="Page-1" stroke="none" stroke-width="1" fill="none" fill-rule="evenodd">
        <g id="logo">
            <g id="signet">
                <path d="M90.9852153,44.6064731 C90.8033917,62.4651924 77.2944684,77.3196138 59.6448772,79.0683302 C41.995286,80.8170467 25.8706821,68.8987068 22.2362307,51.4181029 C21.7023384,49.3823469 21.4339569,47.2852457 21.4378554,45.1796922 C21.4378554,44.807472 21.4378554,44.4352518 21.4378554,44.070476 C22.0342291,31.1223102 32.6322215,20.9332616 45.5036962,20.9332616 C58.3751709,20.9332616 68.9731632,31.1223102 69.569537,44.070476 L69.569537,44.0258096 C69.5683404,26.1868662 56.2537681,11.1987106 38.6489848,9.21867969 C21.0442015,7.23864876 4.77415442,18.8993869 0.86490658,36.298518 C0.328594059,39.0359321 0.0391138115,41.8165664 0,44.6064731 C0,44.8000276 0,44.9861377 0,45.1796922 C3.07740957e-15,70.4855494 20.3710439,91 45.5,91 C70.6289561,91 91,70.4855494 91,45.1796922 C91,44.9861377 90.9926076,44.77025 90.9852153,44.6064731 Z" id="Path" fill="url(#linearGradient-1)"></path>
                <path d="M90.2022979,37.0031105 C85.9975944,15.4999407 67.3149714,1.34119269e-15 45.601149,0 C23.8873266,-1.34248603e-15 5.20470352,15.4999407 1,37.0031105 C4.90595145,19.5778299 21.1622792,7.89956655 38.7522177,9.88257331 C56.3421562,11.8655801 69.6455012,26.8762616 69.6466968,44.7420155 L69.6466968,44.7792935 C69.6466968,45.1446175 69.6466968,45.5248528 69.6466968,45.8901768 C69.6548282,58.0979444 60.6881183,68.4164738 48.6961609,69.9992118 C36.7042034,71.5819497 25.4106433,63.9374373 22.3089865,52.1379633 C25.9403732,69.6448392 42.0513804,81.5810914 59.6860889,79.8297467 C77.3207975,78.0784021 90.8183298,63.2016557 91,45.3160962 C90.9860556,42.526331 90.7190399,39.7437162 90.2022979,37.0031105 Z" id="Path" fill="url(#linearGradient-2)"></path>
            </g>
            <g id="overment" transform="translate(118.000000, 17.000000)">
                <g id="Group">
                    <g id="path-3-link" transform="translate(1.000000, 0.000000)" fill="#000000" fill-rule="nonzero">
                        <path d="M11.582,27.21 C5.114,27.21 0.326,22.506 0.326,15.954 C0.326,9.402 5.114,4.74 11.582,4.74 C18.05,4.74 22.796,9.402 22.796,15.954 C22.796,22.506 18.05,27.21 11.582,27.21 Z M11.582,24.564 C16.286,24.564 19.772,21.12 19.772,15.954 C19.772,10.788 16.286,7.344 11.582,7.344 C6.878,7.344 3.35,10.788 3.35,15.954 C3.35,21.12 6.878,24.564 11.582,24.564 Z M43.88,4.908 L46.82,4.908 L36.992,27 L33.926,27 L24.14,4.908 L27.248,4.908 L35.522,23.724 L43.88,4.908 Z M69.668,15.954 C69.668,16.206 69.626,16.542 69.626,16.878 L51.146,16.878 C51.482,21.498 55.01,24.564 59.84,24.564 C62.528,24.564 64.922,23.598 66.602,21.666 L68.282,23.598 C66.308,25.95 63.242,27.21 59.756,27.21 C52.868,27.21 48.164,22.506 48.164,15.954 C48.164,9.402 52.742,4.74 58.958,4.74 C65.174,4.74 69.668,9.318 69.668,15.954 Z M58.958,7.302 C54.674,7.302 51.524,10.326 51.146,14.652 L66.812,14.652 C66.434,10.326 63.284,7.302 58.958,7.302 Z M78.614,9.234 C80,6.294 82.814,4.74 86.888,4.74 L86.888,7.638 C86.636,7.638 86.384,7.596 86.174,7.596 C81.554,7.596 78.74,10.536 78.74,15.744 L78.74,27 L75.758,27 L75.758,4.908 L78.614,4.908 L78.614,9.234 Z M119.816,4.74 C125.192,4.74 128.72,7.848 128.72,14.19 L128.72,27 L125.738,27 L125.738,14.484 C125.738,9.822 123.386,7.428 119.396,7.428 C114.86,7.428 112.004,10.368 112.004,15.408 L112.004,27 L109.022,27 L109.022,14.484 C109.022,9.822 106.67,7.428 102.638,7.428 C98.144,7.428 95.246,10.368 95.246,15.408 L95.246,27 L92.264,27 L92.264,4.908 L95.12,4.908 L95.12,8.94 C96.674,6.294 99.53,4.74 103.226,4.74 C106.88,4.74 109.736,6.294 111.08,9.402 C112.676,6.546 115.826,4.74 119.816,4.74 Z M156.188,15.954 C156.188,16.206 156.146,16.542 156.146,16.878 L137.666,16.878 C138.002,21.498 141.53,24.564 146.36,24.564 C149.048,24.564 151.442,23.598 153.122,21.666 L154.802,23.598 C152.828,25.95 149.762,27.21 146.276,27.21 C139.388,27.21 134.684,22.506 134.684,15.954 C134.684,9.402 139.262,4.74 145.478,4.74 C151.694,4.74 156.188,9.318 156.188,15.954 Z M145.478,7.302 C141.194,7.302 138.044,10.326 137.666,14.652 L153.332,14.652 C152.954,10.326 149.804,7.302 145.478,7.302 Z M173.534,4.74 C178.91,4.74 182.606,7.848 182.606,14.19 L182.606,27 L179.624,27 L179.624,14.484 C179.624,9.822 177.188,7.428 172.988,7.428 C168.242,7.428 165.26,10.368 165.26,15.408 L165.26,27 L162.278,27 L162.278,4.908 L165.134,4.908 L165.134,8.982 C166.73,6.294 169.712,4.74 173.534,4.74 Z M201.296,23.514 L202.346,25.656 C201.17,26.706 199.406,27.21 197.684,27.21 C193.526,27.21 191.216,24.858 191.216,20.784 L191.216,7.428 L187.268,7.428 L187.268,4.908 L191.216,4.908 L191.216,0.078 L194.198,0.078 L194.198,4.908 L200.918,4.908 L200.918,7.428 L194.198,7.428 L194.198,20.616 C194.198,23.22 195.542,24.648 198.02,24.648 C199.238,24.648 200.456,24.27 201.296,23.514 Z" id="path-3"></path>
                    </g>
                    <g id="path-3-link" transform="translate(0.000000, 33.000000)" fill="#111111" opacity="0.5">
                        <path d="M12.9,19 L11.1,15.06 L2.98,15.06 L1.2,19 L0.1,19 L6.54,5 L7.56,5 L14,19 L12.9,19 Z M3.38,14.2 L10.72,14.2 L7.04,6.12 L3.38,14.2 Z M24.4,4.16 L25.4,4.16 L25.4,19 L24.42,19 L24.42,16.54 C23.6,18.16 22.02,19.08 20.14,19.08 C17.2,19.08 14.98,16.9 14.98,13.78 C14.98,10.64 17.2,8.48 20.14,8.48 C22,8.48 23.56,9.4 24.4,10.98 L24.4,4.16 Z M20.2,18.18 C22.6,18.18 24.4,16.4 24.4,13.78 C24.4,11.16 22.6,9.38 20.2,9.38 C17.8,9.38 16,11.16 16,13.78 C16,16.4 17.8,18.18 20.2,18.18 Z M33.14,8.48 C35.72,8.48 37.16,9.8 37.16,12.38 L37.16,19 L36.2,19 L36.2,17.14 C35.54,18.34 34.26,19.08 32.44,19.08 C30.1,19.08 28.68,17.88 28.68,16.1 C28.68,14.52 29.68,13.18 32.58,13.18 L36.16,13.18 L36.16,12.34 C36.16,10.4 35.1,9.36 33.06,9.36 C31.62,9.36 30.32,9.9 29.46,10.68 L28.96,9.96 C30,9.04 31.52,8.48 33.14,8.48 Z M32.58,18.26 C34.34,18.26 35.56,17.42 36.16,15.92 L36.16,13.96 L32.6,13.96 C30.44,13.96 29.68,14.86 29.68,16.06 C29.68,17.42 30.74,18.26 32.58,18.26 Z M54.28,8.48 C56.8,8.48 58.44,9.98 58.44,12.9 L58.44,19 L57.44,19 L57.44,12.98 C57.44,10.62 56.22,9.38 54.18,9.38 C51.82,9.38 50.36,10.96 50.36,13.44 L50.36,19 L49.36,19 L49.36,12.98 C49.36,10.62 48.14,9.38 46.1,9.38 C43.74,9.38 42.28,10.96 42.28,13.44 L42.28,19 L41.28,19 L41.28,8.56 L42.24,8.56 L42.24,10.8 C42.92,9.34 44.34,8.48 46.24,8.48 C48.12,8.48 49.5,9.34 50.06,11 C50.74,9.48 52.26,8.48 54.28,8.48 Z M78.02,16.88 L78.02,12.06 L79,12.06 L79,17.3 C77.74,18.5 75.92,19.1 74,19.1 C69.78,19.1 66.68,16.08 66.68,12 C66.68,7.92 69.78,4.9 74.02,4.9 C76.04,4.9 77.82,5.54 79.06,6.82 L78.42,7.5 C77.2,6.3 75.74,5.84 74.04,5.84 C70.4,5.84 67.7,8.48 67.7,12 C67.7,15.5 70.4,18.16 74.04,18.16 C75.52,18.16 76.88,17.8 78.02,16.88 Z M87.24,19.08 C84.24,19.08 82.02,16.88 82.02,13.78 C82.02,10.68 84.24,8.48 87.24,8.48 C90.24,8.48 92.46,10.68 92.46,13.78 C92.46,16.88 90.24,19.08 87.24,19.08 Z M87.24,18.18 C89.64,18.18 91.44,16.4 91.44,13.78 C91.44,11.16 89.64,9.38 87.24,9.38 C84.84,9.38 83.04,11.16 83.04,13.78 C83.04,16.4 84.84,18.18 87.24,18.18 Z M98.2,19.08 C96.48,19.08 94.84,18.5 94.02,17.74 L94.48,16.94 C95.28,17.62 96.7,18.2 98.24,18.2 C100.44,18.2 101.32,17.42 101.32,16.24 C101.32,13.2 94.4,15.44 94.4,11.34 C94.4,9.76 95.72,8.48 98.36,8.48 C99.68,8.48 101.12,8.88 101.94,9.5 L101.48,10.3 C100.6,9.66 99.46,9.36 98.34,9.36 C96.3,9.36 95.4,10.2 95.4,11.32 C95.4,14.46 102.32,12.24 102.32,16.22 C102.32,17.92 100.86,19.08 98.2,19.08 Z M110.36,8.48 C113.3,8.48 115.52,10.66 115.52,13.78 C115.52,16.92 113.3,19.08 110.36,19.08 C108.52,19.08 106.96,18.18 106.12,16.62 L106.12,22.88 L105.12,22.88 L105.12,8.56 L106.08,8.56 L106.08,11.02 C106.9,9.42 108.48,8.48 110.36,8.48 Z M110.3,18.18 C112.7,18.18 114.52,16.4 114.52,13.78 C114.52,11.16 112.7,9.38 110.3,9.38 C107.9,9.38 106.1,11.16 106.1,13.78 C106.1,16.4 107.9,18.18 110.3,18.18 Z M122.7,19.08 C119.7,19.08 117.48,16.88 117.48,13.78 C117.48,10.68 119.7,8.48 122.7,8.48 C125.7,8.48 127.92,10.68 127.92,13.78 C127.92,16.88 125.7,19.08 122.7,19.08 Z M122.7,18.18 C125.1,18.18 126.9,16.4 126.9,13.78 C126.9,11.16 125.1,9.38 122.7,9.38 C120.3,9.38 118.5,11.16 118.5,13.78 C118.5,16.4 120.3,18.18 122.7,18.18 Z M139.3,4.16 L140.3,4.16 L140.3,19 L139.32,19 L139.32,16.54 C138.5,18.16 136.92,19.08 135.04,19.08 C132.1,19.08 129.88,16.9 129.88,13.78 C129.88,10.64 132.1,8.48 135.04,8.48 C136.9,8.48 138.46,9.4 139.3,10.98 L139.3,4.16 Z M135.1,18.18 C137.5,18.18 139.3,16.4 139.3,13.78 C139.3,11.16 137.5,9.38 135.1,9.38 C132.7,9.38 130.9,11.16 130.9,13.78 C130.9,16.4 132.7,18.18 135.1,18.18 Z M148.04,8.48 C150.62,8.48 152.06,9.8 152.06,12.38 L152.06,19 L151.1,19 L151.1,17.14 C150.44,18.34 149.16,19.08 147.34,19.08 C145,19.08 143.58,17.88 143.58,16.1 C143.58,14.52 144.58,13.18 147.48,13.18 L151.06,13.18 L151.06,12.34 C151.06,10.4 150,9.36 147.96,9.36 C146.52,9.36 145.22,9.9 144.36,10.68 L143.86,9.96 C144.9,9.04 146.42,8.48 148.04,8.48 Z M147.48,18.26 C149.24,18.26 150.46,17.42 151.06,15.92 L151.06,13.96 L147.5,13.96 C145.34,13.96 144.58,14.86 144.58,16.06 C144.58,17.42 145.64,18.26 147.48,18.26 Z M157.14,10.84 C157.78,9.32 159.16,8.48 161.12,8.48 L161.12,9.46 C161.04,9.46 160.96,9.44 160.88,9.44 C158.56,9.44 157.18,10.98 157.18,13.56 L157.18,19 L156.18,19 L156.18,8.56 L157.14,8.56 L157.14,10.84 Z M167.92,19.08 C164.86,19.08 162.64,16.88 162.64,13.78 C162.64,10.66 164.86,8.48 167.92,8.48 C169.58,8.48 171.02,9.12 171.88,10.4 L171.14,10.94 C170.38,9.88 169.22,9.38 167.92,9.38 C165.46,9.38 163.66,11.14 163.66,13.78 C163.66,16.42 165.46,18.18 167.92,18.18 C169.22,18.18 170.38,17.68 171.14,16.62 L171.88,17.16 C171.02,18.42 169.58,19.08 167.92,19.08 Z M174.74,18.14 L181.76,18.14 L181.76,19 L173.46,19 L173.46,18.32 L180.34,9.42 L173.56,9.42 L173.56,8.56 L181.64,8.56 L181.64,9.24 L174.74,18.14 Z M191.92,8.56 L192.94,8.56 L187.58,20.42 C186.74,22.34 185.7,22.96 184.32,22.96 C183.38,22.96 182.5,22.64 181.9,22.02 L182.4,21.26 C182.94,21.82 183.56,22.08 184.34,22.08 C185.3,22.08 186,21.64 186.64,20.22 L187.2,18.96 L182.5,8.56 L183.56,8.56 L187.74,17.9 L191.92,8.56 Z M203.28,19 L198.84,13.42 L196.12,15.9 L196.12,19 L195.12,19 L195.12,4.16 L196.12,4.16 L196.12,14.66 L202.8,8.56 L204.08,8.56 L199.58,12.78 L204.52,19 L203.28,19 Z" id="Adam-Gospodarczyk"></path>
                    </g>
                </g>
            </g>
        </g>
    </g>
</svg>