<svg id="Warstwa_1" data-name="Warstwa 1" xmlns="http://www.w3.org/2000/svg" viewBox="0 0 139.99 35.09">
  <title>logo_v2</title>
  <g>
    <path d="M9.66,16.15c0,3,.23,8.63,9.09,8.63a29.61,29.61,0,0,0,5.82-.59V21a35.84,35.84,0,0,1-5.82.5c-4.62,0-5.41-2.31-5.41-5.35V10.78c0-3.12.88-5.5,5.41-5.5a35.12,35.12,0,0,1,5.82.53V2.59A29.36,29.36,0,0,0,18.75,2C9.89,2,9.66,7.66,9.66,10.62Z" transform="translate(-9.66 -2)" style="fill: #4d4d4f"/>
    <path d="M40.42,14.72c0-2.22-.14-6.5-7-6.5s-7.06,4.28-7.06,6.5v3.56c0,2.25.18,6.5,7.06,6.5s7-4.25,7-6.5Zm-3.59,3.56c0,2.72-1,3.37-3.44,3.37s-3.47-.59-3.47-3.37V14.72c0-2.75,1.06-3.35,3.47-3.35s3.44.57,3.44,3.35Z" transform="translate(-9.66 -2)" style="fill: #4d4d4f"/>
    <path d="M52.72,21.19a13.65,13.65,0,0,1-3.06.43c-2.56,0-3.21-.9-3.21-3.34V14.75c0-2.75.94-3.38,3.21-3.38a11.45,11.45,0,0,1,3.06.38Zm-3.56-13c-5.09.09-6.33,3.06-6.33,6.53v3.34c0,3.13.8,6.69,6.06,6.69a10.2,10.2,0,0,0,4.33-1.06l.23.78h2.86V2.28H52.72V8.75a11.4,11.4,0,0,0-3.56-.53" transform="translate(-9.66 -2)" style="fill: #4d4d4f"/>
    <path d="M72.15,17.5c.09-1,.15-1.81.15-2.56,0-5.28-2.41-6.72-6.29-6.72-4.36,0-7,1.37-7,8.34,0,6,1.8,8.22,7.62,8.22a21.73,21.73,0,0,0,4.53-.56v-3a26.18,26.18,0,0,1-4.2.47c-2.42,0-4.36-.22-4.36-4.19Zm-9.47-2.63c.21-2.84,1.44-3.53,3.33-3.53,1.73,0,2.85.69,2.85,2.85a5.39,5.39,0,0,1,0,.68Z" transform="translate(-9.66 -2)" style="fill: #4d4d4f"/>
    <path d="M77.62,8.78H74.7v16h3.59V12.87A20.32,20.32,0,0,1,83.76,12V8.5c-2,.06-3.91,1-5.73,1.72Z" transform="translate(-9.66 -2)" style="fill: #4d4d4f"/>
    <path d="M85.19,23.78a15.38,15.38,0,0,0,4.91.93c4.86,0,6.48-1.25,6.48-4.59,0-2.25-.74-3.31-2.86-4.37l-3.56-1.82c-.82-.43-1.09-.56-1.09-1.37s.42-1.22,2.65-1.22A14.13,14.13,0,0,1,95.9,12V8.84a13.26,13.26,0,0,0-4.06-.69c-5,0-6.35,1.41-6.35,4.25,0,2.38.88,3.41,3.17,4.57l2.8,1.4c.79.41,1.5.78,1.5,1.69,0,1.22-.53,1.5-2.86,1.5a12.69,12.69,0,0,1-4.91-1.1Z" transform="translate(-9.66 -2)" style="fill: #4d4d4f"/>
    <g>
      <polygon points="96.34 0.35 96.34 22.56 108.84 22.56 108.84 19.28 100.02 19.28 100.02 0.35 96.34 0.35" style="fill: #fdb933"/>
      <path d="M119.77,18.22c0,3.06.77,6.56,6,6.56A9.68,9.68,0,0,0,130,23.72l.23.78H133V9.16a21.14,21.14,0,0,0-6.39-.94c-6.67,0-6.88,4.22-6.88,6.53Zm3.62-3.35c0-2.46.56-3.5,3.21-3.5a19.64,19.64,0,0,1,2.85.25v9.5a10.83,10.83,0,0,1-2.85.5c-2.56,0-3.15-.9-3.21-3.37Z" transform="translate(-9.66 -2)" style="fill: #fdb933"/>
      <path d="M139.8,11.81a12.92,12.92,0,0,1,3-.37c2.24,0,3.18.62,3.18,3.37v3.53c0,2.44-.65,3.35-3.18,3.35a29.17,29.17,0,0,1-3-.16Zm3.55-3.53a11.27,11.27,0,0,0-3.55.53V2.35h-3.59v22a45.6,45.6,0,0,0,6.59.47c6.14,0,6.85-3.53,6.85-6.68V14.81c0-3.47-1.24-6.43-6.3-6.53" transform="translate(-9.66 -2)" style="fill: #fdb933"/>
      <rect x="0.08" y="31.24" width="34.77" height="0.72" style="fill: #fdb933"/>
      <rect x="105.22" y="31.24" width="34.77" height="0.72" style="fill: #fdb933"/>
    </g>
    <g>
      <path d="M54.44,35.19a1.66,1.66,0,0,1-.66,1.4,2.83,2.83,0,0,1-1.76.5,4.37,4.37,0,0,1-1.86-.31V36a5.71,5.71,0,0,0,.91.28,5.43,5.43,0,0,0,1,.1,2,2,0,0,0,1.19-.3,1.11,1.11,0,0,0,.25-1.41,1.31,1.31,0,0,0-.47-.42,6.29,6.29,0,0,0-1-.43A3.25,3.25,0,0,1,50.66,33a1.72,1.72,0,0,1-.41-1.21,1.52,1.52,0,0,1,.59-1.25,2.43,2.43,0,0,1,1.56-.46,4.51,4.51,0,0,1,1.86.37l-.24.69a4.16,4.16,0,0,0-1.64-.36,1.58,1.58,0,0,0-1,.27.9.9,0,0,0-.35.75,1,1,0,0,0,.57,1,4.84,4.84,0,0,0,.94.42,3.55,3.55,0,0,1,1.47.82A1.6,1.6,0,0,1,54.44,35.19Z" transform="translate(-9.66 -2)" style="fill: #4d4d4f"/>
      <path d="M61.71,37H57v-.62l3.61-5.47h-3.5V30.2h4.46v.62L58,36.28h3.71Z" transform="translate(-9.66 -2)" style="fill: #4d4d4f"/>
      <path d="M69.7,37h-.93L66.3,33.7l-.71.63V37H64.8V30.2h.79v3.37l3.08-3.37h.93l-2.73,2.95Z" transform="translate(-9.66 -2)" style="fill: #4d4d4f"/>
      <path d="M78.31,33.59a3.76,3.76,0,0,1-.83,2.57,2.9,2.9,0,0,1-2.29.93,3,3,0,0,1-2.32-.92,3.77,3.77,0,0,1-.81-2.59A3.75,3.75,0,0,1,72.87,31a3,3,0,0,1,2.33-.91,2.89,2.89,0,0,1,2.28.93A3.72,3.72,0,0,1,78.31,33.59Zm-5.42,0a3.21,3.21,0,0,0,.59,2.09,2.39,2.39,0,0,0,3.41,0,3.26,3.26,0,0,0,.58-2.1,3.26,3.26,0,0,0-.57-2.08,2.4,2.4,0,0,0-3.42,0A3.17,3.17,0,0,0,72.89,33.59Z" transform="translate(-9.66 -2)" style="fill: #4d4d4f"/>
      <path d="M81.59,37V34.64l-.49.27-.31-.53.8-.47V30.2h.79v3.25l1.38-.81.31.56-1.69,1v2.1h3V37Z" transform="translate(-9.66 -2)" style="fill: #4d4d4f"/>
      <path d="M92.61,37l-.85-2.16H89L88.2,37h-.8l2.69-6.82h.66L93.43,37Zm-1.09-2.87L90.73,32a9.45,9.45,0,0,1-.32-1c-.07.3-.17.62-.29,1l-.8,2.11Z" transform="translate(-9.66 -2)" style="fill: #4d4d4f"/>
      <path d="M100.37,37V30.2h.79V37Z" transform="translate(-9.66 -2)" style="fill: #4d4d4f"/>
      <path d="M106.89,37h-.79V30.91h-2.16V30.2H109v.71h-2.15Z" transform="translate(-9.66 -2)" style="fill: #4d4d4f"/>
    </g>
  </g>
</svg>
