<?xml version="1.0" encoding="utf-8"?>
<!-- Generator: Adobe Illustrator 23.0.5, SVG Export Plug-In . SVG Version: 6.00 Build 0)  -->
<svg version="1.1" id="Layer_1" xmlns="http://www.w3.org/2000/svg" xmlns:xlink="http://www.w3.org/1999/xlink" x="0px" y="0px"
	 viewBox="0 0 1160.5 100.8" style="enable-background:new 0 0 1160.5 100.8;" xml:space="preserve">
<g>
	<path d="M1155.2,61.8c-3.1-3.3-7.6-5.2-16.3-7l-13.2-2.8c-6.7-1.5-8.7-2.8-8.7-5.5c0-3.6,4-5.9,10.1-5.9c7,0,11.3,2.8,12.2,8.2
		h19.7c-1.9-15.1-13-23.4-31.4-23.4c-19.1,0-30.5,8.7-30.5,23.1c0,11.4,6.1,17.2,21.8,20.6l13,3c5.6,1.3,8,3.1,8,6.5
		c0,4.3-4.3,7-11,7c-7.4,0-11.8-2.4-13.5-7.7h-20c2.2,14.5,14.2,22.9,33.1,22.9c19.9,0,32.2-9.5,32.2-24.6
		C1160.5,70.4,1158.6,65.1,1155.2,61.8z"/>
	<path d="M44,43H31.1v27.9c0,11.4,0.1,11.9,5.3,12.2H44v15.9H31.1c-17,0.1-21.5-4.9-21-23.3V43H0V28.2h10.1V5.5h21v22.7H44V43z"/>
	<path d="M77.9,33.4c5.9-5.6,11.6-8,19-8c7.3,0,13.8,2.7,18.4,7.7c4.6,5,6.4,11.1,6.4,21.8v44h-21V58.7c0-6.7-0.6-9.3-2.4-11.9
		c-1.8-2.4-4.7-3.7-8.3-3.7c-3.6,0-7,1.3-9.2,3.6c-2.4,2.5-2.8,4.6-2.8,12v40.2h-21V0h21V33.4z"/>
	<path d="M150.6,69.2c1.3,9.8,7.1,15.1,16.2,15.1c5.6,0,9.6-1.9,12.5-6.4h21.3c-4,13.9-17.3,22.8-34.4,22.8
		c-22.1,0-36.8-15.1-36.8-37.7c0-22.4,15-37.8,36.6-37.8c15.1,0,26.5,7.6,31.9,21c2.5,6.2,3.6,12.9,3.6,22.8H150.6z M179.8,54.4
		c-0.9-8.4-5.8-13-13.9-13c-8.2,0-13.5,4.6-15.1,13H179.8z"/>
	<path d="M272.7,49.8c1.3-16.5,11.6-24.5,31.7-24.5c10.8,0,19.1,2.5,24.8,7.4c5.2,4.6,7.1,10.4,7.1,20.9v32.9
		c-0.1,7.1,0.3,9,2.7,12.3h-21.5c-0.9-2.5-0.9-3-1.6-5.6c-7,5.8-12,7.6-20.5,7.6c-15.9,0-26.4-8.9-26.4-22.4
		c0-13.5,8.4-20.5,28.5-23.7l11.4-1.9c4.7-0.7,6.4-1.9,6.4-4.9c0-4-4.2-6.5-11-6.5c-7.7,0-11.9,2.7-12.7,8.4H272.7z M315.8,64.8
		c-2.2,0.9-4.2,1.5-7.7,2.2l-7.6,1.6c-7.6,1.8-10.8,4.3-10.8,8.6c0,4.7,4,7.6,10.7,7.6c7,0,12-3,15.4-9V64.8z"/>
	<path d="M364.5,98.9l-21.3-71.6h21.3l6.1,23.4c1.6,6.4,3.9,17.2,4.7,23.1c2.1-10.7,3.9-19,4.9-23.1l6.1-23.4h18.2l6.4,23.4
		c2.7,11,4,17.2,5,23.1c1.2-7.4,2.5-13.9,4.6-23.1l5.6-23.4h21.8l-20.3,71.6h-20.2l-6.7-25.1c-2.1-8.6-3.4-14.7-5.3-24l-0.7,3.4
		c-0.4,2.4-1,4.6-1.5,6.8l-1.5,7c-0.6,2.2-1.2,4.4-1.6,6.8l-5.9,25.1H364.5z"/>
	<path d="M470,98.9l-21.3-71.6H470l6.1,23.4c1.6,6.4,3.9,17.2,4.7,23.1c2.1-10.7,3.9-19,4.9-23.1l6.1-23.4h18.2l6.4,23.4
		c2.7,11,4,17.2,5,23.1c1.2-7.4,2.5-13.9,4.6-23.1l5.6-23.4h21.8l-20.3,71.6H513l-6.7-25.1c-2.1-8.6-3.4-14.7-5.3-24l-0.7,3.4
		c-0.4,2.4-1,4.6-1.5,6.8l-1.5,7c-0.6,2.2-1.2,4.4-1.6,6.8l-5.9,25.1H470z"/>
	<path d="M575.6,98.9l-21.3-71.6h21.3l6.1,23.4c1.6,6.4,3.9,17.2,4.7,23.1c2.1-10.7,3.9-19,4.9-23.1l6.1-23.4h18.2l6.4,23.4
		c2.7,11,4,17.2,5,23.1c1.2-7.4,2.5-13.9,4.6-23.1l5.6-23.4H659l-20.3,71.6h-20.2l-6.7-25.1c-2.1-8.6-3.4-14.7-5.3-24l-0.7,3.4
		c-0.4,2.4-1,4.6-1.5,6.8l-1.5,7c-0.6,2.2-1.2,4.4-1.6,6.8l-5.9,25.1H575.6z"/>
	<path d="M683.1,69.2c1.3,9.8,7.1,15.1,16.2,15.1c5.6,0,9.6-1.9,12.5-6.4h21.3c-4,13.9-17.3,22.8-34.4,22.8
		c-22.1,0-36.8-15.1-36.8-37.7c0-22.4,15-37.8,36.6-37.8c15.1,0,26.5,7.6,31.9,21c2.5,6.2,3.6,12.9,3.6,22.8H683.1z M712.3,54.4
		c-0.9-8.4-5.8-13-13.9-13c-8.2,0-13.5,4.6-15.1,13H712.3z"/>
	<path d="M889.9,63.6c0,21.6-16,37.2-38.1,37.2c-22.2,0-37.9-15.6-37.9-37.8c0-22.1,15.7-37.7,37.9-37.7
		C874.5,25.3,889.9,40.8,889.9,63.6z M835.1,63c0,13.5,6.1,21,16.9,21c10.5,0,16.8-7.6,16.8-20.6c0-13.8-5.9-21.3-16.9-21.3
		C841.2,42.1,835.1,49.7,835.1,63z"/>
	<path d="M920.3,27.3v8.6c6.7-8.2,11.1-10.5,19.7-10.5c9.2,0,15.7,3.7,19.9,11.6c7.7-8.7,13-11.6,22.2-11.6c7.4,0,13.6,2.4,17.8,6.7
		c4,4.3,5.6,10.1,5.6,19.3v47.6h-21V59.4c0-11-3.3-15.9-10.5-15.9c-7.4,0-10.7,4.9-10.7,15.9v39.4h-21V59.4c0-11-3.3-15.9-10.7-15.9
		c-7.3,0-10.7,4.9-10.7,15.9v39.4h-21V27.3H920.3z"/>
	<path d="M1037.6,69.2c1.3,9.8,7.1,15.1,16.2,15.1c5.6,0,9.6-1.9,12.5-6.4h21.3c-4,13.9-17.3,22.8-34.4,22.8
		c-22.1,0-36.8-15.1-36.8-37.7c0-22.4,15-37.8,36.6-37.8c15.1,0,26.5,7.6,31.9,21c2.5,6.2,3.6,12.9,3.6,22.8H1037.6z M1066.8,54.4
		c-0.9-8.4-5.8-13-13.9-13s-13.5,4.6-15.1,13H1066.8z"/>
	<path d="M800.8,61.8c-3.1-3.3-7.6-5.2-16.3-7L771.3,52c-6.7-1.5-8.7-2.8-8.7-5.5c0-3.6,4-5.9,10.1-5.9c7,0,11.3,2.8,12.2,8.2h19.7
		c-1.9-15.1-13-23.4-31.4-23.4c-19.1,0-30.5,8.7-30.5,23.1c0,11.4,6.1,17.2,21.8,20.6l13,3c5.6,1.3,8,3.1,8,6.5c0,4.3-4.3,7-11,7
		c-7.4,0-11.8-2.4-13.5-7.7h-20c2.2,14.5,14.2,22.9,33.1,22.9c19.9,0,32.2-9.5,32.2-24.6C806.1,70.4,804.2,65.1,800.8,61.8z"/>
	<path d="M1037.5,69.2c1.3,9.8,7.1,15.1,16.2,15.1c5.6,0,9.6-1.9,12.5-6.4h21.3c-4,13.9-17.3,22.8-34.4,22.8
		c-22.1,0-36.8-15.1-36.8-37.7c0-22.4,15-37.8,36.6-37.8c15.1,0,26.5,7.6,31.9,21c2.5,6.2,3.6,12.9,3.6,22.8H1037.5z M1066.7,54.4
		c-0.9-8.4-5.8-13-13.9-13s-13.5,4.6-15.1,13H1066.7z"/>
</g>
</svg>
