<svg width="1000" height="300" viewBox="0 0 1000 300" fill="none" xmlns="http://www.w3.org/2000/svg">
<g clip-path="url(#clip0)">
<path d="M360.664 212.453V220.07H369.148C370.664 220.07 371.891 219.789 372.828 219.227C373.781 218.648 374.258 217.633 374.258 216.18C374.258 214.57 373.633 213.508 372.383 212.992C371.305 212.633 369.93 212.453 368.258 212.453H360.664ZM360.664 225.789V235H369.148C370.664 235 371.844 234.797 372.688 234.391C374.219 233.641 374.984 232.203 374.984 230.078C374.984 228.281 374.242 227.047 372.758 226.375C371.93 226 370.766 225.805 369.266 225.789H360.664ZM370.555 206.453C374.789 206.516 377.789 207.742 379.555 210.133C380.617 211.602 381.148 213.359 381.148 215.406C381.148 217.516 380.617 219.211 379.555 220.492C378.961 221.211 378.086 221.867 376.93 222.461C378.695 223.102 380.023 224.117 380.914 225.508C381.82 226.898 382.273 228.586 382.273 230.57C382.273 232.617 381.758 234.453 380.727 236.078C380.07 237.156 379.25 238.062 378.266 238.797C377.156 239.641 375.844 240.219 374.328 240.531C372.828 240.844 371.195 241 369.43 241H353.773V206.453H370.555ZM388.344 206.453H395.562V234.789H412.672V241H388.344V206.453ZM432.969 235.844C435.828 235.844 438.094 234.789 439.766 232.68C441.453 230.57 442.297 227.57 442.297 223.68C442.297 219.805 441.453 216.812 439.766 214.703C438.094 212.578 435.828 211.516 432.969 211.516C430.109 211.516 427.828 212.57 426.125 214.68C424.422 216.789 423.57 219.789 423.57 223.68C423.57 227.57 424.422 230.57 426.125 232.68C427.828 234.789 430.109 235.844 432.969 235.844ZM449.516 223.68C449.516 229.883 447.773 234.633 444.289 237.93C441.68 240.617 437.906 241.961 432.969 241.961C428.031 241.961 424.258 240.617 421.648 237.93C418.148 234.633 416.398 229.883 416.398 223.68C416.398 217.352 418.148 212.602 421.648 209.43C424.258 206.742 428.031 205.398 432.969 205.398C437.906 205.398 441.68 206.742 444.289 209.43C447.773 212.602 449.516 217.352 449.516 223.68ZM478.273 217.234C477.727 214.875 476.391 213.227 474.266 212.289C473.078 211.773 471.758 211.516 470.305 211.516C467.523 211.516 465.234 212.57 463.438 214.68C461.656 216.773 460.766 219.93 460.766 224.148C460.766 228.398 461.734 231.406 463.672 233.172C465.609 234.938 467.812 235.82 470.281 235.82C472.703 235.82 474.688 235.125 476.234 233.734C477.781 232.328 478.734 230.492 479.094 228.227H471.102V222.461H485.492V241H480.711L479.984 236.688C478.594 238.328 477.344 239.484 476.234 240.156C474.328 241.328 471.984 241.914 469.203 241.914C464.625 241.914 460.875 240.328 457.953 237.156C454.906 233.969 453.383 229.609 453.383 224.078C453.383 218.484 454.922 214 458 210.625C461.078 207.25 465.148 205.562 470.211 205.562C474.602 205.562 478.125 206.68 480.781 208.914C483.453 211.133 484.984 213.906 485.375 217.234H478.273ZM491.75 234.016H498.852V241H491.75V234.016ZM525.219 217.445C525.219 215.648 524.742 214.367 523.789 213.602C522.852 212.836 521.531 212.453 519.828 212.453H513.102V222.625H519.828C521.531 222.625 522.852 222.211 523.789 221.383C524.742 220.555 525.219 219.242 525.219 217.445ZM532.367 217.398C532.367 221.477 531.336 224.359 529.273 226.047C527.211 227.734 524.266 228.578 520.438 228.578H513.102V241H505.93V206.453H520.977C524.445 206.453 527.211 207.344 529.273 209.125C531.336 210.906 532.367 213.664 532.367 217.398ZM544.391 241H537.219V206.453H544.391V241ZM566.422 235.844C569.281 235.844 571.547 234.789 573.219 232.68C574.906 230.57 575.75 227.57 575.75 223.68C575.75 219.805 574.906 216.812 573.219 214.703C571.547 212.578 569.281 211.516 566.422 211.516C563.562 211.516 561.281 212.57 559.578 214.68C557.875 216.789 557.023 219.789 557.023 223.68C557.023 227.57 557.875 230.57 559.578 232.68C561.281 234.789 563.562 235.844 566.422 235.844ZM582.969 223.68C582.969 229.883 581.227 234.633 577.742 237.93C575.133 240.617 571.359 241.961 566.422 241.961C561.484 241.961 557.711 240.617 555.102 237.93C551.602 234.633 549.852 229.883 549.852 223.68C549.852 217.352 551.602 212.602 555.102 209.43C557.711 206.742 561.484 205.398 566.422 205.398C571.359 205.398 575.133 206.742 577.742 209.43C581.227 212.602 582.969 217.352 582.969 223.68ZM613.602 206.453V212.57H603.266V241H596V212.57H585.617V206.453H613.602ZM625.062 212.453V221.734H633.242C634.867 221.734 636.086 221.547 636.898 221.172C638.336 220.516 639.055 219.219 639.055 217.281C639.055 215.188 638.359 213.781 636.969 213.062C636.188 212.656 635.016 212.453 633.453 212.453H625.062ZM634.953 206.453C637.375 206.5 639.234 206.797 640.531 207.344C641.844 207.891 642.953 208.695 643.859 209.758C644.609 210.633 645.203 211.602 645.641 212.664C646.078 213.727 646.297 214.938 646.297 216.297C646.297 217.938 645.883 219.555 645.055 221.148C644.227 222.727 642.859 223.844 640.953 224.5C642.547 225.141 643.672 226.055 644.328 227.242C645 228.414 645.336 230.211 645.336 232.633V234.953C645.336 236.531 645.398 237.602 645.523 238.164C645.711 239.055 646.148 239.711 646.836 240.133V241H638.891C638.672 240.234 638.516 239.617 638.422 239.148C638.234 238.18 638.133 237.188 638.117 236.172L638.07 232.961C638.039 230.758 637.633 229.289 636.852 228.555C636.086 227.82 634.641 227.453 632.516 227.453H625.062V241H618.008V206.453H634.953ZM652.414 206.453H659.984L673.742 230.57V206.453H680.469V241H673.25L659.141 216.461V241H652.414V206.453ZM696.664 227.945H705.43L701.117 214.352L696.664 227.945ZM697.109 206.453H705.266L717.5 241H709.672L707.445 233.898H694.719L692.328 241H684.781L697.109 206.453ZM721.906 206.453H729.125V234.789H746.234V241H721.906V206.453ZM776.797 212.57H758.516V219.906H775.297V225.906H758.516V234.789H777.641V241H751.461V206.453H776.797V212.57ZM802.719 217.445C802.719 215.648 802.242 214.367 801.289 213.602C800.352 212.836 799.031 212.453 797.328 212.453H790.602V222.625H797.328C799.031 222.625 800.352 222.211 801.289 221.383C802.242 220.555 802.719 219.242 802.719 217.445ZM809.867 217.398C809.867 221.477 808.836 224.359 806.773 226.047C804.711 227.734 801.766 228.578 797.938 228.578H790.602V241H783.43V206.453H798.477C801.945 206.453 804.711 207.344 806.773 209.125C808.836 210.906 809.867 213.664 809.867 217.398ZM821.164 227.945H829.93L825.617 214.352L821.164 227.945ZM821.609 206.453H829.766L842 241H834.172L831.945 233.898H819.219L816.828 241H809.281L821.609 206.453ZM845.75 234.016H852.852V241H845.75V234.016ZM879.219 217.445C879.219 215.648 878.742 214.367 877.789 213.602C876.852 212.836 875.531 212.453 873.828 212.453H867.102V222.625H873.828C875.531 222.625 876.852 222.211 877.789 221.383C878.742 220.555 879.219 219.242 879.219 217.445ZM886.367 217.398C886.367 221.477 885.336 224.359 883.273 226.047C881.211 227.734 878.266 228.578 874.438 228.578H867.102V241H859.93V206.453H874.977C878.445 206.453 881.211 207.344 883.273 209.125C885.336 210.906 886.367 213.664 886.367 217.398ZM891.781 206.453H899V234.789H916.109V241H891.781V206.453Z" fill="#333333"/>
<path d="M378.887 138.557C378.887 136.311 378.291 134.709 377.1 133.752C375.928 132.795 374.277 132.316 372.148 132.316H363.74V145.031H372.148C374.277 145.031 375.928 144.514 377.1 143.479C378.291 142.443 378.887 140.803 378.887 138.557ZM387.822 138.498C387.822 143.596 386.533 147.199 383.955 149.309C381.377 151.418 377.695 152.473 372.91 152.473H363.74V168H354.775V124.816H373.584C377.92 124.816 381.377 125.93 383.955 128.156C386.533 130.383 387.822 133.83 387.822 138.498ZM402.852 168H393.887V124.816H402.852V168ZM430.391 161.555C433.965 161.555 436.797 160.236 438.887 157.6C440.996 154.963 442.051 151.213 442.051 146.35C442.051 141.506 440.996 137.766 438.887 135.129C436.797 132.473 433.965 131.145 430.391 131.145C426.816 131.145 423.965 132.463 421.836 135.1C419.707 137.736 418.643 141.486 418.643 146.35C418.643 151.213 419.707 154.963 421.836 157.6C423.965 160.236 426.816 161.555 430.391 161.555ZM451.074 146.35C451.074 154.104 448.896 160.041 444.541 164.162C441.279 167.521 436.562 169.201 430.391 169.201C424.219 169.201 419.502 167.521 416.24 164.162C411.865 160.041 409.678 154.104 409.678 146.35C409.678 138.439 411.865 132.502 416.24 128.537C419.502 125.178 424.219 123.498 430.391 123.498C436.562 123.498 441.279 125.178 444.541 128.537C448.896 132.502 451.074 138.439 451.074 146.35ZM489.365 124.816V132.463H476.445V168H467.363V132.463H454.385V124.816H489.365ZM503.691 132.316V143.918H513.916C515.947 143.918 517.471 143.684 518.486 143.215C520.283 142.395 521.182 140.773 521.182 138.352C521.182 135.734 520.312 133.977 518.574 133.078C517.598 132.57 516.133 132.316 514.18 132.316H503.691ZM516.055 124.816C519.082 124.875 521.406 125.246 523.027 125.93C524.668 126.613 526.055 127.619 527.188 128.947C528.125 130.041 528.867 131.252 529.414 132.58C529.961 133.908 530.234 135.422 530.234 137.121C530.234 139.172 529.717 141.193 528.682 143.186C527.646 145.158 525.938 146.555 523.555 147.375C525.547 148.176 526.953 149.318 527.773 150.803C528.613 152.268 529.033 154.514 529.033 157.541V160.441C529.033 162.414 529.111 163.752 529.268 164.455C529.502 165.568 530.049 166.389 530.908 166.916V168H520.977C520.703 167.043 520.508 166.271 520.391 165.686C520.156 164.475 520.029 163.234 520.01 161.965L519.951 157.951C519.912 155.197 519.404 153.361 518.428 152.443C517.471 151.525 515.664 151.066 513.008 151.066H503.691V168H494.873V124.816H516.055ZM554.58 124.816H564.043L581.24 154.963V124.816H589.648V168H580.625L562.988 137.326V168H554.58V124.816ZM609.893 151.682H620.85L615.459 134.689L609.893 151.682ZM610.449 124.816H620.645L635.938 168H626.152L623.369 159.123H607.461L604.473 168H595.039L610.449 124.816ZM641.445 124.816H650.469V160.236H671.855V168H641.445V124.816ZM710.059 132.463H687.207V141.633H708.184V149.133H687.207V160.236H711.113V168H678.389V124.816H710.059V132.463ZM742.461 138.557C742.461 136.311 741.865 134.709 740.674 133.752C739.502 132.795 737.852 132.316 735.723 132.316H727.314V145.031H735.723C737.852 145.031 739.502 144.514 740.674 143.479C741.865 142.443 742.461 140.803 742.461 138.557ZM751.396 138.498C751.396 143.596 750.107 147.199 747.529 149.309C744.951 151.418 741.27 152.473 736.484 152.473H727.314V168H718.35V124.816H737.158C741.494 124.816 744.951 125.93 747.529 128.156C750.107 130.383 751.396 133.83 751.396 138.498ZM765.518 151.682H776.475L771.084 134.689L765.518 151.682ZM766.074 124.816H776.27L791.562 168H781.777L778.994 159.123H763.086L760.098 168H750.664L766.074 124.816Z" fill="#BB3300"/>
<path d="M360.664 65.4531V73.0703H369.148C370.664 73.0703 371.891 72.7891 372.828 72.2266C373.781 71.6484 374.258 70.6328 374.258 69.1797C374.258 67.5703 373.633 66.5078 372.383 65.9922C371.305 65.6328 369.93 65.4531 368.258 65.4531H360.664ZM360.664 78.7891V88H369.148C370.664 88 371.844 87.7969 372.688 87.3906C374.219 86.6406 374.984 85.2031 374.984 83.0781C374.984 81.2812 374.242 80.0469 372.758 79.375C371.93 79 370.766 78.8047 369.266 78.7891H360.664ZM370.555 59.4531C374.789 59.5156 377.789 60.7422 379.555 63.1328C380.617 64.6016 381.148 66.3594 381.148 68.4062C381.148 70.5156 380.617 72.2109 379.555 73.4922C378.961 74.2109 378.086 74.8672 376.93 75.4609C378.695 76.1016 380.023 77.1172 380.914 78.5078C381.82 79.8984 382.273 81.5859 382.273 83.5703C382.273 85.6172 381.758 87.4531 380.727 89.0781C380.07 90.1562 379.25 91.0625 378.266 91.7969C377.156 92.6406 375.844 93.2188 374.328 93.5312C372.828 93.8438 371.195 94 369.43 94H353.773V59.4531H370.555ZM388.344 59.4531H395.562V87.7891H412.672V94H388.344V59.4531ZM432.969 88.8438C435.828 88.8438 438.094 87.7891 439.766 85.6797C441.453 83.5703 442.297 80.5703 442.297 76.6797C442.297 72.8047 441.453 69.8125 439.766 67.7031C438.094 65.5781 435.828 64.5156 432.969 64.5156C430.109 64.5156 427.828 65.5703 426.125 67.6797C424.422 69.7891 423.57 72.7891 423.57 76.6797C423.57 80.5703 424.422 83.5703 426.125 85.6797C427.828 87.7891 430.109 88.8438 432.969 88.8438ZM449.516 76.6797C449.516 82.8828 447.773 87.6328 444.289 90.9297C441.68 93.6172 437.906 94.9609 432.969 94.9609C428.031 94.9609 424.258 93.6172 421.648 90.9297C418.148 87.6328 416.398 82.8828 416.398 76.6797C416.398 70.3516 418.148 65.6016 421.648 62.4297C424.258 59.7422 428.031 58.3984 432.969 58.3984C437.906 58.3984 441.68 59.7422 444.289 62.4297C447.773 65.6016 449.516 70.3516 449.516 76.6797ZM478.273 70.2344C477.727 67.875 476.391 66.2266 474.266 65.2891C473.078 64.7734 471.758 64.5156 470.305 64.5156C467.523 64.5156 465.234 65.5703 463.438 67.6797C461.656 69.7734 460.766 72.9297 460.766 77.1484C460.766 81.3984 461.734 84.4062 463.672 86.1719C465.609 87.9375 467.812 88.8203 470.281 88.8203C472.703 88.8203 474.688 88.125 476.234 86.7344C477.781 85.3281 478.734 83.4922 479.094 81.2266H471.102V75.4609H485.492V94H480.711L479.984 89.6875C478.594 91.3281 477.344 92.4844 476.234 93.1562C474.328 94.3281 471.984 94.9141 469.203 94.9141C464.625 94.9141 460.875 93.3281 457.953 90.1562C454.906 86.9688 453.383 82.6094 453.383 77.0781C453.383 71.4844 454.922 67 458 63.625C461.078 60.25 465.148 58.5625 470.211 58.5625C474.602 58.5625 478.125 59.6797 480.781 61.9141C483.453 64.1328 484.984 66.9062 485.375 70.2344H478.273ZM510.477 59.4531L515.047 79.2344L516.031 84.7422L517.039 79.3516L520.93 59.4531H528.547L532.648 79.2344L533.703 84.7422L534.758 79.4453L539.375 59.4531H546.711L536.984 94H530.094L525.922 73.7969L524.703 67.1172L523.484 73.7969L519.312 94H512.609L502.812 59.4531H510.477ZM576.641 65.5703H558.359V72.9062H575.141V78.9062H558.359V87.7891H577.484V94H551.305V59.4531H576.641V65.5703ZM590.117 65.4531V73.0703H598.602C600.117 73.0703 601.344 72.7891 602.281 72.2266C603.234 71.6484 603.711 70.6328 603.711 69.1797C603.711 67.5703 603.086 66.5078 601.836 65.9922C600.758 65.6328 599.383 65.4531 597.711 65.4531H590.117ZM590.117 78.7891V88H598.602C600.117 88 601.297 87.7969 602.141 87.3906C603.672 86.6406 604.438 85.2031 604.438 83.0781C604.438 81.2812 603.695 80.0469 602.211 79.375C601.383 79 600.219 78.8047 598.719 78.7891H590.117ZM600.008 59.4531C604.242 59.5156 607.242 60.7422 609.008 63.1328C610.07 64.6016 610.602 66.3594 610.602 68.4062C610.602 70.5156 610.07 72.2109 609.008 73.4922C608.414 74.2109 607.539 74.8672 606.383 75.4609C608.148 76.1016 609.477 77.1172 610.367 78.5078C611.273 79.8984 611.727 81.5859 611.727 83.5703C611.727 85.6172 611.211 87.4531 610.18 89.0781C609.523 90.1562 608.703 91.0625 607.719 91.7969C606.609 92.6406 605.297 93.2188 603.781 93.5312C602.281 93.8438 600.648 94 598.883 94H583.227V59.4531H600.008ZM640.695 59.4531H651.078V94H644.352V70.6328C644.352 69.9609 644.359 69.0234 644.375 67.8203C644.391 66.6016 644.398 65.6641 644.398 65.0078L637.859 94H630.852L624.359 65.0078C624.359 65.6641 624.367 66.6016 624.383 67.8203C624.398 69.0234 624.406 69.9609 624.406 70.6328V94H617.68V59.4531H628.18L634.461 86.6172L640.695 59.4531ZM667.227 80.9453H675.992L671.68 67.3516L667.227 80.9453ZM667.672 59.4531H675.828L688.062 94H680.234L678.008 86.8984H665.281L662.891 94H655.344L667.672 59.4531ZM697.695 83.3359C697.914 84.9141 698.344 86.0938 698.984 86.875C700.156 88.2969 702.164 89.0078 705.008 89.0078C706.711 89.0078 708.094 88.8203 709.156 88.4453C711.172 87.7266 712.18 86.3906 712.18 84.4375C712.18 83.2969 711.68 82.4141 710.68 81.7891C709.68 81.1797 708.109 80.6406 705.969 80.1719L702.312 79.3516C698.719 78.5391 696.234 77.6562 694.859 76.7031C692.531 75.1094 691.367 72.6172 691.367 69.2266C691.367 66.1328 692.492 63.5625 694.742 61.5156C696.992 59.4688 700.297 58.4453 704.656 58.4453C708.297 58.4453 711.398 59.4141 713.961 61.3516C716.539 63.2734 717.891 66.0703 718.016 69.7422H711.078C710.953 67.6641 710.047 66.1875 708.359 65.3125C707.234 64.7344 705.836 64.4453 704.164 64.4453C702.305 64.4453 700.82 64.8203 699.711 65.5703C698.602 66.3203 698.047 67.3672 698.047 68.7109C698.047 69.9453 698.594 70.8672 699.688 71.4766C700.391 71.8828 701.891 72.3594 704.188 72.9062L710.141 74.3359C712.75 74.9609 714.719 75.7969 716.047 76.8438C718.109 78.4688 719.141 80.8203 719.141 83.8984C719.141 87.0547 717.93 89.6797 715.508 91.7734C713.102 93.8516 709.695 94.8906 705.289 94.8906C700.789 94.8906 697.25 93.8672 694.672 91.8203C692.094 89.7578 690.805 86.9297 690.805 83.3359H697.695ZM749.586 59.4531V65.5703H739.25V94H731.984V65.5703H721.602V59.4531H749.586ZM779.375 65.5703H761.094V72.9062H777.875V78.9062H761.094V87.7891H780.219V94H754.039V59.4531H779.375V65.5703ZM793.062 65.4531V74.7344H801.242C802.867 74.7344 804.086 74.5469 804.898 74.1719C806.336 73.5156 807.055 72.2188 807.055 70.2812C807.055 68.1875 806.359 66.7812 804.969 66.0625C804.188 65.6562 803.016 65.4531 801.453 65.4531H793.062ZM802.953 59.4531C805.375 59.5 807.234 59.7969 808.531 60.3438C809.844 60.8906 810.953 61.6953 811.859 62.7578C812.609 63.6328 813.203 64.6016 813.641 65.6641C814.078 66.7266 814.297 67.9375 814.297 69.2969C814.297 70.9375 813.883 72.5547 813.055 74.1484C812.227 75.7266 810.859 76.8438 808.953 77.5C810.547 78.1406 811.672 79.0547 812.328 80.2422C813 81.4141 813.336 83.2109 813.336 85.6328V87.9531C813.336 89.5312 813.398 90.6016 813.523 91.1641C813.711 92.0547 814.148 92.7109 814.836 93.1328V94H806.891C806.672 93.2344 806.516 92.6172 806.422 92.1484C806.234 91.1797 806.133 90.1875 806.117 89.1719L806.07 85.9609C806.039 83.7578 805.633 82.2891 804.852 81.5547C804.086 80.8203 802.641 80.4531 800.516 80.4531H793.062V94H786.008V59.4531H802.953ZM825.758 83.3359C825.977 84.9141 826.406 86.0938 827.047 86.875C828.219 88.2969 830.227 89.0078 833.07 89.0078C834.773 89.0078 836.156 88.8203 837.219 88.4453C839.234 87.7266 840.242 86.3906 840.242 84.4375C840.242 83.2969 839.742 82.4141 838.742 81.7891C837.742 81.1797 836.172 80.6406 834.031 80.1719L830.375 79.3516C826.781 78.5391 824.297 77.6562 822.922 76.7031C820.594 75.1094 819.43 72.6172 819.43 69.2266C819.43 66.1328 820.555 63.5625 822.805 61.5156C825.055 59.4688 828.359 58.4453 832.719 58.4453C836.359 58.4453 839.461 59.4141 842.023 61.3516C844.602 63.2734 845.953 66.0703 846.078 69.7422H839.141C839.016 67.6641 838.109 66.1875 836.422 65.3125C835.297 64.7344 833.898 64.4453 832.227 64.4453C830.367 64.4453 828.883 64.8203 827.773 65.5703C826.664 66.3203 826.109 67.3672 826.109 68.7109C826.109 69.9453 826.656 70.8672 827.75 71.4766C828.453 71.8828 829.953 72.3594 832.25 72.9062L838.203 74.3359C840.812 74.9609 842.781 75.7969 844.109 76.8438C846.172 78.4688 847.203 80.8203 847.203 83.8984C847.203 87.0547 845.992 89.6797 843.57 91.7734C841.164 93.8516 837.758 94.8906 833.352 94.8906C828.852 94.8906 825.312 93.8672 822.734 91.8203C820.156 89.7578 818.867 86.9297 818.867 83.3359H825.758ZM852.664 59.4531H859.766V73.6797L873.102 59.4531H882.43L868.273 73.6797L883.156 94H873.875L863.211 78.9062L859.766 82.4453V94H852.664V59.4531ZM893.844 94H886.672V59.4531H893.844V94Z" fill="#333333"/>
<path d="M0 0H300V300H0V0Z" fill="#B24210"/>
<path fill-rule="evenodd" clip-rule="evenodd" d="M20 170H280V280H20V170Z" fill="white"/>
<path fill-rule="evenodd" clip-rule="evenodd" d="M40 190H260V280H40V190Z" fill="#B24210"/>
<path fill-rule="evenodd" clip-rule="evenodd" d="M150 170V20H280V100H170V170H150Z" fill="white"/>
<path fill-rule="evenodd" clip-rule="evenodd" d="M170 40H260V80H170V40Z" fill="#B24210"/>
<path d="M67.553 95L96.942 110.451L91.329 77.725L115.106 54.549L82.248 49.775L67.553 20L52.858 49.775L20 54.549L43.777 77.725L38.164 110.451L67.553 95Z" fill="white"/>
<path d="M67.553 90C78.5987 90 87.553 81.0457 87.553 70C87.553 58.9543 78.5987 50 67.553 50C56.5073 50 47.553 58.9543 47.553 70C47.553 81.0457 56.5073 90 67.553 90Z" fill="#B24210"/>
</g>
<defs>
<clipPath id="clip0">
<rect width="1000" height="300" fill="white"/>
</clipPath>
</defs>
</svg>
