<svg id="svg" version="1.1" xmlns="http://www.w3.org/2000/svg" xmlns:xlink="http://www.w3.org/1999/xlink" width="400" height="400" viewBox="0, 0, 400,400"><g id="svgg"><path id="path0" d="M54.800 117.600 L 54.800 171.600 73.300 171.598 C 96.865 171.595,101.227 170.997,110.111 166.551 C 149.455 146.862,151.479 92.660,113.697 70.518 C 103.861 64.754,97.033 63.600,72.771 63.600 L 54.800 63.600 54.800 117.600 M166.400 117.600 L 166.400 171.600 197.400 171.600 L 228.400 171.600 228.400 161.000 L 228.400 150.400 209.600 150.400 L 190.800 150.400 190.800 139.404 L 190.800 128.408 208.700 128.304 L 226.600 128.200 226.707 117.500 L 226.813 106.800 208.807 106.800 L 190.800 106.800 190.800 95.800 L 190.800 84.800 209.600 84.800 L 228.400 84.800 228.400 74.200 L 228.400 63.600 197.400 63.600 L 166.400 63.600 166.400 117.600 M245.971 64.500 C 246.590 66.083,253.459 82.475,254.981 86.000 C 255.788 87.870,257.502 92.010,258.789 95.200 C 260.076 98.390,261.699 102.260,262.396 103.800 C 263.092 105.340,265.519 111.100,267.788 116.600 C 270.057 122.100,272.365 127.590,272.916 128.800 C 273.467 130.010,275.842 135.680,278.195 141.400 C 280.547 147.120,282.848 152.610,283.308 153.600 C 283.768 154.590,285.612 159.000,287.407 163.400 L 290.670 171.400 300.561 171.400 L 310.452 171.400 313.175 164.800 C 314.673 161.170,316.300 157.300,316.791 156.200 C 317.918 153.676,325.679 135.142,330.778 122.800 C 332.914 117.630,335.487 111.510,336.495 109.200 C 337.504 106.890,339.624 101.850,341.208 98.000 C 342.791 94.150,345.176 88.480,346.506 85.400 C 347.837 82.320,350.417 76.153,352.238 71.695 L 355.550 63.590 341.742 63.695 L 327.934 63.800 326.714 67.000 C 326.044 68.760,324.778 72.000,323.903 74.200 C 323.028 76.400,320.188 83.780,317.592 90.600 C 314.996 97.420,311.763 105.880,310.408 109.400 C 309.052 112.920,306.853 118.680,305.521 122.200 C 301.372 133.162,300.584 134.876,300.187 133.800 C 300.024 133.360,299.085 130.930,298.100 128.400 C 295.988 122.978,287.900 101.882,282.612 88.000 C 280.559 82.610,277.720 75.230,276.304 71.600 C 274.888 67.970,273.616 64.685,273.477 64.300 C 273.244 63.652,272.205 63.600,259.422 63.600 L 245.620 63.600 245.971 64.500 M88.800 85.767 C 110.051 89.583,120.792 113.812,110.176 133.989 C 104.883 144.050,95.997 149.335,83.800 149.677 L 79.400 149.800 79.297 118.000 C 79.240 100.510,79.279 85.975,79.384 85.700 C 79.641 85.026,84.882 85.063,88.800 85.767 M48.800 282.600 L 48.800 336.800 79.800 336.800 L 110.800 336.800 110.800 326.000 L 110.800 315.200 92.200 315.200 L 73.600 315.200 73.600 304.200 L 73.600 293.200 91.400 293.200 L 109.200 293.200 109.200 282.400 L 109.200 271.600 91.400 271.600 L 73.600 271.600 73.600 260.800 L 73.600 250.000 92.200 250.000 L 110.800 250.000 110.800 239.200 L 110.800 228.400 79.800 228.400 L 48.800 228.400 48.800 282.600 M139.600 282.600 L 139.600 336.800 151.800 336.800 L 164.000 336.800 164.000 303.200 C 164.000 280.272,164.132 269.600,164.415 269.600 C 164.643 269.600,165.888 271.265,167.182 273.300 C 170.141 277.953,171.555 280.160,181.214 295.200 C 185.523 301.910,191.634 311.450,194.795 316.400 C 197.955 321.350,201.826 327.380,203.398 329.800 C 204.969 332.220,206.596 334.785,207.013 335.500 L 207.772 336.800 220.086 336.800 L 232.400 336.800 232.400 282.600 L 232.400 228.400 220.200 228.400 L 208.000 228.400 208.000 261.776 C 208.000 280.390,207.845 295.248,207.650 295.369 C 207.458 295.488,205.624 292.933,203.575 289.692 C 201.526 286.452,198.735 282.090,197.373 280.000 C 194.798 276.049,181.970 256.034,178.658 250.800 C 175.266 245.439,170.432 237.904,167.302 233.100 L 164.240 228.400 151.920 228.400 L 139.600 228.400 139.600 282.600 M251.481 229.068 C 251.622 229.435,252.134 230.560,252.618 231.568 C 253.102 232.575,255.157 237.450,257.185 242.400 C 259.213 247.350,261.738 253.380,262.798 255.800 C 263.857 258.220,266.468 264.430,268.600 269.600 C 270.732 274.770,272.803 279.720,273.202 280.600 C 273.601 281.480,275.634 286.340,277.721 291.400 C 279.808 296.460,281.998 301.680,282.588 303.000 C 283.178 304.320,285.527 309.900,287.809 315.400 C 290.090 320.900,293.041 327.920,294.365 331.000 L 296.773 336.600 306.365 336.707 L 315.956 336.814 316.813 334.907 C 317.284 333.858,319.346 328.950,321.396 324.000 C 326.591 311.451,332.188 298.087,336.390 288.200 C 340.675 278.116,345.127 267.485,350.377 254.800 C 352.516 249.630,355.089 243.510,356.095 241.200 C 358.882 234.800,361.200 229.147,361.200 228.753 C 361.200 228.556,355.198 228.400,347.578 228.400 L 333.956 228.400 333.033 230.500 C 332.525 231.655,330.208 237.640,327.884 243.800 C 325.560 249.960,323.350 255.720,322.973 256.600 C 322.596 257.480,320.167 263.780,317.575 270.600 C 309.611 291.556,306.750 298.984,306.571 299.162 C 306.224 299.509,305.859 298.645,301.328 286.742 C 294.619 269.118,286.838 248.792,283.893 241.200 C 282.485 237.570,280.829 233.205,280.213 231.500 L 279.093 228.400 265.159 228.400 C 252.310 228.400,251.245 228.452,251.481 229.068 " stroke="none" fill="#fbfbfb" fill-rule="evenodd"></path><path id="path1" d="M0.000 200.000 L 0.000 400.000 200.000 400.000 L 400.000 400.000 400.000 200.000 L 400.000 0.000 200.000 0.000 L 0.000 0.000 0.000 200.000 M98.200 64.152 C 129.785 71.660,147.106 100.809,139.012 132.829 C 134.582 150.352,118.726 166.109,101.600 170.004 C 100.390 170.280,99.220 170.640,99.000 170.805 C 97.648 171.820,90.687 172.192,73.000 172.196 L 54.600 172.200 54.499 117.671 L 54.397 63.142 74.899 63.314 C 92.209 63.460,95.836 63.590,98.200 64.152 M228.400 74.200 L 228.400 85.200 209.800 85.200 L 191.200 85.200 191.200 95.800 L 191.200 106.400 209.000 106.400 L 226.800 106.400 226.800 117.400 L 226.800 128.400 209.000 128.400 L 191.200 128.400 191.200 139.200 L 191.200 150.000 209.800 150.000 L 228.400 150.000 228.400 161.200 L 228.400 172.400 197.480 172.400 C 173.964 172.400,166.445 172.285,166.080 171.920 C 165.556 171.396,165.345 63.989,165.867 63.467 C 166.013 63.320,180.143 63.200,197.267 63.200 L 228.400 63.200 228.400 74.200 M273.792 63.900 C 273.944 64.285,275.228 67.750,276.644 71.600 C 278.061 75.450,279.840 80.040,280.599 81.800 C 281.357 83.560,283.524 89.140,285.413 94.200 C 287.302 99.260,289.994 106.280,291.394 109.800 C 292.795 113.320,295.198 119.620,296.735 123.800 C 298.271 127.980,299.776 131.976,300.080 132.680 L 300.631 133.959 301.705 131.080 C 305.638 120.535,308.041 114.265,308.729 112.750 C 309.167 111.788,311.050 106.856,312.914 101.791 C 314.779 96.727,317.075 90.703,318.017 88.405 C 318.959 86.108,321.483 79.542,323.624 73.814 L 327.518 63.400 341.759 63.295 C 349.592 63.237,356.000 63.337,356.000 63.517 C 356.000 63.968,351.739 74.261,350.801 76.076 C 350.381 76.889,348.781 80.686,347.246 84.514 C 345.710 88.343,343.444 93.799,342.211 96.638 C 340.977 99.477,338.008 106.570,335.612 112.400 C 333.216 118.230,330.818 123.900,330.282 125.000 C 329.746 126.100,328.630 128.710,327.802 130.800 C 324.857 138.232,321.537 146.222,320.776 147.708 C 320.351 148.538,318.310 153.419,316.239 158.554 C 314.169 163.689,311.995 168.906,311.408 170.146 L 310.342 172.400 300.558 172.400 C 291.597 172.400,290.755 172.341,290.540 171.700 C 290.411 171.315,289.526 169.290,288.575 167.200 C 287.624 165.110,285.285 159.530,283.377 154.800 C 281.470 150.070,279.409 145.120,278.798 143.800 C 277.467 140.927,276.483 138.594,272.386 128.600 C 270.672 124.420,268.516 119.290,267.594 117.200 C 266.672 115.110,264.418 109.710,262.586 105.200 C 260.754 100.690,258.816 96.100,258.280 95.000 C 257.743 93.900,255.851 89.387,254.074 84.970 C 252.297 80.554,249.662 74.279,248.218 71.026 C 246.774 67.773,245.485 64.681,245.353 64.155 L 245.113 63.200 259.314 63.200 C 272.466 63.200,273.535 63.252,273.792 63.900 M79.600 117.735 L 79.600 149.671 83.900 149.466 C 102.061 148.604,113.819 135.786,113.680 117.000 C 113.548 99.217,102.094 86.903,84.900 86.060 L 79.599 85.800 79.600 117.735 M111.106 239.100 L 111.213 250.000 92.606 250.000 L 74.000 250.000 74.000 260.600 L 74.000 271.200 91.800 271.200 L 109.600 271.200 109.600 282.400 L 109.600 293.600 91.800 293.600 L 74.000 293.600 74.000 304.200 L 74.000 314.800 92.606 314.800 L 111.213 314.800 111.106 325.900 L 111.000 337.000 79.800 337.000 L 48.600 337.000 48.497 283.000 C 48.441 253.300,48.480 228.774,48.586 228.498 C 48.737 228.099,55.211 228.016,79.888 228.098 L 111.000 228.200 111.106 239.100 M167.042 231.917 C 168.385 234.052,171.175 238.432,173.242 241.650 C 178.562 249.932,180.432 252.851,185.232 260.371 C 191.642 270.411,196.831 278.496,200.142 283.600 C 201.783 286.130,204.042 289.638,205.161 291.397 L 207.195 294.593 207.298 261.397 L 207.400 228.200 220.101 228.094 L 232.803 227.989 232.701 282.494 L 232.600 337.000 220.088 337.106 L 207.576 337.211 205.985 334.706 C 205.110 333.328,203.180 330.270,201.697 327.911 C 196.731 320.014,191.505 311.844,188.193 306.800 C 186.387 304.050,183.955 300.270,182.788 298.400 C 181.621 296.530,179.022 292.480,177.013 289.400 C 175.004 286.320,172.841 282.900,172.206 281.800 C 171.572 280.700,169.736 277.863,168.127 275.496 C 166.517 273.128,165.157 270.968,165.103 270.696 C 165.050 270.423,164.915 285.230,164.803 303.600 L 164.600 337.000 152.100 337.106 L 139.600 337.211 139.600 282.606 L 139.600 228.000 152.100 228.017 L 164.600 228.033 167.042 231.917 M280.160 230.500 C 281.285 233.007,283.842 239.684,287.399 249.400 C 288.445 252.260,289.748 255.590,290.294 256.800 C 290.839 258.010,292.984 263.590,295.059 269.200 C 297.135 274.810,299.388 280.750,300.067 282.400 C 301.602 286.134,302.733 289.029,304.746 294.384 L 306.319 298.568 306.959 297.035 C 307.312 296.192,307.600 295.440,307.600 295.363 C 307.600 295.286,308.033 294.273,308.563 293.112 C 309.093 291.950,311.053 286.860,312.920 281.800 C 314.786 276.740,317.395 269.900,318.718 266.600 C 320.041 263.300,322.794 256.100,324.836 250.600 C 326.878 245.100,328.660 240.510,328.794 240.400 C 328.929 240.290,330.027 237.500,331.233 234.200 L 333.426 228.200 347.388 228.095 C 355.067 228.037,361.485 228.127,361.651 228.295 C 361.816 228.463,361.406 229.770,360.738 231.200 C 360.071 232.630,357.725 238.203,355.527 243.585 C 353.328 248.967,351.194 254.028,350.784 254.832 C 350.374 255.635,348.959 258.972,347.640 262.247 C 343.229 273.194,341.146 278.183,340.815 278.593 C 340.634 278.817,339.222 282.150,337.676 286.000 C 336.130 289.850,334.302 294.350,333.613 296.000 C 332.924 297.650,332.070 299.720,331.716 300.600 C 331.363 301.480,330.938 302.380,330.773 302.600 C 330.608 302.820,328.492 307.871,326.069 313.825 C 323.647 319.779,321.302 325.359,320.857 326.225 C 320.413 327.091,319.302 329.690,318.389 332.000 C 317.476 334.310,316.543 336.425,316.315 336.700 C 315.855 337.257,297.356 337.438,296.582 336.894 C 296.352 336.732,294.750 333.090,293.022 328.800 C 291.294 324.510,289.293 319.740,288.576 318.200 C 287.137 315.110,285.518 311.223,281.919 302.215 C 280.603 298.923,279.088 295.364,278.552 294.305 C 278.015 293.246,276.036 288.559,274.152 283.890 C 272.269 279.220,269.952 273.690,269.003 271.600 C 268.054 269.510,265.711 263.930,263.795 259.200 C 261.880 254.470,259.793 249.485,259.159 248.123 C 257.524 244.611,251.704 230.352,251.382 229.070 L 251.113 228.000 265.076 228.000 L 279.038 228.000 280.160 230.500 " stroke="none" fill="#cc1343" fill-rule="evenodd"></path><path id="path2" d="M54.585 63.700 C 54.480 63.975,54.441 88.410,54.497 118.000 L 54.600 171.800 72.300 171.806 L 90.000 171.813 72.400 171.702 L 54.800 171.592 54.800 117.600 L 54.800 63.608 73.300 63.500 L 91.800 63.392 73.287 63.296 C 58.774 63.221,54.734 63.308,54.585 63.700 M166.099 117.500 L 166.200 171.800 197.300 171.804 L 228.400 171.807 197.400 171.701 L 166.400 171.595 166.400 117.600 L 166.400 63.605 197.500 63.500 L 228.600 63.395 197.299 63.298 L 165.997 63.200 166.099 117.500 M245.450 63.519 C 245.342 63.695,245.438 64.100,245.664 64.419 C 245.998 64.890,246.032 64.866,245.846 64.290 C 245.630 63.618,246.360 63.586,259.571 63.690 C 267.245 63.750,273.441 63.665,273.338 63.500 C 273.088 63.096,245.700 63.114,245.450 63.519 M327.862 63.500 C 327.759 63.665,333.968 63.750,341.657 63.690 C 355.436 63.581,355.633 63.591,355.219 64.364 C 354.989 64.795,354.806 65.294,354.814 65.474 C 354.831 65.855,355.965 63.945,355.986 63.500 C 355.994 63.335,349.711 63.200,342.024 63.200 C 334.337 63.200,327.964 63.335,327.862 63.500 M92.705 63.883 C 93.202 63.979,93.922 63.975,94.305 63.875 C 94.687 63.775,94.280 63.696,93.400 63.701 C 92.520 63.705,92.207 63.787,92.705 63.883 M100.200 65.226 C 101.740 65.641,103.175 65.927,103.388 65.861 C 103.837 65.722,98.692 64.382,97.918 64.436 C 97.633 64.456,98.660 64.812,100.200 65.226 M273.829 65.200 C 273.976 65.750,274.264 66.470,274.467 66.800 C 274.725 67.217,274.757 67.095,274.571 66.400 C 274.424 65.850,274.136 65.130,273.933 64.800 C 273.675 64.383,273.643 64.505,273.829 65.200 M275.829 70.400 C 275.976 70.950,276.264 71.670,276.467 72.000 C 276.725 72.417,276.757 72.295,276.571 71.600 C 276.424 71.050,276.136 70.330,275.933 70.000 C 275.675 69.583,275.643 69.705,275.829 70.400 M324.844 70.844 C 324.598 71.551,324.466 72.200,324.552 72.285 C 324.638 72.371,324.909 71.862,325.156 71.156 C 325.402 70.449,325.534 69.800,325.448 69.715 C 325.362 69.629,325.091 70.138,324.844 70.844 M117.400 72.870 C 118.060 73.382,119.590 74.599,120.800 75.576 C 122.010 76.553,122.738 77.030,122.418 76.637 C 121.794 75.869,117.791 72.737,116.800 72.241 C 116.470 72.076,116.740 72.359,117.400 72.870 M323.644 74.044 C 323.398 74.751,323.266 75.400,323.352 75.485 C 323.438 75.571,323.709 75.062,323.956 74.356 C 324.202 73.649,324.334 73.000,324.248 72.915 C 324.162 72.829,323.891 73.338,323.644 74.044 M125.400 79.600 C 126.706 80.920,127.865 82.000,127.975 82.000 C 128.085 82.000,127.106 80.920,125.800 79.600 C 124.494 78.280,123.335 77.200,123.225 77.200 C 123.115 77.200,124.094 78.280,125.400 79.600 M253.646 83.400 C 253.653 83.620,254.006 84.520,254.429 85.400 C 254.852 86.280,255.086 86.550,254.949 86.000 C 254.667 84.867,253.625 82.788,253.646 83.400 M200.100 85.100 C 205.325 85.163,213.875 85.163,219.100 85.100 C 224.325 85.036,220.050 84.985,209.600 84.985 C 199.150 84.985,194.875 85.036,200.100 85.100 M79.384 85.700 C 79.279 85.975,79.240 100.510,79.297 118.000 L 79.400 149.800 81.600 149.838 L 83.800 149.876 81.700 149.717 L 79.600 149.558 79.600 117.595 L 79.600 85.631 83.100 85.498 L 86.600 85.365 83.087 85.282 C 80.582 85.224,79.520 85.343,79.384 85.700 M87.300 85.876 C 87.685 85.976,88.315 85.976,88.700 85.876 C 89.085 85.775,88.770 85.693,88.000 85.693 C 87.230 85.693,86.915 85.775,87.300 85.876 M344.865 89.017 C 344.195 90.488,344.323 90.802,345.047 89.465 C 345.386 88.840,345.588 88.254,345.496 88.163 C 345.405 88.071,345.121 88.456,344.865 89.017 M283.029 89.200 C 283.176 89.750,283.464 90.470,283.667 90.800 C 283.925 91.217,283.957 91.095,283.771 90.400 C 283.624 89.850,283.336 89.130,283.133 88.800 C 282.875 88.383,282.843 88.505,283.029 89.200 M135.082 92.989 C 135.673 94.193,136.223 95.111,136.305 95.029 C 136.484 94.849,134.467 90.800,134.198 90.800 C 134.094 90.800,134.492 91.785,135.082 92.989 M104.600 94.000 C 105.683 95.100,106.660 96.000,106.770 96.000 C 106.880 96.000,106.083 95.100,105.000 94.000 C 103.917 92.900,102.940 92.000,102.830 92.000 C 102.720 92.000,103.517 92.900,104.600 94.000 M285.029 94.400 C 285.176 94.950,285.464 95.670,285.667 96.000 C 285.925 96.417,285.957 96.295,285.771 95.600 C 285.624 95.050,285.336 94.330,285.133 94.000 C 284.875 93.583,284.843 93.705,285.029 94.400 M314.444 98.044 C 314.198 98.751,314.066 99.400,314.152 99.485 C 314.238 99.571,314.509 99.062,314.756 98.356 C 315.002 97.649,315.134 97.000,315.048 96.915 C 314.962 96.829,314.691 97.338,314.444 98.044 M262.828 105.400 C 262.828 105.620,263.086 106.250,263.400 106.800 C 263.714 107.350,263.972 107.620,263.972 107.400 C 263.972 107.180,263.714 106.550,263.400 106.000 C 263.086 105.450,262.828 105.180,262.828 105.400 M199.727 106.700 C 204.747 106.763,212.847 106.763,217.727 106.700 C 222.607 106.636,218.500 106.584,208.600 106.584 C 198.700 106.584,194.707 106.636,199.727 106.700 M113.004 109.087 C 113.137 109.575,113.408 111.105,113.606 112.487 L 113.965 115.000 113.797 112.290 C 113.704 110.799,113.433 109.269,113.195 108.890 C 112.824 108.299,112.796 108.327,113.004 109.087 M264.828 110.200 C 264.828 110.420,265.086 111.050,265.400 111.600 C 265.714 112.150,265.972 112.420,265.972 112.200 C 265.972 111.980,265.714 111.350,265.400 110.800 C 265.086 110.250,264.828 109.980,264.828 110.200 M140.493 112.800 C 140.493 113.570,140.575 113.885,140.676 113.500 C 140.776 113.115,140.776 112.485,140.676 112.100 C 140.575 111.715,140.493 112.030,140.493 112.800 M334.053 114.853 C 333.580 115.993,333.258 116.992,333.339 117.072 C 333.420 117.153,333.873 116.286,334.347 115.147 C 334.820 114.007,335.142 113.008,335.061 112.928 C 334.980 112.847,334.527 113.714,334.053 114.853 M114.124 117.400 C 114.126 118.720,114.201 119.212,114.290 118.493 C 114.379 117.774,114.377 116.694,114.286 116.093 C 114.195 115.492,114.122 116.080,114.124 117.400 M294.258 118.398 C 294.400 118.947,294.850 120.117,295.259 120.998 C 295.667 121.879,295.885 122.151,295.742 121.602 C 295.600 121.053,295.150 119.883,294.741 119.002 C 294.333 118.121,294.115 117.849,294.258 118.398 M305.644 120.844 C 305.398 121.551,305.266 122.200,305.352 122.285 C 305.438 122.371,305.709 121.862,305.956 121.156 C 306.202 120.449,306.334 119.800,306.248 119.715 C 306.162 119.629,305.891 120.138,305.644 120.844 M113.709 122.000 C 113.709 122.990,113.787 123.395,113.882 122.900 C 113.978 122.405,113.978 121.595,113.882 121.100 C 113.787 120.605,113.709 121.010,113.709 122.000 M140.493 122.400 C 140.493 123.170,140.575 123.485,140.676 123.100 C 140.776 122.715,140.776 122.085,140.676 121.700 C 140.575 121.315,140.493 121.630,140.493 122.400 M304.444 124.044 C 304.198 124.751,304.066 125.400,304.152 125.485 C 304.238 125.571,304.509 125.062,304.756 124.356 C 305.002 123.649,305.134 123.000,305.048 122.915 C 304.962 122.829,304.691 123.338,304.444 124.044 M273.599 131.185 C 274.441 133.334,275.487 135.330,275.074 134.000 C 274.598 132.467,273.443 129.760,273.111 129.400 C 272.909 129.180,273.128 129.983,273.599 131.185 M275.228 135.000 C 275.228 135.220,275.486 135.850,275.800 136.400 C 276.114 136.950,276.372 137.220,276.372 137.000 C 276.372 136.780,276.114 136.150,275.800 135.600 C 275.486 135.050,275.228 134.780,275.228 135.000 M325.265 135.817 C 324.595 137.288,324.723 137.602,325.447 136.265 C 325.786 135.640,325.988 135.054,325.896 134.963 C 325.805 134.871,325.521 135.256,325.265 135.817 M104.585 141.300 L 102.600 143.400 104.700 141.415 C 105.855 140.323,106.800 139.378,106.800 139.315 C 106.800 139.017,106.429 139.349,104.585 141.300 M323.265 140.617 C 322.595 142.088,322.723 142.402,323.447 141.065 C 323.786 140.440,323.988 139.854,323.896 139.763 C 323.805 139.671,323.521 140.056,323.265 140.617 M134.883 142.613 C 134.182 144.036,133.693 145.200,133.798 145.200 C 134.066 145.200,136.485 140.351,136.306 140.172 C 136.225 140.092,135.585 141.190,134.883 142.613 M100.744 144.327 C 99.944 144.917,98.954 145.632,98.544 145.915 C 98.135 146.198,98.569 146.027,99.509 145.536 C 100.450 145.044,101.513 144.318,101.871 143.921 C 102.748 142.952,102.479 143.049,100.744 144.327 M200.100 150.300 C 205.325 150.363,213.875 150.363,219.100 150.300 C 224.325 150.236,220.050 150.185,209.600 150.185 C 199.150 150.185,194.875 150.236,200.100 150.300 M125.389 155.700 L 122.600 158.600 125.500 155.811 C 128.194 153.220,128.583 152.800,128.289 152.800 C 128.228 152.800,126.923 154.105,125.389 155.700 M283.628 155.000 C 283.628 155.220,283.886 155.850,284.200 156.400 C 284.514 156.950,284.772 157.220,284.772 157.000 C 284.772 156.780,284.514 156.150,284.200 155.600 C 283.886 155.050,283.628 154.780,283.628 155.000 M284.950 158.000 C 285.301 159.299,286.509 162.024,286.665 161.868 C 286.756 161.778,286.370 160.735,285.809 159.552 C 285.247 158.368,284.861 157.670,284.950 158.000 M315.253 159.653 C 314.780 160.793,314.458 161.792,314.539 161.872 C 314.620 161.953,315.073 161.086,315.547 159.947 C 316.020 158.807,316.342 157.808,316.261 157.728 C 316.180 157.647,315.727 158.514,315.253 159.653 M313.665 163.417 C 312.995 164.888,313.123 165.202,313.847 163.865 C 314.186 163.240,314.388 162.654,314.296 162.563 C 314.205 162.471,313.921 162.856,313.665 163.417 M110.800 166.200 C 109.810 166.730,109.142 167.172,109.316 167.182 C 109.741 167.206,112.800 165.634,112.800 165.392 C 112.800 165.127,112.817 165.120,110.800 166.200 M290.662 171.700 C 290.764 171.865,295.236 172.000,300.600 172.000 C 305.964 172.000,310.436 171.865,310.538 171.700 C 310.640 171.535,306.168 171.400,300.600 171.400 C 295.032 171.400,290.560 171.535,290.662 171.700 M207.698 261.724 C 207.624 286.940,207.486 295.176,207.138 294.962 C 206.841 294.778,206.785 294.853,206.983 295.173 C 207.887 296.636,207.997 292.608,207.900 261.578 L 207.795 228.200 207.698 261.724 M232.594 282.400 C 232.594 312.210,232.642 324.405,232.700 309.500 C 232.758 294.595,232.758 270.205,232.700 255.300 C 232.642 240.395,232.594 252.590,232.594 282.400 M165.477 230.431 C 165.875 231.108,166.456 231.873,166.768 232.131 C 167.080 232.389,166.832 231.835,166.215 230.900 C 164.920 228.937,164.409 228.612,165.477 230.431 M252.828 232.600 C 252.828 232.820,253.086 233.450,253.400 234.000 C 253.714 234.550,253.972 234.820,253.972 234.600 C 253.972 234.380,253.714 233.750,253.400 233.200 C 253.086 232.650,252.828 232.380,252.828 232.600 M254.028 235.292 C 253.982 235.765,255.286 238.848,255.458 238.675 C 255.545 238.588,255.266 237.725,254.837 236.758 C 254.408 235.791,254.044 235.131,254.028 235.292 M283.429 240.000 C 283.576 240.550,283.864 241.270,284.067 241.600 C 284.325 242.017,284.357 241.895,284.171 241.200 C 284.024 240.650,283.736 239.930,283.533 239.600 C 283.275 239.183,283.243 239.305,283.429 240.000 M355.265 243.017 C 354.595 244.488,354.723 244.802,355.447 243.465 C 355.786 242.840,355.988 242.254,355.896 242.163 C 355.805 242.071,355.521 242.456,355.265 243.017 M284.658 243.198 C 284.800 243.747,285.250 244.917,285.659 245.798 C 286.067 246.679,286.285 246.951,286.142 246.402 C 286.000 245.853,285.550 244.683,285.141 243.802 C 284.733 242.921,284.515 242.649,284.658 243.198 M353.653 246.853 C 353.180 247.993,352.858 248.992,352.939 249.072 C 353.020 249.153,353.473 248.286,353.947 247.147 C 354.420 246.007,354.742 245.008,354.661 244.928 C 354.580 244.847,354.127 245.714,353.653 246.853 M324.844 250.844 C 324.598 251.551,324.466 252.200,324.552 252.285 C 324.638 252.371,324.909 251.862,325.156 251.156 C 325.402 250.449,325.534 249.800,325.448 249.715 C 325.362 249.629,325.091 250.138,324.844 250.844 M323.644 254.044 C 323.398 254.751,323.266 255.400,323.352 255.485 C 323.438 255.571,323.709 255.062,323.956 254.356 C 324.202 253.649,324.334 253.000,324.248 252.915 C 324.162 252.829,323.891 253.338,323.644 254.044 M182.609 257.026 C 182.981 257.701,183.641 258.691,184.076 259.226 L 184.867 260.200 184.191 258.974 C 183.819 258.299,183.159 257.309,182.724 256.774 L 181.933 255.800 182.609 257.026 M263.350 257.600 C 263.701 258.899,264.909 261.624,265.065 261.468 C 265.156 261.378,264.770 260.335,264.209 259.152 C 263.647 257.968,263.261 257.270,263.350 257.600 M185.949 262.200 C 186.165 262.640,186.634 263.360,186.993 263.800 L 187.644 264.600 187.251 263.800 C 187.035 263.360,186.566 262.640,186.207 262.200 L 185.556 261.400 185.949 262.200 M293.858 267.198 C 294.000 267.747,294.450 268.917,294.859 269.798 C 295.267 270.679,295.485 270.951,295.342 270.402 C 295.200 269.853,294.750 268.683,294.341 267.802 C 293.933 266.921,293.715 266.649,293.858 267.198 M164.097 303.300 L 164.193 337.000 164.397 303.429 L 164.600 269.858 165.706 271.529 C 166.314 272.448,166.907 273.200,167.025 273.200 C 167.142 273.200,166.681 272.390,166.000 271.400 C 165.319 270.410,164.590 269.600,164.381 269.600 C 164.142 269.600,164.036 282.166,164.097 303.300 M109.293 282.296 L 109.200 293.192 91.300 293.300 L 73.400 293.408 91.313 293.504 C 105.462 293.580,109.266 293.494,109.419 293.094 C 109.526 292.815,109.562 287.820,109.500 281.994 L 109.386 271.400 109.293 282.296 M295.829 272.400 C 295.976 272.950,296.264 273.670,296.467 274.000 C 296.725 274.417,296.757 274.295,296.571 273.600 C 296.424 273.050,296.136 272.330,295.933 272.000 C 295.675 271.583,295.643 271.705,295.829 272.400 M315.040 276.440 C 314.455 278.018,314.045 279.378,314.128 279.461 C 314.211 279.545,314.757 278.320,315.340 276.740 C 315.923 275.160,316.334 273.800,316.252 273.719 C 316.170 273.637,315.625 274.862,315.040 276.440 M195.149 276.600 C 195.365 277.040,195.834 277.760,196.193 278.200 L 196.844 279.000 196.451 278.200 C 196.235 277.760,195.766 277.040,195.407 276.600 L 194.756 275.800 195.149 276.600 M274.428 284.200 C 274.428 284.420,274.686 285.050,275.000 285.600 C 275.314 286.150,275.572 286.420,275.572 286.200 C 275.572 285.980,275.314 285.350,275.000 284.800 C 274.686 284.250,274.428 283.980,274.428 284.200 M336.465 287.817 C 335.795 289.288,335.923 289.602,336.647 288.265 C 336.986 287.640,337.188 287.054,337.096 286.963 C 337.005 286.871,336.721 287.256,336.465 287.817 M202.349 287.800 C 202.565 288.240,203.034 288.960,203.393 289.400 L 204.044 290.200 203.651 289.400 C 203.435 288.960,202.966 288.240,202.607 287.800 L 201.956 287.000 202.349 287.800 M335.265 290.617 C 334.595 292.088,334.723 292.402,335.447 291.065 C 335.786 290.440,335.988 289.854,335.896 289.763 C 335.805 289.671,335.521 290.056,335.265 290.617 M333.265 295.417 C 332.595 296.888,332.723 297.202,333.447 295.865 C 333.786 295.240,333.988 294.654,333.896 294.563 C 333.805 294.471,333.521 294.856,333.265 295.417 M305.029 296.400 C 305.176 296.950,305.464 297.670,305.667 298.000 C 305.925 298.417,305.957 298.295,305.771 297.600 C 305.624 297.050,305.336 296.330,305.133 296.000 C 304.875 295.583,304.843 295.705,305.029 296.400 M183.149 298.600 C 183.365 299.040,183.834 299.760,184.193 300.200 L 184.844 301.000 184.451 300.200 C 184.235 299.760,183.766 299.040,183.407 298.600 L 182.756 297.800 183.149 298.600 M282.828 304.200 C 282.828 304.420,283.086 305.050,283.400 305.600 C 283.714 306.150,283.972 306.420,283.972 306.200 C 283.972 305.980,283.714 305.350,283.400 304.800 C 283.086 304.250,282.828 303.980,282.828 304.200 M284.828 309.000 C 284.828 309.220,285.086 309.850,285.400 310.400 C 285.714 310.950,285.972 311.220,285.972 311.000 C 285.972 310.780,285.714 310.150,285.400 309.600 C 285.086 309.050,284.828 308.780,284.828 309.000 M324.453 316.453 C 323.980 317.593,323.658 318.592,323.739 318.672 C 323.820 318.753,324.273 317.886,324.747 316.747 C 325.220 315.607,325.542 314.608,325.461 314.528 C 325.380 314.447,324.927 315.314,324.453 316.453 M82.928 315.100 C 88.168 315.163,96.628 315.163,101.728 315.100 C 106.827 315.036,102.540 314.985,92.200 314.985 C 81.860 314.985,77.687 315.037,82.928 315.100 M195.149 317.400 C 195.365 317.840,195.834 318.560,196.193 319.000 L 196.844 319.800 196.451 319.000 C 196.235 318.560,195.766 317.840,195.407 317.400 L 194.756 316.600 195.149 317.400 M293.228 329.000 C 293.228 329.220,293.486 329.850,293.800 330.400 C 294.114 330.950,294.372 331.220,294.372 331.000 C 294.372 330.780,294.114 330.150,293.800 329.600 C 293.486 329.050,293.228 328.780,293.228 329.000 M294.550 332.000 C 294.901 333.299,296.109 336.024,296.265 335.868 C 296.356 335.778,295.970 334.735,295.409 333.552 C 294.847 332.368,294.461 331.670,294.550 332.000 " stroke="none" fill="#e36a8a" fill-rule="evenodd"></path><path id="path3" d="M165.794 117.600 C 165.794 147.410,165.842 159.605,165.900 144.700 C 165.958 129.795,165.958 105.405,165.900 90.500 C 165.842 75.595,165.794 87.790,165.794 117.600 M81.511 85.893 C 82.451 85.978,83.891 85.977,84.711 85.891 C 85.530 85.805,84.760 85.736,83.000 85.737 C 81.240 85.739,80.570 85.809,81.511 85.893 M140.954 117.600 C 140.954 120.350,141.018 121.475,141.096 120.100 C 141.174 118.725,141.174 116.475,141.096 115.100 C 141.018 113.725,140.954 114.850,140.954 117.600 M104.378 141.100 L 103.000 142.600 104.500 141.222 C 105.896 139.938,106.184 139.600,105.878 139.600 C 105.812 139.600,105.137 140.275,104.378 141.100 M290.747 172.107 C 290.916 172.276,295.452 172.366,300.827 172.307 L 310.600 172.199 300.519 171.999 C 294.975 171.890,290.577 171.938,290.747 172.107 M63.100 172.300 C 67.775 172.364,75.425 172.364,80.100 172.300 C 84.775 172.236,80.950 172.183,71.600 172.183 C 62.250 172.183,58.425 172.236,63.100 172.300 M181.930 172.300 C 190.581 172.360,204.621 172.360,213.130 172.300 C 221.638 172.240,214.560 172.190,197.400 172.190 C 180.240 172.190,173.278 172.240,181.930 172.300 M48.598 282.700 L 48.600 337.000 79.700 337.004 L 110.800 337.007 79.801 336.901 L 48.803 336.795 48.699 282.598 L 48.596 228.400 48.598 282.700 M207.391 261.600 C 207.391 279.970,207.440 287.485,207.500 278.300 C 207.560 269.115,207.560 254.085,207.500 244.900 C 207.440 235.715,207.391 243.230,207.391 261.600 M152.000 336.800 L 139.400 337.017 151.876 337.109 C 159.863 337.167,164.442 337.056,164.600 336.800 C 164.736 336.580,164.792 336.441,164.724 336.491 C 164.656 336.542,158.930 336.681,152.000 336.800 M213.700 337.099 C 217.165 337.166,222.835 337.166,226.300 337.099 C 229.765 337.033,226.930 336.978,220.000 336.978 C 213.070 336.978,210.235 337.033,213.700 337.099 M301.500 337.099 C 304.195 337.168,308.605 337.168,311.300 337.099 C 313.995 337.030,311.790 336.973,306.400 336.973 C 301.010 336.973,298.805 337.030,301.500 337.099 " stroke="none" fill="#d42551" fill-rule="evenodd"></path><path id="path4" d="M190.975 95.800 C 190.975 101.740,191.031 104.226,191.099 101.324 C 191.167 98.422,191.167 93.562,191.099 90.524 C 191.031 87.486,190.975 89.860,190.975 95.800 M190.975 139.200 C 190.975 145.250,191.031 147.725,191.099 144.700 C 191.167 141.675,191.167 136.725,191.099 133.700 C 191.031 130.675,190.975 133.150,190.975 139.200 M90.705 171.883 C 91.202 171.979,91.922 171.975,92.305 171.875 C 92.687 171.775,92.280 171.696,91.400 171.701 C 90.520 171.705,90.207 171.787,90.705 171.883 M79.694 228.299 L 110.787 228.405 110.904 239.302 L 111.020 250.200 111.010 239.200 L 111.000 228.200 79.800 228.196 L 48.600 228.193 79.694 228.299 M145.700 228.299 C 149.165 228.366,154.835 228.366,158.300 228.299 C 161.765 228.233,158.930 228.178,152.000 228.178 C 145.070 228.178,142.235 228.233,145.700 228.299 M213.700 228.299 C 217.165 228.366,222.835 228.366,226.300 228.299 C 229.765 228.233,226.930 228.178,220.000 228.178 C 213.070 228.178,210.235 228.233,213.700 228.299 M258.100 228.299 C 262.005 228.365,268.395 228.365,272.300 228.299 C 276.205 228.234,273.010 228.180,265.200 228.180 C 257.390 228.180,254.195 228.234,258.100 228.299 M333.461 228.300 C 333.292 228.573,344.162 228.566,356.800 228.285 C 359.550 228.224,355.466 228.135,347.724 228.087 C 339.982 228.039,333.564 228.135,333.461 228.300 M73.790 260.600 L 73.800 271.400 91.500 271.406 L 109.200 271.413 91.607 271.302 L 74.013 271.192 73.896 260.496 L 73.780 249.800 73.790 260.600 M164.591 303.200 C 164.591 321.570,164.640 329.085,164.700 319.900 C 164.760 310.715,164.760 295.685,164.700 286.500 C 164.640 277.315,164.591 284.830,164.591 303.200 M73.775 304.200 C 73.775 310.140,73.831 312.626,73.899 309.724 C 73.967 306.822,73.967 301.962,73.899 298.924 C 73.831 295.886,73.775 298.260,73.775 304.200 M110.975 326.000 C 110.975 332.050,111.031 334.525,111.099 331.500 C 111.167 328.475,111.167 323.525,111.099 320.500 C 111.031 317.475,110.975 319.950,110.975 326.000 " stroke="none" fill="#d53860" fill-rule="evenodd"></path></g></svg>