<svg width="343" height="180" viewBox="0 0 343 180" fill="none" xmlns="http://www.w3.org/2000/svg">
<path fill-rule="evenodd" clip-rule="evenodd" d="M85.874 2.01401C80.318 6.23101 78.048 20.113 82.286 23.946C88.942 29.964 97.397 21.951 97.487 9.53901C97.541 2.14401 91.154 -1.99499 85.874 2.01401ZM93.088 4.06101C96.27 7.01201 93.915 20.16 89.749 22.7C84.6 25.84 81.434 20.776 83.44 12.608C85.45 4.42301 89.556 0.786008 93.088 4.06101ZM28.764 18.636C23.175 21.391 28.08 36.409 34.569 36.409C39.505 36.409 41.196 31.404 38.472 24.859C35.989 18.896 32.62 16.736 28.764 18.636ZM33.383 20.582C37.155 23.756 39.152 32.08 36.619 34.072C33.86 36.242 30.278 32.555 28.44 25.653C27.159 20.841 30.102 17.821 33.383 20.582ZM48.098 33.69C45.012 34.691 42.363 36.691 40.594 39.355C39.295 41.311 39.032 41.51 37.733 41.51C32.183 41.51 25.877 45.038 22.733 49.903C21.501 51.809 20.801 52.447 18.972 53.331C12.849 56.291 8.62599 63.473 9.68699 69.125C9.89499 70.237 9.70599 70.662 8.26099 72.331C4.87999 76.234 3.21199 81.632 3.95699 86.258C4.31399 88.474 4.26599 88.805 3.31799 90.67C0.612989 95.994 0.529987 101.876 3.09099 106.787C3.65799 107.875 4.22299 109.732 4.34499 110.914L4.56899 113.063L9.37299 113.08C12.015 113.089 14.176 113.004 14.175 112.891C14.17 112.238 12.541 110.192 11.396 109.401C5.90899 105.614 4.37899 97.22 8.20199 91.877C9.15299 90.547 9.26599 90.116 9.01899 88.765C8.31099 84.9 8.62099 81.373 9.89299 78.827C11.318 75.976 11.309 75.979 12.749 78.014C13.473 79.036 14.076 79.521 14.448 79.378C14.765 79.256 16.996 79.144 19.405 79.129L23.784 79.102L21.745 78.407C12.144 75.134 11.913 62.157 21.377 57.75C22.485 57.234 23.669 56.81 24.006 56.808C24.37 56.805 25.088 55.825 25.769 54.401C27.699 50.362 31.661 47.537 36.474 46.767L37.979 46.527L38.208 49.565C38.705 56.132 42.859 61.16 49.207 62.879C51.344 63.457 51.759 63.728 52.428 64.977C54.199 68.285 57.449 66.419 55.743 63.074C54.826 61.276 54.747 59.659 55.506 58.196C56.16 56.934 55.919 55.748 54.897 55.201C53.742 54.583 52.751 55.117 51.958 56.785L51.235 58.306L49.746 57.791C38.497 53.9 42.057 36.714 53.823 38.108C60.85 38.94 61.824 41.31 61.824 57.588C61.824 71.009 61.676 72.212 59.403 77.276L58.376 79.564L59.993 81.057C62.147 83.045 62.804 84.752 62.804 88.36V91.314H64.569H66.333V88.057C66.333 84.354 67.479 81.875 69.834 80.484C70.505 80.087 70.974 79.582 70.875 79.362C67.158 71.086 67.036 70.336 67.192 56.633C67.371 40.949 68.354 38.749 75.462 38.127C83.287 37.443 88.45 45.322 85.013 52.702C83.024 56.974 78 59.443 76.989 56.646C76.358 54.902 75.595 54.305 74.384 54.609C73.193 54.908 72.695 56.481 73.383 57.767C73.957 58.839 73.743 61.937 72.969 63.775C72.312 65.335 72.792 66.354 74.269 66.531C75.285 66.654 76.922 65.116 76.922 64.038C76.922 63.753 77.765 63.355 78.874 63.117C85.567 61.681 89.802 56.955 90.772 49.838L91.223 46.537L92.696 46.772C97.509 47.542 101.277 50.233 103.209 54.282C104.146 56.244 104.604 56.806 105.275 56.813C112.151 56.881 116.565 66.994 113.588 75.861C112.405 79.387 112.411 79.156 113.49 79.159C113.975 79.161 114.878 79.425 115.496 79.748C117.082 80.575 117.184 80.527 117.804 78.667C119.349 74.032 121.439 80.854 120.357 86.999L119.839 89.94L121.292 92.748C124.417 98.787 123.44 104.29 118.585 107.997C117.592 108.755 116.279 110.252 115.666 111.325L114.553 113.275H119.659H124.765V111.187C124.765 109.64 125.057 108.55 125.896 106.972C128.479 102.113 128.572 96.503 126.154 91.412C124.783 88.526 124.744 88.328 125.186 86.485C126.353 81.621 124.804 76.062 121.086 71.772C119.507 69.949 119.275 69.453 119.275 67.907C119.275 61.613 115.153 55.122 109.73 52.874C108.165 52.225 107.451 51.654 106.888 50.602C104.319 45.795 96.882 41.51 91.107 41.51C89.862 41.51 89.47 41.34 89.272 40.716C89.133 40.28 88.068 38.894 86.905 37.638C81.37 31.66 72.173 31.294 66.636 36.831L64.382 39.085L63.164 37.547C59.998 33.551 53.587 31.909 48.098 33.69ZM27.118 66.216C25.993 67.34 26.139 68.097 27.779 69.643C29.141 70.928 29.228 71.155 29.294 73.611C29.332 75.044 29.495 76.877 29.657 77.686L29.95 79.157H32.651C34.137 79.157 35.353 79.09 35.353 79.009C35.353 78.927 35.088 78.227 34.765 77.453C34.441 76.678 34.176 74.987 34.176 73.695V71.345L35.784 70.863C38.985 69.905 39.189 66.12 36.004 66.79C32.374 67.554 31.435 67.502 29.922 66.453C28.153 65.227 28.11 65.223 27.118 66.216ZM96.535 75.033C95.315 76.332 93.504 76.633 91.628 75.849C89.794 75.083 88.77 75.354 88.433 76.695C87.942 78.654 88.555 78.95 93.353 79.072L97.74 79.183L98.9 78.024C100.106 76.817 100.397 75.338 99.588 74.529C98.829 73.77 97.519 73.986 96.535 75.033ZM39.863 87.207C41.632 87.79 42.842 87.896 43.752 87.546C45.196 86.992 44.168 86.611 41.333 86.649L38.294 86.69L39.863 87.207ZM51.235 88.205C43.3 94.504 33.267 96.265 19.033 93.856L17.418 93.583L17.8 95.88C18.3 98.89 18.471 99.019 22.608 99.515C34.529 100.946 44.732 98.961 52.301 93.74C55.151 91.774 55.578 90.694 55.005 86.902C54.891 86.146 53.01 86.797 51.235 88.205ZM73.803 88.863C73.821 91.104 73.834 91.127 75.862 92.736C81.759 97.412 92.756 101.056 95.353 99.194C97.538 97.627 96.525 95.067 93.543 94.62C91.498 94.313 91.457 94.163 93.032 92.781C94.177 91.776 94.387 91.734 97.09 91.962C101.883 92.367 108.136 90.497 111.627 87.614L112.804 86.642L102.161 86.694L91.519 86.746L90.882 87.825C90.051 89.231 88.158 90.376 85.517 91.07C83.091 91.708 81.731 91.17 78.044 88.115C76.794 87.08 75.843 86.608 75.004 86.608H73.784L73.803 88.863ZM62.664 105.137C62.552 107.779 62.343 110.691 62.199 111.608L61.937 113.275H64.569H67.2L66.927 111.608C66.777 110.691 66.572 107.779 66.471 105.137L66.289 100.333H64.578H62.868L62.664 105.137ZM28.26 102.923C27.973 103.269 27.633 104.504 27.505 105.668L27.272 107.784H29.59C31.542 107.784 31.87 107.687 31.669 107.164C31.538 106.823 31.431 105.865 31.431 105.035C31.431 102.681 29.518 101.407 28.26 102.923ZM98.882 107.196C97.934 107.738 97.967 107.757 99.863 107.758C101.671 107.759 101.764 107.715 101.062 107.184C100.145 106.49 100.117 106.49 98.882 107.196ZM312.222 112.995C309.509 114.367 310.876 118.765 314.017 118.765C315.106 118.765 316.529 116.925 316.529 115.518C316.529 113.136 314.404 111.891 312.222 112.995ZM4.37299 152.294V179.549H7.31399H10.255V170.775V162L13.564 161.827C18.98 161.542 22.807 158.326 23.393 153.566C24.042 148.3 23.439 131.989 22.533 130.296C20.272 126.072 17.863 125.039 10.267 125.039H4.37299V152.294ZM35.549 125.885C30.193 128.655 30.082 129.069 29.936 146.902L29.812 161.902H32.779H35.745V148.618C35.745 131.644 35.91 130.922 39.776 130.922C42.295 130.922 43.262 132.099 43.557 135.527L43.784 138.176L46.627 138.292L49.471 138.407L49.462 135.351C49.44 127.617 41.995 122.552 35.549 125.885ZM61.767 125.607C56.477 127.908 55.764 129.981 55.756 143.078C55.749 154.964 55.885 155.909 57.943 158.314C63.58 164.9 74.247 161.708 75.162 153.161C75.79 147.303 75.207 132.025 74.29 130.296C71.966 125.913 66.105 123.719 61.767 125.607ZM86.819 125.867C84.565 126.983 82.215 129.73 81.673 131.883C81.035 134.417 81.116 153.433 81.773 155.271C83.495 160.089 89.342 163.025 94.176 161.499C95.965 160.935 94.822 172.299 92.992 173.279C89.777 175 87.118 172.49 87.118 167.735V166.216H84.121H81.125L81.328 169.476C82.006 180.347 94.781 183.419 99.954 173.955C101.151 171.763 101.002 132.566 99.788 130.296C97.3 125.647 91.361 123.619 86.819 125.867ZM113.558 125.595C108.068 127.986 107.727 129.202 107.586 146.902L107.467 161.902H110.43H113.392L113.394 148.471C113.397 131.987 113.63 130.922 117.231 130.922C119.889 130.922 120.906 132.17 121.226 135.824L121.431 138.176L124.275 138.292L127.118 138.407L127.115 135.743C127.109 127.976 120.114 122.741 113.558 125.595ZM139.72 125.576C136.528 126.731 133.795 130.264 133.659 133.411L133.588 135.039L136.365 135.153L139.141 135.267L139.611 133.697C141.076 128.808 147.118 130.308 147.118 135.561V137.787L143.637 137.786C136.728 137.783 133.639 141.472 133.675 149.685C133.717 159.149 136.823 161.902 147.457 161.902H153L152.991 147.098C152.983 133.528 152.922 132.161 152.255 130.692C150.211 126.192 144.481 123.853 139.72 125.576ZM159.275 143.471V161.902H162.216H165.157V146.412V130.922H168.294H171.431V146.412V161.902H174.368H177.305L177.407 146.51L177.51 131.118L179.715 131.002C181.766 130.893 181.991 130.97 182.95 132.11L183.98 133.335V147.618V161.902H186.922H189.863V147.441C189.863 130.735 189.905 131.098 187.645 128.584C184.498 125.084 184.289 125.039 170.915 125.039H159.275V143.471ZM202.105 125.871C200.226 126.801 198.249 128.724 197.216 130.626C196.242 132.418 196.177 153.631 197.138 155.934C200.354 163.647 211.337 163.698 215.243 156.02C216.242 154.056 216.302 133.084 215.314 130.922C213.007 125.869 206.859 123.518 202.105 125.871ZM222.02 138.499C222.02 153.414 222.222 155.333 224.086 158.091C226.753 162.039 232.329 163.126 235.762 160.367C237.581 158.905 237.715 158.895 238.883 160.138C241.259 162.668 246.974 162.412 249.734 159.652C252.834 156.552 252.79 156.823 252.923 140.039L253.043 125.039H250.08H247.118V138.902C247.118 153.187 246.958 154.873 245.534 155.636C244.238 156.329 242.432 156.076 241.414 155.057L240.451 154.094V139.567V125.039H237.51H234.569V139.176C234.569 155.757 234.509 156.048 231.105 156.007C228.437 155.975 228.511 156.398 228.294 140.023L228.098 125.235L225.059 125.121L222.02 125.006V138.499ZM265.322 125.595C262.193 126.958 259.725 130.187 259.571 133.12L259.471 135.039L262.124 135.155L264.777 135.271L265.502 133.581C267.532 128.845 272.532 130.213 272.923 135.612L273.093 137.96L270.557 137.723C263.359 137.051 259.489 141.197 259.52 149.549C259.556 159.149 262.62 161.902 273.267 161.902H278.925L278.806 146.902C278.671 130.012 278.706 130.217 275.503 127.404C272.847 125.073 268.356 124.275 265.322 125.595ZM285.157 143.471V161.902H288.098H291.039V146.412V130.922H293.697C298.843 130.922 298.877 131.038 298.88 148.471L298.882 161.902H301.845H304.808L304.688 146.902C304.554 130.047 304.581 130.21 301.44 127.452C299 125.31 297.849 125.039 291.187 125.039H285.157V143.471ZM310.647 143.471V161.902H313.588H316.529V143.471V125.039H313.588H310.647V143.471ZM329.244 125.595C326.171 126.934 323.788 130.009 323.368 133.181L323.095 135.235H325.911H328.726L329.334 133.765C331.528 128.451 336.91 130.388 336.919 136.495L336.922 137.951L334.471 137.725C327.238 137.058 323.415 141.143 323.403 149.549C323.388 159.171 326.355 161.853 337.048 161.885L342.862 161.902L342.735 146.902C342.592 130.049 342.619 130.209 339.479 127.452C336.817 125.114 332.251 124.286 329.244 125.595ZM16.685 132.224C17.455 133.257 17.518 133.905 17.634 142.028C17.82 155.138 17.638 155.691 13.033 155.951L10.255 156.108V143.498V130.887L13.058 131.002C15.612 131.107 15.933 131.216 16.685 132.224ZM67.569 131.345C69.533 132.397 70.524 149.451 68.861 153.605C67.584 156.798 63.354 156.888 62.054 153.75C61.055 151.338 61.656 133.122 62.774 131.933C63.812 130.829 66.084 130.55 67.569 131.345ZM93.575 131.853C95.264 133.542 95.646 152.171 94.04 154.538C92.575 156.698 89.114 156.434 87.848 154.065C86.991 152.462 86.736 135.506 87.537 133.399C88.556 130.719 91.649 129.927 93.575 131.853ZM208.661 131.68C210.19 133.209 211.049 148.633 209.847 152.963C209.041 155.863 205.888 156.948 203.708 155.074L202.608 154.128L202.492 143.753L202.376 133.377L203.409 132.15C204.682 130.637 207.377 130.396 208.661 131.68ZM145.892 143.716L147.118 143.961V149.99V156.02H144.656C140.766 156.02 139.275 154.288 139.275 149.771C139.275 144.648 141.298 142.797 145.892 143.716ZM271.775 143.716L273 143.961V149.99V156.02H270.538C266.528 156.02 265.157 154.37 265.157 149.542C265.157 144.592 267.193 142.799 271.775 143.716ZM335.926 143.857L336.943 144.243L336.834 150.034L336.725 155.824L334.433 155.942C330.561 156.143 329.078 154.384 329.078 149.587C329.078 144.391 331.656 142.234 335.926 143.857Z" fill="#353535"/>
<path fill-rule="evenodd" clip-rule="evenodd" d="M41.567 3.31097C40.629 4.08597 39.704 4.87098 39.51 5.05598C38.715 5.81298 40.347 7.36698 41.417 6.87098C41.961 6.61798 42.407 6.27897 42.409 6.11797C42.41 5.95597 42.941 5.82397 43.588 5.82397C44.235 5.82397 44.765 6.02698 44.765 6.27698C44.765 6.52598 45.25 7.35698 45.843 8.12398C46.436 8.89098 47.186 9.89698 47.51 10.36C48.659 12.004 54.934 20.168 57.134 22.882C57.659 23.529 58.41 24.478 58.804 24.991C59.324 25.669 59.743 25.852 60.341 25.662C62.196 25.074 61.719 24.165 55.174 15.824C54.666 15.176 53.448 13.588 52.468 12.294C48.967 7.67398 48.086 6.53598 47.207 5.50098C46.717 4.92298 45.923 3.87898 45.443 3.17898C44.326 1.55398 43.664 1.57597 41.567 3.31097ZM115.57 22.578C115.325 23.215 116.21 24.255 116.997 24.255C117.83 24.255 116.848 26.688 114.915 29.413C114.509 29.986 114.176 30.563 114.176 30.695C114.176 30.827 113.333 32.3 112.302 33.968C111.271 35.635 110.106 37.618 109.713 38.373C109.321 39.127 108.672 40.348 108.272 41.085C107.514 42.482 107.577 43.078 108.483 43.078C109.051 43.078 111.824 38.939 111.824 38.091C111.824 37.814 111.956 37.587 112.118 37.586C112.446 37.583 113.258 36.262 115.249 32.49C115.989 31.088 116.819 29.676 117.092 29.353C117.834 28.474 120.25 23.913 120.042 23.781C117.257 22.009 115.925 21.651 115.57 22.578ZM174.778 28.609C172.431 30.67 173.028 33.882 175.936 34.842C179.326 35.96 182.024 32.453 180.178 29.329C178.88 27.131 176.78 26.852 174.778 28.609ZM333.784 28.032C332.604 28.86 332.201 29.405 332.461 29.824C332.567 29.996 332.467 30.137 332.239 30.137C331.377 30.137 331.803 32.819 332.842 33.941C334.133 35.334 336.885 35.446 338.173 34.158C341.175 31.156 337.214 25.626 333.784 28.032ZM147.902 44.81C143.251 46.003 139.638 49.052 138.144 53.046C137.034 56.013 136.86 81.595 137.926 85.259C139.871 91.952 145.747 94.955 154.961 93.968L155.941 93.863V100.56V107.258L154.811 108.739C150.979 113.762 144.765 110.791 144.765 103.937V101.177L141.529 101.041C137.097 100.854 137.314 100.677 137.314 104.478C137.314 119.168 154.949 123.86 162.266 111.118L163.392 109.157V81.51V53.863L162.273 51.844C160.223 48.146 156.404 45.338 152.746 44.84C151.699 44.698 150.578 44.531 150.255 44.469C149.931 44.408 148.873 44.561 147.902 44.81ZM173.594 44.575C173.483 44.687 173.392 55.961 173.392 69.629V94.48L177.02 94.368L180.647 94.255L180.755 70.137C180.815 56.873 180.767 45.621 180.649 45.134C180.445 44.29 174.362 43.808 173.594 44.575ZM236.922 44.667C231.678 45.59 227.194 50.026 226.381 55.094C225.912 58.017 225.936 58.035 230.055 57.899L233.508 57.784L234.041 55.955C236.14 48.742 244.999 51.504 244.683 59.272L244.569 62.098L240.405 61.964C238.115 61.89 235.909 61.999 235.503 62.206C231.333 64.331 230.081 65.31 228.516 67.675C225.588 72.1 225.444 83.773 228.262 88.316C231.275 93.173 234.077 94.23 243.98 94.244L252.02 94.255V73.863V53.471L250.962 51.672C249.937 49.928 247.81 47.392 247.372 47.392C247.254 47.392 246.398 46.886 245.471 46.266C244.49 45.611 242.964 45.028 241.824 44.871C240.745 44.723 239.598 44.547 239.275 44.479C238.951 44.412 237.892 44.496 236.922 44.667ZM261.497 44.516C261.353 44.66 261.235 55.954 261.235 69.614V94.451H264.961H268.686V73.494C268.686 60.417 268.829 52.448 269.066 52.302C269.918 51.775 276.019 52.017 277.193 52.624C279.937 54.043 279.841 53.302 280.059 74.843L280.255 94.255L283.905 94.368L287.555 94.481L287.434 73.976L287.314 53.471L286.348 51.784C283.967 47.625 280.427 45.27 275.622 44.645C272.374 44.223 261.886 44.128 261.497 44.516ZM306.922 44.695C303.698 45.438 300.898 47.324 298.708 50.227C296.522 53.128 296.47 53.612 296.604 70.137L296.725 85.235L297.889 87.335C304.646 99.536 322.216 95.066 322.216 81.146V77L319.479 76.882C314.987 76.688 314.961 76.708 314.961 80.15C314.961 86.949 307.628 89.867 304.745 84.217C303.691 82.15 303.56 56.983 304.593 54.913C307.556 48.972 314.961 51.976 314.961 59.118V61.902H318.686H322.412V57.976C322.412 53.054 319.709 47.392 317.359 47.392C317.119 47.392 316.922 47.26 316.922 47.097C316.922 46.274 310.299 44.013 308.712 44.294C308.59 44.316 307.784 44.496 306.922 44.695ZM331.824 69.353V94.48L335.451 94.368L339.078 94.255V69.353V44.451L335.451 44.338L331.824 44.225V69.353ZM198.111 45.542C196.017 46.366 191.431 50.355 191.431 51.352C191.431 51.59 191.161 52.354 190.83 53.051C189.817 55.186 190.155 84.639 191.217 86.781C194.097 92.587 199.564 95.006 207.51 93.988L208.49 93.863L208.547 100.688C208.578 104.442 208.444 107.707 208.249 107.943C208.053 108.179 207.547 108.836 207.124 109.402C203.789 113.86 197.749 110.356 197.576 103.863L197.507 101.314H193.783H190.059L190.158 104.647C190.257 107.976 190.938 111.314 191.517 111.314C191.686 111.314 191.824 111.587 191.824 111.921C191.824 113.855 197.231 117.55 201.357 118.435C203.827 118.965 208.251 117.934 210.059 116.407C210.49 116.042 211.133 115.642 211.488 115.518C212.331 115.222 214.088 112.898 215.209 110.596L216.101 108.765L216.021 81.118L215.941 53.471L215.034 51.902C214.535 51.039 213.792 50.046 213.384 49.696C212.975 49.345 212.734 48.966 212.846 48.853C213.173 48.527 210.642 46.752 208.291 45.657C205.462 44.34 201.284 44.293 198.111 45.542ZM153 52.448C153.603 52.615 154.357 53.394 154.959 54.468L155.937 56.216L155.939 69.549C155.941 82.247 155.903 82.948 155.144 84.255C153.116 87.744 147.746 87.874 145.693 84.483C144.686 82.821 144.56 56.599 145.549 54.687C146.642 52.574 149.911 51.591 153 52.448ZM205.735 52.657C208.54 53.829 208.686 54.657 208.686 69.35C208.686 79.461 208.568 82.597 208.149 83.581C206.209 88.133 200.019 88.064 198.206 83.471C197.142 80.773 197.16 57.886 198.229 55.193C199.344 52.384 202.516 51.312 205.735 52.657ZM243.41 69.751L244.78 70.203L244.674 78.504L244.569 86.804H240.969C235.119 86.804 233.585 84.968 233.593 77.98C233.602 70.406 236.933 67.613 243.41 69.751ZM14.373 81.884C11.688 82.994 10.76 85.772 11.616 90.137C11.976 91.971 12.418 94.441 12.599 95.627C15.513 114.702 13.195 113.078 37.51 113.078C61.16 113.078 60.106 113.508 60.451 103.736L60.647 98.176H64.569H68.49L68.599 103.569C68.667 106.939 68.86 108.961 69.113 108.961C69.335 108.961 69.411 109.132 69.281 109.342C68.837 110.061 70.294 111.626 72.154 112.426C74.735 113.537 107.087 113.738 110.321 112.664C112.453 111.956 114.176 110.091 114.176 108.492C114.176 107.951 114.342 106.998 114.545 106.372C114.748 105.747 115.008 104.441 115.125 103.471C115.39 101.253 115.824 98.648 116.92 92.686C118.011 86.748 117.837 84.689 116.112 83.113C114.345 81.499 114.501 81.51 92.581 81.51C67.669 81.51 69.075 81.06 68.694 89.157L68.49 93.471H64.569H60.647L60.395 89.549C59.849 81.029 61.322 81.503 35.464 81.535C24.295 81.548 14.804 81.706 14.373 81.884ZM56.567 85.072L57.51 85.89V97.188C57.51 107.748 57.461 108.54 56.763 109.312C55.693 110.494 19.427 110.625 18.409 109.451C17.472 108.371 15.149 96.429 14.338 88.523C13.866 83.929 12.239 84.255 35.685 84.255C55.331 84.255 55.639 84.267 56.567 85.072ZM113.976 85.106C115.168 86.043 115.188 86.928 114.158 92.882C113.916 94.284 113.582 96.225 113.416 97.196C112.624 101.83 111.742 106.892 111.585 107.696C111.095 110.216 111.742 110.137 91.492 110.137C73.319 110.137 73.114 110.128 72.375 109.312C71.474 108.318 70.99 87.38 71.832 85.808C72.597 84.379 73.636 84.305 93.437 84.28C112.826 84.255 112.898 84.258 113.976 85.106Z" fill="#EE7B2C"/>
<path fill-rule="evenodd" clip-rule="evenodd" d="M41.302 2.89503C38.227 5.20603 38.226 5.20704 39.472 6.84104L40.521 8.21604L41.876 7.18203C43.544 5.91003 43.356 5.77204 47.69 11.452C60.825 28.667 59.4 27.186 61.247 25.535L62.498 24.417L61.539 23.258C61.011 22.62 57.008 17.422 52.643 11.706C43.591 -0.144965 44.454 0.52503 41.302 2.89503ZM45.443 3.17903C45.923 3.87903 46.717 4.92303 47.207 5.50103C48.086 6.53603 48.967 7.67403 52.468 12.294C53.448 13.588 54.666 15.176 55.174 15.824C61.719 24.165 62.196 25.074 60.341 25.662C59.743 25.852 59.324 25.669 58.804 24.991C58.41 24.478 57.659 23.529 57.134 22.882C54.934 20.168 48.659 12.004 47.51 10.36C47.186 9.89703 46.436 8.89103 45.843 8.12403C45.25 7.35703 44.765 6.52603 44.765 6.27703C44.765 6.02703 44.235 5.82403 43.588 5.82403C42.941 5.82403 42.41 5.95603 42.409 6.11803C42.407 6.27903 41.961 6.61804 41.417 6.87104C40.347 7.36704 38.715 5.81303 39.51 5.05603C43.012 1.72303 44.186 1.35103 45.443 3.17903ZM115.15 22.163C114.422 23.274 114.546 23.505 116.461 24.608C116.852 24.833 116.216 26.21 113.89 30.169C109.708 37.29 106.725 42.541 106.725 42.783C106.725 43.212 109.135 43.962 109.43 43.625C109.847 43.151 120.35 24.974 120.632 24.24C120.788 23.832 120.164 23.278 118.544 22.388C115.768 20.862 115.993 20.877 115.15 22.163ZM118.216 22.784C119.122 23.27 119.944 23.718 120.042 23.781C120.25 23.913 117.834 28.474 117.092 29.353C116.819 29.676 115.989 31.088 115.249 32.49C113.258 36.262 112.446 37.583 112.118 37.586C111.956 37.587 111.824 37.814 111.824 38.091C111.824 38.939 109.051 43.078 108.483 43.078C107.577 43.078 107.514 42.482 108.272 41.085C108.672 40.348 109.321 39.127 109.713 38.373C110.106 37.618 111.271 35.635 112.302 33.968C113.333 32.3 114.176 30.827 114.176 30.695C114.176 30.563 114.509 29.986 114.915 29.413C116.848 26.688 117.83 24.255 116.997 24.255C116.21 24.255 115.325 23.215 115.57 22.578C115.907 21.698 116.239 21.724 118.216 22.784ZM174.386 28.217C172.163 30.169 172.46 33.746 174.953 35.035C177.828 36.522 180.713 35.196 181.114 32.203C181.704 27.802 177.617 25.38 174.386 28.217ZM332.765 28.333C329.827 31.271 331.726 35.627 335.946 35.627C338.194 35.627 339.667 33.92 339.667 31.314C339.667 27.197 335.64 25.458 332.765 28.333ZM178.603 27.818C181.587 29.177 181.307 34.061 178.19 35.019C176.996 35.386 174.709 34.588 173.982 33.549C171.91 30.592 175.344 26.333 178.603 27.818ZM338.365 28.742C341.491 32.338 336.079 37.433 332.842 33.941C331.803 32.819 331.377 30.137 332.239 30.137C332.467 30.137 332.567 29.996 332.461 29.824C331.223 27.822 336.693 26.818 338.365 28.742ZM146.9 44.443C142.96 45.687 139.82 48.259 138.033 51.706L137.118 53.471V69.549C137.118 87.833 136.995 87.094 140.64 90.739C144.062 94.161 150.401 95.805 154.471 94.327L155.353 94.006V100.352C155.353 107.535 154.834 109.302 152.486 110.121C148.202 111.614 145.602 109.268 145.237 103.577C145.025 100.274 144.88 100.188 139.863 100.409L137.118 100.529V105.039C137.118 119.805 155.478 124.542 162.635 111.623L163.784 109.549V81.706C163.784 54.093 163.777 53.848 162.946 52.05C160.174 46.056 152.824 42.571 146.9 44.443ZM173 69.274C173 83.265 173.073 94.786 173.162 94.876C173.251 94.966 175.105 94.983 177.282 94.915L181.241 94.791L181.14 69.425L181.039 44.059L177.02 43.947L173 43.835V69.274ZM199.512 44.46C196.976 45.156 193.58 47.536 191.982 49.737C189.753 52.808 189.667 53.559 189.667 69.941V84.843L190.762 87.075C193.693 93.043 200.801 96.155 207.51 94.408C209.233 93.959 208.307 107.683 206.499 109.381C202.941 112.724 198.46 109.82 198.107 103.944L197.902 100.529L194.235 100.416C189.323 100.264 189.3 100.286 189.595 105.034C189.869 109.458 190.299 110.868 192.153 113.43C199.337 123.355 214.919 119.352 216.553 107.162C217.277 101.761 216.873 55.051 216.085 52.989C213.546 46.351 206.268 42.605 199.512 44.46ZM235.573 44.441C230.78 45.814 226.651 50.246 225.917 54.808C225.327 58.468 225.27 58.419 229.913 58.288L233.9 58.176L234.433 56.347C236.4 49.591 244.336 51.896 244.364 59.232C244.374 61.908 244.344 61.932 241.656 61.444C232.182 59.722 225.941 66.267 225.941 77.924C225.941 87.625 228.374 91.93 235.157 94.236C237.117 94.902 251.654 95.237 252.622 94.638C253.158 94.307 253.117 59.661 252.576 55.77C251.443 47.628 243.326 42.22 235.573 44.441ZM261.105 44.124C260.961 44.268 260.843 55.745 260.843 69.628V94.87L264.988 94.758L269.133 94.647L269.105 74.193C269.071 50.225 268.699 52.49 272.669 52.49C279.669 52.49 279.445 51.742 279.583 75.529L279.695 94.843H283.994H288.294V76.092C288.294 51.733 288.076 50.65 282.326 46.428C279.393 44.274 262.76 42.469 261.105 44.124ZM305.815 44.453C302.204 45.445 298.672 48.497 296.966 52.098L295.944 54.255L295.853 67.588C295.742 83.753 295.924 85.548 297.97 88.518C306.569 101.002 324.004 94.208 323.12 78.718L323 76.608L318.784 76.497L314.569 76.385V79.136C314.569 84.201 313.087 86.223 309.386 86.207C304.743 86.187 304.373 84.95 304.373 69.447C304.373 54.053 304.84 52.49 309.448 52.49C312.891 52.49 314.192 54.233 314.547 59.325L314.765 62.435L318.552 62.547C323.39 62.69 323.394 62.685 323.052 57.818C322.355 47.903 314.741 41.999 305.815 44.453ZM331.431 69.353V94.843H335.549H339.667V69.353V43.863H335.549H331.431V69.353ZM152.746 44.84C156.404 45.338 160.223 48.146 162.273 51.844L163.392 53.863V81.51V109.157L162.266 111.118C154.949 123.86 137.314 119.168 137.314 104.478C137.314 100.677 137.097 100.854 141.529 101.041L144.765 101.177V103.937C144.765 110.791 150.979 113.762 154.811 108.739L155.941 107.258V100.56V93.863L154.961 93.968C147.196 94.8 143.781 93.693 139.985 89.11C137.467 86.072 137.314 84.928 137.314 69.209C137.314 52.934 137.398 52.464 140.987 48.736C143.416 46.213 148.096 44.058 150.255 44.469C150.578 44.531 151.699 44.698 152.746 44.84ZM180.649 45.134C180.767 45.621 180.815 56.873 180.755 70.137L180.647 94.255L177.02 94.368L173.392 94.48V69.629C173.392 55.961 173.483 44.687 173.594 44.575C174.362 43.808 180.445 44.29 180.649 45.134ZM241.824 44.871C242.964 45.028 244.49 45.611 245.471 46.266C246.398 46.886 247.254 47.392 247.372 47.392C247.81 47.392 249.937 49.928 250.962 51.672L252.02 53.471V73.863V94.255L243.98 94.244C234.077 94.23 231.275 93.173 228.262 88.316C225.444 83.773 225.588 72.1 228.516 67.675C230.081 65.31 231.333 64.331 235.503 62.206C235.909 61.999 238.115 61.89 240.405 61.964L244.569 62.098L244.683 59.272C244.999 51.504 236.14 48.742 234.041 55.955L233.508 57.784L230.055 57.899C225.936 58.035 225.912 58.017 226.381 55.094C227.309 49.309 234.411 43.461 239.275 44.479C239.598 44.547 240.745 44.723 241.824 44.871ZM275.622 44.645C280.427 45.27 283.967 47.625 286.348 51.784L287.314 53.471L287.434 73.976L287.555 94.481L283.905 94.368L280.255 94.255L280.059 74.843C279.841 53.302 279.937 54.043 277.193 52.624C276.019 52.017 269.918 51.775 269.066 52.302C268.829 52.448 268.686 60.417 268.686 73.494V94.451H264.961H261.235V69.614C261.235 55.954 261.353 44.66 261.497 44.516C261.886 44.128 272.374 44.223 275.622 44.645ZM311.261 44.667C313.55 45.072 316.922 46.52 316.922 47.097C316.922 47.26 317.119 47.392 317.359 47.392C319.709 47.392 322.412 53.054 322.412 57.976V61.902H318.686H314.961V59.118C314.961 51.976 307.556 48.972 304.593 54.913C303.56 56.983 303.691 82.15 304.745 84.217C307.628 89.867 314.961 86.949 314.961 80.15C314.961 76.708 314.987 76.688 319.479 76.882L322.216 77V81.146C322.216 95.066 304.646 99.536 297.889 87.335L296.725 85.235L296.604 70.137C296.47 53.612 296.522 53.128 298.708 50.227C301.24 46.869 304.246 45.086 308.712 44.294C308.834 44.273 309.982 44.44 311.261 44.667ZM339.078 69.353V94.255L335.451 94.368L331.824 94.48V69.353V44.225L335.451 44.338L339.078 44.451V69.353ZM208.291 45.657C210.642 46.752 213.173 48.527 212.846 48.853C212.734 48.966 212.975 49.345 213.384 49.696C213.792 50.046 214.535 51.039 215.034 51.902L215.941 53.471L216.021 81.118L216.101 108.765L215.209 110.596C214.088 112.898 212.331 115.222 211.488 115.518C211.133 115.642 210.49 116.042 210.059 116.407C208.251 117.934 203.827 118.965 201.357 118.435C197.231 117.55 191.824 113.855 191.824 111.921C191.824 111.587 191.686 111.314 191.517 111.314C190.938 111.314 190.257 107.976 190.158 104.647L190.059 101.314H193.783H197.507L197.576 103.863C197.749 110.356 203.789 113.86 207.124 109.402C207.547 108.836 208.053 108.179 208.249 107.943C208.444 107.707 208.578 104.442 208.547 100.688L208.49 93.863L207.51 93.988C199.564 95.006 194.097 92.587 191.217 86.781C190.155 84.639 189.817 55.186 190.83 53.051C191.161 52.354 191.431 51.59 191.431 51.352C191.431 50.355 196.017 46.366 198.111 45.542C201.284 44.293 205.462 44.34 208.291 45.657ZM147.504 52.824C144.982 54.164 144.961 54.305 144.961 69.549C144.961 82.254 145.015 83.364 145.693 84.483C147.746 87.874 153.116 87.744 155.144 84.255C155.903 82.948 155.941 82.247 155.939 69.549L155.937 56.216L154.959 54.468C153.605 52.049 150.324 51.326 147.504 52.824ZM200.189 52.767C197.733 53.991 197.512 55.363 197.511 69.353C197.51 80.263 197.591 81.912 198.206 83.471C200.019 88.064 206.209 88.133 208.149 83.581C209.14 81.255 208.911 56.821 207.879 54.798C206.587 52.266 203.063 51.335 200.189 52.767ZM153.151 53.309C155.316 55.012 155.353 55.282 155.353 69.286C155.353 85.39 155.114 86.216 150.451 86.216C148.188 86.216 147.038 85.571 146.037 83.741C144.997 81.839 145.001 57.315 146.041 55.227C147.367 52.567 150.972 51.595 153.151 53.309ZM205.949 53.373C208.107 54.837 208.231 55.7 208.264 69.464C208.288 79.269 208.178 82.205 207.749 83.232C206.036 87.331 200.329 87.462 198.72 83.439C197.861 81.293 197.791 57.513 198.638 55.487C199.839 52.613 203.338 51.601 205.949 53.373ZM236.613 69.932C234.293 71.232 233.599 73.081 233.593 77.98C233.585 84.968 235.119 86.804 240.969 86.804H244.569L244.674 78.504L244.78 70.203L243.41 69.751C241.001 68.956 238.224 69.03 236.613 69.932ZM243.779 70.525C244.272 70.934 244.373 72.308 244.373 78.617V86.216H240.93C235.489 86.216 234.183 84.616 234.207 77.98C234.231 71.413 235.707 69.518 240.543 69.85C241.996 69.95 243.452 70.254 243.779 70.525ZM14.765 81.307C10.532 82.823 10.178 84.622 12.016 95.295C12.808 99.899 13.633 104.894 13.848 106.394C14.62 111.775 16.185 113.189 21.664 113.451L25.353 113.628L22.096 113.254C15.421 112.488 15.078 111.852 12.599 95.627C12.418 94.441 11.978 91.973 11.622 90.144C10.865 86.258 11.192 84.614 13.082 82.804L14.227 81.706L34.496 81.59C56.847 81.462 56.781 81.458 58.629 83.081C60.118 84.388 60.004 83.979 60.368 89.353L60.647 93.471H64.569H68.49L68.694 89.157C69.075 81.06 67.669 81.51 92.581 81.51C114.501 81.51 114.345 81.499 116.112 83.113C117.837 84.689 118.011 86.748 116.92 92.686C115.824 98.648 115.39 101.253 115.125 103.471C115.008 104.441 114.748 105.747 114.545 106.372C114.342 106.998 114.176 107.975 114.176 108.544C114.176 110.123 112.314 111.998 109.863 112.889C107.869 113.613 107.824 113.655 109.275 113.441C113.535 112.81 114.232 111.572 115.906 101.655C116.666 97.154 117.573 91.83 117.922 89.825C118.703 85.337 117.961 83.165 115.157 81.726C113.266 80.756 76.002 80.242 72.744 81.141C69.609 82.006 68.508 83.712 68.379 87.904C68.201 93.679 68.464 93.324 64.459 93.192L61.039 93.078L60.843 88.891C60.625 84.232 60.157 83.174 57.665 81.706C55.892 80.662 17.563 80.306 14.765 81.307ZM14.908 85.092C14.158 85.842 14.099 86.198 14.338 88.523C15.149 96.429 17.472 108.371 18.409 109.451C19.427 110.625 55.693 110.494 56.763 109.312C57.461 108.54 57.51 107.748 57.51 97.188V85.89L56.567 85.072C55.068 83.772 16.21 83.79 14.908 85.092ZM73.124 84.65C71.487 85.309 71.391 86.076 71.512 97.555C71.619 107.663 71.684 108.55 72.375 109.312C73.114 110.128 73.319 110.137 91.492 110.137C111.742 110.137 111.095 110.216 111.585 107.696C111.742 106.892 112.624 101.83 113.416 97.196C113.582 96.225 113.916 94.284 114.158 92.882C115.794 83.429 117.768 84.249 93.437 84.28C82.736 84.293 73.595 84.46 73.124 84.65ZM55.745 85.154L56.725 85.65L56.829 97.097L56.933 108.543L55.987 109.163C54.579 110.086 19.629 109.876 18.693 108.94C17.993 108.24 14.87 91.26 14.805 87.801C14.769 85.894 14.871 85.607 15.745 85.16C17.158 84.437 54.316 84.432 55.745 85.154ZM112.853 84.882C114.657 85.365 114.685 86.246 113.178 95.039C112.402 99.569 111.62 104.245 111.438 105.431C110.994 108.341 110.705 108.958 109.588 109.383C107.783 110.069 74.094 109.84 73.087 109.135C72.221 108.528 72.216 108.458 72.216 97.196C72.216 85.935 72.221 85.864 73.087 85.258C73.969 84.64 110.66 84.293 112.853 84.882ZM60.661 98.456C60.568 98.734 60.438 101.286 60.373 104.129C60.205 111.468 58.999 112.899 52.922 112.967C49.902 113.002 49.808 113.026 51.627 113.305C58.445 114.352 60.553 112.242 60.843 104.078L61.039 98.569H64.569H68.098L68.294 104.13C68.584 112.355 69.806 113.554 77.985 113.64C80.503 113.666 82.483 113.607 82.385 113.509C82.287 113.412 80.356 113.295 78.094 113.249C72.597 113.139 68.153 111.168 69.281 109.342C69.411 109.132 69.335 108.961 69.113 108.961C68.86 108.961 68.667 106.939 68.599 103.569L68.49 98.176L64.66 98.064C61.806 97.98 60.786 98.08 60.661 98.456Z" fill="#E58A46"/>
<path fill-rule="evenodd" clip-rule="evenodd" d="M89.182 0.614985C89.778 0.704985 90.66 0.701988 91.143 0.608988C91.625 0.515988 91.137 0.442986 90.059 0.444986C88.98 0.447986 88.586 0.524985 89.182 0.614985ZM85.035 2.39199C83.814 3.60099 83.809 3.61699 84.943 2.68899C85.6 2.15199 86.305 1.57799 86.51 1.41499C86.715 1.25099 86.756 1.11798 86.602 1.11798C86.448 1.11798 85.743 1.69099 85.035 2.39199ZM96.097 3.50598C96.543 4.27998 97.07 5.60299 97.267 6.44699C97.492 7.40299 97.642 7.64399 97.666 7.08499C97.713 6.02399 96.878 3.97999 95.949 2.88199C95.513 2.36599 95.563 2.57998 96.097 3.50598ZM82.251 6.14599C81.286 8.05099 79.872 12.826 80.182 13.136C80.273 13.228 80.643 12.13 81.003 10.697C81.363 9.26299 82.095 7.22698 82.63 6.17298C83.164 5.11798 83.513 4.25498 83.405 4.25498C83.298 4.25498 82.778 5.10599 82.251 6.14599ZM83.98 10.529C83.736 11.436 83.613 12.254 83.707 12.348C83.801 12.442 84.068 11.768 84.301 10.85C84.534 9.93299 84.657 9.11498 84.574 9.03198C84.492 8.94898 84.224 9.62299 83.98 10.529ZM83.052 14.094C82.915 14.776 82.825 15.797 82.85 16.363C82.875 16.929 83.054 16.439 83.247 15.273C83.624 13.001 83.464 12.033 83.052 14.094ZM79.804 17.196C79.804 19.029 79.871 19.779 79.954 18.863C80.036 17.946 80.036 16.446 79.954 15.529C79.871 14.613 79.804 15.363 79.804 17.196ZM29.516 17.944C29.184 18.154 29.717 18.208 30.888 18.082C31.942 17.969 32.877 17.811 32.967 17.732C33.322 17.42 30.024 17.622 29.516 17.944ZM35.228 19.553C35.914 20.306 36.927 21.716 37.478 22.686C38.03 23.657 38.483 24.265 38.485 24.038C38.493 23.345 36.318 20.198 35.114 19.161C34.052 18.246 34.06 18.271 35.228 19.553ZM94.841 20.534C94.483 21.287 94.27 21.902 94.369 21.902C94.637 21.902 95.828 19.501 95.648 19.321C95.563 19.236 95.2 19.782 94.841 20.534ZM26.322 20.746C26.085 21.189 25.947 21.818 26.014 22.143C26.082 22.469 26.332 22.107 26.569 21.339C27.054 19.768 26.963 19.549 26.322 20.746ZM90.646 21.608C90.068 22.397 89.974 22.67 90.397 22.326C91.04 21.804 92.013 20.333 91.715 20.333C91.64 20.333 91.159 20.907 90.646 21.608ZM80.065 20.843C80.04 22.05 82.99 25.431 84.068 25.431C84.3 25.431 83.892 25.029 83.162 24.537C82.432 24.046 81.439 22.943 80.954 22.086C80.469 21.23 80.069 20.671 80.065 20.843ZM83.196 20.984C83.196 21.198 83.681 21.801 84.275 22.324L85.353 23.275L84.373 22.098C83.833 21.451 83.348 20.848 83.294 20.758C83.24 20.668 83.196 20.77 83.196 20.984ZM27.993 23.078C27.993 23.833 28.074 24.142 28.172 23.765C28.271 23.387 28.271 22.77 28.172 22.392C28.074 22.015 27.993 22.324 27.993 23.078ZM38.504 24.7C38.496 24.837 38.748 25.543 39.063 26.269C39.378 26.994 39.637 27.324 39.637 27C39.639 26.435 38.533 24.19 38.504 24.7ZM86.829 26.105C87.425 26.195 88.307 26.193 88.79 26.1C89.272 26.006 88.784 25.933 87.706 25.936C86.627 25.939 86.233 26.015 86.829 26.105ZM27.145 29.157C27.145 29.373 27.398 29.99 27.706 30.529C28.014 31.069 28.266 31.333 28.266 31.118C28.266 30.902 28.014 30.284 27.706 29.745C27.398 29.206 27.145 28.941 27.145 29.157ZM29.863 29.503C29.863 29.924 31.03 32.098 31.255 32.098C31.363 32.098 31.16 31.525 30.803 30.824C30.075 29.392 29.863 29.094 29.863 29.503ZM37.797 30.922C37.797 31.676 37.878 31.985 37.976 31.608C38.075 31.23 38.075 30.613 37.976 30.235C37.878 29.858 37.797 30.167 37.797 30.922ZM28.958 32.921C29.78 34.33 32.025 36.412 32.72 36.41C32.982 36.409 32.63 36.063 31.937 35.641C31.245 35.219 30.207 34.161 29.63 33.29C28.395 31.424 27.939 31.173 28.958 32.921ZM39.667 32.403C39.667 33.396 38.6 34.788 37.17 35.66C36.494 36.072 36.183 36.409 36.478 36.41C37.325 36.413 40.059 33.455 40.059 32.536C40.059 32.08 39.971 31.706 39.863 31.706C39.755 31.706 39.667 32.02 39.667 32.403ZM32.216 33.374C33.888 35.179 37.706 34.829 37.706 32.872C37.706 32.681 37.253 32.979 36.699 33.532C35.509 34.723 33.865 34.593 32.235 33.181L31.235 32.316L32.216 33.374ZM51.529 32.771C52.123 32.861 53.093 32.861 53.686 32.771C54.279 32.681 53.794 32.608 52.608 32.608C51.422 32.608 50.936 32.681 51.529 32.771ZM72.216 33.096C69.714 33.793 67.514 35.151 65.728 37.101L64.466 38.478L63.068 36.931C61.387 35.07 58.48 33.423 56.333 33.116C54.812 32.898 54.82 32.907 56.617 33.432C59.267 34.205 61.756 35.77 63.164 37.547L64.382 39.085L66.636 36.831C72.217 31.25 81.367 31.657 86.995 37.736C88.208 39.046 89.007 39.756 88.771 39.315C86.126 34.372 78.252 31.415 72.216 33.096ZM47.467 33.459C44.497 34.552 41.814 36.739 40.234 39.353C39.37 40.782 39.915 40.269 41.367 38.285C42.771 36.367 45.537 34.497 48.258 33.626C49.464 33.24 50.098 32.927 49.667 32.931C49.235 32.935 48.245 33.172 47.467 33.459ZM33.882 36.682C34.26 36.781 34.877 36.781 35.255 36.682C35.632 36.583 35.324 36.503 34.569 36.503C33.814 36.503 33.505 36.583 33.882 36.682ZM51.927 38.262C52.523 38.352 53.405 38.35 53.888 38.256C54.37 38.163 53.882 38.09 52.804 38.093C51.725 38.095 51.331 38.172 51.927 38.262ZM75.451 38.261C76.044 38.351 77.015 38.351 77.608 38.261C78.201 38.171 77.716 38.098 76.529 38.098C75.343 38.098 74.858 38.171 75.451 38.261ZM80.647 39.22C83.098 40.57 84.981 43.164 85.532 45.952C85.814 47.381 85.861 47.436 85.898 46.391C85.989 43.853 82.199 38.721 80.276 38.777C80.049 38.783 80.216 38.983 80.647 39.22ZM58.338 40.091C61.215 42.445 61.431 43.706 61.431 58.09C61.431 65.637 61.563 70.333 61.75 69.463C62.526 65.852 61.877 45.377 60.921 43.289C59.93 41.126 59.087 40.061 57.906 39.481C57.473 39.268 57.667 39.542 58.338 40.091ZM45.669 40.824C44.436 42.183 43.455 43.86 43.731 44.136C43.868 44.273 43.98 44.193 43.98 43.958C43.98 43.723 44.597 42.723 45.35 41.736C46.822 39.808 46.967 39.394 45.669 40.824ZM38.098 41.118L36.725 41.407L37.977 41.458C38.665 41.487 39.337 41.333 39.471 41.118C39.604 40.902 39.658 40.749 39.592 40.777C39.525 40.806 38.853 40.959 38.098 41.118ZM90.157 41.394C90.642 41.488 91.436 41.488 91.922 41.394C92.407 41.301 92.01 41.224 91.039 41.224C90.069 41.224 89.672 41.301 90.157 41.394ZM97.739 42.834C98.14 43.197 101.235 44.643 101.235 44.467C101.235 44.244 98.276 42.686 97.852 42.686C97.7 42.686 97.649 42.753 97.739 42.834ZM172.698 69.428C172.649 83.381 172.74 94.879 172.902 94.979C173.169 95.144 173.165 76.424 172.894 53.078C172.836 48.118 172.748 55.475 172.698 69.428ZM339.851 69.353C339.851 83.265 339.901 88.956 339.961 82C340.021 75.044 340.021 63.662 339.961 56.706C339.901 49.75 339.851 55.441 339.851 69.353ZM42.977 46.43C42.44 50.008 44.058 54.441 46.509 56.106L47.706 56.919L46.467 55.74C44.207 53.589 43.4 51.52 43.402 47.882C43.404 44.164 43.346 43.966 42.977 46.43ZM24.161 47.49C23.142 48.623 22.036 50.119 21.703 50.816C21.307 51.645 20.648 52.231 19.799 52.511C19.085 52.747 18.408 53.09 18.295 53.273C18.181 53.457 18.795 53.33 19.659 52.991C20.796 52.544 21.516 51.883 22.272 50.594C22.846 49.615 24.017 48.053 24.874 47.123C25.732 46.193 26.339 45.431 26.224 45.431C26.108 45.431 25.18 46.358 24.161 47.49ZM260.635 69.745C260.635 83.225 260.685 88.74 260.745 82C260.805 75.26 260.805 64.23 260.745 57.49C260.685 50.75 260.635 56.265 260.635 69.745ZM104.99 47.98C107.186 50.79 107.347 50.963 106.812 49.931C106.585 49.494 105.669 48.347 104.776 47.382C103.19 45.669 103.195 45.683 104.99 47.98ZM36.803 46.882C37.517 47.02 37.69 47.365 37.811 48.887L37.957 50.725L38.027 48.667C38.096 46.653 38.074 46.609 37.02 46.661C36.126 46.705 36.089 46.743 36.803 46.882ZM67.291 57.98C67.291 64.343 67.345 66.946 67.411 63.765C67.477 60.583 67.477 55.377 67.411 52.196C67.345 49.015 67.291 51.618 67.291 57.98ZM31.039 48.609C29.367 49.61 27.199 51.623 26.645 52.686C26.421 53.118 26.897 52.712 27.704 51.785C28.511 50.858 30.077 49.581 31.184 48.946C32.291 48.311 33.02 47.791 32.804 47.789C32.588 47.788 31.794 48.157 31.039 48.609ZM97.975 48.958C100.238 50.256 101.731 51.98 103.196 54.988C104.008 56.654 104.363 57.008 105.26 57.048C106.286 57.093 106.291 57.086 105.341 56.922C104.577 56.79 104.124 56.265 103.437 54.717C102.042 51.575 98.155 47.772 96.355 47.788C96.127 47.79 96.857 48.317 97.975 48.958ZM85.483 49.941C85.346 50.804 85.126 51.863 84.994 52.294C84.861 52.725 85.03 52.483 85.368 51.755C85.707 51.026 85.927 49.968 85.858 49.402C85.756 48.572 85.684 48.676 85.483 49.941ZM109.503 52.615C110.127 53.093 112.608 54.388 112.608 54.236C112.608 53.974 110.14 52.493 109.699 52.492C109.502 52.491 109.413 52.547 109.503 52.615ZM82.938 55.05C81.219 56.843 78.108 58.205 77.805 57.298C76.684 53.935 72.495 53.137 72.639 56.314C72.658 56.746 72.816 56.6 73.064 55.921C73.868 53.719 76.078 54.128 76.989 56.646C77.82 58.944 82.682 57.218 84.395 54.017C84.936 53.006 84.814 53.092 82.938 55.05ZM15.902 54.79C15.061 55.408 13.931 56.418 13.392 57.034C12.589 57.952 12.695 57.909 13.98 56.792C14.843 56.043 16.078 55.039 16.725 54.561C17.373 54.083 17.796 53.686 17.667 53.679C17.537 53.672 16.743 54.172 15.902 54.79ZM38.886 54.276C38.875 55.546 42.77 60.307 44.506 61.144C45.338 61.546 45.339 61.542 44.569 60.94C42.683 59.467 41.063 57.645 40.016 55.824C39.397 54.745 38.888 54.049 38.886 54.276ZM269.26 73.471C269.26 84.255 269.311 88.61 269.372 83.149C269.434 77.688 269.434 68.865 269.372 63.541C269.311 58.218 269.26 62.686 269.26 73.471ZM25.221 55.448C24.564 56.89 24.689 57.198 25.399 55.887C25.731 55.275 25.929 54.7 25.839 54.611C25.75 54.521 25.471 54.898 25.221 55.448ZM53 54.886C52.516 55.235 52.543 55.267 53.153 55.067C54.236 54.714 55.354 55.182 55.746 56.152C56.003 56.791 56.094 56.836 56.112 56.336C56.16 55.053 54.101 54.094 53 54.886ZM114.373 56.02C115.215 56.882 115.993 57.588 116.1 57.588C116.208 57.588 115.607 56.882 114.765 56.02C113.922 55.157 113.145 54.451 113.037 54.451C112.929 54.451 113.53 55.157 114.373 56.02ZM88.668 56.446C88.427 56.897 87.59 58 86.808 58.897L85.386 60.529L86.748 59.267C88.032 58.077 89.757 55.627 89.31 55.627C89.198 55.627 88.909 55.996 88.668 56.446ZM48.686 57.392C49.225 57.7 49.931 57.952 50.255 57.951C50.578 57.95 50.249 57.692 49.524 57.377C47.854 56.652 47.406 56.66 48.686 57.392ZM244.079 58.176C244.084 59.039 244.164 59.346 244.258 58.858C244.352 58.37 244.348 57.664 244.25 57.29C244.152 56.915 244.075 57.314 244.079 58.176ZM20.255 58.337C19.176 58.96 17.765 60.061 17.118 60.784L15.943 62.098L17.315 60.842C18.069 60.152 19.657 59.052 20.843 58.398C22.029 57.745 22.824 57.209 22.608 57.207C22.392 57.205 21.333 57.713 20.255 58.337ZM145.331 69.353C145.331 75.931 145.385 78.623 145.45 75.333C145.516 72.044 145.516 66.662 145.45 63.373C145.385 60.083 145.331 62.775 145.331 69.353ZM108.882 58.228C109.098 58.416 109.98 59.188 110.842 59.942L112.41 61.314L111.234 60.005C110.588 59.286 109.706 58.514 109.275 58.291C108.843 58.067 108.667 58.039 108.882 58.228ZM55.222 58.634C54.871 58.985 54.9 61.591 55.261 62.159C55.419 62.408 55.549 61.659 55.549 60.493C55.549 59.328 55.534 58.374 55.516 58.374C55.498 58.373 55.366 58.49 55.222 58.634ZM136.701 69.353C136.701 75.284 136.756 77.711 136.823 74.745C136.889 71.779 136.889 66.926 136.823 63.961C136.756 60.995 136.701 63.422 136.701 69.353ZM118.098 61.545C118.098 61.636 118.286 62.328 118.516 63.081C118.745 63.834 119.074 65.686 119.247 67.196C119.539 69.756 119.563 69.809 119.609 67.98C119.654 66.171 118.833 62.115 118.319 61.6C118.197 61.478 118.098 61.454 118.098 61.545ZM26.485 66.424C26.128 66.97 25.947 67.529 26.084 67.666C26.221 67.803 26.333 67.709 26.333 67.458C26.333 67.206 26.686 66.647 27.118 66.216C27.549 65.784 27.73 65.431 27.519 65.431C27.308 65.431 26.843 65.878 26.485 66.424ZM75.765 65.996C75.507 66.307 74.912 66.636 74.442 66.727C73.612 66.888 73.611 66.895 74.41 66.947C74.862 66.976 75.551 66.647 75.941 66.216C76.332 65.784 76.557 65.431 76.442 65.431C76.327 65.431 76.022 65.685 75.765 65.996ZM36.428 66.492C36.911 66.585 37.573 67.042 37.899 67.506C38.224 67.971 38.49 68.163 38.49 67.932C38.49 67.254 37.118 66.211 36.302 66.269C35.691 66.312 35.714 66.354 36.428 66.492ZM26.333 68.612C26.333 68.786 26.951 69.42 27.706 70.022C28.461 70.625 29.092 71.382 29.109 71.706C29.132 72.14 29.194 72.16 29.346 71.781C29.459 71.499 28.827 70.599 27.942 69.782C27.057 68.965 26.333 68.439 26.333 68.612ZM37.833 69.688C37.595 70.068 36.675 70.597 35.789 70.862C34.902 71.128 34.176 71.504 34.176 71.698C34.176 71.893 34.662 71.798 35.255 71.489C35.848 71.18 36.527 70.925 36.763 70.924C37.268 70.921 38.697 69.429 38.44 69.172C38.344 69.076 38.07 69.308 37.833 69.688ZM121.249 71.902C122.162 72.98 123.415 74.922 124.033 76.216C124.651 77.51 125.156 78.342 125.157 78.065C125.157 77.007 123.177 73.726 121.421 71.874L119.589 69.941L121.249 71.902ZM8.07298 72.196L6.92198 73.471L8.19598 72.319C8.89698 71.685 9.47098 71.112 9.47098 71.044C9.47098 70.741 9.14698 71.008 8.07298 72.196ZM14.976 71.727C14.928 73.629 19.646 78.373 21.585 78.373C21.909 78.373 21.252 77.913 20.125 77.352C17.989 76.287 16.576 74.771 15.579 72.473C15.256 71.727 14.985 71.392 14.976 71.727ZM60.029 74.41C59.474 76.05 58.888 77.745 58.728 78.176C58.547 78.663 58.664 78.589 59.037 77.98C59.787 76.757 61.345 72.213 61.17 71.762C61.098 71.578 60.585 72.77 60.029 74.41ZM6.40098 74.173C5.74898 74.96 3.98698 78.892 3.99398 79.549C3.99698 79.873 4.41698 79.12 4.92798 77.877C5.43998 76.634 6.14498 75.178 6.49698 74.642C7.17198 73.612 7.11198 73.317 6.40098 74.173ZM96.229 74.855C95.525 75.495 95.097 76.02 95.278 76.02C95.46 76.02 96.023 75.578 96.529 75.039C97.518 73.987 98.827 73.768 99.588 74.529C100.395 75.336 100.107 76.816 98.913 78.011C98.282 78.641 97.913 79.157 98.093 79.157C98.273 79.157 98.877 78.614 99.436 77.95C101.962 74.948 99.131 72.215 96.229 74.855ZM88.723 75.591C88.271 76.043 87.918 76.809 87.937 77.294C87.965 77.985 88.051 77.906 88.334 76.927C88.784 75.372 89.716 75.05 91.552 75.817C92.334 76.144 93.378 76.4 93.87 76.385C94.419 76.369 94.083 76.156 93 75.834C92.029 75.546 90.855 75.189 90.389 75.04C89.797 74.851 89.297 75.017 88.723 75.591ZM69.506 76.216C69.506 76.431 69.931 77.402 70.451 78.373C70.971 79.343 71.396 79.961 71.396 79.745C71.396 79.529 70.971 78.559 70.451 77.588C69.931 76.618 69.506 76 69.506 76.216ZM225.64 77.588C225.64 78.343 225.721 78.652 225.819 78.275C225.918 77.897 225.918 77.279 225.819 76.902C225.721 76.525 225.64 76.833 225.64 77.588ZM118.086 77.815C117.865 78.397 117.777 78.967 117.891 79.081C118.005 79.194 118.098 79.094 118.098 78.858C118.098 78.622 118.364 78.163 118.689 77.837C119.057 77.47 119.131 77.153 118.885 77.001C118.667 76.867 118.308 77.233 118.086 77.815ZM29.471 78.224C29.471 78.777 29.001 78.838 25.883 78.689C23.91 78.595 22.631 78.649 23.04 78.81C24.861 79.524 29.863 79.204 29.863 78.373C29.863 77.941 29.775 77.588 29.667 77.588C29.559 77.588 29.471 77.875 29.471 78.224ZM119.88 79.553C120.35 80.85 120.467 82.14 120.325 84.451C120.184 86.745 120.221 87.167 120.465 86.02C121.117 82.948 120.726 79.417 119.597 78.18C119.402 77.967 119.53 78.584 119.88 79.553ZM3.67898 81.51C3.67898 82.265 3.75998 82.574 3.85898 82.196C3.95698 81.819 3.95698 81.201 3.85898 80.824C3.75998 80.446 3.67898 80.755 3.67898 81.51ZM125.678 82.882C125.679 84.392 125.75 84.962 125.835 84.148C125.92 83.334 125.919 82.099 125.832 81.403C125.745 80.707 125.676 81.373 125.678 82.882ZM60.884 82.418C62.095 84.147 62.224 84.612 62.408 87.908L62.608 91.51H64.569C66.255 91.51 66.535 91.4 66.568 90.725C66.597 90.128 66.567 90.105 66.443 90.627C66.317 91.153 65.872 91.314 64.541 91.314H62.804V88.3C62.804 85.064 61.991 82.697 60.388 81.268C59.892 80.825 60.091 81.287 60.884 82.418ZM66.578 84.466C66.443 84.817 66.36 86.015 66.393 87.13L66.453 89.157L66.713 86.608C66.992 83.88 66.965 83.457 66.578 84.466ZM3.67898 86.216C3.67898 86.971 3.75998 87.279 3.85898 86.902C3.95698 86.525 3.95698 85.907 3.85898 85.529C3.75998 85.152 3.67898 85.461 3.67898 86.216ZM8.78498 86.412C8.78998 87.275 8.86998 87.581 8.96398 87.093C9.05698 86.606 9.05398 85.9 8.95598 85.525C8.85798 85.15 8.78098 85.549 8.78498 86.412ZM124.983 87.218C124.835 88.005 124.793 88.727 124.888 88.823C124.984 88.919 125.184 88.353 125.331 87.566C125.479 86.779 125.521 86.057 125.425 85.961C125.329 85.865 125.13 86.431 124.983 87.218ZM37.314 86.432C37.314 86.768 39.951 87.788 40.733 87.754C41.117 87.738 40.725 87.491 39.863 87.207L38.294 86.69L41.333 86.649C44.514 86.606 45.312 87.098 43.098 87.738C42.27 87.977 42.102 88.118 42.619 88.141C43.602 88.185 45.251 87.078 44.944 86.581C44.708 86.199 37.314 86.055 37.314 86.432ZM52.391 87.079L51.627 87.98L52.443 87.294C53.342 86.537 54.784 86.382 55.095 87.01C55.204 87.231 55.25 87.187 55.195 86.912C55.016 86.007 53.209 86.115 52.391 87.079ZM91.856 86.363C91.946 86.444 94.049 86.603 96.529 86.717C99.639 86.86 100.309 86.827 98.686 86.612C96.196 86.283 91.58 86.114 91.856 86.363ZM104.863 86.506C106.319 86.582 108.701 86.582 110.157 86.506C111.613 86.431 110.422 86.369 107.51 86.369C104.598 86.369 103.407 86.431 104.863 86.506ZM77.902 87.951C78.765 88.739 79.824 89.575 80.255 89.808C81.29 90.369 80.689 89.815 78.294 88.003L76.333 86.518L77.902 87.951ZM73.504 88.765C73.507 89.843 73.583 90.238 73.674 89.642C73.764 89.046 73.761 88.163 73.668 87.681C73.575 87.199 73.501 87.686 73.504 88.765ZM2.91898 90.684C0.119981 96.886 0.0929806 101.679 2.82498 107.161C3.62598 108.766 3.97998 110.061 3.97998 111.376C3.97998 112.42 4.11898 113.275 4.28898 113.275C4.92398 113.275 4.07398 108.691 3.08698 106.787C0.51598 101.836 0.612979 95.994 3.35498 90.596C3.93898 89.447 4.36298 88.37 4.29698 88.202C4.23098 88.035 3.61098 89.152 2.91898 90.684ZM109.471 89.007C106.494 90.967 102.81 91.904 98.138 91.89C94.338 91.879 93.985 91.945 92.942 92.86C91.473 94.149 91.52 94.302 93.48 94.616C94.391 94.761 95.494 95.181 95.931 95.548C96.722 96.213 96.722 96.212 95.973 95.327C95.54 94.817 94.568 94.335 93.683 94.193L92.146 93.947L93.259 93.045C94.262 92.232 94.649 92.165 97.156 92.369C101.624 92.732 109.246 90.533 111.049 88.361C111.693 87.585 111.528 87.653 109.471 89.007ZM88.706 89.383C87.746 90.014 87.131 90.529 87.34 90.529C87.768 90.529 90.647 88.64 90.647 88.358C90.647 88.107 90.661 88.1 88.706 89.383ZM126.02 91.109C126.489 92.075 126.941 92.798 127.023 92.716C127.2 92.538 125.616 89.353 125.35 89.353C125.249 89.353 125.551 90.143 126.02 91.109ZM81.235 90.313C81.235 90.421 81.765 90.783 82.412 91.118C83.059 91.452 83.588 91.638 83.588 91.53C83.588 91.422 83.059 91.06 82.412 90.725C81.765 90.391 81.235 90.205 81.235 90.313ZM119.673 90.213C119.665 90.568 121.263 93.275 121.48 93.275C121.572 93.275 121.385 92.789 121.064 92.196C120.264 90.72 119.68 89.887 119.673 90.213ZM8.30998 91.683C7.36998 93.004 6.32498 95.364 6.35198 96.105C6.36198 96.382 6.69198 95.785 7.08498 94.779C7.47898 93.773 8.18798 92.405 8.66198 91.74C9.13598 91.074 9.43598 90.529 9.32798 90.529C9.21998 90.529 8.76198 91.049 8.30998 91.683ZM46.176 91.177C40.733 94.125 30.605 95.183 20.451 93.865C19.123 93.693 19.129 93.701 20.647 94.131C23.264 94.873 36.66 94.774 39.471 93.993C42.708 93.093 46.034 91.819 46.945 91.13C47.934 90.382 47.607 90.402 46.176 91.177ZM84.765 90.922C83.977 91.174 83.938 91.238 84.569 91.247C85 91.253 85.706 91.107 86.137 90.922C87.137 90.492 86.106 90.492 84.765 90.922ZM54.345 92.129C53.939 92.577 52.588 93.572 51.343 94.341C48.732 95.953 48.302 96.504 50.702 95.162C52.272 94.285 55.79 91.363 55.316 91.33C55.187 91.321 54.75 91.68 54.345 92.129ZM75.604 92.905C77.488 94.478 81.96 97.2 82.646 97.192C82.84 97.189 81.853 96.554 80.451 95.781C79.049 95.008 77.076 93.686 76.067 92.844C75.058 92.003 74.112 91.314 73.965 91.314C73.819 91.314 74.556 92.03 75.604 92.905ZM265.157 94.843L261.039 95.082L265.036 95.159C267.364 95.203 269.133 95.072 269.275 94.843C269.408 94.627 269.462 94.486 269.396 94.528C269.329 94.57 267.422 94.712 265.157 94.843ZM175.451 95.131C176.475 95.212 178.152 95.212 179.176 95.131C180.201 95.051 179.363 94.985 177.314 94.985C175.265 94.985 174.426 95.051 175.451 95.131ZM202.51 95.113C202.887 95.212 203.505 95.212 203.882 95.113C204.26 95.015 203.951 94.934 203.196 94.934C202.441 94.934 202.132 95.015 202.51 95.113ZM242.118 95.134C243.574 95.209 245.956 95.209 247.412 95.134C248.868 95.058 247.676 94.997 244.765 94.997C241.853 94.997 240.662 95.058 242.118 95.134ZM250.745 95.113C251.123 95.212 251.74 95.212 252.118 95.113C252.495 95.015 252.186 94.934 251.431 94.934C250.676 94.934 250.368 95.015 250.745 95.113ZM281.922 95.132C283.054 95.211 284.907 95.211 286.039 95.132C287.172 95.053 286.245 94.988 283.98 94.988C281.716 94.988 280.789 95.053 281.922 95.132ZM333.505 95.133C334.753 95.211 336.694 95.211 337.818 95.132C338.943 95.053 337.922 94.989 335.549 94.99C333.176 94.991 332.256 95.055 333.505 95.133ZM122.596 98.595C122.612 102.869 121.407 105.468 118.336 107.787C117.127 108.7 116.137 109.587 116.137 109.757C116.137 110.144 118.172 108.485 120.278 106.38C122.578 104.082 123.736 99.606 122.851 96.438C122.701 95.901 122.59 96.845 122.596 98.595ZM46.725 96.804C45.971 97.217 45.529 97.555 45.745 97.555C45.961 97.555 46.755 97.217 47.51 96.804C48.265 96.391 48.706 96.052 48.49 96.052C48.275 96.052 47.48 96.391 46.725 96.804ZM6.05898 98.765C6.05898 99.951 6.13198 100.436 6.22198 99.843C6.31198 99.25 6.31198 98.279 6.22198 97.686C6.13198 97.093 6.05898 97.578 6.05898 98.765ZM128.023 98.961C128.026 100.255 128.099 100.737 128.186 100.032C128.273 99.327 128.272 98.269 128.182 97.679C128.093 97.09 128.021 97.667 128.023 98.961ZM22.902 99.819C23.279 99.918 23.897 99.918 24.275 99.819C24.652 99.721 24.343 99.64 23.588 99.64C22.833 99.64 22.525 99.721 22.902 99.819ZM29.772 100.225C30.477 100.313 31.535 100.311 32.125 100.221C32.714 100.132 32.137 100.06 30.843 100.063C29.549 100.065 29.067 100.138 29.772 100.225ZM62.621 100.41C62.525 100.691 62.354 102.951 62.24 105.431C62.127 107.912 61.987 110.735 61.929 111.706L61.824 113.471H64.569H67.314L67.35 112.294C67.385 111.184 67.378 111.179 67.227 112.196C67.072 113.246 67.001 113.275 64.503 113.275H61.937L62.199 111.608C62.343 110.691 62.552 107.779 62.664 105.137L62.868 100.333H64.572C65.754 100.333 66.332 100.516 66.461 100.929C66.59 101.347 66.627 101.318 66.584 100.831C66.506 99.953 62.908 99.571 62.621 100.41ZM136.691 100.87C136.578 101.166 136.542 102.357 136.612 103.517L136.739 105.627L136.928 102.98C137.119 100.314 137.07 99.882 136.691 100.87ZM144.453 100.577C144.966 100.73 145.155 101.339 145.27 103.202L145.419 105.627L145.386 103.082C145.357 100.838 145.26 100.528 144.569 100.458C143.992 100.399 143.962 100.431 144.453 100.577ZM66.398 105.627C66.369 107.784 66.475 109.753 66.633 110.002C66.792 110.251 66.871 108.928 66.81 107.061C66.639 101.894 66.457 101.259 66.398 105.627ZM68.023 104.451C68.026 105.745 68.099 106.227 68.186 105.522C68.273 104.818 68.272 103.759 68.182 103.169C68.093 102.58 68.021 103.157 68.023 104.451ZM7.11798 104.146C7.11798 104.374 7.48098 104.977 7.92498 105.486L8.73298 106.412L8.04398 105.235C7.13698 103.687 7.11798 103.664 7.11798 104.146ZM125.634 107.511C125.052 108.61 124.763 109.841 124.764 111.216L124.765 113.275H119.644C115.872 113.275 114.596 113.155 114.802 112.822C114.976 112.541 114.91 112.475 114.629 112.649C113.326 113.454 114.533 113.682 119.569 113.58L124.961 113.471L125.157 111.118C125.265 109.824 125.675 108.175 126.068 107.454C126.461 106.733 126.721 106.08 126.645 106.004C126.568 105.928 126.114 106.606 125.634 107.511ZM98.384 107.036C96.893 107.904 99.854 108.682 101.803 107.934C102.466 107.68 101.579 106.651 100.67 106.62C100.467 106.613 100.644 106.867 101.062 107.184C101.764 107.715 101.671 107.759 99.863 107.758C97.967 107.757 97.934 107.738 98.882 107.196C99.422 106.888 99.686 106.635 99.471 106.634C99.255 106.633 98.766 106.814 98.384 107.036ZM26.998 107.251C26.86 107.389 26.841 107.653 26.955 107.839C27.211 108.253 31.705 108.292 31.96 107.882C32.061 107.721 30.992 107.648 29.585 107.722C27.81 107.814 27.108 107.724 27.292 107.428C27.58 106.961 27.398 106.851 26.998 107.251ZM10.647 108.691C10.647 108.788 11.295 109.362 12.087 109.966C12.879 110.57 13.403 110.864 13.251 110.619C12.941 110.117 10.647 108.419 10.647 108.691ZM30.549 109.647C35.132 109.709 42.632 109.709 47.216 109.647C51.799 109.584 48.049 109.533 38.882 109.533C29.716 109.533 25.966 109.584 30.549 109.647ZM82.34 109.647C87.154 109.709 94.919 109.709 99.595 109.647C104.272 109.584 100.333 109.533 90.843 109.533C81.353 109.533 77.527 109.584 82.34 109.647ZM311.947 112.784C311.535 113.162 311.383 113.354 311.609 113.212C311.835 113.07 312.637 112.777 313.392 112.561C314.618 112.211 314.654 112.165 313.73 112.133C313.16 112.114 312.358 112.407 311.947 112.784ZM315.549 113.275C315.939 113.706 316.326 114.059 316.408 114.059C316.49 114.059 316.368 113.706 316.137 113.275C315.906 112.843 315.52 112.49 315.278 112.49C315.037 112.49 315.159 112.843 315.549 113.275ZM41.137 113.558C41.838 113.645 42.985 113.645 43.686 113.558C44.387 113.471 43.814 113.4 42.412 113.4C41.01 113.4 40.436 113.471 41.137 113.558ZM49.961 113.555C50.554 113.645 51.525 113.645 52.118 113.555C52.711 113.466 52.225 113.392 51.039 113.392C49.853 113.392 49.368 113.466 49.961 113.555ZM82.902 113.545C83.279 113.643 83.897 113.643 84.275 113.545C84.652 113.446 84.343 113.365 83.588 113.365C82.833 113.365 82.525 113.446 82.902 113.545ZM101.137 113.558C101.838 113.645 102.985 113.645 103.686 113.558C104.387 113.471 103.814 113.4 102.412 113.4C101.01 113.4 100.436 113.471 101.137 113.558ZM212.387 115.333L211.235 116.608L212.51 115.456C213.211 114.823 213.784 114.249 213.784 114.182C213.784 113.879 213.461 114.145 212.387 115.333ZM316.529 115.54C316.529 116.139 316.251 117.066 315.91 117.599L315.29 118.569L316.106 117.643C316.814 116.84 317.277 114.451 316.725 114.451C316.618 114.451 316.529 114.941 316.529 115.54ZM4.07598 152.196L4.17598 179.745L7.11798 179.77L10.059 179.795L7.21598 179.655L4.37298 179.516V152.288V125.06L10.157 124.94L15.941 124.82L9.95798 124.734L3.97498 124.647L4.07598 152.196ZM38.588 124.928C39.181 125.018 40.152 125.018 40.745 124.928C41.338 124.838 40.853 124.765 39.667 124.765C38.48 124.765 37.995 124.838 38.588 124.928ZM64.471 124.928C65.064 125.018 66.034 125.018 66.627 124.928C67.221 124.838 66.735 124.765 65.549 124.765C64.363 124.765 63.877 124.838 64.471 124.928ZM89.961 124.928C90.554 125.018 91.525 125.018 92.118 124.928C92.711 124.838 92.225 124.765 91.039 124.765C89.853 124.765 89.368 124.838 89.961 124.928ZM116.235 124.928C116.828 125.018 117.799 125.018 118.392 124.928C118.985 124.838 118.5 124.765 117.314 124.765C116.127 124.765 115.642 124.838 116.235 124.928ZM142.118 124.928C142.711 125.018 143.681 125.018 144.275 124.928C144.868 124.838 144.382 124.765 143.196 124.765C142.01 124.765 141.525 124.838 142.118 124.928ZM158.977 143.373L159.078 162.098H162.216H165.353L165.456 146.725L165.558 131.353L167.808 131.211L170.059 131.07L167.608 130.996L165.157 130.922V146.412V161.902H162.216H159.275V143.476V125.051L170.941 124.941L182.608 124.831L170.741 124.739L158.875 124.647L158.977 143.373ZM205.066 124.931C205.771 125.019 206.83 125.017 207.419 124.927C208.008 124.838 207.431 124.766 206.137 124.769C204.843 124.771 204.361 124.844 205.066 124.931ZM222.804 124.889C225.111 125.182 228.295 125.212 228.295 124.941C228.294 124.779 226.838 124.673 225.059 124.706C223.279 124.738 222.265 124.821 222.804 124.889ZM234.27 139.255L234.363 153.863L234.47 139.451L234.578 125.039H237.515H240.451V139.567V154.094L241.414 155.057C243.036 156.68 246.725 155.95 246.725 154.006C246.725 153.761 246.36 154.026 245.913 154.594C244.894 155.889 242.795 156.011 241.627 154.843C240.871 154.087 240.843 153.536 240.843 139.353V124.647H237.51H234.176L234.27 139.255ZM246.818 139.059L246.911 153.471L247.019 139.271L247.127 125.072L250.162 124.938L253.196 124.805L249.961 124.726L246.725 124.647L246.818 139.059ZM268 124.928C268.593 125.018 269.564 125.018 270.157 124.928C270.75 124.838 270.265 124.765 269.078 124.765C267.892 124.765 267.407 124.838 268 124.928ZM284.765 143.471V162.294L288 162.215L291.235 162.136L288.196 162.003L285.157 161.869V143.464V125.06L291.137 124.94L297.118 124.821L290.941 124.734L284.765 124.647V143.471ZM313.49 124.939L316.529 125.072V143.471V161.869L313.686 162.008L310.843 162.147L313.784 162.123L316.725 162.098L316.827 143.373L316.929 124.647L313.69 124.726L310.451 124.805L313.49 124.939ZM331.922 124.928C332.515 125.018 333.485 125.018 334.078 124.928C334.672 124.838 334.186 124.765 333 124.765C331.814 124.765 331.328 124.838 331.922 124.928ZM221.804 138.765C221.804 146.206 221.856 149.25 221.921 145.529C221.985 141.809 221.985 135.721 221.921 132C221.856 128.279 221.804 131.324 221.804 138.765ZM20.002 127.238C23.331 130.088 23.392 130.373 23.392 143.078C23.392 155.546 23.397 155.511 21.37 158.205C20.526 159.326 20.292 159.808 20.812 159.353C21.305 158.922 22.176 157.775 22.747 156.804L23.784 155.039V143.471C23.784 132.337 23.752 131.842 22.93 130.307C22.147 128.843 19.24 125.824 18.615 125.824C18.469 125.824 19.093 126.46 20.002 127.238ZM44.373 125.9C46.881 128.232 48.364 129.385 47.118 128.033C46.363 127.214 45.392 126.358 44.961 126.13C44.529 125.903 44.265 125.799 44.373 125.9ZM58.234 127.921C57.081 129.074 56.138 130.265 56.139 130.568C56.14 130.87 56.47 130.577 56.872 129.917C57.275 129.257 58.365 128.066 59.294 127.27C60.224 126.474 60.837 125.824 60.658 125.824C60.478 125.824 59.388 126.767 58.234 127.921ZM84.353 127.26C83.478 128.051 82.581 129.065 82.359 129.515C82.138 129.965 82.419 129.767 82.984 129.075C83.55 128.383 84.579 127.37 85.271 126.824C85.963 126.279 86.398 125.83 86.236 125.828C86.075 125.825 85.228 126.47 84.353 127.26ZM97.253 127.235C98.976 128.71 99.992 130.305 100.476 132.294C100.709 133.251 100.77 133.303 100.803 132.573C100.882 130.814 97.234 125.824 95.869 125.824C95.723 125.824 96.346 126.459 97.253 127.235ZM123.082 126.824C123.774 127.37 124.803 128.383 125.369 129.075C125.934 129.767 126.215 129.965 125.994 129.515C125.56 128.635 122.6 125.821 122.117 125.828C121.955 125.83 122.39 126.279 123.082 126.824ZM136.595 127.294L135.122 128.765L136.512 127.589C137.277 126.943 138.07 126.281 138.275 126.119C138.479 125.956 138.517 125.824 138.357 125.824C138.198 125.824 137.405 126.485 136.595 127.294ZM148.098 126.076C150.095 127.847 150.83 128.364 150.06 127.454C149.633 126.949 148.928 126.353 148.495 126.131C148.061 125.909 147.882 125.884 148.098 126.076ZM185.829 126.789C186.522 127.355 187.643 128.473 188.32 129.272C188.998 130.071 189.372 130.373 189.152 129.941C188.614 128.888 186.39 126.657 185.382 126.161C184.934 125.94 185.136 126.223 185.829 126.789ZM200.268 126.596C199.057 127.394 197.977 128.599 197.271 129.941C197.044 130.373 197.356 130.114 197.965 129.366C199.079 127.998 199.595 127.506 201.039 126.432C202.183 125.581 201.628 125.699 200.268 126.596ZM262.392 127.26C261.518 128.051 260.62 129.065 260.399 129.515C260.177 129.965 260.458 129.767 261.023 129.075C261.589 128.383 262.618 127.37 263.31 126.824C264.002 126.279 264.437 125.83 264.276 125.828C264.114 125.825 263.267 126.47 262.392 127.26ZM275.293 127.235C277.015 128.71 278.031 130.305 278.516 132.294C278.749 133.251 278.81 133.303 278.842 132.573C278.921 130.814 275.273 125.824 273.909 125.824C273.763 125.824 274.385 126.459 275.293 127.235ZM326.343 127.234C324.144 129.221 323.281 130.796 323.033 133.279L322.817 135.431L323.318 133.056C323.876 130.413 324.87 128.793 327.026 127.016C327.822 126.36 328.345 125.824 328.189 125.824C328.032 125.824 327.202 126.458 326.343 127.234ZM32.387 127.882L31.235 129.157L32.51 128.005C33.698 126.931 33.965 126.608 33.662 126.608C33.594 126.608 33.021 127.181 32.387 127.882ZM71.431 126.731C71.431 126.798 72.005 127.372 72.706 128.005L73.98 129.157L72.829 127.882C71.755 126.694 71.431 126.428 71.431 126.731ZM110.034 127.882L108.882 129.157L110.157 128.005C111.345 126.931 111.612 126.608 111.309 126.608C111.241 126.608 110.668 127.181 110.034 127.882ZM213.341 127.95C214.068 128.796 214.9 130.031 215.189 130.695C215.478 131.359 215.721 131.62 215.73 131.275C215.747 130.557 213.892 127.877 212.771 127C212.358 126.676 212.614 127.104 213.341 127.95ZM301.875 127.785C303.291 129.368 304 130.633 304.401 132.294C304.631 133.249 304.692 133.302 304.725 132.573C304.782 131.293 303.488 128.962 301.957 127.589L300.647 126.413L301.875 127.785ZM338.882 126.731C338.882 126.798 339.456 127.372 340.157 128.005L341.431 129.157L340.28 127.882C339.206 126.694 338.882 126.428 338.882 126.731ZM341.911 130.627C342.537 131.773 342.621 133.422 342.735 146.891L342.861 161.879L337.538 162.006L332.215 162.133L337.607 162.115L343 162.098V147C343 131.811 342.779 129.353 341.411 129.353C341.303 129.353 341.529 129.926 341.911 130.627ZM81.256 132C81.011 132.883 80.879 137.544 80.926 143.667L81.005 153.863L81.228 142.882C81.351 136.843 81.598 131.593 81.777 131.216C81.957 130.838 82.005 130.529 81.884 130.529C81.763 130.529 81.481 131.191 81.256 132ZM13.312 131.212C15.604 131.342 15.834 131.441 16.545 132.607C16.966 133.298 17.311 133.666 17.312 133.425C17.317 131.892 15.699 130.921 13.266 130.997L10.843 131.073L13.312 131.212ZM37.487 131.531C36.751 132.121 36.755 132.127 37.582 131.728C40.79 130.178 42.906 131.676 43.131 135.656C43.216 137.15 43.404 138.373 43.55 138.373C44.263 138.373 43.28 132.826 42.4 131.889C41.323 130.743 38.709 130.552 37.487 131.531ZM62.774 131.933C61.827 132.94 61.823 132.984 61.706 142.785C61.562 154.827 61.934 156.105 65.538 155.966C66.552 155.927 66.66 155.872 65.941 155.758C61.95 155.13 61.955 155.147 62.099 142.906C62.233 131.496 62.284 131.314 65.339 131.314C67.051 131.314 67.914 131.777 68.626 133.078C68.862 133.51 69.06 133.634 69.067 133.355C69.12 131.097 64.534 130.061 62.774 131.933ZM88.453 131.777L87.706 132.632L88.675 131.973C89.896 131.143 92.137 131.124 93.403 131.933L94.373 132.553L93.447 131.737C92.15 130.595 89.467 130.616 88.453 131.777ZM114.747 131.884C114.217 132.414 113.79 133.075 113.796 133.355C113.803 133.634 114.001 133.51 114.237 133.078C114.912 131.845 115.792 131.314 117.161 131.314C119.824 131.314 120.843 132.665 120.843 136.196C120.843 137.393 120.979 138.373 121.146 138.373C121.598 138.373 121.086 133.606 120.526 132.597C119.452 130.663 116.351 130.281 114.747 131.884ZM140.96 131.511C140.169 132.066 138.993 134.693 139.369 135.068C139.463 135.163 139.752 134.536 140.01 133.676C140.79 131.072 144.29 130.285 145.913 132.347C146.998 133.727 147.086 137.437 146.039 137.71C145.523 137.845 145.571 137.901 146.235 137.935C147.633 138.007 147.537 133.833 146.102 132.128C144.939 130.746 142.475 130.45 140.96 131.511ZM177.575 131.183C177.431 131.327 177.314 138.29 177.314 146.657V161.869L174.275 162.012L171.235 162.155L174.373 162.126L177.51 162.098L177.612 146.706L177.715 131.314H179.807C183.519 131.314 183.361 130.636 183.588 147.531L183.784 162.098H186.922H190.059L190.066 147.588L190.073 133.078L189.963 147.49L189.853 161.902H186.917H183.98V147.618V133.335L182.965 132.128C181.971 130.947 178.432 130.326 177.575 131.183ZM203.409 132.15L202.376 133.377L202.492 143.753L202.608 154.128L203.708 155.074C205.204 156.36 207.13 156.331 208.566 155.001L209.667 153.982L208.535 154.805C207.125 155.83 205.141 155.862 203.926 154.878C202.531 153.75 202.246 134.09 203.599 132.37C204.507 131.216 206.742 130.918 208.418 131.728C209.245 132.127 209.249 132.121 208.513 131.531C207.14 130.431 204.595 130.74 203.409 132.15ZM266.362 131.955C265.915 132.523 265.55 133.185 265.55 133.425C265.551 133.666 265.902 133.289 266.329 132.588C267.241 131.093 269.711 130.796 271.442 131.973L272.412 132.632L271.665 131.777C270.513 130.459 267.458 130.561 266.362 131.955ZM293.196 131.195C296.739 131.383 297.304 131.598 297.911 132.994C298.246 133.764 298.465 133.981 298.475 133.551C298.512 131.851 296.767 130.916 293.704 130.996C290.884 131.069 290.877 131.072 293.196 131.195ZM330.414 131.804C329.667 132.685 329.667 132.686 330.482 132C332.097 130.64 335.055 131.211 336.077 133.078C336.313 133.51 336.511 133.634 336.517 133.355C336.568 131.209 331.918 130.027 330.414 131.804ZM215.836 133.275C215.836 134.029 215.917 134.338 216.015 133.961C216.114 133.583 216.114 132.966 216.015 132.588C215.917 132.211 215.836 132.52 215.836 133.275ZM196.31 143.275C196.31 149.314 196.364 151.73 196.431 148.643C196.497 145.556 196.497 140.615 196.43 137.663C196.364 134.71 196.309 137.235 196.31 143.275ZM49.602 135.627C49.602 137.245 49.672 137.907 49.756 137.098C49.841 136.289 49.841 134.966 49.756 134.157C49.672 133.348 49.602 134.01 49.602 135.627ZM55.525 143.275C55.524 149.098 55.579 151.535 55.646 148.69C55.713 145.845 55.713 141.08 55.646 138.102C55.58 135.123 55.525 137.451 55.525 143.275ZM127.246 135.824C127.248 137.333 127.319 137.903 127.404 137.089C127.489 136.276 127.487 135.04 127.401 134.344C127.314 133.648 127.245 134.314 127.246 135.824ZM153.093 147.479L153 161.88L147.608 162.001L142.216 162.122L147.62 162.208C151.658 162.272 153.072 162.17 153.213 161.802C153.317 161.531 153.354 154.958 153.294 147.194L153.186 133.078L153.093 147.479ZM258.882 134.255C258.882 134.794 259.034 135.235 259.22 135.235C259.406 135.235 259.474 134.794 259.37 134.255C259.267 133.716 259.115 133.275 259.033 133.275C258.95 133.275 258.882 133.716 258.882 134.255ZM100.933 151.706C100.879 161.735 100.751 170.647 100.649 171.51L100.463 173.078L100.853 171.56C101.092 170.629 101.202 162.966 101.137 151.756L101.031 133.471L100.933 151.706ZM304.858 147.686L304.765 161.902H301.829H298.892L298.782 148.078L298.671 134.255L298.679 148.176L298.686 162.098L301.731 162.213C305.539 162.356 305.187 163.924 305.059 147.39L304.95 133.471L304.858 147.686ZM17.483 143.275C17.483 148.451 17.539 150.514 17.607 147.86C17.675 145.205 17.675 140.97 17.606 138.448C17.538 135.926 17.483 138.098 17.483 143.275ZM69.248 143.275C69.248 148.451 69.304 150.514 69.372 147.86C69.439 145.205 69.439 140.97 69.371 138.448C69.303 135.926 69.247 138.098 69.248 143.275ZM87.287 143.471C87.287 148.755 87.343 150.917 87.411 148.275C87.478 145.632 87.478 141.309 87.411 138.667C87.343 136.025 87.287 138.186 87.287 143.471ZM272.608 135.795C272.608 137.118 272.445 137.573 271.922 137.71C271.405 137.845 271.454 137.901 272.118 137.935C272.921 137.976 273 137.805 273 136.02C273 134.941 272.912 134.059 272.804 134.059C272.696 134.059 272.608 134.84 272.608 135.795ZM278.975 147.871L278.882 161.88L273.49 162.001L268.098 162.122L273.503 162.208C277.542 162.272 278.955 162.17 279.096 161.802C279.2 161.531 279.236 155.134 279.176 147.586L279.068 133.863L278.975 147.871ZM35.838 148.062L35.745 161.869L32.706 162.003L29.667 162.136L32.718 162.215C36.522 162.314 36.168 163.852 36.039 147.782L35.931 134.255L35.838 148.062ZM94.737 143.471C94.737 148.539 94.793 150.613 94.861 148.078C94.93 145.544 94.93 141.397 94.861 138.863C94.793 136.328 94.737 138.402 94.737 143.471ZM113.485 148.108L113.392 161.962L110.291 161.834C108.585 161.763 107.272 161.838 107.373 162C107.7 162.525 113.398 162.344 113.606 161.802C113.71 161.531 113.746 155.222 113.686 147.782L113.578 134.255L113.485 148.108ZM336.529 135.991C336.529 137.128 336.35 137.578 335.843 137.71C335.327 137.845 335.375 137.901 336.039 137.935C336.83 137.976 336.922 137.798 336.922 136.216C336.922 135.245 336.833 134.451 336.725 134.451C336.618 134.451 336.529 135.144 336.529 135.991ZM210.03 143.471C210.03 148.324 210.087 150.309 210.155 147.882C210.224 145.456 210.224 141.485 210.155 139.059C210.087 136.632 210.03 138.618 210.03 143.471ZM142.515 137.477C143.111 137.568 143.994 137.565 144.476 137.472C144.958 137.379 144.471 137.305 143.392 137.308C142.314 137.311 141.919 137.387 142.515 137.477ZM268.398 137.477C268.994 137.568 269.876 137.565 270.358 137.472C270.841 137.379 270.353 137.305 269.275 137.308C268.196 137.311 267.801 137.387 268.398 137.477ZM332.118 137.473C332.603 137.566 333.397 137.566 333.882 137.473C334.368 137.379 333.971 137.303 333 137.303C332.029 137.303 331.632 137.379 332.118 137.473ZM137.434 139.382L136.333 140.391L137.608 139.504C138.309 139.016 138.882 138.562 138.882 138.495C138.882 138.185 138.449 138.451 137.434 139.382ZM261.52 140.798C260.441 142.243 259.664 143.644 259.671 144.131C259.674 144.307 260.124 143.657 260.672 142.686C261.22 141.716 261.955 140.703 262.305 140.435C262.656 140.168 262.841 139.848 262.717 139.723C262.593 139.599 262.054 140.083 261.52 140.798ZM325.422 140.824C324.151 142.527 323.474 143.879 323.753 144.158C323.878 144.283 323.98 144.197 323.98 143.968C323.98 143.738 324.586 142.649 325.326 141.549C326.829 139.316 326.89 138.857 325.422 140.824ZM142.907 143.752C143.503 143.842 144.386 143.84 144.868 143.747C145.35 143.654 144.863 143.58 143.784 143.583C142.706 143.586 142.311 143.662 142.907 143.752ZM268.79 143.752C269.386 143.842 270.268 143.84 270.75 143.747C271.233 143.654 270.745 143.58 269.667 143.583C268.588 143.586 268.194 143.662 268.79 143.752ZM331.291 143.772C331.189 143.938 331.84 144.017 332.739 143.947C335.378 143.744 335.699 143.565 333.513 143.516C332.394 143.491 331.394 143.606 331.291 143.772ZM140.735 144.55C138.471 147.052 138.859 153.684 141.374 155.445C141.883 155.802 143.128 156.02 144.656 156.02H147.118V149.941C147.118 146.598 146.985 143.862 146.824 143.862C146.662 143.862 146.582 146.509 146.647 149.745L146.765 155.627H144.373C142.297 155.627 141.857 155.492 141.029 154.599C139.29 152.723 139.149 147.247 140.782 145.038C141.738 143.745 141.712 143.471 140.735 144.55ZM272.529 149.745L272.647 155.627H270.445C267.877 155.627 266.959 155.226 266.16 153.755C265.841 153.167 265.573 152.92 265.565 153.207C265.519 154.715 267.772 156.02 270.421 156.02H273V149.941C273 146.598 272.868 143.862 272.706 143.862C272.544 143.862 272.465 146.509 272.529 149.745ZM336.127 144.121C336.374 144.243 336.529 146.504 336.529 149.974V155.627H334.229C332.515 155.627 331.641 155.418 330.798 154.805L329.667 153.982L330.787 155.018C331.785 155.941 332.173 156.042 334.317 155.939L336.725 155.824V149.974C336.725 145.547 336.604 144.1 336.225 144.023C335.95 143.967 335.906 144.011 336.127 144.121ZM259.365 145.824C259.365 146.578 259.446 146.887 259.545 146.51C259.643 146.132 259.643 145.515 259.545 145.137C259.446 144.76 259.365 145.069 259.365 145.824ZM322.983 147.219C322.47 152.011 323.755 157.505 325.782 159.188C326.116 159.465 325.844 158.813 325.176 157.74C323.672 155.319 323.038 151.801 323.365 147.686C323.659 143.992 323.367 143.635 322.983 147.219ZM133.491 146.804C133.495 147.667 133.576 147.973 133.67 147.486C133.763 146.998 133.76 146.292 133.662 145.917C133.563 145.542 133.487 145.941 133.491 146.804ZM265.401 146.427C265.267 146.777 265.187 148.329 265.223 149.875L265.29 152.686L265.53 149.353C265.79 145.76 265.776 145.45 265.401 146.427ZM329.213 149.549C329.214 151.275 329.283 151.932 329.366 151.009C329.449 150.087 329.448 148.675 329.363 147.872C329.279 147.069 329.211 147.824 329.213 149.549ZM133.499 152.49C133.499 153.461 133.575 153.858 133.669 153.373C133.762 152.887 133.762 152.093 133.669 151.608C133.575 151.123 133.499 151.52 133.499 152.49ZM259.326 152.797C259.244 155.477 260.667 158.222 263.075 160.031C263.822 160.591 263.654 160.3 262.556 159.125C260.478 156.903 260 155.941 259.657 153.284C259.387 151.193 259.376 151.176 259.326 152.797ZM215.836 153.667C215.836 154.422 215.917 154.73 216.015 154.353C216.114 153.975 216.114 153.358 216.015 152.98C215.917 152.603 215.836 152.912 215.836 153.667ZM222.063 153.837C222.011 155.211 223.281 157.977 224.435 159.007C224.974 159.487 224.832 159.129 224.029 157.98C223.35 157.01 222.639 155.422 222.45 154.451C222.182 153.077 222.096 152.941 222.063 153.837ZM228.294 153.991C228.294 155.62 231.724 156.608 233.219 155.41C233.955 154.821 233.951 154.814 233.124 155.214C231.583 155.958 229.986 155.712 229.107 154.594C228.66 154.026 228.294 153.754 228.294 153.991ZM81.253 154.668C81.233 155.594 83.095 158.677 84.2 159.549C84.61 159.873 84.35 159.374 83.622 158.441C82.895 157.508 82.067 156.096 81.784 155.304C81.456 154.383 81.264 154.154 81.253 154.668ZM88.859 155.402C89.278 155.742 90.249 155.998 91.016 155.971L92.412 155.921L90.843 155.663C89.98 155.52 89.01 155.265 88.686 155.094C88.363 154.924 88.441 155.063 88.859 155.402ZM196.56 155.258C196.543 155.595 196.804 156.212 197.139 156.631C197.739 157.38 197.743 157.38 197.388 156.608C197.19 156.176 196.929 155.559 196.809 155.235C196.621 154.727 196.587 154.73 196.56 155.258ZM10.255 155.723C10.255 155.886 11.358 155.999 12.706 155.974C15.355 155.925 15.098 155.738 12.118 155.546C11.093 155.48 10.255 155.559 10.255 155.723ZM213.81 158.086C212.693 159.462 212.649 159.578 213.552 158.765C214.49 157.92 215.604 156.398 215.269 156.419C215.207 156.423 214.551 157.173 213.81 158.086ZM136.137 158.909C136.892 159.728 137.863 160.584 138.294 160.811C138.725 161.038 138.99 161.142 138.882 161.042C136.374 158.709 134.891 157.556 136.137 158.909ZM198.882 158.961C199.614 159.716 200.301 160.333 200.409 160.333C200.517 160.333 200.006 159.716 199.275 158.961C198.543 158.206 197.856 157.588 197.748 157.588C197.64 157.588 198.151 158.206 198.882 158.961ZM235.745 160.392C234.99 161.054 234.727 161.416 235.161 161.197C235.878 160.835 237.654 159.135 237.276 159.173C237.189 159.182 236.5 159.73 235.745 160.392ZM226.279 160.702C226.788 161.146 227.391 161.51 227.619 161.51C228.101 161.51 228.078 161.49 226.529 160.584L225.353 159.895L226.279 160.702ZM94.567 165.744L94.761 170.333L94.875 166.053C94.937 163.699 94.85 161.634 94.681 161.463C94.511 161.293 94.46 163.219 94.567 165.744ZM11.34 162.186C12.045 162.273 13.104 162.272 13.693 162.182C14.283 162.093 13.706 162.021 12.412 162.023C11.118 162.026 10.636 162.099 11.34 162.186ZM80.979 166.427C79.847 169.378 81.905 175.42 84.765 177.538C86.037 178.481 86.017 178.435 84.491 176.916C82.138 174.572 81.561 173.215 81.328 169.476L81.125 166.216H84.101H87.077L87.226 168.078L87.375 169.941L87.344 167.98L87.314 166.02L84.269 165.905C81.751 165.81 81.181 165.901 80.979 166.427ZM88.859 173.057C89.821 173.827 92.221 173.846 93.219 173.091C93.638 172.774 93.77 172.51 93.513 172.503C93.256 172.496 92.937 172.667 92.804 172.882C92.485 173.399 90.04 173.385 88.955 172.861C88.127 172.461 88.124 172.468 88.859 173.057ZM98.914 175.388C98.177 176.49 97.866 177.152 98.223 176.858C98.954 176.257 100.618 173.691 100.398 173.504C100.319 173.437 99.652 174.285 98.914 175.388ZM90.353 179.819C90.73 179.918 91.348 179.918 91.725 179.819C92.103 179.721 91.794 179.64 91.039 179.64C90.284 179.64 89.975 179.721 90.353 179.819Z" fill="#9D9D9D"/>
</svg>
