<svg width="405" height="81" viewBox="0 0 405 81" fill="none" xmlns="http://www.w3.org/2000/svg">
<path d="M64.111 12.434H78.854C82.61 12.434 85.568 13.467 87.446 15.345C88.902 16.801 89.653 18.632 89.653 20.791V20.885C89.653 24.829 87.4 26.941 84.958 28.21C88.808 29.524 91.484 31.731 91.484 36.191V36.285C91.484 42.154 86.648 45.3 79.324 45.3H64.112V12.434H64.111ZM83.877 21.73C83.877 19.147 81.811 17.551 78.102 17.551H69.791V26.283H77.679C81.388 26.283 83.877 24.828 83.877 21.823V21.73ZM78.947 31.167H69.792V40.182H79.37C83.267 40.182 85.708 38.633 85.708 35.675V35.581C85.708 32.811 83.502 31.167 78.947 31.167Z" fill="black"/>
<path d="M97.494 31.355V12.434H103.269V31.12C103.269 37.224 106.415 40.464 111.579 40.464C116.697 40.464 119.843 37.412 119.843 31.356V12.435H125.618V31.074C125.618 40.887 120.078 45.817 111.486 45.817C102.94 45.816 97.494 40.887 97.494 31.355Z" fill="black"/>
<path d="M133.553 12.434H139.328V40.041H156.606V45.3H133.553V12.434Z" fill="black"/>
<path d="M162.57 12.434H168.345V40.041H185.623V45.3H162.57V12.434Z" fill="black"/>
<path d="M191.586 12.434H203.84C214.171 12.434 221.305 19.523 221.305 28.773V28.867C221.305 38.116 214.17 45.3 203.84 45.3H191.586V12.434ZM197.362 17.692V40.041H203.841C210.744 40.041 215.25 35.394 215.25 28.961V28.867C215.25 22.434 210.744 17.692 203.841 17.692H197.362V17.692Z" fill="black"/>
<path d="M226.849 28.961V28.867C226.849 19.617 233.984 11.87 244.079 11.87C254.173 11.87 261.216 19.523 261.216 28.773V28.867C261.216 38.116 254.079 45.863 243.986 45.863C233.89 45.863 226.849 38.21 226.849 28.961ZM255.159 28.961V28.867C255.159 22.481 250.511 17.223 243.985 17.223C237.458 17.223 232.905 22.388 232.905 28.773V28.867C232.905 35.252 237.551 40.511 244.079 40.511C250.604 40.511 255.159 35.346 255.159 28.961Z" fill="black"/>
<path d="M266.759 28.961V28.867C266.759 19.664 273.8 11.87 283.708 11.87C289.435 11.87 292.956 13.466 296.337 16.33L292.675 20.696C290.14 18.583 287.652 17.222 283.472 17.222C277.415 17.222 272.816 22.48 272.816 28.772V28.866C272.816 35.627 277.275 40.603 283.99 40.603C287.088 40.603 289.906 39.618 291.924 38.115V32.011H283.52V26.94H297.512V40.744C294.272 43.515 289.625 45.862 283.803 45.862C273.519 45.863 266.759 38.539 266.759 28.961Z" fill="black"/>
<path d="M301.784 40.464L305.587 36.52C307.513 39.009 309.437 40.417 312.208 40.417C315.306 40.417 317.419 38.351 317.419 33.938V12.435H323.382V34.126C323.382 38.023 322.208 40.935 320.282 42.859C318.358 44.784 315.589 45.77 312.302 45.77C307.231 45.77 303.944 43.422 301.784 40.464Z" fill="black"/>
<path d="M329.862 28.961V28.867C329.862 19.617 336.999 11.87 347.092 11.87C357.188 11.87 364.231 19.523 364.231 28.773V28.867C364.231 38.116 357.094 45.863 346.999 45.863C336.905 45.863 329.862 38.21 329.862 28.961ZM358.175 28.961V28.867C358.175 22.481 353.527 17.223 346.999 17.223C340.474 17.223 335.919 22.388 335.919 28.773V28.867C335.919 35.252 340.567 40.511 347.093 40.511C353.62 40.511 358.175 35.346 358.175 28.961Z" fill="black"/>
<path d="M371.228 12.434H385.97C389.726 12.434 392.685 13.467 394.562 15.345C396.017 16.801 396.769 18.632 396.769 20.791V20.885C396.769 24.829 394.515 26.941 392.074 28.21C395.924 29.524 398.601 31.731 398.601 36.191V36.285C398.601 42.154 393.765 45.3 386.439 45.3H371.228V12.434ZM390.993 21.73C390.993 19.147 388.927 17.551 385.218 17.551H376.907V26.283H384.796C388.505 26.283 390.993 24.828 390.993 21.823V21.73V21.73ZM386.063 31.167H376.907V40.182H386.485C390.383 40.182 392.825 38.633 392.825 35.675V35.581C392.825 32.811 390.618 31.167 386.063 31.167Z" fill="black"/>
<path fill-rule="evenodd" clip-rule="evenodd" d="M32.857 51.416L33.182 50.517H32.533L34.799 40.29C33.494 40.572 33.291 41.194 32.533 41.194H28.653C27.26 41.194 26.898 40.84 25.741 40.591C25.705 42.093 25.385 42.089 24.983 43.195C24.565 44.349 24.891 45.3 24.736 46.573C24.144 51.419 25.741 51.205 25.741 52.316V53.52H20.241V52.316C20.241 49.494 19.27 48.721 19.27 46.604V46.303C19.27 44.924 20.241 44.597 20.241 42.696V41.492C20.241 39.47 17.417 36.938 16.035 36.081C14.019 37.334 10.708 41.075 9.94301 43.347C9.41101 44.92 7.30401 52.62 6.00801 52.62H3.09601V51.716C3.09601 50.894 5.38301 47.711 6.05001 46.041C7.72101 41.852 6.97901 43.999 6.97901 39.088V37.584C6.97901 33.752 11.328 26.178 13.674 24.562C15.09 23.588 18.927 21.885 20.91 21.665C22.46 21.497 24.541 21.818 26.046 21.63C27.476 21.451 27.982 20.595 29.946 20.442C30.255 19.208 31.887 17.001 31.887 16.233C31.887 15.287 30.681 14.9 30.254 14.14C29.709 13.18 30.07 12.217 29.865 10.892C29.645 9.45 29.212 5.408 31.238 5.408C33.611 5.408 35.581 9.038 36.096 10.899L42.239 10.516C42.279 8.78701 43.837 4.80499 45.798 4.80499C48.787 4.80499 47.416 10.936 47.416 13.825L46.934 13.792L46.77 18.635C46.528 21.621 45.436 21.891 43.82 23.415C42.277 24.869 43.212 27.319 43.212 29.764V33.072C43.212 34.24 41.992 35.915 41.399 36.8C40.294 38.454 40.753 39.233 40.082 40.988C39.156 43.399 36.419 45.542 36.419 48.708V49.613C36.419 51.933 37.976 50.76 38.035 53.222H33.83C32.66 53.224 32.857 52.464 32.857 51.416Z" fill="black"/>
<path fill-rule="evenodd" clip-rule="evenodd" d="M32.857 51.416L32.533 50.517H33.182L32.857 51.416Z" fill="black"/>
<path d="M70.408 59.318H64.54V58.164H77.526V59.318H71.658V74.997H70.408V59.318V59.318Z" fill="black"/>
<path d="M81.202 58.164H82.452V65.955H93.225V58.164H94.475V74.997H93.225V67.109H82.452V74.997H81.202V58.164Z" fill="black"/>
<path d="M99.474 58.164H111.45V59.318H100.724V65.93H110.367V67.084H100.724V73.842H111.57V74.996H99.474V58.164Z" fill="black"/>
<path d="M121.713 72.544L122.53 71.606C124.382 73.313 126.089 74.107 128.566 74.107C131.091 74.107 132.822 72.688 132.822 70.764V70.716C132.822 68.937 131.884 67.903 128.061 67.133C124.021 66.315 122.386 64.945 122.386 62.396V62.347C122.386 59.846 124.671 57.922 127.797 57.922C130.25 57.922 131.861 58.596 133.568 59.966L132.775 60.952C131.188 59.581 129.601 59.053 127.749 59.053C125.272 59.053 123.637 60.472 123.637 62.227V62.275C123.637 64.055 124.551 65.137 128.543 65.955C132.439 66.749 134.074 68.143 134.074 70.597V70.645C134.074 73.362 131.741 75.238 128.495 75.238C125.801 75.237 123.733 74.348 121.713 72.544Z" fill="black"/>
<path d="M138.182 58.164H144.29C147.994 58.164 150.543 60.063 150.543 63.31V63.358C150.543 66.893 147.489 68.721 143.978 68.721H139.433V74.997H138.183V58.164H138.182ZM144.05 67.566C147.176 67.566 149.292 65.93 149.292 63.429V63.381C149.292 60.712 147.224 59.318 144.194 59.318H139.432V67.566H144.05Z" fill="black"/>
<path d="M158.956 58.043H160.159L167.998 74.997H166.627L164.487 70.283H154.555L152.414 74.997H151.116L158.956 58.043ZM163.958 69.153L159.533 59.414L155.084 69.153H163.958Z" fill="black"/>
<path d="M169.846 66.629V66.58C169.846 61.818 173.405 57.875 178.263 57.875C181.269 57.875 183.073 58.981 184.804 60.568L183.914 61.482C182.447 60.063 180.764 59.004 178.238 59.004C174.198 59.004 171.144 62.299 171.144 66.531V66.579C171.144 70.836 174.246 74.154 178.262 74.154C180.691 74.154 182.35 73.216 184.057 71.533L184.899 72.35C183.119 74.106 181.195 75.284 178.213 75.284C173.405 75.285 169.846 71.462 169.846 66.629Z" fill="black"/>
<path d="M188.455 58.164H200.431V59.318H189.705V65.93H199.348V67.084H189.705V73.842H200.551V74.996H188.455V58.164Z" fill="black"/>
<path d="M211.775 58.164H223.63V59.318H213.026V66.219H222.548V67.373H213.026V74.996H211.775V58.164V58.164Z" fill="black"/>
<path d="M226.321 66.629V66.58C226.321 61.987 229.712 57.875 234.809 57.875C239.908 57.875 243.25 61.939 243.25 66.532V66.58C243.25 71.174 239.859 75.285 234.761 75.285C229.663 75.285 226.321 71.222 226.321 66.629ZM241.952 66.629V66.58C241.952 62.42 238.922 59.005 234.762 59.005C230.602 59.005 227.619 62.372 227.619 66.532V66.58C227.619 70.74 230.649 74.155 234.809 74.155C238.969 74.155 241.952 70.789 241.952 66.629Z" fill="black"/>
<path d="M247.502 58.164H254.572C256.639 58.164 258.3 58.812 259.309 59.823C260.102 60.616 260.583 61.747 260.583 62.949V62.997C260.583 65.81 258.491 67.422 255.653 67.807L261.208 74.997H259.621L254.259 68.023H248.752V74.997H247.501V58.164H247.502ZM254.428 66.893C257.241 66.893 259.333 65.475 259.333 63.045V62.997C259.333 60.736 257.554 59.318 254.5 59.318H248.753V66.892H254.428V66.893Z" fill="black"/>
<path d="M271.929 58.164H274.886V74.997H271.929V58.164Z" fill="black"/>
<path d="M283.493 60.905H278.131V58.164H291.814V60.905H286.452V74.997H283.494V60.905H283.493Z" fill="black"/>
<path d="M302.438 58.164H308.546C312.249 58.164 314.798 60.063 314.798 63.31V63.358C314.798 66.893 311.744 68.721 308.234 68.721H303.689V74.997H302.438V58.164ZM308.306 67.566C311.432 67.566 313.548 65.93 313.548 63.429V63.381C313.548 60.712 311.48 59.318 308.449 59.318H303.688V67.566H308.306Z" fill="black"/>
<path d="M318.498 58.164H330.474V59.318H319.749V65.93H329.392V67.084H319.749V73.842H330.594V74.996H318.498V58.164V58.164Z" fill="black"/>
<path d="M333.861 66.629V66.58C333.861 61.987 337.252 57.875 342.349 57.875C347.448 57.875 350.79 61.939 350.79 66.532V66.58C350.79 71.174 347.398 75.285 342.301 75.285C337.204 75.285 333.861 71.222 333.861 66.629ZM349.492 66.629V66.58C349.492 62.42 346.462 59.005 342.302 59.005C338.142 59.005 335.159 62.372 335.159 66.532V66.58C335.159 70.74 338.189 74.155 342.349 74.155C346.509 74.155 349.492 70.789 349.492 66.629Z" fill="black"/>
<path d="M355.042 58.164H361.15C364.853 58.164 367.402 60.063 367.402 63.31V63.358C367.402 66.893 364.348 68.721 360.838 68.721H356.292V74.997H355.042V58.164ZM360.909 67.566C364.036 67.566 366.152 65.93 366.152 63.429V63.381C366.152 60.712 364.084 59.318 361.053 59.318H356.291V67.566H360.909Z" fill="black"/>
<path d="M371.103 58.164H372.353V73.843H382.237V74.997H371.103V58.164Z" fill="black"/>
<path d="M385.864 58.164H397.84V59.318H387.114V65.93H396.758V67.084H387.114V73.842H397.96V74.996H385.864V58.164Z" fill="black"/>
</svg>
