<svg width="513" height="71" viewBox="0 0 513 71" fill="none" xmlns="http://www.w3.org/2000/svg">
<path d="M102.5 66.1C95.3 66.1 88.7 65.3 82.9 59.5L90.4 52C94.2 55.8 99.1 56.3 102.7 56.3C106.7 56.3 110.8 55 110.8 51.5C110.8 49.2 109.6 47.6 105.9 47.3L98.7 46.6C90.4 45.8 85.3 42.2 85.3 33.7C85.3 24.2 93.7 19 103.1 19C110.3 19 116.3 20.2 120.7 24.4L113.6 31.6C110.9 29.2 106.9 28.5 102.9 28.5C98.3 28.5 96.4 30.6 96.4 32.9C96.4 34.6 97.1 36.5 101.2 36.9L108.4 37.6C117.5 38.5 122.1 43.3 122.1 51.1C122.1 61.3 113.4 66.1 102.5 66.1Z" fill="#4E2817"/>
<path d="M142.1 65.6C132.7 65.6 128.8 59 128.8 52.4V29.6H123.9V20.9H128.8V7.29999H140.3V20.9H148.4V29.6H140.3V51.7C140.3 54.3 141.5 55.9 144.3 55.9H148.5V65.6H142.1V65.6Z" fill="#4E2817"/>
<path d="M153.5 11.7V2.29999H165.3V11.7H153.5ZM153.7 65.6V19.6H165.2V65.6H153.7Z" fill="#4E2817"/>
<path d="M191.1 66.1C181.9 66.1 170.5 61.2 170.5 42.5C170.5 23.9 181.9 19 191.1 19C197.5 19 202.2 20.9 206.3 25.2L198.5 33C196.1 30.4 194.1 29.4 191.1 29.4C188.4 29.4 186.2 30.4 184.6 32.4C182.8 34.6 182 37.7 182 42.6C182 47.5 182.8 50.6 184.6 52.9C186.3 54.9 188.4 55.9 191.1 55.9C194.1 55.9 196.1 54.8 198.5 52.3L206.3 60C202.2 64.1 197.5 66.1 191.1 66.1Z" fill="#4E2817"/>
<path d="M238 65.6L226.7 46.4L221.8 51.9V65.6H210.3V2.70001H221.8V38.4L237.1 19.6H251L234.6 38.2L252.3 65.7H238V65.6Z" fill="#4E2817"/>
<path d="M261.8 46.1C261.8 52 265.4 56.3 271.9 56.3C276.9 56.3 279.4 54.9 282.3 52L289.3 58.8C284.6 63.5 280.1 66 271.8 66C260.9 66 250.5 61.1 250.5 42.4C250.5 27.4 258.6 18.9 270.6 18.9C283.4 18.9 290.7 28.3 290.7 40.9V46H261.8V46.1ZM278.3 33.3C277.1 30.6 274.5 28.5 270.6 28.5C266.7 28.5 264.1 30.5 262.9 33.3C262.2 35 261.9 36.2 261.8 38.2H279.3C279.2 36.2 279 35 278.3 33.3Z" fill="#4E2817"/>
<path d="M321.1 32.1C319.3 30.3 317.8 29.4 315 29.4C311.5 29.4 307.6 32.1 307.6 37.9V65.6H296.1V19.6H307.3V24C309.5 21.3 313.9 19.1 318.9 19.1C323.4 19.1 326.6 20.2 329.8 23.4L321.1 32.1Z" fill="#4E2817"/>
<path fill-rule="evenodd" clip-rule="evenodd" d="M47.5 70.7C46.8 71 45.9 70.9 45 71C44.2 71 43.1 71 42.6 70.6C42.3 70.4 42.3 69.9 42.3 69.6C42.3 69.3 42.4 68.8 42.4 68.5C42.5 68.1 42.6 67.5 42.4 67.2C42.2 66.9 41.5 67 41.1 66.8C40.7 66.6 40.6 66 40.5 65.4C40.5 65.2 40.3 65 40.3 64.9C40.2 64 40.5 62.7 40.7 61.8C40.9 60.8 41.2 59.9 41.4 58.9C41.7 57.5 41.7 55.9 41.6 54.4C41.6 53.6 41.4 53 41.6 52.4C41.7 51.8 42 51.3 42.1 50.7C42.1 50.5 42.1 50.3 42.1 50.1C42.1 49.9 42.2 49.8 42.2 49.6C42.2 49.2 42.1 48.7 42.1 48.2C42 46.9 42.1 45 42.2 43.9C42.2 43.5 42.4 43.1 42.1 42.9C40.7 42.9 39.5 43.1 38.2 43.3C34.8 43.7 30.4 43.8 27.1 43.1C26.8 43 26.5 43 26.2 43C23.8 42.5 21.7 41.4 20 40.1C19.7 39.9 19.4 39.7 19.1 39.4C18.8 39.2 18.5 38.9 18.2 38.7C16.9 38.1 15.1 38.8 14.5 39.7C14.3 40 14.1 40.5 13.9 40.9C13.7 41.3 13.5 41.7 13.4 42.1C12.5 44.1 11.5 46.1 10.6 48.1C10.1 49.3 9.50001 50.6 9.10001 51.9C8.30001 54.7 9.00001 58.4 9.70001 61.1C9.80001 61.3 9.90001 61.6 10 61.9C10.2 62.5 10.6 63.4 11.1 63.8C11.4 64 11.8 64.2 12.1 64.4C12.5 64.7 12.7 65.3 13 65.9C13.1 66.1 13.3 66.4 13.4 66.7C13.7 67.3 13.9 67.8 13.2 68.2C12.7 68.5 11.9 68.5 11.2 68.6C10.9 68.7 11 69.1 10.8 69.3C10.7 69.4 10.2 69.6 10 69.7C9.10001 70 7.50002 70 6.80002 69.7C6.40002 69.6 6.00001 69.3 5.90001 69C5.70001 68.4 6.20002 67.7 5.80002 67.3C5.60002 67.1 5.20001 67.1 4.90001 67C4.40001 66.8 4.00001 66.3 3.70001 65.8C3.20001 64.4 3.50001 62.3 3.40001 60.6C3.40001 60.1 3.30002 59.6 3.30002 59C3.30002 58 3.00001 57 2.90001 56C2.80001 55.5 2.70001 55.1 2.60001 54.7C2.40001 54 2.30001 53.2 2.10001 52.5C1.90001 51.7 1.90001 50.9 2.10001 50.3C2.20001 50.1 2.40001 49.9 2.50001 49.7C2.70001 49.3 2.70001 48.9 2.70001 48.5C2.60001 48.3 2.10001 48.5 2.00001 48.3C1.70001 46.1 1.40001 44 1.20001 41.7C1.10001 40.9 1.10001 40.2 1.10001 39.4C1.00001 37.9 1.10001 36.3 0.900015 34.8C0.800015 34.1 0.700012 33.4 0.600012 32.7C0.300012 30.7 -0.19999 28.2 0.20001 26.1C0.50001 24.8 0.90001 23.7 1.70001 22.7C2.20001 22 2.80001 21.4 3.40001 20.7C4.00001 20.1 4.70001 19.5 5.40001 19C5.90001 18.7 6.40001 18.3 6.90001 18C8.00001 17.5 9.50001 17 11.1 16.9C12.7 16.8 14.5 16.8 16 17.1C17.5 17.4 19 17.6 20.5 17.9C21.9 18.2 23.3 18.6 24.7 18.9C24.9 18.9 25 19.1 25.2 19.1C25.6 19.2 26.1 19.2 26.6 19.4C27.9 19.7 29.5 19.9 31.1 19.9C32.8 19.9 34.3 19.9 35.7 19.5C35.9 19.4 36.1 19.3 36.3 19.3C36.5 19.2 36.8 19.2 37 19.2C37.1 19.2 37.3 19 37.4 18.9C38.2 18.5 38.9 18.1 39.6 17.6C40.2 17.2 40.6 16.9 41.4 16.6C41.7 16.5 42.1 16.3 42.4 16.2C43.1 16 43.9 15.8 44.4 15.4C45.3 14.9 45.9 14.1 46.6 13.4C47.3 12.8 48.1 12.1 48.9 11.5C50.5 10.2 52.1 9.09999 53.6 7.89999C54.4 7.29999 55.2 6.69998 56.1 6.19998C57.8 5.19998 59.6 4.09999 62.1 3.89999C63.1 3.79999 64.1 3.79999 65.1 3.89999C65.4 3.89999 65.7 4.09998 66 3.99998C66.3 3.89998 66.5 3.49998 66.6 3.19998C67 2.49998 67.2 2.09999 67.6 1.29999C67.8 0.799988 67.7 0.299988 68.2 0.299988C68.7 0.299988 68.6 1.59998 68.6 2.09998C68.6 2.69998 68.5 3.49999 68.6 3.89999C68.7 4.19999 69.1 4.59998 69.5 4.59998C69.8 4.59998 70 4.39998 70.2 4.19998C70.5 3.99998 70.7 3.99999 70.9 3.79999C71.3 3.49999 71.8 2.99998 72.2 2.59998C72.5 2.29998 73.1 1.39998 73.6 1.49998C74.6 1.59998 73.6 3.09998 73.4 3.49998C72.9 4.59998 72.4 5.49998 71.8 6.49998C71.6 6.89998 71 7.49998 71 7.99998C71 8.29998 71.3 8.49999 71.4 8.89999C71.5 9.09999 71.5 9.19999 71.6 9.39999C71.9 10.2 72.2 11.3 72.5 12.2C72.7 13 72.9 13.8 73.2 14.5C73.5 15.2 73.9 15.9 74.2 16.7C74.3 16.9 74.3 17.1 74.4 17.3C75 18.9 75.6 20.7 76.4 22.3C76.7 22.9 77.1 23.7 77.1 24.6C77.1 25.6 76.6 26.1 76.1 26.9C75.9 27.3 75.5 27.9 75.1 28C74.8 28.1 74.5 28 74.2 28C73.8 28.1 73.5 28.3 73.2 28.3C72.3 28.4 71.4 27.7 71.2 27C71.1 26.8 71.2 26.5 71.1 26.2C70.9 25.1 70.3 24.6 69.6 23.8C69.1 23.3 68.7 23 68.1 22.7C67.2 22.2 66.3 22 65.3 21.5C65 21.3 64.5 21.1 64.2 21.2C63.7 21.3 63.2 22.1 62.8 22.6C60.4 25.8 58.2 29.1 55.9 32.2C54.3 34.3 52.7 36.4 51.4 38.7C51.1 39.3 50.9 40 50.6 40.7C50.4 41.4 50.2 42.1 50 42.9C49.1 45.5 48.8 48.7 48 51.4C47.9 51.7 47.9 52 47.8 52.3C47.4 53.7 47 55.3 46.6 56.8C46.3 57.9 46.2 59.4 46.1 60.8C46.1 62.2 46 64.1 46.5 64.9C46.8 65.4 47.7 65.5 48 66C48.2 66.3 48.4 67 48.7 67.4C48.9 67.7 49.4 68.3 49.3 68.8C49.3 69.1 49 69.4 48.7 69.5C48.4 69.6 48 69.6 47.7 69.7C47.7 70.1 47.8 70.5 47.5 70.7Z" fill="#4E2817"/>
<path d="M381.4 19C375.7 19 371.5 20.8 367.6 24.8C364.7 20.8 360.5 19 355.4 19C351.2 19 346.9 20.7 343.9 23.8V19.6H332.7V65.6H344.2V37.8C344.2 31.5 348.3 29.4 351.9 29.4C355.5 29.4 359.5 31.5 359.5 37.8V65.6H371V37.5C371 31.5 375.2 29.4 378.7 29.4C382.3 29.4 386.3 31.5 386.3 37.8V65.6H397.8V36.2C397.8 31.2 396.5 26.8 392.8 23.1C390.1 20.5 386 19 381.4 19Z" fill="#F26922"/>
<path d="M431.3 47.4C431.3 53.7 427.2 55.8 423.6 55.8C420 55.8 416 53.7 416 47.4V19.5H404.5V49C404.5 54 405.5 58.4 409.2 62.1C411.8 64.7 415.5 66.2 420.1 66.2C424.3 66.2 428.6 64.6 431.6 61.4V65.6H442.8V19.6H431.3V47.4V47.4Z" fill="#F26922"/>
<path d="M461.6 51.7V2.70001H450.1V52.4C450.1 58.9 454.1 65.6 463.5 65.6H470V55.9H465.6C462.7 55.9 461.6 54.5 461.6 51.7Z" fill="#F26922"/>
<path d="M512.2 41C512.2 28.4 505 19 492.1 19C480.2 19 472 27.5 472 42.5C472 61.1 482.4 66.1 493.3 66.1C501.6 66.1 506.1 63.5 510.8 58.9L503.8 52.1C500.9 55 498.4 56.4 493.4 56.4C486.9 56.4 483.3 52.1 483.3 46.2H512.1V41H512.2ZM483.4 38.3C483.5 36.3 483.8 35 484.5 33.4C485.7 30.7 488.3 28.6 492.2 28.6C496.1 28.6 498.6 30.6 499.9 33.4C500.6 35.1 500.9 36.3 501 38.3H483.4Z" fill="#F26922"/>
</svg>
