<svg id="svg" version="1.1" xmlns="http://www.w3.org/2000/svg" xmlns:xlink="http://www.w3.org/1999/xlink" width="400" height="71.8562874251497" viewBox="0, 0, 400,71.8562874251497"><g id="svgg"><path id="path0" d="M26.000 21.917 L 26.000 28.333 25.583 28.333 C 25.250 28.333,25.167 28.250,25.167 27.917 C 25.167 27.528,25.111 27.500,24.333 27.500 C 23.554 27.500,23.500 27.473,23.500 27.081 L 23.500 26.661 18.792 26.706 L 14.083 26.750 14.030 27.125 C 13.983 27.456,13.880 27.500,13.155 27.500 C 12.396 27.500,12.333 27.531,12.333 27.905 C 12.333 28.198,12.230 28.325,11.958 28.363 C 11.717 28.398,11.564 28.551,11.530 28.792 C 11.496 29.033,11.362 29.167,11.155 29.167 C 10.923 29.167,10.833 29.283,10.833 29.583 C 10.833 29.917,10.750 30.000,10.417 30.000 C 10.111 30.000,10.000 30.089,10.000 30.333 C 10.000 30.578,9.889 30.667,9.583 30.667 C 9.194 30.667,9.167 30.722,9.167 31.500 C 9.167 32.278,9.139 32.333,8.750 32.333 C 8.345 32.333,8.333 32.367,8.333 33.500 C 8.333 34.556,8.302 34.667,8.000 34.667 C 7.682 34.667,7.667 34.778,7.667 37.083 L 7.667 39.500 7.250 39.500 C 6.835 39.500,6.833 39.506,6.833 41.083 C 6.833 42.661,6.835 42.667,7.250 42.667 L 7.667 42.667 7.667 45.083 C 7.667 47.366,7.685 47.500,7.991 47.500 C 8.259 47.500,8.324 47.636,8.366 48.292 C 8.409 48.967,8.472 49.091,8.792 49.137 C 9.116 49.183,9.167 49.289,9.167 49.928 C 9.167 50.605,9.202 50.667,9.583 50.667 C 9.917 50.667,10.000 50.750,10.000 51.083 C 10.000 51.417,10.083 51.500,10.417 51.500 C 10.750 51.500,10.833 51.583,10.833 51.917 C 10.833 52.214,10.924 52.333,11.147 52.333 C 11.321 52.333,11.500 52.482,11.548 52.667 C 11.620 52.939,11.776 53.000,12.401 53.000 C 13.107 53.000,13.167 53.033,13.167 53.417 L 13.167 53.833 18.000 53.833 L 22.833 53.833 22.833 53.417 C 22.833 53.034,22.894 53.000,23.583 53.000 C 24.222 53.000,24.333 52.951,24.333 52.667 C 24.333 52.422,24.444 52.333,24.750 52.333 C 25.083 52.333,25.167 52.250,25.167 51.917 C 25.167 51.583,25.250 51.500,25.583 51.500 C 25.966 51.500,26.000 51.561,26.000 52.250 L 26.000 53.000 28.750 53.000 L 31.500 53.000 31.500 34.250 L 31.500 15.500 28.750 15.500 L 26.000 15.500 26.000 21.917 M44.444 26.778 C 44.383 26.839,44.333 27.026,44.333 27.194 C 44.333 27.450,44.197 27.500,43.500 27.500 C 42.722 27.500,42.667 27.528,42.667 27.917 C 42.667 28.299,42.606 28.333,41.917 28.333 C 41.228 28.333,41.167 28.367,41.167 28.750 C 41.167 29.083,41.083 29.167,40.750 29.167 C 40.417 29.167,40.333 29.250,40.333 29.583 C 40.333 29.917,40.250 30.000,39.917 30.000 C 39.534 30.000,39.500 30.061,39.500 30.750 C 39.500 31.439,39.466 31.500,39.083 31.500 C 38.750 31.500,38.667 31.583,38.667 31.917 C 38.667 32.222,38.578 32.333,38.333 32.333 C 38.044 32.333,38.000 32.444,38.000 33.167 C 38.000 33.944,37.972 34.000,37.583 34.000 L 37.167 34.000 37.167 35.913 C 37.167 37.816,37.164 37.828,36.750 37.932 C 36.336 38.035,36.333 38.049,36.333 39.935 L 36.333 41.833 36.750 41.833 L 37.167 41.833 37.167 44.250 L 37.167 46.667 37.583 46.667 C 37.991 46.667,38.000 46.694,38.000 47.917 C 38.000 49.056,38.030 49.167,38.333 49.167 C 38.556 49.167,38.667 49.278,38.667 49.500 C 38.667 49.744,38.778 49.833,39.083 49.833 C 39.417 49.833,39.500 49.917,39.500 50.250 C 39.500 50.583,39.583 50.667,39.917 50.667 C 40.250 50.667,40.333 50.750,40.333 51.083 C 40.333 51.417,40.417 51.500,40.750 51.500 C 41.083 51.500,41.167 51.583,41.167 51.917 C 41.167 52.250,41.250 52.333,41.583 52.333 C 41.889 52.333,42.000 52.422,42.000 52.667 C 42.000 52.951,42.111 53.000,42.750 53.000 C 43.439 53.000,43.500 53.034,43.500 53.417 L 43.500 53.833 49.083 53.833 L 54.667 53.833 54.667 53.417 C 54.667 53.028,54.722 53.000,55.500 53.000 C 56.222 53.000,56.333 52.956,56.333 52.667 C 56.333 52.383,56.444 52.333,57.083 52.333 L 57.833 52.333 57.833 49.500 L 57.833 46.667 56.667 46.667 C 55.533 46.667,55.500 46.679,55.500 47.083 C 55.500 47.417,55.417 47.500,55.083 47.500 C 54.750 47.500,54.667 47.583,54.667 47.917 C 54.667 48.321,54.633 48.333,53.500 48.333 C 52.367 48.333,52.333 48.345,52.333 48.750 L 52.333 49.167 49.500 49.167 L 46.667 49.167 46.667 48.750 C 46.667 48.367,46.606 48.333,45.917 48.333 C 45.228 48.333,45.167 48.299,45.167 47.917 C 45.167 47.583,45.083 47.500,44.750 47.500 C 44.417 47.500,44.333 47.417,44.333 47.083 C 44.333 46.750,44.250 46.667,43.917 46.667 C 43.534 46.667,43.500 46.606,43.500 45.917 C 43.500 45.228,43.466 45.167,43.083 45.167 C 42.676 45.167,42.667 45.139,42.667 43.917 L 42.667 42.667 51.083 42.667 L 59.500 42.667 59.500 37.917 L 59.500 33.167 59.083 33.167 C 58.694 33.167,58.667 33.111,58.667 32.333 C 58.667 31.556,58.639 31.500,58.250 31.500 C 57.867 31.500,57.833 31.439,57.833 30.750 C 57.833 30.111,57.784 30.000,57.500 30.000 C 57.256 30.000,57.167 29.889,57.167 29.583 C 57.167 29.250,57.083 29.167,56.750 29.167 C 56.417 29.167,56.333 29.083,56.333 28.750 C 56.333 28.417,56.250 28.333,55.917 28.333 C 55.583 28.333,55.500 28.250,55.500 27.917 C 55.500 27.528,55.444 27.500,54.667 27.500 C 53.889 27.500,53.833 27.472,53.833 27.083 L 53.833 26.667 49.194 26.667 C 46.643 26.667,44.506 26.717,44.444 26.778 M60.333 28.750 C 60.333 29.879,60.365 30.000,60.659 30.000 C 60.945 30.000,60.991 30.137,61.034 31.125 C 61.078 32.139,61.120 32.255,61.450 32.302 C 61.759 32.346,61.824 32.477,61.866 33.135 C 61.909 33.800,61.973 33.925,62.292 33.970 C 62.639 34.019,62.667 34.107,62.667 35.178 C 62.667 36.299,62.679 36.333,63.083 36.333 C 63.466 36.333,63.500 36.394,63.500 37.083 C 63.500 37.772,63.534 37.833,63.917 37.833 C 64.324 37.833,64.333 37.861,64.333 39.083 C 64.333 40.222,64.363 40.333,64.667 40.333 C 64.968 40.333,65.000 40.444,65.000 41.500 C 65.000 42.633,65.012 42.667,65.417 42.667 C 65.806 42.667,65.833 42.722,65.833 43.500 C 65.833 44.278,65.861 44.333,66.250 44.333 C 66.655 44.333,66.667 44.367,66.667 45.500 C 66.667 46.633,66.679 46.667,67.083 46.667 C 67.491 46.667,67.500 46.694,67.500 47.917 C 67.500 49.139,67.509 49.167,67.917 49.167 C 68.299 49.167,68.333 49.228,68.333 49.917 C 68.333 50.556,68.383 50.667,68.667 50.667 C 68.968 50.667,69.000 50.778,69.000 51.833 L 69.000 53.000 72.250 53.000 L 75.500 53.000 75.500 52.250 C 75.500 51.611,75.549 51.500,75.833 51.500 C 76.135 51.500,76.167 51.389,76.167 50.333 C 76.167 49.200,76.179 49.167,76.583 49.167 C 76.972 49.167,77.000 49.111,77.000 48.333 C 77.000 47.556,77.028 47.500,77.417 47.500 C 77.821 47.500,77.833 47.467,77.833 46.333 C 77.833 45.200,77.845 45.167,78.250 45.167 C 78.639 45.167,78.667 45.111,78.667 44.333 C 78.667 43.556,78.694 43.500,79.083 43.500 C 79.488 43.500,79.500 43.467,79.500 42.333 C 79.500 41.278,79.532 41.167,79.833 41.167 C 80.122 41.167,80.167 41.056,80.167 40.333 C 80.167 39.556,80.194 39.500,80.583 39.500 C 80.988 39.500,81.000 39.467,81.000 38.333 C 81.000 37.200,81.012 37.167,81.417 37.167 C 81.806 37.167,81.833 37.111,81.833 36.333 C 81.833 35.556,81.861 35.500,82.250 35.500 C 82.654 35.500,82.667 35.466,82.667 34.345 C 82.667 33.274,82.694 33.186,83.042 33.137 C 83.362 33.091,83.424 32.967,83.467 32.292 C 83.510 31.636,83.574 31.500,83.842 31.500 C 84.133 31.500,84.167 31.378,84.167 30.333 C 84.167 29.200,84.179 29.167,84.583 29.167 C 84.972 29.167,85.000 29.111,85.000 28.333 L 85.000 27.500 81.833 27.500 L 78.667 27.500 78.667 28.750 C 78.667 29.972,78.657 30.000,78.250 30.000 C 77.845 30.000,77.833 30.033,77.833 31.167 C 77.833 32.300,77.821 32.333,77.417 32.333 C 77.028 32.333,77.000 32.389,77.000 33.167 C 77.000 33.873,76.952 34.000,76.684 34.000 C 76.280 34.000,76.167 34.313,76.167 35.430 C 76.167 36.222,76.126 36.333,75.833 36.333 C 75.532 36.333,75.500 36.444,75.500 37.500 C 75.500 38.633,75.488 38.667,75.083 38.667 C 74.676 38.667,74.667 38.694,74.667 39.917 C 74.667 41.139,74.657 41.167,74.250 41.167 C 73.868 41.167,73.833 41.229,73.833 41.905 C 73.833 42.544,73.783 42.651,73.458 42.697 C 73.114 42.746,73.079 42.850,73.034 43.958 C 72.972 45.486,72.393 45.815,72.301 44.375 C 72.257 43.699,72.195 43.576,71.875 43.530 C 71.527 43.481,71.500 43.393,71.500 42.322 C 71.500 41.201,71.488 41.167,71.083 41.167 C 70.676 41.167,70.667 41.139,70.667 39.917 C 70.667 38.694,70.657 38.667,70.250 38.667 C 69.845 38.667,69.833 38.633,69.833 37.500 C 69.833 36.367,69.821 36.333,69.417 36.333 C 69.028 36.333,69.000 36.278,69.000 35.500 C 69.000 34.784,68.954 34.667,68.674 34.667 C 68.388 34.667,68.343 34.530,68.299 33.542 C 68.255 32.519,68.216 32.412,67.875 32.363 C 67.527 32.314,67.500 32.226,67.500 31.155 C 67.500 30.034,67.488 30.000,67.083 30.000 C 66.676 30.000,66.667 29.972,66.667 28.750 L 66.667 27.500 63.500 27.500 L 60.333 27.500 60.333 28.750 M22.000 31.917 C 22.000 32.298,22.062 32.333,22.738 32.333 C 23.377 32.333,23.484 32.384,23.530 32.708 C 23.564 32.946,23.717 33.102,23.948 33.135 C 24.175 33.168,24.332 33.325,24.365 33.552 C 24.398 33.783,24.554 33.936,24.792 33.970 C 25.139 34.019,25.167 34.107,25.167 35.178 C 25.167 36.299,25.179 36.333,25.583 36.333 L 26.000 36.333 26.000 39.917 L 26.000 43.500 25.583 43.500 C 25.179 43.500,25.167 43.533,25.167 44.667 C 25.167 45.800,25.155 45.833,24.750 45.833 C 24.417 45.833,24.333 45.917,24.333 46.250 C 24.333 46.583,24.250 46.667,23.917 46.667 C 23.583 46.667,23.500 46.750,23.500 47.083 C 23.500 47.389,23.411 47.500,23.167 47.500 C 22.922 47.500,22.833 47.611,22.833 47.917 C 22.833 48.250,22.750 48.333,22.417 48.333 C 22.083 48.333,22.000 48.417,22.000 48.750 L 22.000 49.167 19.583 49.167 L 17.167 49.167 17.167 48.750 C 17.167 48.361,17.111 48.333,16.333 48.333 C 15.556 48.333,15.500 48.306,15.500 47.917 C 15.500 47.616,15.410 47.500,15.178 47.500 C 14.971 47.500,14.837 47.366,14.803 47.125 C 14.769 46.884,14.616 46.731,14.375 46.697 C 14.051 46.651,14.000 46.544,14.000 45.905 C 14.000 45.229,13.965 45.167,13.583 45.167 L 13.167 45.167 13.167 40.750 L 13.167 36.333 13.583 36.333 C 13.972 36.333,14.000 36.278,14.000 35.500 C 14.000 34.722,14.028 34.667,14.417 34.667 C 14.722 34.667,14.833 34.578,14.833 34.333 C 14.833 34.111,14.944 34.000,15.167 34.000 C 15.411 34.000,15.500 33.889,15.500 33.583 C 15.500 33.250,15.583 33.167,15.917 33.167 C 16.250 33.167,16.333 33.083,16.333 32.750 C 16.333 32.417,16.417 32.333,16.750 32.333 C 17.083 32.333,17.167 32.250,17.167 31.917 L 17.167 31.500 19.583 31.500 L 22.000 31.500 22.000 31.917 M50.667 31.917 C 50.667 32.306,50.722 32.333,51.500 32.333 L 52.333 32.333 52.333 33.167 C 52.333 33.944,52.361 34.000,52.750 34.000 C 53.056 34.000,53.167 34.089,53.167 34.333 C 53.167 34.556,53.278 34.667,53.500 34.667 C 53.810 34.667,53.833 34.778,53.833 36.250 L 53.833 37.833 48.250 37.833 L 42.667 37.833 42.667 37.083 C 42.667 36.394,42.701 36.333,43.083 36.333 C 43.472 36.333,43.500 36.278,43.500 35.500 C 43.500 34.722,43.528 34.667,43.917 34.667 C 44.299 34.667,44.333 34.606,44.333 33.917 L 44.333 33.167 45.083 33.167 C 45.772 33.167,45.833 33.133,45.833 32.750 C 45.833 32.417,45.917 32.333,46.250 32.333 C 46.583 32.333,46.667 32.250,46.667 31.917 L 46.667 31.500 48.667 31.500 L 50.667 31.500 50.667 31.917 " stroke="none" fill="#e43c34" fill-rule="evenodd"></path><path id="path1" d="M322.167 34.245 L 322.167 53.000 324.583 53.000 L 327.000 53.000 327.011 47.792 C 327.017 44.511,327.077 42.722,327.172 42.958 C 327.255 43.165,327.438 43.333,327.578 43.333 C 327.726 43.333,327.833 43.480,327.833 43.682 C 327.833 43.892,327.967 44.066,328.168 44.119 C 328.353 44.167,328.548 44.385,328.603 44.603 C 328.663 44.840,328.826 45.000,329.006 45.000 C 329.195 45.000,329.330 45.143,329.363 45.375 C 329.398 45.616,329.551 45.769,329.792 45.803 C 330.063 45.842,330.167 45.968,330.167 46.262 C 330.167 46.583,330.253 46.667,330.583 46.667 C 330.917 46.667,331.000 46.750,331.000 47.083 C 331.000 47.388,331.089 47.500,331.330 47.500 C 331.543 47.500,331.697 47.648,331.765 47.917 C 331.829 48.170,331.988 48.333,332.173 48.333 C 332.361 48.333,332.497 48.476,332.530 48.708 C 332.564 48.949,332.717 49.102,332.958 49.137 C 333.199 49.171,333.333 49.305,333.333 49.512 C 333.333 49.744,333.449 49.833,333.750 49.833 C 334.083 49.833,334.167 49.917,334.167 50.250 C 334.167 50.583,334.250 50.667,334.583 50.667 C 334.917 50.667,335.000 50.750,335.000 51.083 C 335.000 51.389,335.089 51.500,335.333 51.500 C 335.547 51.500,335.667 51.611,335.667 51.809 C 335.667 51.979,335.851 52.316,336.075 52.559 L 336.484 53.000 340.075 53.000 L 343.667 53.000 343.667 52.250 C 343.667 51.561,343.633 51.500,343.250 51.500 C 342.917 51.500,342.833 51.417,342.833 51.083 C 342.833 50.783,342.744 50.667,342.512 50.667 C 342.305 50.667,342.171 50.533,342.137 50.292 C 342.102 50.051,341.949 49.898,341.708 49.863 C 341.467 49.829,341.333 49.695,341.333 49.488 C 341.333 49.256,341.217 49.167,340.917 49.167 C 340.583 49.167,340.500 49.083,340.500 48.750 C 340.500 48.417,340.417 48.333,340.083 48.333 C 339.750 48.333,339.667 48.250,339.667 47.917 C 339.667 47.616,339.577 47.500,339.345 47.500 C 339.138 47.500,339.004 47.366,338.970 47.125 C 338.936 46.888,338.783 46.731,338.552 46.698 C 338.325 46.666,338.168 46.509,338.135 46.281 C 338.102 46.051,337.946 45.897,337.708 45.863 C 337.467 45.829,337.333 45.695,337.333 45.488 C 337.333 45.256,337.217 45.167,336.917 45.167 C 336.617 45.167,336.500 45.077,336.500 44.846 C 336.500 44.670,336.294 44.300,336.042 44.024 C 335.790 43.748,335.396 43.290,335.167 43.006 C 334.938 42.723,334.581 42.329,334.375 42.132 C 334.169 41.935,334.000 41.679,334.000 41.565 C 334.000 41.450,333.854 41.309,333.675 41.253 C 333.497 41.196,333.305 41.007,333.250 40.833 C 333.195 40.659,333.003 40.471,332.825 40.414 C 332.449 40.295,332.362 39.376,332.713 39.241 C 332.830 39.196,333.110 38.861,333.336 38.496 C 333.561 38.132,333.840 37.833,333.956 37.833 C 334.072 37.833,334.167 37.689,334.167 37.512 C 334.167 37.305,334.301 37.171,334.542 37.137 C 334.783 37.102,334.936 36.949,334.970 36.708 C 335.004 36.467,335.138 36.333,335.345 36.333 C 335.577 36.333,335.667 36.217,335.667 35.917 C 335.667 35.583,335.750 35.500,336.083 35.500 C 336.417 35.500,336.500 35.417,336.500 35.083 C 336.500 34.750,336.583 34.667,336.917 34.667 C 337.217 34.667,337.333 34.577,337.333 34.345 C 337.333 34.138,337.467 34.004,337.708 33.970 C 337.946 33.936,338.102 33.783,338.135 33.552 C 338.168 33.325,338.325 33.168,338.552 33.135 C 338.783 33.102,338.936 32.946,338.970 32.708 C 339.004 32.467,339.138 32.333,339.345 32.333 C 339.577 32.333,339.667 32.217,339.667 31.917 C 339.667 31.583,339.750 31.500,340.083 31.500 C 340.417 31.500,340.500 31.417,340.500 31.083 C 340.500 30.750,340.583 30.667,340.917 30.667 C 341.214 30.667,341.333 30.577,341.333 30.351 C 341.333 30.154,341.489 29.997,341.750 29.932 C 342.019 29.864,342.167 29.710,342.167 29.497 C 342.167 29.278,342.279 29.167,342.500 29.167 C 342.789 29.167,342.833 29.056,342.833 28.330 L 342.833 27.493 339.292 27.538 C 335.761 27.583,335.750 27.585,335.697 27.958 C 335.663 28.199,335.529 28.333,335.322 28.333 C 335.090 28.333,335.000 28.449,335.000 28.750 C 335.000 29.083,334.917 29.167,334.583 29.167 C 334.250 29.167,334.167 29.250,334.167 29.583 C 334.167 29.917,334.083 30.000,333.750 30.000 C 333.457 30.000,333.333 30.091,333.333 30.307 C 333.333 30.475,333.146 30.699,332.917 30.803 C 332.688 30.907,332.500 31.098,332.500 31.227 C 332.500 31.356,332.350 31.500,332.167 31.548 C 331.975 31.599,331.833 31.776,331.833 31.966 C 331.833 32.180,331.686 32.334,331.417 32.402 C 331.154 32.468,331.000 32.624,331.000 32.825 C 331.000 33.001,330.854 33.191,330.675 33.247 C 330.497 33.304,330.299 33.512,330.236 33.711 C 330.173 33.909,329.944 34.210,329.728 34.381 C 329.506 34.555,329.333 34.869,329.333 35.095 C 329.333 35.416,329.247 35.500,328.917 35.500 C 328.583 35.500,328.500 35.583,328.500 35.917 C 328.500 36.214,328.410 36.333,328.185 36.333 C 327.987 36.333,327.830 36.489,327.765 36.750 C 327.698 37.018,327.543 37.167,327.331 37.167 C 327.008 37.167,327.002 36.993,326.960 26.375 L 326.917 15.583 324.542 15.537 L 322.167 15.491 322.167 34.245 M386.111 15.611 C 386.050 15.672,386.000 24.110,386.000 34.361 L 386.000 53.000 388.417 53.000 L 390.833 53.000 390.833 34.250 L 390.833 15.500 388.528 15.500 C 387.260 15.500,386.172 15.550,386.111 15.611 M284.667 16.745 C 284.667 17.085,284.585 17.167,284.245 17.167 L 283.823 17.167 283.870 19.125 C 283.915 20.996,283.933 21.086,284.281 21.135 C 284.509 21.168,284.666 21.325,284.698 21.552 C 284.781 22.132,289.387 22.122,289.470 21.542 C 289.504 21.301,289.638 21.167,289.845 21.167 C 290.145 21.167,290.167 21.032,290.167 19.167 C 290.167 17.302,290.145 17.167,289.845 17.167 C 289.638 17.167,289.504 17.033,289.470 16.792 C 289.418 16.425,289.362 16.416,287.042 16.370 L 284.667 16.324 284.667 16.745 M92.106 26.783 C 91.816 26.829,91.596 26.985,91.545 27.180 C 91.484 27.414,91.314 27.500,90.911 27.500 C 90.145 27.500,89.833 27.650,89.833 28.018 C 89.833 28.243,89.714 28.333,89.417 28.333 C 89.083 28.333,89.000 28.417,89.000 28.750 C 89.000 29.083,88.917 29.167,88.583 29.167 C 88.250 29.167,88.167 29.250,88.167 29.583 C 88.167 29.889,88.078 30.000,87.833 30.000 C 87.589 30.000,87.500 30.111,87.500 30.417 C 87.500 30.671,87.405 30.833,87.256 30.833 C 86.767 30.833,86.667 31.482,86.667 34.656 L 86.667 37.833 87.083 37.833 C 87.466 37.833,87.500 37.895,87.500 38.580 C 87.500 39.238,87.550 39.339,87.917 39.432 C 88.166 39.494,88.333 39.655,88.333 39.834 C 88.333 40.174,88.653 40.333,89.335 40.333 C 89.700 40.333,89.822 40.420,89.863 40.707 C 89.894 40.921,90.057 41.107,90.248 41.143 C 90.431 41.178,90.679 41.348,90.799 41.520 C 90.972 41.767,91.229 41.833,92.009 41.833 C 92.955 41.833,93.000 41.852,93.000 42.250 C 93.000 42.638,93.056 42.667,93.822 42.667 C 94.547 42.667,94.650 42.711,94.697 43.042 C 94.741 43.353,94.869 43.425,95.458 43.468 C 95.848 43.496,96.167 43.584,96.167 43.664 C 96.167 43.992,96.726 44.333,97.262 44.333 C 97.760 44.333,97.833 44.387,97.833 44.750 C 97.833 45.083,97.917 45.167,98.250 45.167 C 98.654 45.167,98.667 45.201,98.667 46.315 C 98.667 47.401,98.644 47.470,98.250 47.568 C 97.987 47.634,97.833 47.791,97.833 47.992 C 97.833 48.195,97.698 48.329,97.458 48.363 C 97.217 48.398,97.064 48.551,97.030 48.792 C 96.942 49.410,91.646 49.373,91.069 48.750 C 90.755 48.412,90.525 48.333,89.841 48.333 C 89.055 48.333,89.000 48.306,89.000 47.917 C 89.000 47.586,88.916 47.500,88.595 47.500 C 88.336 47.500,88.151 47.380,88.083 47.167 C 87.949 46.744,86.924 46.690,86.768 47.097 C 86.712 47.242,86.667 48.629,86.667 50.180 L 86.667 53.000 87.399 53.000 C 88.041 53.000,88.143 53.051,88.236 53.419 L 88.341 53.838 93.712 53.794 L 99.083 53.750 99.248 53.375 C 99.382 53.069,99.545 53.000,100.138 53.000 C 100.717 53.000,100.882 52.934,100.949 52.676 C 100.996 52.498,101.195 52.329,101.392 52.301 C 101.613 52.270,101.770 52.110,101.802 51.885 C 101.834 51.658,101.991 51.501,102.219 51.469 C 102.449 51.436,102.603 51.279,102.637 51.042 C 102.671 50.801,102.805 50.667,103.012 50.667 C 103.241 50.667,103.333 50.551,103.333 50.261 C 103.333 50.010,103.453 49.818,103.649 49.756 C 104.111 49.609,104.162 49.227,104.164 45.878 L 104.167 42.840 103.750 42.735 C 103.451 42.660,103.333 42.518,103.333 42.232 C 103.333 41.990,103.236 41.833,103.086 41.833 C 102.949 41.833,102.731 41.577,102.600 41.263 C 102.347 40.658,101.908 40.333,101.344 40.333 C 101.088 40.333,101.000 40.227,101.000 39.917 C 101.000 39.550,100.929 39.500,100.405 39.500 C 99.822 39.500,99.333 39.201,99.333 38.845 C 99.333 38.745,99.006 38.667,98.583 38.667 C 97.944 38.667,97.833 38.617,97.833 38.333 C 97.833 38.049,97.722 38.000,97.079 38.000 C 96.428 38.000,96.303 37.943,96.167 37.583 C 96.031 37.226,95.904 37.167,95.274 37.167 C 94.683 37.167,94.522 37.102,94.453 36.838 C 94.392 36.605,94.169 36.478,93.683 36.400 C 93.106 36.308,93.000 36.229,93.000 35.895 C 93.000 35.585,92.911 35.500,92.583 35.500 C 92.179 35.500,92.167 35.465,92.167 34.351 C 92.167 33.265,92.189 33.197,92.583 33.098 C 92.846 33.032,93.000 32.876,93.000 32.675 C 93.000 32.472,93.135 32.337,93.375 32.303 C 93.616 32.269,93.769 32.116,93.803 31.875 C 93.873 31.387,99.500 31.268,99.500 31.754 C 99.500 32.087,100.174 32.333,101.083 32.333 C 101.671 32.333,101.832 32.399,101.920 32.676 C 102.008 32.953,102.144 33.009,102.639 32.968 L 103.250 32.917 103.296 30.208 C 103.341 27.548,103.335 27.500,102.989 27.500 C 102.795 27.500,102.500 27.331,102.333 27.125 C 102.038 26.760,93.949 26.490,92.106 26.783 M138.042 26.839 C 137.835 26.921,137.667 27.104,137.667 27.245 C 137.667 27.431,137.489 27.500,137.011 27.500 C 136.178 27.500,135.500 27.755,135.500 28.068 C 135.500 28.209,135.308 28.333,135.042 28.364 C 134.718 28.401,134.568 28.524,134.531 28.781 C 134.499 29.009,134.342 29.166,134.115 29.198 C 133.884 29.231,133.730 29.388,133.697 29.625 C 133.663 29.866,133.529 30.000,133.322 30.000 C 133.115 30.000,133.000 30.115,133.000 30.322 C 133.000 30.529,132.866 30.663,132.625 30.697 C 132.388 30.730,132.231 30.884,132.198 31.115 C 132.166 31.342,132.009 31.499,131.781 31.531 C 131.473 31.575,131.409 31.707,131.366 32.375 C 131.320 33.090,131.275 33.167,130.908 33.167 C 130.537 33.167,130.500 33.233,130.500 33.905 C 130.500 34.481,130.431 34.666,130.188 34.743 C 129.807 34.864,129.671 35.571,129.669 37.439 C 129.667 38.653,129.632 38.804,129.333 38.882 C 129.026 38.962,129.000 39.109,129.000 40.750 C 129.000 42.391,129.026 42.538,129.333 42.618 C 129.628 42.695,129.667 42.846,129.667 43.913 C 129.667 45.821,129.824 46.667,130.180 46.667 C 130.422 46.667,130.492 46.824,130.533 47.458 C 130.575 48.128,130.640 48.258,130.949 48.302 C 131.249 48.345,131.324 48.479,131.366 49.052 C 131.408 49.630,131.481 49.759,131.792 49.803 C 132.063 49.842,132.167 49.968,132.167 50.262 C 132.167 50.583,132.253 50.667,132.583 50.667 C 132.917 50.667,133.000 50.750,133.000 51.083 C 133.000 51.391,133.089 51.500,133.339 51.500 C 133.525 51.500,133.726 51.631,133.785 51.792 C 133.937 52.203,134.170 52.328,134.792 52.331 C 135.221 52.333,135.333 52.402,135.333 52.667 C 135.333 52.956,135.444 53.000,136.167 53.000 C 136.944 53.000,137.000 53.028,137.000 53.417 L 137.000 53.833 142.080 53.833 L 147.160 53.833 147.265 53.417 C 147.357 53.051,147.460 53.000,148.101 53.000 C 148.708 53.000,148.833 52.946,148.833 52.685 C 148.833 52.487,148.989 52.330,149.250 52.265 L 149.667 52.160 149.667 49.830 L 149.667 47.500 148.345 47.500 C 147.059 47.500,146.500 47.706,146.500 48.179 C 146.500 48.264,146.308 48.333,146.072 48.333 C 145.513 48.333,145.000 48.615,145.000 48.923 C 145.000 49.127,144.568 49.167,142.361 49.167 L 139.723 49.167 139.500 48.750 C 139.363 48.494,139.132 48.333,138.900 48.333 C 138.636 48.333,138.507 48.221,138.470 47.958 C 138.436 47.717,138.283 47.564,138.042 47.530 C 137.835 47.501,137.667 47.372,137.667 47.244 C 137.667 47.116,137.522 46.934,137.345 46.839 C 137.167 46.745,136.976 46.521,136.919 46.342 C 136.863 46.163,136.670 45.971,136.491 45.914 C 136.301 45.854,136.166 45.660,136.164 45.447 C 136.160 44.753,135.965 44.333,135.647 44.333 C 135.349 44.333,135.333 44.143,135.333 40.504 L 135.333 36.674 135.741 36.407 C 136.027 36.220,136.163 35.959,136.199 35.529 C 136.236 35.082,136.352 34.872,136.625 34.752 C 136.831 34.662,137.000 34.464,137.000 34.313 C 137.000 34.162,137.150 34.000,137.333 33.952 C 137.533 33.900,137.667 33.724,137.667 33.516 C 137.667 33.255,137.772 33.167,138.083 33.167 C 138.417 33.167,138.500 33.083,138.500 32.750 C 138.500 32.368,138.561 32.333,139.247 32.333 C 139.904 32.333,140.006 32.284,140.098 31.917 L 140.203 31.500 142.923 31.500 C 145.617 31.500,145.644 31.504,145.697 31.875 C 145.731 32.118,145.884 32.269,146.130 32.304 C 146.338 32.333,146.695 32.543,146.921 32.770 C 147.291 33.139,147.449 33.177,148.458 33.133 L 149.583 33.083 149.629 30.429 C 149.680 27.533,149.671 27.507,148.720 27.503 C 148.348 27.501,148.159 27.406,148.090 27.187 C 148.032 27.006,147.772 26.829,147.474 26.770 C 146.672 26.609,138.463 26.669,138.042 26.839 M182.792 26.782 C 182.631 26.823,182.500 26.998,182.500 27.170 C 182.500 27.424,182.353 27.491,181.708 27.533 C 181.033 27.576,180.909 27.638,180.863 27.958 C 180.822 28.247,180.701 28.333,180.335 28.333 C 179.649 28.333,179.333 28.493,179.333 28.840 C 179.333 29.028,179.191 29.164,178.958 29.197 C 178.721 29.230,178.564 29.384,178.531 29.615 C 178.499 29.842,178.342 29.999,178.115 30.031 C 177.815 30.074,177.741 30.209,177.699 30.792 C 177.653 31.418,177.600 31.500,177.240 31.500 C 176.917 31.500,176.833 31.586,176.833 31.917 C 176.833 32.179,176.739 32.333,176.579 32.333 C 176.295 32.333,176.000 32.976,176.000 33.594 C 176.000 33.817,175.850 34.150,175.667 34.333 C 175.378 34.622,175.333 34.889,175.333 36.326 C 175.333 37.880,175.307 38.012,174.910 38.408 C 174.302 39.016,174.340 41.715,174.958 41.803 C 175.327 41.856,175.333 41.894,175.333 44.262 C 175.333 46.556,175.349 46.667,175.667 46.667 C 175.934 46.667,176.000 46.778,176.000 47.229 C 176.000 48.198,176.190 48.818,176.520 48.923 C 176.714 48.984,176.833 49.177,176.833 49.428 C 176.833 49.749,176.920 49.833,177.250 49.833 C 177.583 49.833,177.667 49.917,177.667 50.250 C 177.667 50.583,177.750 50.667,178.083 50.667 C 178.417 50.667,178.500 50.750,178.500 51.083 C 178.500 51.381,178.590 51.500,178.815 51.500 C 179.013 51.500,179.170 51.656,179.235 51.917 C 179.300 52.175,179.458 52.333,179.650 52.333 C 179.821 52.333,180.000 52.483,180.048 52.667 C 180.119 52.938,180.276 53.000,180.889 53.000 C 181.545 53.000,181.650 53.049,181.697 53.375 L 181.750 53.750 187.250 53.750 L 192.750 53.750 192.803 53.375 C 192.849 53.051,192.956 53.000,193.595 53.000 C 194.222 53.000,194.333 52.950,194.333 52.667 C 194.333 52.398,194.444 52.333,194.903 52.333 C 196.030 52.333,196.000 52.413,196.000 49.391 L 196.000 46.651 194.875 46.701 C 193.853 46.745,193.745 46.784,193.697 47.125 C 193.658 47.396,193.532 47.500,193.238 47.500 C 192.917 47.500,192.833 47.587,192.833 47.917 C 192.833 48.305,192.777 48.333,192.012 48.333 C 191.335 48.333,191.133 48.406,190.863 48.750 C 190.536 49.165,190.527 49.167,187.684 49.167 L 184.833 49.167 184.833 48.750 C 184.833 48.361,184.778 48.333,184.000 48.333 C 183.222 48.333,183.167 48.306,183.167 47.917 C 183.167 47.616,183.077 47.500,182.845 47.500 C 182.638 47.500,182.504 47.366,182.470 47.125 C 182.436 46.884,182.283 46.731,182.042 46.697 C 181.717 46.651,181.667 46.544,181.667 45.905 C 181.667 45.229,181.632 45.167,181.250 45.167 C 180.843 45.167,180.833 45.139,180.833 43.918 L 180.833 42.670 189.208 42.627 L 197.583 42.583 197.583 38.193 C 197.583 33.878,197.577 33.799,197.218 33.508 C 196.951 33.292,196.840 32.994,196.802 32.398 C 196.757 31.699,196.697 31.576,196.375 31.530 C 196.100 31.491,196.000 31.365,196.000 31.061 C 196.000 30.512,195.715 30.000,195.411 30.000 C 195.262 30.000,195.167 29.838,195.167 29.583 C 195.167 29.250,195.083 29.167,194.750 29.167 C 194.417 29.167,194.333 29.083,194.333 28.750 C 194.333 28.422,194.249 28.333,193.936 28.333 C 193.681 28.333,193.508 28.216,193.453 28.005 C 193.392 27.773,193.170 27.644,192.698 27.569 C 192.264 27.500,192.002 27.361,191.953 27.173 C 191.837 26.729,184.237 26.404,182.792 26.782 M211.202 26.785 C 210.992 26.825,210.730 27.003,210.620 27.179 C 210.510 27.356,210.250 27.500,210.043 27.500 C 209.755 27.500,209.667 27.596,209.667 27.907 C 209.667 28.267,209.584 28.320,208.958 28.365 C 208.411 28.405,208.213 28.502,208.085 28.792 C 207.995 28.998,207.795 29.167,207.641 29.167 C 207.487 29.167,207.323 29.260,207.277 29.375 C 207.231 29.490,207.187 29.113,207.180 28.537 L 207.167 27.491 204.792 27.537 L 202.417 27.583 202.417 45.917 L 202.417 64.250 204.792 64.296 L 207.167 64.342 207.167 57.929 L 207.167 51.515 207.576 51.924 C 207.801 52.149,208.176 52.333,208.409 52.333 C 208.722 52.333,208.833 52.421,208.833 52.667 C 208.833 52.911,208.944 53.000,209.250 53.000 C 209.505 53.000,209.667 53.095,209.667 53.244 C 209.667 53.771,210.291 53.839,214.703 53.794 L 219.083 53.750 219.137 53.375 C 219.183 53.049,219.289 53.000,219.944 53.000 C 220.558 53.000,220.714 52.938,220.785 52.667 C 220.833 52.482,221.012 52.333,221.186 52.333 C 221.410 52.333,221.500 52.214,221.500 51.917 C 221.500 51.583,221.583 51.500,221.917 51.500 C 222.250 51.500,222.333 51.417,222.333 51.083 C 222.333 50.750,222.417 50.667,222.750 50.667 C 223.080 50.667,223.167 50.583,223.167 50.262 C 223.167 49.968,223.270 49.842,223.542 49.803 C 223.776 49.770,223.936 49.616,223.968 49.392 C 223.996 49.195,224.153 48.999,224.317 48.956 C 224.612 48.879,224.833 48.210,224.833 47.397 C 224.833 47.180,224.983 46.909,225.167 46.795 C 225.446 46.620,225.500 46.406,225.500 45.478 C 225.500 44.435,225.524 44.363,225.917 44.265 L 226.333 44.160 226.333 39.924 C 226.333 35.692,226.236 34.833,225.754 34.833 C 225.550 34.833,225.500 34.599,225.500 33.651 C 225.500 32.630,225.457 32.458,225.183 32.386 C 224.957 32.327,224.835 32.094,224.756 31.568 C 224.670 30.990,224.577 30.833,224.323 30.833 C 224.090 30.833,224.000 30.718,224.000 30.417 C 224.000 30.083,223.917 30.000,223.583 30.000 C 223.250 30.000,223.167 29.917,223.167 29.583 C 223.167 29.250,223.083 29.167,222.750 29.167 C 222.417 29.167,222.333 29.083,222.333 28.750 C 222.333 28.417,222.250 28.333,221.917 28.333 C 221.583 28.333,221.500 28.250,221.500 27.917 C 221.500 27.534,221.439 27.500,220.750 27.500 C 220.127 27.500,220.000 27.447,220.000 27.186 C 220.000 27.001,219.846 26.831,219.625 26.772 C 219.205 26.659,211.798 26.671,211.202 26.785 M235.458 26.782 C 235.298 26.823,235.167 26.999,235.167 27.171 C 235.167 27.442,235.014 27.491,234.042 27.534 C 233.019 27.579,232.912 27.618,232.863 27.958 C 232.819 28.272,232.707 28.333,232.175 28.333 C 231.200 28.333,231.152 28.483,231.204 31.356 L 231.250 33.917 232.333 33.965 C 233.324 34.009,233.431 33.980,233.583 33.632 C 233.675 33.423,233.900 33.230,234.083 33.203 C 234.986 33.070,235.167 32.980,235.167 32.663 C 235.167 32.383,235.280 32.333,235.917 32.333 C 236.606 32.333,236.667 32.299,236.667 31.917 L 236.667 31.500 239.500 31.500 L 242.333 31.500 242.333 31.917 C 242.333 32.247,242.417 32.333,242.738 32.333 C 243.032 32.333,243.158 32.437,243.197 32.708 C 243.231 32.949,243.384 33.102,243.625 33.137 C 243.956 33.184,244.000 33.286,244.000 34.012 C 244.000 34.611,244.090 34.923,244.333 35.167 C 244.517 35.350,244.667 35.686,244.667 35.912 L 244.667 36.325 242.042 36.371 C 239.500 36.415,239.411 36.429,239.252 36.792 C 239.095 37.150,239.000 37.167,237.127 37.167 C 235.321 37.167,235.167 37.191,235.167 37.479 C 235.167 37.817,234.597 38.000,233.547 38.000 C 233.109 38.000,232.948 38.081,232.882 38.333 C 232.825 38.549,232.654 38.667,232.397 38.667 C 232.085 38.667,232.000 38.755,232.000 39.083 C 232.000 39.417,231.917 39.500,231.583 39.500 C 231.250 39.500,231.167 39.583,231.167 39.917 C 231.167 40.250,231.083 40.333,230.750 40.333 C 230.417 40.333,230.333 40.417,230.333 40.750 C 230.333 41.048,230.243 41.167,230.018 41.167 C 229.615 41.167,229.500 41.479,229.500 42.578 C 229.500 43.321,229.447 43.475,229.167 43.548 C 228.631 43.688,228.635 48.079,229.171 48.455 C 229.402 48.617,229.497 48.922,229.533 49.629 C 229.578 50.474,229.626 50.589,229.958 50.637 C 230.230 50.675,230.333 50.802,230.333 51.095 C 230.333 51.416,230.420 51.500,230.750 51.500 C 231.083 51.500,231.167 51.583,231.167 51.917 C 231.167 52.250,231.250 52.333,231.583 52.333 C 231.889 52.333,232.000 52.422,232.000 52.667 C 232.000 52.902,232.111 53.000,232.377 53.000 C 232.608 53.000,232.818 53.145,232.919 53.375 C 233.082 53.748,233.110 53.750,237.250 53.797 C 241.840 53.849,242.167 53.818,242.167 53.330 C 242.167 53.074,242.279 53.000,242.667 53.000 C 243.056 53.000,243.167 52.926,243.167 52.667 C 243.167 52.442,243.278 52.333,243.508 52.333 C 243.695 52.333,244.033 52.149,244.258 51.924 L 244.667 51.515 244.667 52.258 L 244.667 53.000 247.500 53.000 L 250.333 53.000 250.333 43.658 C 250.333 34.031,250.288 33.333,249.662 33.333 C 249.572 33.333,249.500 32.788,249.500 32.095 C 249.500 30.938,249.475 30.853,249.125 30.803 C 248.815 30.759,248.736 30.620,248.667 30.000 C 248.598 29.380,248.518 29.241,248.208 29.197 C 247.937 29.158,247.833 29.032,247.833 28.738 C 247.833 28.417,247.747 28.333,247.417 28.333 C 247.119 28.333,247.000 28.243,247.000 28.018 C 247.000 27.659,246.690 27.500,245.986 27.500 C 245.622 27.500,245.500 27.422,245.500 27.188 C 245.500 26.958,245.337 26.850,244.875 26.774 C 244.169 26.657,235.908 26.664,235.458 26.782 M265.189 26.787 C 264.972 26.828,264.757 27.005,264.711 27.181 C 264.662 27.368,264.481 27.501,264.272 27.502 C 263.586 27.507,263.167 27.703,263.167 28.019 C 263.167 28.243,263.047 28.333,262.750 28.333 C 262.417 28.333,262.333 28.417,262.333 28.750 C 262.333 29.083,262.250 29.167,261.917 29.167 C 261.528 29.167,261.500 29.111,261.500 28.333 L 261.500 27.500 259.083 27.500 L 256.667 27.500 256.667 40.250 L 256.667 53.000 259.083 53.000 L 261.500 53.000 261.500 45.853 C 261.500 39.045,261.515 38.702,261.808 38.625 C 262.136 38.539,262.333 37.639,262.333 36.233 C 262.333 35.682,262.412 35.470,262.667 35.333 C 262.898 35.209,263.000 34.984,263.000 34.596 C 263.000 34.138,263.076 34.017,263.417 33.932 C 263.676 33.867,263.833 33.709,263.833 33.515 C 263.833 33.321,263.991 33.163,264.250 33.098 C 264.519 33.031,264.667 32.877,264.667 32.663 C 264.667 32.422,264.779 32.333,265.083 32.333 C 265.417 32.333,265.500 32.250,265.500 31.917 L 265.500 31.500 267.917 31.500 L 270.333 31.500 270.333 31.917 C 270.333 32.214,270.423 32.333,270.649 32.333 C 270.846 32.333,271.003 32.489,271.068 32.750 C 271.135 33.014,271.291 33.167,271.494 33.167 C 271.752 33.167,271.824 33.305,271.865 33.875 C 271.908 34.464,271.980 34.592,272.292 34.637 L 272.667 34.690 272.667 43.845 L 272.667 53.000 275.417 53.000 L 278.167 53.000 278.167 42.667 C 278.167 32.444,278.163 32.333,277.833 32.333 C 277.556 32.333,277.500 32.222,277.500 31.675 C 277.500 30.897,277.204 30.167,276.890 30.167 C 276.753 30.167,276.667 29.973,276.667 29.667 C 276.667 29.244,276.602 29.167,276.250 29.167 C 275.917 29.167,275.833 29.083,275.833 28.750 C 275.833 28.420,275.749 28.333,275.428 28.333 C 275.135 28.333,275.008 28.230,274.970 27.958 C 274.926 27.647,274.797 27.575,274.208 27.532 C 273.652 27.492,273.500 27.415,273.500 27.177 C 273.500 27.002,273.340 26.829,273.125 26.772 C 272.702 26.658,265.798 26.671,265.189 26.787 M300.958 26.782 C 300.798 26.823,300.667 26.999,300.667 27.171 C 300.667 27.442,300.514 27.491,299.542 27.534 C 298.559 27.577,298.396 27.631,298.252 27.958 C 298.134 28.227,297.945 28.334,297.585 28.336 C 296.666 28.341,296.654 28.379,296.704 31.263 L 296.750 33.917 297.768 33.966 C 298.694 34.010,298.810 33.977,299.056 33.601 C 299.234 33.329,299.513 33.170,299.872 33.136 C 300.247 33.100,300.468 32.966,300.581 32.708 C 300.715 32.404,300.879 32.333,301.456 32.333 C 302.103 32.333,302.167 32.296,302.167 31.917 L 302.167 31.500 305.000 31.500 L 307.833 31.500 307.833 31.917 C 307.833 32.250,307.917 32.333,308.250 32.333 C 308.562 32.333,308.667 32.421,308.667 32.682 C 308.667 32.884,308.799 33.066,308.980 33.113 C 309.220 33.176,309.313 33.394,309.375 34.045 C 309.433 34.644,309.562 34.980,309.812 35.183 C 310.009 35.342,310.167 35.662,310.167 35.902 L 310.167 36.333 307.680 36.333 C 304.958 36.333,304.667 36.383,304.667 36.851 C 304.667 37.143,304.518 37.167,302.667 37.167 C 300.822 37.167,300.667 37.191,300.667 37.479 C 300.667 37.824,300.095 38.000,298.979 38.000 C 298.444 38.000,298.333 38.057,298.333 38.333 C 298.333 38.577,298.222 38.667,297.920 38.667 C 297.618 38.667,297.478 38.779,297.402 39.083 C 297.336 39.344,297.179 39.500,296.982 39.500 C 296.757 39.500,296.667 39.619,296.667 39.917 C 296.667 40.250,296.583 40.333,296.250 40.333 C 295.920 40.333,295.833 40.417,295.833 40.738 C 295.833 41.032,295.730 41.158,295.458 41.197 C 295.118 41.245,295.079 41.353,295.034 42.375 C 294.992 43.338,294.941 43.500,294.678 43.500 C 293.985 43.500,293.895 47.732,294.575 48.368 C 294.895 48.667,294.994 48.948,295.033 49.667 C 295.077 50.472,295.129 50.590,295.458 50.637 C 295.730 50.675,295.833 50.802,295.833 51.095 C 295.833 51.416,295.920 51.500,296.250 51.500 C 296.583 51.500,296.667 51.583,296.667 51.917 C 296.667 52.214,296.757 52.333,296.981 52.333 C 297.154 52.333,297.333 52.482,297.382 52.667 C 297.441 52.892,297.609 53.000,297.901 53.000 C 298.214 53.000,298.333 53.087,298.333 53.316 C 298.333 53.805,298.588 53.833,303.000 53.833 C 307.412 53.833,307.667 53.805,307.667 53.316 C 307.667 53.090,307.786 53.000,308.083 53.000 C 308.389 53.000,308.500 52.911,308.500 52.667 C 308.500 52.421,308.611 52.333,308.924 52.333 C 309.158 52.333,309.533 52.149,309.758 51.924 L 310.167 51.515 310.167 52.262 L 310.167 53.008 312.958 52.962 L 315.750 52.917 315.797 43.917 C 315.845 34.782,315.784 33.645,315.231 33.433 C 315.064 33.368,315.000 33.017,315.000 32.168 C 315.000 31.067,314.973 30.982,314.583 30.833 C 314.269 30.714,314.167 30.554,314.167 30.184 C 314.167 29.477,314.009 29.167,313.649 29.167 C 313.423 29.167,313.333 29.048,313.333 28.750 C 313.333 28.417,313.250 28.333,312.917 28.333 C 312.619 28.333,312.500 28.243,312.500 28.018 C 312.500 27.662,312.190 27.500,311.506 27.500 C 311.192 27.500,311.012 27.399,310.958 27.192 C 310.910 27.006,310.663 26.841,310.335 26.775 C 309.733 26.655,301.421 26.661,300.958 26.782 M366.041 26.784 C 365.835 26.824,365.588 27.001,365.494 27.178 C 365.395 27.363,365.146 27.500,364.911 27.500 C 364.584 27.500,364.500 27.585,364.500 27.917 C 364.500 28.292,364.434 28.333,363.829 28.333 C 363.277 28.333,363.132 28.403,363.009 28.727 C 362.926 28.944,362.710 29.160,362.527 29.208 C 362.344 29.256,362.161 29.472,362.120 29.689 C 362.079 29.906,362.035 29.502,362.023 28.792 L 362.000 27.500 359.667 27.500 L 357.333 27.500 357.333 45.917 L 357.333 64.333 359.667 64.333 L 362.000 64.333 362.013 57.708 C 362.022 53.288,362.079 51.228,362.186 51.518 C 362.341 51.941,362.937 52.333,363.425 52.333 C 363.558 52.333,363.667 52.483,363.667 52.667 C 363.667 52.911,363.778 53.000,364.083 53.000 C 364.313 53.000,364.500 53.070,364.500 53.155 C 364.500 53.777,364.913 53.833,369.512 53.833 L 374.000 53.833 374.000 53.417 C 374.000 53.028,374.056 53.000,374.833 53.000 C 375.546 53.000,375.667 52.953,375.667 52.678 C 375.667 52.471,375.801 52.337,376.042 52.303 C 376.283 52.269,376.436 52.116,376.470 51.875 C 376.504 51.634,376.638 51.500,376.845 51.500 C 377.077 51.500,377.167 51.384,377.167 51.083 C 377.167 50.750,377.250 50.667,377.583 50.667 C 377.917 50.667,378.000 50.583,378.000 50.250 C 378.000 49.917,378.083 49.833,378.417 49.833 C 378.750 49.833,378.833 49.750,378.833 49.417 C 378.833 49.154,378.928 49.000,379.087 49.000 C 379.398 49.000,379.667 48.341,379.667 47.576 C 379.667 47.154,379.774 46.938,380.083 46.735 C 380.455 46.491,380.500 46.348,380.500 45.409 C 380.500 44.502,380.546 44.341,380.833 44.250 C 381.156 44.148,381.167 43.998,381.167 39.657 C 381.167 35.350,381.153 35.161,380.833 34.961 C 380.599 34.815,380.500 34.573,380.500 34.147 C 380.500 33.132,380.304 32.461,379.983 32.377 C 379.768 32.321,379.670 32.106,379.634 31.608 C 379.592 31.037,379.518 30.907,379.208 30.863 C 378.937 30.825,378.833 30.698,378.833 30.405 C 378.833 30.084,378.747 30.000,378.417 30.000 C 378.083 30.000,378.000 29.917,378.000 29.583 C 378.000 29.250,377.917 29.167,377.583 29.167 C 377.250 29.167,377.167 29.083,377.167 28.750 C 377.167 28.449,377.077 28.333,376.845 28.333 C 376.638 28.333,376.504 28.199,376.470 27.958 C 376.424 27.638,376.301 27.576,375.625 27.533 C 374.988 27.492,374.833 27.422,374.833 27.177 C 374.833 27.002,374.674 26.829,374.458 26.772 C 374.040 26.660,366.631 26.671,366.041 26.784 M106.704 29.875 L 106.750 32.250 112.685 32.294 L 118.620 32.337 118.540 32.752 C 118.489 33.019,118.349 33.167,118.147 33.167 C 117.920 33.167,117.833 33.287,117.833 33.601 C 117.833 33.866,117.671 34.163,117.417 34.363 C 117.183 34.547,117.000 34.863,117.000 35.084 C 117.000 35.364,116.893 35.492,116.625 35.530 C 116.384 35.564,116.231 35.717,116.197 35.958 C 116.164 36.191,116.028 36.333,115.840 36.333 C 115.480 36.333,115.333 36.651,115.333 37.430 C 115.333 37.897,115.270 38.000,114.984 38.000 C 114.781 38.000,114.601 38.133,114.552 38.318 C 114.507 38.493,114.326 38.673,114.151 38.719 C 113.976 38.765,113.833 38.947,113.833 39.124 C 113.833 39.306,113.652 39.529,113.417 39.636 C 113.073 39.793,113.000 39.943,113.000 40.496 C 113.000 41.100,112.959 41.167,112.583 41.167 C 112.253 41.167,112.167 41.251,112.167 41.572 C 112.167 41.865,112.063 41.992,111.792 42.030 C 111.546 42.065,111.398 42.217,111.362 42.472 C 111.331 42.685,111.163 43.004,110.987 43.180 C 110.811 43.356,110.667 43.688,110.667 43.917 C 110.667 44.250,110.583 44.333,110.250 44.333 C 109.920 44.333,109.833 44.417,109.833 44.738 C 109.833 45.032,109.730 45.158,109.458 45.197 C 109.147 45.241,109.075 45.369,109.032 45.958 C 108.987 46.584,108.934 46.667,108.574 46.667 C 108.254 46.667,108.167 46.753,108.167 47.072 C 108.167 47.365,108.063 47.492,107.792 47.530 C 107.557 47.563,107.398 47.717,107.366 47.941 C 107.338 48.138,107.169 48.337,106.991 48.384 C 106.737 48.450,106.667 48.615,106.667 49.139 C 106.667 49.708,106.610 49.818,106.292 49.863 C 105.938 49.914,105.914 50.003,105.869 51.458 L 105.821 53.000 116.577 53.000 L 127.333 53.000 127.333 50.667 L 127.333 48.333 120.625 48.314 C 116.935 48.303,114.048 48.260,114.208 48.218 C 114.431 48.160,114.500 47.967,114.500 47.404 C 114.500 46.729,114.535 46.667,114.917 46.667 C 115.250 46.667,115.333 46.583,115.333 46.250 C 115.333 45.917,115.417 45.833,115.750 45.833 C 116.078 45.833,116.167 45.749,116.167 45.436 C 116.167 45.181,116.284 45.008,116.495 44.953 C 116.728 44.892,116.856 44.670,116.932 44.192 C 117.015 43.674,117.122 43.506,117.395 43.467 C 117.616 43.436,117.770 43.275,117.803 43.042 C 117.837 42.805,117.972 42.667,118.168 42.667 C 118.408 42.667,118.492 42.523,118.532 42.042 C 118.570 41.582,118.683 41.373,118.958 41.252 C 119.183 41.153,119.333 40.941,119.333 40.722 C 119.333 40.470,119.450 40.340,119.708 40.303 C 119.949 40.269,120.102 40.116,120.137 39.875 C 120.166 39.669,120.299 39.500,120.432 39.500 C 120.706 39.500,121.000 38.848,121.000 38.239 C 121.000 37.917,121.086 37.833,121.417 37.833 C 121.717 37.833,121.833 37.744,121.833 37.511 C 121.833 37.334,121.983 37.142,122.167 37.083 C 122.374 37.018,122.500 36.831,122.500 36.592 C 122.500 36.348,122.621 36.174,122.829 36.120 C 123.062 36.059,123.189 35.835,123.267 35.350 C 123.359 34.773,123.437 34.667,123.771 34.667 C 124.061 34.667,124.167 34.574,124.167 34.318 C 124.167 34.115,124.300 33.934,124.485 33.886 C 124.809 33.801,124.994 33.378,124.998 32.708 C 124.999 32.445,125.099 32.333,125.333 32.333 C 125.578 32.333,125.667 32.222,125.667 31.917 C 125.667 31.583,125.750 31.500,126.083 31.500 C 126.405 31.500,126.500 31.414,126.500 31.123 C 126.500 30.892,126.645 30.682,126.875 30.581 C 127.217 30.431,127.254 30.288,127.298 28.958 L 127.346 27.500 117.002 27.500 L 106.658 27.500 106.704 29.875 M152.204 29.875 L 152.250 32.250 158.225 32.294 C 163.574 32.333,164.190 32.365,164.100 32.599 C 164.045 32.743,164.000 32.929,164.000 33.014 C 164.000 33.098,163.850 33.167,163.667 33.167 C 163.419 33.167,163.333 33.278,163.333 33.601 C 163.333 33.866,163.171 34.163,162.917 34.363 C 162.683 34.547,162.500 34.863,162.500 35.084 C 162.500 35.364,162.393 35.492,162.125 35.530 C 161.884 35.564,161.731 35.717,161.697 35.958 C 161.664 36.190,161.528 36.333,161.341 36.333 C 161.021 36.333,160.839 36.768,160.836 37.542 C 160.834 37.888,160.752 38.000,160.500 38.000 C 160.282 38.000,160.167 38.111,160.167 38.322 C 160.167 38.529,160.033 38.663,159.792 38.697 C 159.559 38.730,159.398 38.884,159.366 39.102 C 159.339 39.296,159.133 39.538,158.908 39.640 C 158.574 39.793,158.500 39.947,158.500 40.496 C 158.500 41.100,158.459 41.167,158.083 41.167 C 157.750 41.167,157.667 41.250,157.667 41.583 C 157.667 41.888,157.578 42.000,157.337 42.000 C 157.119 42.000,156.969 42.150,156.896 42.441 C 156.835 42.683,156.646 43.021,156.476 43.191 C 156.306 43.361,156.167 43.688,156.167 43.917 C 156.167 44.250,156.083 44.333,155.750 44.333 C 155.420 44.333,155.333 44.417,155.333 44.738 C 155.333 45.032,155.230 45.158,154.958 45.197 C 154.647 45.241,154.575 45.369,154.532 45.958 C 154.487 46.584,154.434 46.667,154.074 46.667 C 153.751 46.667,153.667 46.753,153.667 47.083 C 153.667 47.388,153.578 47.500,153.337 47.500 C 153.127 47.500,152.970 47.646,152.906 47.901 C 152.850 48.121,152.661 48.339,152.486 48.385 C 152.238 48.450,152.167 48.619,152.167 49.139 C 152.167 49.708,152.110 49.818,151.792 49.863 C 151.438 49.914,151.414 50.003,151.369 51.458 L 151.321 53.000 162.077 53.000 L 172.833 53.000 172.833 50.667 L 172.833 48.333 166.125 48.314 C 162.435 48.303,159.548 48.260,159.708 48.218 C 159.931 48.160,160.000 47.967,160.000 47.404 C 160.000 46.729,160.035 46.667,160.417 46.667 C 160.750 46.667,160.833 46.583,160.833 46.250 C 160.833 45.917,160.917 45.833,161.250 45.833 C 161.578 45.833,161.667 45.749,161.667 45.436 C 161.667 45.181,161.784 45.008,161.995 44.953 C 162.228 44.892,162.356 44.670,162.432 44.192 C 162.515 43.674,162.622 43.506,162.895 43.467 C 163.116 43.436,163.270 43.275,163.303 43.042 C 163.337 42.805,163.472 42.667,163.668 42.667 C 163.908 42.667,163.992 42.523,164.032 42.042 C 164.070 41.582,164.183 41.373,164.458 41.252 C 164.683 41.153,164.833 40.941,164.833 40.722 C 164.833 40.470,164.950 40.340,165.208 40.303 C 165.449 40.269,165.602 40.116,165.637 39.875 C 165.666 39.669,165.794 39.500,165.922 39.500 C 166.235 39.500,166.500 38.970,166.500 38.344 C 166.500 37.910,166.563 37.833,166.917 37.833 C 167.217 37.833,167.333 37.744,167.333 37.511 C 167.333 37.334,167.483 37.142,167.667 37.083 C 167.880 37.016,168.000 36.831,168.000 36.572 C 168.000 36.327,168.097 36.167,168.244 36.167 C 168.551 36.167,168.833 35.653,168.833 35.094 C 168.833 34.749,168.914 34.667,169.250 34.667 C 169.558 34.667,169.667 34.578,169.667 34.328 C 169.667 34.142,169.798 33.941,169.958 33.882 C 170.368 33.731,170.495 33.497,170.497 32.887 C 170.499 32.465,170.577 32.346,170.875 32.303 C 171.116 32.269,171.269 32.116,171.303 31.875 C 171.337 31.634,171.471 31.500,171.678 31.500 C 171.901 31.500,172.000 31.384,172.000 31.123 C 172.000 30.892,172.145 30.682,172.375 30.581 C 172.717 30.431,172.754 30.288,172.798 28.958 L 172.846 27.500 162.502 27.500 L 152.158 27.500 152.204 29.875 M284.667 40.245 L 284.667 53.000 287.084 53.000 L 289.502 53.000 289.459 40.292 L 289.417 27.583 287.042 27.537 L 284.667 27.491 284.667 40.245 M188.919 31.875 C 189.046 32.165,189.245 32.262,189.792 32.301 C 190.395 32.345,190.500 32.407,190.500 32.719 C 190.500 32.921,190.645 33.177,190.822 33.288 C 191.009 33.405,191.167 33.719,191.197 34.036 C 191.238 34.457,191.337 34.596,191.625 34.637 C 191.984 34.688,192.000 34.759,192.000 36.262 L 192.000 37.833 186.417 37.833 L 180.833 37.833 180.833 37.095 C 180.833 36.516,180.902 36.334,181.149 36.256 C 181.471 36.153,181.660 35.708,181.664 35.042 C 181.666 34.783,181.766 34.667,181.990 34.667 C 182.245 34.667,182.337 34.509,182.425 33.917 C 182.513 33.333,182.607 33.167,182.852 33.167 C 183.025 33.167,183.167 33.086,183.167 32.988 C 183.167 32.659,183.613 32.359,184.184 32.304 C 184.624 32.262,184.762 32.166,184.803 31.875 C 184.855 31.511,184.911 31.500,186.805 31.500 C 188.667 31.500,188.762 31.517,188.919 31.875 M216.833 31.907 C 216.833 32.254,216.922 32.321,217.441 32.365 C 217.840 32.399,218.113 32.531,218.233 32.749 C 218.334 32.931,218.585 33.247,218.792 33.449 C 218.998 33.652,219.167 34.008,219.167 34.242 C 219.167 34.584,219.248 34.667,219.583 34.667 C 219.977 34.667,220.000 34.718,220.000 35.570 C 220.000 36.687,220.113 37.000,220.518 37.000 C 220.815 37.000,220.833 37.164,220.833 39.815 L 220.833 42.631 220.417 42.735 C 220.022 42.834,220.000 42.901,220.000 44.003 C 220.000 45.133,219.988 45.167,219.583 45.167 C 219.202 45.167,219.167 45.229,219.167 45.905 C 219.167 46.544,219.116 46.651,218.792 46.697 C 218.551 46.731,218.398 46.884,218.363 47.125 C 218.329 47.365,218.195 47.500,217.992 47.500 C 217.791 47.500,217.634 47.654,217.568 47.917 C 217.488 48.238,217.356 48.333,216.994 48.333 C 216.537 48.333,216.000 48.700,216.000 49.012 C 216.000 49.100,214.959 49.167,213.583 49.167 L 211.167 49.167 211.167 48.750 C 211.167 48.417,211.083 48.333,210.750 48.333 C 210.417 48.333,210.333 48.250,210.333 47.917 C 210.333 47.583,210.250 47.500,209.917 47.500 C 209.605 47.500,209.500 47.412,209.500 47.151 C 209.500 46.942,209.366 46.767,209.167 46.715 C 208.983 46.667,208.833 46.495,208.833 46.333 C 208.833 46.171,208.646 45.915,208.417 45.765 C 208.034 45.514,208.000 45.392,208.000 44.245 C 208.000 43.122,207.958 42.962,207.583 42.636 C 206.979 42.110,206.949 39.685,207.542 39.292 C 207.884 39.065,207.922 38.891,207.973 37.281 C 208.026 35.623,208.051 35.516,208.390 35.468 C 208.677 35.427,208.761 35.285,208.803 34.773 C 208.841 34.304,208.943 34.107,209.178 34.045 C 209.383 33.992,209.500 33.816,209.500 33.564 C 209.500 33.251,209.589 33.167,209.917 33.167 C 210.248 33.167,210.333 33.083,210.333 32.759 C 210.333 32.391,210.410 32.347,211.125 32.301 C 211.801 32.257,211.924 32.195,211.970 31.875 C 212.022 31.506,212.061 31.500,214.428 31.500 L 216.833 31.500 216.833 31.907 M371.697 31.875 C 371.733 32.133,371.880 32.265,372.167 32.299 C 372.760 32.368,373.333 32.685,373.333 32.945 C 373.333 33.067,373.477 33.311,373.653 33.487 C 373.829 33.663,373.998 33.981,374.028 34.195 C 374.064 34.449,374.213 34.602,374.458 34.637 C 374.782 34.683,374.833 34.790,374.833 35.417 C 374.833 36.326,375.080 37.000,375.413 37.000 C 375.896 37.000,375.779 42.538,375.292 42.752 C 374.964 42.896,374.910 43.059,374.867 44.042 C 374.825 45.007,374.774 45.167,374.510 45.167 C 374.158 45.167,374.000 45.481,374.000 46.180 C 374.000 46.556,373.924 46.667,373.667 46.667 C 373.422 46.667,373.333 46.778,373.333 47.083 C 373.333 47.417,373.250 47.500,372.917 47.500 C 372.583 47.500,372.500 47.583,372.500 47.917 C 372.500 48.266,372.421 48.333,372.014 48.333 C 371.310 48.333,371.000 48.492,371.000 48.851 C 371.000 49.147,370.842 49.167,368.500 49.167 L 366.000 49.167 366.000 48.750 C 366.000 48.446,365.911 48.333,365.670 48.333 C 365.457 48.333,365.303 48.186,365.235 47.917 C 365.171 47.663,365.012 47.500,364.827 47.500 C 364.639 47.500,364.503 47.357,364.470 47.125 C 364.436 46.884,364.283 46.731,364.042 46.697 C 363.810 46.664,363.667 46.528,363.667 46.341 C 363.667 46.174,363.479 45.915,363.250 45.765 C 362.864 45.513,362.833 45.395,362.833 44.186 C 362.833 42.987,362.799 42.854,362.417 42.567 C 361.871 42.157,361.770 39.575,362.292 39.382 C 362.775 39.204,362.828 38.988,362.831 37.208 C 362.833 35.509,362.836 35.500,363.240 35.500 C 363.589 35.500,363.654 35.412,363.698 34.875 C 363.736 34.416,363.849 34.206,364.125 34.085 C 364.350 33.987,364.500 33.775,364.500 33.555 C 364.500 33.303,364.616 33.173,364.875 33.137 C 365.113 33.103,365.269 32.949,365.302 32.717 C 365.345 32.417,365.479 32.342,366.052 32.301 C 366.630 32.259,366.759 32.186,366.803 31.875 C 366.856 31.506,366.895 31.500,369.250 31.500 C 371.605 31.500,371.644 31.506,371.697 31.875 M244.667 42.417 C 244.667 43.410,244.616 43.667,244.420 43.667 C 244.152 43.667,244.030 44.043,243.961 45.083 C 243.927 45.591,243.827 45.789,243.542 45.915 C 243.280 46.029,243.167 46.221,243.167 46.551 C 243.167 47.028,242.841 47.500,242.512 47.500 C 242.414 47.500,242.333 47.580,242.333 47.679 C 242.333 48.016,241.856 48.333,241.348 48.333 C 240.945 48.333,240.818 48.419,240.735 48.750 C 240.579 49.372,236.725 49.412,236.637 48.793 C 236.606 48.578,236.442 48.393,236.250 48.357 C 235.810 48.273,235.205 47.605,235.137 47.130 C 235.102 46.884,234.951 46.731,234.708 46.697 C 234.188 46.623,234.129 45.000,234.647 45.000 C 234.967 45.000,235.160 44.580,235.164 43.875 C 235.166 43.651,235.269 43.500,235.420 43.500 C 235.560 43.500,235.759 43.313,235.864 43.083 C 235.968 42.854,236.162 42.667,236.294 42.667 C 236.427 42.667,236.683 42.479,236.863 42.250 C 237.163 41.869,237.302 41.833,238.501 41.833 C 239.664 41.833,239.823 41.796,239.917 41.500 C 240.016 41.188,240.169 41.167,242.345 41.167 L 244.667 41.167 244.667 42.417 M310.167 42.417 C 310.167 43.426,310.118 43.667,309.913 43.667 C 309.587 43.667,309.333 44.335,309.333 45.193 C 309.333 45.724,309.264 45.883,309.000 45.952 C 308.750 46.017,308.667 46.179,308.667 46.603 C 308.667 46.913,308.598 47.167,308.514 47.167 C 308.429 47.167,308.116 47.425,307.818 47.742 C 307.473 48.107,307.089 48.335,306.763 48.367 C 306.377 48.404,306.237 48.509,306.197 48.792 C 306.114 49.378,302.220 49.379,302.137 48.793 C 302.106 48.578,301.942 48.393,301.750 48.357 C 301.315 48.273,300.738 47.642,300.602 47.098 C 300.531 46.816,300.380 46.667,300.163 46.667 C 299.878 46.667,299.833 46.553,299.833 45.833 C 299.833 45.120,299.880 45.000,300.156 45.000 C 300.411 45.000,300.503 44.843,300.590 44.265 C 300.669 43.740,300.790 43.507,301.017 43.447 C 301.201 43.399,301.333 43.218,301.333 43.016 C 301.333 42.772,301.439 42.667,301.684 42.667 C 301.877 42.667,302.183 42.479,302.363 42.250 C 302.663 41.868,302.801 41.833,304.012 41.833 C 305.222 41.833,305.333 41.805,305.333 41.500 C 305.333 41.182,305.444 41.167,307.750 41.167 L 310.167 41.167 310.167 42.417 M346.167 47.905 C 346.167 48.198,346.063 48.325,345.792 48.363 C 345.424 48.416,345.417 48.460,345.417 50.667 C 345.417 52.873,345.424 52.918,345.792 52.970 C 346.063 53.008,346.167 53.135,346.167 53.428 L 346.167 53.833 348.508 53.833 C 351.093 53.833,351.667 53.608,351.667 52.591 C 351.667 52.322,351.760 52.167,351.921 52.167 C 352.598 52.167,352.683 49.801,352.021 49.361 C 351.826 49.232,351.667 48.991,351.667 48.826 C 351.667 48.661,351.436 48.295,351.154 48.013 L 350.641 47.500 348.404 47.500 L 346.167 47.500 346.167 47.905 " stroke="none" fill="#040404" fill-rule="evenodd"></path></g></svg>