<svg id="svg" version="1.1" xmlns="http://www.w3.org/2000/svg" xmlns:xlink="http://www.w3.org/1999/xlink" width="400" height="214.92537313432834" viewBox="0, 0, 400,214.92537313432834"><g id="svgg"><path id="path0" d="M192.423 0.588 C 191.803 0.632,191.295 0.743,191.295 0.836 C 191.295 0.929,190.183 1.129,188.823 1.280 C 187.464 1.432,186.351 1.628,186.351 1.716 C 186.351 1.804,185.628 1.992,184.743 2.135 C 183.858 2.278,183.084 2.475,183.023 2.574 C 182.962 2.673,182.428 2.820,181.837 2.902 C 181.246 2.983,180.802 3.114,180.851 3.192 C 180.899 3.271,180.959 13.587,180.983 26.117 C 181.046 58.504,181.232 62.639,182.828 67.168 C 190.778 89.723,221.460 93.413,234.805 73.420 C 247.484 54.423,233.809 28.292,211.120 28.161 L 210.419 28.157 210.475 35.517 L 210.532 42.876 211.714 43.168 C 220.615 45.363,224.288 49.611,224.288 57.711 C 224.288 62.702,222.954 65.205,218.347 68.860 C 211.886 73.985,200.014 70.559,197.529 62.852 C 197.379 62.389,197.182 61.913,197.089 61.795 C 196.421 60.939,196.377 59.144,196.301 29.823 L 196.225 0.430 194.889 0.470 C 194.153 0.492,193.044 0.545,192.423 0.588 M211.069 7.040 L 211.069 13.708 211.768 13.839 C 212.152 13.910,213.240 14.067,214.186 14.186 C 227.960 15.927,240.521 23.632,247.465 34.601 C 248.611 36.411,250.732 40.669,250.958 41.614 C 251.040 41.956,251.182 42.332,251.273 42.450 C 253.197 44.950,254.403 59.866,253.105 65.126 C 252.945 65.776,252.743 66.744,252.656 67.276 C 252.474 68.394,251.002 72.940,250.361 74.366 C 249.180 76.988,248.734 77.857,247.592 79.758 C 236.093 98.899,211.384 106.283,191.646 96.477 C 176.978 89.189,168.301 76.130,166.862 59.173 C 166.785 58.264,166.623 57.584,166.469 57.525 C 165.810 57.272,160.462 57.134,156.858 57.276 L 152.881 57.433 152.722 90.609 C 152.634 108.856,152.633 128.044,152.721 133.248 L 152.879 142.712 154.786 144.333 C 155.834 145.225,156.943 146.050,157.250 146.167 C 157.605 146.302,157.765 146.491,157.690 146.687 C 157.615 146.884,157.676 146.956,157.858 146.886 C 158.015 146.826,158.702 147.133,159.383 147.568 C 160.064 148.004,162.009 149.162,163.707 150.141 L 166.792 151.923 166.792 123.570 C 166.792 107.976,166.860 95.218,166.944 95.218 C 167.027 95.218,168.405 96.500,170.007 98.067 C 172.491 100.499,174.151 102.016,175.067 102.690 C 175.186 102.777,175.863 103.283,176.572 103.815 C 194.009 116.894,216.334 118.641,236.969 108.541 C 263.786 95.415,275.833 59.455,262.410 32.602 C 259.127 26.032,250.253 14.959,246.817 13.145 C 246.559 13.008,246.288 12.708,246.215 12.476 C 246.142 12.245,245.748 11.936,245.341 11.788 C 244.933 11.641,244.600 11.444,244.600 11.351 C 244.600 11.259,244.285 11.041,243.901 10.869 C 243.119 10.518,241.970 9.849,241.805 9.649 C 241.746 9.577,241.335 9.388,240.892 9.229 C 240.449 9.071,240.086 8.864,240.086 8.769 C 240.086 8.675,239.986 8.598,239.863 8.598 C 239.741 8.598,238.604 8.104,237.338 7.501 C 236.071 6.898,234.841 6.324,234.605 6.225 C 234.369 6.127,233.705 5.847,233.131 5.604 C 232.556 5.361,232.000 5.215,231.895 5.280 C 231.790 5.346,231.703 5.306,231.703 5.193 C 231.703 5.079,231.220 4.870,230.629 4.729 C 230.038 4.587,229.554 4.395,229.554 4.302 C 229.554 4.209,228.925 4.014,228.157 3.869 C 227.389 3.724,226.760 3.528,226.760 3.434 C 226.760 3.339,226.349 3.193,225.846 3.108 C 225.344 3.024,224.392 2.783,223.730 2.572 C 223.069 2.361,221.981 2.120,221.312 2.037 C 220.644 1.953,220.097 1.814,220.097 1.726 C 220.097 1.639,219.057 1.442,217.786 1.287 C 216.515 1.132,215.426 0.932,215.366 0.842 C 215.305 0.752,214.314 0.609,213.163 0.525 L 211.069 0.371 211.069 7.040 " stroke="none" fill="#ebebf3" fill-rule="evenodd"></path><path id="path1" d="M198.818 0.149 L 196.346 0.228 196.463 29.399 C 196.590 61.020,196.537 59.642,197.746 62.746 C 198.794 65.437,201.269 68.111,203.898 69.392 C 204.709 69.787,205.534 70.193,205.730 70.295 C 205.926 70.396,206.893 70.633,207.879 70.822 C 208.865 71.010,209.834 71.197,210.033 71.238 C 210.808 71.395,214.663 70.528,215.937 69.909 C 221.096 67.406,224.181 62.863,224.181 57.766 C 224.181 56.222,223.782 53.487,223.516 53.208 C 223.408 53.096,223.321 52.851,223.321 52.665 C 223.321 49.543,217.846 44.795,213.111 43.813 C 212.520 43.690,211.577 43.443,211.016 43.264 L 209.995 42.938 209.995 35.517 L 209.995 28.095 213.272 28.224 C 215.075 28.295,216.889 28.448,217.303 28.564 C 217.716 28.680,218.732 28.958,219.561 29.183 C 229.175 31.792,237.897 41.943,239.573 52.475 C 242.039 67.964,231.582 83.281,216.550 86.196 C 215.841 86.334,214.874 86.530,214.401 86.631 C 213.287 86.871,207.562 86.871,206.448 86.631 C 205.975 86.530,205.008 86.334,204.299 86.197 C 194.624 84.329,184.683 75.602,182.494 67.057 C 182.359 66.527,182.156 65.852,182.044 65.556 C 180.969 62.717,180.906 60.943,180.822 31.220 C 180.743 3.625,180.736 3.224,180.323 3.224 C 180.092 3.224,179.903 3.308,179.903 3.410 C 179.903 3.512,179.323 3.718,178.614 3.869 C 177.904 4.019,177.324 4.208,177.324 4.289 C 177.324 4.369,176.599 4.606,175.712 4.815 C 174.825 5.024,174.100 5.284,174.100 5.392 C 174.100 5.500,173.954 5.588,173.775 5.588 C 173.597 5.588,173.040 5.774,172.539 6.002 C 170.498 6.927,168.534 7.738,168.332 7.738 C 168.214 7.738,168.085 7.817,168.046 7.913 C 168.006 8.010,167.297 8.414,166.470 8.811 C 165.642 9.208,164.917 9.589,164.858 9.657 C 164.798 9.725,164.460 9.925,164.105 10.102 C 163.751 10.279,163.412 10.478,163.353 10.544 C 163.294 10.610,162.931 10.791,162.547 10.946 C 162.163 11.102,161.848 11.304,161.848 11.397 C 161.848 11.489,161.558 11.666,161.204 11.789 C 160.849 11.913,160.559 12.098,160.559 12.200 C 160.559 12.302,160.220 12.519,159.807 12.681 C 159.393 12.844,159.054 13.051,159.054 13.141 C 159.054 13.232,158.720 13.465,158.312 13.658 C 157.904 13.852,157.456 14.147,157.318 14.313 C 157.180 14.480,156.982 14.616,156.879 14.616 C 156.775 14.616,156.503 14.785,156.274 14.992 C 156.045 15.199,155.634 15.536,155.360 15.741 C 155.087 15.946,154.476 16.407,154.003 16.765 C 153.530 17.124,152.922 17.584,152.651 17.789 C 152.380 17.995,151.772 18.513,151.301 18.941 C 150.830 19.369,150.154 19.942,149.798 20.215 C 148.883 20.916,142.934 26.908,142.934 27.128 C 142.934 27.228,142.547 27.666,142.074 28.101 C 141.601 28.536,141.214 29.016,141.214 29.169 C 141.214 29.322,141.142 29.447,141.053 29.449 C 140.965 29.450,140.408 30.081,139.817 30.852 C 139.226 31.623,138.532 32.490,138.276 32.778 C 138.019 33.066,137.746 33.498,137.670 33.738 C 137.594 33.979,137.453 34.175,137.357 34.175 C 137.261 34.175,137.063 34.465,136.916 34.820 C 136.769 35.175,136.575 35.465,136.486 35.465 C 136.396 35.465,136.203 35.755,136.056 36.110 C 135.909 36.464,135.710 36.754,135.614 36.754 C 135.519 36.754,135.379 36.947,135.304 37.183 C 135.229 37.419,135.046 37.734,134.896 37.883 C 134.611 38.169,134.147 38.970,133.589 40.140 C 133.406 40.524,133.176 40.838,133.078 40.838 C 132.981 40.838,132.773 41.225,132.617 41.698 C 132.461 42.171,132.256 42.558,132.161 42.558 C 132.067 42.558,131.873 42.945,131.732 43.418 C 131.590 43.890,131.397 44.277,131.302 44.277 C 131.207 44.277,131.014 44.664,130.872 45.137 C 130.730 45.610,130.527 45.997,130.421 45.997 C 130.314 45.997,130.287 46.093,130.360 46.212 C 130.433 46.330,130.390 46.427,130.265 46.427 C 130.140 46.427,130.038 46.530,130.038 46.655 C 130.038 46.781,129.790 47.424,129.488 48.085 C 129.186 48.745,128.884 49.561,128.817 49.898 C 128.749 50.235,128.619 50.510,128.526 50.510 C 128.434 50.510,128.234 50.994,128.082 51.585 C 127.931 52.176,127.735 52.660,127.648 52.660 C 127.561 52.660,127.370 53.192,127.225 53.842 C 127.079 54.492,126.890 55.024,126.804 55.024 C 126.718 55.024,126.528 55.654,126.383 56.424 C 126.238 57.194,126.042 57.871,125.948 57.929 C 125.854 57.987,125.657 58.711,125.509 59.539 C 125.361 60.366,125.169 61.042,125.082 61.042 C 124.995 61.042,124.805 61.889,124.661 62.923 C 124.516 63.958,124.320 64.902,124.224 65.023 C 124.128 65.143,123.940 66.303,123.807 67.602 C 123.673 68.900,123.475 70.127,123.367 70.328 C 122.703 71.557,122.721 90.219,123.386 90.453 C 123.498 90.493,123.589 90.888,123.589 91.332 C 123.589 92.492,124.045 95.735,124.225 95.862 C 124.309 95.922,124.497 96.839,124.643 97.901 C 124.790 98.963,124.985 99.882,125.078 99.943 C 125.170 100.004,125.368 100.707,125.517 101.505 C 125.666 102.303,125.851 102.955,125.929 102.955 C 126.007 102.955,126.194 103.605,126.345 104.400 C 126.495 105.194,126.695 105.895,126.789 105.958 C 126.882 106.021,127.075 106.540,127.217 107.113 C 127.359 107.685,127.607 108.362,127.768 108.617 C 127.929 108.872,128.127 109.395,128.207 109.780 C 128.287 110.164,128.429 110.478,128.523 110.478 C 128.617 110.478,128.756 110.785,128.831 111.160 C 128.906 111.536,129.274 112.479,129.650 113.256 C 130.026 114.033,130.315 114.742,130.293 114.831 C 130.271 114.919,130.339 114.992,130.444 114.992 C 130.549 114.992,130.698 115.327,130.774 115.737 C 130.851 116.147,131.031 116.607,131.174 116.758 C 131.318 116.910,131.580 117.324,131.757 117.679 C 131.934 118.033,132.127 118.372,132.187 118.431 C 132.246 118.490,132.633 119.191,133.047 119.989 C 133.461 120.787,133.854 121.440,133.920 121.440 C 133.987 121.440,134.174 121.779,134.336 122.192 C 134.499 122.606,134.710 122.945,134.806 122.945 C 134.903 122.945,134.981 123.056,134.981 123.193 C 134.981 123.330,135.206 123.741,135.481 124.107 C 135.755 124.472,136.042 124.941,136.119 125.148 C 136.195 125.355,136.357 125.524,136.479 125.524 C 136.601 125.524,136.701 125.648,136.701 125.801 C 136.701 125.953,136.987 126.412,137.337 126.822 C 137.687 127.231,137.977 127.690,137.982 127.841 C 137.986 127.993,138.135 128.172,138.313 128.240 C 138.490 128.308,138.635 128.462,138.635 128.581 C 138.635 128.777,139.421 129.807,140.253 130.700 C 140.427 130.888,140.571 131.130,140.572 131.238 C 140.573 131.346,140.959 131.773,141.429 132.187 C 141.900 132.601,142.286 133.025,142.287 133.131 C 142.290 133.441,146.528 137.779,149.238 140.247 C 150.017 140.956,151.038 141.900,151.506 142.343 C 151.974 142.786,152.457 143.149,152.579 143.149 C 152.700 143.149,152.877 143.270,152.972 143.418 C 153.066 143.565,153.337 143.831,153.573 144.009 C 154.147 144.439,153.595 143.675,152.929 143.117 C 152.498 142.756,152.209 57.714,152.636 57.287 C 152.837 57.086,165.017 57.058,166.083 57.255 C 166.949 57.416,166.990 57.459,167.087 58.319 C 167.977 66.221,169.068 70.672,171.319 75.602 C 171.548 76.103,171.736 76.550,171.736 76.596 C 171.736 76.890,175.018 82.406,175.399 82.751 C 175.464 82.810,175.753 83.197,176.041 83.611 C 177.083 85.109,179.881 88.059,181.752 89.632 C 182.804 90.517,183.713 91.298,183.772 91.369 C 184.008 91.651,188.055 94.319,189.468 95.124 C 201.708 102.093,216.881 102.442,229.627 96.046 C 232.601 94.554,236.959 91.727,238.167 90.508 C 238.352 90.320,239.058 89.683,239.735 89.092 C 251.316 78.977,256.569 59.422,251.673 44.653 C 251.447 43.972,251.263 43.310,251.263 43.180 C 251.263 43.051,251.125 42.640,250.957 42.268 C 250.788 41.895,250.340 40.865,249.959 39.979 C 244.261 26.692,230.814 16.896,215.153 14.622 C 214.267 14.493,212.937 14.284,212.198 14.157 L 210.854 13.927 210.854 7.193 C 210.854 0.963,210.826 0.451,210.478 0.353 C 209.936 0.200,201.730 0.057,198.818 0.149 M248.256 13.810 C 248.258 13.839,249.590 15.218,251.217 16.873 C 260.484 26.298,265.972 36.689,267.508 47.716 C 267.681 48.958,267.928 50.747,268.057 51.693 C 268.467 54.691,267.893 64.688,267.181 66.942 C 267.067 67.303,266.865 68.227,266.732 68.995 C 266.368 71.098,264.257 78.099,263.524 79.635 C 263.411 79.871,263.065 80.693,262.754 81.462 C 261.868 83.657,258.794 89.502,258.346 89.844 C 258.269 89.903,258.078 90.193,257.923 90.489 C 255.361 95.378,246.860 103.422,240.408 107.063 C 237.996 108.425,233.280 110.691,232.853 110.694 C 232.753 110.695,232.408 110.833,232.087 111.000 C 230.496 111.830,223.809 113.690,218.915 114.664 C 210.086 116.420,197.455 114.921,188.716 111.079 C 181.244 107.794,175.089 103.617,169.572 98.086 L 167.114 95.623 167.061 103.534 C 167.032 107.885,166.983 120.699,166.954 132.009 L 166.900 152.573 167.706 152.839 C 168.149 152.985,168.512 153.185,168.512 153.282 C 168.512 153.380,168.947 153.569,169.479 153.703 C 170.011 153.837,170.446 154.021,170.446 154.112 C 170.446 154.204,170.881 154.407,171.413 154.564 C 171.945 154.721,172.380 154.913,172.380 154.992 C 172.380 155.070,172.825 155.246,173.368 155.383 C 173.911 155.520,174.563 155.764,174.818 155.926 C 175.073 156.087,175.838 156.341,176.518 156.489 C 177.198 156.637,177.754 156.826,177.754 156.910 C 177.754 156.993,178.334 157.184,179.044 157.335 C 179.753 157.485,180.333 157.673,180.333 157.751 C 180.333 157.830,181.059 158.023,181.945 158.180 C 182.832 158.338,183.557 158.542,183.557 158.634 C 183.557 158.726,184.428 158.921,185.492 159.066 C 186.556 159.211,187.426 159.402,187.426 159.489 C 187.426 159.576,188.563 159.772,189.952 159.925 C 191.341 160.077,192.526 160.272,192.585 160.358 C 193.074 161.071,213.343 161.072,213.864 160.360 C 213.923 160.279,215.132 160.088,216.550 159.936 C 217.969 159.783,219.178 159.584,219.237 159.492 C 219.296 159.400,220.191 159.200,221.225 159.048 C 222.260 158.895,223.106 158.704,223.106 158.624 C 223.106 158.544,223.783 158.357,224.610 158.209 C 225.438 158.062,226.115 157.864,226.115 157.769 C 226.115 157.675,226.744 157.480,227.512 157.335 C 228.280 157.190,228.909 157.004,228.909 156.921 C 228.909 156.839,229.417 156.644,230.038 156.489 C 230.658 156.334,231.572 156.025,232.068 155.803 C 232.564 155.582,233.113 155.400,233.288 155.400 C 233.464 155.400,233.735 155.276,233.891 155.124 C 234.047 154.972,234.586 154.726,235.089 154.578 C 235.591 154.430,236.002 154.234,236.002 154.143 C 236.002 154.052,236.486 153.853,237.077 153.702 C 237.668 153.550,238.152 153.346,238.152 153.248 C 238.152 153.150,238.514 152.951,238.958 152.807 C 239.401 152.662,239.812 152.482,239.871 152.406 C 239.930 152.331,240.631 151.938,241.429 151.534 C 242.227 151.129,242.880 150.741,242.880 150.671 C 242.880 150.601,243.219 150.421,243.632 150.271 C 244.046 150.121,244.385 149.918,244.385 149.819 C 244.385 149.720,244.675 149.538,245.030 149.414 C 245.384 149.291,245.674 149.095,245.674 148.980 C 245.674 148.865,245.964 148.708,246.318 148.630 C 246.672 148.552,247.035 148.370,247.124 148.225 C 247.213 148.080,247.649 147.793,248.092 147.587 C 248.536 147.381,248.898 147.120,248.898 147.008 C 248.898 146.895,249.043 146.803,249.219 146.803 C 249.395 146.803,249.660 146.609,249.808 146.373 C 249.956 146.136,250.174 145.943,250.294 145.943 C 250.413 145.943,250.801 145.705,251.155 145.415 C 251.510 145.124,252.029 144.713,252.309 144.501 C 252.589 144.289,253.000 143.947,253.223 143.740 C 253.445 143.533,253.718 143.364,253.830 143.364 C 253.941 143.364,254.159 143.195,254.314 142.988 C 254.469 142.781,255.031 142.274,255.562 141.860 C 256.094 141.447,256.818 140.795,257.172 140.410 C 257.526 140.025,257.900 139.710,258.003 139.710 C 258.312 139.710,264.415 133.300,264.858 132.511 C 264.948 132.352,265.334 131.881,265.718 131.464 C 266.102 131.047,266.609 130.447,266.846 130.131 C 267.082 129.815,267.445 129.375,267.652 129.152 C 267.859 128.930,268.028 128.682,268.028 128.601 C 268.028 128.520,268.210 128.254,268.433 128.010 C 268.656 127.766,269.381 126.744,270.045 125.739 C 270.708 124.734,271.324 123.815,271.413 123.697 C 271.502 123.579,271.719 123.192,271.896 122.837 C 272.074 122.483,272.267 122.144,272.326 122.085 C 272.526 121.886,273.208 120.693,273.523 119.989 C 273.696 119.605,273.917 119.291,274.015 119.291 C 274.112 119.291,274.320 118.904,274.476 118.431 C 274.632 117.958,274.826 117.571,274.906 117.571 C 274.986 117.571,275.180 117.184,275.336 116.711 C 275.492 116.239,275.685 115.852,275.766 115.852 C 275.846 115.852,276.040 115.465,276.196 114.992 C 276.352 114.519,276.550 114.132,276.636 114.132 C 276.722 114.132,276.855 113.797,276.932 113.387 C 277.009 112.977,277.199 112.515,277.354 112.359 C 277.509 112.204,277.766 111.573,277.924 110.955 C 278.082 110.338,278.286 109.833,278.377 109.833 C 278.469 109.833,278.647 109.422,278.773 108.920 C 278.899 108.418,279.136 107.765,279.299 107.469 C 279.462 107.173,279.720 106.327,279.873 105.588 C 280.026 104.849,280.215 104.245,280.294 104.245 C 280.374 104.245,280.557 103.641,280.702 102.902 C 280.846 102.163,281.045 101.460,281.143 101.341 C 281.241 101.221,281.447 100.327,281.600 99.353 C 281.754 98.379,281.943 97.582,282.022 97.582 C 282.101 97.582,282.290 96.591,282.442 95.379 C 282.593 94.167,282.785 93.127,282.868 93.068 C 283.053 92.936,283.503 87.986,283.503 86.091 C 283.503 85.332,283.600 84.651,283.718 84.578 C 283.849 84.497,283.933 82.856,283.933 80.374 C 283.933 77.803,283.854 76.303,283.718 76.303 C 283.597 76.303,283.503 75.695,283.503 74.910 C 283.503 72.992,283.053 68.052,282.866 67.920 C 282.781 67.861,282.586 66.773,282.432 65.502 C 282.277 64.232,282.080 63.192,281.993 63.192 C 281.907 63.192,281.725 62.446,281.590 61.535 C 281.454 60.624,281.263 59.827,281.165 59.762 C 281.067 59.698,280.865 58.992,280.716 58.195 C 280.567 57.397,280.375 56.744,280.289 56.744 C 280.203 56.744,280.011 56.188,279.862 55.508 C 279.713 54.828,279.461 53.982,279.303 53.627 C 279.145 53.272,278.910 52.575,278.782 52.078 C 278.653 51.580,278.467 51.123,278.369 51.062 C 278.270 51.001,278.066 50.514,277.917 49.979 C 277.767 49.444,277.581 49.006,277.504 49.006 C 277.427 49.006,277.236 48.571,277.079 48.039 C 276.921 47.507,276.718 47.071,276.627 47.071 C 276.536 47.071,276.352 46.636,276.218 46.104 C 276.084 45.572,275.894 45.137,275.797 45.137 C 275.699 45.137,275.503 44.750,275.361 44.277 C 275.220 43.804,275.029 43.418,274.937 43.418 C 274.846 43.418,274.638 43.079,274.476 42.665 C 274.314 42.251,274.106 41.913,274.015 41.913 C 273.923 41.913,273.733 41.526,273.591 41.053 C 273.449 40.580,273.247 40.193,273.141 40.193 C 273.036 40.193,272.848 39.903,272.724 39.549 C 272.601 39.194,272.424 38.904,272.332 38.904 C 272.239 38.904,272.037 38.589,271.882 38.205 C 271.727 37.821,271.473 37.429,271.318 37.335 C 271.164 37.240,271.037 37.056,271.037 36.925 C 271.037 36.795,270.812 36.388,270.538 36.022 C 270.263 35.657,269.976 35.188,269.900 34.981 C 269.823 34.774,269.661 34.605,269.539 34.605 C 269.417 34.605,269.318 34.498,269.318 34.367 C 269.318 34.237,269.077 33.826,268.782 33.454 C 268.488 33.082,268.077 32.549,267.869 32.269 C 267.661 31.989,267.321 31.578,267.114 31.355 C 266.908 31.133,266.738 30.860,266.738 30.748 C 266.738 30.637,266.562 30.419,266.346 30.265 C 266.130 30.110,265.848 29.793,265.719 29.559 C 265.222 28.658,256.641 19.774,256.267 19.774 C 256.173 19.774,255.794 19.446,255.426 19.044 C 255.057 18.642,254.526 18.192,254.245 18.043 C 253.964 17.894,253.608 17.594,253.454 17.376 C 253.299 17.158,253.082 16.980,252.970 16.980 C 252.859 16.980,252.550 16.782,252.284 16.540 C 251.504 15.831,251.210 15.605,250.188 14.932 C 249.656 14.581,249.144 14.173,249.049 14.025 C 248.908 13.804,248.247 13.625,248.256 13.810 M4.352 184.771 C 4.087 184.829,3.869 184.967,3.869 185.077 C 3.869 185.187,3.738 185.277,3.579 185.277 C 2.498 185.277,0.673 187.310,0.252 188.981 C -0.542 192.133,0.065 208.659,0.994 209.199 C 1.157 209.294,1.290 209.510,1.290 209.679 C 1.290 209.848,1.616 210.323,2.016 210.734 C 2.415 211.146,2.799 211.631,2.869 211.813 C 2.938 211.995,3.087 212.144,3.199 212.144 C 3.311 212.144,3.742 212.474,4.156 212.877 C 4.571 213.280,5.112 213.673,5.357 213.751 C 5.603 213.829,5.803 213.975,5.803 214.076 C 5.803 214.434,8.818 214.938,10.962 214.938 C 13.051 214.938,16.120 214.437,16.120 214.096 C 16.120 214.006,16.355 213.826,16.641 213.695 C 18.642 212.784,21.302 209.442,21.623 207.438 C 21.701 206.947,21.849 206.494,21.952 206.431 C 22.196 206.280,22.196 201.827,21.951 201.827 C 21.848 201.827,21.701 201.347,21.623 200.761 C 21.545 200.175,21.344 199.558,21.176 199.390 C 21.008 199.222,20.805 198.823,20.724 198.504 C 20.644 198.185,20.446 197.872,20.284 197.810 C 20.122 197.748,19.987 197.587,19.984 197.451 C 19.978 197.145,17.765 194.949,17.463 194.949 C 17.341 194.949,17.190 194.816,17.128 194.654 C 17.066 194.492,16.754 194.294,16.434 194.214 C 16.115 194.134,15.719 193.933,15.554 193.769 C 15.390 193.605,14.797 193.409,14.237 193.334 C 13.677 193.259,13.114 193.165,12.985 193.126 C 12.842 193.083,12.747 192.323,12.738 191.154 C 12.704 186.643,8.935 183.774,4.352 184.771 M25.892 184.898 C 25.835 185.047,25.814 191.843,25.844 200.000 L 25.900 214.831 35.250 214.831 L 44.600 214.831 44.600 212.789 L 44.600 210.747 37.453 210.690 L 30.306 210.634 30.306 208.705 L 30.306 206.776 37.453 206.720 L 44.600 206.663 44.663 204.944 C 44.698 203.999,44.672 203.008,44.606 202.741 L 44.484 202.257 37.395 202.257 L 30.306 202.257 30.306 195.916 L 30.306 189.575 37.077 189.575 C 40.851 189.575,43.847 189.491,43.847 189.386 C 43.847 189.281,44.044 189.144,44.285 189.081 C 44.694 188.974,44.719 188.826,44.661 186.853 L 44.600 184.739 35.298 184.683 C 27.971 184.639,25.974 184.685,25.892 184.898 M48.685 185.104 C 48.619 185.376,48.592 192.176,48.624 200.215 L 48.684 214.831 53.352 214.889 C 57.937 214.946,60.895 214.653,61.243 214.109 C 61.310 214.004,61.679 213.849,62.062 213.766 C 62.446 213.683,62.833 213.500,62.922 213.359 C 63.011 213.218,63.347 212.987,63.667 212.846 C 64.321 212.560,64.651 212.286,66.201 210.747 C 67.534 209.424,68.565 208.098,68.565 207.708 C 68.565 207.547,68.647 207.415,68.746 207.415 C 68.845 207.415,69.054 207.028,69.210 206.556 C 69.366 206.083,69.558 205.696,69.637 205.696 C 69.824 205.696,70.285 203.696,70.285 202.885 C 70.285 202.540,70.382 202.257,70.500 202.257 C 70.630 202.257,70.715 201.325,70.715 199.893 C 70.715 198.592,70.640 197.528,70.548 197.528 C 70.457 197.528,70.263 196.784,70.119 195.875 C 69.974 194.966,69.778 194.168,69.682 194.102 C 69.586 194.036,69.374 193.643,69.210 193.229 C 69.046 192.816,68.858 192.429,68.792 192.370 C 68.726 192.311,68.527 191.980,68.350 191.636 C 67.944 190.847,66.221 188.931,64.908 187.812 C 63.805 186.871,61.209 185.523,60.182 185.359 C 59.710 185.284,59.323 185.139,59.323 185.037 C 59.323 184.817,59.586 184.832,53.580 184.708 L 48.805 184.609 48.685 185.104 M74.475 185.116 C 74.410 185.382,74.384 192.176,74.417 200.215 L 74.476 214.831 83.826 214.831 L 93.176 214.831 93.176 212.789 L 93.176 210.747 86.029 210.690 L 78.882 210.634 78.882 208.705 L 78.882 206.776 86.029 206.720 L 93.176 206.663 93.176 204.514 L 93.176 202.364 86.029 202.308 L 78.882 202.251 78.882 195.913 L 78.882 189.575 85.553 189.575 C 93.656 189.575,93.285 189.688,93.280 187.240 C 93.279 186.338,93.219 185.382,93.148 185.116 L 93.018 184.632 83.805 184.632 L 74.592 184.632 74.475 185.116 M105.642 184.766 C 105.406 184.823,105.019 184.954,104.782 185.058 C 104.546 185.162,103.990 185.358,103.546 185.493 C 103.103 185.629,102.740 185.827,102.740 185.934 C 102.740 186.041,102.497 186.189,102.200 186.264 C 101.903 186.338,101.589 186.510,101.502 186.645 C 101.415 186.781,100.981 187.162,100.537 187.492 C 100.094 187.822,99.731 188.210,99.731 188.353 C 99.731 188.495,99.538 188.733,99.301 188.881 C 99.065 189.028,98.872 189.283,98.872 189.447 C 98.872 189.611,98.736 189.797,98.569 189.860 C 98.403 189.924,98.202 190.273,98.122 190.636 C 98.043 190.998,97.902 191.295,97.809 191.295 C 97.268 191.295,97.135 194.130,97.196 204.299 L 97.260 214.831 99.409 214.831 L 101.558 214.831 101.666 204.345 C 101.743 196.846,101.843 193.815,102.018 193.705 C 102.152 193.621,102.409 193.198,102.589 192.766 C 102.945 191.912,104.054 190.740,104.700 190.535 C 104.923 190.464,105.105 190.321,105.105 190.216 C 105.105 189.327,110.138 189.406,111.305 190.313 C 111.765 190.670,113.124 192.029,113.538 192.546 C 114.406 193.630,114.593 196.919,113.866 198.313 C 112.860 200.241,112.438 200.730,111.370 201.202 C 110.998 201.367,110.693 201.559,110.693 201.629 C 110.693 201.698,110.572 201.766,110.425 201.778 C 110.277 201.791,109.721 201.910,109.189 202.044 C 107.304 202.517,105.323 201.846,103.591 200.148 C 102.309 198.892,102.311 198.888,102.311 202.369 L 102.311 205.490 102.902 205.750 C 103.227 205.893,103.541 206.072,103.600 206.148 C 104.220 206.944,112.413 206.922,112.413 206.123 C 112.413 206.044,112.795 205.854,113.261 205.700 C 113.728 205.546,114.160 205.288,114.222 205.128 C 114.283 204.967,114.451 204.836,114.595 204.836 C 114.895 204.836,117.571 202.143,117.571 201.842 C 117.571 201.732,117.714 201.500,117.889 201.325 C 118.064 201.150,118.328 200.539,118.477 199.966 C 118.625 199.394,118.845 198.856,118.965 198.772 C 119.282 198.549,119.247 193.422,118.924 192.779 C 118.781 192.495,118.559 191.851,118.432 191.349 C 118.304 190.846,118.122 190.435,118.027 190.435 C 117.933 190.435,117.743 190.190,117.607 189.890 C 117.084 188.744,114.437 186.147,113.782 186.139 C 113.649 186.138,113.429 186.002,113.292 185.838 C 113.156 185.674,112.588 185.417,112.030 185.267 C 111.472 185.118,110.870 184.950,110.693 184.895 C 110.227 184.748,106.150 184.645,105.642 184.766 M131.718 184.743 C 131.643 184.818,131.452 184.906,131.293 184.938 C 131.135 184.970,130.860 185.055,130.682 185.126 C 130.505 185.197,129.960 185.358,129.472 185.483 C 128.983 185.608,128.463 185.854,128.317 186.031 C 128.170 186.207,127.921 186.351,127.762 186.351 C 127.603 186.351,127.370 186.545,127.243 186.781 C 127.117 187.018,126.930 187.211,126.828 187.211 C 126.532 187.211,125.309 188.356,125.309 188.633 C 125.309 188.771,125.181 188.934,125.024 188.994 C 124.460 189.210,123.156 192.305,122.946 193.926 C 122.697 195.838,122.667 214.292,122.912 214.678 C 123.041 214.880,123.659 214.938,125.219 214.893 L 127.351 214.831 127.407 204.675 C 127.438 199.023,127.546 194.519,127.651 194.519 C 127.755 194.519,127.908 194.156,127.992 193.713 C 128.157 192.833,129.855 190.658,130.511 190.486 C 130.724 190.431,130.897 190.311,130.897 190.221 C 130.897 189.672,134.321 189.403,135.982 189.821 C 137.373 190.172,139.423 192.094,139.764 193.369 C 139.901 193.883,140.091 194.304,140.184 194.304 C 140.416 194.304,140.402 197.044,140.169 197.188 C 140.067 197.251,139.861 197.740,139.711 198.275 C 139.562 198.810,139.352 199.248,139.247 199.248 C 139.141 199.248,138.959 199.499,138.842 199.806 C 138.725 200.113,138.438 200.414,138.203 200.476 C 137.968 200.537,137.775 200.671,137.775 200.774 C 137.775 201.713,132.809 202.611,131.881 201.840 C 131.694 201.686,131.542 201.622,131.542 201.698 C 131.542 201.969,130.347 201.079,129.492 200.170 C 128.151 198.746,128.103 198.822,128.103 202.361 L 128.103 205.475 128.909 205.837 C 129.352 206.036,129.971 206.303,130.283 206.431 C 130.852 206.664,131.950 207.547,133.912 209.350 C 134.491 209.882,135.611 210.897,136.401 211.607 C 137.191 212.316,138.329 213.356,138.930 213.917 L 140.022 214.938 142.982 214.938 C 146.439 214.938,146.393 214.998,144.385 213.125 C 143.528 212.325,142.267 211.148,141.583 210.510 C 140.899 209.872,140.271 209.349,140.186 209.349 C 140.101 209.348,139.485 208.779,138.816 208.084 C 138.147 207.388,137.470 206.772,137.311 206.714 C 137.144 206.653,137.271 206.543,137.614 206.451 C 137.939 206.365,138.205 206.223,138.205 206.136 C 138.205 206.050,138.592 205.863,139.065 205.721 C 139.538 205.580,139.925 205.377,139.925 205.272 C 139.925 205.166,140.109 205.022,140.333 204.950 C 140.888 204.774,142.751 202.911,143.148 202.134 C 143.326 201.788,143.584 201.431,143.723 201.342 C 143.862 201.253,144.043 200.866,144.126 200.482 C 144.209 200.099,144.360 199.732,144.462 199.667 C 145.260 199.157,145.152 193.374,144.312 191.597 C 144.027 190.994,143.794 190.434,143.794 190.352 C 143.794 190.198,143.535 189.852,142.880 189.130 C 142.673 188.902,142.504 188.653,142.504 188.577 C 142.504 188.334,141.117 187.001,140.861 186.999 C 140.726 186.997,140.560 186.851,140.492 186.674 C 140.424 186.497,140.259 186.351,140.127 186.351 C 139.994 186.351,139.649 186.166,139.361 185.939 C 139.073 185.713,138.453 185.462,137.984 185.383 C 137.515 185.304,137.131 185.157,137.131 185.056 C 137.131 184.847,137.134 184.847,134.116 184.709 C 132.872 184.653,131.793 184.668,131.718 184.743 M161.096 184.817 C 160.860 184.919,160.555 184.961,160.419 184.910 C 160.284 184.859,160.109 184.921,160.031 185.047 C 159.953 185.173,159.698 185.277,159.465 185.277 C 158.932 185.277,156.440 186.300,156.153 186.637 C 156.034 186.775,155.650 187.034,155.299 187.211 C 154.472 187.629,151.519 190.583,151.102 191.409 C 150.925 191.760,150.722 192.096,150.652 192.155 C 150.347 192.411,149.390 194.584,149.257 195.322 C 149.177 195.767,149.020 196.246,148.909 196.387 C 148.535 196.859,148.589 203.332,148.967 203.332 C 149.045 203.332,149.165 203.744,149.234 204.249 C 149.371 205.245,150.379 207.630,150.664 207.630 C 150.761 207.630,150.896 207.854,150.965 208.127 C 151.201 209.071,154.145 212.079,155.526 212.788 C 155.871 212.966,156.201 213.165,156.260 213.231 C 156.319 213.297,156.706 213.485,157.120 213.649 C 157.534 213.812,157.920 214.012,157.980 214.093 C 158.762 215.156,169.070 215.147,169.801 214.082 C 169.860 213.996,170.271 213.808,170.715 213.663 C 171.158 213.519,171.521 213.335,171.521 213.254 C 171.521 213.174,171.828 212.972,172.205 212.806 C 172.581 212.640,173.184 212.181,173.546 211.786 C 173.908 211.392,174.329 211.069,174.481 211.069 C 174.634 211.069,174.821 210.900,174.897 210.693 C 174.973 210.486,175.333 210.027,175.696 209.672 C 176.059 209.318,176.502 208.737,176.679 208.383 C 176.857 208.028,177.122 207.610,177.270 207.454 C 177.418 207.298,177.603 206.912,177.682 206.596 C 177.762 206.281,177.949 205.900,178.100 205.749 C 178.250 205.599,178.441 205.018,178.523 204.457 C 178.606 203.897,178.775 203.374,178.899 203.294 C 179.208 203.095,179.204 196.902,178.895 196.706 C 178.769 196.626,178.596 196.051,178.511 195.427 C 178.426 194.803,178.236 194.172,178.088 194.024 C 177.940 193.876,177.700 193.395,177.555 192.955 C 177.410 192.515,177.201 192.155,177.092 192.155 C 176.983 192.155,176.893 192.034,176.891 191.886 C 176.885 191.267,173.609 187.815,172.273 187.020 C 170.401 185.905,169.975 185.702,168.993 185.459 C 168.433 185.321,167.914 185.116,167.841 185.006 C 167.667 184.743,161.656 184.575,161.096 184.817 M195.056 184.775 C 194.820 184.827,194.433 184.953,194.197 185.056 C 193.960 185.159,193.478 185.307,193.125 185.384 C 192.263 185.574,190.250 186.506,189.860 186.896 C 189.686 187.070,189.453 187.211,189.340 187.211 C 189.048 187.211,185.492 190.741,185.492 191.032 C 185.492 191.165,185.371 191.351,185.223 191.446 C 185.075 191.540,184.809 191.908,184.632 192.262 C 184.454 192.617,184.197 193.026,184.060 193.171 C 183.923 193.317,183.746 193.825,183.665 194.300 C 183.585 194.775,183.420 195.164,183.298 195.164 C 183.177 195.164,183.127 195.353,183.187 195.583 C 183.247 195.814,183.186 196.040,183.051 196.085 C 182.696 196.203,182.706 203.585,183.062 203.704 C 183.203 203.751,183.272 203.910,183.215 204.058 C 183.158 204.206,183.260 204.611,183.441 204.958 C 183.622 205.305,183.770 205.758,183.771 205.965 C 183.772 206.171,183.875 206.341,184.000 206.341 C 184.125 206.341,184.168 206.437,184.095 206.556 C 184.022 206.674,184.054 206.771,184.166 206.771 C 184.278 206.771,184.425 206.988,184.492 207.254 C 184.614 207.739,185.057 208.404,185.760 209.160 C 185.967 209.383,186.136 209.641,186.136 209.734 C 186.136 209.878,186.949 210.649,188.678 212.144 C 188.883 212.321,189.338 212.611,189.689 212.788 C 190.041 212.966,190.405 213.232,190.500 213.380 C 190.594 213.528,190.789 213.649,190.933 213.649 C 191.076 213.649,191.531 213.828,191.943 214.048 C 193.378 214.814,206.107 215.427,207.720 214.808 C 208.223 214.615,208.241 198.388,207.738 198.388 C 207.560 198.388,207.415 198.291,207.415 198.173 C 207.415 198.036,205.507 197.958,202.121 197.958 C 195.801 197.958,196.024 197.868,196.024 200.430 C 196.024 202.861,196.090 202.902,200.079 202.902 L 203.332 202.902 203.332 206.771 L 203.332 210.639 200.107 210.639 C 198.334 210.639,196.883 210.564,196.883 210.472 C 196.883 210.380,196.212 210.199,195.391 210.070 C 194.570 209.940,193.741 209.677,193.549 209.485 C 193.356 209.292,193.058 209.135,192.885 209.135 C 192.712 209.135,192.515 208.990,192.447 208.812 C 192.379 208.635,192.198 208.490,192.045 208.490 C 191.892 208.490,191.328 208.031,190.793 207.469 C 189.292 205.896,188.931 205.440,188.931 205.119 C 188.931 204.956,188.796 204.771,188.632 204.708 C 188.468 204.645,188.206 204.019,188.050 203.318 C 187.895 202.616,187.691 202.042,187.597 202.042 C 187.503 202.042,187.426 201.123,187.426 200.000 C 187.426 198.877,187.503 197.958,187.598 197.958 C 187.693 197.958,187.890 197.378,188.036 196.668 C 188.183 195.959,188.389 195.379,188.495 195.379 C 188.600 195.379,188.755 195.161,188.838 194.895 C 189.073 194.143,191.324 191.510,191.731 191.510 C 191.829 191.510,192.037 191.388,192.193 191.238 C 193.194 190.281,194.850 189.743,197.148 189.629 C 199.415 189.517,202.042 189.846,202.042 190.241 C 202.042 190.338,202.441 190.538,202.929 190.684 C 203.878 190.968,204.224 190.742,205.266 189.157 C 205.443 188.887,205.758 188.444,205.965 188.173 C 206.931 186.907,205.240 185.803,200.860 184.840 C 199.991 184.649,195.849 184.603,195.056 184.775 M220.312 184.776 C 220.016 184.837,219.678 184.960,219.559 185.049 C 219.441 185.138,218.885 185.334,218.323 185.486 C 217.762 185.638,217.303 185.840,217.303 185.935 C 217.303 186.030,217.100 186.172,216.852 186.251 C 216.294 186.428,213.649 188.969,213.649 189.327 C 213.649 189.471,213.503 189.645,213.326 189.713 C 213.149 189.781,213.004 189.920,213.004 190.022 C 213.004 190.124,212.738 190.767,212.413 191.450 L 211.822 192.692 211.822 203.761 L 211.822 214.831 213.971 214.831 L 216.120 214.831 216.228 204.600 C 216.303 197.478,216.409 194.278,216.578 194.068 C 216.711 193.902,216.894 193.527,216.984 193.234 C 217.194 192.551,218.415 190.884,218.713 190.874 C 218.838 190.869,219.157 190.664,219.422 190.417 C 220.602 189.317,225.344 189.269,225.964 190.351 C 226.059 190.515,226.236 190.650,226.357 190.650 C 226.648 190.650,227.713 191.730,227.894 192.208 C 227.972 192.415,228.132 192.585,228.249 192.585 C 228.366 192.585,228.582 193.165,228.729 193.874 C 228.875 194.584,229.073 195.164,229.167 195.164 C 229.416 195.164,229.379 196.189,229.124 196.346 C 229.006 196.419,228.909 196.733,228.909 197.043 C 228.909 198.302,227.041 200.934,225.900 201.284 C 225.604 201.374,225.188 201.601,224.976 201.788 C 224.484 202.220,221.149 202.254,220.641 201.833 C 220.460 201.682,220.312 201.627,220.312 201.709 C 220.312 201.791,220.160 201.706,219.974 201.520 C 219.788 201.334,219.515 201.182,219.368 201.182 C 219.220 201.182,218.720 200.747,218.258 200.215 C 216.942 198.701,216.873 198.807,216.873 202.349 L 216.873 205.450 218.041 206.003 C 218.684 206.307,219.310 206.556,219.432 206.556 C 219.554 206.556,220.309 207.183,221.111 207.949 C 221.913 208.716,222.637 209.345,222.720 209.347 C 222.804 209.348,223.408 209.882,224.064 210.532 C 224.719 211.182,225.328 211.715,225.416 211.715 C 225.505 211.716,226.136 212.296,226.818 213.005 C 227.500 213.714,228.141 214.293,228.242 214.293 C 228.344 214.293,228.547 214.438,228.694 214.616 C 228.975 214.954,234.927 215.119,234.927 214.789 C 234.927 214.578,233.808 213.434,233.602 213.434 C 233.508 213.434,232.873 212.854,232.191 212.145 C 231.509 211.436,230.864 210.856,230.758 210.855 C 230.652 210.855,229.990 210.274,229.288 209.565 C 228.585 208.855,227.928 208.275,227.828 208.275 C 227.541 208.275,226.132 206.701,226.250 206.512 C 226.308 206.418,226.543 206.341,226.772 206.341 C 227.002 206.341,227.190 206.252,227.190 206.143 C 227.190 206.034,227.486 205.880,227.849 205.800 C 228.212 205.720,228.561 205.519,228.624 205.353 C 228.688 205.187,228.847 205.051,228.978 205.051 C 229.109 205.051,229.413 204.864,229.654 204.636 C 231.388 202.993,232.133 202.158,232.133 201.861 C 232.133 201.736,232.265 201.556,232.425 201.462 C 232.586 201.367,232.840 200.903,232.991 200.430 C 233.141 199.957,233.372 199.434,233.505 199.268 C 233.822 198.870,233.836 192.631,233.520 192.416 C 233.396 192.331,233.174 191.851,233.028 191.349 C 232.881 190.846,232.692 190.435,232.607 190.435 C 232.522 190.435,232.314 190.121,232.144 189.737 C 231.772 188.896,229.539 186.691,228.671 186.307 C 228.329 186.155,228.049 185.962,228.049 185.878 C 228.049 185.793,227.638 185.604,227.136 185.457 C 226.634 185.310,226.160 185.100,226.084 184.989 C 225.933 184.769,221.181 184.593,220.312 184.776 M246.319 184.766 C 246.024 184.820,245.588 184.951,245.352 185.056 C 245.116 185.161,244.559 185.358,244.116 185.493 C 243.673 185.629,243.310 185.806,243.310 185.886 C 243.310 185.966,243.010 186.164,242.644 186.327 C 241.736 186.728,239.279 189.184,239.110 189.858 C 239.034 190.158,238.848 190.452,238.697 190.510 C 238.545 190.568,238.357 190.955,238.279 191.370 C 238.202 191.784,238.020 192.163,237.876 192.211 C 237.675 192.278,237.614 194.898,237.614 203.564 L 237.614 214.831 239.764 214.831 L 241.913 214.831 241.971 210.801 L 242.030 206.771 248.473 206.771 L 254.917 206.771 254.917 210.491 C 254.917 215.165,254.806 214.976,257.499 214.893 L 259.538 214.831 259.597 204.729 C 259.652 195.223,259.508 191.848,259.033 191.517 C 258.943 191.454,258.735 191.064,258.571 190.650 C 258.407 190.236,258.147 189.821,257.992 189.726 C 257.837 189.631,257.711 189.444,257.711 189.310 C 257.711 189.023,255.007 186.351,254.716 186.351 C 254.607 186.351,254.390 186.226,254.234 186.074 C 253.246 185.109,248.621 184.345,246.319 184.766 M270.607 184.762 C 270.430 184.830,269.980 185.022,269.607 185.189 C 269.235 185.355,268.773 185.492,268.580 185.492 C 268.387 185.492,268.174 185.637,268.106 185.814 C 268.038 185.991,267.871 186.137,267.736 186.137 C 267.504 186.137,266.585 186.807,265.879 187.492 C 265.281 188.071,264.763 188.819,264.547 189.414 C 264.429 189.739,264.253 190.005,264.157 190.005 C 264.061 190.005,263.917 190.392,263.837 190.864 C 263.757 191.336,263.607 191.775,263.503 191.840 C 263.118 192.078,263.249 214.658,263.636 214.806 C 264.080 214.977,267.245 214.978,267.688 214.808 C 267.992 214.691,268.028 213.557,268.029 204.222 C 268.031 192.127,267.974 192.570,269.753 190.688 C 270.736 189.649,272.406 189.301,274.451 189.710 C 275.268 189.874,276.981 191.463,277.176 192.238 C 277.253 192.547,277.403 192.800,277.509 192.800 C 277.618 192.800,277.701 197.332,277.703 203.385 C 277.707 216.291,277.426 214.968,280.145 214.892 L 282.321 214.831 282.429 203.672 C 282.512 195.013,282.596 192.493,282.805 192.423 C 282.953 192.374,283.074 192.210,283.074 192.059 C 283.074 191.534,285.140 189.826,285.961 189.672 C 287.758 189.334,291.024 190.285,291.026 191.145 C 291.026 191.240,291.268 191.674,291.564 192.109 L 292.101 192.899 292.101 203.579 C 292.101 209.452,292.160 214.411,292.231 214.598 C 292.412 215.068,296.272 215.097,296.738 214.631 C 297.098 214.270,297.204 193.311,296.848 192.635 C 296.740 192.430,296.540 191.706,296.403 191.026 C 296.266 190.347,296.064 189.790,295.954 189.790 C 295.845 189.790,295.755 189.649,295.755 189.476 C 295.755 189.011,293.278 186.446,292.530 186.136 C 292.176 185.990,291.886 185.789,291.886 185.690 C 291.886 185.592,291.548 185.448,291.134 185.370 C 290.720 185.292,290.382 185.149,290.382 185.051 C 290.382 184.822,290.113 184.798,287.243 184.766 C 285.831 184.750,284.646 184.840,284.341 184.986 C 284.058 185.122,283.487 185.361,283.074 185.517 C 282.360 185.787,281.681 186.286,280.550 187.371 L 280.048 187.853 279.359 187.102 C 278.980 186.689,278.546 186.351,278.393 186.351 C 278.241 186.351,278.066 186.220,278.005 186.060 C 277.943 185.899,277.487 185.640,276.990 185.484 C 276.494 185.327,275.961 185.103,275.805 184.985 C 275.496 184.750,271.128 184.563,270.607 184.762 M300.761 185.062 C 300.699 185.298,300.563 185.492,300.459 185.492 C 300.118 185.492,300.232 214.119,300.574 214.570 C 300.825 214.902,301.156 214.946,302.985 214.893 L 305.105 214.831 305.160 200.126 C 305.224 182.968,305.490 184.632,302.687 184.632 C 301.054 184.632,300.862 184.675,300.761 185.062 M317.577 184.837 C 317.507 184.951,317.308 184.989,317.134 184.922 C 316.961 184.855,316.819 184.898,316.819 185.018 C 316.819 185.137,316.529 185.336,316.174 185.459 C 315.819 185.583,315.529 185.786,315.529 185.910 C 315.529 186.035,315.411 186.136,315.267 186.136 C 314.945 186.136,313.811 187.433,313.810 187.802 C 313.810 187.950,313.725 188.071,313.620 188.071 C 313.342 188.071,312.950 189.817,312.950 191.057 C 312.950 192.374,313.344 194.304,313.613 194.304 C 313.721 194.304,313.810 194.425,313.811 194.573 C 313.815 195.842,316.923 197.481,319.800 197.731 C 321.031 197.838,322.098 198.016,322.169 198.128 C 322.241 198.239,322.542 198.404,322.837 198.495 C 323.582 198.724,325.279 200.489,325.627 201.397 C 325.785 201.811,325.996 202.241,326.096 202.354 C 326.452 202.757,326.292 205.153,325.846 206.075 C 325.610 206.564,325.416 207.061,325.416 207.179 C 325.416 207.297,325.295 207.471,325.147 207.566 C 324.999 207.660,324.742 208.002,324.576 208.325 C 324.409 208.648,324.106 208.966,323.903 209.030 C 323.700 209.095,323.312 209.340,323.041 209.574 C 322.770 209.809,322.178 210.061,321.726 210.133 C 321.273 210.205,320.903 210.349,320.903 210.452 C 320.903 210.555,320.516 210.639,320.043 210.639 C 319.570 210.639,319.183 210.555,319.183 210.452 C 319.183 210.349,318.695 210.200,318.098 210.121 C 317.452 210.035,316.965 209.850,316.893 209.663 C 316.827 209.491,316.666 209.350,316.536 209.350 C 315.998 209.350,314.243 207.187,314.001 206.227 C 313.867 205.694,313.672 205.206,313.568 205.142 C 313.323 204.990,313.322 202.902,313.568 202.902 C 313.671 202.902,313.819 202.589,313.895 202.207 C 313.972 201.824,314.274 201.149,314.567 200.707 C 315.320 199.568,315.274 199.425,313.596 197.745 C 312.202 196.347,311.445 195.901,311.445 196.476 C 311.445 196.607,311.228 196.985,310.962 197.317 C 309.909 198.629,309.741 198.905,309.602 199.547 C 309.522 199.915,309.348 200.284,309.215 200.368 C 309.052 200.472,308.977 201.656,308.983 204.022 C 308.992 207.817,308.947 207.639,310.598 210.408 C 311.261 211.521,313.579 213.581,314.401 213.788 C 314.667 213.855,314.884 213.980,314.884 214.066 C 314.884 215.212,323.955 215.141,325.110 213.986 C 325.280 213.816,325.621 213.612,325.869 213.534 C 326.351 213.381,328.794 211.040,329.221 210.321 C 330.524 208.128,331.000 206.441,331.003 203.994 C 331.005 202.585,330.596 200.107,330.362 200.107 C 330.269 200.107,330.130 199.772,330.053 199.361 C 329.976 198.950,329.796 198.539,329.652 198.448 C 329.509 198.356,329.247 197.993,329.070 197.642 C 328.721 196.950,327.016 195.164,326.704 195.164 C 326.599 195.164,326.435 195.043,326.341 194.895 C 325.820 194.082,322.409 192.944,320.661 193.001 C 318.227 193.080,316.747 191.320,318.149 190.014 C 318.649 189.548,320.124 189.399,320.365 189.790 C 320.716 190.358,323.912 187.656,323.912 186.791 C 323.912 186.199,322.448 185.090,321.512 184.972 C 321.433 184.962,321.296 184.882,321.207 184.793 C 320.971 184.557,317.726 184.596,317.577 184.837 M334.780 185.107 C 334.551 185.435,334.444 186.079,334.444 187.137 C 334.444 189.351,334.789 189.575,338.185 189.575 L 340.677 189.575 340.677 201.950 C 340.677 216.289,340.420 214.938,343.149 214.938 C 345.878 214.938,345.621 216.289,345.621 201.950 L 345.621 189.575 348.146 189.569 C 351.494 189.560,351.458 189.590,351.378 186.859 L 351.316 184.739 343.217 184.683 L 335.117 184.627 334.780 185.107 M355.514 185.050 C 355.363 185.332,355.308 190.274,355.345 200.150 L 355.400 214.831 357.532 214.893 C 360.206 214.970,360.014 215.370,360.018 209.726 C 360.020 207.155,360.070 205.051,360.129 205.051 C 360.226 205.051,360.458 205.246,361.544 206.243 C 361.731 206.415,362.000 206.556,362.142 206.556 C 362.283 206.556,362.455 206.701,362.523 206.878 C 362.591 207.055,362.728 207.200,362.827 207.200 C 362.927 207.200,363.859 207.838,364.900 208.618 C 365.941 209.398,367.010 210.121,367.276 210.225 C 367.542 210.329,367.759 210.515,367.759 210.639 C 367.759 210.764,368.001 210.957,368.297 211.069 C 368.592 211.182,368.834 211.366,368.834 211.479 C 368.834 211.593,369.017 211.743,369.240 211.814 C 369.463 211.885,369.885 212.157,370.176 212.420 C 370.468 212.682,370.930 213.041,371.203 213.219 C 371.476 213.396,371.877 213.710,372.093 213.917 C 372.310 214.124,372.573 214.293,372.677 214.293 C 372.780 214.293,372.986 214.438,373.133 214.616 C 373.939 215.587,374.207 215.054,374.207 212.484 C 374.207 209.979,374.112 209.350,373.732 209.350 C 373.614 209.350,373.255 209.132,372.935 208.866 C 372.615 208.600,372.078 208.189,371.743 207.953 C 371.407 207.716,370.954 207.354,370.736 207.147 C 370.517 206.940,370.287 206.771,370.225 206.771 C 370.134 206.771,367.941 205.125,367.007 204.356 C 366.889 204.258,366.260 203.788,365.610 203.311 C 364.371 202.403,364.269 202.093,364.977 201.385 C 365.207 201.155,365.395 200.822,365.395 200.645 C 365.395 200.467,365.468 200.322,365.557 200.322 C 365.647 200.322,365.857 200.008,366.024 199.624 C 366.191 199.240,366.394 198.877,366.476 198.818 C 366.627 198.708,367.809 196.645,368.661 195.003 C 368.921 194.500,369.204 194.089,369.290 194.089 C 369.375 194.089,369.508 193.800,369.586 193.446 C 369.664 193.092,369.850 192.729,370.000 192.640 C 370.291 192.467,370.748 191.693,371.334 190.382 C 371.531 189.938,371.764 189.575,371.850 189.575 C 371.936 189.575,372.133 189.261,372.288 188.877 C 372.443 188.493,372.689 188.105,372.835 188.016 C 372.980 187.927,373.163 187.564,373.240 187.210 C 373.318 186.856,373.455 186.566,373.545 186.566 C 373.770 186.566,374.207 185.565,374.207 185.052 C 374.207 184.660,374.044 184.632,371.750 184.632 L 369.293 184.632 368.849 185.256 C 368.604 185.600,368.404 185.986,368.404 186.116 C 368.404 186.245,368.318 186.351,368.212 186.351 C 368.107 186.351,367.962 186.586,367.890 186.874 C 367.818 187.161,367.630 187.524,367.473 187.681 C 367.171 187.984,366.710 188.779,366.139 189.983 C 365.949 190.384,365.655 190.851,365.487 191.019 C 365.318 191.187,365.122 191.560,365.050 191.847 C 364.977 192.135,364.834 192.370,364.730 192.370 C 364.626 192.370,364.398 192.684,364.223 193.068 C 364.049 193.452,363.610 194.250,363.249 194.841 C 362.888 195.433,362.492 196.156,362.368 196.449 C 362.245 196.742,362.077 197.032,361.996 197.094 C 361.789 197.251,361.390 197.912,360.858 198.982 C 360.607 199.486,360.316 199.951,360.211 200.015 C 360.103 200.083,360.019 196.972,360.015 192.759 C 360.009 186.967,359.947 185.303,359.722 185.008 C 359.277 184.422,355.832 184.456,355.514 185.050 M387.075 184.728 C 387.000 184.805,386.710 184.896,386.430 184.928 C 384.557 185.147,380.011 188.227,380.011 189.278 C 380.011 189.442,379.925 189.575,379.821 189.575 C 379.503 189.575,378.515 191.811,378.287 193.047 C 378.157 193.747,378.094 198.307,378.128 204.520 L 378.184 214.831 380.315 214.893 C 382.968 214.970,382.798 215.265,382.802 210.586 L 382.805 206.771 389.248 206.771 L 395.692 206.771 395.750 210.801 L 395.809 214.831 397.851 214.831 L 399.893 214.831 399.952 204.299 C 400.011 193.883,399.828 190.650,399.178 190.650 C 399.097 190.650,398.908 190.373,398.758 190.034 C 398.396 189.216,395.521 186.368,394.901 186.213 C 394.632 186.145,394.412 186.008,394.412 185.907 C 394.412 185.806,394.001 185.604,393.498 185.457 C 392.996 185.310,392.519 185.094,392.439 184.977 C 392.276 184.739,387.289 184.507,387.075 184.728 M7.322 189.798 C 7.551 189.920,7.738 190.162,7.738 190.335 C 7.738 190.509,7.834 190.650,7.953 190.650 C 8.071 190.650,8.168 190.844,8.168 191.080 C 8.168 191.316,8.071 191.510,7.953 191.510 C 7.834 191.510,7.738 191.656,7.738 191.836 C 7.738 192.317,6.443 193.034,5.696 192.966 L 5.051 192.907 4.990 195.309 L 4.930 197.710 9.090 197.780 C 12.706 197.841,13.299 197.900,13.626 198.227 C 13.833 198.434,14.091 198.603,14.201 198.603 C 14.573 198.603,16.069 200.110,16.336 200.755 C 16.483 201.108,16.676 201.397,16.767 201.397 C 17.396 201.397,17.419 206.139,16.792 206.544 C 16.691 206.610,16.541 206.879,16.458 207.143 C 16.107 208.268,13.469 210.210,12.291 210.210 C 12.033 210.210,11.822 210.306,11.822 210.425 C 11.822 210.543,11.435 210.639,10.962 210.639 C 10.489 210.639,10.102 210.566,10.102 210.475 C 10.102 210.385,9.620 210.197,9.030 210.057 C 8.441 209.917,7.809 209.676,7.625 209.522 C 6.488 208.568,5.803 207.872,5.803 207.669 C 5.803 207.541,5.669 207.359,5.504 207.265 C 4.778 206.848,4.064 194.079,4.606 191.193 C 4.867 189.799,6.121 189.155,7.322 189.798 M58.238 189.808 C 58.835 189.936,59.323 190.130,59.323 190.238 C 59.323 190.347,59.469 190.435,59.648 190.435 C 60.060 190.435,60.882 190.889,61.107 191.241 C 61.201 191.389,61.376 191.510,61.495 191.510 C 61.789 191.510,63.837 193.543,63.837 193.835 C 63.837 193.963,63.958 194.145,64.105 194.240 C 64.457 194.465,64.911 195.287,64.911 195.698 C 64.911 195.877,65.000 196.024,65.108 196.024 C 65.431 196.024,65.771 198.064,65.771 199.994 C 65.771 201.783,65.408 203.976,65.113 203.976 C 65.028 203.976,64.903 204.194,64.836 204.460 C 64.537 205.646,61.208 208.976,60.021 209.275 C 59.756 209.342,59.538 209.467,59.538 209.554 C 59.538 209.778,58.002 210.210,57.202 210.210 C 56.832 210.210,56.529 210.306,56.529 210.425 C 56.529 210.550,55.812 210.639,54.809 210.639 L 53.090 210.639 53.090 200.107 L 53.090 189.575 55.121 189.575 C 56.238 189.575,57.641 189.680,58.238 189.808 M166.685 189.805 C 167.792 190.097,169.296 190.847,169.946 191.432 C 170.227 191.685,170.793 192.121,171.203 192.400 C 171.612 192.679,171.948 193.010,171.949 193.135 C 171.950 193.261,172.122 193.551,172.332 193.780 C 174.237 195.859,175.039 202.339,173.591 203.947 C 173.416 204.140,173.205 204.573,173.122 204.907 C 173.038 205.242,172.837 205.567,172.675 205.629 C 172.513 205.691,172.380 205.853,172.380 205.989 C 172.380 206.406,169.911 208.597,168.834 209.135 C 168.479 209.312,168.138 209.525,168.075 209.608 C 168.013 209.691,167.311 209.883,166.517 210.034 C 165.722 210.184,165.073 210.382,165.073 210.474 C 165.073 210.565,164.541 210.639,163.890 210.639 C 163.240 210.639,162.708 210.565,162.708 210.474 C 162.708 210.382,162.058 210.184,161.264 210.034 C 160.469 209.883,159.767 209.675,159.703 209.572 C 159.640 209.468,159.314 209.315,158.981 209.232 C 158.648 209.148,158.324 208.947,158.262 208.785 C 158.199 208.623,158.049 208.490,157.927 208.490 C 157.607 208.490,155.411 206.285,155.405 205.958 C 155.403 205.806,155.269 205.632,155.109 205.570 C 154.948 205.509,154.691 205.077,154.537 204.610 C 154.383 204.143,154.189 203.761,154.106 203.761 C 153.854 203.761,153.466 201.415,153.466 199.893 C 153.466 198.370,153.854 196.024,154.106 196.024 C 154.189 196.024,154.385 195.637,154.541 195.164 C 154.697 194.691,154.903 194.304,154.999 194.304 C 155.096 194.304,155.335 193.990,155.532 193.606 C 155.729 193.221,155.960 192.859,156.045 192.800 C 156.493 192.488,157.650 191.575,157.962 191.286 C 158.159 191.103,158.655 190.819,159.063 190.653 C 159.472 190.488,159.859 190.277,159.923 190.185 C 160.300 189.643,165.058 189.376,166.685 189.805 M251.721 190.282 C 252.141 190.603,252.573 190.871,252.680 190.878 C 252.972 190.898,254.243 192.716,254.399 193.337 C 254.473 193.635,254.620 193.931,254.726 193.996 C 254.831 194.061,254.917 195.947,254.917 198.186 L 254.917 202.257 248.469 202.257 L 242.020 202.257 242.020 198.710 C 242.020 196.489,242.101 195.164,242.235 195.164 C 242.354 195.164,242.450 194.878,242.450 194.529 C 242.450 193.791,242.859 192.768,243.252 192.520 C 243.402 192.426,243.525 192.249,243.525 192.128 C 243.525 191.841,244.715 190.650,245.002 190.650 C 245.124 190.650,245.300 190.514,245.395 190.347 C 245.942 189.382,250.480 189.335,251.721 190.282 M391.295 189.815 C 391.768 189.945,392.232 190.186,392.327 190.351 C 392.421 190.515,392.603 190.650,392.731 190.650 C 392.933 190.650,393.841 191.546,394.521 192.415 C 394.908 192.910,395.271 193.882,395.271 194.422 C 395.271 194.712,395.368 194.949,395.486 194.949 C 395.621 194.949,395.701 196.310,395.701 198.603 L 395.701 202.257 389.241 202.257 L 382.780 202.257 382.846 197.950 C 382.888 195.237,382.997 193.586,383.140 193.490 C 383.264 193.406,383.494 193.023,383.649 192.638 C 383.805 192.254,384.000 191.940,384.084 191.940 C 384.168 191.940,384.362 191.706,384.515 191.421 C 384.668 191.135,384.950 190.846,385.142 190.778 C 385.334 190.710,385.918 190.412,386.439 190.115 C 387.502 189.509,389.694 189.374,391.295 189.815 " stroke="none" fill="#84b41c" fill-rule="evenodd"></path><path id="path2" d="M210.950 7.093 C 210.950 10.817,210.979 12.340,211.015 10.478 C 211.051 8.616,211.051 5.570,211.015 3.708 C 210.979 1.846,210.950 3.369,210.950 7.093 M180.866 22.246 C 180.866 32.649,180.892 36.936,180.924 31.773 C 180.956 26.610,180.956 18.099,180.924 12.859 C 180.892 7.619,180.866 11.843,180.866 22.246 M180.843 49.221 C 180.843 50.462,180.878 50.970,180.921 50.349 C 180.965 49.729,180.965 48.713,180.921 48.092 C 180.878 47.472,180.843 47.980,180.843 49.221 M196.325 53.197 C 196.325 54.970,196.358 55.667,196.399 54.746 C 196.439 53.824,196.439 52.373,196.398 51.522 C 196.357 50.670,196.324 51.424,196.325 53.197 M181.032 57.281 C 181.035 57.754,181.079 57.922,181.130 57.655 C 181.181 57.387,181.179 57.000,181.126 56.795 C 181.072 56.589,181.030 56.808,181.032 57.281 M220.300 67.007 L 219.559 67.813 220.365 67.072 C 220.809 66.665,221.171 66.302,221.171 66.266 C 221.171 66.102,220.990 66.257,220.300 67.007 M209.410 86.778 C 209.975 86.823,210.846 86.822,211.344 86.777 C 211.843 86.732,211.381 86.696,210.317 86.696 C 209.253 86.697,208.845 86.734,209.410 86.778 M152.494 112.843 C 152.494 123.778,152.520 128.251,152.552 122.783 C 152.584 117.316,152.584 108.369,152.552 102.902 C 152.520 97.434,152.494 101.908,152.494 112.843 M166.891 95.486 C 166.835 95.634,166.814 108.377,166.845 123.804 L 166.901 151.854 166.954 123.631 C 166.994 102.363,167.068 95.445,167.255 95.561 C 167.409 95.656,167.445 95.620,167.350 95.466 C 167.152 95.146,167.019 95.152,166.891 95.486 M209.088 100.750 C 209.713 100.793,210.680 100.793,211.238 100.749 C 211.795 100.705,211.284 100.669,210.102 100.670 C 208.920 100.670,208.464 100.706,209.088 100.750 M209.076 115.362 C 209.458 115.409,210.135 115.410,210.581 115.364 C 211.027 115.317,210.715 115.278,209.887 115.277 C 209.060 115.276,208.695 115.315,209.076 115.362 M319.774 192.951 C 320.040 193.002,320.476 193.002,320.742 192.951 C 321.008 192.900,320.790 192.858,320.258 192.858 C 319.726 192.858,319.508 192.900,319.774 192.951 " stroke="none" fill="#bcd484" fill-rule="evenodd"></path><path id="path3" d="M196.343 25.255 C 196.342 38.968,196.368 44.610,196.400 37.792 C 196.431 30.974,196.431 19.754,196.400 12.859 C 196.368 5.964,196.343 11.542,196.343 25.255 M247.632 13.702 C 247.645 13.791,248.201 14.344,248.868 14.931 L 250.081 15.999 248.906 14.770 C 247.708 13.517,247.591 13.419,247.632 13.702 M219.989 15.476 C 220.226 15.577,220.564 15.660,220.742 15.660 C 220.945 15.660,220.905 15.592,220.634 15.476 C 220.398 15.374,220.059 15.291,219.882 15.291 C 219.679 15.291,219.718 15.359,219.989 15.476 M251.899 17.894 C 252.426 18.455,252.885 18.915,252.920 18.915 C 253.081 18.915,252.910 18.722,251.961 17.831 L 250.940 16.873 251.899 17.894 M227.834 18.162 C 228.130 18.331,228.469 18.469,228.587 18.469 C 228.705 18.469,228.560 18.331,228.264 18.162 C 227.969 17.993,227.630 17.855,227.512 17.855 C 227.394 17.855,227.539 17.993,227.834 18.162 M241.376 27.190 C 241.777 27.603,242.153 27.942,242.212 27.942 C 242.271 27.942,241.992 27.603,241.591 27.190 C 241.190 26.776,240.813 26.437,240.754 26.437 C 240.695 26.437,240.975 26.776,241.376 27.190 M212.628 28.305 C 212.834 28.359,213.173 28.359,213.380 28.305 C 213.587 28.251,213.418 28.207,213.004 28.207 C 212.590 28.207,212.421 28.251,212.628 28.305 M210.256 35.506 C 210.230 39.489,210.282 42.792,210.371 42.847 C 210.459 42.902,210.507 40.804,210.477 38.185 C 210.373 29.147,210.302 28.288,210.256 35.506 M214.672 28.524 C 214.939 28.575,215.326 28.573,215.532 28.520 C 215.737 28.466,215.519 28.424,215.046 28.426 C 214.573 28.428,214.405 28.472,214.672 28.524 M181.063 44.062 C 181.063 45.776,181.097 46.478,181.138 45.621 C 181.178 44.764,181.178 43.361,181.138 42.504 C 181.097 41.647,181.063 42.348,181.063 44.062 M251.299 42.999 C 251.425 43.359,251.567 43.615,251.616 43.566 C 251.722 43.459,251.317 42.343,251.172 42.343 C 251.116 42.343,251.173 42.638,251.299 42.999 M220.518 47.555 C 221.408 48.504,221.601 48.675,221.601 48.513 C 221.601 48.479,221.142 48.019,220.580 47.492 L 219.559 46.534 220.518 47.555 M181.061 53.949 C 181.061 55.427,181.095 56.032,181.137 55.293 C 181.179 54.554,181.179 53.345,181.137 52.606 C 181.095 51.867,181.061 52.472,181.061 53.949 M267.901 55.991 C 267.901 58.001,267.933 58.852,267.973 57.883 C 268.012 56.913,268.013 55.269,267.973 54.229 C 267.934 53.189,267.901 53.982,267.901 55.991 M239.723 57.281 C 239.724 57.990,239.764 58.255,239.812 57.868 C 239.860 57.482,239.859 56.902,239.810 56.579 C 239.761 56.256,239.721 56.572,239.723 57.281 M253.694 57.281 C 253.695 57.990,253.735 58.255,253.783 57.868 C 253.831 57.482,253.830 56.902,253.781 56.579 C 253.732 56.256,253.692 56.572,253.694 57.281 M196.288 56.959 C 196.288 57.372,196.333 57.542,196.387 57.335 C 196.441 57.128,196.441 56.789,196.387 56.582 C 196.333 56.376,196.288 56.545,196.288 56.959 M152.709 75.336 C 152.709 85.148,152.735 89.193,152.767 84.326 C 152.799 79.458,152.799 71.430,152.767 66.486 C 152.735 61.541,152.709 65.524,152.709 75.336 M166.846 59.001 C 166.849 59.473,166.893 59.642,166.944 59.374 C 166.995 59.107,166.994 58.720,166.940 58.514 C 166.886 58.309,166.844 58.528,166.846 59.001 M181.247 59.001 C 181.249 59.473,181.294 59.642,181.345 59.374 C 181.396 59.107,181.394 58.720,181.341 58.514 C 181.287 58.309,181.245 58.528,181.247 59.001 M167.057 60.828 C 167.057 61.241,167.101 61.411,167.155 61.204 C 167.209 60.997,167.209 60.658,167.155 60.451 C 167.101 60.244,167.057 60.414,167.057 60.828 M267.433 63.407 C 267.433 63.821,267.477 63.990,267.531 63.783 C 267.585 63.576,267.585 63.238,267.531 63.031 C 267.477 62.824,267.433 62.993,267.433 63.407 M252.245 68.258 C 252.166 68.573,252.143 68.872,252.194 68.923 C 252.244 68.974,252.351 68.757,252.430 68.442 C 252.509 68.127,252.532 67.828,252.481 67.778 C 252.431 67.727,252.324 67.943,252.245 68.258 M266.443 68.807 C 266.264 69.703,266.437 69.877,266.631 68.995 C 266.712 68.624,266.734 68.275,266.680 68.220 C 266.625 68.165,266.518 68.429,266.443 68.807 M189.361 77.915 C 190.003 78.565,190.576 79.097,190.636 79.097 C 190.695 79.097,190.218 78.565,189.575 77.915 C 188.933 77.265,188.360 76.733,188.301 76.733 C 188.241 76.733,188.718 77.265,189.361 77.915 M239.535 89.468 L 238.904 90.167 239.602 89.535 C 239.987 89.188,240.301 88.874,240.301 88.837 C 240.301 88.671,240.124 88.817,239.535 89.468 M169.694 98.012 C 170.990 99.312,172.099 100.376,172.158 100.376 C 172.217 100.376,171.205 99.312,169.909 98.012 C 168.612 96.711,167.503 95.648,167.444 95.648 C 167.385 95.648,168.397 96.711,169.694 98.012 M250.935 98.710 L 249.221 100.484 250.994 98.769 C 251.969 97.826,252.767 97.028,252.767 96.996 C 252.767 96.839,252.528 97.063,250.935 98.710 M206.934 100.743 C 207.202 100.795,207.589 100.793,207.794 100.739 C 208.000 100.685,207.781 100.643,207.308 100.645 C 206.835 100.648,206.667 100.692,206.934 100.743 M212.523 100.743 C 212.790 100.795,213.177 100.793,213.382 100.739 C 213.588 100.685,213.369 100.643,212.896 100.645 C 212.423 100.648,212.255 100.692,212.523 100.743 M195.486 113.272 C 195.723 113.374,196.061 113.457,196.239 113.457 C 196.442 113.457,196.402 113.389,196.131 113.272 C 195.895 113.171,195.556 113.088,195.379 113.088 C 195.176 113.088,195.215 113.156,195.486 113.272 M206.282 115.147 C 206.664 115.195,207.341 115.195,207.787 115.149 C 208.233 115.102,207.920 115.063,207.093 115.062 C 206.265 115.062,205.901 115.100,206.282 115.147 M212.090 115.147 C 212.474 115.195,213.103 115.195,213.487 115.147 C 213.872 115.100,213.557 115.061,212.789 115.061 C 212.020 115.061,211.706 115.100,212.090 115.147 M152.699 137.560 C 152.699 140.339,152.729 141.475,152.767 140.086 C 152.804 138.697,152.804 136.424,152.767 135.035 C 152.729 133.646,152.699 134.782,152.699 137.560 M153.896 143.689 C 153.896 143.831,155.060 144.864,155.539 145.148 C 156.087 145.472,155.830 145.174,154.863 144.366 C 154.331 143.921,153.896 143.617,153.896 143.689 M157.160 146.386 C 157.212 146.542,157.381 146.711,157.536 146.762 C 157.697 146.816,157.778 146.736,157.724 146.574 C 157.673 146.419,157.503 146.250,157.348 146.198 C 157.187 146.145,157.106 146.225,157.160 146.386 M158.409 147.233 C 158.705 147.464,159.044 147.653,159.162 147.653 C 159.280 147.653,159.135 147.464,158.839 147.233 C 158.544 147.001,158.205 146.812,158.087 146.812 C 157.969 146.812,158.114 147.001,158.409 147.233 M159.602 147.935 C 159.662 148.090,160.022 148.331,160.403 148.471 C 161.047 148.706,161.066 148.701,160.666 148.393 C 159.899 147.801,159.482 147.621,159.602 147.935 M161.204 148.834 C 161.204 148.893,161.494 149.091,161.848 149.275 C 162.203 149.458,162.493 149.560,162.493 149.501 C 162.493 149.441,162.203 149.243,161.848 149.060 C 161.494 148.876,161.204 148.775,161.204 148.834 M164.381 150.723 C 164.631 151.024,165.502 151.391,165.502 151.194 C 165.502 151.149,165.188 150.950,164.804 150.751 C 164.213 150.446,164.148 150.442,164.381 150.723 M165.717 151.489 C 165.717 151.593,165.965 151.790,166.268 151.928 C 166.583 152.072,166.762 152.087,166.686 151.964 C 166.491 151.649,165.717 151.269,165.717 151.489 " stroke="none" fill="#c4d89c" fill-rule="evenodd"></path><path id="path4" d="M250.833 16.658 C 252.189 18.017,253.346 19.130,253.405 19.130 C 253.464 19.130,252.403 18.017,251.048 16.658 C 249.692 15.298,248.535 14.186,248.476 14.186 C 248.416 14.186,249.477 15.298,250.833 16.658 M253.842 19.842 C 253.842 19.879,254.156 20.193,254.541 20.540 L 255.239 21.171 254.608 20.473 C 254.019 19.822,253.842 19.676,253.842 19.842 M241.376 27.405 C 242.018 28.055,242.591 28.587,242.651 28.587 C 242.710 28.587,242.233 28.055,241.591 27.405 C 240.948 26.754,240.375 26.222,240.316 26.222 C 240.256 26.222,240.733 26.754,241.376 27.405 M210.091 35.572 C 210.091 39.710,210.120 41.372,210.156 39.266 C 210.191 37.160,210.191 33.775,210.155 31.743 C 210.120 29.712,210.091 31.435,210.091 35.572 M217.105 28.664 C 217.155 28.706,217.485 28.806,217.840 28.885 C 218.311 28.991,218.398 28.971,218.162 28.812 C 217.872 28.615,216.890 28.478,217.105 28.664 M230.736 36.110 C 231.198 36.582,231.624 36.969,231.683 36.969 C 231.742 36.969,231.413 36.582,230.951 36.110 C 230.489 35.637,230.063 35.250,230.004 35.250 C 229.945 35.250,230.274 35.637,230.736 36.110 M249.558 39.011 C 249.558 39.130,249.697 39.468,249.866 39.764 C 250.035 40.059,250.173 40.204,250.173 40.086 C 250.173 39.968,250.035 39.629,249.866 39.334 C 249.697 39.038,249.558 38.893,249.558 39.011 M180.848 44.062 C 180.848 45.776,180.882 46.478,180.923 45.621 C 180.963 44.764,180.963 43.361,180.923 42.504 C 180.882 41.647,180.848 42.348,180.848 44.062 M266.124 41.698 C 266.124 41.875,266.207 42.214,266.308 42.450 C 266.425 42.721,266.493 42.761,266.493 42.558 C 266.493 42.380,266.410 42.042,266.308 41.805 C 266.192 41.535,266.124 41.495,266.124 41.698 M220.204 47.501 C 220.666 47.974,221.092 48.361,221.151 48.361 C 221.210 48.361,220.881 47.974,220.419 47.501 C 219.957 47.028,219.531 46.642,219.472 46.642 C 219.413 46.642,219.742 47.028,220.204 47.501 M238.928 49.973 C 239.104 50.763,239.227 50.935,239.223 50.385 C 239.221 50.159,239.121 49.828,239.001 49.651 C 238.842 49.415,238.822 49.502,238.928 49.973 M180.846 53.949 C 180.846 55.427,180.880 56.032,180.922 55.293 C 180.964 54.554,180.964 53.345,180.922 52.606 C 180.880 51.867,180.846 52.472,180.846 53.949 M253.256 52.660 C 253.256 53.192,253.298 53.409,253.349 53.143 C 253.400 52.877,253.400 52.442,253.349 52.176 C 253.298 51.910,253.256 52.128,253.256 52.660 M268.117 55.991 C 268.117 58.119,268.149 58.961,268.188 57.861 C 268.227 56.762,268.227 55.021,268.188 53.992 C 268.149 52.964,268.117 53.864,268.117 55.991 M239.715 54.809 C 239.715 55.341,239.757 55.559,239.808 55.293 C 239.859 55.027,239.859 54.592,239.808 54.326 C 239.757 54.060,239.715 54.277,239.715 54.809 M253.498 57.281 C 253.498 59.054,253.532 59.751,253.572 58.830 C 253.612 57.908,253.612 56.457,253.572 55.605 C 253.531 54.754,253.498 55.508,253.498 57.281 M239.940 57.174 C 239.940 57.942,239.979 58.256,240.027 57.872 C 240.074 57.488,240.074 56.859,240.027 56.475 C 239.979 56.091,239.940 56.405,239.940 57.174 M224.247 57.711 C 224.248 58.420,224.288 58.684,224.336 58.298 C 224.384 57.912,224.383 57.331,224.334 57.009 C 224.285 56.686,224.246 57.002,224.247 57.711 M159.438 57.117 C 160.062 57.161,161.029 57.160,161.587 57.116 C 162.145 57.072,161.634 57.037,160.451 57.037 C 159.269 57.038,158.813 57.074,159.438 57.117 M153.305 57.330 C 153.748 57.377,154.473 57.377,154.917 57.330 C 155.360 57.284,154.997 57.246,154.111 57.246 C 153.224 57.246,152.861 57.284,153.305 57.330 M181.037 58.893 C 181.037 59.425,181.078 59.643,181.130 59.377 C 181.181 59.111,181.181 58.675,181.130 58.409 C 181.078 58.143,181.037 58.361,181.037 58.893 M167.057 58.893 C 167.057 59.307,167.101 59.476,167.155 59.269 C 167.209 59.062,167.209 58.724,167.155 58.517 C 167.101 58.310,167.057 58.479,167.057 58.893 M196.595 59.001 C 196.667 59.473,196.761 59.901,196.804 59.950 C 196.967 60.135,196.845 58.983,196.658 58.571 C 196.523 58.271,196.503 58.401,196.595 59.001 M239.715 59.538 C 239.715 60.070,239.757 60.287,239.808 60.021 C 239.859 59.756,239.859 59.320,239.808 59.054 C 239.757 58.788,239.715 59.006,239.715 59.538 M181.243 60.613 C 181.243 61.026,181.287 61.196,181.341 60.989 C 181.395 60.782,181.395 60.443,181.341 60.236 C 181.287 60.030,181.243 60.199,181.243 60.613 M253.251 61.795 C 253.254 62.268,253.298 62.436,253.349 62.168 C 253.401 61.901,253.399 61.514,253.345 61.309 C 253.291 61.103,253.249 61.322,253.251 61.795 M239.036 63.873 C 239.023 64.070,238.956 64.409,238.888 64.625 C 238.770 64.998,238.777 64.999,239.010 64.636 C 239.145 64.425,239.211 64.087,239.158 63.884 C 239.071 63.551,239.059 63.550,239.036 63.873 M152.493 78.560 C 152.493 86.599,152.520 89.856,152.552 85.798 C 152.585 81.741,152.585 75.164,152.552 71.183 C 152.520 67.201,152.493 70.521,152.493 78.560 M200.430 67.061 C 200.892 67.534,201.318 67.920,201.377 67.920 C 201.436 67.920,201.107 67.534,200.645 67.061 C 200.183 66.588,199.757 66.201,199.698 66.201 C 199.639 66.201,199.968 66.588,200.430 67.061 M266.216 70.623 C 266.137 70.938,266.114 71.237,266.165 71.287 C 266.215 71.338,266.321 71.122,266.401 70.807 C 266.480 70.492,266.503 70.193,266.452 70.142 C 266.402 70.091,266.295 70.308,266.216 70.623 M169.280 70.715 C 169.359 71.010,169.513 71.397,169.623 71.574 C 169.761 71.798,169.778 71.733,169.678 71.359 C 169.599 71.064,169.445 70.677,169.335 70.500 C 169.197 70.276,169.180 70.341,169.280 70.715 M212.574 70.930 C 211.839 71.084,211.837 71.088,212.466 71.101 C 212.821 71.108,213.305 71.031,213.541 70.930 C 214.058 70.708,213.629 70.708,212.574 70.930 M231.162 78.076 L 229.232 80.064 231.220 78.135 C 233.066 76.342,233.306 76.088,233.150 76.088 C 233.118 76.088,232.223 76.983,231.162 78.076 M189.146 77.915 C 189.788 78.565,190.361 79.097,190.421 79.097 C 190.480 79.097,190.003 78.565,189.361 77.915 C 188.718 77.265,188.145 76.733,188.086 76.733 C 188.027 76.733,188.504 77.265,189.146 77.915 M199.248 84.595 C 199.248 84.740,200.364 85.145,200.471 85.039 C 200.519 84.990,200.264 84.847,199.904 84.722 C 199.543 84.596,199.248 84.539,199.248 84.595 M220.849 84.801 C 220.309 85.061,220.292 85.090,220.742 84.982 C 221.037 84.911,221.371 84.766,221.483 84.661 C 221.762 84.401,221.609 84.435,220.849 84.801 M202.364 85.760 C 202.601 85.862,202.939 85.945,203.117 85.945 C 203.320 85.945,203.280 85.877,203.009 85.760 C 202.773 85.659,202.434 85.576,202.257 85.576 C 202.054 85.576,202.093 85.644,202.364 85.760 M217.840 85.760 C 217.569 85.877,217.529 85.945,217.732 85.945 C 217.910 85.945,218.248 85.862,218.485 85.760 C 218.756 85.644,218.795 85.576,218.592 85.576 C 218.415 85.576,218.076 85.659,217.840 85.760 M242.329 86.459 L 241.698 87.157 242.397 86.526 C 243.048 85.938,243.194 85.760,243.028 85.760 C 242.991 85.760,242.677 86.075,242.329 86.459 M207.364 86.772 C 207.632 86.824,208.018 86.822,208.224 86.768 C 208.429 86.714,208.211 86.672,207.738 86.674 C 207.265 86.677,207.097 86.721,207.364 86.772 M212.520 86.772 C 212.786 86.823,213.221 86.823,213.487 86.772 C 213.753 86.721,213.536 86.679,213.004 86.679 C 212.472 86.679,212.254 86.721,212.520 86.772 M169.586 98.119 C 170.705 99.242,171.668 100.161,171.727 100.161 C 171.786 100.161,170.920 99.242,169.801 98.119 C 168.683 96.996,167.719 96.077,167.660 96.077 C 167.601 96.077,168.468 96.996,169.586 98.119 M251.048 98.764 C 250.167 99.651,249.495 100.376,249.554 100.376 C 249.613 100.376,250.382 99.651,251.263 98.764 C 252.143 97.877,252.816 97.152,252.757 97.152 C 252.697 97.152,251.929 97.877,251.048 98.764 M188.716 111.032 C 188.716 111.177,189.832 111.583,189.939 111.476 C 189.987 111.428,189.732 111.285,189.372 111.159 C 189.011 111.033,188.716 110.976,188.716 111.032 M197.206 113.917 C 197.442 114.019,197.781 114.102,197.958 114.102 C 198.161 114.102,198.122 114.034,197.851 113.917 C 197.614 113.816,197.276 113.733,197.098 113.733 C 196.895 113.733,196.935 113.801,197.206 113.917 M201.612 114.766 C 202.149 114.949,203.483 115.063,203.314 114.912 C 203.264 114.868,202.740 114.776,202.149 114.708 C 201.425 114.624,201.250 114.643,201.612 114.766 M207.364 115.359 C 207.632 115.410,208.018 115.408,208.224 115.355 C 208.429 115.301,208.211 115.259,207.738 115.261 C 207.265 115.263,207.097 115.307,207.364 115.359 M211.660 115.359 C 211.926 115.410,212.362 115.410,212.628 115.359 C 212.894 115.307,212.676 115.265,212.144 115.265 C 211.612 115.265,211.394 115.307,211.660 115.359 M152.482 137.131 C 152.482 139.672,152.514 140.712,152.552 139.441 C 152.590 138.170,152.590 136.091,152.552 134.820 C 152.514 133.549,152.482 134.589,152.482 137.131 " stroke="none" fill="#a4c960" fill-rule="evenodd"></path></g></svg>