<?xml version="1.0" encoding="utf-8"?>
<!-- Generator: Adobe Illustrator 23.1.0, SVG Export Plug-In . SVG Version: 6.00 Build 0)  -->
<svg version="1.1" id="Warstwa_1" xmlns="http://www.w3.org/2000/svg" xmlns:xlink="http://www.w3.org/1999/xlink" x="0px" y="0px"
	 viewBox="0 0 200 100" style="enable-background:new 0 0 200 100;" xml:space="preserve">
<style type="text/css">
	.st0{fill:#2E2E2E;}
</style>
<g>
	<path class="st0" d="M21.29,41.77c0.72-0.87,1.57-1.55,2.55-2.04c0.97-0.49,2.06-0.73,3.27-0.73c1.07,0,2.05,0.15,2.94,0.45
		c0.89,0.3,1.64,0.79,2.28,1.47s1.12,1.55,1.46,2.63c0.34,1.07,0.51,2.38,0.51,3.91v13.73h-5.82V47.4c0-0.7-0.08-1.28-0.23-1.75
		c-0.15-0.47-0.38-0.85-0.67-1.14c-0.3-0.29-0.66-0.49-1.1-0.61s-0.93-0.18-1.48-0.18c-0.91,0-1.67,0.18-2.28,0.53
		c-0.6,0.36-1.08,0.84-1.43,1.44v15.48h-5.82V30.25h5.82V41.77z"/>
	<path class="st0" d="M37.61,33.75c0-0.87,0.29-1.59,0.88-2.15c0.58-0.56,1.38-0.85,2.39-0.85c0.5,0,0.95,0.07,1.35,0.22
		c0.4,0.15,0.75,0.36,1.03,0.62c0.28,0.27,0.5,0.59,0.65,0.96c0.15,0.37,0.23,0.77,0.23,1.2c0,0.44-0.08,0.85-0.23,1.22
		s-0.37,0.69-0.65,0.96c-0.28,0.27-0.62,0.48-1.03,0.62c-0.4,0.15-0.85,0.22-1.35,0.22c-0.5,0-0.95-0.07-1.35-0.22
		c-0.4-0.15-0.74-0.36-1.03-0.62s-0.5-0.59-0.65-0.96S37.61,34.2,37.61,33.75z M43.8,61.17h-5.84V39.39h5.84V61.17z"/>
	<path class="st0" d="M46.71,50.12c0-1.65,0.2-3.16,0.61-4.53c0.41-1.37,0.99-2.54,1.75-3.52c0.76-0.98,1.68-1.74,2.77-2.27
		c1.09-0.54,2.31-0.81,3.68-0.81c1.28,0,2.37,0.21,3.27,0.64c0.91,0.43,1.67,1.03,2.31,1.81l0.24-2.05h5.27v21.04
		c0,1.49-0.25,2.81-0.76,3.97s-1.22,2.13-2.14,2.93c-0.92,0.8-2.02,1.4-3.3,1.81c-1.28,0.41-2.7,0.61-4.26,0.61
		c-0.67,0-1.38-0.07-2.13-0.2c-0.75-0.13-1.49-0.34-2.22-0.62s-1.43-0.64-2.08-1.07c-0.66-0.43-1.21-0.94-1.67-1.53l2.58-3.54
		c0.68,0.77,1.47,1.36,2.35,1.79c0.88,0.43,1.86,0.64,2.93,0.64c1.54,0,2.75-0.41,3.6-1.24c0.86-0.83,1.29-2,1.29-3.51V59.3
		c-0.64,0.72-1.4,1.29-2.28,1.68c-0.87,0.4-1.88,0.59-3.02,0.59c-1.36,0-2.57-0.28-3.65-0.83s-2-1.33-2.76-2.31
		c-0.76-0.98-1.34-2.14-1.75-3.49c-0.41-1.35-0.61-2.82-0.61-4.4V50.12z M52.53,50.54c0,0.89,0.09,1.71,0.26,2.48
		c0.17,0.76,0.45,1.43,0.81,2s0.83,1.02,1.39,1.35c0.56,0.33,1.22,0.49,1.98,0.49c0.93,0,1.7-0.17,2.33-0.52
		c0.62-0.35,1.12-0.84,1.48-1.47v-9.16c-0.38-0.64-0.87-1.14-1.48-1.48c-0.61-0.34-1.37-0.51-2.29-0.51c-0.77,0-1.43,0.16-1.98,0.49
		c-0.56,0.33-1.02,0.78-1.4,1.36c-0.38,0.58-0.65,1.26-0.83,2.03c-0.18,0.78-0.27,1.62-0.27,2.52V50.54z"/>
	<path class="st0" d="M75.74,41.77c0.72-0.87,1.57-1.55,2.55-2.04c0.97-0.49,2.06-0.73,3.27-0.73c1.07,0,2.05,0.15,2.94,0.45
		c0.89,0.3,1.64,0.79,2.27,1.47s1.12,1.55,1.46,2.63s0.51,2.38,0.51,3.91v13.73h-5.82V47.4c0-0.7-0.08-1.28-0.23-1.75
		c-0.15-0.47-0.38-0.85-0.67-1.14c-0.29-0.29-0.66-0.49-1.1-0.61c-0.44-0.12-0.93-0.18-1.48-0.18c-0.91,0-1.67,0.18-2.27,0.53
		c-0.6,0.36-1.08,0.84-1.43,1.44v15.48h-5.82V30.25h5.82V41.77z"/>
	<path class="st0" d="M98.24,61.17H92.4V30.25h5.84V61.17z"/>
	<path class="st0" d="M114.62,61.17c-0.27-0.52-0.46-1.17-0.58-1.95c-0.59,0.66-1.33,1.21-2.22,1.67s-1.98,0.68-3.27,0.68
		c-1.05,0-2.02-0.16-2.93-0.48c-0.91-0.32-1.69-0.77-2.36-1.35c-0.66-0.58-1.18-1.26-1.56-2.06c-0.38-0.8-0.56-1.67-0.56-2.63
		c0-1.14,0.21-2.15,0.63-3.04c0.42-0.89,1.06-1.64,1.9-2.25c0.84-0.62,1.89-1.09,3.15-1.41c1.25-0.32,2.71-0.48,4.38-0.48h2.6v-1.25
		c0-1.01-0.26-1.81-0.78-2.42s-1.33-0.91-2.45-0.91c-0.98,0-1.75,0.23-2.3,0.7c-0.56,0.47-0.84,1.11-0.84,1.93h-5.82
		c0-0.94,0.22-1.83,0.65-2.68c0.44-0.85,1.06-1.58,1.86-2.21c0.8-0.63,1.78-1.13,2.92-1.5c1.14-0.37,2.42-0.55,3.83-0.55
		c1.26,0,2.43,0.16,3.5,0.48c1.07,0.32,2,0.8,2.78,1.44c0.78,0.64,1.39,1.44,1.82,2.4c0.44,0.96,0.65,2.08,0.65,3.35v9.22
		c0,0.62,0.02,1.17,0.06,1.66s0.09,0.93,0.16,1.33c0.07,0.4,0.15,0.75,0.26,1.07s0.23,0.61,0.38,0.9v0.34H114.62z M109.81,57.13
		c0.5,0,0.96-0.06,1.38-0.18c0.42-0.12,0.8-0.28,1.14-0.47c0.33-0.19,0.63-0.42,0.88-0.67c0.25-0.25,0.45-0.52,0.59-0.79v-3.75h-2.4
		c-0.77,0-1.43,0.08-1.99,0.25s-1.03,0.4-1.39,0.7c-0.36,0.3-0.63,0.66-0.8,1.07c-0.17,0.41-0.26,0.86-0.26,1.34
		c0,0.72,0.25,1.32,0.76,1.79S108.93,57.13,109.81,57.13z"/>
	<path class="st0" d="M142.7,50.48c0,1.64-0.17,3.13-0.52,4.49c-0.35,1.36-0.88,2.52-1.58,3.5c-0.71,0.98-1.59,1.74-2.65,2.28
		c-1.06,0.54-2.3,0.82-3.72,0.82c-1.26,0-2.35-0.24-3.27-0.71c-0.92-0.48-1.71-1.14-2.39-2l-0.26,2.32h-5.23V30.25h5.82v11.09
		c0.64-0.75,1.4-1.33,2.26-1.74c0.87-0.41,1.88-0.61,3.03-0.61c1.42,0,2.67,0.27,3.73,0.83c1.07,0.55,1.96,1.32,2.67,2.29
		c0.71,0.98,1.24,2.15,1.59,3.5c0.35,1.36,0.52,2.84,0.52,4.45V50.48z M136.89,50.06c0-0.86-0.06-1.67-0.18-2.45
		c-0.12-0.77-0.34-1.45-0.65-2.02c-0.32-0.58-0.74-1.03-1.28-1.37c-0.54-0.34-1.22-0.5-2.05-0.5c-0.98,0-1.78,0.2-2.4,0.59
		c-0.62,0.4-1.09,0.96-1.43,1.68v8.6c0.34,0.72,0.81,1.29,1.43,1.69c0.62,0.4,1.43,0.6,2.44,0.6c0.82,0,1.49-0.16,2.02-0.48
		s0.95-0.76,1.27-1.33c0.32-0.56,0.53-1.24,0.65-2.02s0.18-1.64,0.18-2.57V50.06z"/>
	<path class="st0" d="M145.56,58.32c0-0.44,0.08-0.86,0.23-1.24c0.15-0.38,0.38-0.71,0.66-0.99c0.29-0.28,0.63-0.49,1.04-0.65
		c0.4-0.16,0.85-0.24,1.35-0.24c0.5,0,0.95,0.08,1.36,0.24s0.76,0.38,1.05,0.65c0.29,0.27,0.51,0.6,0.67,0.99
		c0.15,0.38,0.23,0.79,0.23,1.24c0,0.44-0.08,0.85-0.23,1.23c-0.15,0.38-0.38,0.7-0.67,0.98c-0.29,0.28-0.64,0.49-1.05,0.64
		s-0.86,0.23-1.36,0.23c-0.5,0-0.95-0.08-1.35-0.23c-0.4-0.15-0.75-0.37-1.04-0.64c-0.29-0.28-0.51-0.6-0.66-0.98
		C145.64,59.17,145.56,58.76,145.56,58.32z"/>
	<path class="st0" d="M175.81,50.48c0,1.58-0.18,3.05-0.55,4.41s-0.91,2.53-1.62,3.51c-0.71,0.99-1.59,1.76-2.65,2.33
		c-1.05,0.56-2.26,0.85-3.63,0.85c-1.15,0-2.17-0.2-3.05-0.6s-1.64-0.97-2.29-1.69v10.27h-5.82V39.39h5.4l0.2,2.13
		c0.67-0.81,1.45-1.43,2.35-1.87s1.95-0.66,3.17-0.66c1.38,0,2.6,0.27,3.66,0.79c1.06,0.53,1.95,1.28,2.66,2.25
		c0.71,0.97,1.25,2.14,1.62,3.5c0.37,1.36,0.55,2.87,0.55,4.52V50.48z M170,50.06c0-0.9-0.08-1.73-0.23-2.51
		c-0.15-0.77-0.4-1.44-0.74-2.01c-0.33-0.57-0.77-1.02-1.3-1.34c-0.53-0.32-1.18-0.48-1.94-0.48c-0.95,0-1.73,0.18-2.34,0.53
		c-0.61,0.36-1.08,0.88-1.42,1.56v8.92c0.34,0.67,0.81,1.2,1.42,1.58c0.61,0.38,1.41,0.57,2.38,0.57c0.77,0,1.41-0.17,1.94-0.5
		c0.53-0.34,0.96-0.8,1.29-1.38c0.33-0.58,0.57-1.26,0.71-2.04s0.22-1.6,0.22-2.48V50.06z"/>
	<path class="st0" d="M184.53,61.17h-5.84V30.25h5.84V61.17z"/>
</g>
<text transform="matrix(1 0 0 1 148.6628 -77.9512)" class="st0" style="font-family:'Roboto-Bold'; font-size:41.2308px; letter-spacing:-1;">highlab.pl</text>
</svg>
