<?xml version="1.0" encoding="utf-8"?>
<!-- Generator: Adobe Illustrator 16.0.3, SVG Export Plug-In . SVG Version: 6.00 Build 0)  -->
<!DOCTYPE svg PUBLIC "-//W3C//DTD SVG 1.1//EN" "http://www.w3.org/Graphics/SVG/1.1/DTD/svg11.dtd">
<svg version="1.1" id="Warstwa_1" xmlns="http://www.w3.org/2000/svg" xmlns:xlink="http://www.w3.org/1999/xlink" x="0px" y="0px"
	 width="802.076px" height="748.574px" viewBox="0 0 802.076 748.574" enable-background="new 0 0 802.076 748.574"
	 xml:space="preserve">
<g>
	<path fill="#00A3E8" d="M324.813,86.56c22.958-25.194,64.142-19.878,78.598,8.15c3.645-5.052,7.372-9.871,12.102-13.831
		c23.92-20.032,68.242-12.476,76.436,28.123c0.794,3.931,1.176,7.887,1.172,11.902c-0.025,29.818-0.01,59.638-0.018,89.457
		c-0.001,6.332-1.656,8.015-7.836,8.038c-3.498,0.013-6.997,0.004-10.494,0.002c-7.357-0.006-8.809-1.426-8.822-8.599
		c-0.049-27.153-0.073-54.305-0.179-81.457c-0.018-4.668-0.717-9.302-1.971-13.801c-2.611-9.373-8.161-16.153-18.077-17.884
		c-10.979-1.914-20.523,0.89-27.152,10.557c-7.049,10.281-9.252,22.025-9.383,34.13c-0.248,22.986-0.066,45.977-0.075,68.966
		c-0.002,6.524-1.606,8.075-8.289,8.086c-3.498,0.006-6.996,0.005-10.495,0.001c-7.129-0.009-8.521-1.364-8.522-8.353
		c-0.006-26.154,0.006-52.308-0.01-78.462c-0.005-5.339-0.568-10.628-1.812-15.827c-2.571-10.761-9.323-17.823-18.597-19.174
		c-11.488-1.673-21.191,1.297-27.655,11.582c-6.497,10.338-8.574,21.952-8.707,33.886c-0.253,22.819-0.159,45.641-0.216,68.461
		c-0.016,6.356-1.545,7.868-7.958,7.885c-3.831,0.011-7.662,0.014-11.494-0.001c-6.052-0.022-7.956-1.923-7.957-8.07
		c-0.012-40.813-0.006-81.627-0.006-122.441c0-1.833-0.021-3.666,0.004-5.497c0.07-5.394,2.074-7.347,7.611-7.386
		c3.832-0.026,7.663-0.016,11.495-0.003c6.437,0.021,8.216,1.79,8.306,8.229C324.822,84.053,324.813,84.878,324.813,86.56z"/>
	<path fill="#00A3E8" d="M30.473,104.909C45.452,86.992,60.09,69.496,74.712,51.988c10.144-12.146,20.304-24.279,30.358-36.498
		c1.621-1.969,3.256-2.905,5.891-2.82c6.326,0.204,12.67,0.249,18.992-0.014c2.977-0.123,3.941,1.423,5.118,3.638
		c1.273,2.397,0.538,3.847-1.031,5.699c-22.08,26.045-44.03,52.199-66.182,78.183c-2.69,3.156-3.159,5.169-0.522,8.776
		c24.175,33.068,48.113,66.311,72.144,99.485c1.576,2.175,3.043,3.894,1.37,7.063c-1.675,3.173-4.02,2.908-6.646,2.902
		c-2.333-0.006-4.738-0.373-6.987,0.061c-11.342,2.189-17.813-3.085-24.046-12.341c-17.392-25.819-35.982-50.828-53.941-76.267
		c-2.348-3.326-3.181-3.192-6.272-0.391c-11.088,10.046-14.938,21.918-13.65,36.833c1.256,14.557,0.284,29.306,0.269,43.97
		c-0.008,6.162-1.916,8.108-7.902,8.13c-5,0.017-9.999,0.02-14.999-0.002C2.211,218.376,0,216.142,0,211.642
		C0.011,147.65-0.001,83.661,0.026,19.669c0.002-4.452,2.574-6.858,7.183-6.919c4.665-0.062,9.332-0.022,13.998-0.012
		c6.228,0.015,8.364,2.104,8.368,8.268c0.012,25.996-0.008,51.992,0.031,77.988C29.609,100.735,29.098,102.581,30.473,104.909z"/>
	<path fill="#003F58" d="M220.979,655.54c0,27.646,0.005,55.293-0.004,82.938c-0.002,6.13-1.859,7.988-7.947,8.009
		c-4.33,0.014-8.66,0.008-12.989,0.002c-6.401-0.011-8.219-1.81-8.22-8.191c-0.005-55.293-0.063-110.586,0.11-165.877
		c0.015-4.664-0.849-6.16-5.845-6.047c-16.313,0.369-32.64,0.146-48.96,0.135c-5.83-0.006-7.613-1.826-7.647-7.752
		c-0.02-3.332-0.015-6.662-0.001-9.992c0.024-5.965,2.089-8.082,7.968-8.082c36.474-0.01,72.946-0.006,109.419-0.006
		c9.659,0,19.319-0.016,28.979,0.009c5.296,0.014,7.591,2.243,7.643,7.399c0.038,3.83,0.063,7.662-0.007,11.492
		c-0.082,4.531-2.496,6.914-7.073,6.924c-16.986,0.029-33.976,0.15-50.96-0.096c-3.871-0.056-4.568,1.09-4.548,4.699
		C221.049,599.249,220.979,627.396,220.979,655.54z"/>
	<path fill="#003F58" d="M89.042,540.677c8.83,0,17.659-0.024,26.487,0.013c5.063,0.021,7.242,2.192,7.291,7.202
		c0.042,4.332-0.021,8.664,0.019,12.994c0.042,4.451-2.031,6.699-6.563,6.822c-3.958,0.107-9.125-1.717-11.559,0.713
		c-2.662,2.658-0.834,7.898-0.841,11.998c-0.07,44.646,0.011,89.293-0.139,133.939c-0.013,3.993,0.684,5.452,5.043,5.235
		c14.162-0.707,14.411,0.037,14.056,14.23c-0.05,1.998,0.027,4-0.016,5.996c-0.09,4.172-2.342,6.592-6.409,6.617
		c-18.324,0.114-36.649,0.081-54.976,0.026c-4.178-0.012-6.391-2.293-6.427-6.506c-0.04-4.664-0.063-9.33,0.006-13.994
		c0.063-4.195,2.276-6.383,6.479-6.465c2.499-0.047,5.051-0.334,7.484,0.061c4.693,0.761,5.284-1.364,5.271-5.479
		c-0.143-46.979-0.142-93.957-0.001-140.937c0.012-4.139-0.605-5.846-5.317-5.582c-13.701,0.767-14.383-0.139-13.939-13.86
		c0.063-1.996-0.023-3.998,0.016-5.996c0.086-4.438,2.579-6.986,7.047-7.014C71.05,540.638,80.047,540.677,89.042,540.677z"/>
	<path fill="#00A3E8" d="M586.774,109.069c0-33.496-0.002-66.991,0.003-100.486c0.001-6.79,1.759-8.55,8.523-8.573
		c3.5-0.012,6.999-0.016,10.499,0.001c6.302,0.031,8.285,2.007,8.286,8.309c0.007,44.827,0.004,89.655,0.004,134.482
		c0,22.496,0.005,44.994-0.004,67.491c-0.003,6.534-1.61,8.096-8.272,8.107c-3.5,0.006-6.999,0.004-10.499,0
		c-7.13-0.008-8.536-1.371-8.537-8.344C586.772,176.394,586.774,142.731,586.774,109.069z"/>
	<path fill="#016087" d="M645.093,360.03c0,33.648,0.002,67.299-0.002,100.945c-0.001,6.927-1.591,8.539-8.381,8.548
		c-3.832,0.006-7.663,0.021-11.494-0.005c-5.386-0.032-7.439-2.061-7.443-7.475c-0.02-24.986-0.009-49.973-0.009-74.959
		c0-42.479-0.001-84.956,0.002-127.434c0-6.869,1.701-8.61,8.407-8.631c3.831-0.012,7.662-0.028,11.494,0.004
		c5.313,0.046,7.415,2.153,7.417,7.56C645.101,292.399,645.093,326.214,645.093,360.03z"/>
	<path fill="#00A3E8" d="M552.515,146.539c0,20.985,0.003,41.97-0.002,62.954c-0.002,7.418-1.532,8.904-9.122,8.907
		c-3.831,0.002-7.662,0.063-11.491-0.016c-4.557-0.095-6.945-2.505-6.947-7.05c-0.018-42.968-0.019-85.937-0.001-128.905
		c0.002-5.147,2.333-7.373,7.657-7.425c4.164-0.039,8.327-0.037,12.491,0c5.408,0.048,7.4,2.062,7.406,7.581
		C552.526,103.904,552.515,125.222,552.515,146.539z"/>
	<path fill="#78D5FD" d="M40.002,729.276c-0.032,11.209-8.333,19.33-19.731,19.297c-10.86-0.031-19.348-8.781-19.261-19.859
		c0.084-10.719,8.656-19.279,19.325-19.303C31.894,709.384,40.035,717.608,40.002,729.276z"/>
	<path fill="#00A3E8" d="M538.698,17.421c11.174-0.027,19.84,8.491,19.732,19.396c-0.106,10.776-9.167,19.717-19.864,19.603
		c-10.77-0.115-19.517-9.1-19.456-19.986C519.171,25.721,527.694,17.449,538.698,17.421z"/>
	<path fill="#016087" d="M139.03,459.671c-14.76-25.649-29.471-51.328-44.349-76.91c-1.895-3.258-2.324-4.794,1.954-6.241
		c8.808-2.978,16.39-8.173,22.529-15.163c16.14-18.378,18.458-39.484,10.121-61.586c-8.302-22.006-26.04-32.798-48.646-35.095
		c-24.048-2.444-48.259-0.557-72.395-0.945c-6.185-0.099-8.234,2.074-8.235,8.338c-0.005,31.481-0.002,62.962-0.002,94.443
		c0,31.813-0.007,63.627,0.008,95.443c0.003,5.4,2.103,7.523,7.399,7.563c4.163,0.031,8.328,0.007,12.491,0.007
		c8.228-0.002,9.632-1.369,9.632-9.416c0.002-24.317,0.107-48.637-0.102-72.955c-0.037-4.26,1.247-5.35,5.326-5.176
		c7.482,0.319,15.001,0.364,22.477-0.018c4.143-0.211,6.134,1.428,8.081,4.859c14.936,26.31,30.135,52.472,45.085,78.774
		c1.713,3.011,3.567,4.201,7.01,4.008c5.313-0.299,10.655-0.071,15.985-0.079C140.107,469.511,142.392,465.517,139.03,459.671z
		 M33.009,356.434c-3.082,0.037-3.534-1.321-3.51-3.902c0.096-9.996,0.04-19.993,0.04-29.99c0-9.831-0.021-19.662,0.021-29.491
		c0.007-1.511-0.647-3.564,2.136-3.501c14.314,0.323,28.674-0.928,42.942,0.635c21.627,2.369,30.549,20.077,27.96,38.681
		c-2.354,16.91-13.914,26.817-32.103,27.421C58.012,356.702,45.503,356.282,33.009,356.434z"/>
	<path fill="#016087" d="M438.117,395.926c0-20.992,0.016-41.987-0.013-62.979c-0.007-4.927-1.967-6.868-6.909-6.926
		c-4.831-0.056-9.666-0.1-14.494,0.022c-3.722,0.095-5.792,2.117-5.899,5.916c-0.058,1.988-0.011,3.979-0.011,6.892
		c-1.247-0.875-1.811-1.169-2.249-1.589c-24.942-23.932-69.848-20.197-93.099,5.888c-23.917,26.835-26.136,73.025-5.044,102.548
		c22.591,31.619,70.288,38.135,97.797,12.91c0.657-0.604,1.231-1.72,2.595-1.058c0,0.783-0.019,1.615,0.003,2.445
		c0.487,20.045-11.296,43.432-41.131,41.838c-15.949-0.852-31.981-0.168-47.976-0.141c-5.107,0.008-7.181,2.104-7.244,7.219
		c-0.046,3.666-0.037,7.332-0.003,10.998c0.051,5.412,2.08,7.433,7.529,7.438c18.494,0.018,36.987,0.08,55.48-0.055
		c3.798-0.027,7.659-0.523,11.374-1.338c29.521-6.481,49.055-31.235,49.264-62.551C438.238,440.912,438.117,418.418,438.117,395.926
		z M405.344,423.261c-7.492,16.736-23.205,26.099-40.641,25.09c-17.423-1.008-31.551-12.043-37.733-29.417
		c-2.309-6.492-3.375-13.181-3.475-20.05c-0.243-15.386,3.483-29.469,14.836-40.442c20.25-19.572,53.323-13.724,66.152,11.849
		C413.174,387.615,413.246,405.609,405.344,423.261z"/>
	<path fill="#00A3E8" d="M261.451,74.962c-12.501,0.169-12.504,0.036-14.142,12.594c-0.831-0.576-1.284-0.804-1.631-1.141
		c-24.854-24.048-70.049-20.457-93.413,5.986c-23.442,26.533-26.028,71.807-5.521,101.291
		c19.621,28.211,59.066,37.936,87.696,21.644c4.581-2.609,8.65-5.949,13.376-9.85c0,2.232-0.007,3.511,0.002,4.789
		c0.045,6.559,1.62,8.112,8.247,8.124c3.663,0.007,7.326,0.009,10.99,0c6.577-0.017,8.073-1.544,8.073-8.298
		c0.005-40.464-0.103-80.929,0.061-121.394C275.246,75.026,274.975,74.779,261.451,74.962z M242.287,172.444
		c-7.433,16.572-23.036,25.869-40.314,24.946c-17.503-0.936-31.721-11.908-37.933-29.268c-2.496-6.976-3.601-14.173-3.502-19.333
		c-0.037-17.134,3.846-30.672,14.775-41.275c19.949-19.352,52.654-13.968,65.74,11.012
		C250.261,136.103,250.369,154.422,242.287,172.444z"/>
	<path fill="#016087" d="M587.624,326.012c-2.997-0.012-5.995,0.073-8.989-0.018c-9.755-0.295-12.465-0.332-11.945,11.49
		c0.009,0.211-0.354,0.438-0.696,0.834c-0.489-0.347-1.051-0.649-1.491-1.075c-25.638-24.682-74.217-20.798-97.491,11.259
		c-13.784,18.984-16.918,40.329-14.104,63.089c4.514,36.476,34.402,62.854,71.005,62.474c16.211-0.168,30.114-6.05,42.137-17.14
		c1.283,1.662,0.656,3.347,0.689,4.86c0.132,5.771,1.998,7.711,7.715,7.736c4.329,0.018,8.658,0.014,12.986,0
		c4.484-0.017,6.652-2.364,6.652-6.767c0.009-43.453,0.001-86.909,0.011-130.365C594.103,328.032,591.855,326.029,587.624,326.012z
		 M561.33,423.25c-7.487,16.74-23.194,26.104-40.633,25.102c-17.416-0.998-31.559-12.034-37.742-29.406
		c-2.31-6.489-3.381-13.18-3.479-20.049c-0.246-15.386,3.479-29.47,14.827-40.445c20.237-19.576,53.318-13.737,66.153,11.83
		C569.153,387.604,569.229,405.598,561.33,423.25z"/>
	<path fill="#016087" d="M802.067,333.473c-0.003-5.675-1.745-7.417-7.392-7.457c-4.667-0.034-9.335-0.092-13.998,0.026
		c-3.723,0.095-5.806,2.097-5.92,5.899c-0.062,1.991-0.012,3.986-0.012,6.897c-1.238-0.859-1.802-1.147-2.236-1.567
		c-24.909-23.936-70.023-20.312-93.467,6.235c-20.708,23.447-25.208,63.294-10.628,92.403
		c20.688,41.299,74.957,49.756,104.147,22.336c0.572-0.535,1.117-1.293,2.183-0.629c0,1.105-0.004,2.268,0.001,3.434
		c0.028,6.959,1.531,8.465,8.461,8.474c3.832,0.006,7.666,0.022,11.498-0.005c5.329-0.039,7.355-2.094,7.361-7.563
		c0.021-17.664,0.008-35.328,0.008-52.992C802.073,383.8,802.081,358.636,802.067,333.473z M760.029,436.665
		c-19.11,18.717-50.987,14.738-64.438-8.359c-11.075-19.012-11.352-39.024-1.581-58.672c8.114-16.317,23.557-24.043,42.085-22.248
		c16.554,1.603,30.477,13.685,35.819,31.09c1.916,6.236,2.893,12.614,2.881,19.157C774.558,412.419,770.873,426.046,760.029,436.665
		z"/>
	<path fill="#016087" d="M285.957,366.871c-20.67-54.865-89.995-58.354-119.698-21.154c-17.023,21.322-20.862,45.87-15.052,71.684
		c13.547,60.183,76.403,68.321,109.604,44.343c21.81-15.748,30.046-38.068,30.404-64.039
		C291.441,387.057,289.692,376.787,285.957,366.871z M258.401,423.198c-7.486,16.754-23.137,26.117-40.605,25.153
		c-17.402-0.959-31.588-11.991-37.784-29.352c-2.316-6.484-3.398-13.175-3.494-20.046c-0.259-15.384,3.453-29.469,14.783-40.464
		c20.334-19.732,53.704-13.688,66.403,12.175C266.154,387.875,266.215,405.715,258.401,423.198z"/>
</g>
</svg>
