<?xml version="1.0" encoding="UTF-8" standalone="no"?>
<!-- Created with Inkscape (http://www.inkscape.org/) -->

<svg
   xmlns:dc="http://purl.org/dc/elements/1.1/"
   xmlns:cc="http://creativecommons.org/ns#"
   xmlns:rdf="http://www.w3.org/1999/02/22-rdf-syntax-ns#"
   xmlns:svg="http://www.w3.org/2000/svg"
   xmlns="http://www.w3.org/2000/svg"
   xmlns:sodipodi="http://sodipodi.sourceforge.net/DTD/sodipodi-0.dtd"
   xmlns:inkscape="http://www.inkscape.org/namespaces/inkscape"
   width="15cm"
   height="5cm"
   viewBox="0 0 531.49635 177.16537"
   id="svg2"
   version="1.1"
   inkscape:version="0.91 r13725"
   sodipodi:docname="girlsjs-napis-czarny_obok.svg"
   inkscape:export-filename="/home/arim/Pulpit/girlsjs/logo-czarny-napis-obok.png"
   inkscape:export-xdpi="90"
   inkscape:export-ydpi="90">
  <defs
     id="defs4" />
  <sodipodi:namedview
     id="base"
     pagecolor="#ffffff"
     bordercolor="#666666"
     borderopacity="1.0"
     inkscape:pageopacity="0"
     inkscape:pageshadow="2"
     inkscape:zoom="0.80653931"
     inkscape:cx="532.39899"
     inkscape:cy="-43.576114"
     inkscape:document-units="px"
     inkscape:current-layer="text4214"
     showgrid="false"
     units="cm"
     inkscape:window-width="1311"
     inkscape:window-height="744"
     inkscape:window-x="55"
     inkscape:window-y="24"
     inkscape:window-maximized="1" />
  <metadata
     id="metadata7">
    <rdf:RDF>
      <cc:Work
         rdf:about="">
        <dc:format>image/svg+xml</dc:format>
        <dc:type
           rdf:resource="http://purl.org/dc/dcmitype/StillImage" />
        <dc:title></dc:title>
      </cc:Work>
    </rdf:RDF>
  </metadata>
  <g
     inkscape:groupmode="layer"
     id="layer2"
     inkscape:label="Layer 2"
     style="display:inline"
     transform="translate(0,-122.83409)">
    <g
       id="g4271"
       transform="matrix(0.42745532,0,0,0.42745532,25.503263,121.87898)">
      <g
         transform="matrix(1.1473781,0,0,1.1473781,12.28729,33.65342)"
         id="g4138">
        <path
           style="fill:#fcd050;fill-opacity:1;fill-rule:nonzero;stroke:none;stroke-width:1.23809528;stroke-linejoin:round;stroke-miterlimit:4;stroke-dasharray:none;stroke-opacity:1"
           d="m 183.21484,26.333988 c -37.60756,-2.51e-4 -68.09487,30.486191 -68.0957,68.09375 0.005,17.817032 6.99309,34.922402 19.46484,47.646482 -0.0861,0.28295 -0.1733,0.56626 -0.23437,0.84766 0,0 -18.30082,-6.90664 -41.292969,-3.7461 -26.480948,3.64012 -36.614155,20.91875 -36.614155,20.91875 0,0 -3.687171,2.79255 -12.375189,-7.57734 -6.989452,-8.34251 -18.307531,-14.6461 -18.307531,-14.6461 0,0 -0.168391,10.29348 -4.041016,27.27344 -4.924494,21.592 -3.031618,38.89188 3.029297,58.58985 6.060916,19.69798 34.804797,56.48193 68.023437,56.35937 14.785786,-0.0546 73.306136,0.24358 101.080076,-0.29687 36.70776,-0.7143 67.36007,-35.72743 71.75782,-78.54688 3.99476,-38.8956 -12.35647,-50.48314 -19.82756,-59.2408 -5.391,-6.31937 -6.85408,-10.27708 -2.66362,-15.80112 6.06347,-7.99311 8.18784,-18.12593 8.19039,-31.780342 -8.3e-4,-37.606798 -30.48695,-68.092924 -68.09375,-68.09375 z"
           id="path4169"
           inkscape:connector-curvature="0"
           sodipodi:nodetypes="ccccscscssssssscc" />
        <circle
           style="fill:#000000;fill-opacity:1;fill-rule:nonzero;stroke:#000000;stroke-width:1;stroke-linejoin:round;stroke-miterlimit:4;stroke-dasharray:none;stroke-opacity:1"
           id="path4187"
           cx="192.5"
           cy="86.071426"
           r="7.8571429" />
        <path
           style="fill:#f6921e;fill-opacity:1;fill-rule:nonzero;stroke:none;stroke-width:1;stroke-linejoin:round;stroke-miterlimit:4;stroke-dasharray:none;stroke-opacity:1"
           d="M 63.945312,182.14258 A 66.071426,66.071426 0 0 0 63.927734,182.5 66.071426,66.071426 0 0 0 130,248.57227 66.071426,66.071426 0 0 0 196.07227,182.5 a 66.071426,66.071426 0 0 0 -0.0137,-0.35742 l -132.113278,0 z"
           id="path4189"
           inkscape:connector-curvature="0" />
        <path
           style="fill:#f6921e;fill-opacity:1;fill-rule:evenodd;stroke:none;stroke-width:1px;stroke-linecap:butt;stroke-linejoin:miter;stroke-opacity:1"
           d="m 259.20278,88.030458 c -5.65558,-0.06307 -8.6234,-2.254838 -17.37002,-2.04197 -8.74662,0.212868 -15.92721,9.224438 -15.76133,16.511512 0.20578,9.03979 5.67633,18.91306 16.50471,18.86358 18.40103,-0.0841 30.01512,7.69267 33.81282,-0.21293 3.71753,-7.73871 -4.37981,-8.88152 -4.4807,-14.5562 -0.0882,-4.9608 4.52031,-5.16588 6.66317,-9.09445 2.14286,-3.928572 -0.45225,-10.083139 -2.85714,-11.071429 -3.88896,-1.598169 -10.85594,1.664954 -16.51151,1.601887 z"
           id="path4194"
           inkscape:connector-curvature="0"
           sodipodi:nodetypes="zzssssssz" />
      </g>
      <g
         transform="translate(66.228326,-29.269456)"
         style="font-style:normal;font-weight:normal;font-size:112.5px;line-height:125%;font-family:sans-serif;letter-spacing:0px;word-spacing:0px;fill:#000000;fill-opacity:1;stroke:none;stroke-width:1px;stroke-linecap:butt;stroke-linejoin:miter;stroke-opacity:1"
         id="flowRoot4196">
        <g
           style="font-style:normal;font-weight:normal;font-size:421.09664917px;line-height:125%;font-family:sans-serif;letter-spacing:0px;word-spacing:0px;fill:#ffffff;fill-opacity:1;stroke:none;stroke-width:1px;stroke-linecap:butt;stroke-linejoin:miter;stroke-opacity:1"
           id="text4214">
          <path
             d="m 475.26432,237.91403 q 0,-20.56136 -8.53296,-31.87011 -8.43016,-11.30875 -23.74838,-11.30875 -15.2154,0 -23.74837,11.30875 -8.43016,11.30875 -8.43016,31.87011 0,20.45855 8.43016,31.7673 8.53297,11.30875 23.74837,11.30875 15.31822,0 23.74838,-11.30875 8.53296,-11.30875 8.53296,-31.7673 z m 18.91645,44.61815 q 0,29.40275 -13.05646,43.69289 -13.05646,14.39296 -39.99185,14.39296 -9.97226,0 -18.81364,-1.54211 -8.84139,-1.43929 -17.16874,-4.5235 l 0,-18.40241 q 8.32735,4.5235 16.44909,6.68244 8.12174,2.15894 16.55189,2.15894 18.60804,0 27.86065,-9.76664 9.25261,-9.66384 9.25261,-29.29994 l 0,-9.35542 q -5.85999,10.17787 -15.00979,15.2154 -9.14981,5.03754 -21.89785,5.03754 -21.1782,0 -34.13186,-16.14067 -12.95366,-16.14067 -12.95366,-42.76763 0,-26.72977 12.95366,-42.87044 12.95366,-16.14067 34.13186,-16.14067 12.74804,0 21.89785,5.03753 9.1498,5.03754 15.00979,15.21541 l 0,-17.47716 18.91645,0 0,100.85348 z"
             style="font-size:210.54833984px;fill:#000000;fill-opacity:1"
             id="path4221" />
          <path
             d="m 533.14455,181.6787 18.91646,0 0,115.14363 -18.91646,0 0,-115.14363 z m 0,-44.82376 18.91646,0 0,23.95398 -18.91646,0 0,-23.95398 z"
             style="font-size:210.54833984px;fill:#000000;fill-opacity:1"
             id="path4223" />
          <path
             d="m 658.26044,199.36147 q -3.18701,-1.85052 -6.99086,-2.67297 -3.70104,-0.92526 -8.22454,-0.92526 -16.03787,0 -24.67364,10.48629 -8.53296,10.38349 -8.53296,29.91678 l 0,60.65602 -19.01926,0 0,-115.14363 19.01926,0 0,17.88839 q 5.96279,-10.4863 15.52383,-15.52383 9.56103,-5.14034 23.23433,-5.14034 1.95333,0 4.31789,0.30842 2.36456,0.20561 5.24315,0.71965 l 0.1028,19.43048 z"
             style="font-size:210.54833984px;fill:#000000;fill-opacity:1"
             id="path4225" />
          <path
             d="m 678.30778,136.85494 18.91645,0 0,159.96739 -18.91645,0 0,-159.96739 z"
             style="font-size:210.54833984px;fill:#000000;fill-opacity:1"
             id="path4227" />
          <path
             d="m 810.10609,185.07133 0,17.88838 q -8.01893,-4.11227 -16.6547,-6.16841 -8.63577,-2.05613 -17.88838,-2.05613 -14.08453,0 -21.1782,4.31788 -6.99087,4.31789 -6.99087,12.95366 0,6.57964 5.03754,10.38349 5.03753,3.70104 20.25294,7.09367 l 6.47683,1.43929 q 20.15013,4.31789 28.58029,12.23401 8.53296,7.81332 8.53296,21.89785 0,16.03787 -12.74804,25.39328 -12.64524,9.35542 -34.85151,9.35542 -9.25261,0 -19.32768,-1.85052 -9.97226,-1.74771 -21.07539,-5.34595 l 0,-19.5333 q 10.48629,5.44877 20.66416,8.22455 10.17788,2.67298 20.15014,2.67298 13.36488,0 20.56136,-4.5235 7.19648,-4.62631 7.19648,-12.95366 0,-7.71051 -5.24315,-11.82278 -5.14034,-4.11228 -22.7203,-7.91613 l -6.57964,-1.5421 q -17.57996,-3.70105 -25.39328,-11.30875 -7.81332,-7.71051 -7.81332,-21.07539 0,-16.24348 11.51436,-25.08487 11.51437,-8.84138 32.69257,-8.84138 10.48629,0 19.7389,1.5421 9.25262,1.5421 17.06593,4.62631 z"
             style="font-size:210.54833984px;fill:#000000;fill-opacity:1"
             id="path4229" />
          <path
             d="m 849.17268,270.7094 21.69224,0 0,26.11293 -21.69224,0 0,-26.11293 z"
             style="fill:#fcd050;fill-opacity:1"
             id="path4231" />
          <path
             d="m 913.52976,181.6787 18.91646,0 0,117.19976 q 0,22.00066 -8.43016,31.87011 -8.32735,9.86946 -26.93539,9.86946 l -7.19647,0 0,-16.03787 5.03753,0 q 10.79472,0 14.70137,-5.03753 3.90666,-4.93473 3.90666,-20.66417 l 0,-117.19976 z m 0,-44.82376 18.91646,0 0,23.95398 -18.91646,0 0,-23.95398 z"
             style="font-size:210.54833984px;fill:#000000;fill-opacity:1"
             id="path4233" />
          <path
             d="m 1045.328,185.07133 0,17.88838 q -8.0189,-4.11227 -16.6547,-6.16841 -8.6357,-2.05613 -17.8883,-2.05613 -14.08457,0 -21.17824,4.31788 -6.99086,4.31789 -6.99086,12.95366 0,6.57964 5.03753,10.38349 5.03753,3.70104 20.25297,7.09367 l 6.4768,1.43929 q 20.1501,4.31789 28.5803,12.23401 8.533,7.81332 8.533,21.89785 0,16.03787 -12.7481,25.39328 -12.6452,9.35542 -34.8515,9.35542 -9.25261,0 -19.32767,-1.85052 -9.97226,-1.74771 -21.0754,-5.34595 l 0,-19.5333 q 10.4863,5.44877 20.66417,8.22455 10.17787,2.67298 20.1501,2.67298 13.3649,0 20.5614,-4.5235 7.1965,-4.62631 7.1965,-12.95366 0,-7.71051 -5.2432,-11.82278 -5.1403,-4.11228 -22.7203,-7.91613 l -6.57962,-1.5421 q -17.57996,-3.70105 -25.39328,-11.30875 -7.81331,-7.71051 -7.81331,-21.07539 0,-16.24348 11.51436,-25.08487 11.51436,-8.84138 32.69255,-8.84138 10.4863,0 19.7389,1.5421 9.2526,1.5421 17.0659,4.62631 z"
             style="font-size:210.54833984px;fill:#000000;fill-opacity:1"
             id="path4235" />
        </g>
      </g>
    </g>
  </g>
</svg>
