<svg width="284" height="217" viewBox="0 0 284 217" fill="none" xmlns="http://www.w3.org/2000/svg">
<path fill-rule="evenodd" clip-rule="evenodd" d="M37.24 0.561999C23.52 3.077 15.258 13.316 14.93 28.214L14.799 34.143H10.229C5.071 34.143 4.276 34.353 2.974 36.06C-0.545002 40.673 0.779 49.585 5.233 51.268C5.675 51.435 8.01 51.571 10.422 51.571H14.807L14.93 58.929C15.029 64.864 15.152 66.645 15.568 68.143C18.814 79.84 27.744 87.192 40.451 88.628L42.474 88.857L42.096 91.076C41.186 96.416 38.811 100.428 31.058 109.714C26.586 115.071 26.122 115.724 26.726 115.803C27.932 115.962 39.212 114.722 41.857 114.14C56.56 110.902 71.827 100.079 76.585 89.521L76.93 88.756L93.108 88.632C111.973 88.489 112.747 88.387 118.498 85.285C128.841 79.706 132.507 72.261 132.827 56.182L133 47.507L134.857 46.384C137.329 44.889 139.327 44.34 142.286 44.34C145.245 44.34 147.243 44.889 149.714 46.384L151.571 47.507L151.744 56.182C152.065 72.261 155.73 79.706 166.073 85.285C171.824 88.387 172.598 88.489 191.464 88.632L207.641 88.756L207.986 89.521C212.744 100.079 228.012 110.902 242.714 114.14C245.36 114.722 256.639 115.962 257.846 115.803C258.45 115.724 257.999 115.086 253.61 109.825C245.37 99.947 243.238 96.268 242.34 90.377L242.093 88.754L244.261 88.568C257.09 87.464 266.961 78.759 269.313 66.475C269.583 65.062 269.714 62.289 269.714 57.975V51.571H274.124C276.55 51.571 278.896 51.435 279.339 51.268C283.792 49.585 285.116 40.673 281.597 36.06C280.296 34.353 279.501 34.143 274.343 34.143H269.772L269.646 28.214C269.341 13.812 261.991 4.21501 248.639 0.781009C246.863 0.324009 243.932 0.285998 210.714 0.285998H174.714L172.286 0.951007C160.221 4.25401 152.615 13.901 151.825 26.899L151.634 30.044L149.795 29.534C146.714 28.68 142.667 28.358 139.451 28.712C137.892 28.883 135.788 29.253 134.777 29.534L132.937 30.044L132.746 26.899C131.961 13.966 124.477 4.41201 112.429 0.962009L110.143 0.308002L74.714 0.246997C46.498 0.198997 38.869 0.262999 37.24 0.561999ZM109.274 13.152C114.528 14.52 118.725 18.967 119.872 24.382C120.372 26.741 120.471 60.801 119.987 63.857C119.043 69.818 113.96 74.9 108 75.844C106.878 76.022 99.342 76.139 88.959 76.141C69.971 76.143 71.429 75.992 71.429 77.963C71.429 86.63 59.985 98.859 47.222 103.833L45.729 104.414L47.125 101.779C49.996 96.355 50.848 92.257 51.066 82.818L51.218 76.208L45.109 76.072C35.461 75.856 31.116 73.51 28.372 67.033L27.571 65.143L27.493 45.027C27.423 27.207 27.466 24.73 27.875 23.313C29.298 18.383 33.23 14.509 38.198 13.143C40.408 12.535 106.938 12.543 109.274 13.152ZM246.248 13.129C251.317 14.478 255.254 18.316 256.696 23.313C257.105 24.73 257.149 27.207 257.079 45.027L257 65.143L256.199 67.033C253.455 73.51 249.111 75.856 239.462 76.072L233.353 76.208L233.506 82.818C233.724 92.257 234.576 96.355 237.447 101.779L238.842 104.414L237.35 103.835C224.638 98.901 213.143 86.616 213.143 77.963C213.143 75.992 214.6 76.143 195.612 76.141C185.23 76.139 177.694 76.022 176.571 75.844C170.611 74.9 165.529 69.818 164.584 63.857C164.1 60.801 164.199 26.741 164.699 24.382C165.833 19.032 170.017 14.553 175.175 13.166C177.464 12.55 243.944 12.516 246.248 13.129Z" fill="#2C2D2D"/>
<path fill-rule="evenodd" clip-rule="evenodd" d="M38.198 13.143C33.23 14.509 29.298 18.383 27.875 23.313C27.466 24.73 27.423 27.207 27.493 45.027L27.571 65.143L28.372 67.033C31.116 73.51 35.461 75.856 45.109 76.072L51.218 76.208L51.066 82.818C50.848 92.257 49.996 96.355 47.125 101.779L45.729 104.414L47.222 103.833C59.985 98.859 71.429 86.63 71.429 77.963C71.429 75.992 69.971 76.143 88.959 76.141C99.342 76.139 106.878 76.022 108 75.844C113.96 74.9 119.043 69.818 119.987 63.857C120.471 60.801 120.372 26.741 119.872 24.382C118.725 18.967 114.528 14.52 109.274 13.152C106.938 12.543 40.408 12.535 38.198 13.143ZM10.978 196.399C8.532 197.51 8.571 197.331 8.571 207.324V216.143H10.857H13.143V212.714V209.286L14.786 209.283C19.198 209.275 20.571 207.561 20.571 202.06V198.187L19.747 197.363C18.19 195.806 13.435 195.283 10.978 196.399ZM26.832 196.13C23.878 197.025 23.714 197.566 23.714 206.404V213.837L24.602 214.848C26.934 217.504 34.119 217.236 35.566 214.44C36.353 212.918 36.195 198.754 35.38 197.717C34.104 196.095 29.667 195.271 26.832 196.13ZM41.815 196.575C39.701 197.628 39.714 197.557 39.714 207.442V216.143H41.993H44.271L44.35 211.786L44.429 207.429L45.286 207.521C46.986 207.706 47.143 208.111 47.143 212.33V216.143H49.429H51.714V212.05C51.714 207.528 51.524 207.029 49.622 206.556L48.815 206.356L49.956 205.845C50.583 205.564 51.236 205.075 51.406 204.757C51.901 203.832 51.8 198.54 51.272 197.734C50.024 195.829 44.637 195.169 41.815 196.575ZM57.835 196.383C55.421 197.512 55.429 197.482 55.429 206.191C55.429 212.858 55.491 213.973 55.901 214.598C57.594 217.182 64.385 217.43 66.722 214.992L67.571 214.106L67.656 206.565C67.751 198.097 67.706 197.857 65.794 196.675C64.274 195.736 59.585 195.563 57.835 196.383ZM87.835 196.399C85.389 197.51 85.429 197.331 85.429 207.324V216.143H87.714H90V207.578V199.013L90.714 198.545C91.376 198.112 91.481 198.112 92.143 198.545L92.857 199.013V207.578V216.143H95.131H97.405L97.488 207.548C97.577 198.369 97.615 198.143 99.055 198.143C100.477 198.143 100.571 198.741 100.571 207.714V216.143H102.857H105.143V207.324C105.143 197.331 105.182 197.51 102.737 196.399C101.214 195.707 97.572 195.662 96.198 196.317C95.313 196.739 95.162 196.739 94.346 196.317C93.071 195.658 89.364 195.705 87.835 196.399ZM111.263 196.386C108.815 197.526 108.857 197.332 108.857 207.324V216.143H111.135H113.412L113.492 212.214L113.571 208.286L114.929 208.199L116.286 208.112V212.127V216.143H118.714H121.143L121.142 207.643C121.142 197.984 121.08 197.667 119 196.591C117.349 195.737 112.908 195.619 111.263 196.386ZM158.571 196.448C156.219 197.506 156.299 197.126 156.292 207.214L156.286 216.143H158.563H160.841L160.921 212.214L161 208.286H162.286H163.571L163.651 212.214L163.73 216.143H166.008H168.286V207.267C168.286 201.46 168.179 198.192 167.977 197.815C167.009 196.005 161.377 195.186 158.571 196.448ZM189.804 196.552C187.418 197.664 187.429 197.613 187.429 207.557V216.143H189.714H192V207.714C192 198.682 192.089 198.143 193.571 198.143C195.054 198.143 195.143 198.682 195.143 207.714V216.143H197.429H199.714V207.578V199.013L200.44 198.537C201.022 198.157 201.306 198.126 201.869 198.382L202.571 198.702V207.422V216.143H205.015H207.459L207.372 207.357C207.274 197.418 207.341 197.724 205.015 196.563C203.345 195.729 200.065 195.584 198.419 196.271C197.554 196.633 197.303 196.633 196.438 196.271C194.825 195.597 191.559 195.736 189.804 196.552ZM71.429 197.571V198.714H74C75.414 198.714 76.571 198.833 76.571 198.978C76.571 199.123 75.35 202.53 73.857 206.549C72.098 211.284 71.143 214.259 71.143 215V216.143H76.429H81.714V215V213.857H79.16C77.755 213.857 76.545 213.759 76.471 213.64C76.397 213.521 77.545 210.146 79.022 206.14C80.833 201.227 81.708 198.462 81.711 197.643L81.714 196.429H76.571H71.429V197.571ZM124.345 205.256C124.424 213.62 124.459 214.117 125 214.715C126.572 216.452 130.531 217.244 132.976 216.31C134.156 215.859 134.328 215.859 135.704 216.31C138.784 217.317 142.726 216.259 143.785 214.141C144.227 213.259 144.285 212.17 144.285 204.786L144.286 196.429H141.857H139.429V204.943C139.429 214.085 139.419 214.143 137.953 214.143C136.644 214.143 136.571 213.648 136.571 204.733V196.429H134.286H132V204.813C132 213.881 131.954 214.151 130.406 214.138C129 214.127 129.006 214.16 128.917 205.011L128.833 196.429H126.548H124.262L124.345 205.256ZM147.714 206.286V216.143H150.143H152.571V206.286V196.429H150.143H147.714V206.286ZM179.143 204.965C179.143 214.249 179.149 214.214 177.538 214.214C176.473 214.214 176.295 213.744 176.29 210.929L176.286 208.429H173.857H171.429V210.885C171.429 215.355 172.669 216.527 177.429 216.555C183.652 216.592 183.714 216.479 183.714 205.157V196.429H181.429H179.143V204.965ZM210.571 196.535C210.571 196.593 211.6 199.374 212.857 202.714L215.143 208.788V212.465V216.143H217.557H219.971L220.059 212.071L220.147 208L222.473 202.214L224.799 196.429H222.586H220.374L219.125 200.566C217.842 204.817 217.713 204.998 217.195 203.286C217.029 202.736 216.494 200.968 216.006 199.357L215.118 196.429H212.845C211.594 196.429 210.571 196.476 210.571 196.535ZM15.841 198.778C16.179 199.26 16.286 200.177 16.286 202.591C16.286 206.178 16.081 206.598 14.178 206.907L13.143 207.075V203.161C13.143 201.009 13.276 198.999 13.439 198.696C13.857 197.914 15.27 197.963 15.841 198.778ZM31.133 198.696C31.584 199.539 31.529 213.052 31.071 213.62C30.576 214.234 29.97 214.396 29.214 214.115L28.571 213.876V206.2C28.571 201.978 28.657 198.438 28.762 198.333C29.196 197.899 30.841 198.15 31.133 198.696ZM47.061 199C47.433 199.739 47.564 203.173 47.251 203.987C47.037 204.546 45.68 205.286 44.871 205.286C44.16 205.286 43.953 199.161 44.641 198.473C45.231 197.883 46.655 198.193 47.061 199ZM62.79 206.079L62.866 213.872L62.219 214.113C60.203 214.862 60 214.138 60 206.212C60 198.353 60.06 198.065 61.662 198.198L62.714 198.286L62.79 206.079ZM115.733 198.439C116.234 198.707 116.286 199.067 116.286 202.296V205.857H114.857H113.429V202.449C113.429 198.338 113.926 197.472 115.733 198.439ZM163.162 198.439C163.663 198.707 163.714 199.067 163.714 202.296V205.857H162.286H160.857V202.449C160.857 198.338 161.355 197.472 163.162 198.439Z" fill="#3DACE4"/>
<path fill-rule="evenodd" clip-rule="evenodd" d="M175.175 13.166C170.017 14.553 165.833 19.032 164.699 24.382C164.199 26.741 164.1 60.801 164.584 63.857C165.529 69.818 170.611 74.9 176.571 75.844C177.694 76.022 185.23 76.139 195.612 76.141C214.6 76.143 213.143 75.992 213.143 77.963C213.143 86.616 224.638 98.901 237.35 103.835L238.842 104.414L237.447 101.779C234.576 96.355 233.724 92.257 233.506 82.818L233.353 76.208L239.462 76.072C249.111 75.856 253.455 73.51 256.199 67.033L257 65.143L257.079 45.027C257.149 27.207 257.105 24.73 256.696 23.313C255.254 18.316 251.317 14.478 246.248 13.129C243.944 12.516 177.464 12.55 175.175 13.166ZM241 195.745C239.589 196.101 238.647 196.581 237.786 197.387L236.857 198.255V206.237V214.218L237.83 215.136C240.205 217.375 245.795 217.375 248.17 215.136L249.143 214.218V206.345V198.472L248.394 197.583C247.162 196.119 243.315 195.163 241 195.745ZM261.563 196.49C261.485 196.694 261.455 201.232 261.496 206.573L261.571 216.286H264H266.429V206.286V196.286L264.067 196.203C262.333 196.142 261.667 196.218 261.563 196.49ZM269.429 197.571V199H271.424H273.42L273.496 207.643L273.571 216.286H276H278.429L278.504 207.643L278.58 199H280.576H282.571V197.571V196.143H276H269.429V197.571ZM243.97 198.535C244.2 198.812 244.273 201.098 244.219 206.29C244.136 214.338 244.111 214.448 242.473 214.037L241.714 213.846V206.161C241.714 200.281 241.798 198.442 242.071 198.332C242.764 198.053 243.648 198.147 243.97 198.535Z" fill="#F39434"/>
<path fill-rule="evenodd" clip-rule="evenodd" d="M124.714 8.14301C125.647 9.08601 126.475 9.85699 126.554 9.85699C126.632 9.85699 125.933 9.08601 125 8.14301C124.067 7.20001 123.239 6.429 123.161 6.429C123.082 6.429 123.781 7.20001 124.714 8.14301ZM159.562 8.214L157.857 10L159.643 8.295C160.625 7.357 161.429 6.553 161.429 6.509C161.429 6.298 161.147 6.556 159.562 8.214ZM261.702 7.929C262.886 9.19 263.143 9.417 263.143 9.202C263.143 9.156 262.532 8.546 261.786 7.845L260.429 6.571L261.702 7.929ZM22.415 8.214L21.286 9.429L22.5 8.299C23.629 7.249 23.846 7 23.629 7C23.583 7 23.036 7.546 22.415 8.214ZM14.686 30C14.686 32.357 14.73 33.283 14.784 32.058C14.838 30.833 14.837 28.905 14.783 27.773C14.729 26.641 14.685 27.643 14.686 30ZM269.829 30C269.829 32.357 269.873 33.283 269.927 32.058C269.981 30.833 269.98 28.905 269.926 27.773C269.872 26.641 269.828 27.643 269.829 30ZM141.786 44.34C142.061 44.412 142.511 44.412 142.786 44.34C143.061 44.268 142.836 44.209 142.286 44.209C141.736 44.209 141.511 44.268 141.786 44.34ZM14.691 57.143C14.691 60.286 14.733 61.61 14.784 60.087C14.836 58.563 14.836 55.991 14.785 54.372C14.734 52.753 14.692 54 14.691 57.143ZM269.835 57.286C269.835 60.507 269.876 61.825 269.927 60.214C269.978 58.604 269.978 55.968 269.927 54.357C269.876 52.746 269.835 54.064 269.835 57.286ZM69.133 99.5L67.571 101.143L69.214 99.581C70.741 98.13 70.988 97.857 70.776 97.857C70.731 97.857 69.992 98.596 69.133 99.5ZM215.143 99.429C215.996 100.293 216.759 101 216.838 101C216.916 101 216.282 100.293 215.429 99.429C214.575 98.564 213.812 97.857 213.734 97.857C213.655 97.857 214.289 98.564 215.143 99.429ZM13.636 195.778C14.144 195.841 15.044 195.842 15.636 195.78C16.229 195.718 15.814 195.666 14.714 195.665C13.614 195.664 13.129 195.715 13.636 195.778ZM28.779 195.778C29.287 195.841 30.187 195.842 30.779 195.78C31.372 195.718 30.957 195.666 29.857 195.665C28.757 195.664 28.272 195.715 28.779 195.778ZM44.779 195.778C45.287 195.841 46.187 195.842 46.779 195.78C47.372 195.718 46.957 195.666 45.857 195.665C44.757 195.664 44.272 195.715 44.779 195.778ZM60.494 195.778C61.001 195.841 61.901 195.842 62.494 195.78C63.086 195.718 62.671 195.666 61.571 195.665C60.471 195.664 59.986 195.715 60.494 195.778ZM90.5 195.778C91.011 195.841 91.846 195.841 92.357 195.778C92.868 195.715 92.45 195.663 91.429 195.663C90.407 195.663 89.989 195.715 90.5 195.778ZM98.505 195.778C99.019 195.842 99.79 195.841 100.219 195.776C100.649 195.71 100.229 195.658 99.286 195.66C98.343 195.662 97.992 195.715 98.505 195.778ZM113.922 195.778C114.429 195.841 115.329 195.842 115.922 195.78C116.515 195.718 116.1 195.666 115 195.665C113.9 195.664 113.415 195.715 113.922 195.778ZM161.357 195.778C161.868 195.841 162.704 195.841 163.214 195.778C163.725 195.715 163.307 195.663 162.286 195.663C161.264 195.663 160.846 195.715 161.357 195.778ZM192.5 195.778C193.011 195.841 193.846 195.841 194.357 195.778C194.868 195.715 194.45 195.663 193.429 195.663C192.407 195.663 191.989 195.715 192.5 195.778ZM200.5 195.778C201.011 195.841 201.846 195.841 202.357 195.778C202.868 195.715 202.45 195.663 201.429 195.663C200.407 195.663 199.989 195.715 200.5 195.778ZM71.143 197.571V199L73.929 198.941L76.714 198.881L74.071 198.787L71.429 198.693V197.561V196.429H76.555H81.681L81.791 197.643L81.9 198.857L81.95 197.5L82 196.143H76.571H71.143V197.571ZM126.496 196.355L128.849 196.452L128.929 204.797L129.009 213.143L129.076 204.643L129.143 196.143L126.643 196.201L124.143 196.259L126.496 196.355ZM131.781 204.786L131.848 213.429L131.928 204.94L132.008 196.452L134.361 196.355L136.714 196.259L134.214 196.201L131.714 196.143L131.781 204.786ZM140.651 196.353C141.403 196.412 142.56 196.412 143.223 196.352C143.886 196.292 143.271 196.243 141.857 196.244C140.443 196.245 139.9 196.294 140.651 196.353ZM148.937 196.353C149.688 196.412 150.846 196.412 151.509 196.352C152.172 196.292 151.557 196.243 150.143 196.244C148.729 196.245 148.186 196.294 148.937 196.353ZM178.924 204.929L178.991 213.714L179.071 205.071L179.151 196.429H181.429H183.706L183.786 205.214L183.866 214L183.933 205.071L184 196.143H181.429H178.857L178.924 204.929ZM210.285 196.346C210.285 196.47 211.331 196.529 212.611 196.477C214.311 196.408 215.01 196.485 215.205 196.763C215.417 197.064 215.448 197.054 215.356 196.714C215.23 196.252 210.286 195.893 210.285 196.346ZM221.357 196.352C222.025 196.412 223.118 196.412 223.786 196.352C224.454 196.292 223.907 196.243 222.571 196.243C221.236 196.243 220.689 196.292 221.357 196.352ZM44.629 198.486C44.402 198.712 44.286 199.927 44.286 202.057V205.286L45.071 205.247C45.745 205.213 45.765 205.19 45.214 205.084C44.463 204.939 44.202 199.198 44.914 198.486C45.103 198.297 45.193 198.143 45.114 198.143C45.036 198.143 44.817 198.297 44.629 198.486ZM20.683 202.143C20.683 204.264 20.728 205.132 20.783 204.071C20.838 203.011 20.838 201.275 20.783 200.214C20.728 199.154 20.683 200.021 20.683 202.143ZM168.286 207.274V216.12L165.929 216.216L163.571 216.312L166.071 216.37L168.571 216.429V207.429C168.571 202.479 168.507 198.429 168.429 198.429C168.35 198.429 168.286 202.409 168.286 207.274ZM39.565 207.429L39.571 216.286H42H44.429L44.508 212.012C44.563 209.05 44.695 207.662 44.937 207.49C45.188 207.311 45.166 207.275 44.857 207.359C44.505 207.455 44.415 208.245 44.35 211.809L44.271 216.143H41.997H39.723L39.641 207.357L39.559 198.571L39.565 207.429ZM51.819 201.429C51.819 203 51.867 203.606 51.925 202.776C51.983 201.946 51.983 200.66 51.924 199.919C51.865 199.178 51.818 199.857 51.819 201.429ZM85.21 207.5L85.143 216.429L87.643 216.37L90.143 216.312L87.79 216.216L85.437 216.12L85.357 207.346L85.277 198.571L85.21 207.5ZM156.067 207.5L156 216.429L158.5 216.37L161 216.312L158.647 216.216L156.294 216.12L156.214 207.346L156.134 198.571L156.067 207.5ZM8.422 207.643L8.429 216.286H10.857H13.286L13.366 212.945L13.446 209.605L14.509 209.493L15.571 209.382L14.357 209.334L13.143 209.286V212.714V216.143H10.861H8.58L8.498 207.571L8.416 199L8.422 207.643ZM13.206 202.929L13.143 207L13.929 206.961C14.59 206.928 14.614 206.903 14.079 206.799C13.466 206.681 13.442 206.547 13.356 202.767L13.268 198.857L13.206 202.929ZM31.267 206.143C31.267 210.15 31.307 211.789 31.356 209.786C31.405 207.782 31.405 204.504 31.356 202.5C31.307 200.496 31.267 202.136 31.267 206.143ZM36.124 206.143C36.124 210.15 36.164 211.789 36.213 209.786C36.263 207.782 36.263 204.504 36.213 202.5C36.164 200.496 36.124 202.136 36.124 206.143ZM55.267 206.286C55.268 210.371 55.308 212.003 55.357 209.912C55.405 207.82 55.405 204.477 55.356 202.483C55.307 200.489 55.267 202.2 55.267 206.286ZM60.124 206.143C60.124 210.15 60.164 211.789 60.213 209.786C60.263 207.782 60.263 204.504 60.213 202.5C60.164 200.496 60.124 202.136 60.124 206.143ZM105.21 207.5L105.143 216.143H102.861H100.58L100.498 207.643L100.415 199.143L100.422 207.714L100.429 216.286L102.79 216.369C105.72 216.472 105.454 217.413 105.357 207.282L105.277 198.857L105.21 207.5ZM108.708 207.643L108.714 216.286H111.143H113.571L113.651 212.372L113.73 208.459L114.937 208.349L116.143 208.239L114.857 208.262L113.571 208.286L113.492 212.214L113.412 216.143H111.139H108.866L108.784 207.571L108.702 199L108.708 207.643ZM113.49 202.357L113.429 205.857L114.929 205.806L116.429 205.754L115.08 205.647L113.732 205.541L113.642 202.199L113.551 198.857L113.49 202.357ZM192 207.703V216.12L189.643 216.216L187.286 216.312L189.786 216.37L192.286 216.429V207.857C192.286 203.143 192.221 199.286 192.143 199.286C192.064 199.286 192 203.073 192 207.703ZM194.924 207.786L194.857 216.429L197.357 216.37L199.857 216.312L197.504 216.216L195.151 216.12L195.071 207.631L194.991 199.143L194.924 207.786ZM47.241 201.714C47.242 202.971 47.292 203.45 47.352 202.778C47.413 202.106 47.412 201.078 47.351 200.492C47.289 199.907 47.24 200.457 47.241 201.714ZM97.429 207.846V216.12L95.071 216.216L92.714 216.312L95.214 216.37L97.714 216.429V208C97.714 203.364 97.65 199.571 97.571 199.571C97.493 199.571 97.429 203.295 97.429 207.846ZM161.5 205.776C161.932 205.842 162.639 205.842 163.071 205.776C163.504 205.711 163.15 205.657 162.286 205.657C161.421 205.657 161.068 205.711 161.5 205.776ZM51.714 212.131V216.12L49.357 216.216L47 216.312L49.5 216.37L52 216.429V212.286C52 210.007 51.936 208.143 51.857 208.143C51.779 208.143 51.714 209.938 51.714 212.131ZM161.643 208.344C161.996 208.413 162.575 208.413 162.929 208.344C163.282 208.276 162.993 208.221 162.286 208.221C161.579 208.221 161.289 208.276 161.643 208.344ZM171.239 210.429C171.239 211.607 171.289 212.089 171.351 211.5C171.413 210.911 171.413 209.946 171.351 209.357C171.289 208.768 171.239 209.25 171.239 210.429ZM76.472 213.643C76.545 213.761 77.755 213.857 79.16 213.857H81.714V214.994V216.13L76.5 216.217L71.286 216.305L76.571 216.295L81.857 216.286L81.943 214.948L82.03 213.61L79.184 213.519C77.619 213.469 76.399 213.525 76.472 213.643ZM117.509 216.353C118.26 216.412 119.417 216.412 120.08 216.352C120.743 216.292 120.129 216.243 118.714 216.244C117.3 216.245 116.757 216.294 117.509 216.353ZM148.937 216.353C149.688 216.412 150.846 216.412 151.509 216.352C152.172 216.292 151.557 216.243 150.143 216.244C148.729 216.245 148.186 216.294 148.937 216.353ZM203.794 216.353C204.546 216.412 205.703 216.412 206.366 216.352C207.029 216.292 206.414 216.243 205 216.244C203.586 216.245 203.043 216.294 203.794 216.353ZM216.366 216.353C217.117 216.412 218.274 216.412 218.937 216.352C219.6 216.292 218.986 216.243 217.571 216.244C216.157 216.245 215.615 216.294 216.366 216.353ZM137.786 216.911C138.061 216.983 138.511 216.983 138.786 216.911C139.061 216.839 138.836 216.781 138.286 216.781C137.736 216.781 137.511 216.839 137.786 216.911Z" fill="#A0BBCD"/>
</svg>
