<svg id="svg" version="1.1" xmlns="http://www.w3.org/2000/svg" xmlns:xlink="http://www.w3.org/1999/xlink" width="400" height="75.39936102236422" viewBox="0, 0, 400,75.39936102236422"><g id="svgg"><path id="path0" d="M0.000 37.667 L 0.000 75.333 37.833 75.333 L 75.667 75.333 75.667 37.667 L 75.667 0.000 37.833 0.000 L 0.000 0.000 0.000 37.667 M48.569 9.711 C 50.376 10.743,50.355 12.150,48.460 17.083 C 45.005 26.076,44.408 27.622,43.083 31.000 C 42.310 32.971,41.157 35.933,40.519 37.583 C 39.378 40.540,38.736 42.185,35.513 50.417 C 34.615 52.708,32.992 56.871,31.906 59.667 C 29.723 65.285,29.519 65.621,28.079 65.984 C 26.467 66.390,25.139 65.170,25.032 63.185 C 24.975 62.135,25.038 61.916,26.379 58.500 C 27.153 56.529,28.407 53.304,29.166 51.333 C 32.264 43.282,33.694 39.588,34.907 36.500 C 36.307 32.935,38.731 26.729,41.838 18.750 C 42.944 15.908,44.085 12.989,44.372 12.263 C 45.396 9.674,46.901 8.759,48.569 9.711 M21.686 23.929 C 23.329 24.768,22.951 27.513,20.965 29.165 C 20.389 29.645,19.392 30.505,18.750 31.076 C 17.442 32.241,15.252 34.138,12.719 36.301 C 10.713 38.013,10.799 37.745,11.960 38.667 C 15.156 41.204,22.296 47.254,22.537 47.629 C 23.653 49.364,22.672 51.667,20.815 51.667 C 19.535 51.667,19.246 51.470,13.833 46.919 C 11.037 44.568,8.030 42.068,7.151 41.364 C 4.066 38.894,3.839 37.192,6.315 35.102 C 6.738 34.745,7.608 33.986,8.250 33.414 C 8.892 32.842,10.105 31.784,10.947 31.062 C 12.563 29.677,14.573 27.921,17.460 25.374 C 19.617 23.471,20.319 23.231,21.686 23.929 M55.850 23.694 C 56.162 23.801,57.136 24.532,58.015 25.319 C 58.894 26.106,61.213 28.137,63.169 29.833 C 73.322 38.639,73.297 37.175,63.434 45.386 C 59.686 48.507,56.351 51.197,56.024 51.364 C 54.159 52.314,52.380 51.107,52.533 48.994 C 52.631 47.635,52.608 47.659,58.432 42.815 C 61.341 40.396,63.891 38.267,64.099 38.083 L 64.478 37.750 58.914 32.930 C 53.948 28.628,53.311 28.019,52.990 27.273 C 52.027 25.034,53.689 22.954,55.850 23.694 " stroke="none" fill="#cc4434" fill-rule="evenodd"></path><path id="path1" d="M46.228 9.810 C 45.315 10.384,44.925 11.142,42.999 16.083 C 41.964 18.742,40.224 23.204,39.133 26.000 C 38.043 28.796,36.317 33.221,35.298 35.833 C 34.280 38.446,32.788 42.271,31.983 44.333 C 30.210 48.881,27.684 55.421,26.236 59.219 C 24.664 63.340,24.855 65.153,26.933 65.839 C 28.582 66.383,29.594 65.400,30.901 61.987 C 31.928 59.304,33.542 55.158,41.634 34.417 C 50.488 11.720,50.266 12.379,49.563 10.897 C 48.989 9.689,47.298 9.137,46.228 9.810 M19.713 23.784 C 19.509 23.823,18.869 24.282,18.289 24.803 C 17.106 25.867,12.314 30.029,9.263 32.641 C 3.381 37.679,3.351 38.026,8.431 42.279 C 20.509 52.394,20.045 52.070,21.559 51.438 C 23.838 50.485,23.308 48.205,20.215 45.655 C 19.055 44.699,17.576 43.463,16.928 42.908 C 16.280 42.353,14.678 41.013,13.367 39.931 C 12.057 38.849,11.013 37.878,11.047 37.773 C 11.107 37.595,14.163 34.889,18.500 31.176 C 21.491 28.615,22.280 27.801,22.484 27.066 C 23.085 24.905,21.798 23.380,19.713 23.784 M54.005 23.880 C 52.951 24.413,52.543 25.936,53.090 27.300 C 53.346 27.941,53.745 28.313,59.992 33.729 C 63.645 36.897,64.517 37.700,64.465 37.854 C 64.438 37.937,63.432 38.810,62.232 39.794 C 52.922 47.423,52.667 47.675,52.667 49.253 C 52.667 51.488,54.870 52.288,56.777 50.745 C 62.847 45.837,70.174 39.571,70.399 39.097 C 71.111 37.596,70.668 36.507,68.621 34.724 C 67.775 33.987,64.664 31.271,61.708 28.688 C 58.752 26.105,56.140 23.918,55.905 23.829 C 55.322 23.607,54.500 23.629,54.005 23.880 " stroke="none" fill="#fbfafa" fill-rule="evenodd"></path><path id="path2" d="M46.847 9.394 C 46.885 9.427,47.250 9.497,47.658 9.549 C 48.138 9.610,48.314 9.590,48.158 9.491 C 47.935 9.350,46.691 9.258,46.847 9.394 M45.749 10.023 C 45.422 10.310,45.076 10.704,44.980 10.898 C 44.885 11.092,45.012 10.998,45.263 10.690 C 45.514 10.381,45.952 9.988,46.235 9.815 C 46.518 9.643,46.659 9.501,46.547 9.501 C 46.436 9.500,46.077 9.735,45.749 10.023 M49.875 12.250 C 49.877 12.617,49.911 12.747,49.951 12.540 C 49.991 12.332,49.990 12.032,49.948 11.873 C 49.906 11.714,49.874 11.883,49.875 12.250 M43.852 13.519 C 43.749 13.813,43.694 14.083,43.730 14.119 C 43.766 14.155,43.879 13.943,43.981 13.648 C 44.084 13.354,44.139 13.083,44.103 13.048 C 44.068 13.012,43.955 13.224,43.852 13.519 M48.019 17.852 C 47.916 18.146,47.861 18.417,47.897 18.452 C 47.932 18.488,48.045 18.276,48.148 17.981 C 48.251 17.687,48.306 17.417,48.270 17.381 C 48.234 17.345,48.121 17.557,48.019 17.852 M40.019 23.352 C 39.916 23.646,39.861 23.917,39.897 23.952 C 39.932 23.988,40.045 23.776,40.148 23.481 C 40.251 23.187,40.306 22.917,40.270 22.881 C 40.234 22.845,40.121 23.057,40.019 23.352 M54.708 23.615 C 54.869 23.657,55.131 23.657,55.292 23.615 C 55.452 23.573,55.321 23.539,55.000 23.539 C 54.679 23.539,54.548 23.573,54.708 23.615 M21.888 24.267 C 22.133 24.512,22.333 24.789,22.333 24.884 C 22.333 24.978,22.377 25.012,22.430 24.959 C 22.568 24.821,22.031 24.047,21.712 23.925 C 21.564 23.868,21.643 24.022,21.888 24.267 M56.183 23.875 C 56.223 23.898,56.591 24.217,57.003 24.583 L 57.750 25.250 57.091 24.542 C 56.729 24.152,56.360 23.833,56.272 23.833 C 56.183 23.833,56.144 23.852,56.183 23.875 M17.417 25.444 L 16.083 26.708 17.268 25.691 C 18.357 24.757,18.967 24.157,18.812 24.173 C 18.778 24.177,18.150 24.749,17.417 25.444 M58.333 25.750 C 58.644 26.071,58.936 26.333,58.982 26.333 C 59.028 26.333,58.811 26.071,58.500 25.750 C 58.189 25.429,57.897 25.167,57.851 25.167 C 57.805 25.167,58.022 25.429,58.333 25.750 M52.712 26.000 C 52.712 26.412,52.745 26.581,52.784 26.375 C 52.824 26.169,52.824 25.831,52.784 25.625 C 52.745 25.419,52.712 25.587,52.712 26.000 M59.500 26.709 C 59.500 26.750,59.969 27.187,60.542 27.680 C 61.115 28.173,61.478 28.445,61.350 28.283 C 61.081 27.944,59.500 26.599,59.500 26.709 M14.125 28.257 C 13.231 29.038,12.500 29.714,12.500 29.759 C 12.500 29.804,13.250 29.189,14.167 28.392 C 15.656 27.098,15.937 26.829,15.792 26.835 C 15.769 26.836,15.019 27.476,14.125 28.257 M44.188 27.771 C 43.989 28.290,43.854 28.743,43.889 28.778 C 43.923 28.812,44.114 28.415,44.313 27.896 C 44.511 27.377,44.646 26.923,44.611 26.889 C 44.577 26.855,44.386 27.252,44.188 27.771 M21.167 28.792 L 20.083 29.882 21.051 29.080 C 21.583 28.638,22.092 28.140,22.182 27.972 C 22.409 27.548,22.384 27.568,21.167 28.792 M53.333 28.032 C 53.333 28.065,53.802 28.498,54.375 28.994 C 54.948 29.490,55.229 29.687,55.000 29.432 C 54.585 28.968,53.333 27.918,53.333 28.032 M62.167 29.083 C 62.478 29.404,62.770 29.667,62.815 29.667 C 62.861 29.667,62.644 29.404,62.333 29.083 C 62.022 28.762,61.730 28.500,61.685 28.500 C 61.639 28.500,61.856 28.762,62.167 29.083 M56.000 30.417 C 56.311 30.738,56.603 31.000,56.649 31.000 C 56.695 31.000,56.478 30.738,56.167 30.417 C 55.856 30.096,55.564 29.833,55.518 29.833 C 55.472 29.833,55.689 30.096,56.000 30.417 M63.667 30.417 C 63.978 30.738,64.270 31.000,64.315 31.000 C 64.361 31.000,64.144 30.738,63.833 30.417 C 63.522 30.096,63.230 29.833,63.185 29.833 C 63.139 29.833,63.356 30.096,63.667 30.417 M37.019 31.019 C 36.916 31.313,36.861 31.583,36.897 31.619 C 36.932 31.655,37.045 31.443,37.148 31.148 C 37.251 30.854,37.306 30.583,37.270 30.548 C 37.234 30.512,37.121 30.724,37.019 31.019 M56.833 31.052 C 56.833 31.081,57.077 31.325,57.375 31.594 L 57.917 32.083 57.427 31.542 C 56.971 31.037,56.833 30.923,56.833 31.052 M64.500 31.060 C 64.500 31.106,65.287 31.829,66.250 32.667 C 67.212 33.505,68.000 34.153,68.000 34.107 C 68.000 34.061,67.212 33.338,66.250 32.500 C 65.287 31.662,64.500 31.014,64.500 31.060 M17.333 32.186 L 16.250 33.200 17.292 32.333 C 18.219 31.562,18.624 31.161,18.468 31.169 C 18.440 31.171,17.929 31.628,17.333 32.186 M9.583 32.272 L 8.583 33.202 9.625 32.334 C 10.531 31.580,10.790 31.321,10.625 31.337 C 10.602 31.340,10.133 31.760,9.583 32.272 M58.000 32.046 C 58.000 32.090,58.578 32.641,59.283 33.271 C 59.989 33.901,60.515 34.331,60.452 34.227 C 60.308 33.990,58.000 31.936,58.000 32.046 M36.185 33.185 C 36.083 33.480,36.028 33.750,36.063 33.786 C 36.099 33.821,36.212 33.609,36.315 33.315 C 36.417 33.020,36.472 32.750,36.437 32.714 C 36.401 32.679,36.288 32.891,36.185 33.185 M60.667 34.385 C 60.667 34.414,60.910 34.658,61.208 34.927 L 61.750 35.417 61.260 34.875 C 60.804 34.370,60.667 34.257,60.667 34.385 M68.833 34.917 C 69.144 35.237,69.436 35.500,69.482 35.500 C 69.528 35.500,69.311 35.237,69.000 34.917 C 68.689 34.596,68.397 34.333,68.351 34.333 C 68.305 34.333,68.522 34.596,68.833 34.917 M6.030 35.359 C 5.203 36.150,4.741 36.796,4.894 36.950 C 4.952 37.008,5.000 36.962,5.000 36.849 C 5.000 36.735,5.424 36.197,5.942 35.654 C 7.031 34.513,7.077 34.357,6.030 35.359 M13.333 35.685 L 12.250 36.698 13.375 35.745 C 14.364 34.908,14.614 34.659,14.458 34.669 C 14.435 34.671,13.929 35.128,13.333 35.685 M61.833 35.379 C 61.833 35.423,62.411 35.975,63.117 36.605 C 63.823 37.235,64.348 37.665,64.285 37.560 C 64.141 37.323,61.833 35.270,61.833 35.379 M40.688 36.771 C 40.489 37.290,40.354 37.743,40.389 37.778 C 40.423 37.812,40.614 37.415,40.813 36.896 C 41.011 36.377,41.146 35.923,41.111 35.889 C 41.077 35.855,40.886 36.252,40.688 36.771 M11.573 37.208 L 11.083 37.750 11.625 37.260 C 12.130 36.804,12.243 36.667,12.115 36.667 C 12.086 36.667,11.842 36.910,11.573 37.208 M70.583 37.833 C 70.583 38.457,70.638 38.882,70.706 38.776 C 70.773 38.670,70.828 38.246,70.828 37.833 C 70.828 37.421,70.773 36.997,70.706 36.891 C 70.638 36.785,70.583 37.209,70.583 37.833 M4.714 37.917 C 4.716 38.375,4.748 38.543,4.786 38.289 C 4.825 38.036,4.824 37.661,4.784 37.456 C 4.744 37.251,4.713 37.458,4.714 37.917 M39.854 38.938 C 39.655 39.457,39.521 39.910,39.555 39.944 C 39.590 39.979,39.780 39.582,39.979 39.063 C 40.178 38.543,40.312 38.090,40.278 38.056 C 40.244 38.021,40.053 38.418,39.854 38.938 M62.917 39.104 L 62.083 39.867 62.958 39.168 C 63.716 38.563,63.956 38.323,63.792 38.337 C 63.769 38.339,63.375 38.684,62.917 39.104 M4.838 38.906 C 4.830 39.171,5.511 40.066,5.976 40.401 C 6.309 40.640,6.269 40.559,5.813 40.067 C 5.481 39.709,5.128 39.267,5.027 39.083 C 4.926 38.900,4.841 38.820,4.838 38.906 M12.167 38.880 C 12.167 38.921,12.748 39.422,13.458 39.992 C 14.169 40.562,14.450 40.752,14.083 40.415 C 13.248 39.647,12.167 38.781,12.167 38.880 M69.928 39.792 C 69.567 40.252,69.539 40.329,69.818 40.085 C 70.152 39.793,70.593 39.167,70.464 39.167 C 70.438 39.167,70.197 39.448,69.928 39.792 M33.021 41.271 C 32.822 41.790,32.688 42.243,32.722 42.278 C 32.756 42.312,32.947 41.915,33.146 41.396 C 33.345 40.877,33.479 40.423,33.445 40.389 C 33.410 40.355,33.220 40.752,33.021 41.271 M65.667 43.346 C 64.796 44.078,63.933 44.836,63.750 45.030 C 63.567 45.223,64.298 44.651,65.375 43.757 C 67.069 42.352,67.485 41.973,67.292 42.008 C 67.269 42.012,66.537 42.614,65.667 43.346 M8.500 42.381 C 8.500 42.424,8.928 42.825,9.452 43.271 C 9.975 43.718,10.350 43.996,10.284 43.890 C 10.141 43.657,8.500 42.269,8.500 42.381 M57.750 43.351 C 56.085 44.776,55.853 45.076,57.369 43.843 C 58.519 42.909,59.155 42.316,58.979 42.343 C 58.945 42.348,58.392 42.802,57.750 43.351 M32.352 43.019 C 32.249 43.313,32.194 43.583,32.230 43.619 C 32.266 43.655,32.379 43.443,32.481 43.148 C 32.584 42.854,32.639 42.583,32.603 42.548 C 32.568 42.512,32.455 42.724,32.352 43.019 M17.049 42.943 C 17.192 43.176,18.833 44.564,18.833 44.452 C 18.833 44.409,18.405 44.008,17.882 43.562 C 17.358 43.115,16.984 42.837,17.049 42.943 M36.688 47.022 C 36.396 47.768,36.185 48.407,36.219 48.441 C 36.253 48.475,36.519 47.892,36.812 47.145 C 37.104 46.398,37.315 45.760,37.281 45.726 C 37.247 45.692,36.981 46.275,36.688 47.022 M21.417 46.598 C 21.692 46.864,22.088 47.269,22.297 47.499 C 22.536 47.761,22.639 47.811,22.574 47.633 C 22.517 47.477,22.121 47.071,21.694 46.732 C 21.187 46.329,21.091 46.282,21.417 46.598 M53.376 47.042 C 52.131 48.333,52.216 50.679,53.533 51.338 C 53.875 51.509,53.869 51.488,53.474 51.140 C 52.322 50.126,52.353 48.275,53.543 47.042 C 53.830 46.744,54.028 46.500,53.982 46.500 C 53.936 46.500,53.664 46.744,53.376 47.042 M13.667 46.719 C 13.667 46.765,14.042 47.116,14.500 47.500 C 14.958 47.884,15.333 48.160,15.333 48.114 C 15.333 48.069,14.958 47.717,14.500 47.333 C 14.042 46.950,13.667 46.673,13.667 46.719 M60.167 47.929 C 59.571 48.432,58.933 49.003,58.750 49.197 C 58.567 49.392,59.073 49.007,59.875 48.341 C 61.136 47.295,61.476 46.975,61.292 47.007 C 61.269 47.011,60.762 47.426,60.167 47.929 M22.879 49.333 C 22.879 49.746,22.911 49.915,22.951 49.708 C 22.991 49.502,22.991 49.165,22.951 48.958 C 22.911 48.752,22.879 48.921,22.879 49.333 M17.500 49.892 C 17.500 50.052,19.358 51.500,19.557 51.495 C 19.663 51.492,19.600 51.405,19.417 51.302 C 19.233 51.199,18.727 50.819,18.292 50.458 C 17.856 50.097,17.500 49.843,17.500 49.892 M22.459 50.684 C 22.303 50.956,21.929 51.286,21.629 51.416 C 21.329 51.547,21.204 51.657,21.353 51.660 C 21.686 51.668,22.441 51.088,22.681 50.639 C 22.970 50.100,22.771 50.140,22.459 50.684 M56.750 50.775 C 56.248 51.223,56.211 51.286,56.598 51.026 C 57.059 50.718,57.638 50.157,57.479 50.173 C 57.445 50.176,57.117 50.447,56.750 50.775 M29.021 51.604 C 28.822 52.123,28.688 52.577,28.722 52.611 C 28.756 52.645,28.947 52.248,29.146 51.729 C 29.345 51.210,29.479 50.757,29.445 50.722 C 29.410 50.688,29.220 51.085,29.021 51.604 M54.377 51.620 C 54.631 51.658,55.006 51.657,55.211 51.617 C 55.416 51.578,55.208 51.546,54.750 51.548 C 54.292 51.549,54.124 51.581,54.377 51.620 M28.352 53.352 C 28.249 53.646,28.194 53.917,28.230 53.952 C 28.266 53.988,28.379 53.776,28.481 53.481 C 28.584 53.187,28.639 52.917,28.603 52.881 C 28.568 52.845,28.455 53.057,28.352 53.352 M33.021 56.438 C 32.822 56.957,32.688 57.410,32.722 57.444 C 32.756 57.479,32.947 57.082,33.146 56.563 C 33.345 56.043,33.479 55.590,33.445 55.556 C 33.410 55.521,33.220 55.918,33.021 56.438 M25.336 61.159 C 24.455 63.515,25.644 66.247,27.511 66.155 C 27.642 66.148,27.453 66.035,27.091 65.902 C 25.314 65.251,24.661 63.294,25.506 61.151 C 25.693 60.678,25.815 60.260,25.778 60.223 C 25.742 60.186,25.543 60.607,25.336 61.159 M29.724 64.758 C 29.669 64.900,29.354 65.200,29.024 65.425 C 28.693 65.650,28.485 65.833,28.561 65.833 C 28.803 65.833,29.661 65.155,29.840 64.822 C 29.934 64.645,29.969 64.500,29.917 64.500 C 29.865 64.500,29.778 64.616,29.724 64.758 " stroke="none" fill="#e49c94" fill-rule="evenodd"></path><path id="path3" d="M285.972 19.171 C 284.259 19.460,281.591 20.448,280.999 21.013 C 280.862 21.144,280.262 21.643,279.667 22.122 C 278.516 23.046,277.238 24.751,276.995 25.686 C 276.325 28.255,276.302 28.433,276.384 30.500 C 276.467 32.598,276.719 33.714,277.393 34.974 C 277.741 35.623,279.736 37.667,280.023 37.667 C 280.130 37.667,280.476 37.863,280.790 38.102 C 281.450 38.606,284.698 40.093,287.000 40.945 C 291.200 42.500,292.333 43.607,292.333 46.157 C 292.333 51.033,285.913 52.354,279.875 48.718 C 278.626 47.965,278.321 47.997,277.584 48.958 C 274.460 53.033,274.512 52.856,276.149 53.905 C 279.432 56.010,282.829 57.001,286.750 56.998 C 294.631 56.992,299.316 53.193,299.618 46.564 C 299.874 40.955,297.148 37.632,290.203 35.082 C 287.691 34.160,287.323 34.011,286.212 33.472 C 283.423 32.117,282.669 29.525,284.349 27.066 C 285.803 24.937,290.900 24.907,294.618 27.005 C 295.721 27.628,296.156 27.631,296.583 27.018 C 299.706 22.547,299.685 22.616,298.221 21.716 C 294.776 19.599,289.693 18.543,285.972 19.171 M86.449 19.576 C 82.112 20.090,82.261 18.941,85.347 28.083 C 85.718 29.183,86.590 31.771,87.285 33.833 C 87.980 35.896,89.143 39.308,89.871 41.417 C 90.599 43.525,91.460 46.075,91.786 47.083 C 93.336 51.882,94.725 55.841,94.913 55.997 C 95.403 56.404,101.710 56.830,101.939 56.472 C 102.101 56.220,103.188 52.636,103.599 51.000 C 103.749 50.404,104.384 48.154,105.012 46.000 C 105.640 43.846,106.313 41.408,106.508 40.583 C 106.704 39.758,106.905 38.971,106.956 38.833 C 107.050 38.576,107.648 40.795,107.660 41.447 C 107.667 41.816,108.551 44.927,111.156 53.749 C 111.345 54.391,111.500 55.073,111.500 55.265 C 111.500 56.133,112.779 56.439,116.812 56.535 C 118.514 56.575,118.894 56.540,118.992 56.333 C 119.121 56.063,119.523 54.883,123.850 42.083 C 124.670 39.658,126.299 34.841,127.682 30.750 C 128.054 29.650,128.907 27.137,129.578 25.167 C 131.886 18.388,132.140 19.002,127.256 19.558 C 123.298 20.009,123.336 19.995,123.166 21.034 C 123.101 21.428,122.656 23.025,122.176 24.583 C 120.472 30.115,120.124 31.266,119.735 32.667 C 118.653 36.558,118.313 37.742,117.747 39.583 C 116.790 42.701,115.868 45.986,115.643 47.083 L 115.437 48.083 115.314 47.064 C 115.185 45.991,114.325 42.613,112.328 35.333 C 111.938 33.912,111.558 32.375,111.484 31.917 C 111.409 31.458,111.196 30.521,111.010 29.833 C 110.710 28.723,110.672 28.076,110.670 24.036 C 110.666 18.624,111.096 19.158,107.121 19.631 C 103.299 20.086,103.667 19.595,103.667 24.252 C 103.667 27.841,103.637 28.233,103.268 29.523 C 103.049 30.290,102.562 32.023,102.185 33.375 C 101.808 34.727,101.201 36.902,100.835 38.208 C 100.469 39.515,100.099 40.965,100.011 41.431 C 99.924 41.898,99.628 43.135,99.354 44.181 C 99.080 45.227,98.766 46.533,98.656 47.083 L 98.456 48.083 98.078 46.406 C 97.870 45.484,97.460 43.946,97.167 42.990 C 96.874 42.033,96.519 40.800,96.378 40.250 C 96.034 38.905,94.835 34.797,93.921 31.833 C 93.512 30.504,92.982 28.704,92.745 27.833 C 90.850 20.876,90.252 19.138,89.771 19.185 C 89.668 19.196,88.173 19.371,86.449 19.576 M201.765 19.519 C 200.398 19.694,199.180 19.920,199.057 20.022 C 198.745 20.281,198.722 55.989,199.033 56.300 C 199.336 56.602,205.392 56.580,205.645 56.276 C 205.777 56.117,205.843 52.692,205.874 44.484 L 205.917 32.917 206.963 35.000 C 207.538 36.146,208.640 38.096,209.411 39.333 C 210.183 40.571,211.118 42.162,211.490 42.870 C 212.192 44.208,213.447 46.203,213.903 46.708 C 214.239 47.080,219.417 47.152,219.857 46.792 C 220.199 46.512,221.254 44.899,222.229 43.167 C 222.668 42.387,223.091 41.637,223.168 41.500 C 223.246 41.362,223.821 40.405,224.447 39.372 C 226.480 36.012,227.000 35.091,227.005 34.835 C 227.008 34.697,227.269 34.133,227.586 33.583 L 228.162 32.583 228.165 44.355 C 228.166 54.156,228.205 56.158,228.397 56.317 C 228.556 56.449,229.593 56.494,231.772 56.462 L 234.917 56.417 234.959 37.886 C 235.000 19.891,234.992 19.353,234.689 19.257 C 234.319 19.140,228.530 19.802,228.167 20.003 C 228.029 20.079,227.617 20.705,227.250 21.393 C 226.328 23.124,224.704 25.928,224.133 26.774 C 223.872 27.161,223.469 27.906,223.237 28.429 C 223.006 28.953,222.607 29.689,222.352 30.066 C 221.806 30.870,220.262 33.541,219.083 35.719 C 218.325 37.121,217.528 38.468,217.076 39.112 C 216.886 39.382,216.605 38.961,215.245 36.365 C 214.875 35.660,214.304 34.671,213.975 34.167 C 213.282 33.104,212.343 31.476,211.330 29.583 C 210.938 28.850,210.318 27.762,209.952 27.167 C 208.987 25.595,207.667 23.320,207.667 23.228 C 207.667 23.024,205.597 19.558,205.366 19.375 C 205.041 19.117,204.845 19.125,201.765 19.519 M255.667 19.514 C 254.338 19.684,253.151 19.882,253.031 19.953 C 252.784 20.100,251.387 23.696,250.164 27.333 C 249.717 28.662,248.969 30.762,248.502 32.000 C 247.658 34.238,246.703 36.886,245.706 39.750 C 245.419 40.575,244.801 42.262,244.333 43.500 C 243.865 44.737,243.210 46.538,242.878 47.500 C 242.546 48.462,241.719 50.771,241.039 52.631 C 240.039 55.364,239.841 56.059,240.005 56.256 C 240.211 56.504,246.285 56.636,246.887 56.405 C 247.034 56.349,247.726 54.594,248.595 52.072 L 250.057 47.833 256.417 47.833 L 262.777 47.833 262.956 48.375 C 263.706 50.647,265.623 56.129,265.726 56.294 C 265.820 56.447,266.737 56.500,269.254 56.500 C 273.391 56.500,273.271 56.575,272.478 54.469 C 272.191 53.707,271.589 52.108,271.140 50.917 C 270.306 48.703,269.608 46.747,268.702 44.083 C 268.421 43.258,267.691 41.271,267.079 39.667 C 266.467 38.063,265.645 35.775,265.253 34.583 C 264.599 32.594,263.960 30.864,262.161 26.207 C 261.797 25.266,261.500 24.391,261.500 24.260 C 261.500 23.869,259.960 19.772,259.695 19.458 C 259.389 19.097,258.863 19.104,255.667 19.514 M347.261 19.516 C 344.562 19.865,344.369 19.950,344.015 20.952 C 343.893 21.299,343.538 22.242,343.226 23.047 C 342.914 23.852,342.553 24.902,342.422 25.380 C 342.292 25.859,341.802 27.262,341.335 28.500 C 340.867 29.738,340.309 31.238,340.096 31.833 C 339.883 32.429,339.437 33.609,339.104 34.455 C 338.772 35.301,338.500 36.121,338.500 36.279 C 338.500 36.436,338.197 37.356,337.826 38.324 C 335.994 43.110,335.018 45.794,334.368 47.833 C 333.999 48.990,332.794 52.255,332.429 53.083 C 331.760 54.606,331.424 55.842,331.603 56.126 C 331.818 56.468,338.236 56.664,338.562 56.338 C 338.655 56.245,339.374 54.312,340.161 52.043 L 341.591 47.917 347.945 47.873 L 354.299 47.829 354.496 48.373 C 354.604 48.672,355.250 50.523,355.932 52.486 C 357.501 57.002,356.896 56.516,360.880 56.462 C 365.112 56.405,364.887 56.782,363.259 52.485 C 362.550 50.614,361.856 48.708,361.716 48.250 C 361.416 47.265,359.554 42.065,359.329 41.583 C 358.968 40.812,357.795 37.531,357.660 36.917 C 357.579 36.550,357.350 35.837,357.149 35.333 C 356.211 32.971,355.042 29.795,353.990 26.750 C 353.356 24.917,352.479 22.479,352.041 21.333 L 351.244 19.250 350.497 19.222 C 350.086 19.207,348.630 19.339,347.261 19.516 M372.250 19.563 C 370.783 19.757,369.490 19.977,369.375 20.052 C 369.077 20.244,369.069 56.002,369.367 56.300 C 369.649 56.582,375.685 56.582,375.967 56.300 C 376.117 56.150,376.167 54.126,376.167 48.217 L 376.167 40.333 384.583 40.333 L 393.000 40.333 393.000 48.230 C 393.000 54.737,393.040 56.159,393.230 56.317 C 393.389 56.449,394.448 56.493,396.688 56.462 L 399.917 56.417 399.959 37.926 C 399.983 27.396,399.938 19.371,399.854 19.288 C 399.677 19.110,393.509 19.814,393.208 20.047 C 393.048 20.171,393.000 21.784,393.000 27.104 L 393.000 34.000 384.583 34.000 L 376.167 34.000 376.167 26.684 C 376.167 20.167,376.138 19.358,375.903 19.268 C 375.555 19.134,375.367 19.149,372.250 19.563 M136.367 19.700 C 136.076 19.990,136.076 56.010,136.367 56.300 C 136.663 56.596,156.816 56.588,157.221 56.292 C 157.437 56.133,157.544 55.662,157.665 54.333 C 157.753 53.371,157.900 52.139,157.992 51.596 C 158.251 50.060,158.810 50.167,150.480 50.167 L 143.167 50.167 143.167 45.250 L 143.167 40.333 148.718 40.333 C 152.900 40.333,154.338 40.282,154.548 40.125 C 154.865 39.887,156.221 35.051,156.137 34.458 L 156.083 34.083 149.625 34.040 L 143.167 33.996 143.167 29.998 L 143.167 26.000 150.383 26.000 C 155.774 26.000,157.651 25.949,157.800 25.800 C 157.940 25.660,158.000 24.744,158.000 22.750 C 158.000 20.756,157.940 19.840,157.800 19.700 C 157.511 19.411,136.656 19.411,136.367 19.700 M165.867 19.700 C 165.542 20.024,165.580 56.054,165.905 56.324 C 166.375 56.714,180.799 56.468,182.417 56.042 C 187.924 54.592,191.015 51.082,191.287 45.971 C 191.501 41.952,190.024 38.937,187.039 37.298 L 185.790 36.613 186.437 36.282 C 189.734 34.595,191.160 30.134,189.742 25.942 C 188.495 22.258,185.056 20.164,179.430 19.666 C 176.671 19.422,166.118 19.448,165.867 19.700 M303.109 19.805 C 302.659 20.302,302.700 25.583,303.156 25.827 C 303.357 25.935,305.302 26.000,308.322 26.000 L 313.167 26.000 313.167 41.050 C 313.167 52.533,313.214 56.147,313.367 56.300 C 313.649 56.582,319.851 56.582,320.133 56.300 C 320.286 56.147,320.333 52.533,320.333 41.050 L 320.333 26.000 324.963 26.000 C 330.468 26.000,330.146 26.107,330.575 24.136 C 330.742 23.374,331.019 22.167,331.193 21.455 C 331.726 19.268,333.376 19.500,317.270 19.500 C 304.030 19.500,303.372 19.514,303.109 19.805 M180.417 26.095 C 182.879 26.820,183.888 29.153,182.739 31.460 C 181.843 33.257,180.159 33.833,175.798 33.833 L 172.833 33.833 172.833 29.729 L 172.833 25.624 176.125 25.712 C 178.575 25.778,179.672 25.876,180.417 26.095 M257.080 30.583 C 258.025 33.863,259.989 39.730,260.747 41.542 C 260.861 41.815,260.594 41.833,256.459 41.833 L 252.049 41.833 252.939 39.292 C 253.429 37.894,253.830 36.645,253.831 36.518 C 253.832 36.390,254.396 34.622,255.083 32.589 C 255.771 30.556,256.333 28.754,256.333 28.585 C 256.333 28.072,256.430 28.330,257.080 30.583 M348.167 28.940 C 348.167 29.278,351.676 40.102,352.252 41.542 C 352.362 41.815,352.095 41.833,348.018 41.833 C 345.625 41.833,343.667 41.802,343.667 41.763 C 343.667 41.725,344.221 40.056,344.898 38.055 C 346.048 34.655,347.512 30.001,347.760 28.959 C 347.871 28.493,348.167 28.480,348.167 28.940 M179.380 40.079 C 183.004 40.847,184.876 43.588,183.928 46.740 C 183.126 49.405,181.047 50.333,175.882 50.333 L 172.833 50.333 172.833 45.083 L 172.833 39.833 175.542 39.836 C 177.250 39.838,178.667 39.928,179.380 40.079 " stroke="none" fill="#040404" fill-rule="evenodd"></path><path id="path4" d="" stroke="none" fill="#308480" fill-rule="evenodd"></path></g></svg>