<svg id="svg" xmlns="http://www.w3.org/2000/svg" xmlns:xlink="http://www.w3.org/1999/xlink" width="400" height="107.0555032925682" viewBox="0, 0, 400,107.0555032925682"><g id="svgg"><path id="path0" d="M320.000 8.000 L 320.000 16.000 328.167 16.000 L 336.333 16.000 336.333 8.000 L 336.333 0.000 328.167 0.000 L 320.000 0.000 320.000 8.000 M367.167 21.518 C 366.113 21.594,365.100 21.726,364.917 21.811 C 364.733 21.897,363.908 22.089,363.083 22.239 C 361.247 22.571,359.167 23.165,359.167 23.358 C 359.167 23.436,359.058 23.500,358.926 23.500 C 358.691 23.500,356.582 24.468,355.917 24.881 C 355.733 24.994,355.208 25.310,354.750 25.583 C 354.292 25.855,353.671 26.304,353.370 26.581 C 352.299 27.567,350.933 29.022,350.594 29.538 C 349.798 30.753,349.504 31.282,349.320 31.833 C 349.212 32.154,348.989 32.721,348.823 33.093 C 348.094 34.724,347.815 39.754,348.315 42.234 C 349.253 46.886,352.768 50.919,358.000 53.348 C 358.596 53.624,359.383 53.995,359.750 54.171 C 360.428 54.498,363.618 55.468,365.773 56.004 C 366.427 56.166,368.152 56.471,369.606 56.681 C 371.060 56.892,372.287 57.111,372.333 57.169 C 372.379 57.228,373.579 57.441,375.000 57.643 C 379.263 58.249,380.914 58.808,382.228 60.092 C 383.844 61.670,383.763 64.386,382.060 65.737 C 379.279 67.943,370.392 67.104,367.250 64.339 C 367.067 64.178,366.793 63.979,366.643 63.898 C 365.920 63.507,360.500 58.586,360.500 58.320 C 360.500 58.229,357.587 58.167,353.332 58.167 L 346.164 58.167 346.207 68.042 L 346.250 77.917 353.167 77.963 C 361.768 78.021,360.833 78.272,360.833 75.902 L 360.833 73.977 361.317 74.322 C 361.584 74.512,361.884 74.667,361.984 74.667 C 362.084 74.667,362.167 74.740,362.167 74.831 C 362.167 74.921,362.560 75.193,363.042 75.435 C 363.523 75.678,364.104 76.007,364.333 76.167 C 364.781 76.480,367.603 77.699,368.833 78.112 C 369.547 78.351,372.463 79.012,374.249 79.340 C 376.548 79.762,383.543 79.651,384.471 79.178 C 384.625 79.100,385.238 78.948,385.833 78.841 C 387.098 78.612,388.839 78.101,389.473 77.771 C 389.717 77.644,390.326 77.362,390.827 77.145 C 393.515 75.980,397.231 72.597,398.095 70.531 C 398.233 70.200,398.460 69.803,398.598 69.650 C 400.199 67.881,400.446 59.241,399.008 55.345 C 398.824 54.848,398.616 54.398,398.545 54.345 C 398.475 54.293,398.283 53.987,398.120 53.667 C 397.706 52.851,396.055 50.826,395.434 50.372 C 395.149 50.164,394.842 49.901,394.750 49.788 C 394.007 48.873,389.886 46.620,387.667 45.916 C 386.887 45.669,386.130 45.405,385.984 45.331 C 385.512 45.091,382.643 44.537,380.333 44.240 C 379.096 44.081,378.046 43.899,378.000 43.837 C 377.954 43.774,376.717 43.555,375.250 43.349 C 372.358 42.944,370.181 42.529,369.917 42.334 C 369.825 42.266,369.450 42.113,369.084 41.995 C 363.884 40.318,363.695 35.094,368.791 33.898 C 370.164 33.575,372.667 33.400,372.667 33.626 C 372.667 33.714,373.069 33.828,373.560 33.879 C 374.451 33.971,377.310 34.879,377.489 35.127 C 377.541 35.199,378.071 35.509,378.667 35.817 C 379.262 36.124,379.825 36.460,379.917 36.563 C 380.008 36.666,380.458 37.048,380.917 37.413 C 381.375 37.777,381.825 38.163,381.917 38.271 C 382.008 38.378,382.605 38.923,383.244 39.483 L 384.404 40.500 391.619 40.500 L 398.833 40.500 398.833 31.667 L 398.833 22.833 391.500 22.833 L 384.167 22.833 384.167 24.083 C 384.167 25.446,384.092 25.529,383.388 24.939 C 382.001 23.776,377.528 22.000,375.989 22.000 C 375.827 22.000,375.669 21.930,375.639 21.845 C 375.502 21.463,370.582 21.274,367.167 21.518 M309.278 23.111 C 309.217 23.172,309.167 26.472,309.167 30.444 L 309.167 37.667 314.667 37.667 L 320.167 37.667 320.161 60.542 C 320.154 86.178,320.213 84.963,318.842 87.649 C 318.401 88.513,315.518 91.333,315.075 91.333 C 315.010 91.333,314.527 91.627,314.002 91.985 C 313.476 92.344,312.642 92.841,312.148 93.091 C 311.654 93.340,311.212 93.594,311.167 93.656 C 311.121 93.718,310.840 93.868,310.542 93.988 C 310.244 94.109,310.000 94.263,310.000 94.332 C 310.000 94.543,310.705 96.078,310.844 96.168 C 310.915 96.215,311.135 96.665,311.333 97.168 C 311.531 97.672,311.871 98.421,312.088 98.833 C 312.549 99.709,314.228 103.246,314.698 104.330 C 314.875 104.741,315.073 105.116,315.137 105.163 C 315.201 105.211,315.404 105.625,315.589 106.083 C 316.057 107.243,317.533 107.082,320.615 105.537 C 320.964 105.361,322.217 104.738,323.398 104.151 C 324.579 103.564,325.854 102.840,326.231 102.543 C 326.608 102.246,326.994 102.003,327.088 102.002 C 327.182 102.001,327.505 101.775,327.806 101.500 C 328.108 101.225,328.413 101.000,328.485 101.000 C 329.479 101.000,333.612 95.521,334.107 93.547 C 334.160 93.338,334.256 93.167,334.321 93.167 C 334.565 93.167,335.667 88.747,335.667 87.767 C 335.667 87.544,335.735 87.336,335.819 87.306 C 336.258 87.146,336.333 82.095,336.333 52.991 L 336.333 23.000 322.861 23.000 C 315.451 23.000,309.339 23.050,309.278 23.111 " stroke="none" fill="#249cac" fill-rule="evenodd"></path><path id="path1" d="M286.833 69.833 L 286.833 78.000 295.000 78.000 L 303.167 78.000 303.167 69.833 L 303.167 61.667 295.000 61.667 L 286.833 61.667 286.833 69.833 " stroke="none" fill="#bcdc5c" fill-rule="evenodd"></path><path id="path2" d="M242.333 14.915 L 242.333 23.000 236.083 23.000 L 229.833 23.000 229.833 30.333 L 229.833 37.667 236.083 37.667 L 242.333 37.667 242.337 48.292 C 242.339 56.495,242.394 59.321,242.576 60.689 C 242.833 62.624,243.436 65.350,243.637 65.493 C 243.706 65.543,243.847 65.846,243.950 66.167 C 244.399 67.569,244.850 68.573,245.405 69.409 C 245.732 69.903,246.000 70.382,246.000 70.474 C 246.000 70.566,246.213 70.854,246.473 71.114 C 246.733 71.374,246.977 71.673,247.014 71.778 C 247.145 72.140,249.372 74.500,249.584 74.500 C 249.700 74.500,249.917 74.687,250.067 74.915 C 250.216 75.143,250.637 75.482,251.002 75.668 C 251.368 75.854,251.667 76.070,251.667 76.147 C 251.667 76.651,257.522 79.000,258.777 79.000 C 258.976 79.000,259.164 79.073,259.194 79.163 C 259.380 79.707,269.385 79.722,270.078 79.179 C 270.172 79.105,270.662 78.994,271.167 78.932 C 272.545 78.763,277.069 77.822,277.166 77.684 C 277.212 77.618,277.690 77.461,278.227 77.334 L 279.204 77.105 279.090 75.947 C 279.027 75.310,278.908 74.668,278.825 74.520 C 278.700 74.294,277.835 68.182,277.542 65.458 C 277.496 65.023,277.392 64.667,277.312 64.667 C 277.232 64.667,277.167 64.358,277.167 63.982 C 277.167 63.305,277.160 63.298,276.625 63.368 C 274.966 63.588,271.733 64.262,271.631 64.411 C 271.457 64.663,265.005 64.641,264.485 64.387 C 264.264 64.278,263.783 64.100,263.417 63.989 C 261.763 63.491,260.058 62.080,259.355 60.628 C 258.552 58.968,258.506 58.273,258.503 47.625 L 258.500 37.667 267.667 37.667 L 276.833 37.667 276.833 30.333 L 276.833 23.000 267.668 23.000 L 258.503 23.000 258.460 14.958 L 258.417 6.917 250.375 6.873 L 242.333 6.830 242.333 14.915 M34.173 21.528 C 33.306 21.610,32.556 21.736,32.506 21.807 C 32.457 21.879,31.967 22.033,31.417 22.151 C 30.235 22.403,28.153 23.096,28.014 23.284 C 27.961 23.357,27.407 23.679,26.785 24.000 C 26.162 24.321,25.493 24.752,25.298 24.958 C 25.102 25.165,24.866 25.333,24.773 25.333 C 24.681 25.333,24.431 25.496,24.219 25.696 L 23.833 26.058 23.833 24.529 L 23.833 23.000 11.917 23.000 L 0.000 23.000 0.000 30.333 L 0.000 37.667 3.833 37.667 L 7.667 37.667 7.667 50.500 L 7.667 63.333 3.833 63.333 L 0.000 63.333 0.000 70.667 L 0.000 78.000 15.750 78.000 L 31.500 78.000 31.500 70.667 L 31.500 63.333 27.667 63.333 L 23.833 63.333 23.833 52.609 C 23.833 42.097,23.840 41.879,24.167 41.583 C 24.350 41.417,24.500 41.219,24.500 41.142 C 24.500 41.024,25.425 40.102,27.279 38.375 C 27.501 38.169,27.718 38.000,27.761 38.000 C 27.805 38.000,28.120 37.820,28.462 37.600 C 28.804 37.380,29.365 37.103,29.708 36.983 C 30.052 36.864,30.333 36.717,30.333 36.656 C 30.333 36.556,31.469 36.297,32.744 36.106 C 33.599 35.979,36.509 36.330,37.228 36.647 C 37.607 36.815,38.356 37.130,38.894 37.348 C 40.451 37.979,42.271 39.840,43.257 41.812 C 44.662 44.619,44.833 46.161,44.833 56.018 L 44.833 63.333 41.417 63.333 L 38.000 63.333 38.000 70.668 L 38.000 78.002 53.375 77.959 L 68.750 77.917 68.793 70.625 L 68.837 63.333 64.934 63.333 L 61.030 63.333 60.952 53.958 C 60.903 48.137,60.799 44.087,60.679 43.273 C 60.463 41.810,60.471 41.786,61.579 40.583 C 61.916 40.217,62.308 39.748,62.449 39.542 C 62.590 39.335,62.780 39.167,62.871 39.167 C 62.962 39.167,63.385 38.882,63.810 38.534 C 64.815 37.712,65.247 37.451,66.208 37.088 C 66.644 36.923,67.000 36.737,67.000 36.675 C 67.000 36.461,69.150 36.133,70.548 36.133 C 72.023 36.133,74.500 36.465,74.500 36.663 C 74.500 36.727,74.819 36.880,75.208 37.003 C 75.917 37.227,77.342 37.962,77.501 38.186 C 77.548 38.252,77.876 38.536,78.231 38.818 C 79.569 39.882,81.079 42.681,81.430 44.750 C 81.493 45.117,81.627 45.522,81.730 45.650 C 81.861 45.814,81.932 48.494,81.969 54.609 L 82.021 63.333 78.594 63.333 L 75.167 63.333 75.167 70.667 L 75.167 78.000 90.583 78.000 L 106.000 78.000 106.000 70.667 L 106.000 63.333 102.095 63.333 L 98.190 63.333 98.137 53.244 C 98.099 46.109,98.029 43.120,97.899 43.036 C 97.798 42.970,97.664 42.464,97.603 41.910 C 97.465 40.665,96.565 36.979,96.366 36.847 C 96.286 36.794,96.177 36.600,96.124 36.417 C 95.866 35.522,95.302 34.221,94.940 33.683 C 94.718 33.353,94.332 32.710,94.083 32.253 C 93.834 31.796,93.488 31.323,93.315 31.202 C 93.142 31.080,93.000 30.875,93.000 30.745 C 93.000 30.616,92.081 29.594,90.958 28.476 C 88.439 25.968,88.213 25.765,87.557 25.437 C 87.268 25.293,86.923 25.066,86.790 24.933 C 86.501 24.644,84.291 23.500,84.022 23.500 C 83.918 23.500,83.833 23.428,83.833 23.341 C 83.833 23.146,81.648 22.442,80.167 22.159 C 79.571 22.045,79.000 21.887,78.897 21.808 C 78.239 21.295,69.303 21.320,68.356 21.836 C 68.206 21.918,67.446 22.104,66.667 22.250 C 65.077 22.548,63.000 23.155,63.000 23.323 C 63.000 23.384,62.719 23.532,62.375 23.654 C 61.385 24.004,60.000 24.707,60.000 24.860 C 60.000 24.937,59.926 25.000,59.837 25.000 C 59.606 25.000,57.943 26.081,57.402 26.582 C 57.154 26.812,56.885 27.000,56.804 27.000 C 56.724 27.000,56.416 27.222,56.120 27.492 C 54.396 29.073,54.553 29.064,53.159 27.673 C 52.039 26.554,51.230 25.833,51.096 25.833 C 51.031 25.833,50.732 25.646,50.431 25.417 C 50.131 25.188,49.799 25.000,49.693 25.000 C 49.587 25.000,49.500 24.922,49.500 24.827 C 49.500 24.298,43.560 22.000,42.193 22.000 C 42.010 22.000,41.836 21.929,41.806 21.843 C 41.669 21.456,36.974 21.263,34.173 21.528 M134.833 22.175 C 132.437 22.349,128.727 23.025,128.500 23.329 C 128.454 23.391,128.042 23.544,127.583 23.668 C 126.608 23.934,124.787 24.651,124.667 24.817 C 124.621 24.880,124.002 25.216,123.292 25.564 C 122.581 25.911,122.000 26.250,122.000 26.317 C 122.000 26.384,121.681 26.617,121.292 26.834 C 119.802 27.667,115.669 31.540,115.414 32.342 C 115.357 32.521,115.242 32.667,115.158 32.667 C 115.074 32.667,114.802 32.985,114.553 33.375 C 114.305 33.765,113.975 34.233,113.820 34.417 C 113.665 34.600,113.292 35.237,112.992 35.833 C 112.691 36.429,112.360 37.029,112.256 37.167 C 112.050 37.440,111.481 38.863,111.157 39.917 C 111.044 40.283,110.898 40.621,110.832 40.667 C 110.670 40.779,110.241 42.552,109.884 44.583 C 109.468 46.948,109.470 54.186,109.887 56.583 C 110.239 58.609,110.668 60.387,110.833 60.500 C 110.900 60.546,111.070 60.958,111.211 61.417 C 111.589 62.641,112.141 64.045,112.288 64.155 C 112.359 64.207,112.712 64.831,113.073 65.542 C 113.434 66.252,113.789 66.833,113.861 66.833 C 113.934 66.833,114.138 67.115,114.315 67.458 C 114.493 67.802,114.775 68.233,114.944 68.417 C 115.112 68.600,115.474 69.050,115.748 69.417 C 116.526 70.458,119.451 73.261,120.484 73.954 C 120.997 74.299,121.596 74.750,121.814 74.957 C 122.033 75.164,122.270 75.333,122.341 75.333 C 122.413 75.333,122.995 75.636,123.636 76.005 C 124.277 76.375,125.277 76.864,125.859 77.093 C 126.441 77.322,127.106 77.614,127.338 77.742 C 127.863 78.033,130.770 78.774,132.000 78.932 C 132.504 78.996,132.957 79.111,133.007 79.187 C 133.363 79.728,144.120 79.705,144.306 79.162 C 144.336 79.073,144.508 79.000,144.688 79.000 C 145.556 79.000,149.231 78.080,149.946 77.683 C 150.113 77.590,150.883 77.248,151.658 76.922 C 152.432 76.597,153.107 76.274,153.158 76.206 C 153.208 76.137,153.662 75.865,154.167 75.602 C 154.671 75.338,155.159 75.031,155.251 74.918 C 155.344 74.805,155.814 74.471,156.296 74.174 C 156.778 73.877,157.248 73.492,157.342 73.317 C 157.435 73.143,157.606 73.000,157.720 73.000 C 157.835 73.000,158.489 72.411,159.173 71.691 C 161.113 69.649,161.496 69.198,161.667 68.750 C 161.754 68.521,161.898 68.333,161.988 68.333 C 162.077 68.333,162.436 67.752,162.784 67.042 C 163.132 66.331,163.462 65.712,163.517 65.667 C 163.706 65.509,163.961 64.913,164.396 63.606 C 165.123 61.427,166.109 61.667,156.417 61.667 C 150.985 61.667,148.000 61.725,148.000 61.831 C 148.000 62.091,146.005 64.000,145.733 64.000 C 145.599 64.000,145.449 64.106,145.399 64.235 C 145.056 65.131,140.138 65.880,136.968 65.518 C 134.873 65.279,132.333 64.635,132.333 64.343 C 132.333 64.270,131.967 64.059,131.518 63.872 C 129.530 63.046,126.514 59.231,126.052 56.958 L 125.958 56.500 145.638 56.500 L 165.318 56.500 165.443 55.875 C 165.856 53.808,165.464 42.667,164.979 42.667 C 164.899 42.667,164.833 42.535,164.832 42.375 C 164.829 41.786,163.977 38.725,163.591 37.917 C 163.372 37.458,162.951 36.540,162.655 35.875 C 162.359 35.210,162.060 34.667,161.990 34.667 C 161.920 34.667,161.700 34.329,161.500 33.917 C 161.300 33.504,160.919 32.961,160.652 32.709 C 160.385 32.457,160.167 32.162,160.167 32.052 C 160.167 31.594,155.829 27.478,154.625 26.794 C 154.281 26.598,154.000 26.378,154.000 26.304 C 154.000 26.229,153.419 25.891,152.708 25.553 C 151.998 25.214,151.375 24.876,151.324 24.802 C 151.217 24.647,149.488 23.950,148.754 23.766 C 148.483 23.698,147.958 23.504,147.586 23.335 C 145.489 22.379,139.512 21.836,134.833 22.175 M195.987 22.175 C 193.830 22.343,189.947 23.077,189.861 23.333 C 189.831 23.425,189.704 23.500,189.579 23.500 C 189.207 23.500,186.270 24.517,186.000 24.739 C 185.862 24.852,185.262 25.191,184.667 25.492 C 184.071 25.792,183.433 26.175,183.250 26.341 C 183.067 26.508,182.702 26.755,182.440 26.891 C 181.044 27.614,176.297 32.347,175.577 33.734 C 175.439 34.001,175.223 34.301,175.097 34.401 C 174.971 34.501,174.591 35.108,174.253 35.750 C 173.914 36.392,173.536 37.104,173.411 37.333 C 173.286 37.563,173.021 38.200,172.821 38.750 C 172.622 39.300,172.322 40.050,172.155 40.417 C 171.717 41.379,171.000 45.100,170.883 47.020 C 170.828 47.925,170.719 48.667,170.641 48.667 C 170.564 48.667,170.500 49.529,170.500 50.583 C 170.500 51.637,170.564 52.500,170.641 52.500 C 170.719 52.500,170.828 53.241,170.883 54.147 C 171.002 56.092,171.721 59.804,172.163 60.750 C 172.335 61.117,172.681 62.005,172.932 62.725 C 173.184 63.444,173.471 64.119,173.570 64.225 C 173.669 64.330,174.008 64.925,174.324 65.545 C 174.640 66.166,175.034 66.796,175.199 66.946 C 175.365 67.096,175.500 67.305,175.500 67.410 C 175.500 67.515,175.762 67.888,176.083 68.238 C 176.404 68.589,176.667 68.912,176.667 68.957 C 176.667 69.453,181.405 74.000,182.276 74.339 C 182.473 74.417,182.773 74.627,182.942 74.807 C 183.112 74.987,183.588 75.320,184.000 75.546 C 184.412 75.773,185.162 76.183,185.667 76.457 C 186.171 76.732,186.996 77.097,187.500 77.269 C 188.004 77.440,188.454 77.629,188.500 77.688 C 188.699 77.945,192.971 79.000,193.812 79.000 C 193.992 79.000,194.164 79.072,194.194 79.159 C 194.382 79.697,205.115 79.729,205.495 79.193 C 205.544 79.125,206.183 78.970,206.917 78.850 C 208.392 78.608,211.028 77.885,211.163 77.685 C 211.211 77.614,211.847 77.340,212.577 77.076 C 213.307 76.812,214.023 76.481,214.168 76.340 C 214.314 76.199,214.865 75.869,215.393 75.607 C 215.921 75.345,216.481 74.994,216.638 74.826 C 216.794 74.658,217.124 74.416,217.370 74.288 C 218.717 73.589,222.359 69.948,222.945 68.715 C 223.088 68.413,223.275 68.167,223.361 68.167 C 223.446 68.167,223.791 67.585,224.127 66.875 C 224.462 66.165,224.832 65.486,224.949 65.366 C 225.134 65.177,226.167 62.151,226.167 61.798 C 226.167 61.726,222.413 61.667,217.825 61.667 L 209.482 61.667 208.548 62.676 C 208.034 63.232,207.385 63.804,207.106 63.948 C 206.828 64.092,206.499 64.311,206.376 64.434 C 205.678 65.132,201.938 65.763,199.417 65.608 C 197.015 65.461,193.799 64.782,193.506 64.360 C 193.457 64.288,193.050 64.028,192.602 63.781 C 192.153 63.533,191.321 62.938,190.752 62.457 C 189.801 61.654,189.565 61.373,188.829 60.167 C 188.689 59.938,188.449 59.563,188.296 59.333 C 188.055 58.975,187.167 56.807,187.167 56.580 C 187.167 56.536,196.043 56.500,206.893 56.500 L 226.618 56.500 226.725 55.375 C 227.033 52.108,226.728 43.000,226.310 43.000 C 226.231 43.000,226.167 42.861,226.167 42.691 C 226.167 42.136,225.304 38.933,224.971 38.250 C 224.792 37.883,224.465 37.144,224.244 36.607 C 224.023 36.071,223.578 35.233,223.255 34.746 C 222.931 34.259,222.667 33.797,222.667 33.719 C 222.667 33.483,220.836 31.255,219.417 29.762 C 218.573 28.875,216.467 27.081,215.965 26.822 C 215.755 26.714,215.433 26.493,215.250 26.332 C 215.067 26.170,214.429 25.792,213.833 25.492 C 213.237 25.191,212.637 24.855,212.500 24.745 C 212.362 24.635,211.537 24.297,210.667 23.994 C 209.796 23.691,209.008 23.390,208.917 23.325 C 207.768 22.513,200.251 21.844,195.987 22.175 M141.083 34.740 C 141.817 34.871,142.792 35.161,143.250 35.382 C 143.708 35.604,144.383 35.926,144.750 36.097 C 145.554 36.472,147.838 38.698,148.246 39.505 C 148.407 39.823,148.673 40.233,148.837 40.417 C 149.154 40.772,150.167 43.634,150.167 44.176 C 150.167 44.494,149.938 44.500,138.083 44.500 C 128.080 44.500,126.000 44.461,126.000 44.276 C 126.000 43.758,126.714 42.041,127.414 40.876 C 127.828 40.188,128.167 39.562,128.167 39.485 C 128.167 39.408,128.318 39.264,128.502 39.165 C 128.687 39.067,129.027 38.686,129.259 38.320 C 129.490 37.953,129.845 37.587,130.048 37.506 C 130.251 37.426,130.605 37.180,130.835 36.960 C 131.383 36.437,132.582 35.756,133.417 35.494 C 133.783 35.379,134.124 35.223,134.174 35.147 C 134.519 34.620,138.958 34.358,141.083 34.740 M202.522 34.764 C 203.288 34.909,203.952 35.082,203.999 35.148 C 204.045 35.213,204.458 35.406,204.917 35.575 C 206.539 36.174,208.802 38.169,209.589 39.693 C 209.809 40.120,210.067 40.495,210.161 40.526 C 210.333 40.583,211.188 42.937,211.409 43.958 L 211.526 44.500 199.335 44.500 L 187.144 44.500 187.253 44.125 C 188.428 40.074,192.690 35.333,195.156 35.333 C 195.253 35.333,195.333 35.270,195.333 35.193 C 195.333 35.116,195.877 34.960,196.542 34.845 C 197.206 34.730,197.862 34.614,198.000 34.587 C 198.773 34.437,201.320 34.536,202.522 34.764 " stroke="none" fill="#2c1c34" fill-rule="evenodd"></path><path id="path3" d="" stroke="none" fill="#784c70" fill-rule="evenodd"></path><path id="path4" d="" stroke="none" fill="#284c74" fill-rule="evenodd"></path></g></svg>