<?xml version="1.0" encoding="utf-8"?>
<!-- Generator: Adobe Illustrator 15.0.2, SVG Export Plug-In . SVG Version: 6.00 Build 0)  -->
<!DOCTYPE svg PUBLIC "-//W3C//DTD SVG 1.1//EN" "http://www.w3.org/Graphics/SVG/1.1/DTD/svg11.dtd">
<svg version="1.1" id="Layer_1" xmlns="http://www.w3.org/2000/svg" xmlns:xlink="http://www.w3.org/1999/xlink" x="0px" y="0px"
	 width="510.236px" height="368.504px" viewBox="0 0 510.236 368.504" enable-background="new 0 0 510.236 368.504"
	 xml:space="preserve">
<g>
	<g>
		<path d="M110.111,157.434h14.743c3.756,0,6.714,1.033,8.592,2.911c1.456,1.456,2.207,3.287,2.207,5.446v0.094
			c0,3.944-2.253,6.056-4.695,7.325c3.85,1.314,6.526,3.521,6.526,7.981v0.094c0,5.869-4.836,9.015-12.16,9.015h-15.212V157.434z
			 M129.877,166.73c0-2.583-2.066-4.179-5.775-4.179h-8.311v8.732h7.888c3.709,0,6.198-1.455,6.198-4.46V166.73z M124.947,176.167
			h-9.155v9.015h9.578c3.897,0,6.338-1.549,6.338-4.507v-0.094C131.708,177.811,129.502,176.167,124.947,176.167z"/>
		<path d="M143.494,176.355v-18.921h5.775v18.686c0,6.104,3.146,9.344,8.31,9.344c5.118,0,8.264-3.052,8.264-9.108v-18.921h5.775
			v18.639c0,9.813-5.54,14.743-14.132,14.743C148.94,190.816,143.494,185.887,143.494,176.355z"/>
		<path d="M179.553,157.434h5.775v27.607h17.278v5.259h-23.053V157.434z"/>
		<path d="M208.57,157.434h5.775v27.607h17.278v5.259H208.57V157.434z"/>
		<path d="M237.586,157.434h12.254c10.331,0,17.465,7.089,17.465,16.339v0.094c0,9.249-7.135,16.433-17.465,16.433h-12.254V157.434z
			 M243.362,162.692v22.349h6.479c6.903,0,11.409-4.647,11.409-11.08v-0.094c0-6.433-4.506-11.175-11.409-11.175H243.362z"/>
		<path d="M272.849,173.961v-0.094c0-9.25,7.135-16.997,17.23-16.997c10.094,0,17.137,7.653,17.137,16.903v0.094
			c0,9.249-7.137,16.996-17.23,16.996C279.89,190.863,272.849,183.21,272.849,173.961z M301.159,173.961v-0.094
			c0-6.386-4.648-11.644-11.174-11.644c-6.527,0-11.08,5.165-11.08,11.55v0.094c0,6.385,4.646,11.644,11.174,11.644
			C296.604,185.511,301.159,180.346,301.159,173.961z"/>
		<path d="M312.759,173.961v-0.094c0-9.203,7.041-16.997,16.949-16.997c5.727,0,9.248,1.596,12.629,4.46l-3.662,4.366
			c-2.535-2.113-5.023-3.474-9.203-3.474c-6.057,0-10.656,5.258-10.656,11.55v0.094c0,6.761,4.459,11.737,11.174,11.737
			c3.098,0,5.916-0.985,7.934-2.488v-6.104h-8.404v-5.071h13.992v13.804c-3.24,2.771-7.887,5.118-13.709,5.118
			C319.519,190.863,312.759,183.539,312.759,173.961z"/>
		<path d="M347.784,185.464l3.803-3.944c1.926,2.489,3.85,3.897,6.621,3.897c3.098,0,5.211-2.066,5.211-6.479v-21.503h5.963v21.691
			c0,3.897-1.174,6.809-3.1,8.733c-1.924,1.925-4.693,2.911-7.98,2.911C353.231,190.77,349.944,188.422,347.784,185.464z"/>
		<path d="M375.862,173.961v-0.094c0-9.25,7.137-16.997,17.23-16.997c10.096,0,17.139,7.653,17.139,16.903v0.094
			c0,9.249-7.137,16.996-17.232,16.996C382.905,190.863,375.862,183.21,375.862,173.961z M404.175,173.961v-0.094
			c0-6.386-4.648-11.644-11.176-11.644c-6.525,0-11.08,5.165-11.08,11.55v0.094c0,6.385,4.648,11.644,11.174,11.644
			C399.62,185.511,404.175,180.346,404.175,173.961z"/>
		<path d="M417.228,157.434h14.742c3.756,0,6.715,1.033,8.592,2.911c1.455,1.456,2.207,3.287,2.207,5.446v0.094
			c0,3.944-2.254,6.056-4.695,7.325c3.85,1.314,6.527,3.521,6.527,7.981v0.094c0,5.869-4.836,9.015-12.162,9.015h-15.211V157.434z
			 M436.993,166.73c0-2.583-2.066-4.179-5.775-4.179h-8.311v8.732h7.889c3.709,0,6.197-1.455,6.197-4.46V166.73z M432.063,176.167
			h-9.156v9.015h9.578c3.898,0,6.34-1.549,6.34-4.507v-0.094C438.825,177.811,436.618,176.167,432.063,176.167z"/>
	</g>
	<g>
		<path fill-rule="evenodd" clip-rule="evenodd" d="M78.857,196.416l0.325-0.899h-0.649l2.266-10.227
			c-1.305,0.282-1.508,0.904-2.266,0.904h-3.88c-1.393,0-1.755-0.354-2.912-0.603c-0.036,1.502-0.356,1.498-0.758,2.604
			c-0.418,1.154-0.092,2.105-0.247,3.378c-0.592,4.846,1.005,4.632,1.005,5.743v1.204h-5.5v-1.204c0-2.822-0.971-3.595-0.971-5.712
			v-0.301c0-1.379,0.971-1.706,0.971-3.607v-1.204c0-2.022-2.824-4.554-4.206-5.411c-2.016,1.253-5.327,4.994-6.092,7.266
			c-0.532,1.573-2.639,9.273-3.935,9.273h-2.912v-0.904c0-0.822,2.287-4.005,2.954-5.675c1.671-4.189,0.929-2.042,0.929-6.953
			v-1.504c0-3.832,4.349-11.406,6.695-13.022c1.416-0.974,5.253-2.677,7.236-2.897c1.55-0.168,3.631,0.153,5.136-0.035
			c1.43-0.179,1.936-1.035,3.9-1.188c0.309-1.234,1.941-3.441,1.941-4.209c0-0.946-1.206-1.333-1.633-2.093
			c-0.545-0.96-0.184-1.923-0.389-3.248c-0.22-1.442-0.653-5.484,1.373-5.484c2.373,0,4.343,3.63,4.858,5.491l6.143-0.383
			c0.04-1.729,1.598-5.711,3.559-5.711c2.989,0,1.618,6.131,1.618,9.02l-0.482-0.033l-0.164,4.843
			c-0.242,2.986-1.334,3.256-2.95,4.78c-1.543,1.454-0.608,3.904-0.608,6.349v3.308c0,1.168-1.22,2.843-1.813,3.728
			c-1.105,1.654-0.646,2.433-1.317,4.188c-0.926,2.411-3.663,4.554-3.663,7.72v0.905c0,2.32,1.557,1.147,1.616,3.609h-4.205
			C78.66,198.224,78.857,197.464,78.857,196.416L78.857,196.416z"/>
		<polygon fill-rule="evenodd" clip-rule="evenodd" points="78.857,196.416 78.533,195.517 79.182,195.517 78.857,196.416 		"/>
	</g>
</g>
<g>
	<path d="M116.408,204.318h-5.868v-1.154h12.986v1.154h-5.868v15.679h-1.25V204.318z"/>
	<path d="M127.202,203.164h1.25v7.791h10.773v-7.791h1.25v16.833h-1.25v-7.888h-10.773v7.888h-1.25V203.164z"/>
	<path d="M145.474,203.164h11.976v1.154h-10.726v6.612h9.643v1.154h-9.643v6.758h10.846v1.154h-12.096V203.164z"/>
	<path d="M167.713,217.544l0.817-0.938c1.852,1.707,3.559,2.501,6.036,2.501c2.525,0,4.256-1.419,4.256-3.343v-0.048
		c0-1.779-0.938-2.813-4.761-3.583c-4.04-0.818-5.675-2.188-5.675-4.737v-0.049c0-2.501,2.285-4.425,5.411-4.425
		c2.453,0,4.064,0.674,5.771,2.044l-0.793,0.986c-1.587-1.371-3.174-1.899-5.026-1.899c-2.477,0-4.112,1.419-4.112,3.174v0.048
		c0,1.78,0.914,2.862,4.906,3.68c3.896,0.794,5.531,2.188,5.531,4.642v0.048c0,2.717-2.333,4.593-5.579,4.593
		C171.801,220.237,169.733,219.348,167.713,217.544z"/>
	<path d="M184.182,203.164h6.108c3.704,0,6.253,1.899,6.253,5.146v0.048c0,3.535-3.054,5.363-6.565,5.363h-4.545v6.276h-1.25
		V203.164z M190.05,212.566c3.126,0,5.242-1.636,5.242-4.137v-0.048c0-2.669-2.068-4.063-5.098-4.063h-4.762v8.248H190.05z"/>
	<path d="M204.956,203.043h1.203l7.839,16.954h-1.371l-2.14-4.714h-9.932l-2.141,4.714h-1.298L204.956,203.043z M209.958,214.153
		l-4.425-9.739l-4.449,9.739H209.958z"/>
	<path d="M215.846,211.629v-0.049c0-4.762,3.559-8.705,8.417-8.705c3.006,0,4.81,1.106,6.541,2.693l-0.89,0.914
		c-1.467-1.419-3.15-2.478-5.676-2.478c-4.04,0-7.094,3.295-7.094,7.527v0.048c0,4.257,3.102,7.575,7.118,7.575
		c2.429,0,4.088-0.938,5.795-2.621l0.842,0.817c-1.78,1.756-3.704,2.934-6.686,2.934
		C219.405,220.285,215.846,216.462,215.846,211.629z"/>
	<path d="M234.455,203.164h11.976v1.154h-10.726v6.612h9.643v1.154h-9.643v6.758h10.846v1.154h-12.096V203.164z"/>
	<path d="M257.775,203.164h11.855v1.154h-10.604v6.901h9.522v1.154h-9.522v7.623h-1.251V203.164z"/>
	<path d="M272.321,211.629v-0.049c0-4.593,3.391-8.705,8.488-8.705c5.099,0,8.441,4.064,8.441,8.657v0.048
		c0,4.594-3.391,8.705-8.489,8.705S272.321,216.222,272.321,211.629z M287.952,211.629v-0.049c0-4.16-3.03-7.575-7.19-7.575
		s-7.143,3.367-7.143,7.527v0.048c0,4.16,3.03,7.575,7.19,7.575S287.952,215.789,287.952,211.629z"/>
	<path d="M293.502,203.164h7.07c2.067,0,3.728,0.648,4.737,1.659c0.793,0.793,1.274,1.924,1.274,3.126v0.048
		c0,2.813-2.092,4.425-4.93,4.81l5.555,7.19h-1.587l-5.362-6.974h-5.507v6.974h-1.251V203.164z M300.428,211.893
		c2.813,0,4.905-1.418,4.905-3.848v-0.048c0-2.261-1.779-3.679-4.833-3.679h-5.747v7.574H300.428z"/>
	<path d="M317.929,203.164h2.957v16.833h-2.957V203.164z"/>
	<path d="M329.493,205.905h-5.362v-2.741h13.683v2.741h-5.362v14.092h-2.958V205.905z"/>
	<path d="M348.438,203.164h6.108c3.703,0,6.252,1.899,6.252,5.146v0.048c0,3.535-3.054,5.363-6.564,5.363h-4.545v6.276h-1.251
		V203.164z M354.306,212.566c3.126,0,5.242-1.636,5.242-4.137v-0.048c0-2.669-2.068-4.063-5.099-4.063h-4.761v8.248H354.306z"/>
	<path d="M364.498,203.164h11.976v1.154h-10.725v6.612h9.643v1.154h-9.643v6.758h10.845v1.154h-12.096V203.164z"/>
	<path d="M379.861,211.629v-0.049c0-4.593,3.391-8.705,8.488-8.705c5.099,0,8.441,4.064,8.441,8.657v0.048
		c0,4.594-3.392,8.705-8.489,8.705S379.861,216.222,379.861,211.629z M395.492,211.629v-0.049c0-4.16-3.03-7.575-7.19-7.575
		s-7.143,3.367-7.143,7.527v0.048c0,4.16,3.03,7.575,7.19,7.575S395.492,215.789,395.492,211.629z"/>
	<path d="M401.042,203.164h6.108c3.703,0,6.252,1.899,6.252,5.146v0.048c0,3.535-3.054,5.363-6.564,5.363h-4.546v6.276h-1.25
		V203.164z M406.909,212.566c3.127,0,5.243-1.636,5.243-4.137v-0.048c0-2.669-2.068-4.063-5.099-4.063h-4.762v8.248H406.909z"/>
	<path d="M417.103,203.164h1.25v15.679h9.884v1.154h-11.134V203.164z"/>
	<path d="M431.864,203.164h11.976v1.154h-10.726v6.612h9.644v1.154h-9.644v6.758h10.846v1.154h-12.096V203.164z"/>
</g>
</svg>
