<svg id="svg" version="1.1" xmlns="http://www.w3.org/2000/svg" xmlns:xlink="http://www.w3.org/1999/xlink" width="400" height="57.85714285714286" viewBox="0, 0, 400,57.85714285714286"><g id="svgg"><path id="path0" d="M29.000 0.222 C 29.000 0.344,28.832 0.437,28.625 0.430 C 28.340 0.420,28.253 0.506,28.263 0.792 C 28.271 1.007,28.178 1.167,28.045 1.167 C 27.918 1.167,27.859 1.241,27.915 1.331 C 27.975 1.428,27.904 1.453,27.746 1.392 C 27.501 1.298,27.479 1.518,27.520 3.577 C 27.564 5.817,27.574 5.870,27.963 6.018 C 28.182 6.101,28.329 6.262,28.291 6.376 C 28.252 6.490,28.442 6.677,28.712 6.791 C 29.014 6.919,29.169 7.087,29.115 7.227 C 28.948 7.664,33.572 7.608,33.880 7.168 C 34.109 6.841,40.686 6.702,49.958 6.828 L 50.333 6.833 50.333 28.917 C 50.333 48.433,50.304 51.001,50.083 51.004 C 49.946 51.007,46.533 51.009,42.500 51.009 C 38.467 51.009,35.054 51.007,34.917 51.004 C 34.714 51.001,34.667 50.729,34.667 49.583 L 34.667 48.167 40.042 48.147 C 42.998 48.136,45.505 48.138,45.612 48.151 C 45.720 48.165,45.856 48.099,45.914 48.004 C 45.972 47.910,45.926 47.833,45.811 47.833 C 45.697 47.833,45.748 47.727,45.925 47.598 C 46.102 47.469,46.312 47.403,46.392 47.453 C 46.472 47.502,46.603 47.439,46.683 47.313 C 46.893 46.981,46.862 46.703,46.648 47.000 C 46.507 47.196,46.499 47.178,46.609 46.917 C 46.845 46.357,46.867 11.050,46.632 10.673 C 46.485 10.437,46.312 10.379,45.967 10.448 C 45.443 10.553,44.974 10.261,45.108 9.913 C 45.181 9.722,44.312 9.682,39.848 9.671 C 35.929 9.662,34.500 9.710,34.500 9.850 C 34.500 9.991,34.438 9.989,34.263 9.844 C 34.071 9.684,34.015 9.720,33.971 10.032 C 33.941 10.244,33.823 10.426,33.708 10.438 C 33.594 10.449,33.440 10.468,33.366 10.479 C 33.293 10.491,33.225 10.772,33.216 11.105 C 33.199 11.684,32.915 12.070,32.633 11.896 C 32.560 11.851,32.502 16.712,32.504 22.699 C 32.506 28.685,32.506 33.677,32.504 33.792 C 32.501 33.937,32.171 34.000,31.418 34.000 L 30.337 34.000 30.293 26.875 C 30.259 21.216,30.206 19.759,30.038 19.793 C 29.921 19.816,29.755 19.648,29.667 19.418 C 29.568 19.156,29.378 19.000,29.161 19.000 C 28.970 19.000,28.849 18.943,28.892 18.873 C 29.231 18.325,28.620 18.250,23.823 18.250 L 19.062 18.250 19.134 18.625 C 19.197 18.957,19.137 19.000,18.617 19.000 C 18.293 19.000,17.990 19.094,17.944 19.208 C 17.876 19.375,17.857 19.375,17.846 19.208 C 17.816 18.731,17.565 19.048,17.527 19.611 C 17.479 20.321,17.374 20.545,17.151 20.407 C 17.063 20.353,17.006 20.370,17.022 20.446 C 17.039 20.522,17.001 20.701,16.937 20.844 C 16.874 20.987,16.843 25.919,16.869 31.802 L 16.917 42.500 15.375 42.500 L 13.833 42.500 13.833 28.917 L 13.833 15.333 18.958 15.314 C 21.777 15.303,24.171 15.305,24.279 15.318 C 24.387 15.331,24.523 15.190,24.582 15.004 C 24.641 14.819,24.798 14.667,24.932 14.667 C 25.066 14.667,25.242 14.489,25.325 14.273 C 25.407 14.056,25.593 13.833,25.737 13.778 C 26.163 13.615,26.134 2.526,25.708 2.560 C 25.524 2.575,25.397 2.446,25.363 2.208 C 25.329 1.967,25.195 1.833,24.988 1.833 C 24.782 1.833,24.667 1.718,24.667 1.511 C 24.667 1.002,24.675 1.003,12.667 1.044 L 1.250 1.083 1.090 1.448 C 1.002 1.649,0.796 1.848,0.632 1.891 C 0.468 1.934,0.333 2.088,0.333 2.234 C 0.333 2.380,0.258 2.500,0.167 2.500 C 0.056 2.500,0.000 11.389,0.000 28.833 C 0.000 52.130,0.029 55.167,0.250 55.167 C 0.388 55.167,0.500 55.314,0.500 55.497 C 0.500 55.710,0.648 55.864,0.917 55.932 C 1.244 56.014,1.318 56.120,1.262 56.430 L 1.191 56.823 10.720 56.827 C 20.068 56.832,20.254 56.838,20.479 57.166 C 20.604 57.350,20.811 57.500,20.937 57.500 C 21.063 57.500,21.167 57.575,21.167 57.667 C 21.167 57.770,22.083 57.833,23.583 57.833 C 24.912 57.833,26.000 57.766,26.000 57.685 C 26.000 57.603,26.188 57.489,26.417 57.432 C 26.646 57.374,26.833 57.225,26.833 57.100 C 26.833 56.975,26.979 56.834,27.156 56.788 C 27.402 56.724,27.492 56.530,27.531 55.977 C 27.568 55.465,27.657 55.250,27.833 55.250 C 28.017 55.250,28.097 55.019,28.134 54.375 C 28.179 53.587,28.150 53.500,27.842 53.500 C 27.476 53.500,27.452 53.426,27.497 52.458 C 27.521 51.934,27.472 51.833,27.191 51.833 C 26.971 51.833,26.838 51.705,26.803 51.458 C 26.774 51.252,26.656 51.074,26.542 51.063 C 26.427 51.051,26.258 51.032,26.167 51.021 C 26.075 51.009,26.000 50.845,26.000 50.656 C 26.000 50.322,25.927 50.313,23.583 50.352 C 22.254 50.374,21.167 50.459,21.167 50.539 C 21.167 50.620,21.247 50.637,21.346 50.576 C 21.460 50.505,21.455 50.577,21.332 50.774 C 21.148 51.069,20.785 51.081,13.528 51.041 C 9.342 51.017,5.785 50.998,5.625 50.999 C 5.349 51.000,5.333 49.836,5.333 28.875 L 5.333 6.750 12.625 6.786 C 21.390 6.829,20.419 6.644,20.405 8.265 L 20.394 9.583 15.030 9.627 C 9.918 9.669,9.667 9.686,9.667 9.983 C 9.667 10.154,9.517 10.334,9.333 10.382 C 9.150 10.430,9.000 10.608,9.000 10.778 C 9.000 10.948,8.836 11.162,8.636 11.252 C 8.435 11.343,8.238 11.521,8.197 11.648 C 8.148 11.802,8.195 11.835,8.337 11.747 C 8.469 11.666,8.510 11.682,8.444 11.789 C 8.284 12.047,8.227 46.500,8.387 46.500 C 8.624 46.500,9.000 46.964,9.000 47.256 C 9.000 47.443,9.088 47.502,9.265 47.434 C 9.443 47.366,9.560 47.443,9.619 47.668 C 9.749 48.165,9.958 48.181,15.666 48.130 C 20.790 48.084,20.916 48.075,20.916 47.750 C 20.917 47.504,21.026 47.418,21.333 47.421 C 21.599 47.424,21.780 47.315,21.833 47.120 C 21.879 46.951,21.983 46.824,22.065 46.838 C 22.450 46.900,22.495 45.687,22.497 35.231 L 22.500 24.045 23.219 23.947 C 23.614 23.893,24.102 23.891,24.302 23.944 L 24.667 24.039 24.667 30.506 C 24.667 37.087,24.692 37.500,25.101 37.500 C 25.295 37.500,25.420 38.060,25.365 38.674 C 25.360 38.723,25.519 38.776,25.717 38.791 C 25.916 38.806,26.105 38.898,26.137 38.996 C 26.349 39.632,26.524 39.651,31.712 39.617 C 36.527 39.585,36.750 39.569,36.751 39.269 C 36.751 39.095,36.920 38.892,37.126 38.816 C 37.332 38.740,37.500 38.571,37.500 38.441 C 37.500 38.312,37.650 38.166,37.833 38.118 C 38.163 38.032,38.167 37.891,38.167 26.682 L 38.167 15.333 40.000 15.333 L 41.833 15.333 41.833 28.917 L 41.833 42.500 36.663 42.500 L 31.492 42.500 31.326 42.936 C 31.194 43.282,31.076 43.355,30.747 43.292 C 30.519 43.248,30.333 43.277,30.333 43.356 C 30.333 43.435,30.202 43.499,30.042 43.497 C 29.790 43.495,29.784 43.471,30.000 43.318 C 30.214 43.167,30.215 43.151,30.004 43.208 C 29.866 43.246,29.748 43.492,29.734 43.773 C 29.700 44.453,29.512 45.000,29.312 45.000 C 29.221 45.000,29.201 44.913,29.266 44.808 C 29.335 44.695,29.312 44.660,29.210 44.724 C 28.961 44.877,28.922 53.876,29.168 54.335 C 29.268 54.523,29.421 54.632,29.508 54.578 C 29.599 54.522,29.667 54.799,29.667 55.229 C 29.667 55.878,29.716 55.984,30.042 56.030 C 30.301 56.067,30.400 56.178,30.364 56.392 C 30.332 56.577,30.382 56.656,30.489 56.590 C 30.587 56.530,30.667 56.558,30.667 56.652 C 30.667 56.769,34.501 56.824,42.581 56.825 L 54.496 56.825 54.599 56.412 C 54.664 56.155,54.822 56.000,55.018 56.000 C 55.275 56.000,55.333 55.876,55.333 55.333 C 55.333 54.841,55.401 54.667,55.593 54.667 C 55.736 54.667,55.807 54.592,55.750 54.500 C 55.693 54.408,55.726 54.333,55.823 54.333 C 56.014 54.333,56.089 3.926,55.899 3.430 C 55.843 3.285,55.693 3.167,55.566 3.167 C 55.406 3.167,55.333 2.959,55.333 2.500 C 55.333 1.944,55.278 1.833,55.000 1.833 C 54.695 1.833,54.584 1.653,54.654 1.270 C 54.669 1.190,54.528 1.164,54.340 1.213 C 54.153 1.262,54.000 1.234,54.000 1.151 C 54.000 1.061,50.057 1.016,44.333 1.041 L 34.667 1.083 34.667 0.708 C 34.667 0.444,34.568 0.333,34.333 0.333 C 34.150 0.333,34.000 0.258,34.000 0.167 C 34.000 0.063,33.056 0.000,31.500 0.000 C 29.531 0.000,29.000 0.047,29.000 0.222 " stroke="none" fill="#248cd4" fill-rule="evenodd"></path><path id="path1" d="M30.500 7.732 C 30.500 8.115,31.428 8.312,32.070 8.066 C 32.704 7.822,32.333 7.500,31.417 7.500 C 30.744 7.500,30.500 7.562,30.500 7.732 M45.333 9.994 C 45.333 10.222,45.443 10.333,45.667 10.333 C 45.850 10.333,46.000 10.261,46.000 10.173 C 46.000 10.084,45.850 9.931,45.667 9.833 C 45.384 9.682,45.333 9.707,45.333 9.994 M110.382 10.000 C 110.313 10.261,110.154 10.333,109.647 10.333 C 109.069 10.333,109.000 10.377,109.000 10.748 C 109.000 11.079,108.924 11.155,108.626 11.123 C 108.349 11.094,108.237 11.182,108.197 11.458 C 108.163 11.699,108.028 11.833,107.822 11.833 C 107.554 11.833,107.500 11.953,107.500 12.543 C 107.500 13.073,107.415 13.306,107.167 13.461 C 106.885 13.637,106.833 13.850,106.833 14.835 C 106.833 15.747,106.780 16.000,106.589 16.000 C 106.203 16.000,105.955 16.651,106.043 17.432 C 106.114 18.066,106.083 18.155,105.770 18.200 C 105.460 18.244,105.411 18.376,105.368 19.274 C 105.327 20.127,105.264 20.313,104.993 20.384 C 104.711 20.457,104.667 20.617,104.667 21.548 C 104.667 22.488,104.623 22.639,104.333 22.715 C 104.037 22.792,104.000 22.942,104.000 24.056 C 104.000 25.230,103.976 25.314,103.625 25.363 C 103.238 25.418,103.218 25.483,103.184 26.772 C 103.170 27.313,103.095 27.480,102.833 27.548 C 102.546 27.623,102.500 27.776,102.500 28.651 C 102.500 29.556,102.464 29.667,102.167 29.667 C 101.870 29.667,101.833 29.778,101.833 30.682 C 101.833 31.533,101.773 31.745,101.458 32.000 C 101.133 32.263,101.083 32.461,101.083 33.485 C 101.083 34.599,101.062 34.667,100.708 34.667 C 100.358 34.667,100.333 34.738,100.333 35.750 C 100.333 36.722,100.299 36.833,100.000 36.833 C 99.701 36.833,99.667 36.944,99.667 37.917 C 99.667 38.889,99.632 39.000,99.333 39.000 C 99.034 39.000,99.000 39.111,99.000 40.083 C 99.000 40.943,98.948 41.167,98.746 41.167 C 98.338 41.167,98.205 41.798,98.179 43.866 C 98.146 46.435,98.198 46.614,99.015 46.753 C 99.507 46.836,99.667 46.941,99.667 47.181 C 99.667 47.448,99.789 47.500,100.417 47.500 C 101.056 47.500,101.167 47.549,101.167 47.833 C 101.167 48.139,101.278 48.167,102.500 48.167 C 103.722 48.167,103.833 48.139,103.833 47.833 C 103.833 47.589,103.944 47.500,104.250 47.500 C 104.556 47.500,104.667 47.411,104.667 47.167 C 104.667 46.944,104.778 46.833,105.000 46.833 C 105.235 46.833,105.333 46.722,105.333 46.457 C 105.333 46.250,105.483 45.987,105.667 45.872 C 105.951 45.694,106.000 45.483,106.000 44.427 C 106.000 43.271,106.025 43.186,106.375 43.137 C 106.711 43.089,106.755 42.977,106.799 42.059 C 106.840 41.206,106.903 41.021,107.174 40.950 C 107.353 40.903,107.500 40.745,107.500 40.599 C 107.500 40.362,108.008 40.333,112.167 40.333 C 116.722 40.333,116.833 40.341,116.833 40.667 C 116.833 40.882,116.944 41.000,117.148 41.000 C 117.424 41.000,117.472 41.158,117.528 42.266 C 117.576 43.218,117.662 43.585,117.877 43.742 C 118.080 43.890,118.175 44.234,118.206 44.934 C 118.245 45.803,118.292 45.923,118.616 45.969 C 118.916 46.011,118.991 46.146,119.033 46.719 C 119.081 47.391,119.106 47.419,119.691 47.467 C 120.128 47.504,120.323 47.609,120.384 47.842 C 120.514 48.340,122.988 48.332,123.118 47.833 C 123.189 47.564,123.346 47.500,123.936 47.500 C 124.556 47.500,124.667 47.449,124.667 47.167 C 124.667 46.944,124.778 46.833,125.000 46.833 C 125.244 46.833,125.333 46.722,125.333 46.417 C 125.333 46.111,125.422 46.000,125.667 46.000 C 125.982 46.000,126.000 45.889,126.000 43.917 C 126.000 41.944,125.982 41.833,125.667 41.833 C 125.368 41.833,125.333 41.722,125.333 40.750 C 125.333 39.778,125.299 39.667,125.000 39.667 C 124.701 39.667,124.667 39.556,124.667 38.583 C 124.667 37.611,124.632 37.500,124.333 37.500 C 124.046 37.500,124.000 37.389,124.000 36.688 C 124.000 35.460,123.825 34.800,123.475 34.708 C 123.216 34.641,123.167 34.459,123.167 33.564 C 123.167 32.611,123.132 32.500,122.833 32.500 C 122.536 32.500,122.500 32.389,122.500 31.484 C 122.500 30.617,122.453 30.456,122.174 30.384 C 121.903 30.313,121.840 30.127,121.799 29.274 C 121.755 28.357,121.711 28.244,121.375 28.197 C 121.022 28.147,121.000 28.066,121.000 26.806 C 121.000 25.609,120.965 25.460,120.667 25.382 C 120.380 25.307,120.333 25.154,120.333 24.298 C 120.333 23.442,120.286 23.290,120.000 23.215 C 119.715 23.140,119.667 22.988,119.667 22.158 C 119.667 21.344,119.615 21.173,119.341 21.086 C 119.078 21.002,119.007 20.803,118.966 20.033 C 118.922 19.193,118.873 19.077,118.542 19.030 C 118.187 18.980,118.167 18.902,118.167 17.572 C 118.167 16.278,118.140 16.167,117.833 16.167 C 117.534 16.167,117.500 16.056,117.500 15.083 C 117.500 14.120,117.464 14.000,117.175 14.000 C 116.892 14.000,116.843 13.863,116.800 12.958 C 116.755 12.023,116.712 11.911,116.375 11.863 C 116.104 11.825,116.000 11.698,116.000 11.405 C 116.000 11.111,115.909 11.000,115.667 11.000 C 115.444 11.000,115.333 10.889,115.333 10.667 C 115.333 10.384,115.222 10.333,114.603 10.333 C 114.012 10.333,113.855 10.269,113.785 10.000 C 113.705 9.696,113.558 9.667,112.083 9.667 C 110.609 9.667,110.461 9.696,110.382 10.000 M357.045 10.000 C 356.868 10.207,356.553 10.333,356.217 10.333 C 355.822 10.333,355.600 10.447,355.401 10.750 C 355.251 10.979,355.024 11.167,354.897 11.167 C 354.739 11.167,354.667 11.376,354.667 11.833 C 354.667 12.389,354.611 12.500,354.333 12.500 C 354.034 12.500,354.000 12.611,354.000 13.583 C 354.000 14.556,353.966 14.667,353.667 14.667 C 353.441 14.667,353.324 14.787,353.305 15.042 C 353.289 15.248,353.260 15.529,353.239 15.667 C 353.219 15.804,353.194 16.273,353.184 16.708 C 353.169 17.383,353.117 17.500,352.833 17.500 C 352.534 17.500,352.500 17.611,352.500 18.583 C 352.500 19.556,352.466 19.667,352.167 19.667 C 351.868 19.667,351.833 19.778,351.833 20.750 C 351.833 21.709,351.796 21.833,351.512 21.833 C 351.174 21.833,350.826 23.418,351.076 23.821 C 351.140 23.925,351.051 24.000,350.861 24.000 C 350.429 24.000,350.333 24.305,350.333 25.680 C 350.333 26.722,350.301 26.833,350.000 26.833 C 349.701 26.833,349.667 26.944,349.667 27.917 C 349.667 28.889,349.632 29.000,349.333 29.000 C 349.038 29.000,349.000 29.111,349.000 29.973 C 349.000 30.837,348.955 30.967,348.603 31.128 C 348.257 31.285,348.205 31.423,348.205 32.191 C 348.205 32.904,348.138 33.117,347.853 33.307 C 347.547 33.509,347.500 33.704,347.500 34.751 C 347.500 35.821,347.461 35.971,347.167 36.048 C 346.879 36.123,346.833 36.276,346.833 37.151 C 346.833 38.045,346.795 38.167,346.510 38.167 C 346.164 38.167,345.871 39.321,346.046 39.992 C 346.108 40.229,346.035 40.328,345.774 40.366 C 345.459 40.411,345.411 40.539,345.368 41.441 C 345.327 42.294,345.264 42.479,344.993 42.550 C 344.495 42.680,344.491 46.000,344.988 46.000 C 345.195 46.000,345.329 46.134,345.363 46.375 C 345.398 46.616,345.551 46.769,345.792 46.803 C 346.033 46.837,346.167 46.971,346.167 47.178 C 346.167 47.448,346.287 47.500,346.917 47.500 C 347.447 47.500,347.667 47.568,347.667 47.732 C 347.667 48.296,350.287 48.380,350.833 47.833 C 351.017 47.650,351.286 47.500,351.432 47.500 C 351.578 47.500,351.735 47.357,351.781 47.182 C 351.827 47.007,352.007 46.827,352.182 46.781 C 352.450 46.711,352.500 46.542,352.500 45.702 C 352.500 44.846,352.547 44.693,352.833 44.618 C 353.120 44.543,353.167 44.391,353.167 43.527 C 353.167 42.690,353.219 42.506,353.480 42.423 C 353.800 42.322,354.000 41.701,354.000 40.813 L 354.000 40.333 359.000 40.333 L 364.000 40.333 364.000 41.322 C 364.000 42.164,364.049 42.327,364.333 42.417 C 364.618 42.507,364.667 42.669,364.667 43.527 C 364.667 44.391,364.713 44.543,365.000 44.618 C 365.285 44.693,365.333 44.846,365.333 45.675 C 365.333 46.489,365.385 46.661,365.658 46.747 C 365.837 46.804,366.029 46.997,366.086 47.175 C 366.143 47.354,366.317 47.500,366.474 47.500 C 366.631 47.500,366.888 47.650,367.045 47.833 C 367.283 48.112,367.536 48.167,368.583 48.167 C 369.630 48.167,369.884 48.112,370.122 47.833 C 370.316 47.607,370.614 47.500,371.053 47.500 C 371.547 47.500,371.717 47.426,371.781 47.182 C 371.827 47.007,372.007 46.827,372.182 46.781 C 372.367 46.733,372.500 46.552,372.500 46.349 C 372.500 46.111,372.606 46.000,372.833 46.000 C 373.140 46.000,373.167 45.889,373.167 44.597 C 373.167 43.051,373.080 42.667,372.732 42.667 C 372.557 42.667,372.500 42.396,372.500 41.568 C 372.500 40.609,372.457 40.458,372.167 40.382 C 371.892 40.310,371.833 40.154,371.833 39.494 C 371.833 38.479,371.711 38.167,371.316 38.167 C 371.040 38.167,371.000 38.036,371.000 37.151 C 371.000 36.276,370.954 36.123,370.667 36.048 C 370.377 35.973,370.333 35.821,370.333 34.897 C 370.333 34.056,370.264 33.764,370.000 33.500 C 369.742 33.242,369.667 32.944,369.667 32.186 C 369.667 31.355,369.617 31.193,369.342 31.121 C 369.075 31.051,369.009 30.863,368.967 30.060 C 368.922 29.192,368.875 29.077,368.542 29.030 C 368.197 28.981,368.167 28.890,368.167 27.905 C 368.167 26.965,368.128 26.833,367.852 26.833 C 367.576 26.833,367.528 26.675,367.472 25.567 C 367.425 24.629,367.336 24.248,367.130 24.097 C 366.937 23.955,366.836 23.592,366.801 22.905 C 366.756 22.025,366.709 21.911,366.375 21.863 C 366.031 21.814,366.000 21.723,366.000 20.738 C 366.000 19.778,365.965 19.667,365.667 19.667 C 365.368 19.667,365.333 19.556,365.333 18.583 C 365.333 17.611,365.299 17.500,365.000 17.500 C 364.699 17.500,364.667 17.389,364.667 16.347 C 364.667 15.047,364.568 14.667,364.232 14.667 C 364.070 14.667,363.999 14.452,363.998 13.958 C 363.994 12.929,363.842 12.500,363.481 12.500 C 363.225 12.500,363.167 12.375,363.167 11.833 C 363.167 11.308,363.105 11.167,362.873 11.167 C 362.711 11.167,362.505 10.998,362.415 10.792 C 362.301 10.532,362.080 10.400,361.697 10.364 C 361.393 10.334,360.999 10.166,360.822 9.989 C 360.336 9.502,357.463 9.511,357.045 10.000 M81.833 10.667 C 81.833 10.888,81.722 11.000,81.503 11.000 C 81.131 11.000,80.905 11.605,81.076 12.142 C 81.158 12.401,81.097 12.487,80.799 12.529 C 80.210 12.613,80.205 15.220,80.794 15.304 C 81.002 15.333,81.126 15.432,81.069 15.523 C 80.851 15.877,81.170 16.833,81.508 16.833 C 81.722 16.833,81.833 16.947,81.833 17.167 C 81.833 17.487,81.944 17.500,84.667 17.500 L 87.500 17.500 87.500 28.250 C 87.500 38.889,87.497 39.000,87.167 39.000 C 86.944 39.000,86.833 39.111,86.833 39.333 C 86.833 39.556,86.722 39.667,86.500 39.667 C 86.278 39.667,86.167 39.778,86.167 40.000 C 86.167 40.279,86.056 40.333,85.484 40.333 C 84.942 40.333,84.784 40.402,84.715 40.667 C 84.586 41.161,82.681 41.161,82.372 40.667 C 82.205 40.399,81.983 40.333,81.249 40.333 L 80.333 40.333 80.333 39.734 C 80.333 39.288,80.253 39.115,80.019 39.053 C 79.774 38.989,79.689 38.775,79.630 38.066 C 79.584 37.500,79.455 37.084,79.286 36.955 C 79.138 36.842,78.994 36.451,78.967 36.083 C 78.926 35.537,78.849 35.407,78.542 35.363 C 78.301 35.329,78.167 35.195,78.167 34.988 C 78.167 34.726,78.048 34.667,77.519 34.667 C 77.012 34.667,76.853 34.594,76.785 34.333 C 76.707 34.035,76.558 34.000,75.349 34.000 C 74.111 34.000,74.000 34.027,74.000 34.333 C 74.000 34.617,73.889 34.667,73.250 34.667 C 72.611 34.667,72.500 34.716,72.500 35.000 C 72.500 35.222,72.389 35.333,72.167 35.333 C 71.883 35.333,71.833 35.444,71.833 36.083 C 71.833 36.722,71.784 36.833,71.500 36.833 C 71.195 36.833,71.167 36.944,71.167 38.155 C 71.167 39.331,71.204 39.489,71.500 39.583 C 71.796 39.677,71.833 39.836,71.833 41.000 C 71.833 42.164,71.871 42.323,72.167 42.417 C 72.350 42.475,72.500 42.667,72.500 42.845 C 72.500 43.056,72.615 43.167,72.833 43.167 C 73.130 43.167,73.259 43.430,73.184 43.882 C 73.140 44.147,73.519 44.667,73.756 44.667 C 73.890 44.667,74.000 44.817,74.000 45.000 C 74.000 45.208,74.111 45.333,74.296 45.333 C 74.459 45.333,74.721 45.483,74.878 45.667 C 75.035 45.850,75.340 46.000,75.555 46.000 C 75.811 46.000,76.012 46.144,76.136 46.417 C 76.285 46.742,76.450 46.833,76.894 46.833 C 77.321 46.833,77.483 46.916,77.548 47.167 C 77.623 47.454,77.776 47.500,78.651 47.500 C 79.556 47.500,79.667 47.536,79.667 47.833 C 79.667 48.157,79.778 48.167,83.583 48.167 C 87.389 48.167,87.500 48.157,87.500 47.833 C 87.500 47.536,87.611 47.500,88.516 47.500 C 89.382 47.500,89.544 47.452,89.616 47.176 C 89.677 46.943,89.872 46.837,90.309 46.801 C 90.793 46.760,90.927 46.674,90.970 46.375 C 91.008 46.104,91.135 46.000,91.428 46.000 C 91.722 46.000,91.833 45.909,91.833 45.667 C 91.833 45.444,91.944 45.333,92.167 45.333 C 92.389 45.333,92.500 45.222,92.500 45.000 C 92.500 44.778,92.611 44.667,92.833 44.667 C 93.078 44.667,93.167 44.556,93.167 44.250 C 93.167 43.917,93.250 43.833,93.583 43.833 C 93.880 43.833,94.000 43.743,94.000 43.519 C 94.000 43.346,94.149 43.167,94.333 43.118 C 94.621 43.043,94.667 42.891,94.667 42.016 C 94.667 41.111,94.703 41.000,95.000 41.000 C 95.316 41.000,95.333 40.889,95.333 38.873 C 95.333 36.927,95.362 36.729,95.667 36.539 C 95.995 36.334,96.000 36.150,96.000 24.566 C 96.000 12.942,95.996 12.801,95.667 12.715 C 95.397 12.645,95.333 12.488,95.333 11.897 C 95.333 11.364,95.267 11.167,95.087 11.167 C 94.952 11.167,94.718 10.979,94.568 10.750 L 94.295 10.333 88.064 10.333 C 81.944 10.333,81.833 10.339,81.833 10.667 M129.719 10.651 C 129.673 10.826,129.493 11.007,129.318 11.052 C 129.070 11.117,129.000 11.287,129.000 11.818 C 129.000 12.376,128.943 12.500,128.684 12.500 C 128.165 12.500,128.167 12.449,128.167 28.993 C 128.167 45.688,128.176 46.000,128.688 46.000 C 128.910 46.000,129.000 46.120,129.000 46.417 C 129.000 46.722,129.089 46.833,129.333 46.833 C 129.556 46.833,129.667 46.944,129.667 47.167 C 129.667 47.382,129.778 47.500,129.981 47.500 C 130.154 47.500,130.333 47.649,130.382 47.833 C 130.463 48.143,130.609 48.167,132.473 48.167 C 134.331 48.167,134.485 48.142,134.583 47.833 C 134.642 47.650,134.834 47.500,135.011 47.500 C 135.222 47.500,135.333 47.385,135.333 47.167 C 135.333 46.944,135.444 46.833,135.667 46.833 C 135.954 46.833,136.000 46.722,136.000 46.019 C 136.000 45.346,136.057 45.191,136.333 45.118 C 136.556 45.060,136.667 44.891,136.667 44.610 C 136.667 44.336,136.551 44.152,136.333 44.083 C 136.013 43.982,136.000 43.831,136.000 40.080 L 136.000 36.182 136.417 35.765 C 136.646 35.536,136.833 35.195,136.833 35.008 C 136.833 34.778,136.942 34.667,137.167 34.667 C 137.411 34.667,137.500 34.556,137.500 34.250 C 137.500 33.696,138.119 33.659,138.197 34.208 C 138.231 34.449,138.384 34.602,138.625 34.637 C 138.866 34.671,139.000 34.805,139.000 35.012 C 139.000 35.222,139.115 35.333,139.333 35.333 C 139.612 35.333,139.667 35.444,139.667 36.016 C 139.667 36.558,139.735 36.716,140.000 36.785 C 140.184 36.833,140.333 37.012,140.333 37.186 C 140.333 37.409,140.453 37.500,140.745 37.500 C 141.042 37.500,141.130 37.569,141.060 37.750 C 140.889 38.198,141.149 38.833,141.503 38.833 C 141.744 38.833,141.833 38.946,141.833 39.250 C 141.833 39.556,141.922 39.667,142.167 39.667 C 142.444 39.667,142.500 39.778,142.500 40.333 C 142.500 40.876,142.559 41.000,142.815 41.000 C 143.044 41.000,143.160 41.163,143.242 41.602 C 143.317 41.998,143.466 42.232,143.678 42.288 C 143.883 42.342,144.000 42.517,144.000 42.769 C 144.000 43.056,144.093 43.167,144.333 43.167 C 144.578 43.167,144.667 43.278,144.667 43.583 C 144.667 43.812,144.817 44.150,145.000 44.333 C 145.183 44.517,145.333 44.817,145.333 45.000 C 145.333 45.217,145.444 45.333,145.652 45.333 C 145.894 45.333,145.998 45.494,146.083 46.000 C 146.169 46.506,146.273 46.667,146.515 46.667 C 146.743 46.667,146.833 46.784,146.833 47.083 C 146.833 47.380,146.924 47.500,147.147 47.500 C 147.321 47.500,147.500 47.649,147.548 47.833 C 147.629 48.144,147.776 48.167,149.667 48.167 C 151.558 48.167,151.704 48.144,151.785 47.833 C 151.833 47.649,152.012 47.500,152.186 47.500 C 152.389 47.500,152.500 47.382,152.500 47.167 C 152.500 46.944,152.611 46.833,152.833 46.833 C 153.078 46.833,153.167 46.722,153.167 46.417 C 153.167 46.082,153.250 46.000,153.589 46.000 L 154.012 46.000 153.964 44.292 C 153.919 42.664,153.899 42.581,153.542 42.530 C 153.250 42.489,153.167 42.368,153.167 41.990 C 153.167 41.683,153.043 41.426,152.833 41.295 C 152.650 41.180,152.500 40.917,152.500 40.710 C 152.500 40.453,152.401 40.333,152.188 40.333 C 151.953 40.333,151.850 40.169,151.769 39.667 C 151.686 39.148,151.589 39.000,151.331 39.000 C 151.089 39.000,151.000 38.888,151.000 38.583 C 151.000 38.278,150.911 38.167,150.667 38.167 C 150.395 38.167,150.333 38.056,150.333 37.568 C 150.333 37.115,150.254 36.948,150.009 36.884 C 149.831 36.837,149.662 36.638,149.634 36.441 C 149.603 36.219,149.472 36.092,149.292 36.106 C 149.098 36.122,148.999 36.010,148.998 35.773 C 148.993 35.086,148.797 34.667,148.481 34.667 C 148.278 34.667,148.167 34.549,148.167 34.333 C 148.167 34.111,148.056 34.000,147.833 34.000 C 147.554 34.000,147.500 33.889,147.500 33.318 C 147.500 32.776,147.432 32.618,147.167 32.548 C 146.982 32.500,146.833 32.321,146.833 32.147 C 146.833 31.924,146.714 31.833,146.417 31.833 C 146.034 31.833,146.000 31.772,146.000 31.083 C 146.000 30.444,145.951 30.333,145.667 30.333 C 145.444 30.333,145.333 30.222,145.333 30.000 C 145.333 29.778,145.222 29.667,145.000 29.667 C 144.721 29.667,144.667 29.556,144.667 28.984 C 144.667 28.453,144.596 28.284,144.349 28.219 C 144.174 28.173,143.993 27.993,143.948 27.818 C 143.899 27.633,143.719 27.500,143.516 27.500 C 143.047 27.500,143.035 26.837,143.501 26.715 C 143.737 26.653,143.866 26.436,143.939 25.980 C 144.017 25.496,144.121 25.333,144.355 25.333 C 144.556 25.333,144.667 25.215,144.667 25.000 C 144.667 24.778,144.778 24.667,145.000 24.667 C 145.215 24.667,145.333 24.556,145.333 24.353 C 145.333 24.179,145.482 24.000,145.667 23.952 C 145.866 23.900,146.000 23.724,146.000 23.516 C 146.000 23.284,146.106 23.167,146.316 23.167 C 146.661 23.167,146.833 22.858,146.833 22.236 C 146.833 21.944,146.925 21.833,147.167 21.833 C 147.411 21.833,147.500 21.722,147.500 21.417 C 147.500 21.111,147.589 21.000,147.833 21.000 C 148.056 21.000,148.167 20.889,148.167 20.667 C 148.167 20.443,148.278 20.333,148.505 20.333 C 148.691 20.333,148.891 20.202,148.949 20.042 C 149.006 19.881,149.191 19.616,149.360 19.452 C 149.529 19.288,149.667 18.932,149.667 18.660 C 149.667 18.278,149.742 18.167,150.000 18.167 C 150.222 18.167,150.333 18.056,150.333 17.833 C 150.333 17.611,150.444 17.500,150.667 17.500 C 150.885 17.500,151.000 17.389,151.000 17.178 C 151.000 16.971,151.134 16.837,151.375 16.803 C 151.687 16.759,151.759 16.631,151.801 16.042 C 151.843 15.469,151.915 15.333,152.176 15.333 C 152.678 15.333,152.669 12.680,152.167 12.548 C 151.982 12.500,151.833 12.321,151.833 12.147 C 151.833 11.924,151.714 11.833,151.417 11.833 C 151.078 11.833,151.000 11.751,151.000 11.397 C 151.000 11.043,150.937 10.978,150.667 11.048 C 150.402 11.118,150.333 11.053,150.333 10.734 L 150.333 10.333 148.250 10.333 C 146.098 10.333,146.068 10.343,146.137 11.012 C 146.143 11.065,145.983 11.102,145.782 11.096 C 145.525 11.087,145.401 11.195,145.363 11.458 C 145.329 11.699,145.195 11.833,144.988 11.833 C 144.724 11.833,144.667 11.952,144.667 12.500 C 144.667 13.056,144.611 13.167,144.333 13.167 C 144.089 13.167,144.000 13.278,144.000 13.583 C 144.000 13.919,143.917 14.000,143.576 14.000 C 143.265 14.000,143.165 14.077,143.201 14.292 C 143.234 14.486,143.125 14.601,142.875 14.637 C 142.552 14.682,142.500 14.790,142.500 15.413 C 142.500 16.053,142.462 16.126,142.167 16.048 C 141.896 15.978,141.833 16.043,141.833 16.397 C 141.833 16.729,141.750 16.833,141.484 16.833 C 141.281 16.833,141.101 16.966,141.052 17.151 C 141.007 17.326,140.826 17.507,140.651 17.552 C 140.404 17.617,140.333 17.787,140.333 18.318 C 140.333 18.889,140.279 19.000,140.000 19.000 C 139.778 19.000,139.667 19.111,139.667 19.333 C 139.667 19.556,139.556 19.667,139.333 19.667 C 139.115 19.667,139.000 19.778,139.000 19.988 C 139.000 20.195,138.866 20.329,138.625 20.363 C 138.313 20.408,138.241 20.536,138.199 21.125 C 138.157 21.698,138.085 21.833,137.824 21.833 C 137.611 21.833,137.500 21.948,137.500 22.167 C 137.500 22.389,137.389 22.500,137.167 22.500 C 136.951 22.500,136.833 22.611,136.833 22.814 C 136.833 22.987,136.690 23.165,136.514 23.211 C 136.339 23.257,136.161 23.472,136.120 23.689 C 136.079 23.906,136.035 21.936,136.023 19.311 C 136.001 14.669,136.009 14.536,136.333 14.452 C 136.607 14.380,136.667 14.224,136.667 13.583 C 136.667 12.942,136.607 12.786,136.333 12.715 C 136.065 12.645,136.000 12.488,136.000 11.908 C 136.000 11.336,135.932 11.168,135.667 11.083 C 135.483 11.025,135.333 10.878,135.333 10.757 C 135.333 10.192,129.866 10.089,129.719 10.651 M156.891 10.632 C 156.848 10.796,156.649 11.002,156.448 11.091 C 156.162 11.217,156.087 11.384,156.102 11.867 C 156.117 12.374,156.057 12.492,155.768 12.533 L 155.417 12.583 155.369 25.083 C 155.319 38.392,155.326 38.589,155.847 38.754 C 156.140 38.847,156.169 38.954,156.075 39.584 C 155.917 40.633,156.118 41.615,156.512 41.718 C 156.763 41.784,156.833 41.951,156.833 42.484 C 156.833 43.056,156.888 43.167,157.167 43.167 C 157.389 43.167,157.500 43.278,157.500 43.500 C 157.500 43.722,157.611 43.833,157.833 43.833 C 158.128 43.833,158.257 44.092,158.186 44.542 C 158.176 44.610,158.354 44.667,158.583 44.667 C 158.889 44.667,159.000 44.756,159.000 45.000 C 159.000 45.222,159.111 45.333,159.333 45.333 C 159.556 45.333,159.667 45.444,159.667 45.667 C 159.667 45.889,159.778 46.000,160.000 46.000 C 160.216 46.000,160.333 46.111,160.333 46.316 C 160.333 46.675,160.644 46.833,161.347 46.833 C 161.722 46.833,161.833 46.909,161.833 47.167 C 161.833 47.466,161.944 47.500,162.917 47.500 C 163.889 47.500,164.000 47.534,164.000 47.833 C 164.000 48.157,164.111 48.167,167.849 48.167 C 171.558 48.167,171.701 48.155,171.785 47.833 C 171.860 47.547,172.012 47.500,172.868 47.500 C 173.715 47.500,173.877 47.451,173.949 47.176 C 174.010 46.943,174.205 46.837,174.642 46.801 C 175.127 46.760,175.261 46.674,175.303 46.375 C 175.348 46.060,175.460 46.000,176.000 46.000 C 176.498 46.000,176.668 45.924,176.750 45.667 C 176.808 45.483,177.001 45.333,177.178 45.333 C 177.382 45.333,177.500 45.219,177.500 45.019 C 177.500 44.846,177.649 44.667,177.833 44.618 C 178.098 44.549,178.167 44.391,178.167 43.849 C 178.167 43.232,178.207 43.167,178.583 43.167 C 178.870 43.167,179.000 43.075,179.000 42.873 C 179.000 42.712,179.150 42.487,179.333 42.372 C 179.618 42.194,179.667 41.983,179.667 40.935 C 179.667 39.846,179.705 39.696,180.000 39.618 C 180.330 39.532,180.333 39.391,180.333 25.682 C 180.333 11.944,180.331 11.833,180.000 11.833 C 179.773 11.833,179.667 11.722,179.667 11.484 C 179.667 11.281,179.534 11.101,179.349 11.052 C 179.174 11.007,178.993 10.826,178.948 10.651 C 178.807 10.113,174.047 10.167,173.970 10.708 C 173.935 10.954,173.802 11.083,173.583 11.083 C 173.365 11.083,173.232 11.212,173.197 11.458 C 173.163 11.699,173.029 11.833,172.822 11.833 C 172.507 11.833,172.500 12.103,172.500 25.000 C 172.500 38.056,172.497 38.167,172.167 38.167 C 171.883 38.167,171.833 38.278,171.833 38.917 C 171.833 39.567,171.787 39.667,171.484 39.667 C 171.276 39.667,171.100 39.801,171.048 40.000 C 170.975 40.282,170.821 40.333,170.048 40.333 C 169.276 40.333,169.122 40.385,169.048 40.667 C 168.917 41.168,166.916 41.168,166.785 40.667 C 166.716 40.402,166.558 40.333,166.016 40.333 C 165.444 40.333,165.333 40.279,165.333 40.000 C 165.333 39.778,165.222 39.667,165.000 39.667 C 164.778 39.667,164.667 39.556,164.667 39.333 C 164.667 39.111,164.556 39.000,164.333 39.000 C 164.053 39.000,164.000 38.888,163.998 38.292 C 163.994 37.262,163.842 36.833,163.481 36.833 C 163.176 36.833,163.167 36.457,163.167 24.000 C 163.167 13.177,163.131 11.167,162.936 11.167 C 162.809 11.167,162.582 10.979,162.432 10.750 C 162.065 10.189,157.035 10.082,156.891 10.632 M186.147 10.625 C 186.136 10.785,186.132 10.960,186.137 11.012 C 186.143 11.065,185.983 11.102,185.782 11.096 C 185.525 11.087,185.401 11.195,185.363 11.458 C 185.329 11.699,185.195 11.833,184.988 11.833 C 184.673 11.833,184.667 12.150,184.667 28.917 C 184.667 45.889,184.669 46.000,185.000 46.000 C 185.244 46.000,185.333 46.111,185.333 46.417 C 185.333 46.944,185.879 47.500,186.397 47.500 C 186.654 47.500,186.825 47.618,186.882 47.833 C 187.019 48.357,200.148 48.357,200.285 47.833 C 200.363 47.533,200.512 47.500,201.769 47.500 C 203.056 47.500,203.167 47.473,203.167 47.167 C 203.167 46.909,203.278 46.833,203.653 46.833 C 204.356 46.833,204.667 46.675,204.667 46.316 C 204.667 46.111,204.784 46.000,205.000 46.000 C 205.222 46.000,205.333 45.889,205.333 45.667 C 205.333 45.444,205.444 45.333,205.667 45.333 C 205.889 45.333,206.000 45.222,206.000 45.000 C 206.000 44.756,206.111 44.667,206.417 44.667 C 206.750 44.667,206.833 44.583,206.833 44.250 C 206.833 43.944,206.922 43.833,207.167 43.833 C 207.382 43.833,207.500 43.722,207.500 43.519 C 207.500 43.346,207.649 43.167,207.833 43.118 C 208.121 43.043,208.167 42.891,208.167 42.016 C 208.167 41.130,208.207 41.000,208.482 41.000 C 208.972 41.000,209.000 40.745,209.000 36.341 C 209.000 31.770,208.947 31.235,208.482 31.114 C 208.237 31.050,208.167 30.878,208.167 30.349 C 208.167 29.778,208.112 29.667,207.833 29.667 C 207.611 29.667,207.500 29.556,207.500 29.333 C 207.500 29.111,207.389 29.000,207.167 29.000 C 206.922 29.000,206.833 28.889,206.833 28.583 C 206.833 28.250,206.750 28.167,206.417 28.167 C 206.034 28.167,206.000 28.106,206.000 27.417 C 206.000 26.779,206.050 26.667,206.331 26.667 C 206.589 26.667,206.686 26.518,206.769 26.000 C 206.850 25.498,206.953 25.333,207.188 25.333 C 207.461 25.333,207.500 25.198,207.500 24.250 C 207.500 23.278,207.534 23.167,207.833 23.167 C 208.156 23.167,208.167 23.056,208.167 19.667 C 208.167 16.278,208.156 16.167,207.833 16.167 C 207.549 16.167,207.500 16.056,207.500 15.417 C 207.500 14.786,207.449 14.667,207.177 14.667 C 206.923 14.667,206.842 14.531,206.802 14.042 C 206.764 13.582,206.651 13.373,206.375 13.252 C 206.169 13.162,206.000 12.955,206.000 12.794 C 206.000 12.623,205.876 12.500,205.704 12.500 C 205.541 12.500,205.279 12.350,205.122 12.167 C 204.965 11.983,204.641 11.833,204.403 11.833 C 204.113 11.833,203.941 11.726,203.884 11.510 C 203.804 11.204,203.234 10.979,202.667 11.030 C 202.104 11.081,201.868 10.983,201.785 10.667 C 201.657 10.178,186.180 10.137,186.147 10.625 M231.833 10.667 C 231.833 10.885,231.722 11.000,231.511 11.000 C 231.164 11.000,230.903 11.542,231.098 11.858 C 231.164 11.964,231.147 12.007,231.059 11.953 C 230.612 11.677,230.416 12.180,230.359 13.744 L 230.301 15.333 230.718 15.333 C 231.052 15.333,231.118 15.399,231.049 15.664 C 230.903 16.224,231.139 16.833,231.503 16.833 C 231.722 16.833,231.833 16.946,231.833 17.167 C 231.833 17.487,231.944 17.500,234.667 17.500 L 237.500 17.500 237.500 28.250 C 237.500 38.889,237.497 39.000,237.167 39.000 C 236.944 39.000,236.833 39.111,236.833 39.333 C 236.833 39.556,236.722 39.667,236.500 39.667 C 236.278 39.667,236.167 39.778,236.167 40.000 C 236.167 40.279,236.056 40.333,235.484 40.333 C 234.942 40.333,234.784 40.402,234.715 40.667 C 234.586 41.161,232.681 41.161,232.372 40.667 C 232.205 40.399,231.983 40.333,231.249 40.333 C 230.383 40.333,230.333 40.311,230.333 39.917 C 230.333 39.687,230.183 39.350,230.000 39.167 C 229.790 38.957,229.667 38.611,229.667 38.234 C 229.667 37.780,229.588 37.615,229.341 37.550 C 229.069 37.479,229.007 37.294,228.966 36.441 C 228.922 35.523,228.878 35.411,228.542 35.363 C 228.301 35.329,228.167 35.195,228.167 34.988 C 228.167 34.725,228.048 34.667,227.511 34.667 C 227.002 34.667,226.832 34.592,226.750 34.333 C 226.588 33.824,224.000 33.824,224.000 34.333 C 224.000 34.617,223.889 34.667,223.250 34.667 C 222.611 34.667,222.500 34.716,222.500 35.000 C 222.500 35.222,222.389 35.333,222.167 35.333 C 221.927 35.333,221.833 35.444,221.833 35.731 C 221.833 35.977,221.716 36.158,221.526 36.208 C 220.883 36.376,220.883 39.957,221.525 40.125 C 221.785 40.193,221.833 40.375,221.833 41.285 C 221.833 42.224,221.877 42.376,222.167 42.452 C 222.351 42.500,222.500 42.679,222.500 42.853 C 222.500 43.056,222.618 43.167,222.833 43.167 C 223.091 43.167,223.167 43.278,223.167 43.653 C 223.167 44.356,223.325 44.667,223.684 44.667 C 223.889 44.667,224.000 44.784,224.000 45.000 C 224.000 45.208,224.111 45.333,224.296 45.333 C 224.459 45.333,224.721 45.483,224.878 45.667 C 225.035 45.850,225.340 46.000,225.555 46.000 C 225.811 46.000,226.012 46.144,226.136 46.417 C 226.287 46.746,226.449 46.833,226.913 46.833 C 227.389 46.833,227.500 46.896,227.500 47.167 C 227.500 47.466,227.611 47.500,228.583 47.500 C 229.556 47.500,229.667 47.534,229.667 47.833 C 229.667 48.157,229.778 48.167,233.516 48.167 C 237.224 48.167,237.368 48.155,237.452 47.833 C 237.527 47.547,237.679 47.500,238.535 47.500 C 239.391 47.500,239.543 47.453,239.618 47.167 C 239.674 46.955,239.846 46.833,240.089 46.833 C 240.692 46.833,241.000 46.658,241.000 46.316 C 241.000 46.090,241.119 46.000,241.417 46.000 C 241.722 46.000,241.833 45.911,241.833 45.667 C 241.833 45.444,241.944 45.333,242.167 45.333 C 242.389 45.333,242.500 45.222,242.500 45.000 C 242.500 44.778,242.611 44.667,242.833 44.667 C 243.078 44.667,243.167 44.556,243.167 44.250 C 243.167 43.917,243.250 43.833,243.583 43.833 C 243.889 43.833,244.000 43.744,244.000 43.500 C 244.000 43.317,244.104 43.167,244.232 43.167 C 244.547 43.167,244.667 42.795,244.667 41.820 C 244.667 41.111,244.712 41.000,245.000 41.000 C 245.331 41.000,245.333 40.889,245.333 26.083 C 245.333 13.039,245.302 11.167,245.087 11.167 C 244.952 11.167,244.718 10.979,244.568 10.750 L 244.295 10.333 238.064 10.333 C 231.944 10.333,231.833 10.339,231.833 10.667 M251.803 10.691 C 251.765 10.946,251.613 11.062,251.267 11.099 C 250.380 11.192,250.417 10.550,250.417 26.103 C 250.417 39.822,250.434 40.700,250.708 40.853 C 250.880 40.950,251.000 41.213,251.000 41.495 C 251.000 42.190,251.160 42.500,251.518 42.500 C 251.775 42.500,251.833 42.624,251.833 43.167 C 251.833 43.722,251.889 43.833,252.167 43.833 C 252.409 43.833,252.500 43.944,252.500 44.238 C 252.500 44.532,252.604 44.658,252.875 44.697 C 253.125 44.732,253.234 44.847,253.201 45.042 C 253.165 45.256,253.265 45.333,253.576 45.333 C 253.889 45.333,254.000 45.421,254.000 45.667 C 254.000 45.887,254.111 46.000,254.327 46.000 C 254.508 46.000,254.733 46.147,254.829 46.326 C 254.927 46.508,255.261 46.701,255.585 46.761 C 255.905 46.821,256.167 46.967,256.167 47.084 C 256.167 47.379,256.553 47.500,257.494 47.500 C 258.154 47.500,258.310 47.558,258.382 47.833 C 258.466 48.155,258.609 48.167,262.500 48.167 C 266.391 48.167,266.534 48.155,266.618 47.833 C 266.693 47.547,266.846 47.500,267.702 47.500 C 268.538 47.500,268.711 47.449,268.780 47.186 C 268.837 46.970,269.072 46.838,269.531 46.764 C 270.003 46.689,270.226 46.561,270.286 46.329 C 270.334 46.148,270.513 46.000,270.686 46.000 C 270.889 46.000,271.000 45.882,271.000 45.667 C 271.000 45.422,271.111 45.333,271.417 45.333 C 271.722 45.333,271.833 45.244,271.833 45.000 C 271.833 44.778,271.944 44.667,272.167 44.667 C 272.411 44.667,272.500 44.556,272.500 44.250 C 272.500 43.944,272.589 43.833,272.833 43.833 C 273.110 43.833,273.167 43.722,273.167 43.178 C 273.167 42.626,273.225 42.515,273.542 42.470 C 273.852 42.426,273.925 42.297,273.967 41.725 C 274.005 41.206,274.098 41.013,274.342 40.949 C 274.824 40.823,274.857 11.389,274.375 11.221 C 274.215 11.164,273.957 10.960,273.802 10.768 C 273.374 10.236,268.358 10.121,268.222 10.639 C 268.175 10.821,267.993 11.007,267.818 11.052 C 267.633 11.101,267.500 11.281,267.500 11.484 C 267.500 11.722,267.394 11.833,267.167 11.833 C 266.836 11.833,266.833 11.944,266.833 25.417 L 266.833 39.000 266.484 39.000 C 266.276 39.000,266.100 39.134,266.048 39.333 C 266.000 39.518,265.821 39.667,265.647 39.667 C 265.452 39.667,265.333 39.784,265.333 39.979 C 265.333 40.233,265.173 40.306,264.472 40.374 C 263.946 40.424,263.533 40.562,263.412 40.728 C 263.141 41.099,261.859 41.099,261.588 40.728 C 261.467 40.562,261.054 40.424,260.528 40.374 C 259.827 40.306,259.667 40.233,259.667 39.979 C 259.667 39.784,259.548 39.667,259.352 39.667 C 259.122 39.667,259.007 39.504,258.924 39.065 C 258.850 38.669,258.701 38.434,258.489 38.379 C 258.174 38.296,258.167 38.004,258.167 25.064 C 258.167 11.944,258.164 11.833,257.833 11.833 C 257.606 11.833,257.500 11.722,257.500 11.484 C 257.500 11.281,257.367 11.101,257.182 11.052 C 257.007 11.007,256.827 10.826,256.781 10.651 C 256.644 10.128,251.882 10.165,251.803 10.691 M280.383 10.661 C 280.336 10.841,280.155 11.034,279.982 11.089 C 279.472 11.251,279.489 46.652,280.000 46.785 C 280.184 46.833,280.333 47.012,280.333 47.186 C 280.333 47.406,280.453 47.500,280.731 47.500 C 280.988 47.500,281.159 47.618,281.215 47.833 C 281.349 48.347,285.151 48.347,285.285 47.833 C 285.333 47.649,285.512 47.500,285.686 47.500 C 285.885 47.500,286.000 47.382,286.000 47.178 C 286.000 46.971,286.134 46.837,286.375 46.803 C 286.610 46.770,286.769 46.616,286.801 46.392 C 286.829 46.195,286.998 45.996,287.176 45.949 C 287.490 45.867,287.500 45.663,287.500 39.530 L 287.500 33.195 288.584 33.139 C 289.613 33.086,289.667 33.102,289.667 33.458 C 289.667 33.722,289.765 33.833,290.000 33.833 C 290.279 33.833,290.333 33.944,290.333 34.516 C 290.333 35.049,290.403 35.216,290.655 35.282 C 290.875 35.340,291.011 35.571,291.086 36.016 C 291.169 36.507,291.274 36.667,291.515 36.667 C 291.777 36.667,291.833 36.788,291.833 37.349 C 291.833 37.880,291.904 38.050,292.151 38.114 C 292.355 38.168,292.508 38.404,292.577 38.774 C 292.636 39.091,292.786 39.389,292.909 39.437 C 293.032 39.484,293.182 39.855,293.243 40.261 C 293.330 40.843,293.422 41.000,293.677 41.000 C 293.908 41.000,294.000 41.115,294.000 41.403 C 294.000 41.978,294.166 42.333,294.434 42.333 C 294.581 42.333,294.667 42.517,294.667 42.833 C 294.667 43.111,294.815 43.481,295.000 43.667 C 295.183 43.850,295.333 44.150,295.333 44.333 C 295.333 44.573,295.444 44.667,295.727 44.667 C 296.075 44.667,296.119 44.740,296.102 45.292 C 296.086 45.820,296.141 45.925,296.458 45.970 C 296.783 46.016,296.833 46.123,296.833 46.762 C 296.833 47.374,296.887 47.500,297.147 47.500 C 297.321 47.500,297.500 47.649,297.548 47.833 C 297.629 48.144,297.776 48.167,299.667 48.167 C 301.558 48.167,301.704 48.144,301.785 47.833 C 301.833 47.649,302.012 47.500,302.186 47.500 C 302.389 47.500,302.500 47.382,302.500 47.167 C 302.500 46.944,302.611 46.833,302.833 46.833 C 303.078 46.833,303.167 46.722,303.167 46.417 C 303.167 46.082,303.250 46.000,303.589 46.000 L 304.012 46.000 303.964 44.292 C 303.919 42.664,303.899 42.581,303.542 42.530 C 303.224 42.485,303.167 42.375,303.167 41.806 C 303.167 41.276,303.097 41.117,302.833 41.048 C 302.572 40.980,302.500 40.821,302.500 40.314 C 302.500 39.784,302.441 39.667,302.176 39.667 C 301.915 39.667,301.843 39.531,301.801 38.958 C 301.759 38.369,301.687 38.241,301.375 38.197 C 301.059 38.152,301.000 38.041,301.000 37.488 C 301.000 36.944,300.943 36.833,300.667 36.833 C 300.388 36.833,300.333 36.722,300.333 36.151 C 300.333 35.609,300.265 35.451,300.000 35.382 C 299.788 35.326,299.667 35.154,299.667 34.911 C 299.667 34.361,299.499 34.000,299.244 34.000 C 299.122 34.000,298.999 33.831,298.970 33.625 C 298.937 33.390,298.783 33.231,298.558 33.199 C 298.267 33.157,298.188 33.015,298.141 32.449 C 298.032 31.127,298.101 31.000,298.928 31.000 C 299.556 31.000,299.667 30.950,299.667 30.667 C 299.667 30.444,299.778 30.333,300.000 30.333 C 300.222 30.333,300.333 30.222,300.333 30.000 C 300.333 29.778,300.444 29.667,300.667 29.667 C 300.911 29.667,301.000 29.556,301.000 29.250 C 301.000 28.917,301.083 28.833,301.417 28.833 C 301.722 28.833,301.833 28.744,301.833 28.500 C 301.833 28.278,301.944 28.167,302.167 28.167 C 302.411 28.167,302.500 28.056,302.500 27.750 C 302.500 27.505,302.596 27.333,302.732 27.333 C 303.040 27.333,303.167 26.964,303.167 26.070 C 303.167 25.521,303.231 25.333,303.421 25.333 C 304.238 25.333,304.290 17.755,303.475 17.542 C 303.220 17.475,303.167 17.294,303.167 16.492 C 303.167 15.669,303.116 15.506,302.833 15.417 C 302.650 15.358,302.500 15.166,302.500 14.989 C 302.500 14.788,302.385 14.667,302.196 14.667 C 301.984 14.667,301.845 14.479,301.738 14.047 C 301.605 13.513,301.497 13.407,300.958 13.281 C 300.507 13.174,300.333 13.046,300.333 12.817 C 300.333 12.611,300.216 12.500,300.000 12.500 C 299.778 12.500,299.667 12.389,299.667 12.167 C 299.667 11.883,299.556 11.833,298.928 11.833 C 298.289 11.833,298.183 11.783,298.137 11.458 C 298.096 11.170,297.968 11.079,297.583 11.064 C 296.756 11.032,296.709 11.013,296.618 10.667 C 296.482 10.147,280.519 10.142,280.383 10.661 M309.000 10.744 C 309.000 11.079,308.925 11.155,308.626 11.123 C 308.349 11.094,308.237 11.182,308.197 11.458 C 308.163 11.699,308.028 11.833,307.822 11.833 C 307.321 11.833,307.315 46.585,307.815 46.744 C 307.989 46.799,308.169 46.992,308.216 47.172 C 308.284 47.431,308.446 47.500,308.984 47.500 C 309.556 47.500,309.667 47.554,309.667 47.833 C 309.667 48.146,309.778 48.167,311.417 48.167 C 313.056 48.167,313.167 48.146,313.167 47.833 C 313.167 47.554,313.278 47.500,313.849 47.500 C 314.387 47.500,314.549 47.431,314.617 47.172 C 314.664 46.992,314.845 46.799,315.018 46.744 C 315.319 46.649,315.333 46.390,315.333 40.989 C 315.333 35.444,315.340 35.333,315.667 35.333 C 315.911 35.333,316.000 35.222,316.000 34.917 C 316.000 34.647,316.093 34.500,316.266 34.500 C 316.412 34.500,316.570 34.350,316.618 34.167 C 316.786 33.525,317.443 33.744,317.561 34.480 C 317.632 34.928,317.764 35.153,317.988 35.212 C 318.222 35.273,318.286 35.394,318.220 35.648 C 318.143 35.940,318.202 36.000,318.564 36.000 C 318.914 36.000,319.000 36.079,319.000 36.403 C 319.000 36.978,319.166 37.333,319.434 37.333 C 319.571 37.333,319.667 37.505,319.667 37.750 C 319.667 38.056,319.756 38.167,320.000 38.167 C 320.255 38.167,320.333 38.278,320.333 38.642 C 320.333 38.919,320.508 39.306,320.750 39.568 C 320.979 39.815,321.167 40.088,321.167 40.175 C 321.167 40.262,321.317 40.333,321.500 40.333 C 321.778 40.333,321.833 40.444,321.833 41.000 C 321.833 41.556,321.889 41.667,322.167 41.667 C 322.411 41.667,322.500 41.778,322.500 42.083 C 322.500 42.385,322.590 42.500,322.823 42.500 C 323.077 42.500,323.158 42.635,323.198 43.125 C 323.240 43.627,323.324 43.760,323.625 43.803 C 323.896 43.842,324.000 43.968,324.000 44.262 C 324.000 44.556,324.091 44.667,324.333 44.667 C 324.611 44.667,324.667 44.778,324.667 45.333 C 324.667 45.889,324.722 46.000,325.000 46.000 C 325.227 46.000,325.333 46.111,325.333 46.349 C 325.333 46.552,325.466 46.733,325.651 46.781 C 325.826 46.827,326.007 47.007,326.052 47.182 C 326.101 47.367,326.281 47.500,326.484 47.500 C 326.722 47.500,326.833 47.606,326.833 47.833 C 326.833 48.146,326.944 48.167,328.667 48.167 C 330.278 48.167,330.540 48.126,330.833 47.833 C 331.017 47.650,331.286 47.500,331.432 47.500 C 331.578 47.500,331.735 47.357,331.781 47.182 C 331.827 47.007,332.007 46.827,332.182 46.781 C 332.430 46.716,332.500 46.547,332.500 46.016 C 332.500 45.444,332.554 45.333,332.833 45.333 C 333.132 45.333,333.167 45.222,333.167 44.250 C 333.167 43.278,333.132 43.167,332.833 43.167 C 332.556 43.167,332.500 43.056,332.500 42.500 C 332.500 41.952,332.443 41.833,332.178 41.833 C 331.971 41.833,331.837 41.699,331.803 41.458 C 331.768 41.212,331.635 41.083,331.417 41.083 C 331.144 41.083,331.074 40.955,331.032 40.375 C 330.991 39.802,330.919 39.667,330.657 39.667 C 330.444 39.667,330.333 39.552,330.333 39.333 C 330.333 39.111,330.222 39.000,330.000 39.000 C 329.716 39.000,329.667 38.889,329.667 38.250 C 329.667 37.626,329.614 37.500,329.352 37.500 C 329.122 37.500,329.007 37.337,328.924 36.898 C 328.850 36.502,328.701 36.268,328.489 36.212 C 328.284 36.158,328.167 35.983,328.167 35.731 C 328.167 35.452,328.072 35.333,327.852 35.333 C 327.625 35.333,327.507 35.173,327.429 34.755 C 327.369 34.436,327.219 34.117,327.095 34.046 C 326.972 33.975,326.843 33.767,326.809 33.583 C 326.773 33.390,326.590 33.228,326.373 33.197 C 326.067 33.153,326.000 33.037,326.000 32.556 C 326.000 32.109,325.920 31.948,325.667 31.882 C 325.475 31.832,325.333 31.654,325.333 31.465 C 325.333 31.276,325.192 31.098,325.000 31.048 C 324.747 30.982,324.667 30.821,324.667 30.382 C 324.667 29.942,324.586 29.781,324.333 29.715 C 324.149 29.667,324.000 29.488,324.000 29.314 C 324.000 29.090,323.880 29.000,323.583 29.000 C 323.201 29.000,323.167 28.939,323.167 28.250 C 323.167 27.611,323.117 27.500,322.833 27.500 C 322.549 27.500,322.500 27.389,322.500 26.750 C 322.500 26.111,322.549 26.000,322.833 26.000 C 323.056 26.000,323.167 25.889,323.167 25.667 C 323.167 25.443,323.278 25.333,323.505 25.333 C 323.691 25.333,323.891 25.202,323.949 25.042 C 324.006 24.881,324.191 24.616,324.360 24.452 C 324.529 24.288,324.667 23.932,324.667 23.660 C 324.667 23.278,324.742 23.167,325.000 23.167 C 325.222 23.167,325.333 23.056,325.333 22.833 C 325.333 22.611,325.444 22.500,325.667 22.500 C 325.885 22.500,326.000 22.389,326.000 22.178 C 326.000 21.971,326.134 21.837,326.375 21.803 C 326.610 21.770,326.769 21.616,326.801 21.392 C 326.829 21.195,326.998 20.996,327.176 20.949 C 327.421 20.885,327.500 20.719,327.500 20.266 C 327.500 19.778,327.562 19.667,327.833 19.667 C 328.052 19.667,328.167 19.556,328.167 19.345 C 328.167 19.138,328.301 19.004,328.542 18.970 C 328.783 18.936,328.936 18.783,328.970 18.542 C 329.004 18.301,329.138 18.167,329.345 18.167 C 329.577 18.167,329.667 18.051,329.667 17.750 C 329.667 17.492,329.761 17.333,329.915 17.333 C 330.075 17.333,330.200 17.098,330.269 16.667 C 330.350 16.164,330.453 16.000,330.688 16.000 C 330.976 16.000,331.000 15.841,331.000 13.917 C 331.000 11.944,330.982 11.833,330.667 11.833 C 330.448 11.833,330.333 11.722,330.333 11.511 C 330.333 11.330,330.180 11.140,329.984 11.078 C 329.791 11.017,329.491 10.824,329.317 10.650 C 328.396 9.729,324.667 10.344,324.667 11.417 C 324.667 11.722,324.578 11.833,324.333 11.833 C 324.115 11.833,324.000 11.944,324.000 12.155 C 324.000 12.362,323.866 12.496,323.625 12.530 C 323.396 12.563,323.258 12.692,323.271 12.862 C 323.283 13.026,323.129 13.182,322.896 13.240 C 322.562 13.324,322.500 13.444,322.500 14.003 C 322.500 14.556,322.444 14.667,322.167 14.667 C 321.944 14.667,321.833 14.778,321.833 15.000 C 321.833 15.221,321.722 15.333,321.503 15.333 C 321.293 15.333,321.136 15.480,321.072 15.734 C 321.017 15.955,320.828 16.173,320.653 16.219 C 320.413 16.281,320.333 16.451,320.333 16.901 C 320.333 17.382,320.270 17.500,320.012 17.500 C 319.805 17.500,319.671 17.634,319.637 17.875 C 319.601 18.125,319.486 18.234,319.292 18.201 C 319.079 18.165,319.000 18.264,319.000 18.564 C 319.000 18.865,318.898 18.991,318.625 19.030 C 318.390 19.064,318.241 19.207,318.226 19.417 C 318.213 19.600,318.194 19.881,318.184 20.042 C 318.174 20.216,318.033 20.333,317.833 20.333 C 317.618 20.333,317.500 20.444,317.500 20.647 C 317.500 20.821,317.351 21.000,317.167 21.048 C 316.967 21.100,316.833 21.276,316.833 21.484 C 316.833 21.714,316.727 21.833,316.521 21.833 C 316.205 21.833,315.894 22.694,316.094 23.017 C 316.145 23.099,315.994 23.167,315.760 23.167 L 315.333 23.167 315.333 17.500 C 315.333 12.012,315.323 11.833,315.012 11.833 C 314.805 11.833,314.671 11.699,314.637 11.458 C 314.607 11.252,314.471 11.083,314.333 11.083 C 314.196 11.083,314.043 10.933,313.993 10.750 C 313.908 10.439,313.740 10.414,311.451 10.371 L 309.000 10.324 309.000 10.744 M336.147 10.625 C 336.136 10.785,336.132 10.960,336.137 11.012 C 336.143 11.065,335.983 11.102,335.782 11.096 C 335.525 11.087,335.401 11.195,335.363 11.458 C 335.329 11.699,335.195 11.833,334.988 11.833 C 334.673 11.833,334.667 12.150,334.667 28.917 C 334.667 45.889,334.669 46.000,335.000 46.000 C 335.244 46.000,335.333 46.111,335.333 46.417 C 335.333 46.937,335.877 47.500,336.380 47.500 C 336.588 47.500,336.888 47.650,337.045 47.833 C 337.474 48.335,340.154 48.335,340.285 47.833 C 340.354 47.570,340.512 47.500,341.035 47.500 C 341.554 47.500,341.716 47.429,341.784 47.172 C 341.831 46.992,342.011 46.799,342.185 46.744 C 342.685 46.585,342.679 11.833,342.178 11.833 C 341.971 11.833,341.837 11.699,341.803 11.458 C 341.768 11.212,341.635 11.083,341.417 11.083 C 341.198 11.083,341.065 10.954,341.030 10.708 C 340.956 10.189,336.182 10.108,336.147 10.625 M376.833 10.627 C 376.833 10.789,376.665 10.995,376.458 11.086 C 376.161 11.217,376.087 11.379,376.102 11.867 C 376.117 12.374,376.057 12.492,375.768 12.533 L 375.417 12.583 375.371 28.917 C 375.324 45.539,375.334 46.000,375.735 46.000 C 375.861 46.000,376.011 46.188,376.068 46.417 C 376.136 46.686,376.290 46.833,376.503 46.833 C 376.722 46.833,376.833 46.946,376.833 47.167 C 376.833 47.443,376.944 47.500,377.489 47.500 C 377.998 47.500,378.168 47.574,378.250 47.833 C 378.344 48.130,378.502 48.167,379.678 48.167 C 380.889 48.167,381.000 48.139,381.000 47.833 C 381.000 47.549,381.111 47.500,381.750 47.500 C 382.389 47.500,382.500 47.451,382.500 47.167 C 382.500 46.944,382.611 46.833,382.833 46.833 C 383.121 46.833,383.167 46.722,383.167 46.019 C 383.167 45.346,383.224 45.191,383.500 45.118 C 383.699 45.066,383.833 44.891,383.833 44.684 C 383.833 44.493,383.683 44.242,383.500 44.128 C 383.175 43.925,383.167 43.739,383.167 36.316 L 383.167 28.713 383.583 28.793 C 383.952 28.863,384.000 28.956,384.000 29.603 C 384.000 30.222,384.051 30.333,384.333 30.333 C 384.610 30.333,384.667 30.444,384.667 30.989 C 384.667 31.498,384.741 31.668,385.000 31.750 C 385.250 31.829,385.333 32.002,385.333 32.444 C 385.333 32.884,385.414 33.052,385.655 33.115 C 385.877 33.173,386.011 33.406,386.090 33.870 C 386.167 34.328,386.303 34.567,386.518 34.623 C 386.716 34.675,386.833 34.853,386.833 35.103 C 386.833 35.321,386.983 35.650,387.167 35.833 C 387.350 36.017,387.500 36.286,387.500 36.432 C 387.500 36.578,387.650 36.737,387.833 36.785 C 388.142 36.866,388.266 37.287,388.179 37.958 C 388.164 38.077,388.334 38.167,388.576 38.167 C 388.967 38.167,389.000 38.224,389.000 38.917 C 389.000 39.556,389.049 39.667,389.333 39.667 C 389.611 39.667,389.667 39.778,389.667 40.333 C 389.667 40.889,389.722 41.000,390.000 41.000 C 390.279 41.000,390.333 41.111,390.333 41.682 C 390.333 42.211,390.404 42.383,390.648 42.447 C 390.862 42.503,390.995 42.737,391.066 43.181 C 391.147 43.686,391.245 43.833,391.502 43.833 C 391.784 43.833,391.833 43.946,391.833 44.583 C 391.833 45.222,391.883 45.333,392.167 45.333 C 392.389 45.333,392.500 45.444,392.500 45.667 C 392.500 45.885,392.611 46.000,392.822 46.000 C 393.029 46.000,393.163 46.134,393.197 46.375 C 393.231 46.616,393.384 46.769,393.625 46.803 C 393.866 46.837,394.000 46.971,394.000 47.178 C 394.000 47.375,394.115 47.500,394.296 47.500 C 394.459 47.500,394.721 47.650,394.878 47.833 C 395.122 48.119,395.370 48.167,396.597 48.167 C 397.891 48.167,398.040 48.134,398.118 47.833 C 398.187 47.570,398.346 47.500,398.868 47.500 C 399.391 47.500,399.550 47.430,399.618 47.167 C 399.666 46.983,399.772 46.833,399.853 46.833 C 399.937 46.833,400.000 39.208,400.000 29.000 C 400.000 9.813,400.048 11.024,399.288 11.148 C 399.217 11.160,399.088 10.981,399.000 10.751 L 398.842 10.333 396.421 10.333 L 394.000 10.333 394.000 10.722 C 394.000 11.016,393.910 11.107,393.628 11.097 C 393.423 11.089,393.245 11.177,393.232 11.292 C 393.219 11.406,393.199 11.575,393.188 11.667 C 393.176 11.758,393.017 11.833,392.833 11.833 C 392.504 11.833,392.500 11.944,392.500 20.068 C 392.500 28.220,392.497 28.301,392.167 28.215 C 391.906 28.147,391.833 27.988,391.833 27.481 C 391.833 26.901,391.790 26.833,391.417 26.833 C 391.034 26.833,391.000 26.772,391.000 26.083 C 391.000 25.444,390.951 25.333,390.667 25.333 C 390.389 25.333,390.333 25.222,390.333 24.667 C 390.333 24.111,390.278 24.000,390.000 24.000 C 389.721 24.000,389.667 23.889,389.667 23.318 C 389.667 22.782,389.597 22.617,389.342 22.551 C 389.109 22.490,389.004 22.295,388.967 21.858 C 388.931 21.416,388.814 21.205,388.542 21.085 C 388.248 20.957,388.167 20.784,388.167 20.294 C 388.167 19.778,388.108 19.667,387.833 19.667 C 387.554 19.667,387.500 19.556,387.500 18.984 C 387.500 18.442,387.432 18.284,387.167 18.215 C 386.955 18.160,386.833 17.988,386.833 17.744 C 386.833 17.142,386.658 16.833,386.316 16.833 C 386.057 16.833,386.000 16.709,386.000 16.151 C 386.000 15.609,385.932 15.451,385.667 15.382 C 385.414 15.316,385.333 15.154,385.333 14.715 C 385.333 14.276,385.253 14.114,385.000 14.048 C 384.784 13.992,384.667 13.821,384.667 13.564 C 384.667 13.282,384.573 13.167,384.343 13.167 C 384.090 13.167,384.009 13.031,383.968 12.542 C 383.927 12.040,383.843 11.906,383.542 11.863 C 383.294 11.828,383.167 11.696,383.167 11.473 C 383.167 11.281,383.029 11.100,382.849 11.052 C 382.674 11.007,382.493 10.826,382.448 10.651 C 382.324 10.179,376.833 10.156,376.833 10.627 M198.333 17.833 C 198.333 18.111,198.444 18.167,199.000 18.167 C 199.565 18.167,199.667 18.220,199.667 18.516 C 199.667 18.724,199.801 18.900,200.000 18.952 C 200.306 19.032,200.333 19.179,200.333 20.769 C 200.333 22.389,200.312 22.500,200.000 22.500 C 199.778 22.500,199.667 22.611,199.667 22.833 C 199.667 23.056,199.556 23.167,199.333 23.167 C 199.089 23.167,199.000 23.278,199.000 23.583 L 199.000 24.000 195.750 24.000 L 192.500 24.000 192.500 20.750 L 192.500 17.500 195.417 17.500 C 198.222 17.500,198.333 17.513,198.333 17.833 M293.250 17.833 C 293.332 18.092,293.502 18.167,294.011 18.167 C 294.565 18.167,294.667 18.221,294.667 18.516 C 294.667 18.718,294.799 18.899,294.982 18.947 C 295.169 18.996,295.338 19.234,295.398 19.530 C 295.453 19.809,295.628 20.065,295.791 20.108 C 296.310 20.245,296.235 24.000,295.713 24.000 C 295.444 24.000,295.333 24.097,295.333 24.333 C 295.333 24.556,295.222 24.667,295.000 24.667 C 294.778 24.667,294.667 24.778,294.667 25.000 C 294.667 25.222,294.556 25.333,294.333 25.333 C 294.120 25.333,294.000 25.444,294.000 25.642 C 294.000 25.987,292.354 26.164,289.125 26.166 L 287.500 26.167 287.500 21.833 L 287.500 17.500 290.322 17.500 C 292.998 17.500,293.150 17.517,293.250 17.833 M18.444 18.444 C 18.215 18.674,18.345 19.000,18.667 19.000 C 18.889 19.000,19.000 18.889,19.000 18.667 C 19.000 18.345,18.674 18.215,18.444 18.444 M112.528 25.100 C 112.576 26.066,112.661 26.417,112.885 26.581 C 113.100 26.738,113.189 27.061,113.215 27.773 C 113.246 28.647,113.290 28.756,113.625 28.803 C 113.969 28.852,114.000 28.944,114.000 29.928 C 114.000 30.889,114.035 31.000,114.333 31.000 C 114.632 31.000,114.667 31.111,114.667 32.083 L 114.667 33.167 112.167 33.167 L 109.667 33.167 109.667 32.083 C 109.667 31.111,109.701 31.000,110.000 31.000 C 110.307 31.000,110.333 30.889,110.333 29.583 C 110.333 28.278,110.359 28.167,110.667 28.167 C 110.965 28.167,111.000 28.056,111.000 27.095 C 111.000 26.110,111.031 26.019,111.375 25.970 C 111.712 25.922,111.755 25.811,111.800 24.875 C 111.880 23.185,112.440 23.357,112.528 25.100 M359.345 25.173 C 359.608 25.314,359.667 25.528,359.667 26.355 C 359.667 27.217,359.714 27.377,359.993 27.450 C 360.264 27.521,360.327 27.706,360.368 28.559 C 360.412 29.485,360.454 29.589,360.802 29.638 C 361.138 29.686,361.173 29.758,361.077 30.197 C 360.878 31.103,361.142 32.500,361.512 32.500 C 361.722 32.500,361.833 32.615,361.833 32.833 C 361.833 33.154,361.722 33.167,358.917 33.167 C 356.111 33.167,356.000 33.154,356.000 32.833 C 356.000 32.650,356.110 32.500,356.244 32.500 C 356.638 32.500,356.833 31.930,356.833 30.780 C 356.833 29.846,356.877 29.694,357.167 29.618 C 357.453 29.543,357.500 29.391,357.500 28.535 C 357.500 27.679,357.547 27.527,357.833 27.452 C 358.132 27.374,358.167 27.224,358.167 26.016 C 358.167 24.778,358.194 24.667,358.500 24.667 C 358.683 24.667,358.844 24.573,358.856 24.458 C 358.869 24.344,358.911 24.419,358.951 24.625 C 358.991 24.832,359.168 25.078,359.345 25.173 M199.667 31.349 C 199.667 31.558,199.801 31.733,200.000 31.785 C 200.184 31.833,200.333 32.012,200.333 32.186 C 200.333 32.401,200.452 32.500,200.708 32.500 L 201.083 32.500 201.027 35.286 C 200.976 37.804,200.939 38.094,200.652 38.296 C 200.443 38.442,200.333 38.717,200.333 39.093 C 200.333 39.556,200.269 39.667,200.000 39.667 C 199.778 39.667,199.667 39.778,199.667 40.000 C 199.667 40.323,199.556 40.333,196.083 40.333 L 192.500 40.333 192.500 35.667 L 192.500 31.000 196.083 31.000 C 199.609 31.000,199.667 31.006,199.667 31.349 M30.792 42.680 C 30.400 42.908,30.422 43.167,30.833 43.167 C 31.056 43.167,31.167 43.056,31.167 42.833 C 31.167 42.451,31.177 42.455,30.792 42.680 M21.000 47.839 C 21.000 48.127,21.051 48.151,21.333 48.000 C 21.517 47.902,21.667 47.749,21.667 47.661 C 21.667 47.572,21.517 47.500,21.333 47.500 C 21.109 47.500,21.000 47.611,21.000 47.839 M27.500 52.814 C 27.500 52.988,27.649 53.167,27.833 53.215 C 28.233 53.320,28.264 53.121,27.905 52.762 C 27.566 52.423,27.500 52.432,27.500 52.814 M0.000 55.667 C 0.000 55.850,0.075 56.000,0.167 56.000 C 0.258 56.000,0.333 55.850,0.333 55.667 C 0.333 55.483,0.258 55.333,0.167 55.333 C 0.075 55.333,0.000 55.483,0.000 55.667 M0.531 56.290 C 0.615 56.724,1.167 56.773,1.167 56.346 C 1.167 56.107,1.060 56.000,0.821 56.000 C 0.583 56.000,0.493 56.090,0.531 56.290 " stroke="none" fill="#343434" fill-rule="evenodd"></path><path id="path2" d="M45.133 9.863 C 44.992 10.210,45.376 10.556,45.784 10.450 C 46.026 10.387,46.014 10.368,45.720 10.353 C 45.478 10.340,45.338 10.208,45.302 9.958 C 45.256 9.648,45.227 9.632,45.133 9.863 M8.247 28.833 C 8.247 38.046,8.267 41.815,8.292 37.208 C 8.316 32.602,8.316 25.065,8.292 20.458 C 8.267 15.852,8.247 19.621,8.247 28.833 M13.913 28.917 C 13.913 36.433,13.933 39.484,13.958 35.696 C 13.983 31.908,13.983 25.758,13.958 22.029 C 13.933 18.301,13.913 21.400,13.913 28.917 M22.217 18.291 C 23.208 18.321,24.783 18.321,25.717 18.291 C 26.652 18.261,25.842 18.237,23.917 18.237 C 21.992 18.237,21.227 18.262,22.217 18.291 M31.167 42.822 C 31.167 43.020,31.023 43.174,30.792 43.224 C 30.438 43.300,30.439 43.303,30.815 43.277 C 31.199 43.251,31.694 42.500,31.328 42.500 C 31.239 42.500,31.167 42.645,31.167 42.822 M0.125 55.277 C 0.240 55.323,0.333 55.505,0.333 55.681 C 0.333 55.879,0.444 55.995,0.625 55.987 C 0.799 55.979,0.833 55.940,0.708 55.890 C 0.594 55.843,0.500 55.662,0.500 55.486 C 0.500 55.288,0.389 55.172,0.208 55.180 C 0.034 55.188,0.001 55.227,0.125 55.277 " stroke="none" fill="#2c90b0" fill-rule="evenodd"></path><path id="path3" d="M288.542 26.124 C 289.160 26.156,290.173 26.156,290.792 26.124 C 291.410 26.092,290.904 26.065,289.667 26.065 C 288.429 26.065,287.923 26.092,288.542 26.124 " stroke="none" fill="#2c645c" fill-rule="evenodd"></path><path id="path4" d="" stroke="none" fill="#2c3460" fill-rule="evenodd"></path></g></svg>