<svg width="357" height="416" viewBox="0 0 357 416" fill="none" xmlns="http://www.w3.org/2000/svg">
<path d="M6.22594 144.325C6.22594 145.933 6.77485 146.664 7.98247 146.664H34.3305C44.6502 146.664 50.1394 139.355 50.1394 125.614V50.9157C50.1394 37.1748 44.6502 29.7196 34.3305 29.7196H7.98247C6.77485 29.7196 6.22594 30.5967 6.22594 32.0585V144.325ZM21.1565 127.368V49.0154H31.2566C34.111 49.0154 35.6479 51.0619 35.6479 55.0087V121.521C35.6479 125.467 34.111 127.368 31.2566 127.368H21.1565ZM104.921 32.0585C104.921 30.5967 104.482 29.7196 103.165 29.7196H62.7645C61.7764 29.7196 61.1177 30.5967 61.1177 32.0585V144.325C61.1177 145.787 61.7764 146.664 62.7645 146.664H103.165C104.482 146.664 104.921 145.787 104.921 144.325V129.707C104.921 128.099 104.482 127.368 103.165 127.368H75.719V97.8395H96.6876C97.7855 97.8395 98.4442 96.9624 98.4442 95.3544V80.8826C98.4442 79.2746 97.7855 78.3975 96.6876 78.3975H75.719V49.1615H103.165C104.482 49.1615 104.921 48.1383 104.921 46.6765V32.0585ZM154.217 29.7196C152.899 29.7196 152.131 30.5967 151.802 32.3508L140.165 110.703L128.637 32.3508C128.308 30.5967 127.539 29.7196 126.222 29.7196H115.793C114.146 29.7196 113.487 30.889 113.816 32.9356L132.26 144.032C132.589 145.787 133.358 146.664 134.675 146.664H145.654C146.971 146.664 147.74 145.787 148.069 144.032L166.622 32.9356C166.952 30.889 166.293 29.7196 164.646 29.7196H154.217Z" fill="#065772"/>
<path d="M22.0348 269.476C11.8249 269.476 6.22594 276.785 6.22594 290.526V325.024C6.22594 327.802 7.21399 329.556 9.19009 330.433L35.2088 341.835V361.277C35.2088 365.224 33.6718 367.124 30.8175 367.124H25.5478C22.8033 367.124 21.1565 365.224 21.1565 361.277V350.021C21.1565 348.413 20.6076 347.682 19.4 347.682H7.98247C6.88464 347.682 6.22594 348.413 6.22594 350.021V365.37C6.22594 379.111 11.8249 386.42 22.0348 386.42H34.3305C44.6502 386.42 50.1394 379.111 50.1394 365.37V331.602C50.1394 328.825 49.1513 327.217 47.285 326.194L21.1565 314.792V294.619C21.1565 290.818 22.8033 288.772 25.5478 288.772H30.8175C33.7816 288.772 35.2088 290.818 35.2088 294.619V306.021C35.2088 307.483 35.8675 308.36 36.9653 308.36H48.3828C49.5905 308.36 50.1394 307.483 50.1394 306.021V290.526C50.1394 276.785 44.6502 269.476 34.3305 269.476H22.0348ZM104.921 271.815C104.921 270.353 104.482 269.476 103.165 269.476H62.7645C61.7764 269.476 61.1177 270.353 61.1177 271.815V384.081C61.1177 385.543 61.7764 386.42 62.7645 386.42H103.165C104.482 386.42 104.921 385.543 104.921 384.081V369.463C104.921 367.855 104.482 367.124 103.165 367.124H75.719V337.596H96.6876C97.7855 337.596 98.4442 336.719 98.4442 335.111V320.639C98.4442 319.031 97.7855 318.154 96.6876 318.154H75.719V288.918H103.165C104.482 288.918 104.921 287.895 104.921 286.433V271.815ZM128.388 269.476C118.178 269.476 112.579 276.785 112.579 290.526V325.024C112.579 327.802 113.567 329.556 115.543 330.433L141.562 341.835V361.277C141.562 365.224 140.025 367.124 137.17 367.124H131.901C129.156 367.124 127.509 365.224 127.509 361.277V350.021C127.509 348.413 126.96 347.682 125.753 347.682H114.335C113.237 347.682 112.579 348.413 112.579 350.021V365.37C112.579 379.111 118.178 386.42 128.388 386.42H140.683C151.003 386.42 156.492 379.111 156.492 365.37V331.602C156.492 328.825 155.504 327.217 153.638 326.194L127.509 314.792V294.619C127.509 290.818 129.156 288.772 131.901 288.772H137.17C140.134 288.772 141.562 290.818 141.562 294.619V306.021C141.562 307.483 142.22 308.36 143.318 308.36H154.736C155.943 308.36 156.492 307.483 156.492 306.021V290.526C156.492 276.785 151.003 269.476 140.683 269.476H128.388ZM183.279 269.476C173.07 269.476 167.471 276.785 167.471 290.526V325.024C167.471 327.802 168.459 329.556 170.435 330.433L196.453 341.835V361.277C196.453 365.224 194.916 367.124 192.062 367.124H186.793C184.048 367.124 182.401 365.224 182.401 361.277V350.021C182.401 348.413 181.852 347.682 180.645 347.682H169.227C168.129 347.682 167.471 348.413 167.471 350.021V365.37C167.471 379.111 173.07 386.42 183.279 386.42H195.575C205.895 386.42 211.384 379.111 211.384 365.37V331.602C211.384 328.825 210.396 327.217 208.53 326.194L182.401 314.792V294.619C182.401 290.818 184.048 288.772 186.793 288.772H192.062C195.026 288.772 196.453 290.818 196.453 294.619V306.021C196.453 307.483 197.112 308.36 198.21 308.36H209.627C210.835 308.36 211.384 307.483 211.384 306.021V290.526C211.384 276.785 205.895 269.476 195.575 269.476H183.279ZM224.119 269.476C222.911 269.476 222.362 270.353 222.362 271.815V384.081C222.362 385.543 222.911 386.42 224.119 386.42H235.536C236.634 386.42 237.293 385.543 237.293 384.081V271.815C237.293 270.353 236.634 269.476 235.536 269.476H224.119ZM248.307 365.37C248.307 379.111 253.797 386.42 264.116 386.42H276.412C286.732 386.42 292.221 379.111 292.221 365.37V290.526C292.221 276.785 286.732 269.476 276.412 269.476H264.116C253.797 269.476 248.307 276.785 248.307 290.526V365.37ZM267.3 367.563C264.446 367.563 262.909 365.662 262.909 361.715V294.18C262.909 290.38 264.446 288.333 267.3 288.333H273.667C276.522 288.333 278.059 290.38 278.059 294.18V361.715C278.059 365.662 276.522 367.563 273.667 367.563H267.3ZM336.903 269.476C335.695 269.476 335.146 270.353 335.146 271.815V333.503H334.487L317.8 271.376C317.471 270.061 316.812 269.476 315.824 269.476H304.956C303.858 269.476 303.199 270.353 303.199 271.815V384.081C303.199 385.543 303.858 386.42 304.956 386.42H316.373C317.581 386.42 318.13 385.543 318.13 384.081V322.101H318.679L335.476 384.52C335.805 385.835 336.464 386.42 337.452 386.42H348.32C349.418 386.42 350.077 385.543 350.077 384.081V271.815C350.077 270.353 349.418 269.476 348.32 269.476H336.903Z" fill="#065772"/>
</svg>
