<!DOCTYPE svg PUBLIC "-//W3C//DTD SVG 20010904//EN" "http://www.w3.org/TR/2001/REC-SVG-20010904/DTD/svg10.dtd">
<svg version="1.0" xmlns="http://www.w3.org/2000/svg" width="410px" height="410px" viewBox="0 0 4100 4100" preserveAspectRatio="xMidYMid meet">
<g id="layer101" fill="#033d56" stroke="none">
 <path d="M10 2050 l0 -2040 2040 0 2040 0 0 2040 0 2040 -2040 0 -2040 0 0 -2040z"/>
 </g>
<g id="layer102" fill="#055e85" stroke="none">
 <path d="M10 2050 l0 -2040 2040 0 2040 0 0 2040 0 2040 -2040 0 -2040 0 0 -2040z m659 1856 c7 -9 11 -40 9 -78 l-3 -63 -42 -3 -43 -3 0 -349 0 -349 43 -3 42 -3 3 -54 c2 -37 -1 -57 -10 -62 -19 -13 -338 -11 -338 1 0 6 6 10 13 11 9 0 10 2 0 6 -17 6 -17 40 0 46 9 4 9 8 -2 15 -8 6 -11 17 -7 27 5 13 16 16 56 13 28 -1 50 0 50 5 0 4 -4 7 -10 7 -6 0 -10 122 -10 345 l0 345 -40 0 c-43 0 -66 24 -39 41 10 6 10 9 2 9 -14 0 -19 91 -6 103 3 4 77 7 163 7 124 0 160 -3 169 -14z m499 -418 l2 -427 148 -3 147 -3 3 -64 c2 -40 -1 -68 -9 -75 -8 -8 -13 -8 -16 2 -7 17 -699 18 -705 0 -2 -6 -10 -8 -16 -4 -16 10 -16 118 0 134 8 8 56 12 150 12 l138 0 0 423 c0 233 3 427 7 431 4 4 39 5 78 4 l70 -3 3 -427z m1692 -1303 c0 -8 -4 -15 -10 -15 -5 0 -10 7 -10 15 0 8 5 15 10 15 6 0 10 -7 10 -15z m1060 0 c0 -8 -4 -15 -10 -15 -5 0 -10 7 -10 15 0 8 5 15 10 15 6 0 10 -7 10 -15z"/>
 </g>
<g id="layer103" fill="#089fe0" stroke="none">
 <path d="M10 2050 l0 -2040 2040 0 2040 0 0 2040 0 2040 -2040 0 -2040 0 0 -2040z m659 1856 c7 -9 11 -40 9 -78 l-3 -63 -42 -3 -43 -3 0 -349 0 -349 43 -3 42 -3 0 -70 0 -70 -170 0 -170 0 0 70 0 70 43 3 42 3 0 349 0 349 -42 3 -43 3 -3 64 c-2 35 -1 70 2 77 8 21 319 20 335 0z m499 -418 l2 -427 148 -3 147 -3 0 -70 0 -70 -375 0 -375 0 -3 58 c-2 35 2 64 9 73 9 11 43 14 150 14 l139 0 0 423 c0 233 3 427 7 431 4 4 39 5 78 4 l70 -3 3 -427z m772 -709 c0 -8 11 -9 32 -5 71 14 187 -82 227 -187 20 -55 21 -74 21 -412 0 -195 -3 -356 -8 -359 -4 -2 -37 -6 -72 -7 -64 -3 -65 -2 -68 25 -3 22 -6 25 -18 15 -8 -6 -14 -8 -14 -4 0 4 -8 -3 -18 -15 -10 -13 -30 -22 -47 -23 -17 -1 -33 -6 -37 -12 -11 -16 -137 -12 -147 4 -5 7 -14 11 -19 7 -15 -9 -70 16 -117 53 -168 135 -182 423 -27 574 59 57 118 88 150 80 14 -3 27 -1 32 7 12 19 94 25 111 8 8 -8 29 -15 46 -15 19 0 46 -11 68 -28 l37 -28 -7 34 c-11 53 -37 101 -68 123 -25 19 -47 22 -205 26 l-177 5 -3 59 c-2 32 -1 65 2 72 7 18 326 21 326 3z m-653 -280 c78 -38 143 -110 175 -193 17 -48 22 -81 22 -152 0 -79 -4 -98 -31 -156 -41 -88 -92 -141 -170 -180 -57 -28 -76 -32 -147 -32 -72 -1 -89 3 -148 32 -66 32 -144 104 -133 122 4 6 -1 13 -10 16 -21 8 -42 61 -56 140 -27 155 47 321 174 394 38 22 60 28 80 24 15 -3 27 -1 27 4 0 33 135 21 217 -19z m1417 25 c9 -8 24 -13 33 -10 10 3 36 -5 58 -18 l39 -24 11 21 c9 19 19 22 80 22 l70 0 0 -350 0 -350 -73 -3 c-67 -3 -74 -1 -79 17 -5 20 -6 20 -47 -4 -63 -37 -135 -49 -209 -36 -34 6 -67 18 -73 26 -6 8 -14 12 -17 9 -17 -17 -144 96 -132 117 4 5 2 9 -4 9 -17 0 -49 72 -61 138 -20 112 10 233 81 322 49 62 132 113 172 104 15 -3 27 -1 27 4 0 24 102 29 124 6z m1138 -23 c56 -29 57 -29 60 -7 3 19 10 21 69 24 47 2 69 -1 78 -11 8 -11 11 -106 9 -353 l-3 -339 -73 -3 c-67 -3 -74 -1 -79 18 -7 25 -7 25 -43 -1 -73 -55 -206 -58 -307 -9 -215 106 -268 415 -103 603 49 55 130 100 164 91 16 -4 26 -2 26 4 0 32 126 22 202 -17z m-3644 7 c9 -9 12 -69 12 -210 l0 -198 69 0 68 0 120 208 119 207 77 3 c60 2 79 0 83 -12 6 -15 -108 -222 -135 -243 -8 -7 -15 -21 -16 -30 -1 -10 -20 -49 -43 -87 l-40 -69 51 -31 c59 -35 111 -100 127 -154 13 -47 13 -136 0 -184 -17 -59 -81 -132 -142 -161 -62 -30 -128 -45 -128 -28 0 6 -17 11 -40 11 -22 0 -40 -4 -40 -10 0 -5 -18 -10 -40 -10 -22 0 -40 5 -40 10 0 15 -77 12 -84 -2 -5 -10 -7 -10 -12 0 -7 15 -64 16 -64 1 0 -6 -12 -9 -28 -7 l-27 3 -3 490 c-1 270 0 496 3 503 6 16 136 17 153 0z m3071 -2 c8 -9 10 -157 9 -532 l-3 -519 -75 0 -75 0 -3 520 c-1 286 0 526 3 533 6 17 129 16 144 -2z"/>
 <path d="M1803 2377 c-80 -30 -126 -110 -126 -220 0 -59 5 -77 35 -135 20 -37 40 -66 46 -65 6 2 27 -4 46 -12 50 -21 93 -18 152 9 45 21 55 32 80 82 23 47 28 72 28 124 -1 137 -79 228 -194 228 -19 0 -49 -5 -67 -11z"/>
 <path d="M1067 2376 c-74 -27 -114 -88 -124 -189 -9 -104 27 -190 97 -231 26 -15 53 -21 105 -22 70 0 70 0 110 42 65 69 70 78 73 124 2 24 8 48 15 52 9 6 9 10 0 16 -7 4 -13 28 -15 52 -2 25 -10 50 -18 57 -8 6 -12 15 -8 18 4 4 -13 24 -38 45 -61 50 -124 62 -197 36z"/>
 <path d="M2577 2375 c-55 -19 -84 -50 -108 -114 -26 -70 -22 -166 10 -228 53 -104 194 -134 287 -61 94 74 97 290 6 371 -48 43 -129 56 -195 32z"/>
 <path d="M3630 2374 c-84 -37 -115 -95 -115 -224 -1 -71 3 -98 15 -111 8 -9 23 -29 34 -44 39 -57 140 -80 213 -50 86 36 117 94 119 224 1 99 3 96 -58 162 -51 56 -137 74 -208 43z"/>
 <path d="M195 1960 c-3 -5 -1 -10 4 -10 7 0 11 -50 11 -145 l0 -145 113 0 c93 0 117 3 144 20 32 19 63 66 63 95 0 8 5 15 10 15 12 0 14 37 3 42 -5 2 -16 20 -25 40 -24 52 -57 70 -138 76 -39 2 -70 9 -70 13 0 14 -78 10 -83 -3 -4 -10 -6 -10 -6 0 -1 14 -17 16 -26 2z"/>
 </g>
<g id="layer104" fill="#72d2f7" stroke="none">
 <path d="M10 2050 l0 -2040 2040 0 2040 0 0 2040 0 2040 -2040 0 -2040 0 0 -2040z m659 1856 c7 -9 11 -40 9 -78 l-3 -63 -42 -3 -43 -3 0 -349 0 -349 43 -3 42 -3 0 -70 0 -70 -170 0 -170 0 0 70 0 70 43 3 42 3 0 349 0 349 -42 3 -43 3 -3 64 c-2 35 -1 70 2 77 8 21 319 20 335 0z m499 -418 l2 -427 148 -3 147 -3 0 -70 0 -70 -375 0 -375 0 -3 58 c-2 35 2 64 9 73 9 11 43 14 150 14 l139 0 0 423 c0 233 3 427 7 431 4 4 39 5 78 4 l70 -3 3 -427z m847 -715 c70 -24 156 -110 184 -186 20 -55 21 -76 21 -412 0 -195 -3 -356 -8 -359 -4 -2 -37 -5 -72 -7 l-65 -2 1 31 c2 36 -10 42 -25 13 -6 -10 -32 -29 -58 -42 -38 -18 -64 -23 -128 -22 -90 0 -143 19 -210 73 -168 134 -182 421 -27 573 72 70 138 99 231 101 82 1 124 -11 180 -52 l33 -25 -7 34 c-11 53 -37 101 -68 123 -25 19 -47 22 -205 26 l-177 5 -3 59 c-2 32 -1 65 2 72 8 22 336 20 401 -3z m-765 -254 c16 -6 30 -15 30 -21 0 -5 4 -7 9 -4 13 8 83 -45 119 -91 54 -69 75 -135 75 -243 1 -87 -2 -102 -30 -162 -41 -88 -92 -141 -170 -180 -57 -28 -76 -32 -147 -32 -72 -1 -89 3 -148 32 -112 55 -175 143 -199 277 -34 198 91 397 273 435 49 10 143 4 188 -11z m1535 -18 l51 -29 10 22 c8 19 17 21 79 21 l70 0 0 -350 0 -350 -73 -3 c-66 -3 -74 -1 -79 16 -4 19 -8 18 -65 -11 -51 -27 -71 -31 -132 -31 -73 0 -146 18 -146 35 0 6 -4 8 -9 5 -5 -3 -27 7 -49 23 -173 126 -197 406 -49 576 95 110 271 144 392 76z m1057 0 c56 -29 57 -29 60 -7 3 19 10 21 69 24 47 2 69 -1 78 -11 8 -11 11 -106 9 -353 l-3 -339 -73 -3 c-70 -3 -72 -2 -82 24 l-10 26 -23 -24 c-33 -35 -90 -52 -174 -52 -302 3 -453 398 -243 637 99 112 261 145 392 78z m-3644 7 c9 -9 12 -69 12 -210 l0 -198 69 0 68 0 120 208 119 207 77 3 c60 2 79 0 83 -11 3 -8 -49 -108 -114 -223 l-120 -208 51 -30 c59 -35 112 -100 127 -154 13 -47 13 -136 0 -184 -17 -60 -81 -132 -147 -164 l-58 -29 -220 0 -220 0 -3 490 c-1 270 0 496 3 503 6 16 136 17 153 0z m3071 -2 c8 -9 10 -157 9 -532 l-3 -519 -75 0 -75 0 -3 520 c-1 286 0 526 3 533 6 17 129 16 144 -2z m-2128 -1238 c4 -6 12 -8 18 -4 6 4 18 -2 27 -13 9 -10 23 -17 29 -14 7 2 20 -5 28 -17 8 -12 18 -17 21 -12 3 6 0 12 -6 15 -10 3 -10 9 -2 23 9 16 23 19 80 19 l69 0 3 -344 c1 -228 -1 -348 -8 -356 -8 -9 -21 -10 -47 -5 -20 5 -49 6 -65 3 -20 -4 -29 -1 -34 12 -4 10 -1 21 7 25 7 5 10 12 5 17 -4 4 -12 0 -17 -10 -6 -9 -14 -15 -20 -12 -5 4 -9 1 -9 -5 0 -6 -4 -8 -10 -5 -5 3 -17 -3 -27 -14 -9 -11 -21 -17 -26 -14 -5 3 -13 -1 -18 -8 -11 -19 -157 -19 -169 0 -4 8 -15 11 -24 8 -8 -3 -22 1 -31 9 -8 9 -15 12 -15 9 0 -4 -12 1 -27 10 -35 22 -83 66 -80 74 1 3 -11 19 -26 35 -25 27 -32 44 -28 74 1 6 -3 12 -9 12 -7 0 -9 8 -5 20 4 12 2 20 -4 20 -8 0 -9 18 -5 55 4 33 3 55 -3 55 -5 0 -8 14 -5 30 2 17 9 30 14 30 6 0 8 9 5 20 -3 11 -1 20 5 20 6 0 7 7 4 16 -6 16 10 54 28 66 6 4 11 12 11 17 0 17 46 72 55 66 5 -3 14 4 20 15 6 11 15 18 21 15 5 -4 9 -2 9 4 0 16 56 42 74 35 9 -3 16 -1 16 4 0 23 157 22 171 0z m-943 -10 c15 -15 16 -58 2 -58 -6 0 -10 -55 -10 -145 0 -95 4 -145 11 -145 5 0 8 -4 5 -8 -3 -5 8 -19 25 -31 16 -12 27 -26 24 -31 -9 -15 15 -22 31 -9 8 6 12 14 10 17 -7 6 51 89 66 94 6 2 12 11 14 19 3 23 72 116 90 123 8 3 12 10 9 16 -3 5 6 21 21 35 16 14 29 34 30 43 2 9 13 25 25 34 11 10 18 18 14 18 -5 0 0 9 10 20 15 17 31 20 101 20 46 0 85 -4 89 -9 3 -6 -11 -26 -30 -45 -20 -20 -32 -36 -28 -36 4 0 1 -5 -7 -10 -8 -5 -15 -13 -15 -17 0 -17 -48 -84 -66 -94 -11 -5 -17 -14 -14 -19 3 -5 -4 -14 -15 -20 -11 -6 -18 -15 -15 -19 3 -5 -2 -12 -11 -15 -9 -4 -14 -9 -11 -13 9 -8 -72 -122 -95 -134 -10 -6 -16 -14 -13 -20 4 -5 -1 -12 -9 -15 -9 -3 -14 -10 -11 -15 3 -4 -4 -13 -15 -19 -11 -6 -18 -15 -15 -19 3 -5 -2 -12 -11 -15 -8 -3 -12 -10 -9 -16 3 -5 0 -10 -7 -10 -7 0 4 -14 25 -31 20 -17 35 -34 32 -39 -3 -5 8 -18 25 -30 17 -12 28 -25 25 -30 -3 -5 8 -18 25 -30 17 -12 28 -25 25 -30 -3 -4 11 -20 30 -34 19 -15 34 -30 32 -35 -1 -4 13 -20 31 -35 17 -15 30 -32 27 -36 -3 -5 8 -18 25 -30 17 -12 28 -25 25 -30 -3 -5 6 -17 20 -26 13 -9 22 -20 19 -25 -3 -5 -42 -9 -88 -9 -73 0 -85 3 -104 23 -12 13 -20 26 -17 29 3 3 -6 13 -20 22 -14 9 -23 21 -20 26 3 5 -10 21 -30 35 -19 15 -32 31 -30 36 3 4 -3 12 -13 18 -24 13 -143 157 -136 164 3 3 -6 13 -20 23 -15 9 -24 19 -21 22 6 6 -25 42 -37 42 -4 0 -8 -16 -8 -35 0 -19 5 -35 10 -35 6 0 10 -20 10 -45 0 -25 -4 -45 -10 -45 -6 0 -10 -50 -10 -130 0 -94 3 -130 12 -130 8 0 9 -3 2 -10 -6 -6 -43 -10 -85 -8 l-74 3 -3 490 c-1 270 0 496 3 503 6 16 136 17 153 0z m1471 -2 c9 -11 12 -74 9 -230 -2 -119 1 -216 5 -216 5 0 6 -8 2 -19 -4 -12 6 -31 30 -57 19 -22 35 -42 35 -46 0 -9 120 -5 120 4 0 4 5 7 12 6 7 -2 13 2 14 7 4 25 17 55 23 55 3 0 6 114 6 252 l0 253 75 0 75 0 0 -223 c0 -122 4 -222 9 -222 4 0 5 -11 2 -24 -5 -19 2 -33 33 -65 21 -22 51 -43 67 -46 16 -4 35 -9 42 -11 8 -2 20 3 29 11 8 8 18 13 23 10 10 -6 23 12 27 35 1 8 6 16 10 17 4 2 7 114 5 249 -2 183 0 249 9 260 9 11 29 14 78 12 l66 -3 3 -267 c2 -227 0 -268 -13 -281 -8 -9 -13 -22 -10 -29 7 -18 -52 -101 -65 -93 -6 4 -13 -1 -16 -10 -4 -9 -21 -23 -38 -32 -39 -20 -153 -24 -165 -5 -4 7 -12 12 -17 10 -5 -1 -21 8 -36 21 -14 13 -30 23 -35 23 -4 0 -16 7 -26 15 -16 15 -20 14 -50 -14 -52 -50 -95 -67 -167 -67 -52 0 -75 5 -111 25 -41 23 -47 24 -56 10 -8 -12 -25 -16 -70 -15 -33 0 -65 4 -71 8 -9 5 -12 99 -12 350 0 188 3 346 7 349 13 14 130 7 142 -7z m1119 2 c18 -18 17 -682 0 -695 -7 -5 -42 -9 -78 -8 l-65 1 -3 344 c-1 190 0 351 3 357 6 17 127 17 143 1z m327 -523 l0 -530 -68 0 -68 0 1 512 c0 352 -3 514 -10 518 -8 5 -7 11 1 21 9 11 30 14 78 12 l66 -3 0 -530z m-341 -266 c14 -11 24 -25 20 -30 -3 -5 2 -12 10 -15 10 -4 16 -19 16 -41 0 -47 -54 -103 -99 -103 -17 0 -31 5 -31 11 0 6 -6 9 -14 6 -19 -7 -52 30 -48 54 2 10 -2 19 -7 19 -6 0 -11 7 -11 15 0 8 5 15 11 15 6 0 9 9 6 20 -7 28 45 70 87 70 19 0 45 -9 60 -21z"/>
 <path d="M1803 2377 c-115 -43 -163 -210 -99 -341 22 -46 35 -59 78 -80 64 -32 108 -33 174 -2 45 21 55 32 80 82 23 47 28 72 28 124 -1 137 -79 228 -194 228 -19 0 -49 -5 -67 -11z"/>
 <path d="M1067 2376 c-85 -31 -121 -94 -122 -216 0 -73 4 -91 25 -130 31 -54 77 -87 137 -96 84 -12 156 24 196 99 31 59 31 194 0 252 -36 68 -81 100 -144 102 -30 1 -71 -4 -92 -11z"/>
 <path d="M2577 2375 c-55 -19 -84 -50 -108 -114 -26 -70 -22 -166 10 -228 53 -104 194 -134 287 -61 94 74 97 290 6 371 -48 43 -129 56 -195 32z"/>
 <path d="M3620 2368 c-126 -64 -148 -266 -44 -391 13 -16 24 -26 24 -23 0 3 16 -2 35 -10 104 -43 223 19 255 135 25 90 -4 217 -61 265 -58 49 -140 58 -209 24z"/>
 <path d="M210 1805 l0 -145 113 0 c93 0 117 3 144 20 93 56 82 223 -17 257 -19 7 -81 12 -137 12 l-103 1 0 -145z"/>
 <path d="M978 1128 c-2 -5 -10 -10 -19 -11 -16 -3 -64 -43 -65 -55 -2 -21 -28 -92 -34 -92 -8 0 -9 -113 -1 -120 6 -5 31 -67 34 -85 4 -16 50 -59 66 -62 8 -1 17 -5 20 -10 11 -15 144 -12 159 3 7 8 17 12 20 10 4 -2 20 13 36 35 17 21 33 39 38 39 4 0 5 6 2 14 -3 7 1 20 8 27 18 19 18 159 0 178 -7 7 -11 20 -8 27 3 8 1 14 -5 14 -6 0 -9 3 -7 8 5 9 -55 66 -73 70 -8 2 -16 7 -19 12 -7 11 -149 9 -152 -2z"/>
 </g>
<g id="layer105" fill="#fdfffe" stroke="none">
 <path d="M0 2050 l0 -2050 2050 0 2050 0 0 2050 0 2050 -2050 0 -2050 0 0 -2050z m183 1858 c41 -21 52 -40 52 -88 0 -48 -11 -67 -52 -88 -36 -19 -69 -14 -102 17 -50 47 -41 124 17 155 33 19 57 20 85 4z m485 -70 l3 -68 -46 0 -45 0 0 -360 0 -360 45 0 45 0 0 -65 0 -65 -165 0 -165 0 0 65 0 65 45 0 45 0 0 360 0 360 -45 0 -45 0 0 70 0 70 163 -2 162 -3 3 -67z m492 -358 l0 -430 150 0 150 0 0 -65 0 -65 -370 0 -371 0 3 63 3 62 148 3 147 3 0 429 0 430 70 0 70 0 0 -430z m855 -717 c69 -23 146 -101 174 -176 20 -55 21 -75 21 -412 l0 -353 -65 -4 c-54 -2 -65 0 -65 13 0 29 -11 28 -74 -4 -54 -28 -70 -31 -141 -31 -91 1 -163 28 -223 85 -146 137 -150 409 -9 547 67 65 135 94 226 96 81 1 124 -11 179 -52 18 -13 36 -22 39 -19 11 12 -20 109 -44 138 -46 54 -67 59 -248 59 l-165 0 0 65 0 65 173 0 c135 0 184 -4 222 -17z m-763 -255 c49 -16 112 -62 146 -106 54 -68 75 -135 75 -242 1 -86 -2 -102 -30 -161 -41 -88 -83 -133 -160 -171 -57 -28 -76 -32 -147 -32 -73 -1 -89 3 -148 32 -109 53 -166 134 -189 267 -34 196 85 388 263 425 49 10 143 4 190 -12z m1462 13 c21 -5 60 -23 87 -39 l48 -30 3 26 c3 26 6 27 71 30 l67 3 0 -346 0 -345 -70 0 c-68 0 -70 1 -70 25 l0 25 -46 -30 c-154 -97 -364 -38 -451 127 -76 141 -61 318 36 441 73 92 210 139 325 113z m1055 -2 c27 -5 70 -23 95 -39 l46 -30 0 31 0 30 68 -3 67 -3 3 -342 2 -343 -70 0 c-69 0 -70 0 -70 27 0 24 -1 25 -18 10 -41 -38 -115 -61 -194 -61 -66 0 -86 5 -142 33 -293 144 -240 628 76 690 61 12 81 12 137 0z m-3571 -222 l2 -208 77 3 77 3 120 208 119 207 73 0 c42 0 74 -4 74 -10 0 -5 -54 -103 -120 -217 -103 -180 -117 -209 -103 -218 130 -81 164 -127 171 -238 2 -39 -1 -90 -7 -113 -17 -64 -72 -128 -138 -161 -57 -28 -60 -28 -275 -31 l-218 -3 0 496 0 496 73 -3 72 -3 3 -208z m3070 -314 l2 -523 -70 0 -70 0 0 525 0 526 68 -3 67 -3 3 -522z m-2079 -735 c20 -11 40 -24 46 -29 15 -15 23 -10 27 14 3 20 9 22 71 25 l67 3 -2 -347 -3 -347 -45 0 c-83 0 -90 2 -90 23 0 21 -10 26 -25 11 -6 -5 -28 -19 -50 -32 -33 -18 -55 -22 -132 -22 -78 -1 -99 3 -138 23 -142 73 -216 214 -199 380 16 165 131 300 274 321 66 10 159 -1 199 -23z m-991 -169 l2 -176 34 -39 35 -39 20 20 c11 11 63 81 115 155 52 74 116 163 141 198 l46 62 85 0 85 0 -40 -57 c-22 -32 -71 -101 -110 -153 -190 -261 -242 -340 -234 -353 8 -12 40 -51 262 -311 l95 -111 -85 -3 -84 -3 -39 43 c-21 24 -85 99 -141 168 -57 69 -122 145 -144 170 l-40 45 -1 -212 0 -213 -75 0 -75 0 0 495 0 496 73 -3 72 -3 3 -176z m1473 -49 c6 -224 13 -272 48 -314 17 -20 69 -46 93 -46 26 0 69 23 93 50 19 21 20 39 23 281 l3 259 69 0 68 0 4 -227 c4 -207 6 -232 26 -275 41 -91 131 -113 197 -47 l30 29 5 258 5 257 68 3 67 3 0 -263 c-1 -283 -4 -308 -54 -373 -41 -53 -98 -79 -177 -79 -75 0 -125 19 -163 64 -30 37 -42 37 -68 5 -57 -72 -192 -92 -282 -42 -57 32 -53 31 -58 10 -4 -15 -16 -18 -69 -17 l-64 1 -3 347 -2 347 67 -3 68 -3 6 -225z m1114 -120 l0 -345 -67 0 -68 0 0 348 0 348 68 -3 67 -3 0 -345z m325 -175 l0 -526 -67 3 -68 3 -2 514 c-1 283 0 518 3 522 3 5 34 9 70 9 l64 0 0 -525z m-331 -281 c66 -55 22 -164 -66 -164 -87 0 -128 109 -62 164 19 17 43 26 64 26 21 0 45 -9 64 -26z"/>
 <path d="M1805 2387 c-56 -22 -84 -49 -111 -104 -58 -117 -23 -273 73 -330 67 -39 125 -41 193 -6 47 24 59 37 85 87 98 195 -57 424 -240 353z"/>
 <path d="M1067 2385 c-78 -27 -124 -96 -134 -198 -3 -34 0 -80 6 -103 51 -190 283 -221 374 -50 31 58 31 193 0 251 -28 53 -60 81 -112 100 -53 18 -84 18 -134 0z"/>
 <path d="M2576 2385 c-88 -31 -141 -129 -133 -246 5 -82 36 -142 93 -182 141 -99 314 13 314 203 0 169 -130 277 -274 225z"/>
 <path d="M3630 2384 c-46 -20 -77 -50 -103 -99 -33 -61 -31 -193 3 -255 64 -113 205 -143 301 -63 101 85 103 294 4 382 -57 50 -139 64 -205 35z"/>
 <path d="M200 1806 l0 -156 118 0 c99 0 122 3 150 20 94 58 98 207 5 267 -21 14 -53 19 -150 22 l-123 3 0 -156z"/>
 <path d="M991 1135 c-44 -15 -108 -79 -120 -119 -26 -80 -18 -193 17 -244 36 -53 70 -79 125 -94 81 -21 177 24 220 105 31 59 31 193 -1 254 -23 44 -78 93 -105 93 -9 0 -19 5 -22 10 -8 13 -72 11 -114 -5z"/>
 </g>

</svg>