<svg width="97" height="84" viewBox="0 0 97 84" fill="none" xmlns="http://www.w3.org/2000/svg">
<path d="M96.8476 70.0293V81.1467C96.8476 82.1733 96.0196 83.0013 94.9929 83.0013H2.33959C1.31426 83.0013 0.486252 82.1733 0.486252 81.1467V70.0293C0.486252 69.004 1.31426 68.176 2.33959 68.176H8.53292C8.33026 68.744 8.17426 69.3413 8.07159 69.9507H8.06759C7.95692 70.5773 7.89826 71.224 7.89826 71.8827H30.1356C30.1356 70.9467 30.0196 70.0413 29.8023 69.176C29.7529 68.9667 29.6903 68.756 29.6289 68.5507C29.5876 68.4227 29.5463 68.3 29.5009 68.176H67.8316C67.7863 68.3 67.7449 68.4227 67.7049 68.5507C67.6422 68.756 67.5809 68.9667 67.5316 69.176C67.3129 70.0413 67.1983 70.9467 67.1983 71.8827H89.4343C89.4343 71.224 89.3769 70.5773 89.2649 69.9507H89.2622C89.1582 69.3413 89.0023 68.744 88.8009 68.176H94.9929C96.0196 68.176 96.8476 69.004 96.8476 70.0293Z" fill="#B79676"/>
<path d="M76.0091 16.4537C75.6837 16.3391 75.3544 16.2311 75.0171 16.1284C72.6557 15.4204 70.3637 15.1444 68.4024 15.2684C68.4517 14.6871 68.4931 14.1031 68.5224 13.5177C68.5264 13.5057 68.5264 13.4937 68.5264 13.4817C68.5504 13.2671 68.5677 13.0524 68.5797 12.8391C68.5957 12.5497 68.6037 12.2577 68.6037 11.9657C68.6037 11.8004 68.5997 11.6404 68.5957 11.4804C68.5997 11.1991 68.6037 10.9191 68.6037 10.6351C69.1811 10.3057 69.7584 9.93906 70.3251 9.53639C71.3437 8.81906 72.2651 8.04973 73.0691 7.25106C73.3891 6.9324 73.6944 6.61239 73.9797 6.28706L74.4771 8.79373L74.4811 8.79906L75.2091 12.4471L76.0091 16.4537Z" fill="#660F32"/>
<path d="M12.2396 68.1757C11.8303 69.3357 11.6049 70.5824 11.6049 71.8824H33.8423C33.8423 70.5824 33.6169 69.3357 33.2076 68.1757H12.2396Z" fill="#89715A"/>
<path d="M71.5391 68.1757C71.1284 69.3357 70.9031 70.5824 70.9031 71.8824H93.1404C93.1404 70.5824 92.9151 69.3357 92.5057 68.1757H71.5391Z" fill="#89715A"/>
<path d="M89.4349 71.8821H67.1976C67.1976 70.9475 67.3123 70.0421 67.5309 69.1768C67.5803 68.9661 67.6416 68.7568 67.7043 68.5501C67.7443 68.4235 67.7869 68.2995 67.8323 68.1755C69.0376 64.7581 71.8669 62.1101 75.3923 61.1555C76.0069 60.9861 76.6403 60.8701 77.2909 60.8128C77.6296 60.7795 77.9696 60.7635 78.3163 60.7635C79.4403 60.7635 80.5229 60.9288 81.5443 61.2421C84.7949 62.2248 87.4123 64.6555 88.6523 67.7848C88.7056 67.9128 88.7549 68.0448 88.8003 68.1755C89.0029 68.7435 89.1589 69.3408 89.2616 69.9515H89.2656C89.3776 70.5768 89.4349 71.2235 89.4349 71.8821Z" fill="#464545"/>
<path d="M70.8959 15.8033C70.8879 16.2567 70.8745 16.71 70.8545 17.162L55.9772 18.0393L41.4799 18.8913L26.8372 19.7527L26.6439 19.7647C26.5905 19.1273 26.5452 18.4847 26.5119 17.842C26.5079 17.83 26.5079 17.8167 26.5079 17.8047C26.4745 17.142 26.4505 16.474 26.4372 15.8033C26.6319 9.77132 30.4319 4.64732 35.7532 2.52332C35.7732 2.50999 35.7985 2.50199 35.8185 2.49399C36.1359 2.37932 36.4572 2.26332 36.7785 2.15666C36.8279 2.13932 36.8732 2.12332 36.9185 2.11132C40.6079 0.875324 44.5612 0.208657 48.6665 0.208657C52.7719 0.208657 56.7252 0.875324 60.4159 2.11132C60.4612 2.12332 60.5065 2.13932 60.5545 2.15666C60.8759 2.26332 61.1985 2.37932 61.5145 2.49399C61.5345 2.50199 61.5599 2.50999 61.5812 2.52332C63.1292 3.13666 64.5452 4.00999 65.7852 5.08332C68.6145 7.53399 70.5039 11.0433 70.8465 14.9927C70.8705 15.2593 70.8879 15.5313 70.8959 15.8033Z" fill="#464545"/>
<path d="M69.4713 27.4083C69.3593 27.8936 69.2447 28.3763 69.1167 28.8576C68.5273 31.1229 67.8033 33.3256 66.946 35.4669V35.4709C65.6047 38.8229 63.9433 42.0109 62.0047 45.0043C61.1153 46.3803 60.1673 47.7096 59.1647 48.9989L59.1513 49.0109C58.9327 49.2296 58.706 49.4429 58.4713 49.6456C55.8567 51.9509 52.426 53.3523 48.666 53.3523C44.9073 53.3523 41.4767 51.9509 38.862 49.6456C38.6273 49.4429 38.4007 49.2296 38.182 49.0109L38.17 48.9989C37.166 47.7096 36.218 46.3803 35.3287 45.0043C33.3887 42.0109 31.7287 38.8229 30.3873 35.4709V35.4669C29.3487 32.8723 28.5007 30.1789 27.862 27.4083H69.4713Z" fill="#464545"/>
<path d="M30.1355 71.8821H7.89812C7.89812 71.2235 7.95679 70.5768 8.06746 69.9515H8.07146C8.17412 69.3408 8.33012 68.7435 8.53279 68.1755C8.57812 68.0448 8.62746 67.9128 8.68079 67.7848C9.92079 64.6555 12.5395 62.2248 15.7888 61.2421C16.8101 60.9288 17.8928 60.7635 19.0168 60.7635C19.3635 60.7635 19.7048 60.7795 20.0421 60.8128C20.6928 60.8701 21.3275 60.9861 21.9408 61.1555C25.4661 62.1101 28.2955 64.7581 29.5008 68.1755C29.5475 68.2995 29.5875 68.4235 29.6288 68.5501C29.6915 68.7568 29.7528 68.9661 29.8021 69.1768C30.0208 70.0421 30.1355 70.9475 30.1355 71.8821Z" fill="#464545"/>
<path d="M79.2096 57.0865C78.9123 57.0652 78.6176 57.0572 78.3163 57.0572C77.0389 57.0572 75.8043 57.2185 74.6229 57.5185C69.6429 58.7999 65.6696 62.5999 64.1549 67.4839C64.0843 67.7105 64.0176 67.9452 63.9576 68.1759H33.3763C33.3149 67.9452 33.2483 67.7105 33.1789 67.4839C31.6629 62.5999 27.6896 58.7999 22.7109 57.5185C21.5296 57.2185 20.2936 57.0572 19.0163 57.0572C18.7163 57.0572 18.4203 57.0652 18.1243 57.0865C18.3989 56.7692 18.7003 56.4692 19.0163 56.1892C19.9856 55.3199 21.1043 54.6199 22.3323 54.1332C21.8749 52.4412 21.0269 50.9132 19.8856 49.6452H33.8376C36.6296 53.3599 40.7896 55.9945 45.5696 56.7985C46.5749 56.9705 47.6123 57.0572 48.6669 57.0572C49.7216 57.0572 50.7589 56.9705 51.7629 56.7985C56.5443 55.9945 60.7029 53.3599 63.4963 49.6452H77.4483C76.3069 50.9132 75.4589 52.4412 75.0016 54.1332C76.2283 54.6199 77.3483 55.3199 78.3163 56.1892C78.6323 56.4692 78.9336 56.7692 79.2096 57.0865Z" fill="#464545"/>
<path d="M48.6667 0.208398C48.6667 0.208398 58.3093 1.01773 61.6387 4.34706C64.968 7.6764 48.7427 6.28706 48.7427 6.28706C48.7427 6.28706 65.3893 7.5044 65.9627 8.8084C66.9667 11.0937 66.512 16.1377 53.952 16.4537C53.952 16.4537 67.6787 15.9457 67.6093 19.1724C67.5187 23.4457 67.3347 22.8097 66.648 25.6924C65.9627 28.5751 63.928 29.7311 47.6307 30.3484C47.6307 30.3484 63.6667 30.2871 63.8707 35.0951C64.0067 38.2524 53.196 38.0457 53.196 38.0457C53.196 38.0457 61.0893 39.8991 60.6773 42.0964C59.9747 45.8444 53.472 45.2524 53.472 45.2524C53.472 45.2524 63.6973 45.4577 48.6667 53.3511C48.6667 53.3511 57.7227 53.3631 62.2533 44.6151C66.7867 35.8671 70.896 28.1497 70.896 16.4537C70.896 7.0244 63.4907 0.208398 48.6667 0.208398Z" fill="#222222"/>
<path d="M69.5716 10.0469C69.5716 10.0469 70.5783 12.8269 70.8956 15.3136C70.8956 15.3136 72.1823 15.4629 72.6969 15.5656C72.6969 15.5656 71.0063 14.3096 73.5449 14.3643C73.5449 14.3643 69.4969 13.4403 73.9916 12.2229C73.9916 12.2229 68.7076 12.6683 73.3063 10.4723C73.3063 10.4723 70.0969 10.1949 72.5076 7.78561L69.5716 10.0469Z" fill="#200912"/>
<path d="M70.8541 17.1621C70.8461 17.3768 70.8381 17.5901 70.8261 17.8048C70.8261 17.8168 70.8261 17.8288 70.8221 17.8421C70.7928 18.4261 70.7515 19.0115 70.7021 19.5915C70.4755 22.2568 70.0635 24.8635 69.4715 27.4088H27.8621C27.2861 24.9208 26.8741 22.3675 26.6435 19.7648L26.8368 19.7528L41.4808 18.8915L55.9768 18.0395L70.8541 17.1621Z" fill="#E0DEAA"/>
<path d="M58.1197 22.6967C60.6464 22.0353 62.3291 22.2913 64.0064 22.6967C62.5797 21.83 60.7184 20.7367 57.9664 21.4567C55.2131 22.1767 53.0517 23.6007 52.2344 25.0553C53.4971 23.8807 55.5931 23.358 58.1197 22.6967Z" fill="#1E1F1D"/>
<path d="M39.2129 22.6967C36.6863 22.0353 35.0036 22.2913 33.3263 22.6967C34.7529 21.83 36.6143 20.7367 39.3663 21.4567C42.1196 22.1767 44.2809 23.6007 45.0996 25.0553C43.8356 23.8807 41.7396 23.358 39.2129 22.6967Z" fill="#1E1F1D"/>
<path d="M66.4323 17.4232C66.4323 17.4232 64.8003 18.6325 65.6189 27.4085C66.4376 36.1832 65.6189 27.4085 65.6189 27.4085H69.4709C69.4709 27.4085 70.8736 23.4579 70.8536 17.1619C70.8349 10.8672 70.8536 17.1619 70.8536 17.1619" fill="#A8A781"/>
<path d="M19.8861 49.6452C19.8861 49.6452 21.3781 51.1239 22.1195 53.4385H37.6635C37.6635 53.4385 35.1901 51.6519 33.8381 49.6452H19.8861Z" fill="#891243"/>
<path d="M77.4479 49.6452C77.4479 49.6452 75.9559 51.1239 75.2132 53.4385H59.6692C59.6692 53.4385 62.1439 51.6519 63.4959 49.6452H77.4479Z" fill="#891243"/>
<path d="M70.8151 14.6745C70.8151 14.6745 70.6537 12.0025 69.1911 9.36786L29.9751 6.67053C29.9751 6.67053 27.3097 9.3172 26.6657 13.6412L70.8151 14.6745Z" fill="#891243"/>
<path d="M66.0964 9.1628C66.0964 9.1628 67.3697 10.1815 43.6937 9.0148C43.6937 9.0148 62.1537 9.9868 62.1537 10.7201C62.1537 11.8215 35.5404 9.9868 35.5404 9.9868C35.5404 9.9868 63.6031 11.9321 63.5604 12.4801C63.5257 12.9268 32.0404 11.9135 32.0404 11.9135C32.0404 11.9135 63.7911 12.8135 64.0071 13.7495C64.1097 14.1961 63.5324 14.4988 63.5324 14.4988L70.8151 14.6748C70.8151 14.6748 70.5204 11.4495 69.1911 9.3668L66.0964 9.1628Z" fill="#431024"/>
<path d="M48.6667 57.0573C56.9547 57.0573 61.896 54.7413 63.6973 53.352L59.6693 53.4387C54.9467 57.212 48.6667 57.0573 48.6667 57.0573Z" fill="#222222"/>
<path d="M63.5807 53.4388C63.5807 53.4388 65.4793 52.2535 67.042 49.6455H63.4967C63.4967 49.6455 60.9273 52.8748 59.6687 53.4388H63.5807Z" fill="#431024"/>
<path d="M32.7624 66.3229L63.3557 63.8229C63.3557 63.8229 67.1984 55.3056 77.1957 55.3056C77.1957 55.3056 78.2157 55.9829 79.2091 57.0869C79.2091 57.0869 67.7517 55.9603 63.9571 68.1763H33.3757L32.7624 66.3229Z" fill="#222222"/>
<path d="M78.3164 60.7636C77.7751 60.7636 77.2417 60.8049 76.7204 60.8796C81.3577 61.5463 85.0684 65.0743 86.0097 69.6169H83.3177L82.7751 65.9116L82.5497 69.6169H78.8391L78.6791 66.3223L78.2151 69.6169H75.4897L75.3111 66.3223L74.7324 69.6169H72.1711V66.5796L71.5991 69.6169H67.4311C67.4311 69.6169 67.1457 70.1836 67.1977 71.8823H86.2431H88.1484H89.4351C89.4351 65.7409 84.4564 60.7636 78.3164 60.7636Z" fill="#222222"/>
<path d="M19.0201 60.7636C18.4775 60.7636 17.9455 60.8049 17.4241 60.8796C22.0615 61.5463 25.7721 65.0743 26.7135 69.6169H24.0215L23.4788 65.9116L23.2535 69.6169H19.5428L19.3828 66.3223L18.9188 69.6169H16.1935L16.0148 66.3223L15.4361 69.6169H12.8748V66.5796L12.3028 69.6169H8.13479C8.13479 69.6169 7.85079 70.1836 7.90146 71.8823H26.9468H28.8521H30.1388C30.1388 65.7409 25.1601 60.7636 19.0201 60.7636Z" fill="#222222"/>
</svg>
