<svg id="svg" version="1.1" xmlns="http://www.w3.org/2000/svg" xmlns:xlink="http://www.w3.org/1999/xlink" width="400" height="232.5" viewBox="0, 0, 400,232.5"><g id="svgg"><path id="path0" d="M247.442 0.149 C 244.293 0.538,233.802 2.867,233.488 3.246 C 233.374 3.384,230.375 4.144,224.186 5.604 C 222.459 6.012,220.942 6.425,220.814 6.524 C 220.615 6.678,211.682 8.925,209.302 9.420 C 208.855 9.513,208.384 9.654,208.256 9.733 C 208.128 9.812,207.971 9.887,207.907 9.900 C 207.843 9.913,207.634 9.987,207.442 10.065 C 207.068 10.217,196.778 12.766,195.821 12.944 C 195.505 13.003,195.139 13.132,195.007 13.231 C 194.875 13.331,192.047 14.081,188.721 14.899 C 185.395 15.716,182.640 16.466,182.597 16.565 C 182.554 16.663,182.382 16.744,182.214 16.744 C 181.707 16.744,170.477 19.516,168.605 20.103 C 166.874 20.646,157.360 23.048,156.802 23.083 C 156.642 23.093,156.512 23.176,156.512 23.269 C 156.512 23.361,156.119 23.509,155.640 23.598 C 155.160 23.687,152.465 24.335,149.651 25.037 C 146.837 25.740,144.404 26.324,144.244 26.336 C 144.084 26.347,143.953 26.444,143.953 26.550 C 143.953 26.657,143.798 26.744,143.607 26.744 C 143.016 26.744,131.785 29.542,131.047 29.874 C 130.663 30.046,129.198 30.553,127.791 31.001 C 126.384 31.448,124.734 32.031,124.125 32.296 C 123.516 32.560,122.977 32.754,122.928 32.726 C 122.880 32.697,122.645 32.845,122.408 33.054 C 122.171 33.263,121.095 33.870,120.017 34.403 C 115.115 36.831,107.960 42.716,104.447 47.209 C 103.897 47.913,103.300 48.572,103.119 48.674 C 102.938 48.777,102.791 49.003,102.791 49.178 C 102.791 49.353,102.712 49.531,102.616 49.574 C 102.335 49.699,100.233 52.887,100.233 53.189 C 100.233 53.341,100.085 53.549,99.904 53.651 C 98.885 54.229,95.247 62.741,94.164 67.082 C 93.780 68.623,93.321 70.407,93.145 71.047 C 91.951 75.375,92.038 89.910,93.268 91.512 C 93.366 91.640,93.518 92.163,93.605 92.674 C 94.033 95.196,96.061 101.582,96.525 101.869 C 96.667 101.957,96.780 102.093,96.775 102.172 C 96.745 102.636,99.449 108.166,99.863 108.488 C 100.027 108.616,100.347 109.087,100.575 109.535 C 101.024 110.418,102.880 113.101,103.471 113.722 C 103.673 113.933,104.088 114.404,104.393 114.767 L 104.950 115.428 104.164 117.889 C 103.732 119.242,103.311 120.401,103.228 120.465 C 103.145 120.529,102.426 122.517,101.630 124.884 C 100.834 127.250,100.103 129.291,100.006 129.419 C 99.909 129.547,99.174 131.640,98.372 134.070 C 97.570 136.500,96.807 138.624,96.676 138.789 C 96.066 139.559,97.199 139.364,101.512 137.954 C 104.070 137.118,106.215 136.371,106.279 136.293 C 106.343 136.216,108.279 135.535,110.581 134.780 C 112.884 134.026,115.186 133.223,115.698 132.996 C 116.209 132.769,118.372 132.002,120.504 131.292 L 124.380 130.000 126.900 130.897 C 128.285 131.390,130.203 131.975,131.163 132.197 C 132.122 132.419,133.221 132.736,133.605 132.902 C 137.565 134.607,157.489 134.523,158.605 132.797 C 158.669 132.698,159.087 132.543,159.535 132.453 C 162.883 131.778,172.654 127.706,174.042 126.407 C 174.185 126.273,174.721 125.895,175.233 125.567 C 177.659 124.013,178.837 123.185,178.837 123.034 C 178.837 122.944,179.324 122.520,179.920 122.092 C 181.737 120.787,188.605 113.744,188.605 113.186 C 188.605 112.969,189.610 111.601,190.407 110.734 C 190.695 110.421,190.930 110.077,190.930 109.970 C 190.930 109.863,191.349 109.092,191.860 108.256 C 192.372 107.420,192.791 106.641,192.791 106.524 C 192.791 106.408,192.936 106.167,193.113 105.990 C 193.637 105.466,194.372 103.880,195.488 100.863 C 196.066 99.301,196.678 97.709,196.849 97.326 C 197.442 95.994,198.837 89.456,198.837 88.009 C 198.837 87.252,199.371 86.812,200.519 86.623 C 201.065 86.533,201.616 86.379,201.744 86.281 C 201.872 86.184,203.696 85.714,205.797 85.238 C 207.898 84.762,209.729 84.332,209.866 84.283 C 210.004 84.234,210.535 84.788,211.047 85.514 C 213.089 88.414,217.757 93.049,220.905 95.303 C 221.878 95.999,222.727 96.643,222.791 96.734 C 222.942 96.949,226.456 99.070,226.660 99.070 C 226.746 99.070,227.141 99.317,227.537 99.619 C 227.933 99.921,228.728 100.383,229.303 100.644 C 231.958 101.851,233.102 102.326,233.355 102.326 C 233.506 102.326,234.147 102.582,234.780 102.895 C 243.574 107.246,262.135 107.088,272.992 102.571 C 274.882 101.785,275.398 101.827,277.925 102.978 C 278.493 103.237,280.788 104.042,283.025 104.768 C 285.263 105.493,287.199 106.175,287.329 106.282 C 287.459 106.390,289.709 107.181,292.329 108.041 C 294.949 108.900,297.302 109.735,297.558 109.897 C 298.216 110.312,302.300 111.498,302.474 111.324 C 302.632 111.166,300.836 105.420,300.281 104.310 C 300.091 103.931,299.268 101.637,298.452 99.213 C 297.636 96.788,296.878 94.692,296.768 94.554 C 296.658 94.415,296.075 92.755,295.472 90.864 C 294.353 87.357,294.346 87.274,295.118 86.512 C 295.182 86.448,295.547 85.977,295.928 85.465 C 296.309 84.953,296.815 84.309,297.054 84.034 C 297.493 83.526,299.767 79.833,299.767 79.627 C 299.767 79.566,299.968 79.300,300.213 79.037 C 300.458 78.774,301.149 77.445,301.748 76.082 C 302.348 74.719,303.032 73.186,303.268 72.674 C 304.464 70.086,306.108 63.573,306.416 60.203 C 306.490 59.388,306.609 58.564,306.680 58.372 C 307.072 57.311,307.157 47.674,306.774 47.674 C 306.683 47.674,306.475 46.530,306.312 45.131 C 305.912 41.706,304.418 35.822,303.393 33.633 C 302.934 32.652,302.558 31.800,302.558 31.739 C 302.558 31.367,300.190 26.744,300.000 26.744 C 299.872 26.744,299.767 26.625,299.767 26.479 C 299.767 26.333,299.436 25.679,299.031 25.026 C 298.626 24.372,298.157 23.576,297.990 23.256 C 297.310 21.952,290.682 14.186,290.250 14.186 C 290.153 14.186,289.599 13.741,289.019 13.198 C 287.470 11.747,286.957 11.330,285.988 10.732 C 285.509 10.437,285.116 10.108,285.116 10.002 C 285.116 9.797,280.666 6.977,280.343 6.977 C 280.238 6.977,279.982 6.822,279.772 6.632 C 279.293 6.199,276.210 4.692,274.070 3.847 C 273.174 3.493,272.337 3.126,272.209 3.031 C 272.081 2.936,271.767 2.799,271.512 2.727 C 271.256 2.655,270.314 2.374,269.419 2.104 C 267.590 1.551,265.477 1.071,262.558 0.543 C 260.641 0.197,249.422 -0.096,247.442 0.149 M255.647 25.595 C 260.921 27.343,262.896 34.330,259.323 38.601 C 255.867 42.731,250.395 43.037,246.716 39.306 C 240.464 32.963,247.106 22.766,255.647 25.595 M274.274 43.968 C 281.280 45.263,283.923 53.258,278.932 58.054 C 278.217 58.740,277.545 59.302,277.438 59.302 C 277.330 59.302,277.094 59.450,276.914 59.631 C 275.656 60.889,270.531 60.956,269.208 59.732 C 269.022 59.560,268.358 59.059,267.732 58.620 C 261.469 54.223,264.653 44.884,272.806 43.739 C 272.879 43.729,273.539 43.832,274.274 43.968 M235.473 45.370 C 236.940 45.641,238.605 46.374,238.605 46.749 C 238.605 46.874,238.705 46.977,238.828 46.977 C 239.224 46.977,240.879 48.755,241.345 49.682 C 244.914 56.781,238.076 64.223,230.609 61.366 C 228.859 60.696,226.847 58.725,226.030 56.878 C 223.380 50.887,228.903 44.155,235.473 45.370 M152.363 58.643 C 153.828 59.844,153.953 60.443,153.953 66.200 L 153.953 71.067 154.709 72.330 C 155.853 74.240,156.407 74.389,162.442 74.411 C 170.480 74.440,171.008 74.951,170.886 82.590 L 170.814 87.134 170.143 88.102 C 169.774 88.634,169.371 89.070,169.248 89.070 C 169.126 89.070,168.746 89.269,168.405 89.512 C 167.848 89.908,167.241 89.962,162.555 90.035 C 154.172 90.165,154.125 90.212,153.953 98.505 C 153.825 104.726,153.974 104.108,152.155 105.957 C 151.175 106.953,150.715 107.020,145.428 106.933 L 140.972 106.860 140.079 106.138 C 138.325 104.719,138.270 104.500,138.137 98.372 C 137.961 90.239,137.888 90.168,129.582 90.037 C 121.597 89.911,121.324 89.667,121.210 82.558 L 121.137 78.023 121.789 76.744 C 122.850 74.665,123.216 74.559,129.786 74.419 L 135.270 74.302 136.107 73.663 C 137.982 72.232,138.007 72.140,138.159 66.163 C 138.375 57.665,138.392 57.648,146.301 57.735 L 151.323 57.791 152.363 58.643 M256.373 64.306 C 264.890 66.525,264.366 79.062,255.687 80.700 C 252.374 81.325,249.659 80.146,247.068 76.955 C 245.482 75.003,245.201 69.981,246.597 68.544 C 246.751 68.386,247.231 67.759,247.663 67.153 C 249.509 64.561,252.988 63.425,256.373 64.306 " stroke="none" fill="#04acdc" fill-rule="evenodd"></path><path id="path1" d="M3.940 178.166 C 1.965 180.227,0.272 182.032,0.178 182.177 C -0.045 182.523,-0.045 222.826,0.178 223.171 C 0.272 223.317,1.965 225.122,3.940 227.183 L 7.532 230.930 17.812 230.930 L 28.091 230.930 28.849 230.058 C 29.265 229.578,30.950 227.786,32.594 226.074 L 35.581 222.962 35.581 212.295 L 35.581 201.628 27.209 201.628 L 18.837 201.628 18.837 204.884 L 18.837 208.140 23.953 208.140 L 29.070 208.140 29.069 213.779 L 29.068 219.419 26.666 221.802 L 24.265 224.186 17.630 224.186 L 10.995 224.186 9.102 222.115 L 7.209 220.044 7.209 202.635 L 7.209 185.225 9.218 183.194 L 11.227 181.163 17.760 181.163 L 24.294 181.163 26.682 183.542 L 29.070 185.922 29.070 189.124 L 29.070 192.326 32.326 192.326 L 35.581 192.326 35.581 187.376 L 35.581 182.425 33.240 179.992 C 31.952 178.653,30.262 176.852,29.485 175.988 L 28.072 174.419 17.802 174.419 L 7.532 174.419 3.940 178.166 M50.698 185.116 L 50.698 188.372 52.209 188.372 C 53.885 188.372,53.900 188.389,53.291 189.538 C 53.055 189.984,52.313 192.076,51.642 194.186 C 50.971 196.297,50.271 198.346,50.086 198.742 C 49.758 199.442,48.369 203.473,45.046 213.372 C 44.144 216.058,43.340 218.308,43.260 218.372 C 43.180 218.436,42.664 219.875,42.114 221.570 L 41.114 224.651 39.161 224.651 L 37.209 224.651 37.209 227.791 L 37.209 230.930 45.465 230.930 L 53.721 230.930 53.721 227.791 L 53.721 224.651 51.187 224.651 L 48.653 224.651 49.096 223.228 C 49.340 222.446,49.694 221.478,49.884 221.077 C 50.073 220.677,50.579 219.302,51.007 218.023 L 51.786 215.698 60.992 215.637 L 70.199 215.576 71.613 219.939 C 72.390 222.339,73.026 224.381,73.025 224.477 C 73.024 224.573,71.977 224.651,70.698 224.651 L 68.372 224.651 68.372 227.791 L 68.372 230.930 76.628 230.930 L 84.884 230.930 84.884 227.800 L 84.884 224.669 82.872 224.602 L 80.860 224.535 80.541 223.605 C 80.366 223.093,80.080 222.360,79.906 221.977 C 79.732 221.593,78.989 219.448,78.256 217.209 C 77.523 214.971,76.831 213.105,76.717 213.062 C 76.604 213.019,76.512 212.870,76.512 212.731 C 76.512 212.318,73.688 203.657,73.347 203.023 C 73.175 202.703,72.389 200.453,71.601 198.023 C 70.813 195.593,70.097 193.552,70.011 193.488 C 69.867 193.382,68.372 188.845,68.372 188.515 C 68.372 188.436,69.052 188.372,69.884 188.372 L 71.395 188.372 71.395 185.116 L 71.395 181.860 61.047 181.860 L 50.698 181.860 50.698 185.116 M87.209 185.116 L 87.209 188.372 89.767 188.372 L 92.326 188.372 92.326 206.512 L 92.326 224.651 89.767 224.651 L 87.209 224.651 87.209 227.791 L 87.209 230.930 96.163 230.930 L 105.116 230.930 105.116 227.791 L 105.116 224.651 102.442 224.651 L 99.767 224.651 99.767 208.442 C 99.767 199.308,99.855 192.329,99.969 192.453 C 100.079 192.575,100.834 194.401,101.645 196.512 C 102.457 198.622,103.180 200.401,103.253 200.465 C 103.421 200.613,103.905 201.787,105.124 205.000 C 105.658 206.407,106.292 207.924,106.532 208.372 C 106.773 208.820,107.539 210.667,108.236 212.476 C 108.933 214.286,109.876 216.564,110.333 217.540 C 110.789 218.515,111.163 219.389,111.164 219.482 C 111.167 219.903,113.069 224.498,113.361 224.790 C 113.612 225.040,114.477 225.116,117.080 225.116 L 120.473 225.116 120.812 224.360 C 120.999 223.945,121.521 222.610,121.971 221.395 C 122.421 220.180,122.988 218.818,123.231 218.367 C 123.475 217.917,124.320 215.878,125.110 213.836 C 125.899 211.794,126.627 210.017,126.726 209.887 C 126.902 209.656,127.900 207.177,129.208 203.721 C 129.571 202.762,129.944 201.922,130.037 201.855 C 130.130 201.788,130.845 200.066,131.626 198.027 C 132.408 195.989,133.147 194.201,133.268 194.055 C 133.390 193.908,133.639 193.381,133.821 192.883 C 134.115 192.082,134.155 193.881,134.170 208.314 L 134.186 224.651 131.512 224.651 L 128.837 224.651 128.837 227.791 L 128.837 230.930 137.907 230.930 L 146.977 230.930 146.977 227.791 L 146.977 224.651 144.302 224.651 L 141.628 224.651 141.628 206.519 L 141.628 188.387 144.244 188.322 L 146.860 188.256 146.925 185.058 L 146.990 181.860 138.976 181.860 L 130.962 181.860 130.803 182.384 C 130.715 182.672,130.349 183.535,129.990 184.302 C 129.256 185.867,127.225 190.933,124.954 196.860 C 124.121 199.035,123.355 200.919,123.251 201.047 C 123.148 201.174,122.411 203.006,121.614 205.116 C 120.817 207.227,120.036 209.163,119.879 209.419 C 119.721 209.674,119.100 211.192,118.500 212.791 C 117.900 214.390,117.337 215.878,117.251 216.099 C 116.965 216.826,116.614 216.204,115.257 212.558 C 114.519 210.576,113.666 208.430,113.362 207.791 C 113.058 207.151,112.215 205.058,111.487 203.140 C 110.760 201.221,110.075 199.616,109.966 199.574 C 109.857 199.531,109.767 199.392,109.767 199.264 C 109.767 198.928,106.917 191.533,106.735 191.395 C 106.650 191.331,105.981 189.657,105.248 187.674 C 104.515 185.692,103.689 183.573,103.412 182.965 L 102.910 181.860 95.060 181.860 L 87.209 181.860 87.209 185.116 M152.326 185.116 L 152.326 188.372 155.000 188.372 L 157.674 188.372 157.674 206.512 L 157.674 224.651 155.000 224.651 L 152.326 224.651 152.326 227.791 L 152.326 230.930 170.585 230.930 L 188.844 230.930 188.782 223.430 L 188.721 215.930 185.930 215.863 C 181.689 215.761,182.093 215.287,182.093 220.353 L 182.093 224.651 173.605 224.651 L 165.116 224.651 165.116 217.209 L 165.116 209.767 173.837 209.767 L 182.558 209.767 182.558 206.512 L 182.558 203.256 173.837 203.256 L 165.116 203.256 165.116 195.814 L 165.116 188.372 173.605 188.372 L 182.093 188.372 182.093 192.674 L 182.093 196.977 185.465 196.977 L 188.837 196.977 188.837 189.419 L 188.837 181.860 170.581 181.860 L 152.326 181.860 152.326 185.116 M192.791 185.116 L 192.791 188.372 195.465 188.372 L 198.140 188.372 198.140 206.512 L 198.140 224.651 195.465 224.651 L 192.791 224.651 192.791 227.791 L 192.791 230.930 209.157 230.930 L 225.524 230.930 229.506 226.754 L 233.488 222.578 233.488 206.412 L 233.488 190.246 231.105 187.761 C 229.794 186.394,227.988 184.510,227.093 183.573 L 225.465 181.869 209.128 181.865 L 192.791 181.860 192.791 185.116 M235.814 185.116 L 235.814 188.372 238.488 188.372 L 241.163 188.372 241.163 206.512 L 241.163 224.651 238.488 224.651 L 235.814 224.651 235.814 227.791 L 235.814 230.930 253.957 230.930 L 272.099 230.930 272.038 223.430 L 271.977 215.930 269.302 215.863 C 265.196 215.759,265.581 215.294,265.581 220.353 L 265.581 224.651 257.093 224.651 L 248.605 224.651 248.605 217.209 L 248.605 209.767 257.326 209.767 L 266.047 209.767 266.047 206.512 L 266.047 203.256 257.326 203.256 L 248.605 203.256 248.605 195.814 L 248.605 188.372 257.093 188.372 L 265.581 188.372 265.581 192.674 L 265.581 196.977 268.837 196.977 L 272.093 196.977 272.093 189.419 L 272.093 181.860 253.953 181.860 L 235.814 181.860 235.814 185.116 M274.703 185.058 L 274.767 188.256 276.860 188.372 L 278.953 188.488 279.352 189.734 C 279.572 190.419,279.846 191.099,279.961 191.246 C 280.077 191.392,280.827 193.448,281.628 195.814 C 282.429 198.180,283.174 200.230,283.284 200.370 C 283.394 200.509,284.099 202.453,284.851 204.689 C 285.603 206.926,286.387 209.114,286.593 209.552 C 286.800 209.990,287.607 212.232,288.387 214.533 C 289.167 216.834,289.876 218.770,289.961 218.835 C 290.046 218.900,290.787 220.942,291.607 223.372 C 292.428 225.802,293.171 227.843,293.259 227.907 C 293.347 227.971,293.626 228.651,293.880 229.419 L 294.341 230.814 299.438 230.876 L 304.535 230.937 305.557 227.852 C 306.119 226.156,306.708 224.558,306.865 224.302 C 307.022 224.047,307.759 222.006,308.503 219.767 C 309.247 217.529,309.922 215.645,310.003 215.581 C 310.085 215.517,310.812 213.529,311.619 211.163 C 312.427 208.797,313.167 206.756,313.264 206.628 C 313.361 206.500,314.150 204.302,315.017 201.744 C 315.884 199.186,316.663 197.041,316.748 196.977 C 316.833 196.913,317.534 194.977,318.305 192.674 L 319.707 188.488 321.946 188.422 L 324.186 188.355 324.186 185.108 L 324.186 181.860 315.930 181.860 L 307.674 181.860 307.674 185.116 L 307.674 188.372 309.884 188.372 C 311.099 188.372,312.093 188.450,312.093 188.546 C 312.093 188.891,310.159 194.538,310.002 194.651 C 309.914 194.715,309.195 196.703,308.404 199.070 C 307.613 201.436,306.811 203.652,306.620 203.993 C 306.430 204.335,305.650 206.480,304.888 208.761 C 304.125 211.041,303.382 213.107,303.236 213.352 C 303.090 213.597,302.363 215.586,301.620 217.771 C 300.877 219.956,300.104 222.058,299.903 222.442 C 299.702 222.826,299.537 223.270,299.536 223.430 C 299.532 224.351,299.043 223.324,298.043 220.291 C 297.421 218.404,296.839 216.808,296.749 216.744 C 296.660 216.680,295.927 214.640,295.122 212.209 C 294.316 209.779,293.533 207.581,293.381 207.326 C 293.229 207.070,292.446 204.924,291.640 202.558 C 290.834 200.192,290.094 198.151,289.994 198.023 C 289.895 197.895,289.162 195.855,288.367 193.488 C 287.571 191.122,286.828 189.087,286.716 188.965 C 286.260 188.471,286.615 188.372,288.837 188.372 L 291.163 188.372 291.163 185.116 L 291.163 181.860 282.900 181.860 L 274.638 181.860 274.703 185.058 M346.047 185.113 L 346.047 188.372 348.721 188.372 L 351.395 188.372 351.395 204.219 L 351.395 220.065 349.360 222.121 L 347.326 224.177 343.400 224.182 L 339.474 224.186 337.068 221.802 L 334.662 219.419 334.657 214.244 L 334.651 209.070 331.395 209.070 L 328.140 209.070 328.140 215.994 L 328.140 222.919 331.273 226.118 C 332.997 227.878,334.683 229.681,335.022 230.124 L 335.637 230.930 343.362 230.930 L 351.087 230.930 352.840 229.012 C 353.804 227.956,355.548 226.126,356.715 224.945 L 358.837 222.797 358.837 205.593 L 358.837 188.389 361.105 188.322 L 363.372 188.256 363.372 185.116 L 363.372 181.977 354.709 181.916 L 346.047 181.855 346.047 185.113 M369.707 185.979 L 365.814 190.097 365.814 196.133 L 365.814 202.170 367.258 203.701 C 368.052 204.543,369.780 206.358,371.098 207.733 L 373.495 210.233 381.380 210.233 L 389.265 210.233 391.028 212.148 L 392.791 214.064 392.791 217.054 L 392.791 220.044 390.898 222.115 L 389.005 224.186 382.735 224.186 L 376.466 224.186 374.163 221.872 L 371.860 219.558 371.860 216.290 L 371.860 213.023 368.488 213.023 L 365.116 213.023 365.117 217.965 L 365.117 222.907 367.965 225.832 C 369.532 227.441,371.213 229.247,371.702 229.844 L 372.589 230.930 382.529 230.930 L 392.468 230.930 396.060 227.183 C 398.035 225.122,399.728 223.317,399.822 223.171 C 399.916 223.026,399.994 220.223,399.996 216.944 L 400.000 210.980 397.500 208.416 C 396.125 207.005,394.496 205.319,393.879 204.670 L 392.758 203.488 384.875 203.488 L 376.992 203.488 375.008 201.459 L 373.023 199.429 373.023 196.150 L 373.023 192.871 375.164 190.738 L 377.305 188.605 382.781 188.615 L 388.256 188.626 390.349 190.893 L 392.442 193.161 392.558 196.522 L 392.674 199.884 395.988 199.948 L 399.302 200.013 399.302 194.896 L 399.302 189.779 397.384 187.835 C 396.328 186.766,394.613 184.984,393.571 183.876 L 391.677 181.860 382.639 181.860 L 373.600 181.860 369.707 185.979 M223.876 190.640 L 225.811 192.674 225.812 206.398 L 225.814 220.122 223.832 222.154 L 221.850 224.186 213.716 224.186 L 205.581 224.186 205.581 206.395 L 205.581 188.605 213.761 188.605 L 221.941 188.605 223.876 190.640 M63.289 195.814 C 63.499 196.262,64.270 198.512,65.004 200.814 C 65.738 203.116,66.476 205.262,66.644 205.581 C 66.936 206.136,67.907 208.737,67.907 208.962 C 67.907 209.021,64.820 209.070,61.047 209.070 C 57.273 209.070,54.186 208.999,54.186 208.913 C 54.186 208.605,56.561 201.507,56.740 201.279 C 56.841 201.151,57.587 199.006,58.398 196.512 C 59.209 194.017,59.938 191.924,60.018 191.860 C 60.098 191.797,60.355 191.169,60.588 190.465 L 61.012 189.186 61.961 192.093 C 62.482 193.692,63.080 195.366,63.289 195.814 M315.349 226.279 L 315.349 230.930 319.419 230.930 L 323.488 230.930 323.488 226.279 L 323.488 221.628 319.419 221.628 L 315.349 221.628 315.349 226.279 " stroke="none" fill="#040b0b" fill-rule="evenodd"></path><path id="path2" d="" stroke="none" fill="#08b0a4" fill-rule="evenodd"></path><path id="path3" d="" stroke="none" fill="#08b0a4" fill-rule="evenodd"></path><path id="path4" d="" stroke="none" fill="#08b0a4" fill-rule="evenodd"></path></g></svg>