<svg width="297" height="250" viewBox="0 0 297 187" fill="none" xmlns="http://www.w3.org/2000/svg">
<path fill-rule="evenodd" clip-rule="evenodd" d="M2.193 4.10001C2.624 5.03501 3.978 8.41001 5.202 11.6C7.48 17.537 7.769 18.265 8.534 20C8.777 20.55 9.53 22.44 10.208 24.2C10.885 25.96 11.766 28.12 12.165 29C12.564 29.88 13.116 31.32 13.392 32.2C13.668 33.08 14.128 34.34 14.412 35C14.697 35.66 15.375 37.28 15.918 38.6C16.461 39.92 17.467 42.328 18.153 43.952C18.839 45.575 19.4 47.062 19.4 47.256C19.4 47.45 19.735 48.372 20.145 49.304C20.555 50.237 21.172 51.72 21.517 52.6C22.677 55.562 28.24 69.392 28.597 70.2C28.791 70.64 29.075 71.45 29.227 72C29.38 72.55 29.83 73.72 30.228 74.6C30.626 75.48 32.776 80.88 35.006 86.6C37.236 92.32 39.205 97.278 39.381 97.617C39.558 97.956 41.008 101.556 42.604 105.617C44.199 109.678 45.816 113.72 46.197 114.6C47.559 117.743 53 131.485 53 131.779C53 131.944 53.249 132.646 53.553 133.34C53.856 134.033 54.409 135.32 54.78 136.2C55.151 137.08 55.646 138.25 55.881 138.8C56.485 140.218 56.764 140.923 58.412 145.2C59.217 147.29 60.219 149.755 60.638 150.678C61.057 151.601 61.4 152.606 61.4 152.911C61.4 153.217 61.519 153.586 61.665 153.732C61.811 153.878 62.238 154.853 62.612 155.899C62.987 156.944 63.768 158.823 64.347 160.074C64.926 161.325 65.4 162.535 65.4 162.764C65.4 162.992 65.753 163.948 66.184 164.889C66.615 165.83 67.625 168.31 68.429 170.4C70.249 175.134 70.894 176.695 71.624 178.132C71.941 178.755 72.2 179.473 72.2 179.728C72.2 180.602 73.6 183.589 74.1 183.782C74.66 183.998 74.853 43.78 74.294 42.98C74.027 42.597 72.777 41.854 67.4 38.881C66.41 38.334 65.15 37.58 64.6 37.206C64.05 36.832 63.06 36.257 62.4 35.928C60.761 35.112 57.178 33.133 55 31.843C54.01 31.256 52.705 30.584 52.1 30.349C51.495 30.114 51 29.759 51 29.561C51 29.362 50.842 29.2 50.65 29.2C50.316 29.2 37.631 22.243 36.8 21.604C36.58 21.434 34.87 20.498 33 19.522C31.13 18.547 28.88 17.293 28 16.737C27.12 16.181 24.78 14.859 22.8 13.8C20.82 12.741 18.75 11.571 18.2 11.2C17.65 10.83 16.66 10.25 16 9.913C15.34 9.576 14.17 8.97901 13.4 8.58701C12.63 8.19401 11.55 7.567 11 7.193C10.45 6.819 8.92 5.918 7.6 5.191C6.28 4.464 4.61 3.539 3.888 3.135C1.684 1.901 1.285 2.12801 2.193 4.10001ZM151.175 3.44401C151.319 4.01801 151.776 5.233 152.19 6.144C152.605 7.055 153.952 10.41 155.185 13.6C156.418 16.79 157.587 19.76 157.783 20.2C157.979 20.64 158.885 22.89 159.797 25.2C160.709 27.51 161.697 29.94 161.994 30.6C162.291 31.26 163.252 33.69 164.13 36C166.503 42.247 170.143 51.303 170.6 52.095C170.82 52.477 171 53.116 171 53.515C171 53.914 171.161 54.411 171.359 54.62C171.713 54.995 172.28 56.327 174.415 61.8C175.016 63.34 176.581 67.3 177.893 70.6C179.204 73.9 180.982 78.4 181.843 80.6C182.704 82.8 183.757 85.41 184.183 86.4C185.314 89.028 188.216 96.344 188.864 98.2C189.171 99.08 189.577 100.16 189.766 100.6C189.956 101.04 190.593 102.57 191.183 104C191.773 105.43 192.416 106.96 192.611 107.4C192.806 107.84 194.612 112.43 196.625 117.6C200.368 127.215 200.685 128.002 202.153 131.311C202.619 132.362 203 133.414 203 133.65C203 134.056 203.197 134.551 204.753 138.06C205.109 138.864 205.4 139.623 205.4 139.749C205.4 139.874 205.831 140.927 206.358 142.088C206.885 143.25 207.591 145.01 207.928 146C208.574 147.901 209.391 149.912 210.641 152.678C211.059 153.601 211.4 154.548 211.4 154.783C211.4 155.019 211.565 155.523 211.766 155.905C211.968 156.287 212.43 157.32 212.793 158.2C213.157 159.08 213.604 160.16 213.787 160.6C213.97 161.04 214.344 162.03 214.62 162.8C214.895 163.57 215.381 164.83 215.701 165.6C216.581 167.722 216.827 168.335 218.187 171.8C219.512 175.177 219.836 175.985 220.511 177.6C220.742 178.15 221.342 179.643 221.846 180.918C223.893 186.097 223.8 189.284 223.8 113.919V43.739L222.9 42.97C222.405 42.546 221.55 41.943 221 41.628C216.978 39.33 211.154 36.101 207.4 34.088C206.41 33.557 205.42 32.984 205.2 32.814C204.98 32.645 203.72 31.919 202.4 31.201C200.057 29.927 195.799 27.528 194.6 26.806C192.267 25.403 182.099 19.705 180.8 19.074C179.92 18.646 177.58 17.349 175.6 16.191C171.357 13.709 169.763 12.813 166 10.795C161.617 8.445 152.441 3.17601 152.02 2.76801C151.309 2.07901 150.913 2.39701 151.175 3.44401Z" fill="#348CA3"/>
<path fill-rule="evenodd" clip-rule="evenodd" d="M150.45 2.31899C150.342 2.49499 150.438 2.89999 150.664 3.21899C151.004 3.69899 151.038 3.68299 150.86 3.12499C150.725 2.70299 150.898 2.38299 151.322 2.27099C151.957 2.10399 151.957 2.09 151.324 2.046C150.952 2.021 150.558 2.14399 150.45 2.31899ZM146.043 3.13099C145.876 3.40099 145.126 3.932 144.378 4.311C143.629 4.69 141.106 6.12499 138.771 7.49999C136.435 8.87499 134.386 9.99999 134.216 9.99999C134.047 9.99999 133.467 10.347 132.927 10.771C132.388 11.196 130.518 12.293 128.773 13.21C127.028 14.128 125.42 15.025 125.2 15.204C124.98 15.384 123 16.505 120.8 17.697C118.6 18.888 113.962 21.469 110.493 23.432C107.024 25.394 103.334 27.461 102.293 28.024C96.825 30.98 95.497 31.721 94.4 32.425C93.74 32.849 92.455 33.542 91.545 33.964C90.635 34.387 89.105 35.238 88.145 35.856C86.236 37.085 82.796 38.998 79.461 40.685C78.285 41.281 76.942 42.163 76.477 42.646C75.702 43.451 75.59 43.469 75.122 42.862C74.694 42.308 74.676 42.396 75.01 43.4C75.27 44.184 75.372 68.477 75.304 113.4C75.247 151.24 75.261 181.66 75.335 181C75.409 180.34 75.704 179.667 75.99 179.505C76.276 179.343 76.625 178.753 76.766 178.194C76.906 177.636 77.466 176.205 78.01 175.015C78.555 173.825 79 172.681 79 172.474C79 172.266 79.464 171.04 80.032 169.748C81.502 166.403 81.659 166.02 82.428 163.887C82.808 162.835 83.272 161.879 83.459 161.763C83.647 161.648 83.799 161.248 83.799 160.876C83.798 160.197 84.744 157.699 87.315 151.6C87.732 150.61 88.3 149.17 88.577 148.4C89.302 146.384 89.821 145.147 90.449 143.938C90.752 143.354 91 142.685 91 142.45C91 142.216 91.45 141.04 92 139.837C92.55 138.635 93 137.465 93 137.237C93 137.01 93.45 135.84 94 134.637C94.55 133.435 95 132.348 95 132.221C95 132.095 95.335 131.228 95.745 130.296C96.155 129.363 96.81 127.79 97.2 126.8C97.59 125.81 98.134 124.46 98.41 123.8C98.685 123.14 99.04 122.15 99.197 121.6C99.355 121.05 99.706 120.24 99.978 119.8C100.251 119.36 100.808 117.92 101.218 116.6C101.627 115.28 102.196 113.962 102.481 113.671C102.766 113.381 103 112.883 103 112.566C103 112.249 103.162 111.677 103.359 111.295C103.556 110.913 104.025 109.79 104.4 108.8C104.775 107.81 105.244 106.687 105.441 106.305C105.638 105.923 105.8 105.248 105.8 104.805C105.8 104.362 105.98 104 106.2 104C106.42 104 106.6 103.802 106.6 103.56C106.6 103.319 106.888 102.464 107.241 101.66C107.593 100.857 108.038 99.84 108.23 99.4C108.422 98.96 108.829 97.88 109.135 97C109.442 96.12 110.628 93.06 111.771 90.2C112.914 87.34 114.048 84.46 114.291 83.8C114.533 83.14 114.972 82.316 115.266 81.969C115.56 81.621 115.806 81.081 115.813 80.769C115.829 80.053 117.193 76.073 117.541 75.725C117.684 75.583 117.8 75.137 117.8 74.733C117.8 74.33 117.98 74 118.2 74C118.42 74 118.6 73.736 118.6 73.414C118.6 73.091 118.86 72.236 119.178 71.514C119.496 70.791 120.227 68.94 120.802 67.4C121.376 65.86 122.094 64.06 122.395 63.4C122.697 62.74 123.425 60.94 124.012 59.4C124.599 57.86 125.242 56.287 125.44 55.905C125.638 55.523 125.8 54.938 125.8 54.605C125.8 54.272 125.966 54 126.168 54C126.371 54 126.662 53.415 126.814 52.7C126.967 51.985 127.235 51.22 127.408 51C127.582 50.78 128.024 49.565 128.391 48.3C128.757 47.035 129.224 46 129.428 46C129.633 46 129.8 45.613 129.8 45.14C129.8 44.667 130.229 43.362 130.752 42.24C132.47 38.56 133 37.285 133 36.834C133 36.589 133.18 36.032 133.4 35.595C133.62 35.158 133.98 34.442 134.2 34.005C134.42 33.568 134.6 33.011 134.6 32.766C134.6 32.521 134.889 31.664 135.243 30.86C136.086 28.948 136.818 27.238 137.326 26C137.551 25.45 138.2 23.976 138.768 22.725C139.335 21.473 139.806 20.213 139.813 19.925C139.82 19.636 140.09 19.051 140.413 18.624C140.736 18.196 141 17.566 140.999 17.224C140.998 16.881 141.343 15.88 141.765 15C142.186 14.12 142.974 12.203 143.514 10.74L144.497 8.07999H143.097C141.842 8.07999 141.023 7.53999 141.006 6.69999C140.994 6.08899 144.219 6.384 144.462 7.016C144.743 7.749 145.8 5.98899 145.8 4.78799C145.8 4.39099 146.007 3.99799 146.26 3.91299C146.513 3.82899 146.636 3.50799 146.533 3.19999C146.391 2.77199 146.275 2.75499 146.043 3.13099ZM293.941 4.79699C293.468 4.98799 292.971 5.32299 292.836 5.54099C292.701 5.75999 292.053 6.057 291.395 6.201C290.738 6.345 290.2 6.60999 290.2 6.78799C290.2 6.96699 289.525 7.407 288.7 7.766C287.875 8.125 286.3 8.957 285.2 9.613C284.1 10.27 282.3 11.263 281.2 11.82C280.1 12.377 278.03 13.576 276.6 14.484C275.17 15.393 272.74 16.794 271.2 17.597C269.66 18.401 265.811 20.544 262.646 22.36C259.482 24.175 256.493 25.813 256.004 25.999C255.515 26.185 254.076 27.001 252.806 27.814C251.536 28.626 249.755 29.636 248.848 30.057C247.942 30.478 245.94 31.62 244.4 32.595C242.86 33.569 241.383 34.374 241.118 34.383C240.706 34.398 238.513 35.691 237.2 36.694C236.98 36.862 235.99 37.406 235 37.902C234.01 38.398 232.12 39.435 230.8 40.207C229.48 40.979 227.981 41.789 227.47 42.007C226.958 42.225 226.27 42.672 225.941 43.002C225.612 43.331 225.131 43.6 224.871 43.6C224.511 43.601 224.393 60.002 224.371 112.977L224.341 182.353L225.471 179.982C226.092 178.678 226.6 177.507 226.6 177.38C226.6 177.253 227.025 176.215 227.545 175.074C228.065 173.933 228.616 172.55 228.77 172C229.082 170.886 229.348 170.229 230.564 167.574C231.024 166.569 231.4 165.614 231.4 165.452C231.4 165.289 231.736 164.401 232.147 163.478C232.558 162.555 233.567 160.044 234.389 157.897C235.212 155.751 236.046 153.895 236.242 153.774C236.439 153.652 236.6 153.186 236.6 152.737C236.6 151.878 237.205 150.314 238.823 146.994C239.36 145.89 239.8 144.686 239.8 144.317C239.8 143.949 239.966 143.545 240.169 143.419C240.372 143.294 240.659 142.608 240.807 141.895C240.955 141.183 241.528 139.61 242.08 138.4C242.632 137.19 243.22 135.84 243.386 135.4C243.553 134.96 243.984 133.919 244.345 133.086C244.705 132.254 245 131.327 245 131.027C245 130.727 245.448 129.698 245.995 128.741C246.543 127.783 246.993 126.78 246.995 126.512C246.998 126.243 247.45 125.04 248 123.837C248.55 122.635 249 121.379 249 121.047C249 120.714 249.45 119.596 250 118.562C250.55 117.527 251 116.42 251 116.102C251 115.784 251.335 115.046 251.745 114.462C252.154 113.878 252.607 112.752 252.751 111.961C252.983 110.686 254.31 107.466 255.41 105.505C255.625 105.123 255.8 104.483 255.8 104.082C255.8 103.681 256.064 103.004 256.387 102.576C256.71 102.149 256.98 101.486 256.987 101.102C256.994 100.718 257.63 99.039 258.4 97.372C259.17 95.705 259.8 94.095 259.8 93.794C259.8 93.493 259.966 93.145 260.169 93.019C260.372 92.894 260.665 92.214 260.82 91.509C260.975 90.803 261.244 89.95 261.417 89.613C261.591 89.276 262.03 88.28 262.393 87.4C263.564 84.566 263.708 84.224 264.359 82.74C264.712 81.936 265 81.027 265 80.72C265 80.412 265.158 79.989 265.351 79.78C265.543 79.571 266.095 78.32 266.577 77C267.059 75.68 267.687 74.237 267.974 73.794C268.261 73.351 268.632 72.367 268.798 71.607C268.965 70.848 269.244 69.95 269.418 69.613C270.035 68.418 271.4 65.205 271.4 64.948C271.4 64.805 271.784 63.858 272.254 62.844C273.197 60.81 273.391 60.32 274.419 57.4C274.806 56.3 275.545 54.467 276.061 53.326C276.578 52.185 277 50.98 277 50.649C277 50.318 277.165 49.945 277.366 49.821C277.567 49.697 278.21 48.291 278.793 46.697C279.377 45.104 280.112 43.322 280.427 42.738C280.742 42.154 281 41.387 281 41.033C281 40.679 281.173 40.077 281.384 39.695C282.215 38.193 283.8 34.498 283.8 34.061C283.8 33.808 283.956 33.6 284.147 33.6C284.338 33.6 284.586 32.925 284.697 32.1C284.808 31.275 285.268 29.79 285.719 28.8C287.655 24.545 289 21.226 289 20.7C289 20.388 289.119 20.014 289.265 19.868C289.411 19.722 289.838 18.747 290.212 17.701C290.587 16.656 291.346 14.81 291.898 13.6C292.451 12.39 293.132 10.68 293.413 9.8C293.693 8.92 294.165 7.633 294.461 6.94C294.758 6.246 295 5.49599 295 5.27299C295 5.04899 295.225 4.77599 295.5 4.66499C295.836 4.52899 295.803 4.46099 295.4 4.45699C295.07 4.45399 294.413 4.60699 293.941 4.79699ZM143 9.42399C143 9.74099 142.73 9.99999 142.4 9.99999C141.798 9.99999 141.578 9.15599 142.056 8.67799C142.429 8.30399 143 8.75499 143 9.42399ZM290.777 9.01299C291.816 9.79899 291.216 11.738 289.875 11.93C289.196 12.027 289.025 12.247 289.199 12.796C289.456 13.606 288.728 14.294 288.196 13.745C288.013 13.555 287.783 12.77 287.687 12C287.591 11.23 287.589 10.915 287.684 11.3C287.955 12.404 288.854 12.118 289.422 10.746C289.884 9.62999 289.859 9.43299 289.194 8.94599C288.468 8.41599 288.469 8.39999 289.224 8.41299C289.651 8.41999 290.35 8.68999 290.777 9.01299ZM153.828 11.4C153.828 11.62 154.086 12.25 154.4 12.8C154.714 13.35 154.972 13.62 154.972 13.4C154.972 13.18 154.714 12.55 154.4 12C154.086 11.45 153.828 11.18 153.828 11.4ZM133.8 13C133.8 13.33 133.98 13.6 134.2 13.6C134.42 13.6 134.6 13.87 134.6 14.2C134.6 14.53 134.87 14.8 135.2 14.8C135.53 14.8 135.8 14.62 135.8 14.4C135.8 14.18 136.07 14 136.4 14C137.399 14 137.073 14.972 135.9 15.491C134.059 16.306 133.16 15.805 133.181 13.976C133.192 13.111 133.335 12.402 133.5 12.401C133.665 12.401 133.8 12.67 133.8 13ZM286.936 15.169C287.011 15.698 287.461 16.474 287.936 16.895L288.8 17.659L287.4 17.456C286.63 17.345 286.225 17.347 286.5 17.46C287.76 17.98 286.386 22.129 285.096 21.699C284.504 21.501 284.429 19.353 285.001 18.999C285.517 18.681 285.072 16.735 284.352 16.156C283.628 15.574 283.652 15.2 284.413 15.2C284.749 15.2 285.132 14.921 285.263 14.58C285.617 13.657 286.78 14.066 286.936 15.169ZM140 14.8C138.895 15.275 138.2 15.275 138.2 14.8C138.2 14.58 138.785 14.413 139.5 14.428C140.589 14.452 140.67 14.512 140 14.8ZM280.746 15.479C280.899 15.633 280.614 15.996 280.113 16.287C279.296 16.76 279.404 16.788 281.139 16.556C282.892 16.322 283.065 16.37 282.934 17.049C282.765 17.926 279.785 18.51 278.3 17.956C277.174 17.535 277.11 16.4 278.213 16.4C278.659 16.4 279.129 16.13 279.255 15.8C279.497 15.171 280.271 15.004 280.746 15.479ZM131.8 16.557C131.8 17.806 130.599 18.287 129.891 17.322C129.415 16.672 130.257 15.878 131.7 15.618C131.755 15.608 131.8 16.031 131.8 16.557ZM140.6 16.6C140.6 17.4 140.4 17.6 139.6 17.6C138.276 17.6 138.191 16.134 139.5 15.882C139.995 15.787 140.445 15.684 140.5 15.654C140.555 15.625 140.6 16.05 140.6 16.6ZM127.8 17.2C128.035 17.64 128.072 18 127.881 18C127.69 18 127.369 18.854 127.167 19.897C126.665 22.492 125.705 22.638 124.915 20.238C124.423 18.744 124.414 18.404 124.861 18.232C125.158 18.118 125.4 17.659 125.4 17.213C125.4 16.108 127.21 16.098 127.8 17.2ZM135 20.2C135 21.232 134.403 21.853 134.015 21.225C133.672 20.669 134.216 18.762 134.643 19.026C134.839 19.148 135 19.676 135 20.2ZM123 20.976C123 21.901 122.311 22.066 122.083 21.196C121.948 20.68 122.073 20.4 122.437 20.4C122.747 20.4 123 20.659 123 20.976ZM133.8 22.869C133.8 23.566 134.05 24.421 134.355 24.769C135.071 25.583 134.745 28.141 133.964 27.841C133.31 27.591 132.778 28.345 132.935 29.3C133.053 30.019 132.383 30.199 131.233 29.757C130.789 29.587 130.6 28.991 130.6 27.757C130.6 26.368 130.453 25.99 129.9 25.954C129.26 25.911 129.258 25.892 129.879 25.728C130.33 25.61 130.647 24.959 130.821 23.797C131.046 22.296 131.235 22.022 132.142 21.882C132.724 21.793 133.335 21.693 133.5 21.66C133.665 21.627 133.8 22.171 133.8 22.869ZM122 22.4C122.136 22.62 121.989 22.8 121.673 22.8C121.357 22.8 120.874 23.07 120.6 23.4C119.911 24.231 119.133 24.15 118.89 23.223C118.577 22.024 121.319 21.298 122 22.4ZM269.151 23.216C269.613 23.645 269.111 25.592 268.488 25.786C268.22 25.869 267.325 26.05 266.5 26.187C265.363 26.376 265 26.626 265 27.218C265 27.877 264.72 28 263.224 28C261.393 28 260.35 28.643 261.81 28.871C263.038 29.064 262.579 29.794 261.2 29.842C260.54 29.865 259.415 30.023 258.7 30.192C257.058 30.581 256.934 29.744 258.4 28.162C258.95 27.569 259.4 26.929 259.4 26.742C259.4 26.554 259.751 26.4 260.18 26.4C260.609 26.4 261.104 26.175 261.28 25.9C261.76 25.15 263.271 24.4 264.303 24.4C264.806 24.4 265.663 23.963 266.208 23.429C267.166 22.491 268.283 22.41 269.151 23.216ZM125.164 23.141C125.572 23.803 124.304 25.049 123.764 24.517C123.377 24.136 123.382 23.904 123.786 23.417C124.358 22.728 124.848 22.63 125.164 23.141ZM42.6 24.579C42.6 24.689 43.14 25.059 43.8 25.4C44.46 25.741 45 25.931 45 25.821C45 25.711 44.46 25.341 43.8 25C43.14 24.659 42.6 24.469 42.6 24.579ZM117.6 24.972L119.2 25.483L118.131 25.92C117.491 26.181 117.009 26.727 116.931 27.278C116.775 28.377 113.223 29.03 110.676 28.429C109.864 28.237 109.519 28.062 109.91 28.04C110.3 28.018 110.791 27.55 111 27C111.289 26.241 111.669 26 112.576 26C113.362 26 113.918 25.726 114.2 25.2C114.687 24.29 115.329 24.247 117.6 24.972ZM122.2 25.6C121.412 26.109 119.8 26.109 119.8 25.6C119.8 25.38 120.475 25.203 121.3 25.206C122.416 25.211 122.646 25.312 122.2 25.6ZM109.302 26.7C109.405 27.011 109.086 27.2 108.457 27.2C107.41 27.2 106.82 26.713 107.294 26.239C107.715 25.818 109.118 26.14 109.302 26.7ZM106.012 28.419C106.154 28.65 106.57 28.809 106.935 28.773C108.517 28.618 109.319 28.846 109.489 29.5C109.73 30.421 106.51 30.656 105.776 29.771C105.515 29.457 104.975 29.2 104.575 29.2C103.478 29.2 103.258 28.482 104.294 28.283C104.792 28.187 105.324 28.084 105.476 28.054C105.628 28.025 105.869 28.189 106.012 28.419ZM11.828 29.4C11.828 29.62 12.086 30.25 12.4 30.8C12.714 31.35 12.972 31.62 12.972 31.4C12.972 31.18 12.714 30.55 12.4 30C12.086 29.45 11.828 29.18 11.828 29.4ZM284.6 30.138C284.6 30.434 284.244 30.999 283.808 31.393C283.372 31.787 282.9 32.724 282.76 33.475C282.515 34.78 282.479 34.805 281.94 34.036C281.418 33.291 281.441 32.597 282.064 30.3C282.295 29.447 284.6 29.3 284.6 30.138ZM105.233 30.4C106.264 30.4 105.842 32.185 104.541 33.326C103.328 34.391 100.912 34.73 99.1 34.091C97.026 33.359 101.924 29.62 104.133 30.249C104.426 30.332 104.921 30.4 105.233 30.4ZM127.164 31.746C127.599 34.067 127.373 34.214 123.597 34.071C121.728 33.999 120.2 33.834 120.2 33.702C120.2 32.83 121.694 32 123.262 32C124.733 32 125 31.877 125 31.2C125 29.69 126.866 30.161 127.164 31.746ZM256.057 31C255.727 31.33 255.264 31.6 255.029 31.6C254.793 31.6 254.6 31.33 254.6 31C254.6 30.622 254.981 30.4 255.629 30.4C256.543 30.4 256.59 30.467 256.057 31ZM249.352 32.984C251.332 32.182 253.095 32.259 252.555 33.124C251.734 34.439 247.96 34.806 247.15 33.65C246.822 33.182 246.25 32.779 245.877 32.753C245.505 32.727 245.74 32.586 246.4 32.44C247.179 32.268 247.793 32.363 248.152 32.711C248.455 33.005 248.995 33.128 249.352 32.984ZM268.931 33.123C269.054 33.992 268.947 34.039 267.134 33.923C264.862 33.778 264.097 32.591 266.076 32.282C268.135 31.96 268.793 32.154 268.931 33.123ZM279.493 32.8C279.768 33.24 280.219 33.6 280.496 33.6C281.429 33.6 281.154 37.635 280.204 37.883C279.593 38.043 279.463 38.314 279.647 39.046C279.792 39.622 279.711 40 279.443 40C279.2 40 279 40.608 279 41.351C279 42.094 278.73 42.926 278.4 43.2C278.07 43.474 277.8 43.946 277.8 44.249C277.8 44.552 277.641 44.8 277.447 44.8C277.252 44.8 276.995 45.176 276.875 45.635C276.579 46.766 275.241 46.481 275.066 45.25C274.992 44.731 274.618 44.225 274.234 44.125C273.338 43.891 272.432 40.476 272.809 38.758C272.97 38.027 273.206 37.686 273.369 37.949C273.946 38.883 277.4 38.023 277.4 36.946C277.4 36.392 277.637 36 277.973 36C278.719 36 279.207 34.447 278.64 33.88C278.092 33.332 278.061 32 278.597 32C278.815 32 279.218 32.36 279.493 32.8ZM117.8 32.551C117.8 32.634 117.53 32.926 117.2 33.2C116.709 33.608 116.6 33.58 116.6 33.049C116.6 32.692 116.87 32.4 117.2 32.4C117.53 32.4 117.8 32.468 117.8 32.551ZM205 32.583C205 32.763 207.402 34 207.75 34C208.097 34 206.494 32.967 205.7 32.679C205.315 32.539 205 32.496 205 32.583ZM130.054 33.906C131.035 34.542 130.638 37.605 129.52 38.031C128.19 38.536 128.024 38.328 128.144 36.305C128.275 34.077 128.97 33.204 130.054 33.906ZM273 34.269C273 34.975 271.557 36 270.562 36C269.333 36 268.81 35.473 269.152 34.581C269.377 33.995 273 33.701 273 34.269ZM93.328 35.3C93.234 35.959 92.932 36.2 92.2 36.2C91.468 36.2 91.166 35.959 91.072 35.3C90.963 34.531 91.127 34.4 92.2 34.4C93.273 34.4 93.437 34.531 93.328 35.3ZM87.099 39.033C87.264 39.304 87.759 39.431 88.199 39.316C88.892 39.135 89 39.303 89 40.561V42.015L86 41.937C83.444 41.871 83 41.757 83 41.163C83 39.829 83.426 39.282 84.288 39.507C84.895 39.666 85.039 39.587 84.811 39.218C84.419 38.584 85.3 37.991 86.164 38.307C86.514 38.435 86.935 38.762 87.099 39.033ZM126.759 39.631C127.233 42.598 126.431 46.4 125.331 46.4C124.812 46.4 125.173 42.555 125.758 41.85C126.091 41.449 126.108 41.19 125.813 41.008C125.579 40.863 125.483 40.59 125.6 40.4C125.717 40.21 125.63 39.942 125.407 39.804C124.685 39.358 124.943 38 125.749 38C126.316 38 126.561 38.397 126.759 39.631ZM244.6 40.2C244.6 40.628 244.169 40.798 243.1 40.794C241.606 40.788 241.604 40.786 242.6 40.233C243.944 39.487 244.6 39.477 244.6 40.2ZM237 40.787C238.081 40.999 238.952 40.992 239.18 40.77C239.964 40.007 240.506 40.451 240.764 42.067C240.911 42.984 241.339 43.968 241.715 44.254C242.318 44.712 242.226 44.776 240.956 44.787C239.892 44.797 239.315 45.063 238.761 45.8C237.745 47.153 237.4 47.058 237.4 45.424C237.4 44.667 237.21 43.93 236.977 43.786C236.303 43.369 234.6 43.958 234.6 44.608C234.6 44.933 234.33 45.2 234 45.2C233.073 45.2 233.161 40.278 233.073 97.5L233 145.6H232H231V97.8C231 50.267 230.996 50 230.2 50C229.756 50 229.4 49.733 229.4 49.4C229.4 49.07 229.13 48.8 228.8 48.8C228.103 48.8 228.001 48.17 228.635 47.778C228.92 47.602 228.934 47.374 228.676 47.116C228.222 46.662 229.34 44.407 230.02 44.403C230.929 44.397 232.59 43.374 232.422 42.924C232.312 42.631 232.735 42.4 233.518 42.324C234.945 42.185 235.529 40.993 234.323 40.68C232.947 40.324 235.065 40.408 237 40.787ZM79.328 45.1C79.398 45.595 79.713 46 80.028 46C80.343 46 80.6 46.248 80.6 46.551C80.6 47.623 81.697 47.98 85.328 48.089C88.765 48.192 89 48.253 89 49.044C89 49.805 88.702 49.917 86.013 50.16C81.764 50.545 78.876 50.119 79.13 49.144C79.276 48.59 79.105 48.398 78.463 48.394C76.701 48.381 76.115 46.326 77.29 44.277C77.682 43.595 79.201 44.209 79.328 45.1ZM93.199 44.796C93.543 45.881 93.143 46.4 91.964 46.4C90.913 46.4 90.365 45.591 90.745 44.6C91.091 43.699 92.896 43.843 93.199 44.796ZM92.902 47.3C92.649 48.069 91 48.18 91 47.428C91 47.019 91.361 46.8 92.033 46.8C92.681 46.8 93.005 46.987 92.902 47.3ZM125.967 47.043C126.35 47.19 126.6 47.76 126.6 48.486C126.6 49.415 126.458 49.631 125.967 49.443C125.619 49.309 125.259 49.2 125.167 49.2C125.075 49.2 125 48.66 125 48C125 46.703 125.023 46.68 125.967 47.043ZM252.767 49.653C252.151 50.65 250.741 49.652 251.173 48.526C251.391 47.957 251.498 47.965 252.199 48.599C252.629 48.988 252.885 49.463 252.767 49.653ZM114.6 50.551C114.6 51.36 113.542 52.153 113.2 51.6C112.805 50.96 113.277 50 113.987 50C114.324 50 114.6 50.248 114.6 50.551ZM272.394 51.331C272.856 52.304 272.921 52.922 272.638 53.631C272.289 54.503 272.248 54.518 272.225 53.776C272.211 53.324 271.936 52.604 271.613 52.176C270.946 51.295 270.809 50 271.381 50C271.591 50 272.047 50.599 272.394 51.331ZM274.435 51.498C273.998 51.935 273.699 51.24 274.012 50.517C274.31 49.832 274.332 49.833 274.497 50.531C274.593 50.934 274.565 51.369 274.435 51.498ZM226.326 98.1C226.464 147.535 226.559 150.404 228.113 152.123C228.583 152.644 228.655 153.023 228.369 153.477C227.657 154.606 227.203 154.236 227.046 152.4C226.887 150.53 225.963 155.108 225.755 158.8C225.342 166.124 225.073 144.672 225.04 101.9C225.005 56.495 225.071 50.4 225.597 50.4C226.122 50.4 226.21 56.14 226.326 98.1ZM270.667 55.887C270.419 56.719 270.426 58.294 270.688 60.349C271.053 63.204 271.018 63.629 270.347 64.55C269.163 66.174 268.461 65.907 269.209 64.117C269.656 63.046 269.723 62.352 269.447 61.617C268.444 58.939 268.6 56.01 269.747 55.987C270.329 55.976 270.324 55.917 269.7 55.443C269.001 54.913 268.709 52.424 269.279 51.855C269.913 51.22 271.064 54.56 270.667 55.887ZM124.6 52.4C124.6 52.62 124.33 52.8 124 52.8C123.67 52.8 123.4 52.62 123.4 52.4C123.4 52.18 123.67 52 124 52C124.33 52 124.6 52.18 124.6 52.4ZM118.552 57.058C118.07 57.639 118.103 57.685 118.836 57.452C120.423 56.948 121.053 58.293 120.751 61.541C120.605 63.113 120.331 64.4 120.143 64.4C119.954 64.4 119.8 64.67 119.8 65C119.8 65.33 119.62 65.6 119.4 65.6C119.18 65.6 119 65.409 119 65.176C119 64.943 118.803 64.875 118.562 65.024C118.32 65.173 118.201 65.824 118.296 66.471C118.411 67.257 118.25 67.805 117.808 68.123C117.445 68.386 117.03 68.915 116.886 69.3C116.743 69.685 116.304 70 115.913 70C115.317 70 115.183 70.409 115.094 72.5C114.965 75.523 114.719 76.4 114 76.4C113.279 76.4 113.334 78.8 114.062 79.079C114.811 79.367 114.769 81.6 114.014 81.6C113.692 81.6 113.202 82.005 112.925 82.5C112.477 83.302 112.377 83.009 112.011 79.8C111.636 76.518 111.521 76.189 110.7 76.072C109.754 75.938 109.393 74.299 110.2 73.8C110.826 73.413 110.669 72 110 72C109.627 72 109.4 71.622 109.4 71C109.4 70.286 109.616 70 110.157 70C110.574 70 111.018 69.73 111.145 69.4C111.297 69.004 111.923 68.8 112.987 68.8C113.874 68.8 114.6 68.62 114.6 68.4C114.6 68.18 114.251 68 113.824 68C111.759 68 112.613 66.858 115.18 66.186L116.762 65.771L116.827 63.291C116.863 61.927 117.124 60.533 117.406 60.193C117.828 59.684 117.807 59.489 117.284 59.087C116.263 58.303 116.837 56.4 118.096 56.4C118.98 56.4 119.034 56.477 118.552 57.058ZM110.746 59.856C111.401 64.64 111.046 66.545 109.569 66.161C108.328 65.838 108.677 58 109.933 58C110.294 58 110.581 58.656 110.746 59.856ZM119.4 63C119.4 63.33 119.58 63.6 119.8 63.6C120.02 63.6 120.2 63.33 120.2 63C120.2 62.67 120.02 62.4 119.8 62.4C119.58 62.4 119.4 62.67 119.4 63ZM258.928 67.104C259.024 67.777 258.856 68 258.251 68C257.294 68 256.84 67.395 257.163 66.551C257.506 65.66 258.779 66.058 258.928 67.104ZM268.6 66.613C268.6 66.95 268.195 67.379 267.7 67.566C266.556 67.999 266.428 67.868 266.982 66.834C267.5 65.865 268.6 65.715 268.6 66.613ZM265.772 68.9C265.749 69.959 265.685 70.051 265.427 69.4C265.253 68.96 265.195 68.375 265.298 68.1C265.62 67.242 265.801 67.548 265.772 68.9ZM111.4 70.4C111.4 70.62 111.76 70.8 112.2 70.8C112.64 70.8 113 70.62 113 70.4C113 70.18 112.64 70 112.2 70C111.76 70 111.4 70.18 111.4 70.4ZM260.529 72.2C261.479 73.409 261.646 73.433 261.916 72.4C262.13 71.581 263.173 71.309 263.579 71.966C263.704 72.168 263.619 72.823 263.392 73.422C262.935 74.622 263.232 75.319 263.805 74.392C264.062 73.976 264.291 73.931 264.595 74.235C264.899 74.539 264.805 74.943 264.271 75.631C263.858 76.164 263.583 76.782 263.661 77.005C263.739 77.227 263.397 77.589 262.902 77.808C261.912 78.246 261.881 79.338 262.831 80.288C263.559 81.016 263.548 81.379 262.78 82.017C262.256 82.452 262.124 82.397 261.933 81.666C261.809 81.19 261.526 80.8 261.305 80.8C261.062 80.8 260.972 79.854 261.077 78.4C261.24 76.148 261.197 76 260.38 76C259.647 76 259.468 75.706 259.254 74.144C258.799 70.824 259.093 70.375 260.529 72.2ZM112.2 74.824C112.2 75.277 112.38 75.536 112.6 75.4C112.82 75.264 113 74.893 113 74.576C113 74.259 112.82 74 112.6 74C112.38 74 112.2 74.371 112.2 74.824ZM254.75 77.25C255.352 80.26 255.077 82 254 82C253.01 82 252.389 77.145 253.267 76.267C253.877 75.656 254.516 76.079 254.75 77.25ZM31.828 79.8C31.828 80.02 32.086 80.65 32.4 81.2C32.714 81.75 32.972 82.02 32.972 81.8C32.972 81.58 32.714 80.95 32.4 80.4C32.086 79.85 31.828 79.58 31.828 79.8ZM111 82.751C111 83.164 110.73 83.726 110.4 84C110.07 84.274 109.8 84.836 109.8 85.249C109.8 85.662 109.53 86 109.2 86C108.825 86 108.6 85.621 108.6 84.987C108.6 84.431 108.87 83.871 109.2 83.745C109.53 83.618 109.8 83.174 109.8 82.757C109.8 82.341 110.07 82 110.4 82C110.73 82 111 82.338 111 82.751ZM260.669 83.885C260.783 85.319 260.684 85.587 260.004 85.685C259.127 85.811 258.744 87.004 258.62 90C258.554 91.603 258.498 91.702 258.112 90.9C257.626 89.893 256.2 89.669 256.2 90.6C256.2 90.93 256.38 91.2 256.6 91.2C257.04 91.2 257.156 93.31 256.739 93.728C256.595 93.871 256.048 93.091 255.523 91.994C254.507 89.87 253.529 89.264 253.973 91.034C254.271 92.221 253.908 93.714 253.399 93.399C252.362 92.758 253.084 86 254.189 86C254.764 86 254.982 85.583 255.186 84.1L255.448 82.2H257.991H260.535L260.669 83.885ZM111.88 85.68C111.507 86.053 111.4 85.947 111.4 85.2C111.4 84.453 111.507 84.347 111.88 84.72C112.253 85.093 112.253 85.307 111.88 85.68ZM111 86.967C111 88.442 110.547 88.876 109.754 88.159C109.047 87.519 109.045 87.455 109.704 86.954C110.612 86.264 111 86.268 111 86.967ZM96.482 99.384C96.451 100.464 96.329 100.673 95.928 100.34C95.539 100.017 95.317 100.167 95.017 100.957C94.236 103.01 93 102.036 93 99.367C93 98.018 93.023 98 94.76 98C96.509 98 96.521 98.009 96.482 99.384ZM254.811 100.566C254.805 101.978 254.665 103.268 254.5 103.433C254.335 103.598 254.2 103.44 254.2 103.081C254.2 102.722 253.84 102.235 253.4 102C251.878 101.186 252.338 98 253.978 98C254.75 98 254.821 98.218 254.811 100.566ZM103 100.492C103 100.957 102.714 101.653 102.364 102.04C101.715 102.757 101.898 104.4 102.627 104.4C102.832 104.4 103 105.057 103 105.86C103 108.003 100.922 109.951 98.73 109.864L97.145 109.8L97.127 107.069C97.11 104.559 97.185 104.31 98.054 103.979C98.951 103.639 99.067 103.43 99.161 102.001C99.183 101.671 99.471 101.383 99.801 101.361C100.13 101.34 100.715 101.294 101.1 101.261C101.49 101.227 101.8 100.875 101.8 100.467C101.8 100.063 101.915 99.618 102.056 99.478C102.486 99.047 103 99.6 103 100.492ZM96.1 110.657C96.778 111.08 96.976 111.538 96.9 112.509C96.812 113.649 96.928 113.815 97.9 113.927C99.082 114.063 99.164 114.352 98.743 116.904C98.518 118.261 98.442 118.339 97.96 117.704C97.666 117.317 97.406 117.09 97.382 117.2C97.358 117.31 97.282 117.693 97.212 118.051C96.871 119.803 96.492 120.437 95.866 120.306C94.953 120.116 95.183 118.482 96.252 117.555C96.949 116.951 97.045 116.565 96.811 115.319C96.538 113.864 96.512 113.843 96.041 114.723L95.554 115.633L94.815 114.817C94.409 114.367 93.834 114 93.538 114C93.152 114 93 113.375 93 111.792C93 109.382 93.666 109.138 96.1 110.657ZM246.443 110.569C246.697 111.229 245.952 112.8 245.386 112.8C244.953 112.8 244.853 110.681 245.267 110.267C245.702 109.831 246.21 109.961 246.443 110.569ZM252.6 110.536C252.6 110.83 252.145 111.279 251.589 111.532C251.033 111.786 250.459 112.31 250.314 112.697C250.168 113.083 249.807 113.583 249.51 113.806C249.213 114.029 248.909 115.109 248.834 116.206C248.76 117.303 248.677 118.519 248.65 118.91C248.622 119.3 248.128 119.799 247.552 120.018C246.651 120.361 246.537 120.586 246.744 121.618C246.935 122.575 246.782 122.995 245.992 123.682C245.298 124.285 244.992 124.974 244.972 125.972C244.915 128.839 242.648 129.727 242.568 126.913C242.551 126.301 242.446 126.025 242.335 126.3C241.832 127.547 241.4 126.577 241.4 124.2C241.4 122.294 241.543 121.6 241.936 121.6C242.231 121.6 242.71 120.88 243 120C243.605 118.166 243.971 118.039 245.023 119.3C245.436 119.795 245.779 120.005 245.787 119.767C245.794 119.528 245.668 119.201 245.506 119.039C245.162 118.695 244.991 116.347 245.276 115.881C245.597 115.355 246.57 116.412 246.333 117.029C246.213 117.343 246.325 117.6 246.582 117.6C246.84 117.6 247.018 117.285 246.979 116.9C246.771 114.851 247.021 114.082 247.973 113.842C248.509 113.708 249.069 113.194 249.219 112.699C249.809 110.755 252.6 108.969 252.6 110.536ZM240.6 115C240.6 115.733 240.387 116 239.8 116C239.267 116 239 116.267 239 116.8C239 118.177 237.54 117.802 237.25 116.35C236.801 114.105 236.87 114 238.8 114C240.453 114 240.6 114.081 240.6 115ZM94.396 121.6C94.743 122.005 94.877 123.242 94.809 125.4C94.672 129.762 94.721 129.574 93.6 130C93.05 130.209 92.6 130.655 92.6 130.99C92.6 131.326 92.33 131.6 92 131.6C91.175 131.6 91.244 130.528 92.1 130.046C92.682 129.719 92.784 129.162 92.703 126.754C92.628 124.515 92.757 123.689 93.271 123.122C93.875 122.455 93.878 122.342 93.304 121.894C92.804 121.502 92.761 121.194 93.098 120.4C93.488 119.479 93.536 119.464 93.702 120.2C93.801 120.64 94.114 121.27 94.396 121.6ZM237.88 131.237C237.745 132.158 237.603 132.348 237.366 131.925C236.997 131.265 237.335 129.513 237.779 129.787C237.937 129.885 237.983 130.537 237.88 131.237ZM242.6 130.787C242.6 131.66 242.446 131.916 242.02 131.753C241.622 131.6 241.339 131.923 241.115 132.789C240.692 134.422 240.107 134.512 239.747 133C239.589 132.34 239.336 131.395 239.184 130.9C238.859 129.845 239.542 129.685 240.457 130.6C241.267 131.41 241.666 131.355 241.916 130.4C242.225 129.217 242.6 129.429 242.6 130.787ZM82.922 132.104L83.044 134H81.222C80.22 134 79.4 133.82 79.4 133.6C79.4 133.38 79.76 133.2 80.2 133.2C80.84 133.2 81 132.933 81 131.867C81 129.098 82.742 129.313 82.922 132.104ZM238.961 134.211C239.451 135.217 239.441 135.503 238.884 136.472C238.516 137.113 238.406 137.68 238.624 137.815C239.21 138.177 239.067 139.447 238.375 140.021C237.808 140.492 237.808 140.573 238.375 140.89C239.496 141.517 239.016 146.034 237.86 145.731C237.194 145.556 237.166 144.9 237.37 134.066C237.4 132.459 238.14 132.526 238.961 134.211ZM85.09 136.223C85.552 136.686 84.877 138 84.177 138C83.299 138 82.847 137.375 83.152 136.581C83.37 136.014 84.645 135.778 85.09 136.223ZM88.745 138.7C88.675 140.185 88.533 142.21 88.43 143.2C88.328 144.19 88.234 145.123 88.222 145.273C88.21 145.423 87.83 145.664 87.377 145.807C86.924 145.951 86.385 146.514 86.177 147.06C85.866 147.877 85.574 148.029 84.504 147.925C82.999 147.78 82.336 146.4 83.771 146.4C84.227 146.4 84.629 146.175 84.665 145.9C84.752 145.233 84.835 143.52 84.925 140.547C85.008 137.829 86.143 136.78 87.347 138.306C87.835 138.924 87.865 138.872 87.624 137.838C87.378 136.78 87.794 136.028 88.636 136.006C88.766 136.003 88.815 137.215 88.745 138.7ZM78.802 143.223C79.121 146.827 79.112 146.859 77.883 146.537C76.442 146.161 76.576 140 78.025 140C78.35 140 78.614 141.095 78.802 143.223ZM78.923 149.503C79.032 151.002 79.16 151.2 80.023 151.2C81.183 151.2 81.506 153.72 80.4 154.145C80.051 154.279 79.8 154.878 79.8 155.578C79.8 156.415 79.5 156.978 78.818 157.425C77.883 158.038 76.766 157.902 77.183 157.227C77.291 157.052 77.131 155.67 76.828 154.155C76.208 151.062 76.233 149.807 76.926 149.114C77.187 148.853 77.4 148.393 77.4 148.091C77.4 146.594 78.807 147.899 78.923 149.503ZM232.983 154.647C232.428 157.37 231.718 158.362 230.843 157.636C230.288 157.175 230.2 157.214 230.2 157.918C230.2 160.042 229.194 160.701 228.909 158.763C228.777 157.862 228.927 157.402 229.464 157.067C230.352 156.513 230.429 155.374 229.6 155.055C229.238 154.916 229 154.313 229 153.534V152.243L230.407 153.607L231.814 154.971L231.573 153.763C231.404 152.919 231.522 152.396 231.966 152.029C232.314 151.739 232.615 151.209 232.634 150.851C232.653 150.493 232.833 150.74 233.034 151.4C233.264 152.155 233.245 153.359 232.983 154.647ZM82.6 154.849C82.6 155.555 82.5 155.615 82.004 155.204C81.402 154.704 81.531 154 82.224 154C82.431 154 82.6 154.382 82.6 154.849ZM81.146 159.972C80.766 161.869 80.281 161.813 79.985 159.836C79.659 157.667 80.047 156.804 80.839 157.934C81.189 158.434 81.302 159.188 81.146 159.972ZM232.6 159.8C232.6 160.35 232.42 160.8 232.2 160.8C231.753 160.8 231.652 159.482 232.067 159.067C232.508 158.626 232.6 158.753 232.6 159.8ZM78.994 162.686C78.997 163.173 79.36 163.765 79.8 164C80.24 164.235 80.6 164.692 80.6 165.014C80.6 165.888 79.757 165.722 79.516 164.8C79.401 164.36 79.061 164 78.761 164C78.014 164 77.635 165.744 78.166 166.736C78.742 167.812 78.719 167.921 77.928 167.856C77.527 167.822 77.139 168.205 76.968 168.8C76.788 169.425 76.665 168.564 76.64 166.5C76.615 164.433 76.757 163.2 77.021 163.2C77.252 163.2 77.636 162.643 77.873 161.961C78.344 160.611 78.982 161.024 78.994 162.686ZM225.917 166.888L225.523 170.6L225.488 166C225.462 162.46 225.553 161.605 225.883 162.288C226.182 162.907 226.192 164.301 225.917 166.888ZM229.233 162.4C229.645 162.4 229.581 162.619 229 163.2C228 164.2 227 164.234 227 163.267C227 162.322 227.414 161.92 228.112 162.188C228.416 162.304 228.921 162.4 229.233 162.4ZM76.96 174.7C76.852 176.605 76.28 177.399 76.24 175.7C76.218 174.765 76.38 174 76.6 174C76.82 174 76.982 174.315 76.96 174.7ZM73 183.422C73 183.642 73.282 184.225 73.627 184.718C74.306 185.687 75.004 185.564 74.994 184.476C74.989 183.946 74.914 183.917 74.645 184.341C74.377 184.764 74.161 184.68 73.651 183.952C73.293 183.44 73 183.202 73 183.422ZM222.209 183.456C222.214 183.645 222.552 184.235 222.961 184.767L223.704 185.733L223.988 184.836C224.145 184.343 224.167 183.833 224.037 183.703C223.906 183.573 223.794 183.812 223.787 184.233C223.775 184.931 223.703 184.915 222.987 184.056C222.554 183.536 222.204 183.266 222.209 183.456Z" fill="#8DCBB3"/>
<path fill-rule="evenodd" clip-rule="evenodd" d="M2 2.289C2.44 2.398 3.07 2.692 3.4 2.943C3.922 3.34 3.928 3.309 3.451 2.7C3.149 2.315 2.519 2.02101 2.051 2.04601C1.243 2.09001 1.24 2.103 2 2.289ZM141.006 6.7C141.022 7.499 141.799 8.053 142.945 8.086C144.423 8.128 144.789 7.87 144.462 7.017C144.219 6.384 140.994 6.088 141.006 6.7ZM142.056 8.678C141.578 9.156 141.798 10 142.4 10C142.73 10 143 9.741 143 9.424C143 8.755 142.429 8.304 142.056 8.678ZM289.194 8.946C289.859 9.433 289.884 9.63001 289.422 10.746C288.854 12.118 287.955 12.404 287.684 11.3C287.589 10.915 287.591 11.23 287.687 12C287.783 12.77 288.013 13.555 288.196 13.745C288.728 14.294 289.456 13.606 289.199 12.796C289.025 12.247 289.196 12.027 289.875 11.93C292.11 11.61 291.525 8.45 289.224 8.413C288.469 8.4 288.468 8.416 289.194 8.946ZM133.181 13.976C133.16 15.805 134.059 16.306 135.9 15.491C137.073 14.972 137.399 14 136.4 14C136.07 14 135.8 14.18 135.8 14.4C135.8 14.62 135.53 14.8 135.2 14.8C134.87 14.8 134.6 14.53 134.6 14.2C134.6 13.87 134.42 13.6 134.2 13.6C133.98 13.6 133.8 13.33 133.8 13C133.8 12.67 133.665 12.401 133.5 12.401C133.335 12.402 133.192 13.111 133.181 13.976ZM285.263 14.58C285.132 14.921 284.749 15.2 284.413 15.2C283.652 15.2 283.628 15.574 284.352 16.156C285.072 16.735 285.517 18.681 285.001 18.999C284.429 19.353 284.504 21.501 285.096 21.699C286.386 22.129 287.76 17.98 286.5 17.46C286.225 17.347 286.63 17.345 287.4 17.456L288.8 17.659L287.936 16.895C287.461 16.474 287.011 15.698 286.936 15.169C286.78 14.066 285.617 13.657 285.263 14.58ZM138.2 14.8C138.2 15.275 138.895 15.275 140 14.8C140.67 14.512 140.589 14.452 139.5 14.428C138.785 14.413 138.2 14.58 138.2 14.8ZM279.255 15.8C279.129 16.13 278.659 16.4 278.213 16.4C277.11 16.4 277.174 17.535 278.3 17.956C279.785 18.51 282.765 17.926 282.934 17.049C283.065 16.37 282.892 16.322 281.139 16.556C279.404 16.788 279.296 16.76 280.113 16.287C280.614 15.996 280.899 15.633 280.746 15.479C280.271 15.004 279.497 15.171 279.255 15.8ZM130.481 16.118C129.167 16.684 129.776 18.291 131.111 17.779C131.637 17.577 132.196 15.529 131.7 15.618C131.645 15.628 131.096 15.853 130.481 16.118ZM139.5 15.882C138.191 16.134 138.276 17.6 139.6 17.6C140.4 17.6 140.6 17.4 140.6 16.6C140.6 16.05 140.555 15.625 140.5 15.654C140.445 15.684 139.995 15.787 139.5 15.882ZM125.4 17.213C125.4 17.659 125.158 18.118 124.861 18.232C124.414 18.404 124.423 18.744 124.915 20.238C125.705 22.638 126.665 22.492 127.167 19.897C127.369 18.854 127.69 18 127.881 18C128.072 18 128.035 17.64 127.8 17.2C127.21 16.098 125.4 16.108 125.4 17.213ZM134.03 19.821C133.748 20.946 134.052 21.739 134.628 21.383C135.103 21.089 135.114 19.318 134.643 19.026C134.446 18.905 134.171 19.263 134.03 19.821ZM122.083 21.196C122.197 21.633 122.45 21.892 122.645 21.772C123.211 21.423 123.056 20.4 122.437 20.4C122.073 20.4 121.948 20.68 122.083 21.196ZM132.142 21.882C131.235 22.022 131.046 22.296 130.821 23.797C130.647 24.959 130.33 25.61 129.879 25.728C129.258 25.892 129.26 25.911 129.9 25.954C130.453 25.99 130.6 26.368 130.6 27.757C130.6 28.991 130.789 29.587 131.233 29.757C132.383 30.199 133.053 30.019 132.935 29.3C132.778 28.345 133.31 27.591 133.964 27.841C134.745 28.141 135.071 25.583 134.355 24.769C134.05 24.421 133.8 23.566 133.8 22.869C133.8 22.171 133.665 21.627 133.5 21.66C133.335 21.693 132.724 21.793 132.142 21.882ZM118.91 22.223C118.528 22.606 119.067 24 119.598 24C119.875 24 120.326 23.73 120.6 23.4C120.874 23.07 121.357 22.8 121.673 22.8C121.989 22.8 122.136 22.62 122 22.4C121.74 21.98 119.294 21.84 118.91 22.223ZM38.6 22.579C38.6 22.689 39.14 23.059 39.8 23.4C40.46 23.741 41 23.931 41 23.821C41 23.711 40.46 23.341 39.8 23C39.14 22.659 38.6 22.469 38.6 22.579ZM266.208 23.429C265.663 23.963 264.806 24.4 264.303 24.4C263.271 24.4 261.76 25.15 261.28 25.9C261.104 26.175 260.609 26.4 260.18 26.4C259.751 26.4 259.4 26.554 259.4 26.742C259.4 26.929 258.95 27.569 258.4 28.162C256.934 29.744 257.058 30.581 258.7 30.192C259.415 30.023 260.54 29.865 261.2 29.842C262.579 29.794 263.038 29.064 261.81 28.871C260.35 28.643 261.393 28 263.224 28C264.72 28 265 27.877 265 27.218C265 26.626 265.363 26.376 266.5 26.187C268.795 25.806 268.957 25.711 269.239 24.588C269.715 22.691 267.735 21.934 266.208 23.429ZM123.786 23.417C123.382 23.904 123.377 24.136 123.764 24.517C124.147 24.895 124.375 24.835 124.814 24.241C125.738 22.99 124.778 22.221 123.786 23.417ZM114.2 25.2C113.918 25.726 113.362 26 112.576 26C111.669 26 111.289 26.241 111 27C110.791 27.55 110.3 28.018 109.91 28.04C109.519 28.062 109.864 28.237 110.676 28.429C113.223 29.03 116.775 28.377 116.931 27.278C117.009 26.727 117.491 26.181 118.131 25.92L119.2 25.483L117.6 24.972C115.329 24.247 114.687 24.29 114.2 25.2ZM119.8 25.6C119.8 26.109 121.412 26.109 122.2 25.6C122.646 25.312 122.416 25.211 121.3 25.206C120.475 25.203 119.8 25.38 119.8 25.6ZM107.294 26.239C106.82 26.713 107.41 27.2 108.457 27.2C109.086 27.2 109.405 27.011 109.302 26.7C109.118 26.14 107.715 25.818 107.294 26.239ZM104.294 28.283C103.258 28.482 103.478 29.2 104.575 29.2C104.975 29.2 105.515 29.457 105.776 29.771C106.51 30.656 109.73 30.421 109.489 29.5C109.319 28.846 108.517 28.618 106.935 28.773C106.57 28.809 106.154 28.65 106.012 28.419C105.869 28.189 105.628 28.025 105.476 28.054C105.324 28.084 104.792 28.187 104.294 28.283ZM197.4 28.421C198.442 29.13 200.2 30.028 200.2 29.85C200.2 29.628 197.439 27.998 197.077 28.006C196.925 28.009 197.07 28.196 197.4 28.421ZM282.064 30.3C281.441 32.597 281.418 33.291 281.94 34.036C282.479 34.805 282.515 34.78 282.76 33.475C282.9 32.724 283.372 31.787 283.808 31.393C284.964 30.347 284.805 29.6 283.427 29.6C282.649 29.6 282.19 29.836 282.064 30.3ZM102.558 30.349C100.024 30.96 97.615 33.567 99.1 34.091C100.912 34.73 103.328 34.391 104.541 33.326C105.842 32.185 106.264 30.4 105.233 30.4C104.921 30.4 104.426 30.332 104.133 30.249C103.84 30.165 103.131 30.21 102.558 30.349ZM125 31.2C125 31.877 124.733 32 123.262 32C121.694 32 120.2 32.83 120.2 33.702C120.2 33.834 121.728 33.999 123.597 34.071C127.373 34.214 127.599 34.067 127.164 31.746C126.866 30.161 125 29.69 125 31.2ZM254.6 31C254.6 31.33 254.793 31.6 255.029 31.6C255.264 31.6 255.727 31.33 256.057 31C256.59 30.467 256.543 30.4 255.629 30.4C254.981 30.4 254.6 30.622 254.6 31ZM246.4 32.44C245.74 32.586 245.505 32.727 245.877 32.753C246.25 32.779 246.822 33.182 247.15 33.65C247.96 34.806 251.734 34.439 252.555 33.124C253.095 32.259 251.332 32.182 249.352 32.984C248.995 33.128 248.455 33.005 248.152 32.711C247.793 32.363 247.179 32.268 246.4 32.44ZM266.076 32.282C264.097 32.591 264.862 33.778 267.134 33.923C268.947 34.039 269.054 33.992 268.931 33.123C268.793 32.154 268.135 31.96 266.076 32.282ZM278.2 32.72C278.2 33.116 278.398 33.638 278.64 33.88C279.207 34.447 278.719 36 277.973 36C277.637 36 277.4 36.392 277.4 36.946C277.4 38.023 273.946 38.883 273.369 37.949C273.206 37.686 272.97 38.027 272.809 38.758C272.432 40.476 273.338 43.891 274.234 44.125C274.618 44.225 274.992 44.731 275.066 45.25C275.241 46.481 276.579 46.766 276.875 45.635C276.995 45.176 277.252 44.8 277.447 44.8C277.641 44.8 277.8 44.552 277.8 44.249C277.8 43.946 278.07 43.474 278.4 43.2C278.73 42.926 279 42.094 279 41.351C279 40.608 279.2 40 279.443 40C279.711 40 279.792 39.622 279.647 39.046C279.463 38.314 279.593 38.043 280.204 37.883C281.154 37.635 281.429 33.6 280.496 33.6C280.219 33.6 279.768 33.24 279.493 32.8C278.871 31.805 278.2 31.763 278.2 32.72ZM116.6 33.049C116.6 33.58 116.709 33.608 117.2 33.2C117.53 32.926 117.8 32.634 117.8 32.551C117.8 32.468 117.53 32.4 117.2 32.4C116.87 32.4 116.6 32.692 116.6 33.049ZM128.67 34.115C128.211 34.669 127.899 37.832 128.267 38.2C129.093 39.027 130.549 37.558 130.529 35.919C130.503 33.828 129.62 32.971 128.67 34.115ZM269.152 34.581C268.81 35.473 269.333 36 270.562 36C271.557 36 273 34.975 273 34.269C273 33.701 269.377 33.995 269.152 34.581ZM91.072 35.3C91.166 35.959 91.468 36.2 92.2 36.2C92.932 36.2 93.234 35.959 93.328 35.3C93.437 34.531 93.273 34.4 92.2 34.4C91.127 34.4 90.963 34.531 91.072 35.3ZM85.012 38.392C84.716 38.575 84.631 38.926 84.811 39.218C85.039 39.587 84.895 39.666 84.288 39.507C83.426 39.282 83 39.829 83 41.163C83 41.757 83.444 41.871 86 41.937L89 42.015V40.561C89 39.303 88.892 39.135 88.199 39.316C87.759 39.431 87.264 39.304 87.099 39.033C86.679 38.34 85.622 38.015 85.012 38.392ZM125 38.776C125 39.203 125.183 39.666 125.407 39.804C125.63 39.942 125.717 40.21 125.6 40.4C125.483 40.59 125.579 40.863 125.813 41.008C126.108 41.19 126.091 41.449 125.758 41.85C125.173 42.555 124.812 46.4 125.331 46.4C126.431 46.4 127.233 42.598 126.759 39.631C126.478 37.877 125 37.159 125 38.776ZM242.6 40.233C241.604 40.786 241.606 40.788 243.1 40.794C244.169 40.798 244.6 40.628 244.6 40.2C244.6 39.477 243.944 39.487 242.6 40.233ZM70.2 40.421C71.242 41.13 73 42.028 73 41.85C73 41.628 70.239 39.998 69.877 40.006C69.725 40.009 69.87 40.196 70.2 40.421ZM234.323 40.68C235.529 40.993 234.945 42.185 233.518 42.324C232.735 42.4 232.312 42.631 232.422 42.924C232.59 43.374 230.929 44.397 230.02 44.403C229.34 44.407 228.222 46.662 228.676 47.116C228.934 47.374 228.92 47.602 228.635 47.778C228.001 48.17 228.103 48.8 228.8 48.8C229.13 48.8 229.4 49.07 229.4 49.4C229.4 49.733 229.756 50 230.2 50C230.996 50 231 50.267 231 97.8V145.6H232H233L233.073 97.5C233.161 40.278 233.073 45.2 234 45.2C234.33 45.2 234.6 44.933 234.6 44.608C234.6 43.958 236.303 43.369 236.977 43.786C237.21 43.93 237.4 44.667 237.4 45.424C237.4 47.058 237.745 47.153 238.761 45.8C239.315 45.063 239.892 44.797 240.956 44.787C242.226 44.776 242.318 44.712 241.715 44.254C241.339 43.968 240.911 42.984 240.764 42.067C240.506 40.451 239.964 40.007 239.18 40.77C238.952 40.992 238.081 40.999 237 40.787C235.065 40.408 232.947 40.324 234.323 40.68ZM222.9 42.868L223.8 43.852V113.792C223.8 152.26 223.919 183.614 224.065 183.468C224.404 183.129 224.754 45.115 224.419 44.059C224.281 43.626 223.681 42.96 223.084 42.578L222 41.885L222.9 42.868ZM74.503 113.209C74.602 180.591 74.573 183.965 73.903 183.714C73.278 183.479 73.263 183.528 73.77 184.15C74.312 184.816 74.361 184.815 74.77 184.125C75.35 183.146 75.38 43.42 74.8 42.84C74.533 42.573 74.434 66.029 74.503 113.209ZM77.29 44.277C76.115 46.326 76.701 48.381 78.463 48.394C79.105 48.398 79.276 48.59 79.13 49.144C78.876 50.119 81.764 50.545 86.013 50.16C88.702 49.917 89 49.805 89 49.044C89 48.253 88.765 48.192 85.328 48.089C81.697 47.98 80.6 47.623 80.6 46.551C80.6 46.248 80.343 46 80.028 46C79.713 46 79.398 45.595 79.328 45.1C79.201 44.209 77.682 43.595 77.29 44.277ZM90.745 44.6C90.365 45.591 90.913 46.4 91.964 46.4C93.143 46.4 93.543 45.881 93.199 44.796C92.896 43.843 91.091 43.699 90.745 44.6ZM91 47.428C91 47.845 91.292 48.013 91.869 47.928C93.149 47.739 93.286 46.8 92.033 46.8C91.361 46.8 91 47.019 91 47.428ZM125 48C125 48.66 125.075 49.2 125.167 49.2C125.259 49.2 125.619 49.309 125.967 49.443C126.458 49.631 126.6 49.415 126.6 48.486C126.6 47.76 126.35 47.19 125.967 47.043C125.023 46.68 125 46.703 125 48ZM251.173 48.526C250.873 49.308 251.261 50 252 50C252.93 50 253.023 49.345 252.199 48.599C251.498 47.965 251.391 47.957 251.173 48.526ZM113.152 50.581C113.029 50.9 113.051 51.359 113.2 51.6C113.542 52.153 114.6 51.36 114.6 50.551C114.6 49.818 113.435 49.842 113.152 50.581ZM271.013 50.7C271.02 51.085 271.29 51.749 271.613 52.176C271.936 52.604 272.211 53.324 272.225 53.776C272.248 54.518 272.289 54.503 272.638 53.631C272.921 52.922 272.856 52.304 272.394 51.331C271.713 49.896 270.992 49.567 271.013 50.7ZM274.012 50.517C273.841 50.912 273.813 51.347 273.951 51.484C274.357 51.89 274.684 51.32 274.497 50.531C274.332 49.833 274.31 49.832 274.012 50.517ZM225.04 101.9C225.073 144.672 225.342 166.124 225.755 158.8C225.963 155.108 226.887 150.53 227.046 152.4C227.203 154.236 227.657 154.606 228.369 153.477C228.655 153.023 228.583 152.644 228.113 152.123C226.559 150.404 226.464 147.535 226.326 98.1C226.21 56.14 226.122 50.4 225.597 50.4C225.071 50.4 225.005 56.495 225.04 101.9ZM269.279 51.855C268.709 52.424 269.001 54.913 269.7 55.443C270.324 55.917 270.329 55.976 269.747 55.987C268.6 56.01 268.444 58.939 269.447 61.617C269.723 62.352 269.656 63.046 269.209 64.117C268.461 65.907 269.163 66.174 270.347 64.55C271.018 63.629 271.053 63.204 270.688 60.349C270.426 58.294 270.419 56.719 270.667 55.887C271.064 54.56 269.913 51.22 269.279 51.855ZM123.4 52.4C123.4 52.62 123.67 52.8 124 52.8C124.33 52.8 124.6 52.62 124.6 52.4C124.6 52.18 124.33 52 124 52C123.67 52 123.4 52.18 123.4 52.4ZM116.871 57.5C116.722 58.239 116.858 58.76 117.284 59.087C117.807 59.489 117.828 59.684 117.406 60.193C117.124 60.533 116.863 61.927 116.827 63.291L116.762 65.771L115.18 66.186C112.613 66.858 111.759 68 113.824 68C114.251 68 114.6 68.18 114.6 68.4C114.6 68.62 113.874 68.8 112.987 68.8C111.923 68.8 111.297 69.004 111.145 69.4C111.018 69.73 110.574 70 110.157 70C109.616 70 109.4 70.286 109.4 71C109.4 71.622 109.627 72 110 72C110.669 72 110.826 73.413 110.2 73.8C109.393 74.299 109.754 75.938 110.7 76.072C111.521 76.189 111.636 76.518 112.011 79.8C112.377 83.009 112.477 83.302 112.925 82.5C113.202 82.005 113.692 81.6 114.014 81.6C114.769 81.6 114.811 79.367 114.062 79.079C113.334 78.8 113.279 76.4 114 76.4C114.719 76.4 114.965 75.523 115.094 72.5C115.183 70.409 115.317 70 115.913 70C116.304 70 116.743 69.685 116.886 69.3C117.03 68.915 117.445 68.386 117.808 68.123C118.25 67.805 118.411 67.257 118.296 66.471C118.201 65.824 118.32 65.173 118.562 65.024C118.803 64.875 119 64.943 119 65.176C119 65.409 119.18 65.6 119.4 65.6C119.62 65.6 119.8 65.33 119.8 65C119.8 64.67 119.954 64.4 120.143 64.4C120.331 64.4 120.605 63.113 120.751 61.541C121.053 58.293 120.423 56.948 118.836 57.452C118.103 57.685 118.07 57.639 118.552 57.058C119.034 56.477 118.98 56.4 118.096 56.4C117.323 56.4 117.042 56.652 116.871 57.5ZM109.203 58.5C108.564 60.353 108.833 65.97 109.569 66.161C111.046 66.545 111.401 64.64 110.746 59.856C110.501 58.072 109.618 57.296 109.203 58.5ZM120.2 63C120.2 63.33 120.02 63.6 119.8 63.6C119.58 63.6 119.4 63.33 119.4 63C119.4 62.67 119.58 62.4 119.8 62.4C120.02 62.4 120.2 62.67 120.2 63ZM257.163 66.551C256.84 67.395 257.294 68 258.251 68C258.856 68 259.024 67.777 258.928 67.104C258.779 66.058 257.506 65.66 257.163 66.551ZM266.982 66.834C266.428 67.868 266.556 67.999 267.7 67.566C268.698 67.189 268.936 66 268.014 66C267.692 66 267.227 66.375 266.982 66.834ZM265.298 68.1C265.195 68.375 265.253 68.96 265.427 69.4C265.685 70.051 265.749 69.959 265.772 68.9C265.801 67.548 265.62 67.242 265.298 68.1ZM113 70.4C113 70.62 112.64 70.8 112.2 70.8C111.76 70.8 111.4 70.62 111.4 70.4C111.4 70.18 111.76 70 112.2 70C112.64 70 113 70.18 113 70.4ZM259 71.744C259 74.3 259.551 76 260.38 76C261.197 76 261.24 76.148 261.077 78.4C260.972 79.854 261.062 80.8 261.305 80.8C261.526 80.8 261.809 81.19 261.933 81.666C262.124 82.397 262.256 82.452 262.78 82.017C263.548 81.379 263.559 81.016 262.831 80.288C261.881 79.338 261.912 78.246 262.902 77.808C263.397 77.589 263.739 77.227 263.661 77.005C263.583 76.782 263.858 76.164 264.271 75.631C264.805 74.943 264.899 74.539 264.595 74.235C264.291 73.931 264.062 73.976 263.805 74.392C263.232 75.319 262.935 74.622 263.392 73.422C263.619 72.823 263.704 72.168 263.579 71.966C263.173 71.309 262.13 71.581 261.916 72.4C261.646 73.433 261.479 73.409 260.529 72.2C259.662 71.099 259 70.901 259 71.744ZM113 74.576C113 74.893 112.82 75.264 112.6 75.4C112.38 75.536 112.2 75.277 112.2 74.824C112.2 74.371 112.38 74 112.6 74C112.82 74 113 74.259 113 74.576ZM253.267 76.267C252.389 77.145 253.01 82 254 82C254.914 82 255 81.85 255 80.25C255 76.862 254.294 75.239 253.267 76.267ZM109.8 82.757C109.8 83.174 109.53 83.618 109.2 83.745C108.87 83.871 108.6 84.431 108.6 84.987C108.6 85.621 108.825 86 109.2 86C109.53 86 109.8 85.662 109.8 85.249C109.8 84.836 110.07 84.274 110.4 84C110.73 83.726 111 83.164 111 82.751C111 82.338 110.73 82 110.4 82C110.07 82 109.8 82.341 109.8 82.757ZM255.186 84.1C254.982 85.583 254.764 86 254.189 86C253.084 86 252.362 92.758 253.399 93.399C253.908 93.714 254.271 92.221 253.973 91.034C253.529 89.264 254.507 89.87 255.523 91.994C256.048 93.091 256.595 93.871 256.739 93.728C257.156 93.31 257.04 91.2 256.6 91.2C256.38 91.2 256.2 90.93 256.2 90.6C256.2 89.669 257.626 89.893 258.112 90.9C258.498 91.702 258.554 91.603 258.62 90C258.744 87.004 259.127 85.811 260.004 85.685C260.684 85.587 260.783 85.319 260.669 83.885L260.535 82.2H257.991H255.448L255.186 84.1ZM111.4 85.2C111.4 85.947 111.507 86.053 111.88 85.68C112.253 85.307 112.253 85.093 111.88 84.72C111.507 84.347 111.4 84.453 111.4 85.2ZM109.704 86.954C109.045 87.455 109.047 87.519 109.754 88.159C110.439 88.778 110.522 88.78 110.751 88.185C111.379 86.546 110.933 86.021 109.704 86.954ZM93 99.367C93 102.036 94.236 103.01 95.017 100.957C95.317 100.167 95.539 100.017 95.928 100.34C96.329 100.673 96.451 100.464 96.482 99.384C96.521 98.009 96.509 98 94.76 98C93.023 98 93 98.018 93 99.367ZM252.867 98.267C252.225 98.908 252.606 101.575 253.4 102C253.84 102.235 254.2 102.722 254.2 103.081C254.2 103.44 254.335 103.598 254.5 103.433C255.293 102.64 254.847 98 253.978 98C253.513 98 253.013 98.12 252.867 98.267ZM102.056 99.478C101.915 99.618 101.8 100.063 101.8 100.467C101.8 100.875 101.49 101.227 101.1 101.261C100.715 101.294 100.13 101.34 99.801 101.361C99.471 101.383 99.183 101.671 99.161 102.001C99.067 103.43 98.951 103.639 98.054 103.979C97.185 104.31 97.11 104.559 97.127 107.069L97.145 109.8L98.73 109.864C100.922 109.951 103 108.003 103 105.86C103 105.057 102.832 104.4 102.627 104.4C101.898 104.4 101.715 102.757 102.364 102.04C103.322 100.981 103.025 98.509 102.056 99.478ZM93 111.792C93 113.375 93.152 114 93.538 114C93.834 114 94.409 114.367 94.815 114.817L95.554 115.633L96.041 114.723C96.512 113.843 96.538 113.864 96.811 115.319C97.045 116.565 96.949 116.951 96.252 117.555C95.183 118.482 94.953 120.116 95.866 120.306C96.492 120.437 96.871 119.803 97.212 118.051C97.282 117.693 97.358 117.31 97.382 117.2C97.406 117.09 97.666 117.317 97.96 117.704C98.442 118.339 98.518 118.261 98.743 116.904C99.164 114.352 99.082 114.063 97.9 113.927C96.928 113.815 96.812 113.649 96.9 112.509C97.009 111.107 96.188 110.324 94.1 109.84C93.002 109.585 93 109.589 93 111.792ZM245.267 110.267C244.853 110.681 244.953 112.8 245.386 112.8C245.952 112.8 246.697 111.229 246.443 110.569C246.21 109.961 245.702 109.831 245.267 110.267ZM250.316 110.9C249.863 111.395 249.369 112.205 249.219 112.699C249.069 113.194 248.509 113.708 247.973 113.842C247.021 114.082 246.771 114.851 246.979 116.9C247.018 117.285 246.84 117.6 246.582 117.6C246.325 117.6 246.213 117.343 246.333 117.029C246.57 116.412 245.597 115.355 245.276 115.881C244.991 116.347 245.162 118.695 245.506 119.039C245.668 119.201 245.794 119.528 245.787 119.767C245.779 120.005 245.436 119.795 245.023 119.3C243.971 118.039 243.605 118.166 243 120C242.71 120.88 242.231 121.6 241.936 121.6C241.543 121.6 241.4 122.294 241.4 124.2C241.4 126.577 241.832 127.547 242.335 126.3C242.446 126.025 242.551 126.301 242.568 126.913C242.648 129.727 244.915 128.839 244.972 125.972C244.992 124.974 245.298 124.285 245.992 123.682C246.782 122.995 246.935 122.575 246.744 121.618C246.537 120.586 246.651 120.361 247.552 120.018C248.128 119.799 248.622 119.3 248.65 118.91C248.677 118.519 248.76 117.303 248.834 116.206C248.909 115.109 249.213 114.029 249.51 113.806C249.807 113.583 250.168 113.083 250.314 112.697C250.459 112.31 251.033 111.786 251.589 111.532C252.145 111.279 252.6 110.83 252.6 110.536C252.6 109.691 251.221 109.911 250.316 110.9ZM237 114.55C237 116.265 237.547 117.6 238.25 117.6C238.733 117.6 239 117.316 239 116.8C239 116.267 239.267 116 239.8 116C240.387 116 240.6 115.733 240.6 115C240.6 114.081 240.453 114 238.8 114C237.539 114 237 114.165 237 114.55ZM47.028 117.4C47.028 117.62 47.286 118.25 47.6 118.8C47.914 119.35 48.172 119.62 48.172 119.4C48.172 119.18 47.914 118.55 47.6 118C47.286 117.45 47.028 117.18 47.028 117.4ZM197.028 119.4C197.028 119.62 197.286 120.25 197.6 120.8C197.914 121.35 198.172 121.62 198.172 121.4C198.172 121.18 197.914 120.55 197.6 120C197.286 119.45 197.028 119.18 197.028 119.4ZM93.098 120.4C92.761 121.194 92.804 121.502 93.304 121.894C93.878 122.342 93.875 122.455 93.271 123.122C92.757 123.689 92.628 124.515 92.703 126.754C92.784 129.162 92.682 129.719 92.1 130.046C91.244 130.528 91.175 131.6 92 131.6C92.33 131.6 92.6 131.326 92.6 130.99C92.6 130.655 93.05 130.209 93.6 130C94.721 129.574 94.672 129.762 94.809 125.4C94.877 123.242 94.743 122.005 94.396 121.6C94.114 121.27 93.801 120.64 93.702 120.2C93.536 119.464 93.488 119.479 93.098 120.4ZM51.828 129.4C51.828 129.62 52.086 130.25 52.4 130.8C52.714 131.35 52.972 131.62 52.972 131.4C52.972 131.18 52.714 130.55 52.4 130C52.086 129.45 51.828 129.18 51.828 129.4ZM237.265 130.474C237.14 130.95 237.186 131.603 237.366 131.925C237.603 132.348 237.745 132.158 237.88 131.237C238.094 129.779 237.605 129.173 237.265 130.474ZM241.916 130.4C241.666 131.355 241.267 131.41 240.457 130.6C239.542 129.685 238.859 129.845 239.184 130.9C239.336 131.395 239.589 132.34 239.747 133C240.107 134.512 240.692 134.422 241.115 132.789C241.339 131.923 241.622 131.6 242.02 131.753C242.446 131.916 242.6 131.66 242.6 130.787C242.6 129.429 242.225 129.217 241.916 130.4ZM81.28 130.253C81.126 130.407 81 131.133 81 131.867C81 132.933 80.84 133.2 80.2 133.2C79.76 133.2 79.4 133.38 79.4 133.6C79.4 133.82 80.22 134 81.222 134H83.044L82.922 132.104C82.805 130.29 82.071 129.462 81.28 130.253ZM237.37 134.066C237.166 144.9 237.194 145.556 237.86 145.731C239.016 146.034 239.496 141.517 238.375 140.89C237.808 140.573 237.808 140.492 238.375 140.021C239.067 139.447 239.21 138.177 238.624 137.815C238.406 137.68 238.516 137.113 238.884 136.472C239.441 135.503 239.451 135.217 238.961 134.211C238.14 132.526 237.4 132.459 237.37 134.066ZM83.152 136.581C82.847 137.375 83.299 138 84.177 138C84.877 138 85.552 136.686 85.09 136.223C84.645 135.778 83.37 136.014 83.152 136.581ZM87.877 136.344C87.528 136.565 87.444 137.064 87.624 137.838C87.865 138.872 87.835 138.924 87.347 138.306C86.143 136.78 85.008 137.829 84.925 140.547C84.835 143.52 84.752 145.233 84.665 145.9C84.629 146.175 84.227 146.4 83.771 146.4C82.336 146.4 82.999 147.78 84.504 147.925C85.574 148.029 85.866 147.877 86.177 147.06C86.385 146.514 86.924 145.951 87.377 145.807C87.83 145.664 88.21 145.423 88.222 145.273C88.234 145.123 88.328 144.19 88.43 143.2C88.764 139.984 88.878 136 88.636 136.006C88.506 136.009 88.165 136.162 87.877 136.344ZM77.267 140.267C76.484 141.05 77 146.307 77.883 146.537C79.112 146.859 79.121 146.827 78.802 143.223C78.534 140.2 78.124 139.409 77.267 140.267ZM77.4 148.091C77.4 148.393 77.187 148.853 76.926 149.114C76.233 149.807 76.208 151.062 76.828 154.155C77.131 155.67 77.291 157.052 77.183 157.227C76.766 157.902 77.883 158.038 78.818 157.425C79.5 156.978 79.8 156.415 79.8 155.578C79.8 154.878 80.051 154.279 80.4 154.145C81.506 153.72 81.183 151.2 80.023 151.2C79.16 151.2 79.032 151.002 78.923 149.503C78.807 147.899 77.4 146.594 77.4 148.091ZM232.634 150.851C232.615 151.209 232.314 151.739 231.966 152.029C231.522 152.396 231.404 152.919 231.573 153.763L231.814 154.971L230.407 153.607L229 152.243V153.534C229 154.313 229.238 154.916 229.6 155.055C230.429 155.374 230.352 156.513 229.464 157.067C228.927 157.402 228.777 157.862 228.909 158.763C229.194 160.701 230.2 160.042 230.2 157.918C230.2 157.214 230.288 157.175 230.843 157.636C232.135 158.708 233.809 153.944 233.034 151.4C232.833 150.74 232.653 150.493 232.634 150.851ZM81.628 154.355C81.507 154.55 81.677 154.932 82.004 155.204C82.5 155.615 82.6 155.555 82.6 154.849C82.6 153.991 82.032 153.702 81.628 154.355ZM80.001 157.599C79.631 158.197 80.154 161.676 80.574 161.416C81.227 161.013 81.4 158.735 80.839 157.934C80.462 157.395 80.193 157.288 80.001 157.599ZM232.067 159.067C231.652 159.482 231.753 160.8 232.2 160.8C232.42 160.8 232.6 160.35 232.6 159.8C232.6 158.753 232.508 158.626 232.067 159.067ZM77.873 161.961C77.636 162.643 77.252 163.2 77.021 163.2C76.757 163.2 76.615 164.433 76.64 166.5C76.665 168.564 76.788 169.425 76.968 168.8C77.139 168.205 77.527 167.822 77.928 167.856C78.719 167.921 78.742 167.812 78.166 166.736C77.635 165.744 78.014 164 78.761 164C79.061 164 79.401 164.36 79.516 164.8C79.757 165.722 80.6 165.888 80.6 165.014C80.6 164.692 80.24 164.235 79.8 164C79.36 163.765 78.997 163.173 78.994 162.686C78.982 161.024 78.344 160.611 77.873 161.961ZM225.488 166L225.523 170.6L225.917 166.888C226.192 164.301 226.182 162.907 225.883 162.288C225.553 161.605 225.462 162.46 225.488 166ZM227.279 162.254C226.766 162.767 226.993 164 227.6 164C227.93 164 228.56 163.64 229 163.2C229.581 162.619 229.645 162.4 229.233 162.4C228.921 162.4 228.416 162.304 228.112 162.188C227.807 162.071 227.433 162.101 227.279 162.254ZM76.24 175.7C76.274 177.144 76.328 177.25 76.6 176.4C77.061 174.961 77.061 174 76.6 174C76.38 174 76.218 174.765 76.24 175.7ZM222.2 182.702C222.2 183.2 223.768 185.139 223.787 184.663C223.794 184.478 223.44 183.869 223 183.309C222.56 182.75 222.2 182.476 222.2 182.702Z" fill="#84CCAE"/>
<path fill-rule="evenodd" clip-rule="evenodd" d="M0.734002 1.054C0.263002 1.246 0.536001 2.811 1.353 4.6C1.972 5.956 2.856 8.133 3.383 9.6C3.659 10.37 4.117 11.54 4.401 12.2C4.684 12.86 5.096 13.85 5.317 14.4C5.538 14.95 5.98 16.03 6.299 16.8C6.619 17.57 7.108 18.83 7.387 19.6C8.114 21.608 8.979 23.69 9.419 24.495C9.629 24.877 9.8 25.462 9.8 25.795C9.8 26.128 9.98 26.4 10.2 26.4C10.42 26.4 10.6 26.754 10.6 27.186C10.6 27.619 10.855 28.564 11.167 29.286C12.048 31.329 12.832 33.27 13.395 34.8C13.678 35.57 14.335 37.134 14.855 38.275C15.375 39.417 15.8 40.544 15.8 40.781C15.8 41.017 15.971 41.523 16.181 41.905C16.39 42.287 16.855 43.32 17.214 44.2C17.573 45.08 18.032 46.113 18.234 46.495C18.435 46.877 18.6 47.389 18.6 47.634C18.6 47.879 18.87 48.691 19.2 49.44C19.53 50.188 20.079 51.475 20.419 52.3C20.76 53.125 21.21 54.113 21.419 54.495C21.629 54.877 21.8 55.447 21.8 55.762C21.8 56.077 22.053 56.845 22.363 57.468C22.673 58.09 23.104 59.05 23.322 59.6C23.54 60.15 23.98 61.23 24.299 62C24.619 62.77 25.108 64.03 25.387 64.8C25.666 65.57 26.143 66.767 26.447 67.46C26.751 68.154 27 68.913 27 69.148C27 69.383 27.331 70.166 27.736 70.888C28.141 71.61 28.704 72.92 28.987 73.8C29.27 74.68 29.826 76.127 30.222 77.017C30.619 77.906 31.18 79.391 31.469 80.317C31.758 81.242 32.131 82 32.297 82C32.464 82 32.6 82.28 32.6 82.622C32.6 82.964 32.94 83.999 33.355 84.922C33.77 85.845 34.512 87.59 35.003 88.8C35.494 90.01 36.117 91.54 36.388 92.2C36.659 92.86 37.108 94.03 37.387 94.8C37.666 95.57 38.116 96.74 38.387 97.4C38.658 98.06 39.108 99.23 39.387 100C40.114 102.008 40.979 104.09 41.419 104.895C41.629 105.277 41.8 105.805 41.8 106.068C41.8 106.808 43.463 110.07 43.713 109.82C43.835 109.698 43.733 109.194 43.488 108.699C43.242 108.205 42.298 105.91 41.39 103.6C40.482 101.29 39.581 99.04 39.389 98.6C39.196 98.16 38.019 95.19 36.772 92C35.526 88.81 34.192 85.48 33.808 84.6C33.424 83.72 32.833 82.28 32.496 81.4C32.159 80.52 31.247 78.18 30.47 76.2C27.099 67.605 25.711 64.124 25.209 63C24.914 62.34 24.093 60.27 23.384 58.4C22.676 56.53 21.787 54.28 21.41 53.4C21.032 52.52 20.316 50.72 19.817 49.4C19.318 48.08 18.48 46.05 17.955 44.889C17.43 43.728 17 42.621 17 42.428C17 42.236 16.223 40.216 15.273 37.939C14.323 35.663 12.955 32.27 12.233 30.4C11.511 28.53 10.767 26.64 10.581 26.2C10.3 25.536 8.773 21.673 7.419 18.2C7.247 17.76 6.912 16.95 6.675 16.4C6.437 15.85 5.677 13.96 4.987 12.2C3.598 8.66099 3.515 8.461 1.986 4.929C1.398 3.57 1.035 2.267 1.18 2.033C1.477 1.551 3.936 2.43699 5.017 3.41499C5.372 3.73699 5.878 4 6.141 4C6.404 4 7.74 4.69499 9.11 5.54499C10.479 6.39399 13.31 8.04199 15.4 9.20599C17.49 10.371 19.74 11.626 20.4 11.996C21.06 12.366 22.41 13.122 23.4 13.677C24.39 14.232 28.17 16.357 31.8 18.399C35.43 20.442 39.75 22.838 41.4 23.725C43.05 24.611 45.72 26.116 47.333 27.068C48.946 28.021 50.345 28.8 50.441 28.8C50.537 28.8 51.287 29.222 52.108 29.737C52.929 30.252 54.68 31.272 56 32.003C58.42 33.343 60.825 34.678 63.4 36.111C64.17 36.54 66.001 37.59 67.47 38.445C68.938 39.3 70.23 40 70.341 40C70.884 40 75.4 42.947 75.4 43.301C75.4 43.526 75.841 43.268 76.38 42.729C76.919 42.191 78.314 41.267 79.48 40.676C82.801 38.995 86.241 37.082 88.145 35.856C89.105 35.238 90.635 34.387 91.545 33.964C92.455 33.542 93.74 32.849 94.4 32.425C95.497 31.721 96.825 30.98 102.293 28.024C103.334 27.461 107.024 25.394 110.493 23.432C113.962 21.469 118.6 18.888 120.8 17.697C123 16.505 124.98 15.384 125.2 15.204C125.42 15.025 127.028 14.128 128.773 13.21C130.518 12.293 132.388 11.196 132.927 10.771C133.467 10.347 134.047 10 134.216 10C134.386 10 136.387 8.90899 138.662 7.57499C140.938 6.24199 143.16 4.94399 143.6 4.69099C144.04 4.43899 144.895 3.90399 145.5 3.50399C146.437 2.88399 146.6 2.867 146.6 3.388C146.6 3.725 146.42 4 146.2 4C145.98 4 145.8 4.326 145.8 4.725C145.8 5.124 145.357 6.36799 144.816 7.48899C144.275 8.61099 143.452 10.67 142.986 12.064C142.521 13.459 141.884 14.999 141.57 15.486C141.257 15.973 141 16.704 141 17.109C141 17.515 140.736 18.196 140.413 18.624C140.09 19.051 139.82 19.636 139.813 19.925C139.806 20.213 139.335 21.473 138.768 22.725C138.2 23.976 137.551 25.45 137.326 26C136.818 27.238 136.086 28.948 135.243 30.86C134.889 31.664 134.6 32.521 134.6 32.766C134.6 33.201 134.4 33.682 133.462 35.495C133.208 35.987 133 36.589 133 36.834C133 37.285 132.47 38.56 130.752 42.24C130.229 43.362 129.8 44.667 129.8 45.14C129.8 45.613 129.633 46 129.428 46C129.224 46 128.757 47.035 128.391 48.3C128.024 49.565 127.582 50.78 127.408 51C127.235 51.22 126.967 51.985 126.814 52.7C126.662 53.415 126.371 54 126.168 54C125.966 54 125.8 54.272 125.8 54.605C125.8 54.938 125.638 55.523 125.44 55.905C125.242 56.287 124.599 57.86 124.012 59.4C123.425 60.94 122.697 62.74 122.395 63.4C122.094 64.06 121.376 65.86 120.802 67.4C120.227 68.94 119.496 70.791 119.178 71.514C118.86 72.236 118.6 73.091 118.6 73.414C118.6 73.736 118.42 74 118.2 74C117.98 74 117.8 74.33 117.8 74.733C117.8 75.137 117.684 75.583 117.541 75.725C117.193 76.073 115.829 80.053 115.813 80.769C115.806 81.081 115.56 81.621 115.266 81.969C114.972 82.316 114.533 83.14 114.291 83.8C114.048 84.46 112.914 87.34 111.771 90.2C110.628 93.06 109.442 96.12 109.135 97C108.829 97.88 108.422 98.96 108.23 99.4C108.038 99.84 107.593 100.857 107.241 101.66C106.888 102.464 106.6 103.319 106.6 103.56C106.6 103.802 106.42 104 106.2 104C105.98 104 105.8 104.362 105.8 104.805C105.8 105.248 105.638 105.923 105.441 106.305C105.244 106.687 104.775 107.81 104.4 108.8C104.025 109.79 103.556 110.913 103.359 111.295C103.162 111.677 103 112.249 103 112.566C103 112.883 102.766 113.381 102.481 113.671C102.196 113.962 101.627 115.28 101.218 116.6C100.808 117.92 100.251 119.36 99.978 119.8C99.706 120.24 99.355 121.05 99.197 121.6C99.04 122.15 98.685 123.14 98.41 123.8C98.134 124.46 97.59 125.81 97.2 126.8C96.81 127.79 96.155 129.363 95.745 130.296C95.335 131.228 95 132.095 95 132.221C95 132.348 94.55 133.435 94 134.637C93.45 135.84 93 137.01 93 137.237C93 137.465 92.55 138.635 92 139.837C91.45 141.04 91 142.216 91 142.45C91 142.685 90.752 143.354 90.449 143.938C89.821 145.147 89.302 146.384 88.577 148.4C88.3 149.17 87.732 150.61 87.315 151.6C84.744 157.699 83.798 160.197 83.799 160.876C83.799 161.248 83.647 161.648 83.459 161.763C83.272 161.879 82.808 162.835 82.428 163.887C81.659 166.02 81.502 166.403 80.032 169.748C79.464 171.04 79 172.266 79 172.474C79 172.681 78.555 173.825 78.01 175.015C77.466 176.205 76.906 177.636 76.766 178.194C76.625 178.753 76.277 179.343 75.991 179.505C75.705 179.667 75.32 181.021 75.135 182.514C74.669 186.289 74.305 186.22 72.438 182C72.097 181.23 71.814 180.917 71.809 181.305C71.804 181.693 71.98 182.323 72.2 182.705C72.42 183.087 72.777 183.9 72.994 184.51C73.747 186.632 75.378 186.285 75.395 184C75.4 183.45 75.762 182.411 76.201 181.69C76.641 180.97 77 180.178 77 179.93C77 179.682 77.424 178.562 77.942 177.44C78.46 176.318 79.826 172.97 80.978 170C82.13 167.03 83.481 163.61 83.981 162.4C84.481 161.19 85.385 158.94 85.992 157.4C86.598 155.86 87.504 153.61 88.006 152.4C88.507 151.19 89.051 149.75 89.213 149.2C89.376 148.65 89.996 147.12 90.591 145.8C91.186 144.48 92.002 142.41 92.404 141.2C92.806 139.99 93.625 137.92 94.225 136.6C94.824 135.28 95.891 132.67 96.594 130.8C97.297 128.93 98.123 126.86 98.43 126.2C99.025 124.917 103.327 114.02 104.646 110.453C105.083 109.272 105.77 107.562 106.174 106.653C106.578 105.744 107.399 103.74 107.999 102.2C108.599 100.66 109.519 98.466 110.045 97.325C110.57 96.184 111 95.041 111 94.786C111 94.53 111.245 93.754 111.544 93.06C113.489 88.552 114.388 86.358 115.01 84.6C115.398 83.5 116.004 82.06 116.356 81.4C116.707 80.74 116.996 79.966 116.998 79.68C116.999 79.394 117.301 78.584 117.668 77.88C118.036 77.176 118.735 75.52 119.223 74.2C120.503 70.736 121.573 68.003 122.278 66.4C123.642 63.298 125.002 59.774 125.001 59.345C125.001 59.095 125.554 57.655 126.231 56.145C127.835 52.571 128.718 50.426 129.997 47C130.572 45.46 131.843 42.303 132.821 39.984C133.8 37.665 134.6 35.496 134.6 35.164C134.6 34.832 134.75 34.389 134.932 34.18C135.115 33.971 136.129 31.64 137.185 29C138.242 26.36 139.429 23.474 139.824 22.586C140.219 21.698 140.67 20.438 140.828 19.786C140.986 19.134 141.539 17.751 142.057 16.713C142.576 15.676 143 14.631 143 14.391C143 14.152 143.338 13.201 143.752 12.278C145.699 7.933 147.442 3.087 147.244 2.571C146.957 1.822 146.028 1.843 145.389 2.613C145.109 2.95 144.052 3.631 143.04 4.126C139.822 5.699 134.023 8.89599 133.369 9.45799C133.021 9.75599 132.631 10 132.502 10C132.372 10 130.946 10.777 129.333 11.726C127.72 12.675 126.13 13.577 125.8 13.729C125.47 13.882 124.57 14.39 123.8 14.858C123.03 15.327 120.87 16.517 119 17.505C117.13 18.492 115.15 19.614 114.6 19.999C114.05 20.383 112.61 21.194 111.4 21.801C110.19 22.408 109.11 23.016 109 23.153C108.89 23.289 107.99 23.815 107 24.321C106.01 24.827 104.57 25.619 103.8 26.081C103.03 26.542 101.23 27.524 99.8 28.263C96.615 29.909 95.157 30.749 93.598 31.835C92.939 32.294 91.23 33.25 89.8 33.959C88.37 34.668 86.57 35.627 85.8 36.09C84.345 36.966 82.084 38.233 79 39.9C78.01 40.435 76.916 41.126 76.569 41.436C75.617 42.286 75.365 42.203 70.355 39.4C67.799 37.97 65.564 36.8 65.388 36.8C65.211 36.8 65.007 36.665 64.933 36.5C64.86 36.335 64.083 35.84 63.206 35.4C62.33 34.96 60.08 33.716 58.206 32.636C56.333 31.555 54.35 30.418 53.8 30.109C53.25 29.8 51.9 29.036 50.8 28.41C49.7 27.784 47.99 26.873 47 26.385C46.01 25.897 45.11 25.386 45 25.249C44.774 24.967 44.356 24.729 39.951 22.368C38.218 21.439 36.62 20.546 36.4 20.384C36.18 20.222 34.56 19.33 32.8 18.402C31.04 17.474 29.316 16.464 28.969 16.157C28.621 15.851 28.126 15.6 27.869 15.6C27.611 15.6 27.4 15.42 27.4 15.2C27.4 14.98 27.126 14.8 26.792 14.8C26.458 14.8 25.466 14.346 24.588 13.792C23.71 13.238 21.778 12.136 20.296 11.343C18.813 10.551 17.33 9.67899 17 9.40699C16.67 9.13399 15.635 8.58099 14.7 8.17799C13.765 7.77599 13 7.301 13 7.123C13 6.945 12.64 6.8 12.2 6.8C11.76 6.8 11.4 6.61999 11.4 6.39999C11.4 6.17999 11.172 6 10.893 6C10.614 6 9.723 5.54999 8.913 4.99899C7.706 4.17899 1.332 0.721997 1.23 0.831997C1.213 0.848997 0.990002 0.948997 0.734002 1.054ZM149.94 1.81199C149.813 2.14299 149.944 2.98199 150.231 3.67599C150.519 4.36999 150.821 4.73699 150.903 4.49099C150.985 4.24499 150.852 3.672 150.609 3.216C149.905 1.901 151.067 1.77999 152.955 2.97099C153.851 3.53699 154.686 4 154.811 4C155.009 4 157.67 5.58299 160.023 7.10099C160.451 7.37599 161.2 7.775 161.689 7.987C162.178 8.199 164.066 9.216 165.884 10.248C169.593 12.352 172.221 13.802 174 14.726C174.66 15.068 176.1 15.908 177.2 16.591C179.185 17.825 181.4 18.908 181.4 18.646C181.4 18.292 170.838 12.219 167 10.367C166.01 9.889 165.11 9.37599 165 9.22799C164.89 9.07999 164.08 8.62499 163.2 8.21699C162.32 7.80899 160.907 7.04 160.06 6.507C159.213 5.975 157.683 5.07399 156.66 4.50399C155.637 3.93399 154.174 3.11799 153.408 2.68899C151 1.34199 150.198 1.13899 149.94 1.81199ZM294.982 3.14199C294.222 3.54799 292.25 4.603 290.6 5.487C288.95 6.37 286.19 7.927 284.467 8.947C282.744 9.966 281.265 10.8 281.181 10.8C281.038 10.8 275.168 14.153 271.6 16.273C270.72 16.795 269.28 17.553 268.4 17.957C267.52 18.36 265.36 19.545 263.6 20.589C261.84 21.634 260.04 22.651 259.6 22.849C259.16 23.048 258.26 23.538 257.6 23.939C256.94 24.34 255.32 25.262 254 25.987C252.68 26.712 251.42 27.443 251.2 27.61C250.672 28.012 248.132 29.441 245.4 30.873C244.19 31.507 242.66 32.379 242 32.809C241.34 33.239 240.53 33.696 240.2 33.825C238.037 34.667 237 35.24 237 35.594C237 35.817 236.775 36.003 236.5 36.007C236.225 36.011 234.38 36.992 232.4 38.187C230.42 39.382 227.996 40.736 227.014 41.196C226.032 41.655 225.087 42.249 224.914 42.516C224.668 42.895 224.532 42.895 224.286 42.516C224.113 42.249 223.154 41.669 222.155 41.227C221.155 40.785 219.902 40.097 219.369 39.699C218.836 39.3 217.68 38.62 216.8 38.187C215.92 37.754 215.14 37.265 215.067 37.1C214.993 36.935 214.642 36.8 214.287 36.8C213.404 36.8 213.964 37.263 216.6 38.712C221.761 41.55 224.009 42.891 224.247 43.276C224.529 43.733 226.2 43.336 226.2 42.812C226.2 42.629 226.695 42.285 227.3 42.049C227.905 41.813 229.48 40.986 230.8 40.211C232.12 39.437 234.01 38.398 235 37.902C235.99 37.406 236.98 36.862 237.2 36.694C238.513 35.691 240.706 34.398 241.118 34.383C241.383 34.374 242.86 33.569 244.4 32.595C245.94 31.62 247.942 30.478 248.848 30.057C249.755 29.636 251.536 28.626 252.806 27.814C254.076 27.001 255.515 26.185 256.004 25.999C256.493 25.813 259.482 24.175 262.646 22.36C265.811 20.544 269.66 18.401 271.2 17.597C272.74 16.794 275.17 15.393 276.6 14.484C278.03 13.576 280.1 12.377 281.2 11.82C282.3 11.263 284.1 10.27 285.2 9.613C286.3 8.957 287.875 8.125 288.7 7.766C289.525 7.407 290.2 6.972 290.2 6.8C290.2 6.628 290.695 6.363 291.3 6.212C291.905 6.061 292.67 5.69599 293 5.39999C293.33 5.10399 294.14 4.75699 294.8 4.62899C295.46 4.49999 295.775 4.50099 295.5 4.63099C295.225 4.76099 295 5.04899 295 5.27299C295 5.49599 294.758 6.246 294.461 6.94C294.165 7.633 293.693 8.92 293.413 9.8C293.132 10.68 292.451 12.39 291.898 13.6C291.346 14.81 290.587 16.656 290.212 17.701C289.838 18.747 289.411 19.722 289.265 19.868C289.119 20.014 289 20.388 289 20.7C289 21.226 287.655 24.545 285.719 28.8C285.268 29.79 284.808 31.275 284.697 32.1C284.586 32.925 284.338 33.6 284.147 33.6C283.956 33.6 283.8 33.808 283.8 34.061C283.8 34.498 282.215 38.193 281.384 39.695C281.173 40.077 281 40.679 281 41.033C281 41.387 280.742 42.154 280.427 42.738C280.112 43.322 279.377 45.104 278.793 46.697C278.21 48.291 277.567 49.697 277.366 49.821C277.165 49.945 277 50.318 277 50.649C277 50.98 276.578 52.185 276.061 53.326C275.545 54.467 274.806 56.3 274.419 57.4C273.391 60.32 273.197 60.81 272.254 62.844C271.784 63.858 271.4 64.805 271.4 64.948C271.4 65.205 270.035 68.418 269.418 69.613C269.244 69.95 268.965 70.848 268.798 71.607C268.632 72.367 268.261 73.351 267.974 73.794C267.687 74.237 267.059 75.68 266.577 77C266.095 78.32 265.543 79.571 265.351 79.78C265.158 79.989 265 80.412 265 80.72C265 81.027 264.751 81.846 264.447 82.54C263.946 83.684 263.292 85.222 262.126 88C261.895 88.55 261.571 89.276 261.404 89.613C261.238 89.95 260.975 90.803 260.82 91.509C260.665 92.214 260.372 92.894 260.169 93.019C259.966 93.145 259.8 93.493 259.8 93.794C259.8 94.095 259.17 95.705 258.4 97.372C257.63 99.039 256.994 100.718 256.987 101.102C256.98 101.486 256.71 102.149 256.387 102.576C256.064 103.004 255.8 103.645 255.8 104.002C255.8 104.575 254.414 107.86 253.417 109.651C253.218 110.009 252.927 110.999 252.772 111.851C252.616 112.703 252.154 113.878 251.745 114.462C251.335 115.046 251 115.784 251 116.102C251 116.42 250.55 117.527 250 118.562C249.45 119.596 249 120.714 249 121.047C249 121.379 248.55 122.635 248 123.837C247.45 125.04 246.998 126.243 246.995 126.512C246.993 126.78 246.543 127.783 245.995 128.741C245.448 129.698 245 130.727 245 131.027C245 131.327 244.705 132.254 244.345 133.086C243.984 133.919 243.553 134.96 243.386 135.4C243.22 135.84 242.632 137.19 242.08 138.4C241.528 139.61 240.955 141.183 240.807 141.895C240.659 142.608 240.372 143.294 240.169 143.419C239.966 143.545 239.8 143.949 239.8 144.317C239.8 144.686 239.36 145.89 238.823 146.994C237.205 150.314 236.6 151.878 236.6 152.737C236.6 153.186 236.439 153.652 236.242 153.774C236.046 153.895 235.212 155.751 234.389 157.897C233.567 160.044 232.558 162.555 232.147 163.478C231.736 164.401 231.4 165.289 231.4 165.452C231.4 165.614 231.024 166.569 230.564 167.574C229.348 170.229 229.082 170.886 228.77 172C228.616 172.55 228.065 173.933 227.545 175.074C227.025 176.215 226.6 177.25 226.6 177.373C226.6 177.497 226.06 178.741 225.4 180.138C224.74 181.535 224.197 183.11 224.194 183.639C224.183 185.338 223.605 185.772 222.862 184.638C222.498 184.083 222.2 183.424 222.2 183.175C222.2 182.925 221.954 182.154 221.653 181.46C221.352 180.767 220.612 178.94 220.008 177.4C219.403 175.86 218.679 174.06 218.399 173.4C218.118 172.74 216.327 168.24 214.418 163.4C209.431 150.756 208.893 149.443 208.528 149.02C208.348 148.811 208.2 148.388 208.2 148.08C208.2 147.773 207.912 146.864 207.559 146.06C207.207 145.257 206.76 144.24 206.567 143.8C206.374 143.36 206.028 142.48 205.797 141.845C205.566 141.209 205.262 140.804 205.122 140.945C204.981 141.086 205.062 141.606 205.302 142.101C205.542 142.595 206.049 143.861 206.428 144.913C206.808 145.965 207.272 146.921 207.459 147.037C207.647 147.152 207.8 147.599 207.8 148.029C207.8 148.459 207.971 149.123 208.181 149.505C208.525 150.134 209.367 152.093 210.197 154.2C210.37 154.64 211.092 156.44 211.8 158.2C213.074 161.364 213.465 162.347 214.153 164.1C214.347 164.595 215.067 166.328 215.753 167.952C216.439 169.575 217 171.062 217 171.256C217 171.45 217.337 172.372 217.748 173.304C219.302 176.825 220.524 179.873 221.234 182C222.477 185.722 224.6 187.663 224.6 185.077C224.6 184.844 224.976 183.831 225.436 182.826C225.896 181.822 226.414 180.64 226.588 180.2C227.107 178.887 228.089 176.312 228.755 174.517C229.099 173.591 229.72 172.061 230.135 171.117C230.859 169.471 231.44 168.009 232.843 164.3C233.197 163.365 233.718 162.15 234.001 161.6C234.284 161.05 234.702 159.97 234.93 159.2C235.324 157.867 237.026 153.505 237.817 151.8C238.377 150.593 240.476 145.402 241.861 141.8C242.537 140.04 244.24 135.701 245.645 132.158C247.05 128.615 248.2 125.605 248.2 125.469C248.2 125.333 248.669 124.182 249.241 122.911C250.663 119.756 250.906 119.157 251.23 118C251.384 117.45 251.935 116.067 252.455 114.926C252.975 113.785 253.4 112.682 253.4 112.476C253.4 112.269 254.048 110.682 254.84 108.95C255.632 107.217 256.79 104.36 257.414 102.6C258.037 100.84 260.739 93.91 263.418 87.2C268.807 73.701 268.475 74.519 270.176 70.533C270.849 68.956 271.4 67.392 271.4 67.057C271.4 66.721 271.567 66.344 271.771 66.218C271.975 66.092 272.361 65.316 272.629 64.494C272.898 63.672 273.521 62.1 274.014 61C274.507 59.9 275.596 57.11 276.432 54.8C277.268 52.49 278.085 50.418 278.246 50.195C278.408 49.972 278.926 48.712 279.398 47.395C280.345 44.755 280.586 44.151 281.628 41.8C282.458 39.929 283.555 37.089 284.642 34C285.456 31.684 286.995 28.045 288.252 25.462C288.663 24.616 289 23.752 289 23.541C289 23.331 290.149 20.333 291.554 16.879C297.4 2.50899 297.59 1.74699 294.982 3.14199ZM151.826 7.22C151.812 7.561 151.943 8.011 152.118 8.22C152.293 8.429 152.776 9.68 153.191 11C153.606 12.32 154.062 13.58 154.204 13.8C154.346 14.02 154.792 15.1 155.194 16.2C155.597 17.3 156.034 18.29 156.165 18.4C156.296 18.51 156.759 19.68 157.194 21C158.029 23.535 159.301 26.4 159.592 26.4C159.767 26.4 159.098 24.387 158.195 22.2C157.923 21.54 157.557 20.64 157.382 20.2C157.208 19.76 156.6 18.376 156.032 17.125C155.465 15.873 155 14.665 155 14.438C155 14.212 154.705 13.346 154.345 12.514C153.984 11.681 153.559 10.64 153.399 10.2C152.692 8.24899 151.849 6.653 151.826 7.22ZM181.8 18.962C181.8 19.051 182.565 19.571 183.5 20.116C185.224 21.123 186.097 21.614 190.4 24C191.72 24.732 193.34 25.632 194 26C194.66 26.368 196.19 27.221 197.4 27.895C198.61 28.57 200.77 29.791 202.2 30.61C210.314 35.255 213.4 36.88 213.4 36.505C213.4 36.305 212.635 35.749 211.7 35.268C210.765 34.787 209.01 33.836 207.8 33.153C205.464 31.836 202.358 30.106 199.4 28.477C198.41 27.932 197.122 27.151 196.538 26.743C195.954 26.334 195.352 26 195.199 26C195.046 26 193.454 25.144 191.66 24.098C189.867 23.051 187.637 21.836 186.705 21.398C185.772 20.959 185.007 20.485 185.005 20.343C185.002 20.202 184.55 19.974 184 19.836C183.45 19.698 183 19.408 183 19.192C183 18.977 182.73 18.8 182.4 18.8C182.07 18.8 181.8 18.873 181.8 18.962ZM159.809 27.239C159.801 27.824 160.497 29.571 161.426 31.295C161.632 31.677 161.806 32.307 161.813 32.695C161.828 33.521 163 35.231 163 34.426C163 33.959 161.958 31.344 160.359 27.8C160.062 27.14 159.814 26.887 159.809 27.239ZM163.015 35.488C163.007 35.757 163.45 36.96 164 38.163C164.55 39.365 165 40.543 165 40.78C165 41.017 165.159 41.523 165.353 41.905C165.945 43.068 166.52 44.455 167.8 47.8C168.473 49.56 169.199 51.405 169.412 51.9C169.625 52.395 169.999 53.295 170.242 53.9C170.485 54.505 170.91 55.54 171.186 56.2C172.346 58.973 172.547 59.493 173.203 61.4C173.582 62.5 174.321 64.334 174.846 65.475C175.371 66.617 175.806 67.787 175.813 68.075C175.82 68.364 176.09 68.949 176.413 69.376C176.736 69.804 177 70.397 177 70.696C177 70.994 177.36 71.984 177.8 72.894C178.24 73.805 178.6 74.692 178.6 74.864C178.6 75.037 179.043 76.128 179.584 77.289C180.126 78.45 180.858 80.3 181.211 81.4C181.565 82.5 182.124 84.03 182.454 84.8C182.784 85.57 183.204 86.56 183.386 87C183.569 87.44 183.98 88.43 184.299 89.2C184.619 89.97 185.105 91.23 185.38 92C185.922 93.517 186.138 94.043 187.364 96.846C187.808 97.862 188.553 99.752 189.02 101.046C189.487 102.341 190.303 104.35 190.835 105.511C191.366 106.672 191.799 107.752 191.799 107.911C191.798 108.186 193.285 111.968 194.453 114.66C194.754 115.354 195 116.023 195 116.149C195 116.274 195.45 117.36 196 118.563C196.55 119.765 197 120.943 197 121.18C197 121.417 197.165 121.923 197.366 122.305C197.927 123.368 199 125.893 199 126.149C199 126.274 199.45 127.36 200 128.563C200.55 129.765 201 130.943 201 131.18C201 131.417 201.159 131.923 201.353 132.305C201.548 132.687 201.927 133.54 202.195 134.2C202.464 134.86 202.916 135.94 203.199 136.6C203.483 137.26 203.938 138.391 204.211 139.113C204.484 139.835 204.798 140.336 204.908 140.226C205.094 140.039 204.807 139.164 203.585 136.2C203.314 135.54 202.593 133.74 201.984 132.2C201.376 130.66 200.455 128.466 199.939 127.325C199.422 126.183 199.001 125.103 199.001 124.925C199.002 124.627 197.652 121.11 196.42 118.2C196.141 117.54 195.686 116.46 195.409 115.8C195.133 115.14 194.748 114.287 194.553 113.905C194.359 113.523 194.2 113.011 194.2 112.766C194.2 112.521 193.95 111.754 193.645 111.06C193.341 110.367 192.587 108.54 191.971 107C191.355 105.46 190.729 104.02 190.579 103.8C190.429 103.58 189.937 102.32 189.485 101C189.034 99.68 188.02 97.075 187.232 95.212C186.444 93.349 185.8 91.54 185.8 91.192C185.8 90.844 185.641 90.389 185.446 90.18C185.251 89.971 183.704 86.29 182.008 82C180.312 77.71 178.672 73.633 178.362 72.94C178.053 72.246 177.8 71.577 177.8 71.451C177.8 71.326 177.374 70.273 176.852 69.112C176.331 67.95 175.232 65.2 174.41 63C173.588 60.8 172.652 58.37 172.331 57.6C172.009 56.83 171.596 55.84 171.412 55.4C171.228 54.96 170.589 53.34 169.992 51.8C169.395 50.26 168.757 48.64 168.574 48.2C168.391 47.76 167.487 45.51 166.566 43.2C164.505 38.034 163.034 34.839 163.015 35.488ZM43.833 110.686C43.815 110.954 44.064 111.764 44.386 112.486C44.708 113.209 45.441 115.06 46.015 116.6C47.133 119.602 47.383 120.229 48.328 122.4C48.663 123.17 49.403 125.06 49.972 126.6C50.542 128.14 51.168 129.76 51.364 130.2C53.015 133.906 53.402 134.831 53.414 135.096C53.421 135.263 53.775 136.12 54.2 137C54.625 137.88 54.979 138.827 54.986 139.105C54.994 139.383 55.165 139.923 55.366 140.305C55.81 141.146 56.699 143.299 57.387 145.2C57.666 145.97 58.155 147.23 58.474 148C58.793 148.77 59.204 149.76 59.386 150.2C59.569 150.64 60.007 151.657 60.359 152.46C60.712 153.264 61 154.13 61 154.386C61 154.641 61.473 155.874 62.051 157.125C62.629 158.376 63.28 159.85 63.498 160.4C63.715 160.95 64.052 161.713 64.247 162.095C64.441 162.477 64.6 162.989 64.6 163.234C64.6 163.479 64.87 164.291 65.2 165.04C65.53 165.788 66.07 167.012 66.4 167.76C66.73 168.509 67 169.223 67 169.349C67 169.474 67.428 170.527 67.951 171.688C68.475 172.85 69.127 174.52 69.4 175.4C69.674 176.28 70.057 177.27 70.251 177.6C70.636 178.252 70.885 178.839 71.209 179.857C71.325 180.219 71.525 180.409 71.654 180.279C71.854 180.079 70.205 175.6 68.386 171.4C68.1 170.74 67.2 168.49 66.386 166.4C63.499 158.988 62.848 157.395 62.529 156.963C62.352 156.723 61.861 155.463 61.439 154.163C60.672 151.803 59.989 150.085 58.559 146.922C58.141 145.999 57.8 145.052 57.8 144.817C57.8 144.581 57.634 144.077 57.432 143.695C57.229 143.313 56.577 141.74 55.983 140.2C55.388 138.66 54.667 136.86 54.38 136.2C53.001 133.024 52.598 132.026 51.795 129.8C51.319 128.48 50.675 126.833 50.365 126.14C50.054 125.446 49.8 124.777 49.8 124.651C49.8 124.526 49.367 123.473 48.838 122.312C48.308 121.15 47.567 119.252 47.19 118.094C46.812 116.936 46.346 115.89 46.152 115.77C45.958 115.651 45.789 115.248 45.775 114.876C45.745 114.039 43.879 110.014 43.833 110.686Z" fill="#AAD4CF"/>
</svg>
