<?xml version="1.0" encoding="UTF-8"?>
<svg width="397px" height="63px" viewBox="0 0 397 63" version="1.1" xmlns="http://www.w3.org/2000/svg" xmlns:xlink="http://www.w3.org/1999/xlink">
    <!-- Generator: Sketch 59.1 (86144) - https://sketch.com -->
    <title>typeofweb_logo</title>
    <desc>Created with Sketch.</desc>
    <g id="Page-1" stroke="none" stroke-width="1" fill="none" fill-rule="evenodd">
        <g id="typeofweb_logo" fill-rule="nonzero">
            <path d="M0,7.63587041 L10.3532058,6.06 L10.3532058,16.2345387 L22.7890681,16.2345387 L22.7890681,24.378902 L10.3532058,24.378902 L10.3532058,36.5315603 C10.3532058,38.5853974 10.7386975,40.2275207 11.5046745,41.4531977 C12.2656452,42.683607 13.807612,43.2940793 16.1205622,43.2940793 C18.3934614,43.289347 20.6513414,42.9107595 22.7890681,42.1772462 L24.2509327,49.7963194 C22.89552,50.3086848 21.5015416,50.7247091 20.0806134,51.0409258 C18.2329314,51.4225835 16.3444028,51.5988753 14.4534358,51.5662159 C11.6298342,51.5662159 9.28684563,51.2065578 7.43448289,50.4825092 C5.70699075,49.8465086 4.17769536,48.807902 2.98881231,47.463274 C1.83734358,46.0908944 1.03632186,44.4818975 0.660842923,42.7687892 C0.203225387,40.7631953 -0.0167417714,38.715675 0.00500638578,36.664066 L0.00500638578,7.63587041 L0,7.63587041 Z M64.4021467,16.2345387 C62.437235,22.5390359 60.2549557,28.7811715 57.8588005,34.9509576 C55.6182069,40.6921845 53.1296134,46.3441913 50.3992857,51.8927476 C49.5611557,53.6348474 48.585492,55.3148428 47.4805628,56.9184965 C46.5967258,58.2006094 45.516997,59.3520031 44.2764759,60.3352486 C43.1169471,61.2304756 41.7812072,61.8995856 40.346463,62.3039035 C38.6852109,62.7444817 36.9651232,62.9548965 35.2399495,62.9285728 C32.5489862,62.9518273 29.8785355,62.4842501 27.3749175,61.5514609 L29.1772163,53.7336293 C30.1054508,54.04964 31.0599805,54.2918309 32.0308562,54.4576778 C32.8619163,54.5901834 33.7430402,54.6564363 34.6692215,54.6564363 C36.5215843,54.6564363 37.9484042,54.1832019 38.944675,53.2414655 C39.9459522,52.2997291 40.787025,50.9983347 41.4829126,49.3325497 C38.9057685,44.5133486 36.5407306,39.5953901 34.3938703,34.5912995 C31.8284515,28.5879075 29.6008342,22.4604238 27.7203581,16.2345387 L38.6993621,16.2345387 C39.164956,17.9429147 39.710652,19.7932611 40.3364503,21.7855777 C41.6030659,25.8080698 42.9798219,29.8069001 44.4516994,33.772604 C45.1726189,35.6986679 45.8635002,37.449635 46.5143303,39.0255054 C47.1771343,37.2860312 47.8047158,35.5347444 48.3967314,33.772604 C49.0475615,31.8465402 49.6883789,29.8636882 50.3141771,27.8287805 C51.4956842,23.9766528 52.6271273,20.1150604 53.6984939,16.2345387 L64.4021467,16.2345387 L64.4021467,16.2345387 Z M93.3040118,33.772604 C93.3040118,30.7486365 92.5830923,28.3304089 91.1512659,26.513189 C89.7144332,24.7007014 87.5817129,23.7873591 84.7581113,23.7873591 C83.2461828,23.7873591 81.7342543,23.896203 80.2423513,24.1186231 L80.2423513,41.7844617 C81.028416,42.2333296 81.882803,42.5653153 82.7755825,42.7687892 C83.8169108,43.0290681 84.8732582,43.1615737 85.9396183,43.1615737 C90.8458764,43.1615737 93.2990054,40.0334946 93.2990054,33.772604 L93.3040118,33.772604 L93.3040118,33.772604 Z M103.862479,33.5075928 C103.862479,36.1813669 103.512032,38.6090592 102.821151,40.7954019 C102.201723,42.8487243 101.164374,44.7680618 99.7672559,46.4458201 C98.4225121,48.0217161 96.7086053,49.2805261 94.7608701,50.1228511 C92.7683286,50.9983347 90.4754039,51.4384426 87.882096,51.4384426 C85.2505978,51.4526351 82.6461337,50.9363783 80.2423513,49.9240927 L80.2423513,62.9285728 L69.8891455,62.9285728 L69.8891455,17.4176246 C70.9404865,17.1242193 72.0118531,16.8734051 73.088226,16.6604496 C74.2897586,16.4238324 75.5513678,16.2156093 76.8730537,16.0405126 C78.1897332,15.8654159 79.5364509,15.7234456 80.9031942,15.6146017 C82.2699376,15.5057578 83.5766043,15.4489697 84.8282007,15.4489697 C87.8370386,15.4489697 90.5254677,15.8748806 92.8884818,16.7267024 C95.1320603,17.5103084 97.1695939,18.7437246 98.8611,20.3422129 C100.52086,21.9577431 101.788481,23.8955873 102.575838,26.0210252 C103.43193,28.2546914 103.862479,30.7533688 103.862479,33.5075928 Z M134.431471,30.0245879 C134.381407,29.1964278 134.231216,28.387197 133.980896,27.5968956 C133.736193,26.8302204 133.33478,26.1163586 132.799389,25.4957351 C132.243738,24.8668384 131.556926,24.3529426 130.781816,23.9861175 C129.837854,23.5647689 128.801303,23.3619933 127.757959,23.3945745 C126.60649,23.3945745 125.605213,23.5838683 124.774153,23.9529911 C123.973131,24.2984522 123.262224,24.8048129 122.68649,25.4294823 C122.135788,26.044687 121.705238,26.7545385 121.404855,27.5637692 C121.105774,28.3633128 120.884574,29.1870073 120.744012,30.0245879 L134.431471,30.0245879 L134.431471,30.0245879 Z M110.115455,33.772604 C110.115455,30.7060454 110.611087,28.0228066 111.607358,25.7276199 C112.608635,23.4277009 113.910296,21.5158341 115.532365,19.9778225 C117.124395,18.4634725 119.026822,17.2803866 121.124498,16.4995499 C123.191122,15.7176044 125.39675,15.3160452 127.622786,15.3164637 C132.809402,15.3164637 136.909632,16.816617 139.91847,19.8121905 C142.927308,22.8172286 144.43423,27.2277728 144.43423,33.0485555 C144.43423,33.6164367 144.409198,34.241106 144.36414,34.9225635 C144.314077,35.5992886 144.274025,36.2002963 144.228968,36.7255864 L120.749019,36.7255864 C120.934255,38.6658473 122.030653,40.4262791 123.732825,41.5194505 C125.490066,42.7025364 127.85308,43.2940793 130.816861,43.2940793 C132.719287,43.2940793 134.581663,43.1284473 136.408993,42.8019156 C137.945546,42.5543717 139.448308,42.1464733 140.889709,41.5857033 L142.281484,49.5360405 C141.563537,49.8527241 140.820288,50.1153948 140.058649,50.3216095 C139.042352,50.6055501 138.00603,50.8327026 136.964702,51.0077994 C135.828253,51.2065578 134.611701,51.3721898 133.320053,51.4999631 C132.018393,51.6324687 130.726746,51.6987215 129.430092,51.6987215 C126.140896,51.6987215 123.28225,51.2396842 120.849146,50.3216095 C118.566961,49.4957139 116.504241,48.2066099 114.806439,46.5451994 C113.193211,44.9247352 111.982349,42.9847671 111.261918,40.8663871 C110.47847,38.5737598 110.089695,36.17706 110.110449,33.7678717 L110.115455,33.772604 L110.115455,33.772604 Z" id="Shape" fill="#161326"></path>
            <path d="M169.424459,49.6441453 L151.655941,36.4592652 L151.655941,33.1843111 L169.424459,20.0703175 L171.019775,24.0021527 L156.866973,34.824151 L171.019775,45.6461494 L169.419458,49.6441453 L169.424459,49.6441453 Z M205.231547,33.8411922 C205.231547,29.9944208 204.321367,26.9415776 202.491005,24.6921141 C200.660643,22.4426507 198.175151,21.3131933 195.029528,21.3131933 C191.883905,21.3131933 189.398413,22.4426507 187.573052,24.6921141 C185.742689,26.9463033 184.827508,29.9944208 184.827508,33.8411922 C184.827508,37.6879637 185.742689,40.7408069 187.573052,42.9902703 C189.398413,45.2397337 191.883905,46.3644654 195.029528,46.3644654 C198.180152,46.3644654 200.660643,45.2397337 202.491005,42.9902703 C204.321367,40.7360811 205.231547,37.6879637 205.231547,33.8411922 Z M211.96288,33.8411922 C211.999746,36.3391129 211.576696,38.8240687 210.712633,41.1850287 C209.948208,43.2630279 208.758736,45.1786626 207.21194,46.8228645 C205.717754,48.3891807 203.881874,49.630658 201.830874,50.4617024 C199.681365,51.3268986 197.36581,51.7629137 195.029528,51.7423843 C192.579043,51.7423843 190.313594,51.3170655 188.228181,50.4664281 C186.178664,49.6353187 184.344431,48.3938016 182.852117,46.8275902 C181.35182,45.2491852 180.181588,43.3730571 179.351424,41.1850287 C178.488347,38.8238344 178.065325,36.3390429 178.101177,33.8411922 C178.101177,31.1758616 178.516259,28.7373677 179.351424,26.5304361 C180.181588,24.3187788 181.35182,22.4284734 182.852117,20.85952 C184.352414,19.281115 186.152771,18.0713195 188.228181,17.2159563 C190.313594,16.3653189 192.579043,15.9400002 195.029528,15.9400002 C197.480013,15.9400002 199.750462,16.3653189 201.830874,17.2159563 C203.882266,18.0463424 205.718287,19.2879145 207.21194,20.8547942 C208.712237,22.4284734 209.882468,24.3187788 210.712633,26.5257104 C211.571508,28.8781104 211.99446,31.3528992 211.96288,33.8411922 L211.96288,33.8411922 Z M231.526753,0 C233.427129,0 235.052451,0.132321377 236.422722,0.396964132 C237.782992,0.656881123 238.743182,0.89789506 239.298292,1.11528018 L238.118058,6.36087763 C237.362564,6.0328306 236.573216,5.77944386 235.762592,5.60475548 C234.74239,5.3684673 233.492142,5.24559745 232.011849,5.24559745 C229.006254,5.24559745 226.900837,6.02534843 225.695599,7.57539885 C224.495361,9.13017503 223.895242,11.2142367 223.895242,13.8370354 L223.895242,16.7906376 L237.77299,16.7906376 L237.77299,21.9039137 L223.895242,21.9039137 L223.895242,50.8917468 L217.438964,50.8917468 L217.438964,13.7094398 C217.438964,9.33810862 218.574189,5.95918774 220.839637,3.57740295 C223.105086,1.19089239 226.670792,0 231.526753,0 L231.526753,0 Z M263.243032,36.5301516 L245.479515,49.6441453 L243.879198,45.7075843 L258.037001,34.824151 C255.655494,33.0583567 253.296523,31.2655877 250.9606,29.4462322 C248.610135,27.6220875 246.254669,25.8073943 243.884199,24.0021527 L245.479515,20.0703175 L263.243032,33.1843111 L263.243032,36.5301516 L263.243032,36.5301516 Z" id="Shape" fill="#5AB783"></path>
            <path d="M292.427361,31.1866405 C291.502752,34.5148591 290.523167,37.8241134 289.478609,41.1191446 C288.429054,44.4473632 287.329519,47.7566175 286.185004,51.0563897 L278.13841,51.0563897 C277.168821,48.8897289 276.264204,46.6946218 275.429557,44.4758095 C274.375577,41.7170193 273.365888,38.9431831 272.400839,36.1552631 C271.36128,33.1494361 270.291732,29.9681901 269.202194,26.6162663 C268.105963,23.2382067 267.051338,19.8481235 266.038533,16.4467096 L276.928922,16.4467096 C277.778563,20.0925787 278.65819,23.7337067 279.547814,27.3700936 C280.032608,29.3423713 280.54739,31.3288721 281.077166,33.324855 C281.61194,35.3208379 282.161707,37.236223 282.72147,39.0804922 C283.321216,37.150884 283.910966,35.1786064 284.485723,33.1589182 C285.065478,31.143971 285.620243,29.1574702 286.155016,27.2041568 L287.679371,21.5480817 C288.132179,19.8536296 288.558999,18.1530143 288.958829,16.4467096 L296.455656,16.4467096 C296.820501,18.030221 297.235325,19.7275177 297.705127,21.5480817 C298.159934,23.3686457 298.649727,25.2555844 299.154513,27.2041568 C299.674293,29.1953986 300.204069,31.1771584 300.753836,33.1589182 C301.297821,35.1427452 301.874313,37.1184227 302.483104,39.0852333 C304.233244,33.3117507 305.781768,27.4849781 307.126138,21.6144564 L308.345622,16.4467096 L319.09607,16.4467096 C317.11191,23.0557362 314.98781,29.6268344 312.733764,36.150522 C311.768305,38.9438059 310.746886,41.7194044 309.670061,44.4758095 C308.670484,47.0217544 307.755871,49.2168615 306.921225,51.0563897 L298.874631,51.0563897 C297.732018,47.7474958 296.600824,44.435063 295.481068,41.1191446 C294.373416,37.834178 293.356829,34.5222033 292.432359,31.1866405 L292.427361,31.1866405 L292.427361,31.1866405 Z M346.28456,30.2621354 C346.234581,29.4324513 346.084644,28.6217313 345.83475,27.8299757 C345.590703,27.0617955 345.189948,26.3465774 344.65525,25.7249485 C344.100542,25.0948945 343.414897,24.5800531 342.641102,24.2125529 C341.698743,23.790429 340.663953,23.5872802 339.62238,23.6199214 C338.472867,23.6199214 337.47329,23.8095635 336.643641,24.1793656 C335.84398,24.5254624 335.13428,25.0327549 334.559524,25.6585738 C333.995414,26.288863 333.561375,27.0142228 333.280065,27.7967883 C332.981492,28.5978032 332.760668,29.4230134 332.620345,30.2621354 L346.28456,30.2621354 L346.28456,30.2621354 Z M322.009837,34.0170486 C322.009837,30.9448469 322.504627,28.2566703 323.499206,25.9572601 C324.493785,23.6531088 325.798233,21.7377237 327.417547,20.1968818 C329.006875,18.6797452 330.906071,17.4944821 333.000184,16.7122085 C335.063299,15.928824 337.265181,15.5265259 339.487437,15.5269452 C344.665245,15.5269452 348.758512,17.029859 351.762241,20.030945 C354.765969,23.0415131 356.270332,27.4601736 356.270332,33.2916676 C356.270332,33.8605939 356.245343,34.4864128 356.200362,35.1691243 C356.150383,35.8470947 356.1104,36.4492083 356.060421,36.9754651 L332.620345,36.9754651 C332.805266,38.9192964 333.899803,40.6829678 335.604082,41.7781508 C337.358339,42.9634139 339.71734,43.5560454 342.676088,43.5560454 C344.575283,43.5560454 346.434496,43.3901085 348.258724,43.062976 C349.792667,42.8149766 351.292877,42.4063275 352.73183,41.8445256 L354.121242,49.8094931 C353.404515,50.1267595 352.662528,50.3899135 351.902182,50.5965077 C350.887611,50.8809708 349.853049,51.1085413 348.813489,51.2839602 C347.678969,51.4830844 346.464484,51.6490213 345.17503,51.7770297 C343.883572,51.9090171 342.585606,51.9754865 341.286676,51.9761538 C338.003066,51.9761538 335.154272,51.5162718 332.7253,50.5965077 C330.445201,49.7697043 328.38422,48.4781922 326.687856,46.8131481 C325.079169,45.1892391 323.872093,43.2457362 323.154352,41.1238857 C322.372235,38.8270395 321.98412,36.4259293 322.004839,34.0123076 L322.009837,34.0170486 L322.009837,34.0170486 Z M385.952766,33.4860508 C385.952766,27.1757105 383.503803,24.0134287 378.600878,24.0134287 C377.536329,24.0134287 376.486773,24.1461782 375.447213,24.4116771 C374.552592,24.6155423 373.697954,24.947416 372.913286,25.3978159 L372.913286,43.2241717 C373.418073,43.3189928 374.067797,43.3901085 374.857463,43.4612243 C375.637133,43.522858 376.496769,43.5560454 377.421378,43.5560454 C380.240184,43.5560454 382.369283,42.6362813 383.803676,40.792012 C385.23307,38.9477428 385.952766,36.515583 385.952766,33.4907918 L385.952766,33.4860508 L385.952766,33.4860508 Z M396.493303,33.7515497 C396.493303,36.515583 396.063485,39.0141175 395.208847,41.2518941 C394.417909,43.3888126 393.153369,45.3401141 391.500417,46.9743439 C389.818993,48.5910415 387.78346,49.8373251 385.537941,50.624954 C383.17894,51.4783434 380.495076,51.9097791 377.491348,51.9097791 C376.241877,51.9097791 374.937429,51.8528865 373.573007,51.7438423 C372.208585,51.6347981 370.864154,51.4925665 369.54971,51.3171476 C368.230269,51.1417287 366.970802,50.9378634 365.77131,50.6913287 C364.695453,50.4834206 363.629856,50.2303155 362.577662,49.9327604 L362.577662,1.57877034 L372.913286,0 L372.913286,17.2384653 C375.312271,16.2238802 377.91117,15.7071055 380.540057,15.7213287 C383.128961,15.7213287 385.417992,16.1527644 387.40715,17.0061538 C389.396308,17.8595431 391.055605,19.0827346 392.405034,20.6567639 C393.803785,22.3457582 394.839588,24.2786917 395.453743,26.3460264 C396.174684,28.7541086 396.524826,31.2484166 396.493303,33.7515497 L396.493303,33.7515497 Z" id="Shape" fill="#161326"></path>
        </g>
    </g>
</svg>