<?xml version="1.0" encoding="UTF-8" standalone="no"?>
<svg
   xmlns:dc="http://purl.org/dc/elements/1.1/"
   xmlns:cc="http://creativecommons.org/ns#"
   xmlns:rdf="http://www.w3.org/1999/02/22-rdf-syntax-ns#"
   xmlns:svg="http://www.w3.org/2000/svg"
   xmlns="http://www.w3.org/2000/svg"
   xmlns:sodipodi="http://sodipodi.sourceforge.net/DTD/sodipodi-0.dtd"
   xmlns:inkscape="http://www.inkscape.org/namespaces/inkscape"
   version="1.0"
   width="256"
   height="256"
   viewBox="0 0 192 192"
   preserveAspectRatio="xMidYMid meet"
   id="svg26"
   sodipodi:docname="logo_odzyskane.svg"
   inkscape:version="0.92.4 (5da689c313, 2019-01-14)">
  <defs
     id="defs30" />
  <sodipodi:namedview
     pagecolor="#ffffff"
     bordercolor="#666666"
     borderopacity="1"
     objecttolerance="10"
     gridtolerance="10"
     guidetolerance="10"
     inkscape:pageopacity="0"
     inkscape:pageshadow="2"
     inkscape:window-width="1920"
     inkscape:window-height="1017"
     id="namedview28"
     showgrid="false"
     inkscape:snap-text-baseline="false"
     inkscape:zoom="0.921875"
     inkscape:cx="60.637053"
     inkscape:cy="212.53121"
     inkscape:window-x="-8"
     inkscape:window-y="-8"
     inkscape:window-maximized="1"
     inkscape:current-layer="layer1"
     units="px" />
  <metadata
     id="metadata2">
Created by potrace 1.11, written by Peter Selinger 2001-2013
<rdf:RDF>
  <cc:Work
     rdf:about="">
    <dc:format>image/svg+xml</dc:format>
    <dc:type
       rdf:resource="http://purl.org/dc/dcmitype/StillImage" />
    <dc:title></dc:title>
  </cc:Work>
</rdf:RDF>
</metadata>
  <g
     inkscape:groupmode="layer"
     id="layer1"
     inkscape:label="Layer 1">
    <rect
       style="fill:#95f9f7;fill-opacity:1;stroke:none;stroke-width:0.28346455;stroke-linecap:round;stroke-linejoin:round;stroke-miterlimit:4;stroke-dasharray:none;stroke-opacity:1;paint-order:markers stroke fill"
       id="rect840"
       width="226.16949"
       height="222.91525"
       x="-19.525425"
       y="-210.71187"
       transform="scale(1,-1)" />
    <text
       xml:space="preserve"
       style="font-style:normal;font-variant:normal;font-weight:600;font-stretch:normal;font-size:24px;line-height:1.25;font-family:'Bookman Old Style';-inkscape-font-specification:'Bookman Old Style, Semi-Bold';font-variant-ligatures:normal;font-variant-caps:normal;font-variant-numeric:normal;font-feature-settings:normal;text-align:start;letter-spacing:0px;word-spacing:0px;writing-mode:lr-tb;text-anchor:start;fill:#000000;fill-opacity:1;stroke:none;stroke-width:0.75"
       x="51.275391"
       y="158.83333"
       id="text894"><tspan
         sodipodi:role="line"
         id="tspan892"
         x="51.275391"
         y="158.83333"
         style="font-style:normal;font-variant:normal;font-weight:600;font-stretch:normal;font-size:24px;font-family:'Bookman Old Style';-inkscape-font-specification:'Bookman Old Style, Semi-Bold';font-variant-ligatures:normal;font-variant-caps:normal;font-variant-numeric:normal;font-feature-settings:normal;text-align:start;writing-mode:lr-tb;text-anchor:start;stroke-width:0.75">FSGeek</tspan></text>
  </g>
  <g
     transform="matrix(0.1,0,0,-0.1,2.25,194.9144)"
     id="g24"
     style="fill:#000000;stroke:none">
    <path
       d="m 732,1619 c -114,-19 -232,-116 -232,-191 0,-22 -4,-24 -30,-20 -66,9 -130,-45 -130,-110 0,-18 14,-62 31,-98 26,-53 33,-81 39,-164 4,-56 8,-81 9,-56 0,25 5,72 11,105 8,54 14,65 59,107 28,25 70,53 93,60 39,13 47,13 88,-5 68,-30 177,-27 329,12 138,34 195,38 246,17 39,-17 55,-42 55,-87 0,-32 0,-32 21,-13 16,15 20,27 16,56 l -5,37 27,-13 c 46,-24 64,-52 59,-91 -6,-50 6,-44 32,17 42,98 12,189 -75,224 -25,11 -45,23 -45,28 0,9 113,2 175,-10 l 30,-6 -25,21 c -44,36 -212,118 -300,146 -125,39 -351,55 -478,34 z"
       id="path4"
       inkscape:connector-curvature="0"
       style="fill:#44382c;fill-opacity:1" />
    <path
       d="m 1183,767 c -14,-30 -112,-82 -183,-96 -82,-18 -229,-24 -277,-13 -48,11 -58,0 -15,-17 76,-31 335,-43 407,-19 35,11 42,20 61,68 31,79 37,100 26,100 -5,0 -14,-10 -19,-23 z"
       id="path10"
       inkscape:connector-curvature="0" />
  </g>
  <path
     sodipodi:type="star"
     style="opacity:1;fill:#ffffff;fill-opacity:1;stroke:#0201f2;stroke-width:2.4749999;stroke-linecap:butt;stroke-linejoin:round;stroke-miterlimit:34.20000076;stroke-dasharray:none;stroke-opacity:1;paint-order:normal"
     id="path873"
     sodipodi:sides="4"
     sodipodi:cx="-217.52542"
     sodipodi:cy="74.338982"
     sodipodi:r1="21.940899"
     sodipodi:r2="15.514558"
     sodipodi:arg1="0.083526143"
     sodipodi:arg2="0.86892431"
     inkscape:flatsided="true"
     inkscape:rounded="0.68"
     inkscape:randomized="0"
     d="m -195.66101,76.16949 c -1.76034,21.02624 -2.66868,21.794235 -23.69492,20.033898 -21.02624,-1.760336 -21.79423,-2.668675 -20.0339,-23.694915 1.76034,-21.026239 2.66868,-21.794234 23.69492,-20.033898 21.02624,1.760336 21.79423,2.668676 20.0339,23.694915 z"
     transform="matrix(0.9516036,-0.05811758,0.0918903,0.60185792,320.73707,37.991125)" />
  <path
     sodipodi:type="star"
     style="opacity:1;fill:#ffffff;fill-opacity:1;stroke:#0201f2;stroke-width:2.4749999;stroke-linecap:butt;stroke-linejoin:round;stroke-miterlimit:34.20000076;stroke-dasharray:none;stroke-opacity:1;paint-order:normal"
     id="path873-4"
     sodipodi:sides="4"
     sodipodi:cx="-217.52542"
     sodipodi:cy="74.338982"
     sodipodi:r1="21.940899"
     sodipodi:r2="15.514558"
     sodipodi:arg1="0.083526143"
     sodipodi:arg2="0.86892431"
     inkscape:flatsided="true"
     inkscape:rounded="0.68"
     inkscape:randomized="0"
     d="m -195.66101,76.16949 c -1.76034,21.02624 -2.66868,21.794235 -23.69492,20.033898 -21.02624,-1.760336 -21.79423,-2.668675 -20.0339,-23.694915 1.76034,-21.026239 2.66868,-21.794234 23.69492,-20.033898 21.02624,1.760336 21.79423,2.668676 20.0339,23.694915 z"
     transform="matrix(0.9516036,-0.05811758,0.0918903,0.60185792,272.16694,38.784938)" />
</svg>
