<svg xmlns="http://www.w3.org/2000/svg" viewBox="0 0 773.01 254.25"><defs><style>.cls-1{fill:#ff4e00;}.cls-2{fill:#1d1d1b;}</style></defs><title>Zasób 1</title><g id="Warstwa_2" data-name="Warstwa 2"><g id="Warstwa_3" data-name="Warstwa 3"><path class="cls-1" d="M194,172.7h16.61l-1.05-18.18h-7.8A106.9,106.9,0,0,1,194,172.7Z"/><path class="cls-1" d="M13.51,157.81H5.74L4.65,176H21.27A106.54,106.54,0,0,1,13.51,157.81Z"/><path class="cls-1" d="M106.75,203.82a30.53,30.53,0,0,1-18.46-6.15,3.29,3.29,0,0,1,3.95-5.27,24.23,24.23,0,0,0,29,0,3.29,3.29,0,0,1,4,5.27A30.56,30.56,0,0,1,106.75,203.82Z"/><path class="cls-2" d="M194,172.7a107.37,107.37,0,0,1-30,34.75A52,52,0,0,0,215.28,251h0l-4.66-78.26Z"/><path class="cls-2" d="M21.3,176H4.66L0,254.25H0a52,52,0,0,0,51.27-43.51A107.32,107.32,0,0,1,21.3,176Z"/><path class="cls-2" d="M123.71,93.87a69.56,69.56,0,0,0,30-37.78l.44-1.37,1.12,39.15h52A100.59,100.59,0,0,0,106.89,0h0A100.6,100.6,0,0,0,6.52,93.87Z"/><path class="cls-1" d="M154.73,99.24A40.1,40.1,0,0,0,118.1,123.1H97.6A40,40,0,1,0,101,139.29c0-.28,0-.56,0-.85h0a6.82,6.82,0,0,1,13.64,0h0c0,.29,0,.57,0,.85a40.06,40.06,0,1,0,40.06-40ZM61,172.53a33.24,33.24,0,1,1,33.24-33.24A33.28,33.28,0,0,1,61,172.53Zm93.76,0A33.24,33.24,0,1,1,188,139.29,33.28,33.28,0,0,1,154.73,172.53Z"/><path class="cls-2" d="M328.56,84.35l32.91,0V87a54.11,54.11,0,0,1-2.1,15.9,33.85,33.85,0,0,1-6.95,12q-11.09,12.5-28.21,12.51a38.8,38.8,0,0,1-28.64-12A40,40,0,0,1,283.63,86.2a41.65,41.65,0,0,1,59-37.76q7.74,3.81,15.23,12.36L349.33,69q-9.81-13-23.89-13a28.5,28.5,0,0,0-21.19,8.73q-8.56,8.58-8.55,21.47a28.25,28.25,0,0,0,9.57,21.92q8.93,8,19.35,8a24,24,0,0,0,15.93-6,21.28,21.28,0,0,0,7.88-14.46l-19.86,0Z"/><path class="cls-2" d="M420.14,103.36l-36,0a15.21,15.21,0,0,0,4,9.85,12.29,12.29,0,0,0,9.13,3.6,11.84,11.84,0,0,0,7.17-2.07q2.79-2.07,6.34-7.64l9.81,5.46a39.09,39.09,0,0,1-4.8,6.63,25.41,25.41,0,0,1-5.41,4.55,21.49,21.49,0,0,1-6.24,2.61,30.35,30.35,0,0,1-7.27.83q-11.25,0-18.06-7.21T372,100.72q0-11.93,6.59-19.3t17.63-7.29q11.08,0,17.55,7.05t6.41,19.44Zm-11.92-9.48q-2.45-9.28-11.72-9.28a12,12,0,0,0-4,.65,11.26,11.26,0,0,0-3.38,1.86,11.77,11.77,0,0,0-2.6,2.92,13.53,13.53,0,0,0-1.65,3.87Z"/><path class="cls-2" d="M478.59,103.3l-36,0a15.24,15.24,0,0,0,4,9.85,12.28,12.28,0,0,0,9.14,3.61,12,12,0,0,0,7.17-2.07c1.85-1.38,4-3.93,6.33-7.64l9.81,5.46a39.07,39.07,0,0,1-4.79,6.63,25.31,25.31,0,0,1-5.41,4.54,21.73,21.73,0,0,1-6.24,2.61,30.42,30.42,0,0,1-7.28.84q-11.23,0-18.06-7.21t-6.82-19.29q0-11.91,6.58-19.3t17.64-7.29q11.08,0,17.54,7.06t6.42,19.44Zm-11.93-9.48q-2.43-9.28-11.72-9.27a12,12,0,0,0-4,.64A11.71,11.71,0,0,0,445,90a13.48,13.48,0,0,0-1.64,3.87Z"/><path class="cls-2" d="M502.83,38.54l.05,53.13,16.33-16.26,15.58,0L513,96.51l23.45,29.13H521.37l-16.63-21.19-1.85,1.86,0,19.35H491.3l-.08-87.13Z"/><path class="cls-2" d="M601,84.08l32.91,0v2.63a54,54,0,0,1-2.1,15.89,33.65,33.65,0,0,1-6.95,12q-11.07,12.49-28.2,12.51A38.82,38.82,0,0,1,568,115a40,40,0,0,1-11.94-29.08,41.65,41.65,0,0,1,59-37.76q7.74,3.81,15.23,12.36l-8.55,8.21q-9.82-13-23.9-13a28.55,28.55,0,0,0-21.19,8.74q-8.57,8.58-8.55,21.47a28.25,28.25,0,0,0,9.57,21.92q8.92,8,19.35,8a24,24,0,0,0,15.93-6,21.23,21.23,0,0,0,7.88-14.45l-19.86,0Z"/><path class="cls-2" d="M645,54.38a7.17,7.17,0,0,1,2.21-5.26,7.52,7.52,0,0,1,10.68,0,7.12,7.12,0,0,1,2.22,5.31,7.31,7.31,0,0,1-2.21,5.37A7.13,7.13,0,0,1,652.62,62,7.56,7.56,0,0,1,645,54.38Zm13.38,20.88,0,50.25h-11.6l-.05-50.25Z"/><path class="cls-2" d="M673.11,75.25h11.61v4.48a22.34,22.34,0,0,1,5.67-4.59,13.15,13.15,0,0,1,6-1.3,18.82,18.82,0,0,1,9.6,3l-5.3,10.63a11.11,11.11,0,0,0-6.45-2.37q-9.5,0-9.48,14.35l0,26.05h-11.6Z"/><path class="cls-2" d="M725.8,38.31l.08,87.13H714.27l-.08-87.12Z"/><path class="cls-2" d="M769.74,83.72l-9.59,5.12c-1.52-3.1-3.39-4.64-5.63-4.64a3.82,3.82,0,0,0-2.73,1.06A3.54,3.54,0,0,0,750.65,88c0,1.92,2.24,3.83,6.72,5.72q9.23,4,12.44,7.31a12.55,12.55,0,0,1,3.2,9,15.81,15.81,0,0,1-5.35,12.18,18.34,18.34,0,0,1-12.59,4.65q-12.63,0-17.91-12.31l9.9-4.6a21.68,21.68,0,0,0,3.16,4.59,7.19,7.19,0,0,0,5,1.95q5.88,0,5.88-5.37c0-2.06-1.52-4-4.55-5.77-1.17-.59-2.34-1.15-3.51-1.7l-3.56-1.7a21.85,21.85,0,0,1-7.12-5,12.14,12.14,0,0,1-2.64-8.09,14.35,14.35,0,0,1,4.48-10.84,15.72,15.72,0,0,1,11.14-4.29Q765,73.76,769.74,83.72Z"/><path class="cls-2" d="M346.52,148v14.24q-10.42-8.72-21.57-8.7a27.45,27.45,0,0,0-20.68,8.84,29.75,29.75,0,0,0-8.44,21.47A29,29,0,0,0,304.32,205a27.91,27.91,0,0,0,20.75,8.59,25.29,25.29,0,0,0,10.77-2.07,31.28,31.28,0,0,0,5.14-2.79,59.46,59.46,0,0,0,5.59-4.24V219a43.45,43.45,0,0,1-21.66,5.85,40,40,0,0,1-29.16-11.89,39.48,39.48,0,0,1-12-29,40.89,40.89,0,0,1,10-27.14q12.38-14.61,32-14.63A40.65,40.65,0,0,1,346.52,148Z"/><path class="cls-2" d="M396.53,173.06h11.65l.05,50.25H396.57v-5.26q-7.17,6.7-15.42,6.72a22.25,22.25,0,0,1-17.24-7.52q-6.77-7.68-6.77-19.18,0-11.3,6.74-18.84a21.77,21.77,0,0,1,16.91-7.54q8.77,0,15.74,7.2Zm-27.53,25q0,7.22,3.88,11.76a12.71,12.71,0,0,0,10,4.58A13.36,13.36,0,0,0,393.31,210a19.11,19.11,0,0,0,0-23.32A13.13,13.13,0,0,0,383,182.16a12.85,12.85,0,0,0-10,4.54A16.8,16.8,0,0,0,369,198.06Z"/><path class="cls-2" d="M422.83,173h11.61v4.49a21.86,21.86,0,0,1,5.67-4.6,13,13,0,0,1,6-1.29,18.7,18.7,0,0,1,9.6,3l-5.31,10.63a11.09,11.09,0,0,0-6.45-2.37q-9.49,0-9.48,14.35l0,26.05H422.88Z"/><path class="cls-2" d="M464,173h11.61v4.49a22.2,22.2,0,0,1,5.67-4.6,13,13,0,0,1,6-1.29,18.7,18.7,0,0,1,9.6,3l-5.3,10.63a11,11,0,0,0-6.45-2.36q-9.49,0-9.48,14.34l0,26.06H464Z"/><path class="cls-2" d="M500.18,197.73A25,25,0,0,1,508,179.2a27.48,27.48,0,0,1,38.07,0A26.91,26.91,0,0,1,546,217a26.62,26.62,0,0,1-19.23,7.6,25.48,25.48,0,0,1-18.94-7.72Q500.19,209.29,500.18,197.73Zm11.87.19q0,7.54,4,11.92a15.65,15.65,0,0,0,21.77,0q4.08-4.4,4.07-11.72t-4.09-11.7a15.43,15.43,0,0,0-21.66,0A16.16,16.16,0,0,0,512.05,197.92Z"/><path class="cls-2" d="M578.63,183.73l0,39.41H567.06l0-39.41h-5V172.91h5l0-18.42h11.61V172.9h9v10.83Z"/><path class="cls-2" d="M624.75,181.42l-9.59,5.11c-1.52-3.09-3.39-4.64-5.63-4.64A3.91,3.91,0,0,0,606.8,183a3.5,3.5,0,0,0-1.13,2.71q0,2.9,6.71,5.72,9.23,4,12.44,7.32a12.52,12.52,0,0,1,3.2,9,15.81,15.81,0,0,1-5.35,12.18,18.23,18.23,0,0,1-12.58,4.65q-12.65,0-17.92-12.31l9.9-4.6a21.13,21.13,0,0,0,3.16,4.59,7.15,7.15,0,0,0,5,2q5.88,0,5.88-5.37c0-2.07-1.52-4-4.55-5.78-1.17-.58-2.34-1.15-3.51-1.7s-2.35-1.11-3.56-1.7a21.7,21.7,0,0,1-7.12-4.94,12.24,12.24,0,0,1-2.64-8.1,14.32,14.32,0,0,1,4.48-10.83,15.77,15.77,0,0,1,11.14-4.3Q620,171.47,624.75,181.42Z"/></g></g></svg>