<svg id="svg" version="1.1" xmlns="http://www.w3.org/2000/svg" xmlns:xlink="http://www.w3.org/1999/xlink" width="400" height="65.6" viewBox="0, 0, 400,65.6"><g id="svgg"><path id="path0" d="M295.667 10.417 C 295.667 10.750,295.583 10.833,295.249 10.833 L 294.832 10.833 294.874 37.125 L 294.917 63.417 296.458 63.465 L 298.000 63.513 298.000 63.090 C 298.000 62.750,298.082 62.667,298.417 62.667 L 298.833 62.667 298.833 57.950 C 298.833 54.701,298.775 53.175,298.647 53.047 C 298.426 52.826,298.105 52.285,297.752 51.541 C 297.525 51.062,297.500 49.252,297.539 36.204 L 297.583 21.410 298.208 20.468 L 298.833 19.527 298.833 15.180 L 298.833 10.833 298.417 10.833 C 298.083 10.833,298.000 10.750,298.000 10.417 C 298.000 10.012,297.967 10.000,296.833 10.000 C 295.700 10.000,295.667 10.012,295.667 10.417 M230.833 15.572 C 230.833 16.211,230.783 16.317,230.458 16.363 C 230.101 16.414,230.083 16.488,230.083 17.917 C 230.083 19.345,230.101 19.419,230.458 19.470 C 230.730 19.508,230.833 19.635,230.833 19.928 C 230.833 20.246,230.921 20.333,231.238 20.333 C 231.532 20.333,231.658 20.437,231.697 20.708 C 231.786 21.334,235.261 21.378,235.498 20.756 C 235.597 20.496,235.788 20.333,235.996 20.333 C 236.284 20.333,236.333 20.225,236.333 19.595 C 236.333 18.956,236.384 18.849,236.708 18.803 C 237.056 18.754,237.083 18.666,237.083 17.583 C 237.083 16.500,237.056 16.413,236.708 16.363 C 236.384 16.317,236.333 16.211,236.333 15.572 L 236.333 14.833 233.583 14.833 L 230.833 14.833 230.833 15.572 M110.833 18.417 C 110.833 18.750,110.750 18.833,110.416 18.833 L 109.998 18.833 110.041 36.375 L 110.083 53.917 110.458 53.970 C 110.699 54.004,110.833 54.138,110.833 54.345 C 110.833 54.791,114.562 54.846,114.732 54.403 C 114.788 54.258,114.833 51.033,114.833 47.236 L 114.833 40.333 118.405 40.333 L 121.977 40.333 122.030 40.708 C 122.064 40.946,122.217 41.102,122.448 41.135 C 122.675 41.168,122.832 41.325,122.865 41.552 C 122.898 41.783,123.054 41.936,123.292 41.970 C 123.616 42.016,123.667 42.123,123.667 42.762 C 123.667 43.380,123.719 43.500,123.988 43.500 C 124.195 43.500,124.329 43.634,124.363 43.875 C 124.397 44.113,124.551 44.269,124.783 44.302 C 125.092 44.346,125.157 44.477,125.200 45.135 C 125.242 45.794,125.307 45.925,125.616 45.969 C 125.916 46.011,125.991 46.146,126.033 46.719 C 126.075 47.297,126.148 47.426,126.458 47.470 C 126.730 47.508,126.833 47.635,126.833 47.928 C 126.833 48.249,126.920 48.333,127.250 48.333 C 127.634 48.333,127.667 48.393,127.667 49.099 C 127.667 49.715,127.729 49.881,127.988 49.949 C 128.211 50.007,128.344 50.239,128.423 50.703 C 128.499 51.153,128.637 51.400,128.842 51.454 C 129.010 51.498,129.171 51.695,129.199 51.892 C 129.231 52.116,129.390 52.270,129.625 52.303 C 129.949 52.349,130.000 52.456,130.000 53.092 C 130.000 53.737,130.051 53.840,130.417 53.932 C 130.677 53.997,130.833 54.154,130.833 54.351 C 130.833 54.646,130.989 54.667,133.156 54.667 L 135.480 54.667 135.592 53.919 C 135.741 52.921,135.583 52.333,135.163 52.333 C 134.903 52.333,134.833 52.220,134.831 51.792 C 134.828 51.170,134.703 50.937,134.292 50.785 C 134.131 50.726,134.000 50.525,134.000 50.339 C 134.000 50.089,133.891 50.000,133.583 50.000 C 133.194 50.000,133.167 49.944,133.167 49.167 C 133.167 48.389,133.139 48.333,132.750 48.333 C 132.367 48.333,132.333 48.272,132.333 47.583 C 132.333 46.953,132.282 46.833,132.012 46.833 C 131.805 46.833,131.671 46.699,131.637 46.458 C 131.603 46.220,131.449 46.064,131.217 46.031 C 130.908 45.987,130.843 45.857,130.800 45.198 C 130.758 44.533,130.694 44.409,130.375 44.363 C 130.104 44.325,130.000 44.198,130.000 43.905 C 130.000 43.584,129.913 43.500,129.583 43.500 C 129.201 43.500,129.167 43.439,129.167 42.750 C 129.167 42.061,129.133 42.000,128.750 42.000 C 128.366 42.000,128.333 41.940,128.333 41.234 C 128.333 40.616,128.271 40.452,128.009 40.384 C 127.831 40.337,127.662 40.138,127.634 39.941 C 127.602 39.717,127.443 39.563,127.208 39.530 C 126.399 39.415,126.725 38.667,127.583 38.667 C 128.222 38.667,128.333 38.617,128.333 38.333 C 128.333 38.089,128.444 38.000,128.750 38.000 C 129.083 38.000,129.167 37.917,129.167 37.583 C 129.167 37.250,129.250 37.167,129.583 37.167 C 129.917 37.167,130.000 37.083,130.000 36.750 C 130.000 36.417,130.083 36.333,130.417 36.333 C 130.806 36.333,130.833 36.278,130.833 35.500 C 130.833 34.722,130.861 34.667,131.250 34.667 C 131.665 34.667,131.667 34.661,131.667 33.083 C 131.667 31.611,131.690 31.500,132.000 31.500 C 132.320 31.500,132.333 31.389,132.333 28.750 C 132.333 26.111,132.320 26.000,132.000 26.000 C 131.695 26.000,131.667 25.889,131.667 24.680 C 131.667 23.151,131.579 22.833,131.158 22.833 C 130.918 22.833,130.842 22.682,130.801 22.125 C 130.762 21.578,130.665 21.379,130.375 21.252 C 130.169 21.162,130.000 20.996,130.000 20.883 C 130.000 20.598,129.450 20.333,128.856 20.333 C 128.465 20.333,128.345 20.252,128.303 19.958 C 128.269 19.717,128.116 19.564,127.875 19.530 C 127.634 19.496,127.500 19.362,127.500 19.155 C 127.500 18.860,127.370 18.833,125.917 18.833 C 124.339 18.833,124.333 18.832,124.333 18.417 L 124.333 18.000 117.583 18.000 L 110.833 18.000 110.833 18.417 M216.444 18.944 C 216.383 19.006,216.333 20.618,216.333 22.528 L 216.333 26.000 214.000 26.000 L 211.667 26.000 211.667 28.000 L 211.667 30.000 214.000 30.000 L 216.333 30.000 216.336 40.792 C 216.338 52.108,216.348 52.333,216.853 52.333 C 217.088 52.333,217.167 52.454,217.167 52.820 C 217.167 53.628,217.320 53.811,218.098 53.928 C 218.669 54.013,218.833 54.108,218.833 54.352 C 218.833 54.652,219.025 54.667,222.833 54.667 L 226.833 54.667 226.833 52.867 C 226.833 50.543,227.004 50.667,223.800 50.667 L 221.167 50.667 221.167 49.917 C 221.167 49.228,221.133 49.167,220.750 49.167 L 220.333 49.167 220.333 39.587 L 220.333 30.007 223.542 29.962 L 226.750 29.917 226.797 27.958 L 226.844 26.000 223.589 26.000 L 220.333 26.000 220.333 22.417 L 220.333 18.833 218.444 18.833 C 217.406 18.833,216.506 18.883,216.444 18.944 M122.863 22.375 C 122.909 22.695,123.033 22.757,123.708 22.801 C 124.364 22.843,124.500 22.907,124.500 23.176 C 124.500 23.449,124.618 23.500,125.250 23.500 C 125.939 23.500,126.000 23.534,126.000 23.917 C 126.000 24.250,126.083 24.333,126.417 24.333 C 126.806 24.333,126.833 24.389,126.833 25.167 C 126.833 25.947,126.860 26.000,127.254 26.000 L 127.675 26.000 127.629 28.792 C 127.584 31.544,127.578 31.584,127.208 31.637 C 126.885 31.683,126.833 31.790,126.833 32.417 C 126.833 33.044,126.782 33.151,126.458 33.197 C 126.152 33.240,126.073 33.372,126.029 33.915 C 125.968 34.669,125.801 34.827,125.061 34.831 C 124.685 34.833,124.515 34.924,124.454 35.159 C 124.382 35.435,124.196 35.491,123.226 35.534 C 122.186 35.579,122.079 35.617,122.030 35.958 L 121.977 36.333 118.405 36.333 L 114.833 36.333 114.833 29.167 L 114.833 22.000 118.822 22.000 L 122.810 22.000 122.863 22.375 M145.278 25.278 C 145.217 25.339,145.167 25.526,145.167 25.694 C 145.167 25.962,145.020 26.000,144.000 26.000 C 142.867 26.000,142.833 26.012,142.833 26.417 C 142.833 26.806,142.778 26.833,142.000 26.833 C 141.278 26.833,141.167 26.878,141.167 27.167 C 141.167 27.388,141.056 27.500,140.837 27.500 C 140.623 27.500,140.469 27.648,140.402 27.917 C 140.336 28.177,140.179 28.333,139.982 28.333 C 139.757 28.333,139.667 28.452,139.667 28.750 C 139.667 29.083,139.583 29.167,139.250 29.167 C 138.920 29.167,138.833 29.251,138.833 29.572 C 138.833 29.865,138.730 29.992,138.458 30.030 C 138.150 30.074,138.074 30.204,138.034 30.756 C 137.997 31.261,137.893 31.468,137.617 31.589 C 137.299 31.728,137.243 31.900,137.201 32.875 C 137.159 33.835,137.107 34.000,136.848 34.000 C 136.391 34.000,136.337 34.667,136.337 40.333 C 136.337 46.023,136.390 46.667,136.855 46.667 C 137.130 46.667,137.167 46.805,137.167 47.830 C 137.167 48.926,137.191 49.000,137.575 49.096 C 137.914 49.181,137.991 49.315,138.033 49.891 C 138.075 50.464,138.148 50.593,138.458 50.637 C 138.730 50.675,138.833 50.802,138.833 51.095 C 138.833 51.416,138.920 51.500,139.250 51.500 C 139.583 51.500,139.667 51.583,139.667 51.917 C 139.667 52.210,139.757 52.333,139.973 52.333 C 140.142 52.333,140.365 52.521,140.470 52.750 C 140.626 53.092,140.777 53.167,141.318 53.167 C 141.874 53.167,141.985 53.225,142.030 53.542 C 142.076 53.862,142.199 53.924,142.875 53.967 C 143.531 54.010,143.667 54.074,143.667 54.342 C 143.667 54.641,143.793 54.667,145.238 54.667 C 146.741 54.667,146.812 54.683,146.863 55.042 C 146.916 55.413,146.943 55.417,150.042 55.462 L 153.167 55.507 153.167 55.087 L 153.167 54.667 155.167 54.667 C 157.056 54.667,157.167 54.648,157.167 54.333 C 157.167 54.044,157.278 54.000,158.000 54.000 L 158.833 54.000 158.833 52.000 L 158.833 50.000 157.250 50.000 C 155.786 50.000,155.667 50.025,155.667 50.328 C 155.667 50.633,155.529 50.659,153.708 50.703 C 151.821 50.748,151.748 50.764,151.697 51.125 C 151.647 51.475,151.562 51.500,150.417 51.500 C 149.271 51.500,149.186 51.475,149.137 51.125 C 149.086 50.771,148.997 50.747,147.542 50.702 C 146.137 50.658,146.000 50.625,146.000 50.327 C 146.000 50.046,145.884 50.000,145.167 50.000 C 144.389 50.000,144.333 49.972,144.333 49.583 C 144.333 49.250,144.250 49.167,143.917 49.167 C 143.605 49.167,143.500 49.079,143.500 48.818 C 143.500 48.612,143.367 48.434,143.176 48.384 C 142.998 48.337,142.829 48.138,142.801 47.941 C 142.770 47.720,142.610 47.563,142.384 47.531 C 142.084 47.489,142.009 47.354,141.967 46.781 C 141.926 46.207,141.851 46.074,141.549 46.031 C 141.214 45.983,141.176 45.872,141.132 44.781 C 141.087 43.683,141.052 43.579,140.708 43.530 C 140.384 43.484,140.333 43.377,140.333 42.740 L 140.333 42.003 150.292 41.960 L 160.250 41.917 160.303 41.542 C 160.342 41.270,160.468 41.167,160.762 41.167 L 161.167 41.167 161.167 38.000 L 161.167 34.833 160.750 34.833 L 160.333 34.833 160.333 33.167 C 160.333 31.611,160.311 31.500,160.000 31.500 C 159.716 31.500,159.667 31.389,159.667 30.750 C 159.667 30.066,159.631 30.000,159.259 30.000 C 158.891 30.000,158.847 29.923,158.801 29.208 C 158.757 28.533,158.695 28.409,158.375 28.363 C 158.135 28.329,158.000 28.195,158.000 27.992 C 158.000 27.791,157.846 27.634,157.583 27.568 C 157.323 27.503,157.167 27.346,157.167 27.149 C 157.167 26.887,157.041 26.833,156.428 26.833 C 155.789 26.833,155.683 26.783,155.637 26.458 C 155.588 26.114,155.484 26.079,154.375 26.034 C 153.216 25.987,153.167 25.969,153.167 25.576 L 153.167 25.167 149.278 25.167 C 147.139 25.167,145.339 25.217,145.278 25.278 M169.280 25.275 C 169.218 25.338,169.167 25.526,169.167 25.694 C 169.167 25.945,169.033 26.000,168.417 26.000 L 167.667 26.000 167.667 27.583 C 167.667 29.062,167.689 29.167,168.004 29.167 C 168.211 29.167,168.403 29.328,168.500 29.583 C 168.741 30.217,170.000 30.132,170.000 29.482 C 170.000 29.182,170.178 29.167,173.572 29.167 L 177.143 29.167 177.197 29.542 C 177.242 29.860,177.366 29.924,178.024 29.967 C 178.611 30.005,178.818 30.091,178.879 30.324 C 178.933 30.530,179.179 30.668,179.629 30.744 C 180.270 30.852,180.304 30.888,180.410 31.595 C 180.497 32.176,180.589 32.333,180.844 32.333 C 181.151 32.333,181.167 32.474,181.167 35.167 L 181.167 38.000 180.345 38.000 C 179.620 38.000,179.517 37.956,179.470 37.625 L 179.417 37.250 174.750 37.250 L 170.083 37.250 170.030 37.625 C 169.981 37.973,169.893 38.000,168.822 38.000 C 167.778 38.000,167.667 38.032,167.667 38.333 C 167.667 38.585,167.555 38.667,167.208 38.669 C 166.435 38.673,166.000 38.855,166.000 39.175 C 166.000 39.361,165.856 39.497,165.625 39.530 C 165.384 39.564,165.231 39.717,165.197 39.958 C 165.164 40.191,165.028 40.333,164.840 40.333 C 164.480 40.333,164.333 40.651,164.333 41.430 C 164.333 41.889,164.268 42.000,164.000 42.000 C 163.675 42.000,163.667 42.111,163.667 46.333 C 163.667 50.556,163.675 50.667,164.000 50.667 C 164.268 50.667,164.333 50.778,164.333 51.236 C 164.333 52.016,164.480 52.333,164.840 52.333 C 165.028 52.333,165.164 52.476,165.197 52.708 C 165.231 52.949,165.384 53.102,165.625 53.137 C 165.857 53.170,166.000 53.305,166.000 53.494 C 166.000 53.853,166.318 54.000,167.097 54.000 C 167.556 54.000,167.667 54.065,167.667 54.333 C 167.667 54.648,167.778 54.667,169.667 54.667 L 171.667 54.667 171.667 55.083 L 171.667 55.500 174.417 55.500 L 177.167 55.500 177.167 55.083 C 177.167 54.668,177.172 54.667,178.750 54.667 C 180.222 54.667,180.333 54.643,180.333 54.333 C 180.333 54.091,180.444 54.000,180.739 54.000 C 180.962 54.000,181.322 53.933,181.539 53.850 C 182.143 53.620,182.806 53.808,182.866 54.226 C 182.916 54.578,182.965 54.583,186.417 54.583 L 189.917 54.583 189.965 53.042 C 190.012 51.501,190.012 51.500,189.601 51.500 C 189.302 51.500,189.175 51.398,189.137 51.125 C 189.086 50.771,188.997 50.747,187.542 50.702 L 186.000 50.654 186.000 41.240 L 186.000 31.825 185.583 31.667 C 185.193 31.518,185.167 31.433,185.167 30.337 C 185.167 29.200,185.155 29.167,184.750 29.167 C 184.368 29.167,184.333 29.105,184.333 28.427 L 184.333 27.687 183.583 27.575 C 182.999 27.487,182.833 27.393,182.833 27.148 C 182.833 26.923,182.714 26.833,182.417 26.833 C 182.083 26.833,182.000 26.750,182.000 26.417 C 182.000 26.010,181.971 26.000,180.762 26.000 C 179.604 26.000,179.520 25.975,179.470 25.625 L 179.417 25.250 174.405 25.206 C 171.649 25.182,169.343 25.213,169.280 25.275 M200.470 25.542 C 200.421 25.886,200.317 25.921,199.208 25.966 C 198.050 26.013,198.000 26.031,198.000 26.424 C 198.000 26.799,197.936 26.833,197.234 26.833 C 196.609 26.833,196.453 26.894,196.382 27.167 C 196.333 27.351,196.154 27.500,195.981 27.500 C 195.757 27.500,195.667 27.620,195.667 27.917 C 195.667 28.288,195.598 28.333,195.033 28.333 C 194.235 28.333,194.000 28.568,194.000 29.367 C 194.000 29.931,193.955 30.000,193.583 30.000 C 193.250 30.000,193.167 30.083,193.167 30.417 C 193.167 30.712,193.076 30.833,192.855 30.833 C 192.529 30.833,192.339 31.487,192.335 32.625 C 192.334 33.055,192.265 33.167,192.000 33.167 C 191.690 33.167,191.667 33.278,191.667 34.738 C 191.667 36.241,191.650 36.312,191.292 36.363 L 190.917 36.417 190.917 40.333 L 190.917 44.250 191.292 44.303 C 191.650 44.354,191.667 44.425,191.667 45.928 C 191.667 47.389,191.690 47.500,192.000 47.500 C 192.265 47.500,192.334 47.612,192.335 48.042 C 192.339 49.180,192.529 49.833,192.855 49.833 C 193.076 49.833,193.167 49.954,193.167 50.250 C 193.167 50.583,193.250 50.667,193.583 50.667 C 193.917 50.667,194.000 50.750,194.000 51.083 C 194.000 51.417,194.083 51.500,194.417 51.500 C 194.750 51.500,194.833 51.583,194.833 51.917 C 194.833 52.250,194.917 52.333,195.250 52.333 C 195.583 52.333,195.667 52.417,195.667 52.750 C 195.667 53.058,195.755 53.167,196.005 53.167 C 196.191 53.167,196.392 53.298,196.451 53.458 C 196.602 53.867,196.836 53.995,197.439 53.997 C 197.820 53.999,197.985 54.090,198.048 54.333 C 198.129 54.642,198.276 54.667,200.056 54.667 C 201.921 54.667,201.978 54.678,202.030 55.042 C 202.083 55.413,202.108 55.417,204.833 55.417 C 207.558 55.417,207.584 55.413,207.637 55.042 C 207.688 54.683,207.759 54.667,209.262 54.667 C 210.703 54.667,210.833 54.640,210.833 54.345 C 210.833 54.138,210.967 54.004,211.208 53.970 C 211.871 53.876,211.839 51.500,211.175 51.500 C 210.972 51.500,210.837 51.365,210.803 51.125 C 210.705 50.435,206.000 50.479,206.000 51.170 C 206.000 51.455,205.886 51.500,205.167 51.500 C 204.460 51.500,204.333 51.452,204.333 51.184 C 204.333 50.736,204.029 50.667,202.070 50.667 C 200.444 50.667,200.333 50.645,200.333 50.333 C 200.333 50.089,200.222 50.000,199.917 50.000 C 199.583 50.000,199.500 49.917,199.500 49.583 C 199.500 49.201,199.439 49.167,198.750 49.167 C 198.061 49.167,198.000 49.133,198.000 48.750 C 198.000 48.419,197.916 48.333,197.592 48.333 C 197.225 48.333,197.180 48.256,197.134 47.542 C 197.091 46.866,197.028 46.742,196.708 46.697 C 196.363 46.648,196.333 46.557,196.333 45.556 C 196.333 44.609,196.290 44.458,196.000 44.382 C 195.678 44.298,195.667 44.154,195.667 40.333 C 195.667 36.512,195.678 36.369,196.000 36.285 C 196.290 36.209,196.333 36.058,196.333 35.117 C 196.333 34.103,196.359 34.030,196.750 33.932 C 197.117 33.839,197.167 33.738,197.167 33.080 C 197.167 32.395,197.201 32.333,197.583 32.333 C 197.917 32.333,198.000 32.250,198.000 31.917 C 198.000 31.583,198.083 31.500,198.417 31.500 C 198.722 31.500,198.833 31.411,198.833 31.167 C 198.833 30.909,198.944 30.833,199.320 30.833 C 200.023 30.833,200.333 30.675,200.333 30.316 C 200.333 30.041,200.463 30.000,201.320 30.000 C 202.521 30.000,202.833 29.893,202.833 29.482 C 202.833 28.943,207.620 29.002,207.697 29.542 C 207.747 29.899,207.821 29.917,209.250 29.917 L 210.750 29.917 210.797 27.958 L 210.844 26.000 210.005 26.000 C 209.222 26.000,209.167 25.973,209.167 25.583 L 209.167 25.167 204.845 25.167 L 200.523 25.167 200.470 25.542 M274.111 25.278 C 274.050 25.339,274.000 25.526,274.000 25.694 C 274.000 25.962,273.854 26.000,272.833 26.000 C 271.700 26.000,271.667 26.012,271.667 26.417 C 271.667 26.801,271.607 26.833,270.901 26.833 C 270.287 26.833,270.119 26.896,270.052 27.153 C 270.006 27.328,269.788 27.517,269.568 27.572 C 269.313 27.636,269.167 27.793,269.167 28.003 C 269.167 28.216,269.055 28.333,268.851 28.333 C 268.654 28.333,268.497 28.489,268.432 28.750 C 268.364 29.019,268.210 29.167,267.997 29.167 C 267.712 29.167,267.667 29.280,267.667 30.000 C 267.667 30.778,267.639 30.833,267.250 30.833 C 266.868 30.833,266.833 30.895,266.833 31.572 C 266.833 32.211,266.783 32.317,266.458 32.363 C 266.114 32.412,266.079 32.516,266.034 33.625 C 265.991 34.692,265.948 34.833,265.663 34.833 C 265.179 34.833,265.152 35.154,265.203 40.333 L 265.250 45.083 265.619 45.136 C 265.965 45.185,265.991 45.283,266.036 46.719 C 266.080 48.152,266.107 48.253,266.450 48.302 C 266.759 48.346,266.824 48.477,266.866 49.135 C 266.909 49.800,266.973 49.925,267.292 49.970 C 267.610 50.015,267.667 50.125,267.667 50.694 C 267.667 51.226,267.736 51.383,268.002 51.452 C 268.186 51.500,268.382 51.718,268.437 51.937 C 268.496 52.173,268.659 52.333,268.840 52.333 C 269.007 52.333,269.189 52.475,269.244 52.649 C 269.346 52.969,269.791 53.160,270.447 53.164 C 270.696 53.166,270.827 53.285,270.863 53.542 C 270.908 53.853,271.036 53.925,271.617 53.968 C 272.137 54.005,272.343 54.102,272.420 54.343 C 272.514 54.638,272.687 54.667,274.410 54.667 C 276.284 54.667,276.298 54.670,276.402 55.083 L 276.506 55.500 279.253 55.500 L 282.000 55.500 282.000 55.083 L 282.000 54.667 284.322 54.667 C 286.453 54.667,286.652 54.641,286.744 54.351 C 286.814 54.130,287.067 54.003,287.589 53.925 L 288.333 53.813 288.333 52.323 C 288.333 50.944,288.308 50.833,288.000 50.833 C 287.756 50.833,287.667 50.722,287.667 50.417 C 287.667 49.831,284.604 49.751,284.452 50.333 C 284.371 50.641,284.224 50.667,282.512 50.667 C 280.698 50.667,280.656 50.675,280.470 51.083 C 280.192 51.693,278.056 51.728,277.970 51.125 C 277.920 50.771,277.830 50.747,276.375 50.702 C 274.971 50.658,274.833 50.625,274.833 50.327 C 274.833 50.046,274.717 50.000,274.000 50.000 C 273.222 50.000,273.167 49.972,273.167 49.583 C 273.167 49.250,273.083 49.167,272.750 49.167 C 272.417 49.167,272.333 49.083,272.333 48.750 C 272.333 48.449,272.244 48.333,272.012 48.333 C 271.805 48.333,271.671 48.199,271.637 47.958 C 271.602 47.717,271.449 47.564,271.208 47.530 C 270.884 47.484,270.833 47.377,270.833 46.738 C 270.833 46.062,270.798 46.000,270.417 46.000 L 270.000 46.000 270.000 44.001 L 270.000 42.003 279.542 41.960 L 289.083 41.917 289.137 41.542 C 289.175 41.269,289.302 41.167,289.598 41.167 L 290.006 41.167 289.961 37.208 L 289.917 33.250 289.542 33.197 C 289.194 33.147,289.167 33.059,289.167 31.988 C 289.167 30.867,289.154 30.833,288.750 30.833 C 288.361 30.833,288.333 30.778,288.333 30.000 C 288.333 29.288,288.287 29.167,288.012 29.167 C 287.805 29.167,287.671 29.033,287.637 28.792 C 287.603 28.554,287.449 28.398,287.219 28.365 C 286.991 28.332,286.834 28.175,286.802 27.948 C 286.769 27.717,286.612 27.564,286.375 27.530 C 286.134 27.496,286.000 27.362,286.000 27.155 C 286.000 26.880,285.879 26.833,285.167 26.833 C 284.389 26.833,284.333 26.806,284.333 26.417 C 284.333 26.012,284.300 26.000,283.167 26.000 C 282.033 26.000,282.000 25.988,282.000 25.583 L 282.000 25.167 278.111 25.167 C 275.972 25.167,274.172 25.217,274.111 25.278 M227.703 27.955 L 227.750 29.917 229.708 29.964 L 231.667 30.011 231.667 42.344 L 231.667 54.677 233.625 54.630 L 235.583 54.583 235.583 40.333 L 235.583 26.083 231.620 26.039 L 227.656 25.994 227.703 27.955 M238.870 27.958 C 238.915 29.846,238.930 29.919,239.292 29.970 C 239.639 30.019,239.667 30.107,239.667 31.178 C 239.667 32.222,239.699 32.333,240.000 32.333 C 240.268 32.333,240.333 32.444,240.333 32.903 C 240.333 33.684,240.480 34.000,240.844 34.000 C 241.108 34.000,241.158 34.160,241.201 35.125 C 241.245 36.147,241.284 36.255,241.625 36.303 C 241.973 36.353,242.000 36.441,242.000 37.512 C 242.000 38.633,242.012 38.667,242.417 38.667 C 242.806 38.667,242.833 38.722,242.833 39.500 C 242.833 40.278,242.861 40.333,243.250 40.333 C 243.655 40.333,243.667 40.367,243.667 41.500 C 243.667 42.556,243.698 42.667,244.000 42.667 C 244.265 42.667,244.334 42.778,244.335 43.208 C 244.339 44.282,244.534 44.988,244.854 45.090 C 245.098 45.167,245.167 45.352,245.167 45.928 C 245.167 46.605,245.202 46.667,245.583 46.667 C 245.985 46.667,246.000 46.705,246.000 47.754 C 246.000 48.751,246.034 48.856,246.417 49.030 C 246.768 49.190,246.833 49.334,246.833 49.943 C 246.833 50.604,246.870 50.667,247.250 50.667 C 247.639 50.667,247.667 50.722,247.667 51.500 C 247.667 52.214,247.713 52.333,247.991 52.333 C 248.259 52.333,248.324 52.469,248.366 53.125 C 248.409 53.801,248.472 53.924,248.792 53.970 C 249.033 54.004,249.167 54.138,249.167 54.345 C 249.167 54.648,249.307 54.667,251.583 54.667 C 253.843 54.667,254.000 54.646,254.000 54.351 C 254.000 54.154,254.156 53.997,254.417 53.932 C 254.811 53.833,254.833 53.766,254.833 52.663 C 254.833 51.534,254.845 51.500,255.250 51.500 C 255.631 51.500,255.667 51.438,255.667 50.769 C 255.667 50.179,255.731 50.022,256.000 49.952 C 256.271 49.881,256.333 49.724,256.333 49.111 C 256.333 48.455,256.383 48.350,256.708 48.303 C 257.049 48.255,257.088 48.147,257.132 47.136 C 257.177 46.131,257.218 46.016,257.549 45.969 C 257.884 45.921,257.921 45.810,257.966 44.708 C 258.013 43.550,258.031 43.500,258.424 43.500 C 258.795 43.500,258.833 43.433,258.833 42.790 C 258.833 42.213,258.904 42.048,259.208 41.915 C 259.536 41.771,259.590 41.607,259.633 40.625 C 259.675 39.648,259.724 39.500,259.998 39.500 C 260.258 39.500,260.324 39.357,260.366 38.708 C 260.409 38.033,260.472 37.909,260.792 37.863 C 261.139 37.814,261.167 37.726,261.167 36.655 C 261.167 35.534,261.179 35.500,261.583 35.500 C 261.988 35.500,262.000 35.467,262.000 34.333 C 262.000 33.200,262.012 33.167,262.417 33.167 C 262.821 33.167,262.833 33.133,262.833 32.012 C 262.833 30.941,262.861 30.853,263.208 30.803 C 263.527 30.758,263.591 30.634,263.633 29.976 C 263.672 29.372,263.755 29.182,264.008 29.116 C 264.301 29.040,264.333 28.878,264.333 27.511 L 264.333 25.991 262.042 26.037 L 259.750 26.083 259.701 27.198 C 259.657 28.202,259.616 28.317,259.284 28.364 C 258.949 28.412,258.912 28.524,258.868 29.625 C 258.821 30.784,258.802 30.833,258.409 30.833 C 258.014 30.833,258.000 30.873,258.000 31.988 C 258.000 33.059,257.973 33.147,257.625 33.197 C 257.284 33.245,257.245 33.353,257.201 34.375 C 257.158 35.340,257.108 35.500,256.844 35.500 C 256.483 35.500,256.333 35.815,256.333 36.578 C 256.333 36.988,256.248 37.150,256.000 37.215 C 255.710 37.291,255.667 37.442,255.667 38.389 C 255.667 39.390,255.637 39.481,255.292 39.530 C 254.948 39.579,254.913 39.683,254.868 40.792 C 254.821 41.950,254.802 42.000,254.409 42.000 C 254.036 42.000,254.000 42.065,254.000 42.738 C 254.000 43.377,253.949 43.484,253.625 43.530 C 253.281 43.579,253.246 43.683,253.201 44.781 C 253.157 45.872,253.120 45.983,252.785 46.031 C 252.482 46.074,252.408 46.207,252.366 46.783 C 252.328 47.303,252.232 47.510,251.991 47.586 C 251.764 47.658,251.663 47.848,251.654 48.220 C 251.646 48.511,251.603 48.656,251.556 48.542 C 251.510 48.427,251.328 48.333,251.153 48.333 C 250.877 48.333,250.833 48.209,250.833 47.430 C 250.833 46.313,250.720 46.000,250.316 46.000 C 250.048 46.000,250.000 45.873,250.000 45.167 C 250.000 44.393,249.971 44.333,249.591 44.333 C 249.202 44.333,249.179 44.278,249.133 43.208 C 249.088 42.186,249.049 42.078,248.708 42.030 C 248.377 41.983,248.333 41.880,248.333 41.155 C 248.333 40.444,248.288 40.333,248.000 40.333 C 247.708 40.333,247.667 40.222,247.667 39.430 C 247.667 38.313,247.553 38.000,247.149 38.000 C 246.875 38.000,246.833 37.870,246.833 37.012 C 246.833 36.063,246.581 35.500,246.155 35.500 C 246.070 35.500,246.000 35.162,246.000 34.750 C 246.000 34.065,245.965 34.000,245.591 34.000 C 245.198 34.000,245.179 33.950,245.132 32.792 C 245.087 31.683,245.052 31.579,244.708 31.530 C 244.361 31.481,244.333 31.393,244.333 30.322 C 244.333 29.287,244.299 29.167,244.008 29.167 C 243.721 29.167,243.676 29.030,243.633 28.042 C 243.588 27.019,243.549 26.912,243.208 26.863 C 242.937 26.825,242.833 26.698,242.833 26.405 L 242.833 26.000 240.828 26.000 L 238.823 26.000 238.870 27.958 M151.667 29.583 C 151.667 29.966,151.728 30.000,152.417 30.000 C 152.977 30.000,153.167 30.064,153.167 30.254 C 153.167 30.393,153.348 30.590,153.569 30.691 C 153.791 30.791,154.009 31.015,154.054 31.187 C 154.101 31.367,154.283 31.500,154.484 31.500 C 154.745 31.500,154.833 31.605,154.833 31.917 C 154.833 32.250,154.917 32.333,155.250 32.333 C 155.632 32.333,155.667 32.395,155.667 33.072 C 155.667 33.664,155.733 33.832,156.000 33.917 C 156.309 34.015,156.333 34.169,156.333 36.011 L 156.333 38.000 148.333 38.000 L 140.333 38.000 140.333 37.583 C 140.333 37.250,140.417 37.167,140.750 37.167 C 141.165 37.167,141.167 37.160,141.167 35.595 C 141.167 34.092,141.183 34.021,141.542 33.970 C 141.862 33.924,141.924 33.801,141.967 33.125 C 142.013 32.410,142.058 32.333,142.426 32.333 C 142.749 32.333,142.833 32.248,142.833 31.917 C 142.833 31.583,142.917 31.500,143.250 31.500 C 143.546 31.500,143.667 31.410,143.667 31.188 C 143.667 30.952,143.832 30.849,144.350 30.767 C 144.828 30.690,145.059 30.561,145.117 30.337 C 145.182 30.089,145.377 30.006,145.976 29.967 C 146.634 29.924,146.758 29.860,146.803 29.542 C 146.856 29.173,146.894 29.167,149.262 29.167 L 151.667 29.167 151.667 29.583 M280.432 29.583 C 280.523 29.946,280.628 30.000,281.249 30.000 C 281.811 30.000,281.979 30.067,282.045 30.320 C 282.106 30.554,282.338 30.672,282.898 30.756 C 283.499 30.846,283.667 30.940,283.667 31.186 C 283.667 31.389,283.784 31.500,284.000 31.500 C 284.268 31.500,284.333 31.611,284.333 32.070 C 284.333 32.852,284.480 33.167,284.845 33.167 C 285.120 33.167,285.159 33.335,285.202 34.708 C 285.247 36.163,285.271 36.253,285.625 36.303 C 286.128 36.375,286.169 37.167,285.670 37.167 C 285.457 37.167,285.303 37.314,285.235 37.583 L 285.131 38.000 277.565 38.000 L 270.000 38.000 270.000 36.333 L 270.000 34.667 270.417 34.667 C 270.799 34.667,270.833 34.606,270.833 33.917 C 270.833 33.292,270.886 33.167,271.149 33.167 C 271.520 33.167,271.667 32.855,271.667 32.070 C 271.667 31.611,271.732 31.500,272.000 31.500 C 272.222 31.500,272.333 31.389,272.333 31.167 C 272.333 30.898,272.444 30.833,272.903 30.833 C 273.684 30.833,274.000 30.687,274.000 30.325 C 274.000 30.077,274.153 30.008,274.792 29.967 C 275.467 29.924,275.591 29.862,275.637 29.542 C 275.689 29.173,275.731 29.167,278.008 29.167 L 280.327 29.167 280.432 29.583 M178.833 41.482 C 178.833 41.838,179.143 42.000,179.828 42.000 C 180.154 42.000,180.321 42.100,180.382 42.333 C 180.434 42.533,180.609 42.667,180.818 42.667 C 181.158 42.667,181.167 42.736,181.167 45.500 C 181.167 48.213,181.153 48.333,180.837 48.333 C 180.623 48.333,180.469 48.481,180.402 48.750 C 180.336 49.011,180.179 49.167,179.982 49.167 C 179.757 49.167,179.667 49.286,179.667 49.583 C 179.667 49.917,179.583 50.000,179.250 50.000 C 178.947 50.000,178.833 50.089,178.833 50.327 C 178.833 50.625,178.696 50.658,177.292 50.702 C 175.837 50.747,175.747 50.771,175.697 51.125 C 175.647 51.475,175.562 51.500,174.417 51.500 C 173.271 51.500,173.186 51.475,173.137 51.125 C 173.086 50.771,172.997 50.747,171.542 50.702 C 170.137 50.658,170.000 50.625,170.000 50.327 C 170.000 50.092,169.886 50.000,169.595 50.000 C 169.302 50.000,169.175 49.896,169.137 49.625 C 169.102 49.384,168.949 49.231,168.708 49.197 C 168.437 49.158,168.333 49.032,168.333 48.738 C 168.333 48.444,168.242 48.333,168.000 48.333 C 167.685 48.333,167.667 48.222,167.667 46.333 C 167.667 44.444,167.685 44.333,168.000 44.333 C 168.289 44.333,168.333 44.222,168.333 43.500 C 168.333 42.722,168.361 42.667,168.750 42.667 C 169.052 42.667,169.167 42.577,169.167 42.341 C 169.167 42.055,169.303 42.009,170.292 41.966 C 171.274 41.923,171.438 41.869,171.581 41.542 C 171.819 41.000,178.833 40.942,178.833 41.482 " stroke="none" fill="#000000" fill-rule="evenodd"></path><path id="path1" d="M17.972 0.155 C 17.942 0.240,17.311 0.340,16.571 0.377 C 15.137 0.449,14.833 0.545,14.833 0.927 C 14.833 1.100,14.626 1.167,14.087 1.167 C 13.429 1.167,13.327 1.216,13.235 1.583 C 13.159 1.886,13.010 2.007,12.690 2.025 C 12.448 2.039,12.137 2.058,12.000 2.067 C 11.862 2.076,11.727 2.247,11.698 2.448 C 11.666 2.675,11.509 2.832,11.281 2.865 C 11.051 2.898,10.897 3.054,10.863 3.292 C 10.825 3.563,10.698 3.667,10.405 3.667 C 10.082 3.667,10.000 3.753,10.000 4.093 C 10.000 4.333,9.928 4.475,9.835 4.417 C 9.654 4.306,9.197 4.508,9.179 4.708 C 9.172 4.777,9.167 5.091,9.167 5.405 C 9.167 5.871,9.097 5.987,8.792 6.030 C 8.545 6.065,8.417 6.197,8.418 6.417 C 8.419 6.600,8.269 6.827,8.085 6.921 C 7.863 7.034,7.722 7.314,7.667 7.754 C 7.611 8.195,7.500 8.417,7.333 8.417 C 7.196 8.417,7.009 8.585,6.919 8.792 C 6.785 9.096,6.621 9.167,6.047 9.167 C 5.432 9.167,5.326 9.221,5.235 9.583 C 5.156 9.900,5.015 10.005,4.649 10.021 C 3.794 10.058,3.751 10.078,3.697 10.458 C 3.658 10.730,3.532 10.833,3.238 10.833 C 2.917 10.833,2.833 10.920,2.833 11.250 C 2.833 11.580,2.749 11.667,2.428 11.667 C 2.135 11.667,2.008 11.770,1.970 12.042 C 1.934 12.292,1.820 12.400,1.625 12.368 C 1.457 12.340,1.333 12.423,1.333 12.564 C 1.333 12.883,0.851 13.364,0.653 13.242 C 0.569 13.190,0.493 13.283,0.483 13.448 C 0.430 14.422,0.361 14.741,0.191 14.798 C -0.051 14.878,-0.083 24.276,0.158 24.361 C 0.245 24.392,0.351 24.896,0.394 25.481 C 0.463 26.439,0.579 26.693,1.028 26.872 C 1.089 26.897,1.167 27.217,1.202 27.583 C 1.252 28.120,1.337 28.260,1.632 28.303 C 1.982 28.354,2.080 28.632,2.043 29.469 C 2.038 29.590,2.209 29.769,2.425 29.867 C 2.640 29.965,2.839 30.204,2.866 30.398 C 2.898 30.616,3.059 30.770,3.292 30.803 C 3.590 30.846,3.667 30.965,3.669 31.387 C 3.672 31.997,3.799 32.231,4.208 32.382 C 4.369 32.441,4.500 32.642,4.500 32.828 C 4.500 33.056,4.609 33.167,4.833 33.167 C 5.017 33.167,5.176 33.242,5.188 33.333 C 5.199 33.425,5.218 33.594,5.229 33.708 C 5.241 33.823,5.419 33.941,5.625 33.970 C 5.866 34.004,6.000 34.138,6.000 34.345 C 6.000 34.577,6.116 34.667,6.417 34.667 C 6.750 34.667,6.833 34.750,6.833 35.083 C 6.833 35.417,6.917 35.500,7.250 35.500 C 7.580 35.500,7.667 35.584,7.667 35.905 C 7.667 36.198,7.770 36.325,8.042 36.363 C 8.288 36.398,8.417 36.531,8.417 36.750 C 8.417 36.964,8.545 37.102,8.776 37.135 C 8.995 37.166,9.175 37.345,9.238 37.593 C 9.303 37.853,9.459 38.000,9.670 38.000 C 9.889 38.000,10.000 38.112,10.000 38.333 C 10.000 38.578,10.111 38.667,10.417 38.667 C 10.750 38.667,10.833 38.750,10.833 39.083 C 10.833 39.413,10.917 39.500,11.238 39.500 C 11.532 39.500,11.658 39.604,11.697 39.875 C 11.729 40.102,11.884 40.269,12.088 40.298 C 12.275 40.325,12.500 40.513,12.588 40.715 C 12.705 40.982,12.920 41.097,13.365 41.134 C 13.851 41.175,13.990 41.262,14.031 41.551 C 14.064 41.783,14.221 41.936,14.458 41.970 C 14.699 42.004,14.833 42.138,14.833 42.345 C 14.833 42.573,14.949 42.667,15.232 42.667 C 15.518 42.667,15.660 42.784,15.735 43.083 C 15.825 43.440,15.934 43.500,16.503 43.500 C 17.095 43.500,17.167 43.544,17.167 43.906 C 17.167 44.224,17.265 44.323,17.625 44.364 C 17.877 44.393,18.083 44.513,18.083 44.631 C 18.083 44.944,18.507 45.161,19.125 45.164 C 19.557 45.166,19.667 45.235,19.667 45.504 C 19.667 45.709,19.827 45.903,20.075 45.997 C 20.383 46.114,20.466 46.246,20.410 46.534 C 20.302 47.095,20.480 47.500,20.835 47.500 C 21.091 47.500,21.158 47.646,21.199 48.292 C 21.243 48.967,21.305 49.091,21.625 49.137 C 21.901 49.176,22.005 49.308,22.019 49.637 C 22.057 50.514,22.088 50.584,22.458 50.637 C 22.730 50.675,22.833 50.802,22.833 51.095 C 22.833 51.416,22.920 51.500,23.250 51.500 C 23.633 51.500,23.667 51.561,23.667 52.250 C 23.667 52.800,23.732 53.000,23.912 53.000 C 24.048 53.000,24.270 53.215,24.406 53.479 C 24.542 53.742,24.816 54.000,25.015 54.052 C 25.258 54.116,25.344 54.232,25.277 54.407 C 25.204 54.598,25.283 54.667,25.577 54.667 C 25.865 54.667,25.992 54.772,26.030 55.042 C 26.064 55.283,26.217 55.436,26.458 55.470 C 26.730 55.508,26.833 55.635,26.833 55.928 C 26.833 56.249,26.920 56.333,27.250 56.333 C 27.562 56.333,27.667 56.421,27.667 56.682 C 27.667 56.889,27.800 57.066,27.994 57.117 C 28.175 57.164,28.367 57.345,28.422 57.518 C 28.477 57.691,28.659 57.833,28.826 57.833 C 29.012 57.833,29.171 57.996,29.235 58.250 C 29.327 58.617,29.429 58.667,30.087 58.667 C 30.772 58.667,30.833 58.701,30.833 59.083 C 30.833 59.417,30.917 59.500,31.250 59.500 C 31.554 59.500,31.667 59.589,31.667 59.830 C 31.667 60.157,31.903 60.266,32.833 60.370 C 33.063 60.396,33.250 60.513,33.250 60.631 C 33.250 60.941,33.672 61.161,34.272 61.164 C 34.653 61.166,34.818 61.257,34.882 61.500 C 34.957 61.790,35.109 61.833,36.050 61.833 C 37.116 61.833,37.519 62.064,37.241 62.515 C 37.188 62.601,37.688 62.667,38.395 62.667 C 39.563 62.667,39.647 62.691,39.697 63.042 C 39.749 63.409,39.804 63.418,42.500 63.500 C 45.111 63.579,45.250 63.600,45.250 63.917 C 45.250 64.228,45.377 64.253,47.208 64.297 L 49.167 64.344 49.167 63.926 L 49.167 63.508 51.958 63.462 C 54.711 63.417,54.751 63.411,54.803 63.042 C 54.891 62.421,58.000 62.461,58.000 63.083 C 58.000 63.490,58.030 63.500,59.210 63.500 C 60.306 63.500,60.437 63.536,60.585 63.875 C 60.735 64.217,60.879 64.254,62.208 64.298 C 63.495 64.341,63.667 64.382,63.667 64.652 C 63.667 65.084,64.258 65.167,67.354 65.167 C 69.007 65.167,70.000 65.229,70.000 65.333 C 70.000 65.438,71.056 65.500,72.833 65.500 C 74.549 65.500,75.667 65.436,75.667 65.339 C 75.667 65.246,76.506 65.157,77.625 65.130 C 79.501 65.085,79.586 65.068,79.636 64.716 C 79.683 64.384,79.798 64.343,80.802 64.299 C 81.814 64.255,81.922 64.215,81.970 63.875 C 82.015 63.558,82.126 63.500,82.682 63.500 C 83.232 63.500,83.368 63.431,83.500 63.083 C 83.597 62.828,83.789 62.667,83.996 62.667 C 84.245 62.667,84.333 62.557,84.333 62.250 C 84.333 61.917,84.417 61.833,84.750 61.833 C 85.051 61.833,85.167 61.744,85.167 61.512 C 85.167 61.305,85.301 61.171,85.542 61.137 C 85.779 61.103,85.936 60.949,85.969 60.719 C 86.001 60.491,86.158 60.334,86.385 60.302 C 86.693 60.258,86.758 60.127,86.801 59.458 C 86.843 58.805,86.908 58.667,87.173 58.667 C 87.376 58.667,87.532 58.514,87.598 58.250 C 87.690 57.885,87.793 57.833,88.435 57.833 C 89.050 57.833,89.167 57.781,89.167 57.507 C 89.167 57.218,89.303 57.176,90.375 57.132 C 91.476 57.088,91.588 57.051,91.636 56.716 C 91.683 56.384,91.798 56.343,92.802 56.299 C 93.814 56.255,93.922 56.215,93.970 55.875 C 94.015 55.558,94.126 55.500,94.682 55.500 C 95.232 55.500,95.368 55.431,95.500 55.083 C 95.597 54.828,95.789 54.667,95.996 54.667 C 96.218 54.667,96.333 54.557,96.333 54.345 C 96.333 54.138,96.467 54.004,96.708 53.970 C 96.946 53.936,97.102 53.783,97.135 53.552 C 97.168 53.325,97.325 53.168,97.552 53.135 C 97.860 53.091,97.925 52.960,97.967 52.292 C 98.013 51.577,98.058 51.500,98.426 51.500 L 98.833 51.500 98.833 48.003 L 98.833 44.506 98.417 44.402 C 98.053 44.311,98.000 44.206,98.000 43.583 C 98.000 42.884,97.701 42.523,97.318 42.759 C 97.235 42.811,97.167 42.474,97.167 42.010 C 97.167 41.222,97.140 41.167,96.750 41.167 C 96.417 41.167,96.333 41.083,96.333 40.750 C 96.333 40.449,96.244 40.333,96.012 40.333 C 95.805 40.333,95.671 40.199,95.637 39.958 C 95.603 39.721,95.449 39.564,95.219 39.531 C 94.991 39.499,94.834 39.342,94.802 39.115 C 94.768 38.878,94.633 38.750,94.417 38.750 C 94.145 38.750,94.068 38.611,94.000 38.000 L 93.917 37.250 93.125 37.199 C 92.410 37.153,92.333 37.109,92.333 36.741 C 92.333 36.444,92.242 36.333,92.000 36.333 C 91.779 36.333,91.667 36.222,91.667 36.003 C 91.667 35.790,91.519 35.636,91.250 35.568 C 90.989 35.503,90.833 35.346,90.833 35.149 C 90.833 34.923,90.714 34.833,90.417 34.833 C 90.083 34.833,90.000 34.750,90.000 34.417 C 90.000 34.028,89.944 34.000,89.167 34.000 C 88.389 34.000,88.333 33.972,88.333 33.583 C 88.333 33.283,88.244 33.167,88.012 33.167 C 87.805 33.167,87.671 33.033,87.637 32.792 C 87.591 32.472,87.467 32.409,86.792 32.366 C 86.077 32.320,86.000 32.275,86.000 31.908 C 86.000 31.584,85.914 31.500,85.583 31.500 C 85.278 31.500,85.167 31.411,85.167 31.167 C 85.167 30.883,85.056 30.833,84.428 30.833 C 83.789 30.833,83.683 30.783,83.637 30.458 C 83.591 30.139,83.467 30.076,82.802 30.033 C 82.143 29.990,82.013 29.925,81.969 29.616 C 81.925 29.306,81.795 29.242,81.125 29.199 C 80.410 29.153,80.333 29.109,80.333 28.741 C 80.333 28.449,80.242 28.333,80.012 28.333 C 79.805 28.333,79.671 28.199,79.637 27.958 C 79.607 27.752,79.490 27.574,79.375 27.563 C 79.260 27.551,79.092 27.532,79.000 27.521 C 78.908 27.509,78.833 27.350,78.833 27.167 C 78.833 26.922,78.722 26.833,78.417 26.833 C 78.083 26.833,78.000 26.750,78.000 26.417 C 78.000 26.083,77.917 26.000,77.583 26.000 C 77.250 26.000,77.167 25.917,77.167 25.583 C 77.167 25.250,77.083 25.167,76.750 25.167 C 76.449 25.167,76.333 25.077,76.333 24.845 C 76.333 24.667,76.201 24.481,76.040 24.429 C 75.879 24.378,75.673 24.167,75.582 23.960 C 75.491 23.753,75.304 23.583,75.167 23.583 C 74.976 23.583,74.897 23.306,74.833 22.417 C 74.758 21.363,74.714 21.245,74.375 21.197 C 74.051 21.151,74.000 21.044,74.000 20.405 C 74.000 19.733,73.963 19.667,73.592 19.667 C 73.225 19.667,73.180 19.590,73.134 18.875 C 73.091 18.199,73.028 18.076,72.708 18.030 C 72.437 17.992,72.333 17.865,72.333 17.572 C 72.333 17.286,72.241 17.167,72.019 17.167 C 71.774 17.167,71.680 17.001,71.592 16.417 C 71.503 15.824,71.412 15.667,71.156 15.667 C 70.923 15.667,70.833 15.551,70.833 15.250 C 70.833 14.917,70.750 14.833,70.417 14.833 C 70.083 14.833,70.000 14.750,70.000 14.417 C 70.000 14.083,69.917 14.000,69.583 14.000 C 69.250 14.000,69.167 13.917,69.167 13.583 C 69.167 13.250,69.083 13.167,68.750 13.167 C 68.438 13.167,68.333 13.079,68.333 12.818 C 68.333 12.609,68.199 12.434,68.000 12.382 C 67.816 12.333,67.667 12.154,67.667 11.981 C 67.667 11.757,67.547 11.667,67.250 11.667 C 66.917 11.667,66.833 11.583,66.833 11.250 C 66.833 10.917,66.750 10.833,66.417 10.833 C 66.083 10.833,66.000 10.750,66.000 10.417 C 66.000 10.083,65.917 10.000,65.583 10.000 C 65.278 10.000,65.167 9.911,65.167 9.667 C 65.167 9.483,65.092 9.324,65.000 9.313 C 64.908 9.301,64.758 9.273,64.667 9.250 C 64.575 9.227,64.318 9.199,64.095 9.188 C 63.810 9.173,63.674 9.056,63.637 8.792 C 63.603 8.553,63.449 8.398,63.216 8.364 C 63.014 8.336,62.803 8.167,62.747 7.989 C 62.666 7.734,62.490 7.667,61.905 7.667 C 61.229 7.667,61.167 7.632,61.167 7.250 C 61.167 6.869,61.104 6.833,60.435 6.833 C 59.793 6.833,59.690 6.782,59.598 6.417 C 59.499 6.022,59.432 6.000,58.330 6.000 C 57.200 6.000,57.167 5.988,57.167 5.583 C 57.167 5.179,57.133 5.167,56.000 5.167 C 54.966 5.167,54.833 5.131,54.833 4.851 C 54.833 4.422,54.669 4.384,52.750 4.363 C 51.833 4.353,51.036 4.342,50.978 4.339 C 50.920 4.336,50.833 4.183,50.785 4.000 C 50.677 3.587,42.942 3.466,42.777 3.875 C 42.710 4.042,42.690 4.042,42.680 3.875 C 42.671 3.729,42.315 3.667,41.500 3.667 C 40.367 3.667,40.333 3.655,40.333 3.250 C 40.333 2.845,40.300 2.833,39.167 2.833 C 38.033 2.833,38.000 2.821,38.000 2.417 C 38.000 2.013,37.965 2.000,36.851 2.000 C 35.765 2.000,35.697 1.977,35.598 1.583 C 35.496 1.176,35.459 1.167,33.925 1.167 C 32.425 1.167,32.354 1.150,32.303 0.792 C 32.252 0.431,32.176 0.415,30.333 0.365 C 29.279 0.336,28.392 0.242,28.361 0.156 C 28.287 -0.052,18.047 -0.053,17.972 0.155 M30.863 3.208 C 30.914 3.562,31.003 3.586,32.458 3.631 C 33.863 3.675,34.000 3.708,34.000 4.006 C 34.000 4.302,34.119 4.333,35.250 4.333 C 36.463 4.333,36.500 4.345,36.500 4.738 C 36.500 5.032,36.396 5.158,36.125 5.197 C 35.884 5.231,35.731 5.384,35.697 5.625 C 35.650 5.957,35.547 6.000,34.813 6.000 L 33.982 6.000 34.033 6.792 L 34.083 7.583 35.599 7.631 C 37.201 7.681,38.000 7.503,38.000 7.094 C 38.000 6.896,38.310 6.836,39.542 6.798 C 40.997 6.753,41.086 6.729,41.137 6.375 L 41.190 6.000 44.766 6.000 L 48.342 6.000 48.500 6.417 C 48.656 6.826,48.691 6.833,50.469 6.833 C 52.239 6.833,52.284 6.843,52.470 7.250 C 52.644 7.632,52.749 7.667,53.746 7.667 C 54.712 7.667,54.833 7.703,54.833 7.991 C 54.833 8.259,54.969 8.324,55.625 8.366 C 56.301 8.409,56.424 8.472,56.470 8.792 C 56.516 9.115,56.623 9.167,57.250 9.167 C 57.877 9.167,57.984 9.218,58.030 9.542 C 58.076 9.862,58.199 9.924,58.875 9.967 C 59.590 10.013,59.667 10.058,59.667 10.426 C 59.667 10.749,59.752 10.833,60.083 10.833 C 60.389 10.833,60.500 10.922,60.500 11.167 C 60.500 11.451,60.611 11.500,61.250 11.500 C 61.939 11.500,62.000 11.534,62.000 11.917 C 62.000 12.250,62.083 12.333,62.417 12.333 C 62.750 12.333,62.833 12.417,62.833 12.750 C 62.833 13.083,62.917 13.167,63.250 13.167 C 63.583 13.167,63.667 13.250,63.667 13.583 C 63.667 13.877,63.757 14.000,63.973 14.000 C 64.142 14.000,64.365 14.187,64.470 14.417 C 64.578 14.655,64.799 14.833,64.987 14.833 C 65.224 14.833,65.297 14.925,65.250 15.167 C 65.200 15.427,65.276 15.500,65.593 15.500 C 65.916 15.500,66.000 15.586,66.000 15.917 C 66.000 16.250,66.083 16.333,66.417 16.333 C 66.750 16.333,66.833 16.417,66.833 16.750 C 66.833 17.083,66.917 17.167,67.250 17.167 C 67.632 17.167,67.667 17.229,67.667 17.905 C 67.667 18.544,67.717 18.651,68.042 18.697 C 68.288 18.732,68.417 18.865,68.417 19.083 C 68.417 19.302,68.546 19.435,68.792 19.470 C 69.084 19.511,69.172 19.640,69.192 20.053 C 69.206 20.345,69.225 20.696,69.234 20.833 C 69.243 20.971,69.419 21.107,69.625 21.137 C 69.970 21.186,70.137 21.780,70.021 22.539 C 70.010 22.606,70.189 22.708,70.418 22.765 C 70.782 22.857,70.833 22.960,70.833 23.601 C 70.833 24.271,70.869 24.333,71.250 24.333 C 71.655 24.333,71.667 24.366,71.667 25.516 C 71.667 26.558,71.706 26.708,72.000 26.785 C 72.353 26.877,72.341 26.798,72.399 29.417 C 72.422 30.449,72.468 30.602,72.796 30.748 C 73.344 30.991,73.378 35.476,72.833 35.618 C 72.641 35.669,72.492 35.856,72.480 36.061 C 72.469 36.257,72.441 36.904,72.417 37.500 C 72.393 38.096,72.364 38.785,72.353 39.030 C 72.340 39.319,72.216 39.515,72.003 39.582 C 71.822 39.640,71.681 39.739,71.690 39.802 C 71.845 40.890,71.635 41.972,71.250 42.068 C 70.860 42.166,70.833 42.241,70.833 43.242 C 70.833 44.223,70.803 44.315,70.458 44.363 C 70.138 44.409,70.076 44.533,70.033 45.208 L 69.982 46.000 65.574 46.000 L 61.167 46.000 61.167 45.583 L 61.167 45.167 59.167 45.167 C 57.315 45.167,57.167 45.143,57.167 44.851 C 57.167 44.420,56.857 44.333,55.320 44.333 C 54.136 44.333,54.000 44.301,54.000 44.018 C 54.000 43.613,53.687 43.500,52.570 43.500 C 51.895 43.500,51.667 43.439,51.667 43.260 C 51.667 42.825,51.365 42.740,49.625 42.682 C 49.283 42.671,49.167 42.582,49.167 42.333 C 49.167 42.051,49.056 42.000,48.435 42.000 C 47.793 42.000,47.690 41.949,47.598 41.583 C 47.506 41.216,47.404 41.167,46.747 41.167 C 46.111 41.167,46.000 41.117,46.000 40.833 C 46.000 40.650,45.925 40.491,45.833 40.479 C 45.742 40.468,45.592 40.440,45.500 40.417 C 45.408 40.394,44.958 40.366,44.500 40.354 C 43.802 40.337,43.667 40.282,43.667 40.019 C 43.667 39.687,43.244 39.506,42.458 39.502 C 42.112 39.501,42.000 39.419,42.000 39.167 C 42.000 38.849,41.940 38.805,41.458 38.767 C 41.344 38.757,41.210 38.600,41.160 38.417 C 41.092 38.164,40.904 38.071,40.384 38.033 C 39.816 37.991,39.681 37.913,39.596 37.575 C 39.506 37.218,39.400 37.167,38.747 37.167 C 38.061 37.167,38.000 37.132,38.000 36.750 C 38.000 36.361,37.944 36.333,37.167 36.333 C 36.454 36.333,36.333 36.287,36.333 36.011 C 36.333 35.834,36.191 35.644,36.018 35.589 C 35.845 35.534,35.664 35.341,35.617 35.161 C 35.568 34.974,35.389 34.833,35.200 34.833 C 34.986 34.833,34.833 34.686,34.765 34.417 C 34.673 34.050,34.571 34.000,33.913 34.000 C 33.228 34.000,33.167 33.966,33.167 33.583 C 33.167 33.250,33.083 33.167,32.750 33.167 C 32.417 33.167,32.333 33.083,32.333 32.750 C 32.333 32.417,32.250 32.333,31.917 32.333 C 31.611 32.333,31.500 32.244,31.500 32.000 C 31.500 31.813,31.389 31.667,31.246 31.667 C 31.107 31.667,30.907 31.479,30.803 31.250 C 30.643 30.899,30.500 30.833,29.890 30.833 C 29.230 30.833,29.167 30.797,29.167 30.417 C 29.167 30.083,29.083 30.000,28.750 30.000 C 28.417 30.000,28.333 29.917,28.333 29.583 C 28.333 29.286,28.243 29.167,28.019 29.167 C 27.774 29.167,27.680 29.001,27.592 28.417 C 27.505 27.835,27.409 27.667,27.168 27.667 C 26.972 27.667,26.837 27.528,26.803 27.292 C 26.769 27.051,26.616 26.898,26.375 26.863 C 26.104 26.825,26.000 26.698,26.000 26.405 C 26.000 26.084,25.913 26.000,25.583 26.000 C 25.176 26.000,25.167 25.972,25.167 24.750 C 25.167 23.528,25.176 23.500,25.583 23.500 C 25.917 23.500,26.000 23.417,26.000 23.083 C 26.000 22.786,26.090 22.667,26.316 22.667 C 26.673 22.667,26.833 22.356,26.833 21.665 C 26.833 21.299,26.920 21.178,27.208 21.137 C 27.449 21.102,27.602 20.949,27.637 20.708 C 27.671 20.467,27.805 20.333,28.012 20.333 C 28.244 20.333,28.333 20.217,28.333 19.917 C 28.333 19.609,28.422 19.500,28.671 19.500 C 28.872 19.500,29.069 19.341,29.158 19.106 C 29.240 18.889,29.464 18.672,29.654 18.622 C 29.844 18.572,30.000 18.420,30.000 18.285 C 30.000 18.150,30.156 17.998,30.346 17.948 C 30.536 17.899,30.732 17.703,30.782 17.512 C 30.833 17.318,31.009 17.167,31.183 17.167 C 31.375 17.167,31.533 17.008,31.598 16.750 C 31.664 16.489,31.821 16.333,32.018 16.333 C 32.243 16.333,32.333 16.214,32.333 15.917 C 32.333 15.583,32.417 15.500,32.750 15.500 C 33.052 15.500,33.167 15.411,33.167 15.176 C 33.167 14.907,33.303 14.843,33.958 14.801 C 34.634 14.757,34.758 14.695,34.803 14.375 C 34.849 14.051,34.956 14.000,35.595 14.000 C 36.271 14.000,36.333 13.965,36.333 13.583 C 36.333 13.194,36.389 13.167,37.167 13.167 C 37.944 13.167,38.000 13.139,38.000 12.750 C 38.000 12.345,38.033 12.333,39.167 12.333 C 40.300 12.333,40.333 12.321,40.333 11.917 L 40.333 11.500 42.000 11.500 C 43.562 11.500,43.667 11.479,43.667 11.163 C 43.667 10.836,43.752 10.827,46.458 10.871 C 49.010 10.913,49.246 10.942,49.201 11.208 C 49.157 11.470,49.324 11.500,50.826 11.500 L 52.500 11.500 52.500 11.917 C 52.500 12.321,52.533 12.333,53.667 12.333 C 54.800 12.333,54.833 12.345,54.833 12.750 C 54.833 13.138,54.890 13.167,55.649 13.167 C 56.379 13.167,56.475 13.210,56.568 13.583 C 56.658 13.940,56.768 14.000,57.337 14.000 C 57.876 14.000,58.000 14.059,58.000 14.316 C 58.000 14.686,58.312 14.833,59.097 14.833 C 59.556 14.833,59.667 14.898,59.667 15.167 C 59.667 15.383,59.778 15.500,59.982 15.500 C 60.179 15.500,60.336 15.656,60.402 15.917 C 60.463 16.162,60.626 16.333,60.797 16.333 C 60.957 16.333,61.162 16.502,61.252 16.708 C 61.379 16.998,61.578 17.095,62.125 17.135 L 62.833 17.186 62.833 17.926 C 62.833 18.605,62.868 18.667,63.250 18.667 C 63.630 18.667,63.698 18.770,63.657 19.292 C 63.651 19.360,63.820 19.457,64.032 19.507 C 64.265 19.561,64.438 19.742,64.470 19.965 C 64.504 20.198,64.640 20.333,64.842 20.333 C 65.043 20.333,65.199 20.487,65.265 20.750 C 65.330 21.011,65.487 21.167,65.685 21.167 C 65.911 21.167,66.007 21.295,66.025 21.625 C 66.039 21.877,66.058 22.196,66.067 22.333 C 66.076 22.471,66.252 22.607,66.458 22.637 C 66.730 22.675,66.833 22.802,66.833 23.095 C 66.833 23.416,66.920 23.500,67.250 23.500 C 67.639 23.500,67.667 23.556,67.667 24.333 C 67.667 25.059,67.710 25.167,68.004 25.167 C 68.213 25.167,68.403 25.329,68.504 25.593 C 68.644 25.962,68.751 26.013,69.291 25.968 L 69.917 25.917 69.965 24.812 C 70.012 23.749,69.998 23.702,69.590 23.600 C 69.215 23.506,69.167 23.408,69.167 22.747 C 69.167 22.061,69.132 22.000,68.750 22.000 C 68.362 22.000,68.333 21.943,68.333 21.185 C 68.333 20.512,68.283 20.374,68.042 20.394 C 67.846 20.409,67.735 20.279,67.703 20.000 C 67.599 19.069,67.490 18.833,67.163 18.833 C 66.922 18.833,66.833 18.721,66.833 18.417 C 66.833 18.083,66.750 18.000,66.417 18.000 C 66.083 18.000,66.000 17.917,66.000 17.583 C 66.000 17.250,65.917 17.167,65.583 17.167 C 65.201 17.167,65.167 17.106,65.167 16.417 C 65.167 15.728,65.133 15.667,64.750 15.667 C 64.417 15.667,64.333 15.583,64.333 15.250 C 64.333 15.021,64.277 14.842,64.208 14.853 C 63.772 14.922,63.516 14.786,63.470 14.458 C 63.426 14.147,63.297 14.075,62.708 14.032 C 62.082 13.987,62.000 13.934,62.000 13.574 C 62.000 13.251,61.914 13.167,61.583 13.167 C 61.279 13.167,61.167 13.078,61.167 12.837 C 61.167 12.623,61.019 12.469,60.750 12.402 C 60.489 12.336,60.333 12.179,60.333 11.982 C 60.333 11.719,60.208 11.667,59.583 11.667 C 58.894 11.667,58.833 11.633,58.833 11.250 C 58.833 10.862,58.777 10.833,58.012 10.833 C 57.286 10.833,57.184 10.789,57.137 10.458 C 57.092 10.147,56.964 10.075,56.376 10.032 C 55.785 9.989,55.651 9.914,55.566 9.574 C 55.470 9.192,55.394 9.167,54.327 9.167 C 53.275 9.167,53.186 9.139,53.137 8.792 C 53.080 8.396,52.992 8.384,49.875 8.343 C 49.281 8.335,49.167 8.280,49.167 8.000 C 49.167 7.478,41.416 7.478,41.250 8.000 C 41.131 8.373,41.297 8.356,37.917 8.350 C 30.216 8.335,30.833 8.366,30.833 8.000 C 30.833 7.680,30.722 7.667,28.000 7.667 L 25.167 7.667 25.167 7.250 L 25.167 6.833 19.708 6.828 C 15.919 6.825,14.339 6.771,14.542 6.653 C 14.702 6.560,14.833 6.383,14.833 6.261 C 14.833 6.139,14.983 6.000,15.167 5.952 C 15.366 5.900,15.500 5.724,15.500 5.516 C 15.500 5.255,15.605 5.167,15.917 5.167 C 16.250 5.167,16.333 5.083,16.333 4.750 C 16.333 4.366,16.393 4.333,17.099 4.333 C 17.718 4.333,17.881 4.271,17.950 4.008 C 18.016 3.755,18.206 3.672,18.809 3.633 C 19.467 3.591,19.591 3.527,19.637 3.208 L 19.690 2.833 25.250 2.833 L 30.810 2.833 30.863 3.208 M18.874 10.417 C 18.800 10.804,18.248 10.975,17.461 10.854 C 17.394 10.844,17.292 11.022,17.235 11.251 C 17.174 11.494,17.011 11.667,16.842 11.667 C 16.683 11.667,16.468 11.855,16.363 12.084 C 16.259 12.314,16.080 12.483,15.965 12.459 C 15.851 12.436,15.733 12.581,15.702 12.781 C 15.667 13.007,15.507 13.166,15.281 13.198 C 14.974 13.242,14.909 13.373,14.866 14.031 C 14.824 14.690,14.759 14.821,14.450 14.865 C 14.095 14.915,14.082 14.989,14.037 17.274 L 13.991 19.631 13.579 19.607 C 13.181 19.584,13.167 19.543,13.167 18.375 C 13.167 17.197,13.156 17.167,12.750 17.167 L 12.333 17.167 12.333 14.006 L 12.333 10.846 13.875 10.798 C 15.291 10.754,15.430 10.719,15.581 10.375 C 15.735 10.023,15.846 10.000,17.350 10.000 L 18.954 10.000 18.874 10.417 M31.767 11.268 C 31.589 11.652,31.524 11.664,29.625 11.665 C 27.778 11.667,27.667 11.686,27.667 12.000 C 27.667 12.332,27.375 12.386,25.623 12.378 C 25.454 12.377,25.288 12.541,25.232 12.763 C 25.153 13.077,25.007 13.158,24.442 13.200 C 23.870 13.241,23.741 13.315,23.697 13.625 C 23.658 13.896,23.532 14.000,23.238 14.000 C 22.917 14.000,22.833 14.087,22.833 14.417 C 22.833 14.750,22.750 14.833,22.417 14.833 C 22.085 14.833,22.000 14.917,22.000 15.245 C 22.000 15.504,21.923 15.628,21.792 15.580 C 21.500 15.473,21.217 15.690,21.138 16.083 C 21.099 16.274,20.948 16.407,20.785 16.394 C 20.628 16.381,20.490 16.456,20.477 16.560 C 20.464 16.665,20.437 16.938,20.416 17.167 C 20.396 17.396,20.369 17.677,20.356 17.792 C 20.344 17.906,20.229 18.000,20.101 18.000 C 19.724 18.000,19.667 18.397,19.667 21.014 C 19.667 23.389,19.682 23.500,20.000 23.500 C 20.362 23.500,20.525 25.143,20.167 25.188 C 19.056 25.326,18.854 25.206,18.801 24.375 C 18.770 23.895,18.668 23.575,18.542 23.563 C 18.427 23.551,18.258 23.532,18.167 23.521 C 18.073 23.509,18.000 22.986,18.000 22.333 C 18.000 21.200,17.988 21.167,17.583 21.167 C 16.961 21.167,16.921 18.058,17.542 17.970 C 17.861 17.925,17.924 17.800,17.967 17.135 C 18.010 16.477,18.075 16.346,18.384 16.302 C 18.684 16.259,18.759 16.125,18.801 15.552 C 18.842 14.979,18.917 14.845,19.217 14.802 C 19.446 14.770,19.603 14.613,19.635 14.384 C 19.678 14.084,19.813 14.009,20.385 13.967 C 20.964 13.925,21.092 13.852,21.137 13.542 C 21.183 13.217,21.290 13.167,21.925 13.167 C 22.570 13.167,22.673 13.116,22.765 12.750 C 22.857 12.385,22.960 12.333,23.601 12.333 C 24.271 12.333,24.333 12.298,24.333 11.917 L 24.333 11.500 26.333 11.500 C 28.238 11.500,28.333 11.484,28.333 11.159 C 28.333 10.834,28.422 10.819,30.142 10.844 L 31.951 10.871 31.767 11.268 M392.434 14.265 C 392.378 14.411,392.374 14.598,392.426 14.682 C 392.499 14.800,389.226 14.948,388.625 14.853 C 388.556 14.842,388.500 15.005,388.500 15.214 C 388.500 15.460,388.397 15.601,388.208 15.610 C 387.028 15.670,386.833 15.741,386.833 16.109 C 386.833 16.391,386.753 16.465,386.501 16.417 C 386.262 16.371,386.140 16.464,386.070 16.745 C 386.011 16.978,385.805 17.180,385.563 17.240 C 385.303 17.305,385.172 17.443,385.202 17.619 C 385.230 17.778,385.109 17.934,384.917 17.989 C 384.733 18.041,384.564 18.180,384.540 18.297 C 384.426 18.858,384.357 19.268,384.346 19.458 C 384.339 19.573,384.183 19.667,384.000 19.667 C 383.817 19.667,383.676 19.723,383.686 19.792 C 383.697 19.860,383.697 21.283,383.686 22.954 L 383.667 25.991 381.292 26.037 L 378.917 26.083 378.833 28.834 C 378.754 31.445,378.733 31.584,378.417 31.584 C 378.123 31.585,378.073 31.446,378.000 30.417 C 377.925 29.372,377.878 29.245,377.550 29.198 C 377.241 29.154,377.176 29.023,377.134 28.365 C 377.089 27.666,377.043 27.588,376.708 27.623 C 376.409 27.655,376.333 27.579,376.333 27.248 C 376.333 26.868,376.271 26.833,375.583 26.833 C 374.894 26.833,374.833 26.799,374.833 26.417 C 374.833 26.009,374.806 26.000,373.583 26.000 C 372.355 26.000,372.333 25.993,372.333 25.576 L 372.333 25.152 368.499 25.176 L 364.665 25.200 364.564 25.600 C 364.475 25.954,364.370 26.000,363.649 26.000 C 362.890 26.000,362.833 26.029,362.833 26.417 C 362.833 26.824,362.806 26.833,361.583 26.833 C 360.361 26.833,360.333 26.824,360.333 26.417 L 360.333 26.000 355.164 26.000 L 349.995 26.000 350.039 40.292 L 350.083 54.583 355.208 54.627 C 360.189 54.670,360.333 54.662,360.333 54.347 C 360.333 54.138,360.466 54.004,360.708 53.970 L 361.083 53.917 361.126 45.125 L 361.170 36.333 361.585 36.333 C 361.917 36.333,362.000 36.250,362.000 35.917 C 362.000 35.612,362.089 35.500,362.330 35.500 C 362.543 35.500,362.697 35.352,362.765 35.083 C 362.857 34.718,362.960 34.667,363.601 34.667 C 364.222 34.667,364.333 34.616,364.333 34.333 C 364.333 34.044,364.444 34.000,365.167 34.000 C 365.889 34.000,366.000 34.044,366.000 34.333 C 366.000 34.575,366.111 34.667,366.405 34.667 C 366.698 34.667,366.825 34.770,366.863 35.042 C 366.898 35.283,367.051 35.436,367.292 35.470 L 367.667 35.523 367.667 44.682 L 367.667 53.842 368.085 54.000 C 368.314 54.088,368.483 54.255,368.460 54.371 C 368.397 54.681,378.499 54.769,378.694 54.461 C 378.768 54.345,378.829 49.844,378.831 44.458 L 378.833 34.667 380.822 34.667 C 382.757 34.667,382.812 34.677,382.863 35.042 C 382.898 35.283,383.051 35.436,383.292 35.470 L 383.667 35.523 383.667 45.095 L 383.667 54.667 388.833 54.667 L 394.000 54.667 394.000 44.667 L 394.000 34.667 396.417 34.667 L 398.833 34.667 398.833 30.333 L 398.833 26.000 396.417 26.000 L 394.000 26.000 394.000 25.595 C 394.000 25.302,394.104 25.175,394.375 25.137 C 394.616 25.102,394.769 24.949,394.803 24.708 C 394.837 24.473,394.972 24.333,395.167 24.333 C 395.361 24.333,395.497 24.194,395.530 23.958 C 395.582 23.594,395.645 23.582,397.792 23.537 L 400.000 23.490 400.000 19.162 L 400.000 14.833 399.417 14.833 C 398.906 14.833,398.833 14.782,398.833 14.417 L 398.833 14.000 395.684 14.000 C 392.960 14.000,392.522 14.036,392.434 14.265 M7.259 16.333 C 7.665 16.333,7.667 16.339,7.667 18.070 C 7.667 19.944,7.741 20.333,8.101 20.333 C 8.229 20.333,8.344 20.427,8.356 20.542 C 8.369 20.656,8.396 20.938,8.416 21.167 C 8.437 21.396,8.464 21.677,8.477 21.792 C 8.490 21.906,8.650 22.000,8.833 22.000 C 9.091 22.000,9.167 22.111,9.167 22.486 C 9.167 23.185,9.325 23.500,9.675 23.500 C 9.923 23.500,9.992 23.653,10.033 24.292 C 10.075 24.961,10.140 25.091,10.450 25.135 C 10.759 25.179,10.824 25.310,10.866 25.969 C 10.909 26.634,10.973 26.758,11.292 26.803 C 11.580 26.844,11.667 26.966,11.667 27.331 C 11.667 27.975,11.822 28.333,12.101 28.333 C 12.229 28.333,12.343 28.408,12.354 28.500 C 12.366 28.592,12.384 28.760,12.396 28.875 C 12.407 28.990,12.585 29.107,12.792 29.137 C 13.042 29.172,13.173 29.311,13.186 29.553 C 13.196 29.753,13.223 29.992,13.244 30.083 C 13.265 30.175,13.294 30.344,13.308 30.458 C 13.322 30.573,13.478 30.667,13.655 30.667 C 13.862 30.667,13.996 30.801,14.030 31.042 C 14.064 31.283,14.217 31.436,14.458 31.470 C 14.730 31.508,14.833 31.635,14.833 31.928 C 14.833 32.249,14.920 32.333,15.250 32.333 C 15.633 32.333,15.667 32.394,15.667 33.083 C 15.667 33.644,15.731 33.833,15.920 33.833 C 16.060 33.833,16.259 34.021,16.364 34.250 C 16.468 34.479,16.683 34.667,16.842 34.667 C 17.148 34.667,17.398 35.094,17.241 35.348 C 17.189 35.432,17.336 35.500,17.566 35.500 C 17.971 35.500,17.987 35.542,18.034 36.708 C 18.079 37.817,18.114 37.921,18.458 37.970 C 18.747 38.011,18.833 38.132,18.833 38.500 C 18.833 38.938,18.797 38.967,18.375 38.855 C 18.123 38.788,17.748 38.746,17.542 38.761 C 17.251 38.782,17.167 38.699,17.167 38.394 C 17.167 38.085,17.077 38.000,16.750 38.000 C 16.417 38.000,16.333 37.917,16.333 37.583 C 16.333 37.283,16.244 37.167,16.012 37.167 C 15.805 37.167,15.671 37.033,15.637 36.792 C 15.603 36.554,15.449 36.398,15.219 36.365 C 14.991 36.332,14.834 36.175,14.802 35.948 C 14.773 35.747,14.656 35.574,14.542 35.563 C 14.427 35.551,14.258 35.532,14.167 35.521 C 14.075 35.509,14.000 35.350,14.000 35.167 C 14.000 34.922,13.889 34.833,13.583 34.833 C 13.250 34.833,13.167 34.750,13.167 34.417 C 13.167 34.083,13.083 34.000,12.750 34.000 C 12.417 34.000,12.333 33.917,12.333 33.583 C 12.333 33.286,12.243 33.167,12.018 33.167 C 11.821 33.167,11.664 33.011,11.598 32.750 C 11.532 32.487,11.376 32.333,11.175 32.333 C 10.972 32.333,10.837 32.198,10.803 31.958 C 10.765 31.689,10.645 31.589,10.375 31.603 C 10.086 31.619,10.000 31.533,10.000 31.228 C 10.000 30.920,9.910 30.833,9.592 30.833 C 9.225 30.833,9.180 30.756,9.134 30.042 C 9.092 29.378,9.029 29.250,8.750 29.250 C 8.510 29.250,8.402 29.121,8.364 28.792 C 8.327 28.474,8.216 28.333,8.001 28.333 C 7.805 28.333,7.670 28.194,7.637 27.958 C 7.602 27.717,7.449 27.564,7.208 27.530 C 6.884 27.484,6.833 27.377,6.833 26.738 C 6.833 26.066,6.797 26.000,6.426 26.000 C 6.058 26.000,6.013 25.923,5.967 25.208 C 5.924 24.533,5.862 24.409,5.542 24.363 C 5.194 24.314,5.167 24.226,5.167 23.155 C 5.167 22.034,5.154 22.000,4.750 22.000 L 4.333 22.000 4.333 20.018 C 4.333 18.043,4.335 18.036,4.750 17.932 C 5.145 17.833,5.167 17.766,5.167 16.663 C 5.167 15.534,5.179 15.500,5.583 15.500 C 5.884 15.500,6.000 15.410,6.000 15.178 C 6.000 14.368,6.747 14.707,6.800 15.542 C 6.846 16.257,6.890 16.333,7.259 16.333 M25.268 16.597 C 25.212 16.742,25.167 16.921,25.167 16.994 C 25.167 17.068,24.979 17.164,24.750 17.207 C 24.384 17.277,24.333 17.229,24.333 16.810 C 24.333 16.388,24.392 16.333,24.851 16.333 C 25.255 16.333,25.347 16.391,25.268 16.597 M306.208 17.275 C 306.094 17.323,306.000 17.505,306.000 17.681 C 306.000 17.978,305.860 18.000,304.000 18.000 L 302.000 18.000 302.000 18.417 C 302.000 18.821,301.966 18.833,300.845 18.833 C 299.774 18.833,299.686 18.861,299.637 19.208 C 299.602 19.455,299.469 19.583,299.250 19.583 C 298.563 19.581,298.522 20.507,298.511 36.347 C 298.499 52.391,298.534 53.167,299.261 53.167 C 299.531 53.167,299.659 53.277,299.697 53.542 C 299.745 53.882,299.853 53.921,300.857 53.966 C 301.794 54.007,301.978 54.065,302.050 54.341 C 302.130 54.645,302.293 54.667,304.484 54.667 L 306.833 54.667 306.833 55.083 L 306.833 55.500 310.000 55.500 L 313.167 55.500 313.167 55.083 L 313.167 54.667 315.583 54.667 L 318.000 54.667 318.013 50.875 C 318.020 48.790,318.064 47.177,318.110 47.292 C 318.157 47.406,318.334 47.500,318.505 47.500 C 318.757 47.500,318.825 47.649,318.866 48.292 C 318.909 48.967,318.972 49.091,319.292 49.137 C 319.608 49.182,319.667 49.292,319.667 49.849 C 319.667 50.402,319.735 50.534,320.091 50.670 C 320.361 50.772,320.497 50.937,320.466 51.124 C 320.433 51.317,320.539 51.434,320.776 51.468 C 320.995 51.499,321.175 51.678,321.238 51.926 C 321.303 52.187,321.459 52.333,321.670 52.333 C 321.883 52.333,322.000 52.445,322.000 52.649 C 322.000 53.018,322.311 53.167,323.085 53.167 C 323.537 53.167,323.654 53.238,323.697 53.542 C 323.741 53.852,323.880 53.931,324.500 54.000 C 325.019 54.058,325.250 54.160,325.250 54.333 C 325.250 54.542,325.646 54.591,327.625 54.630 L 330.000 54.676 330.000 55.088 L 330.000 55.500 333.167 55.500 L 336.333 55.500 336.333 55.083 L 336.333 54.667 338.333 54.667 C 340.222 54.667,340.333 54.648,340.333 54.333 C 340.333 54.057,340.444 54.000,340.979 54.000 C 342.015 54.000,342.649 53.818,342.753 53.491 C 342.806 53.324,343.014 53.164,343.216 53.136 C 343.449 53.102,343.603 52.947,343.637 52.708 C 343.671 52.467,343.805 52.333,344.012 52.333 C 344.244 52.333,344.333 52.217,344.333 51.917 C 344.333 51.583,344.417 51.500,344.750 51.500 C 345.083 51.500,345.167 51.417,345.167 51.083 C 345.167 50.750,345.250 50.667,345.583 50.667 C 345.881 50.667,346.000 50.577,346.000 50.351 C 346.000 50.154,346.156 49.997,346.417 49.932 C 346.781 49.840,346.833 49.736,346.833 49.100 C 346.833 48.532,346.901 48.354,347.141 48.292 C 347.504 48.197,347.667 47.536,347.667 46.165 C 347.667 45.343,347.715 45.193,348.003 45.118 C 348.455 44.999,348.452 35.583,348.000 35.583 C 347.804 35.583,347.741 35.315,347.708 34.333 C 347.651 32.656,347.563 32.333,347.163 32.333 C 346.883 32.333,346.833 32.220,346.833 31.583 C 346.833 30.899,346.798 30.833,346.426 30.833 C 346.058 30.833,346.013 30.756,345.967 30.042 C 345.925 29.378,345.863 29.250,345.583 29.250 C 345.365 29.250,345.232 29.121,345.197 28.875 C 345.164 28.641,344.991 28.462,344.738 28.399 C 344.488 28.336,344.333 28.177,344.333 27.982 C 344.333 27.774,344.206 27.658,343.958 27.641 C 343.752 27.627,343.508 27.598,343.417 27.577 C 343.325 27.556,343.156 27.530,343.042 27.519 C 342.927 27.509,342.833 27.350,342.833 27.167 C 342.833 26.878,342.722 26.833,342.000 26.833 C 341.222 26.833,341.167 26.806,341.167 26.417 C 341.167 26.001,341.161 26.000,339.583 26.000 C 338.001 26.000,338.000 26.000,338.000 25.579 L 338.000 25.158 332.833 25.171 L 327.667 25.185 327.667 25.592 C 327.667 25.966,325.876 26.217,324.625 26.020 C 324.556 26.009,324.509 26.056,324.520 26.125 C 324.615 26.726,324.486 26.833,323.667 26.833 C 322.960 26.833,322.833 26.881,322.833 27.149 C 322.833 27.346,322.677 27.503,322.417 27.568 C 322.148 27.636,322.000 27.790,322.000 28.003 C 322.000 28.244,321.888 28.333,321.583 28.333 C 321.250 28.333,321.167 28.417,321.167 28.750 C 321.167 29.056,321.078 29.167,320.833 29.167 C 320.650 29.167,320.491 29.242,320.479 29.333 C 320.468 29.425,320.449 29.594,320.438 29.708 C 320.426 29.823,320.248 29.941,320.042 29.970 C 319.776 30.008,319.667 30.136,319.667 30.410 C 319.667 30.684,319.545 30.828,319.250 30.902 C 318.859 31.000,318.833 31.073,318.833 32.087 C 318.833 33.128,318.818 33.167,318.417 33.167 L 318.000 33.167 318.000 35.583 L 318.000 38.000 317.600 38.000 L 317.200 38.000 317.225 40.292 C 317.249 42.533,317.258 42.585,317.625 42.637 C 317.992 42.689,318.000 42.738,318.000 44.822 L 318.000 46.954 317.583 46.874 C 317.187 46.798,317.167 46.738,317.167 45.650 C 317.167 44.350,317.065 44.263,315.653 44.364 C 315.036 44.408,314.908 44.477,314.863 44.792 L 314.810 45.167 311.256 45.167 L 307.703 45.167 307.598 44.750 C 307.507 44.387,307.402 44.333,306.786 44.333 C 306.213 44.333,306.048 44.262,305.915 43.958 C 305.824 43.752,305.600 43.573,305.417 43.559 C 305.233 43.546,304.915 43.527,304.708 43.518 C 304.424 43.504,304.333 43.399,304.333 43.083 C 304.333 42.854,304.277 42.676,304.208 42.686 C 303.803 42.750,303.681 42.594,303.635 41.958 C 303.592 41.369,303.520 41.241,303.208 41.197 L 302.833 41.143 302.833 36.738 C 302.833 32.527,302.847 32.333,303.149 32.333 C 303.520 32.333,303.667 32.022,303.667 31.236 C 303.667 30.778,303.732 30.667,304.000 30.667 C 304.221 30.667,304.333 30.556,304.333 30.337 C 304.333 30.123,304.481 29.969,304.750 29.902 C 305.004 29.838,305.167 29.678,305.167 29.494 C 305.167 29.305,305.309 29.170,305.542 29.137 C 305.780 29.103,305.936 28.949,305.969 28.717 C 306.013 28.408,306.143 28.343,306.802 28.300 C 307.467 28.258,307.591 28.194,307.637 27.875 L 307.690 27.500 311.250 27.500 L 314.810 27.500 314.863 27.875 C 314.909 28.193,315.019 28.250,315.583 28.250 C 316.148 28.250,316.258 28.193,316.303 27.875 C 316.342 27.604,316.468 27.500,316.762 27.500 C 317.162 27.500,317.167 27.482,317.167 25.917 C 317.167 24.335,317.167 24.333,317.587 24.333 L 318.007 24.333 317.962 21.208 L 317.917 18.083 315.969 18.036 C 314.101 17.992,314.020 17.975,313.969 17.620 C 313.918 17.262,306.989 16.954,306.208 17.275 M80.802 33.887 C 81.001 33.940,80.974 33.967,80.708 33.981 C 80.401 33.997,80.337 33.918,80.356 33.542 C 80.375 33.164,80.391 33.148,80.450 33.448 C 80.489 33.649,80.647 33.846,80.802 33.887 M334.048 34.333 C 334.120 34.606,334.276 34.667,334.901 34.667 C 335.607 34.667,335.667 34.699,335.667 35.083 C 335.667 35.389,335.756 35.500,336.000 35.500 C 336.198 35.500,336.343 35.619,336.356 35.792 C 336.369 35.952,336.396 36.271,336.416 36.500 C 336.437 36.729,336.464 37.123,336.477 37.375 C 336.494 37.715,336.586 37.833,336.833 37.833 C 337.151 37.833,337.167 37.944,337.167 40.266 C 337.167 42.558,337.147 42.703,336.833 42.785 C 336.650 42.833,336.489 42.995,336.475 43.144 C 336.462 43.294,336.435 43.529,336.417 43.667 C 336.398 43.804,336.372 44.051,336.358 44.216 C 336.343 44.401,336.223 44.496,336.042 44.466 C 335.849 44.433,335.732 44.540,335.698 44.781 C 335.666 45.009,335.509 45.166,335.281 45.198 C 335.051 45.231,334.897 45.388,334.863 45.625 C 334.812 45.990,334.756 46.000,332.833 46.000 C 330.910 46.000,330.855 45.990,330.803 45.625 C 330.769 45.384,330.616 45.231,330.375 45.197 C 330.104 45.158,330.000 45.032,330.000 44.738 C 330.000 44.417,329.913 44.333,329.583 44.333 C 329.179 44.333,329.167 44.300,329.167 43.167 C 329.167 42.033,329.155 42.000,328.750 42.000 L 328.333 42.000 328.333 40.333 L 328.333 38.667 328.750 38.667 C 329.154 38.667,329.167 38.633,329.167 37.512 C 329.167 36.441,329.194 36.353,329.542 36.303 C 329.783 36.269,329.936 36.116,329.970 35.875 C 330.004 35.635,330.138 35.500,330.342 35.500 C 330.543 35.500,330.699 35.346,330.765 35.083 C 330.840 34.784,330.982 34.667,331.268 34.667 C 331.556 34.667,331.667 34.574,331.667 34.333 C 331.667 34.032,331.778 34.000,332.814 34.000 C 333.821 34.000,333.972 34.041,334.048 34.333 M86.097 34.667 C 86.771 34.667,86.833 34.702,86.833 35.083 C 86.833 35.417,86.917 35.500,87.250 35.500 C 87.583 35.500,87.667 35.583,87.667 35.917 C 87.667 36.299,87.728 36.333,88.417 36.333 C 89.106 36.333,89.167 36.367,89.167 36.750 C 89.167 37.080,89.251 37.167,89.572 37.167 C 89.865 37.167,89.992 37.270,90.030 37.542 C 90.064 37.783,90.217 37.936,90.458 37.970 C 90.699 38.004,90.833 38.138,90.833 38.345 C 90.833 38.577,90.949 38.667,91.250 38.667 C 91.580 38.667,91.667 38.751,91.667 39.072 C 91.667 39.365,91.770 39.492,92.042 39.530 C 92.287 39.565,92.417 39.698,92.417 39.915 C 92.417 40.135,92.558 40.275,92.834 40.332 C 93.111 40.388,93.250 40.528,93.250 40.750 C 93.250 40.969,93.379 41.102,93.625 41.137 C 93.899 41.176,94.007 41.310,94.025 41.637 C 94.039 41.882,94.058 42.196,94.067 42.333 C 94.076 42.471,94.252 42.607,94.458 42.637 C 94.730 42.675,94.833 42.802,94.833 43.095 C 94.833 43.416,94.920 43.500,95.250 43.500 C 95.655 43.500,95.667 43.532,95.667 44.682 C 95.667 45.724,95.706 45.875,96.000 45.952 C 96.268 46.022,96.333 46.179,96.333 46.750 C 96.333 47.321,96.268 47.478,96.000 47.548 C 95.729 47.619,95.667 47.776,95.667 48.389 C 95.667 49.045,95.617 49.150,95.292 49.197 C 94.980 49.241,94.908 49.370,94.865 49.958 C 94.823 50.548,94.747 50.682,94.407 50.767 C 94.155 50.831,94.000 50.989,94.000 51.185 C 94.000 51.482,93.585 51.603,92.880 51.514 C 92.768 51.499,92.629 51.674,92.572 51.901 C 92.509 52.155,92.330 52.334,92.109 52.365 C 91.887 52.397,91.730 52.556,91.698 52.783 C 91.654 53.092,91.523 53.157,90.865 53.200 C 90.200 53.242,90.075 53.306,90.030 53.625 C 89.983 53.956,89.880 54.000,89.155 54.000 L 88.333 54.000 88.333 51.583 C 88.333 49.293,88.316 49.167,88.006 49.167 C 87.708 49.167,87.675 49.029,87.631 47.632 C 87.585 46.155,87.568 46.093,87.167 45.982 C 86.785 45.876,86.780 45.865,87.115 45.850 C 87.810 45.818,87.944 39.583,87.250 39.583 C 86.952 39.583,86.912 39.456,86.868 38.375 C 86.821 37.216,86.802 37.167,86.409 37.167 C 86.037 37.167,86.000 37.101,86.000 36.435 C 86.000 35.793,85.949 35.690,85.583 35.598 C 85.229 35.509,85.169 35.401,85.180 34.872 C 85.187 34.530,85.231 34.344,85.277 34.458 C 85.326 34.581,85.664 34.667,86.097 34.667 M80.885 38.698 C 81.122 38.732,81.250 38.867,81.250 39.083 C 81.250 39.302,81.379 39.435,81.625 39.470 C 81.956 39.517,82.000 39.620,82.000 40.345 C 82.000 41.110,82.029 41.167,82.417 41.167 C 82.799 41.167,82.833 41.228,82.833 41.917 C 82.833 42.606,82.867 42.667,83.250 42.667 C 83.583 42.667,83.667 42.750,83.667 43.083 C 83.667 43.462,83.447 43.595,83.043 43.458 C 82.975 43.435,82.881 43.642,82.833 43.916 C 82.771 44.275,82.653 44.416,82.415 44.416 C 82.080 44.417,82.054 44.484,82.019 45.458 C 82.000 45.986,81.981 46.000,81.250 46.000 C 80.556 46.000,80.500 46.032,80.500 46.427 C 80.500 46.774,80.430 46.845,80.125 46.802 C 79.845 46.763,79.737 46.843,79.698 47.116 C 79.654 47.425,79.523 47.490,78.865 47.533 C 78.205 47.576,78.075 47.640,78.031 47.951 C 77.984 48.282,77.869 48.323,76.864 48.368 C 75.853 48.412,75.745 48.451,75.697 48.792 C 75.609 49.408,73.167 49.368,73.167 48.750 C 73.167 48.417,73.250 48.333,73.583 48.333 C 73.913 48.333,74.000 48.249,74.000 47.928 C 74.000 47.635,74.104 47.508,74.375 47.470 C 74.616 47.436,74.769 47.283,74.803 47.042 C 74.849 46.717,74.956 46.667,75.595 46.667 C 76.222 46.667,76.333 46.617,76.333 46.333 C 76.333 46.089,76.444 46.000,76.750 46.000 C 77.083 46.000,77.167 45.917,77.167 45.583 C 77.167 45.229,77.244 45.167,77.678 45.167 C 78.533 45.167,78.833 44.906,78.833 44.161 C 78.833 43.567,78.876 43.500,79.250 43.500 C 79.583 43.500,79.667 43.417,79.667 43.083 C 79.667 42.778,79.756 42.667,80.000 42.667 C 80.318 42.667,80.335 42.547,80.360 40.125 C 80.375 38.727,80.417 37.822,80.453 38.115 C 80.502 38.509,80.614 38.659,80.885 38.698 M77.199 39.973 C 77.150 41.893,77.132 41.982,76.782 42.031 C 76.581 42.060,76.417 42.180,76.417 42.298 C 76.417 42.507,76.043 42.826,75.792 42.831 C 75.723 42.832,75.667 42.646,75.667 42.417 C 75.667 42.111,75.756 42.000,76.000 42.000 C 76.315 42.000,76.333 41.889,76.333 40.012 C 76.333 37.992,76.470 37.650,77.167 37.933 C 77.212 37.952,77.227 38.870,77.199 39.973 M24.417 42.333 C 24.367 42.593,24.442 42.667,24.760 42.667 C 25.131 42.667,25.263 42.887,25.186 43.375 C 25.176 43.444,25.345 43.500,25.564 43.500 C 25.855 43.500,25.982 43.611,26.041 43.917 C 26.110 44.281,26.062 44.333,25.655 44.333 C 25.300 44.333,25.177 44.245,25.137 43.958 C 25.103 43.721,24.949 43.564,24.719 43.531 C 24.491 43.499,24.334 43.342,24.302 43.115 C 24.269 42.887,24.141 42.759,23.958 42.773 C 23.755 42.789,23.667 42.675,23.667 42.398 C 23.667 42.087,23.756 42.000,24.074 42.000 C 24.391 42.000,24.467 42.073,24.417 42.333 M43.644 47.125 C 43.625 47.502,43.609 47.519,43.550 47.219 C 43.509 47.008,43.325 46.824,43.115 46.783 C 42.814 46.725,42.831 46.708,43.208 46.689 C 43.608 46.670,43.664 46.726,43.644 47.125 M46.000 47.917 C 46.000 48.245,45.915 48.333,45.603 48.333 C 45.311 48.333,45.184 48.222,45.126 47.917 C 45.056 47.551,45.104 47.500,45.523 47.500 C 45.921 47.500,46.000 47.569,46.000 47.917 M56.500 47.653 C 56.500 47.737,56.546 47.925,56.601 48.070 C 56.657 48.215,56.619 48.333,56.518 48.333 C 56.416 48.333,56.333 48.190,56.333 48.014 C 56.333 47.838,56.240 47.657,56.125 47.610 C 56.001 47.560,56.034 47.521,56.208 47.513 C 56.369 47.506,56.500 47.569,56.500 47.653 M47.667 48.654 C 47.667 48.831,47.798 49.010,47.958 49.052 C 48.119 49.094,47.940 49.137,47.561 49.147 C 46.952 49.164,46.863 49.119,46.793 48.750 C 46.723 48.384,46.771 48.333,47.190 48.333 C 47.550 48.333,47.667 48.412,47.667 48.654 M67.667 48.750 C 67.667 49.083,67.583 49.167,67.250 49.167 C 66.917 49.167,66.833 49.250,66.833 49.583 C 66.833 49.917,66.750 50.000,66.417 50.000 C 66.083 50.000,66.000 49.917,66.000 49.583 L 66.000 49.167 62.853 49.167 L 59.706 49.167 59.626 48.750 L 59.546 48.333 63.606 48.333 L 67.667 48.333 67.667 48.750 M50.000 49.333 C 50.000 49.425,49.994 49.548,49.986 49.606 C 49.978 49.665,50.072 49.776,50.194 49.854 C 50.339 49.946,50.207 49.996,49.811 49.997 C 49.297 50.000,49.194 49.937,49.126 49.583 C 49.056 49.217,49.104 49.167,49.523 49.167 C 49.785 49.167,50.000 49.242,50.000 49.333 M85.175 49.375 C 85.206 50.190,85.140 54.582,85.096 54.626 C 85.066 54.656,84.601 54.709,84.063 54.744 C 83.524 54.779,83.027 54.813,82.958 54.820 C 82.890 54.827,82.833 54.983,82.833 55.167 C 82.833 55.493,82.722 55.500,77.595 55.500 L 72.357 55.500 72.303 55.125 C 72.246 54.725,72.276 54.731,70.125 54.686 C 69.094 54.665,68.569 54.000,69.583 54.000 C 69.916 54.000,70.000 53.916,70.000 53.587 L 70.000 53.174 73.125 53.129 C 76.210 53.084,76.251 53.079,76.303 52.714 C 76.353 52.359,76.435 52.342,78.303 52.297 C 80.179 52.252,80.252 52.236,80.303 51.875 C 80.350 51.544,80.453 51.500,81.178 51.500 C 81.944 51.500,82.000 51.471,82.000 51.083 C 82.000 50.702,82.062 50.667,82.739 50.667 C 83.331 50.667,83.498 50.601,83.583 50.333 C 83.642 50.150,83.834 50.000,84.011 50.000 C 84.244 50.000,84.333 49.884,84.333 49.583 C 84.333 49.139,85.158 48.935,85.175 49.375 M42.833 50.394 C 42.833 50.723,42.766 50.774,42.417 50.707 C 42.148 50.656,42.000 50.516,42.000 50.314 C 42.000 50.090,42.120 50.000,42.417 50.000 C 42.743 50.000,42.833 50.085,42.833 50.394 M52.533 50.375 C 52.608 50.767,52.622 50.764,51.042 50.678 C 50.927 50.672,50.833 50.517,50.833 50.333 C 50.833 49.800,52.430 49.839,52.533 50.375 M44.541 51.083 C 44.611 51.449,44.562 51.500,44.144 51.500 C 43.881 51.500,43.667 51.430,43.667 51.345 C 43.667 51.260,43.549 51.073,43.405 50.929 C 43.167 50.690,43.203 50.667,43.802 50.667 C 44.373 50.667,44.472 50.723,44.541 51.083 M55.697 51.125 L 55.764 51.583 54.465 51.529 C 53.335 51.482,53.167 51.435,53.167 51.168 C 53.167 50.999,53.073 50.823,52.958 50.777 C 52.844 50.731,53.398 50.687,54.189 50.680 L 55.629 50.667 55.697 51.125 M30.863 51.875 C 30.909 52.195,31.033 52.257,31.708 52.301 C 32.346 52.342,32.500 52.411,32.500 52.656 C 32.500 53.015,32.940 53.161,34.030 53.164 C 34.711 53.166,34.817 53.214,34.863 53.542 C 34.909 53.862,35.033 53.924,35.708 53.967 C 36.364 54.010,36.500 54.074,36.500 54.342 C 36.500 54.633,36.622 54.667,37.667 54.667 C 38.800 54.667,38.833 54.679,38.833 55.083 C 38.833 55.471,38.890 55.500,39.649 55.500 C 40.379 55.500,40.475 55.543,40.568 55.917 C 40.667 56.307,40.740 56.333,41.753 56.333 C 42.711 56.333,42.833 56.370,42.833 56.656 C 42.833 56.980,43.141 57.069,44.750 57.207 C 45.122 57.239,45.237 57.325,45.201 57.542 C 45.160 57.787,45.285 57.833,45.993 57.833 C 46.778 57.833,46.833 57.861,46.833 58.250 C 46.833 58.638,46.890 58.667,47.649 58.667 C 48.414 58.667,48.463 58.692,48.441 59.083 L 48.417 59.500 46.375 59.500 C 44.444 59.500,44.333 59.482,44.333 59.167 C 44.333 58.970,44.214 58.823,44.042 58.808 C 43.881 58.794,43.600 58.766,43.417 58.746 C 43.233 58.725,42.465 58.699,41.708 58.688 C 40.478 58.669,40.333 58.633,40.333 58.351 C 40.333 58.003,39.674 57.756,39.172 57.915 C 38.951 57.985,38.844 57.899,38.766 57.588 C 38.666 57.188,38.603 57.167,37.497 57.167 C 36.367 57.167,36.333 57.155,36.333 56.750 C 36.333 56.367,36.272 56.333,35.583 56.333 C 34.894 56.333,34.833 56.299,34.833 55.917 C 34.833 55.587,34.749 55.500,34.428 55.500 C 34.135 55.500,34.008 55.396,33.970 55.125 C 33.915 54.736,33.881 54.722,32.917 54.688 C 32.451 54.671,32.333 54.599,32.333 54.333 C 32.333 54.115,32.222 54.000,32.012 54.000 C 31.805 54.000,31.671 53.866,31.637 53.625 C 31.602 53.384,31.449 53.231,31.208 53.197 C 30.937 53.158,30.833 53.032,30.833 52.738 C 30.833 52.417,30.747 52.333,30.417 52.333 C 30.083 52.333,30.000 52.250,30.000 51.917 C 30.000 51.344,30.783 51.306,30.863 51.875 M46.833 51.917 C 46.833 52.306,46.889 52.333,47.667 52.333 C 48.372 52.333,48.500 52.382,48.500 52.647 C 48.500 53.017,48.930 53.161,50.042 53.164 C 50.707 53.166,50.833 53.217,50.833 53.482 C 50.833 53.892,51.146 54.000,52.337 54.000 C 53.224 54.000,53.308 54.031,53.250 54.333 C 53.190 54.642,53.276 54.667,54.415 54.667 C 55.562 54.667,55.647 54.692,55.697 55.042 C 55.747 55.396,55.837 55.419,57.292 55.465 C 58.794 55.511,58.833 55.523,58.833 55.912 C 58.833 56.403,58.630 56.435,55.969 56.365 C 54.109 56.316,54.018 56.297,53.969 55.949 C 53.920 55.607,53.817 55.580,52.386 55.536 C 50.950 55.491,50.852 55.465,50.802 55.119 C 50.767 54.871,50.627 54.743,50.375 54.729 C 50.169 54.718,49.813 54.699,49.583 54.688 C 49.285 54.673,49.167 54.572,49.167 54.333 C 49.167 54.050,49.056 54.000,48.428 54.000 C 47.789 54.000,47.683 53.949,47.637 53.625 C 47.591 53.306,47.467 53.242,46.802 53.200 C 46.143 53.157,46.013 53.092,45.969 52.783 C 45.936 52.551,45.780 52.397,45.542 52.363 C 45.307 52.330,45.167 52.195,45.167 52.002 C 45.167 51.833,45.073 51.657,44.958 51.610 C 44.844 51.564,45.219 51.520,45.792 51.513 C 46.795 51.500,46.833 51.515,46.833 51.917 M59.667 51.917 L 59.667 52.333 61.727 52.333 L 63.787 52.333 63.709 52.741 C 63.660 52.998,63.500 53.167,63.274 53.199 C 63.051 53.231,62.897 53.390,62.863 53.625 C 62.783 54.194,62.000 54.156,62.000 53.583 C 62.000 53.168,61.994 53.167,60.428 53.167 C 58.925 53.167,58.854 53.150,58.803 52.792 C 58.754 52.448,58.650 52.413,57.542 52.368 C 56.489 52.325,56.333 52.278,56.333 52.007 C 56.333 51.835,56.240 51.657,56.125 51.610 C 56.010 51.564,56.760 51.520,57.792 51.513 L 59.667 51.500 59.667 51.917 M66.833 57.496 C 66.833 57.809,66.973 57.828,69.625 57.875 C 72.013 57.918,71.887 57.927,68.750 57.938 C 66.733 57.944,65.290 57.919,65.542 57.881 C 65.860 57.832,66.000 57.713,66.000 57.489 C 66.000 57.256,66.116 57.167,66.417 57.167 C 66.721 57.167,66.833 57.256,66.833 57.496 M81.429 58.929 C 81.285 59.073,81.167 59.260,81.167 59.345 C 81.167 59.430,81.017 59.500,80.833 59.500 C 80.518 59.500,80.428 59.660,80.486 60.118 C 80.503 60.254,80.124 60.334,79.297 60.368 C 78.211 60.412,78.083 60.452,78.083 60.750 C 78.083 61.060,77.944 61.089,76.083 61.167 C 74.297 61.241,74.089 61.281,74.132 61.542 C 74.176 61.803,74.009 61.833,72.507 61.833 C 70.944 61.833,70.833 61.811,70.833 61.500 C 70.833 61.182,70.722 61.167,68.436 61.167 L 66.039 61.167 65.959 60.750 L 65.880 60.333 69.259 60.333 C 73.261 60.333,73.167 60.356,73.167 59.399 L 73.167 58.667 77.429 58.667 C 81.303 58.667,81.667 58.690,81.429 58.929 " stroke="none" fill="#44bc84" fill-rule="evenodd"></path><path id="path2" d="" stroke="none" fill="#d0dc100" fill-rule="evenodd"></path><path id="path3" d="M298.328 20.717 L 297.917 21.583 297.917 36.430 L 297.917 51.277 298.320 52.138 C 298.813 53.190,298.917 53.163,298.587 52.069 C 298.210 50.817,298.209 22.381,298.586 20.935 C 298.911 19.686,298.845 19.630,298.328 20.717 M66.866 57.958 C 67.846 57.987,69.496 57.987,70.532 57.958 C 71.569 57.929,70.767 57.904,68.750 57.904 C 66.733 57.904,65.885 57.928,66.866 57.958 " stroke="none" fill="#70dcc4" fill-rule="evenodd"></path><path id="path4" d="M298.413 36.417 C 298.413 44.575,298.433 47.888,298.458 43.779 C 298.483 39.670,298.483 32.995,298.458 28.946 C 298.433 24.896,298.413 28.258,298.413 36.417 " stroke="none" fill="#74dc84" fill-rule="evenodd"></path></g></svg>