<svg width="389" height="351" viewBox="0 0 389 351" fill="none" xmlns="http://www.w3.org/2000/svg">
<path d="M187.357 164.847C187.357 166.01 187.093 167.911 186.563 170.548C184.665 181.951 180.651 201.8 174.527 230.095C173.159 236.011 171.421 244.879 169.315 256.702C167.419 269.586 165.682 276.023 164.105 276.023C160.626 276.023 148.41 258.086 127.453 222.216C124.574 231.075 120.091 244.206 114.01 261.603C109.366 273.751 104.778 279.823 100.246 279.823C96.3421 279.823 93.4394 274.492 91.5421 263.828C90.3794 256.755 88.1621 242.923 84.8901 222.336C80.8781 196.574 78.8728 178.256 78.8728 167.38C78.8728 163.476 79.8768 161.52 81.8914 161.52C86.8688 161.52 90.4674 168.328 92.6941 181.944C94.7861 197.152 98.3421 220.014 103.366 250.534C106.653 241.347 111.315 227.512 117.357 209.031C120.633 197.736 123.49 192.086 125.921 192.086C127.297 192.086 129.149 194.568 131.475 199.532C132.847 202.807 134.169 206.028 135.438 209.195C138.398 215.956 145.642 228.096 157.171 245.627C161.371 229.26 164.47 215.534 166.466 204.443C167.417 198.32 168.365 192.195 169.315 186.071C170.582 178.891 171.953 172.872 173.43 168.014C175.538 160.836 178.599 157.246 182.609 157.246C185.773 157.246 187.357 159.779 187.357 164.847Z" fill="#4D4D4D"/>
<path d="M271.563 80.411L344.354 97.4847L349.229 116.658L257.703 92.9244L209.946 105.068L205.652 88.1811L253.409 76.0378L322.482 11.4687L327.402 30.8179L271.563 80.411Z" fill="#FFD34A"/>
<path d="M237.93 197.474C234.655 186.933 231.17 176.071 227.475 164.895L216.075 203.73C221.88 202.341 229.164 200.255 237.93 197.474ZM264.23 247.406C264.23 251.841 263.595 254.058 262.33 254.058C256.628 254.058 251.878 248.039 248.078 236.003C246.07 227.558 244.01 219.058 241.899 210.506C235.351 212.302 225.43 214.995 212.126 218.583C209.063 230.935 206.582 239.489 204.683 244.239C199.932 255.747 194.335 261.501 187.896 261.501C186.839 261.501 185.888 261.235 185.043 260.711C185.995 257.013 188.159 250.313 191.539 240.598C194.492 232.151 196.448 225.341 197.398 220.167C196.764 220.485 196.183 220.642 195.656 220.642C194.176 220.642 192.963 220.009 192.012 218.742C191.063 217.474 190.587 216.105 190.587 214.623C190.587 209.029 194.231 206.125 201.515 205.914C203.943 199.159 206.791 189.655 210.067 177.406C213.552 163.894 216.243 154.391 218.144 148.901C219.412 144.782 220.679 141.933 221.946 140.349C223.846 137.711 226.484 136.389 229.862 136.389C230.602 136.389 232.291 139.663 234.932 146.209C254.463 194.987 264.23 228.718 264.23 247.406Z" fill="#4D4D4D"/>
<path d="M371.371 129.456C371.371 130.619 371.106 132.519 370.578 135.158C368.678 146.56 364.664 166.411 358.542 194.704C357.172 200.62 355.434 209.487 353.327 221.311C351.432 234.194 349.696 240.632 348.115 240.632C344.64 240.632 332.423 222.696 311.467 186.827C308.586 195.683 304.106 208.815 298.022 226.214C293.382 238.36 288.791 244.434 284.26 244.434C280.355 244.434 277.456 239.102 275.558 228.439C274.395 221.366 272.176 207.532 268.906 186.946C264.892 161.184 262.888 142.866 262.888 131.99C262.888 128.086 263.892 126.13 265.904 126.13C270.883 126.13 274.486 132.938 276.706 146.552C278.802 161.762 282.359 184.623 287.379 215.14C290.667 205.956 295.328 192.122 301.37 173.642C304.647 162.346 307.504 156.696 309.936 156.696C311.311 156.696 313.16 159.178 315.486 164.142C316.862 167.415 318.182 170.638 319.452 173.804C322.412 180.566 329.658 192.707 341.183 210.238C345.386 193.871 348.48 180.142 350.479 169.051C351.431 162.93 352.379 156.804 353.327 150.68C354.594 143.499 355.964 137.48 357.444 132.623C359.551 125.444 362.614 121.855 366.622 121.855C369.787 121.855 371.371 124.39 371.371 129.456Z" fill="#4D4D4D"/>
<path d="M21.2018 162.827C70.6685 150.465 120.472 137.119 168.207 119.114C179.1 115.005 226.28 100.098 212.262 79.9008C205.507 70.1688 190.566 69.6502 179.966 68.8248C156.275 66.9795 131.808 67.6088 108.244 70.4302C69.6965 75.0448 26.1565 88.7981 8.50315 126.809C-5.68751 157.361 0.104489 192.794 10.6125 223.533C25.8298 268.045 51.3645 311.215 81.2218 347.586C84.6805 351.799 91.8365 351.082 95.3658 347.509C99.4858 343.337 98.7485 337.578 95.2885 333.365C94.7605 332.721 94.2431 332.07 93.7285 331.417C92.1258 329.386 94.5151 332.438 93.9925 331.763C93.4538 331.066 92.9192 330.367 92.3858 329.666C89.7592 326.217 87.2005 322.717 84.6778 319.191C77.1138 308.613 69.9618 297.739 63.2005 286.631C45.5952 257.717 31.3938 229.513 23.7445 197.058C21.6912 188.343 20.8138 182.591 20.2938 174.89C20.0445 171.189 20.0018 167.477 20.1098 163.77C20.1632 161.951 20.2858 160.137 20.4378 158.326C20.5112 157.427 20.6125 156.533 20.7125 155.637C20.8592 154.482 20.8565 154.45 20.7072 155.542C20.7938 154.953 20.8858 154.366 20.9832 153.779C21.5498 150.291 22.3845 146.85 23.3978 143.466C24.8338 138.673 25.0192 138.358 26.9645 134.431C30.7445 126.799 33.4725 123.341 39.3845 117.55C51.8592 105.335 69.9791 98.2942 88.1498 94.0168C113.168 88.1288 139.32 87.6635 164.906 88.1595C169.251 88.2435 173.592 88.4182 177.93 88.6955C179.747 88.8115 181.562 88.9635 183.375 89.1328C184.198 89.2101 185.018 89.3008 185.84 89.3915C188.683 89.7088 185.454 89.2995 187.008 89.5261C189.412 89.8781 191.802 90.3461 194.146 90.9875C195.04 91.2315 195.919 91.5288 196.786 91.8595C193.396 90.5688 196.179 91.6341 197.031 92.1741C197.634 92.5568 194.899 90.0982 196.452 91.8848C195.666 90.9795 194.615 89.0075 194.599 88.9355C194.339 87.7741 194.512 85.2808 194.475 85.4088C194.099 86.6861 195.704 82.7235 195.07 83.9461C194.682 84.6941 193.54 86.0568 195.839 83.0742C195.075 84.0648 191.384 87.0142 194.423 84.6955C192.732 85.9862 190.904 87.0955 189.064 88.1568C184.306 90.9061 179.27 93.1808 174.227 95.3502C173.791 95.5382 171.376 96.5501 173.854 95.5181C173.118 95.8248 172.38 96.1248 171.643 96.4261C170.114 97.0488 168.576 97.6555 167.039 98.2568C163.487 99.6461 159.911 100.974 156.326 102.277C140.802 107.915 125.046 112.918 109.244 117.721C78.4085 127.093 47.2952 135.694 16.0258 143.509C3.50449 146.638 8.70182 165.951 21.2018 162.827Z" fill="#4690C3"/>
<path d="M70.9453 109.177C70.9453 115.54 65.788 120.698 59.424 120.698C53.06 120.698 47.9026 115.54 47.9026 109.177C47.9026 102.813 53.06 97.6558 59.424 97.6558C65.788 97.6558 70.9453 102.813 70.9453 109.177Z" fill="#4690C3"/>
</svg>
