<svg width="1440" height="1151" viewBox="0 0 1440 1151" fill="none" xmlns="http://www.w3.org/2000/svg">
<path d="M1440 727.992H1305.18L1293.2 690.399H1273.53C1279.87 656.253 1283.08 621.416 1283.08 586.546C1283.08 436.138 1224.51 294.736 1118.16 188.384C1028.09 98.3382 914.323 42.8094 788.905 27.6235C768.393 14.1728 746.283 5.20617 723.128 0.952822L719.91 0.362468L716.692 0.952822C693.517 5.20962 671.405 14.1832 650.906 27.6477C525.57 42.8544 411.875 98.3739 321.84 188.385C215.488 294.737 156.918 436.139 156.918 586.546C156.918 621.356 160.127 656.194 166.475 690.399H146.806L134.823 727.992H-0.000729953L29.8407 758.304C53.1089 781.938 77.8843 804.635 103.616 825.9L66.6865 941.763L125.392 1000.47H337.43C441.86 1097.26 577.43 1150.48 720 1150.48C862.571 1150.48 998.141 1097.26 1102.57 1000.47H1314.61L1373.31 941.763L1336.38 825.9C1362.11 804.639 1386.89 781.942 1410.16 758.304L1440 727.992Z" fill="#BF04F5"/>
<path d="M331.437 969.889C430.341 1070.35 567.885 1132.67 720 1132.67C872.116 1132.67 1009.66 1070.35 1108.56 969.889H331.437Z" fill="#2E023F"/>
<path d="M369.591 929.502C458.783 1020.1 582.821 1076.3 720 1076.3C857.18 1076.3 981.218 1020.1 1070.41 929.502H369.591Z" fill="#BF04F5"/>
<path d="M42.5356 745.807C214.977 920.966 454.784 1029.61 720 1029.61C985.216 1029.61 1225.02 920.966 1397.46 745.807H42.5356Z" fill="#2E023F"/>
<path d="M217.123 640.46L195.388 529.813L249.93 378.104L378.347 196.884C378.347 196.884 489.788 112.522 501.644 107.283C513.498 102.045 633.362 81.2978 633.362 81.2978L706.808 29.9268C706.808 29.9268 732.038 32.4968 748.728 46.0305C765.417 59.5641 803.346 88.2135 803.346 88.2135C803.346 88.2135 974.856 128.719 978.808 129.706C982.759 130.694 1107.24 235.413 1109.21 239.366C1111.19 243.317 1195.16 401.384 1195.16 401.384L1236.65 528.825C1236.65 528.825 1232.7 656.266 1226.78 664.17C1220.85 672.073 1134.56 724.762 1134.56 724.762L249.93 713.566L217.123 640.46Z" fill="white"/>
<path d="M299.346 696.852L357.647 706.619H687.449L1141.73 714.698C1150.87 679.553 1155.75 642.686 1155.75 604.679C1155.75 364.024 960.656 168.933 720 168.933C479.343 168.933 284.253 364.024 284.253 604.679C284.253 636.308 287.653 667.138 294.055 696.852H299.346Z" fill="#BF04F5"/>
<path d="M962.397 522.825C983.824 481.052 985.649 435.425 986.078 429.139V429.049C986.101 428.935 986.101 428.823 986.101 428.733C986.123 428.575 986.123 428.485 986.123 428.485C986.123 428.575 986.101 428.642 986.101 428.733C986.078 428.755 986.078 428.8 986.078 428.823C985.988 429.454 985.874 430.062 985.784 430.693C984.388 436.28 977.56 451.782 943.944 469.2L945.453 456.762C953.654 437.971 966.453 404.511 969.787 372.178C969.787 372.178 954.489 406.223 935.562 431.932H881.463C881.463 431.932 881.463 431.909 881.486 431.909C882.679 430.986 920.87 400.996 935.583 337.93C963.704 356.36 997.051 385.381 997.051 385.381C1013.39 419.832 1026.84 465.55 1036.64 505.251L1031.39 505.295C1031.37 505.317 1031.34 505.317 1031.3 505.34C992.477 518.454 962.397 522.825 962.397 522.825Z" fill="#15717E"/>
<path d="M1002.75 381.979C1002.75 381.979 1045.85 468.366 1070.14 610.317C1070.14 610.317 1042 595.288 1015.03 592.291C1015.03 592.291 1031.97 590.759 1055.07 592.291C1055.07 592.291 1048.49 553.153 1036.64 505.25C1026.84 465.55 1013.39 419.833 997.051 385.382C997.051 385.382 963.704 356.36 935.583 337.93C952.979 346.469 976.502 360.303 1002.75 381.979Z" fill="#14FEFD"/>
<path d="M1040.13 644.227C1040.13 644.227 995.54 621.064 925.738 618.562L927.067 607.635C946.106 603.691 971.657 599.929 996.217 601.259C996.217 601.259 967.016 588.866 930.154 582.376L930.267 581.566C940.09 579.132 985.672 568.881 1031.3 575.641C1029.07 575.032 992.139 565.297 932.227 565.32L932.678 561.761C953.203 554.234 999.101 535.24 1031.39 505.295L1036.64 505.25C1048.49 553.153 1055.07 592.291 1055.07 592.291C1031.97 590.758 1015.03 592.291 1015.03 592.291C1015.03 592.291 1054.42 608.063 1079.56 641.861V683.927C1079.56 683.927 1031.07 659.143 995.338 650.13C995.338 650.13 1025.21 644.496 1040.13 644.227" fill="#15717E"/>
<path d="M855.394 463.071L549.052 490.74L544.522 653.352C543.057 652.901 541.57 652.496 540.084 652.112L537.808 630.482L520.639 467.78C521.517 468.704 522.013 469.268 522.126 469.403C521.539 468.027 520.955 466.608 520.368 465.189L520.165 463.071H584.448H855.394Z" fill="#14FEFD"/>
<path d="M557.433 431.166C508.833 392.411 497.972 359.469 497.972 359.469C473.187 371.863 447.839 391.578 447.839 391.578C413.455 448.132 371.23 605.292 369.901 610.203C394.168 468.321 437.272 381.979 437.272 381.979C464.106 359.83 488.103 345.861 505.565 337.367C518.679 396.647 551.462 426.21 557.433 431.166Z" fill="#14FEFD"/>
<path d="M481.343 606.486C464.174 610.136 435.378 623.002 435.378 623.002L465.572 631.97C406.155 633.501 363.908 682.238 363.908 682.238C360.528 670.972 360.46 641.861 360.46 641.861C385.605 608.063 425.014 592.29 425.014 592.29C398.021 595.288 369.879 610.316 369.879 610.316C369.879 610.271 369.901 610.249 369.901 610.204C371.231 605.291 413.456 448.133 447.839 391.577C447.839 391.577 473.187 371.862 497.971 359.47C497.971 359.47 508.833 392.412 557.433 431.166C557.952 431.594 558.267 431.842 558.356 431.91C558.38 431.91 558.38 431.931 558.38 431.931H489.635C480.712 421.14 471.249 409.175 463.093 397.841L476.004 443.13L452.998 433.6L476.882 477.109L435.402 447.704L474.313 503.673L452.998 509.104C452.998 509.104 477.31 524.493 498.399 535.444L499.301 542.924L468.072 539.815C468.072 539.815 485.827 563.586 504.934 589.114L479.315 571.561L457.121 556.353L481.343 606.486Z" fill="#15717E"/>
<path d="M1280.18 708.213H159.824L86.9534 936.835L132.771 982.653H1307.23L1353.05 936.835L1280.18 708.213Z" fill="#2E023F"/>
<path d="M289.904 786.405C285.556 776.432 278.685 772.472 265.727 772.472H228.946L221.102 801.573H264.279C257.41 812.857 254.119 818.238 247.322 829.726H213.514L197.02 890.917H155.211L188.192 777.622C191.752 765.389 189.701 754.285 183.557 745.806L313.644 745.999C305.707 759.333 297.886 772.671 289.904 786.405Z" fill="white"/>
<path d="M452.367 745.806L437.549 845.192C431.996 882.438 395.043 893.16 367.815 893.16C340.587 893.16 307.722 882.438 315.672 845.192L330.094 777.622C332.704 765.389 329.79 754.286 322.989 745.806H375.566L357.191 841.567C354.931 853.346 363.032 860.048 373.818 860.048C384.603 860.048 395.136 853.346 397.146 841.567L413.497 745.806H452.367Z" fill="white"/>
<path d="M457.815 890.917L473.126 777.622C474.778 765.389 470.996 754.286 463.528 745.807H516.106L503.131 860.049H541.279C554.86 860.049 563.406 855.716 571.223 844.977L583.244 890.917H457.815Z" fill="white"/>
<path d="M600.078 890.917L607.081 777.622C607.836 765.389 603.239 754.286 595.152 745.807H647.729L643.129 860.049H681.279C694.859 860.049 703.087 855.716 710.117 844.977L725.507 890.917H600.078Z" fill="white"/>
<path d="M858.592 846.474L858.78 849.046C860.881 877.789 834.168 893.16 801.047 893.16C775.242 893.16 755.223 887.339 734.254 873.595L765.117 843.483C777.545 855.069 788.235 858.746 800.608 858.746C810.989 858.746 818.383 855.069 818.016 847.973L817.961 846.904C817.532 838.592 810.043 834.784 782.32 824.905C756.258 815.543 740.139 804.226 739.887 781.005L739.865 779.014C739.605 755.061 766.494 743.891 793.506 743.891C817.89 743.891 836.095 749.844 850.443 760.893L824.786 785.804C817.535 775.837 806.418 770.895 794.423 770.895C784.14 770.895 777.023 774.649 777.185 779.811L777.221 781.005C777.39 786.405 784.451 790.627 809.904 799.536C840.974 810.381 856.589 819.069 858.592 846.474Z" fill="#BF04F5"/>
<path d="M909.69 772.274H901.115C888.348 772.274 880.695 776.232 874.853 786.206L857.36 745.806H995.378L987.175 786.206C979.039 776.232 970.475 772.274 957.708 772.274H949.134L964.059 890.917H922.045L909.69 772.274Z" fill="#BF04F5"/>
<path d="M1080.86 831.83C1074.78 820.525 1070.99 812.856 1065.02 801.777C1063.19 812.856 1062.06 820.525 1060.39 831.83H1080.86ZM1029.31 778.418C1031.4 767.154 1026.46 754.867 1017 746.765L1015.91 745.807H1073.93L1154.3 890.916H1112.49L1096.39 860.7H1059.82C1057.42 860.7 1055.33 862.437 1054.99 865.052L1050.79 890.916H1008.98L1029.31 778.418Z" fill="#BF04F5"/>
<path d="M1252.51 815.543L1299.67 890.47H1257.87L1223.12 833.305C1220.67 829.304 1216.66 826.788 1212.74 826.788H1196.65L1212.94 890.917H1171.13L1144.79 777.622C1141.94 765.389 1134.08 754.285 1123.49 745.806H1137.39L1137.43 745.999H1176.12L1189.41 798.317H1207.19C1211.06 798.317 1213.89 795.88 1214.01 792.039L1217.76 745.806H1256.44L1252.51 815.543Z" fill="#BF04F5"/>
<path d="M610.245 815.542L606.179 884.626H717.332L708.019 856.6C701.103 863.231 692.607 866.178 681.149 866.178H637.237L639.424 815.542H610.245Z" fill="url(#paint0_linear)"/>
<path d="M473.5 815.542L464.367 884.626H575.52L568.291 856.6C560.859 863.231 552.148 866.178 540.718 866.178H496.777L502.678 815.542H473.5Z" fill="url(#paint1_linear)"/>
<path d="M407.09 815.542L402.725 841.554C400.344 855.747 387.699 866.178 372.714 866.178C357.7 866.178 348.867 855.747 351.632 841.554L356.7 815.542H327.493L321.254 845.188C313.13 883.779 355.701 886.854 368.966 886.854C382.26 886.854 426.086 883.779 431.954 845.188L436.461 815.542H407.09Z" fill="url(#paint2_linear)"/>
<path d="M182.641 815.542L162.735 884.626H193.023L209.591 823.829H244.944C246.772 820.745 248.381 818.082 249.93 815.542H182.641Z" fill="url(#paint3_linear)"/>
<path d="M1210.07 816.592H1247.32L1289.67 884.187H1260.12L1227.77 831.271C1223.89 824.947 1217.39 820.892 1211.19 820.892L1210.07 816.592Z" fill="url(#paint4_linear)"/>
<path d="M1189.65 820.892L1205.65 884.625H1175.36L1159.35 816.592H1210.07L1211.19 820.892H1189.65Z" fill="url(#paint5_linear)"/>
<path d="M1107.3 816.592L1144.76 884.625H1115.22L1099.12 854.592H1058.73C1053.85 854.592 1049.99 858.093 1049.31 863.108L1045.75 884.625H1016.17L1028.27 816.592H1056.83C1056.2 820.599 1055.61 824.683 1054.89 829.315L1053.62 837.785H1089.99L1085.65 829.759C1083.02 824.888 1080.8 820.686 1078.66 816.592H1107.3Z" fill="url(#paint6_linear)"/>
<path d="M949.203 816.592L957.561 884.625H927.1L919.816 816.592H949.203Z" fill="url(#paint7_linear)"/>
<path d="M852.993 846.483L853.173 849.047C854.994 875.016 828.182 886.854 800.797 886.854C778.946 886.854 761.451 882.464 743.937 872.474L765.405 851.436C776.604 860.78 787.47 864.857 800.866 864.857C818.323 864.857 824.051 856.113 823.604 847.96L823.548 846.905C822.827 833.705 810.804 828.901 783.911 819.339C781.348 818.432 778.952 817.497 776.697 816.592H835.418C847.138 823.593 851.971 831.922 852.993 846.483" fill="url(#paint8_linear)"/>
<path d="M986.101 428.732C986.124 428.575 986.124 428.485 986.124 428.485C986.124 428.575 986.101 428.643 986.101 428.732Z" fill="#2E023F"/>
<path d="M1208.8 582.084L1208.31 573.026L1208.04 568.519L1207.54 563.991L1205.54 545.988C1204.82 539.994 1203.64 534.046 1202.74 528.098L1201.28 519.175C1200.69 516.223 1200.02 513.272 1199.39 510.32C1198.06 504.44 1196.91 498.537 1195.44 492.7C1189.43 469.38 1181.74 446.578 1172.62 424.452C1163.04 402.506 1152.18 381.191 1139.7 360.934C1126.92 340.837 1112.95 321.638 1097.75 303.568C1082.09 285.836 1065.52 269.073 1047.68 253.841C1063.32 271.326 1078.03 289.463 1091.28 308.571C1104.39 327.745 1116.2 347.685 1126.61 368.257C1136.66 389.008 1145.49 410.233 1152.81 431.909C1159.75 453.742 1165.48 475.846 1169.44 498.266C1173.5 521.541 1175.77 545.064 1176.31 568.565C1175.44 559.867 1174.56 551.193 1173.09 542.563C1160.36 458.046 1121.85 378.622 1065.39 317.673C1077.08 334.865 1087.88 352.507 1097.23 370.826C1106.67 389.077 1114.96 407.868 1121.74 427.088C1128.52 446.33 1134.13 465.888 1138.32 485.693C1142.56 505.475 1145.24 525.529 1146.68 545.583L1147.18 553.108L1147.45 556.849L1147.54 560.634L1147.92 575.663L1147.68 590.714L1147.61 594.454L1147.36 598.216L1146.86 605.697C1146.75 608.401 1146.57 611.083 1146.35 613.764C1146.37 607.432 1146.28 601.101 1146.05 594.791C1142.79 520.528 1118.93 447.907 1077.65 388.559C1093.1 421.184 1104.46 455.298 1111.56 489.974C1118.56 524.674 1121.22 559.935 1119.47 594.769L1118.52 607.815L1118.07 614.327C1117.87 616.49 1117.55 618.653 1117.3 620.816L1115.73 633.727C1115.12 638.03 1114.28 642.289 1113.56 646.57C1112.75 652.001 1111.58 657.385 1110.39 662.748C1108 648.981 1105.79 637.422 1105.63 636.679L1104.44 630.528L1100.74 625.525C1100.31 624.939 1099.86 624.376 1099.41 623.79L1096.33 605.674C1071.63 461.381 1028.28 373.418 1026.46 369.744L1023.89 364.607C1023.89 364.607 1023.84 364.562 1023.73 364.472C1020.69 361.745 974.34 320.602 915.035 297.665C914.021 287.864 912.331 278.266 909.966 268.937C909.966 268.937 909.943 268.87 909.92 268.78C909.108 264.679 892.413 183.654 847.508 114.414C1055 170.294 1207.86 359.29 1208.92 584.157C1208.89 583.48 1208.85 582.782 1208.8 582.084ZM1079.56 641.86V683.928C1079.56 683.928 1031.07 659.142 995.338 650.131C995.338 650.131 1025.22 644.497 1040.13 644.226C1040.13 644.226 995.54 621.064 925.738 618.563L927.067 607.635C946.106 603.692 971.657 599.93 996.217 601.258C996.217 601.258 967.016 588.866 930.154 582.377L930.267 581.566C940.09 579.132 985.672 568.88 1031.3 575.64C1029.07 575.031 992.139 565.298 932.227 565.32L932.678 561.76C953.204 554.235 999.101 535.241 1031.39 505.296L1031.25 505.357C992.453 518.457 962.397 522.825 962.397 522.825C983.825 481.052 985.649 435.425 986.078 429.138V429.049C986.101 428.935 986.101 428.823 986.101 428.733C986.078 428.755 986.078 428.8 986.078 428.823C985.988 429.454 985.875 430.062 985.784 430.693C984.387 436.282 977.561 451.782 943.944 469.2L945.453 456.762C953.655 437.971 966.453 404.511 969.788 372.177C969.788 372.177 954.489 406.223 935.562 431.933H881.464C881.464 431.933 881.464 431.909 881.485 431.909C882.68 430.986 920.871 400.996 935.584 337.93C952.978 346.469 976.503 360.304 1002.75 381.98C1002.75 381.98 1045.85 468.367 1070.14 610.316C1070.14 610.316 1042 595.288 1015.03 592.291C1015.03 592.291 1054.42 608.063 1079.56 641.86V641.86ZM719.91 172.884C630.796 172.884 558.582 246.382 558.582 337.073C558.582 357.059 562.097 376.233 568.541 393.921C557.59 371.232 551.485 345.703 551.485 318.755C551.485 224.077 626.899 147.333 719.91 147.333C790.277 147.333 850.549 191.225 875.74 253.593C883.874 273.669 888.357 295.683 888.357 318.755C888.357 345.703 882.229 371.232 871.301 393.921C877.745 376.233 881.238 357.059 881.238 337.073C881.238 246.382 809.023 172.884 719.91 172.884V172.884ZM743.343 253.864V253.841L743.365 253.864C743.861 254.044 760.175 260.578 787.844 263.034C789.263 263.169 790.727 263.283 792.215 263.371C795.752 263.619 799.471 263.8 803.346 263.89C802.128 277.161 794.58 285.949 794.58 285.949C772.071 288.473 752.423 276.464 752.423 276.464C745.282 265.602 743.433 254.472 743.343 253.864ZM719.977 325.042V345.14L711.145 339.281C711.145 339.281 700.149 349.534 686 352.485C686 352.485 708.172 354.558 719.977 354.558V359.425V375.716C706.864 374.544 697.806 366.726 696.725 365.756C701.84 373.237 712.136 378.644 712.136 378.644C714.007 380.965 715.629 385.652 716.891 390.451C718.603 396.783 719.684 403.34 719.91 404.894C719.955 405.142 719.977 405.255 719.977 405.255C728.224 408.769 748.728 404.894 748.728 404.894C747.353 405.907 745.934 406.809 744.424 407.598C738.655 410.685 730.274 413.817 719.977 413.817C709.681 413.817 701.277 410.685 695.509 407.598C694.043 406.809 692.602 405.907 691.249 404.894C688.343 402.776 685.729 400.207 683.499 397.277C669.349 378.734 655.086 367.062 645.262 357.42L645.217 357.374C636.52 348.79 630.886 337.231 629.422 324.681C625.75 294.263 626.268 263.89 626.268 263.89C669.911 264.724 696.635 253.841 696.635 253.841C708.262 246.653 718.964 227.208 719.91 223.671C719.932 223.535 719.955 223.401 719.977 223.266C719.977 223.266 719.977 223.355 720 223.535C720.473 227.005 725.566 264.656 730.816 289.013L733.542 281.916C733.542 281.916 741.811 284.845 741.022 304.514C741.022 304.514 731.942 312.897 719.977 312.897C719.977 312.897 707.63 314.564 698.978 306.611C698.978 306.611 705.986 322.112 719.977 325.042V325.042ZM549.051 490.74L544.522 653.352C543.058 652.901 541.571 652.495 540.083 652.113L537.809 630.483L520.64 467.78C521.518 468.705 522.013 469.267 522.126 469.402C521.54 468.028 520.954 466.608 520.369 465.189L520.166 463.071H584.449H855.393L549.051 490.74ZM489.635 431.933C480.713 421.139 471.249 409.175 463.092 397.841C463.207 398.104 463.617 399.016 464.276 400.476C463.617 399.016 463.207 398.104 463.092 397.841L476.003 443.13L452.999 433.6V433.601L476.882 477.109L435.401 447.704C435.548 447.875 436.282 448.72 437.488 450.102C436.282 448.72 435.548 447.875 435.401 447.704L474.314 503.673L452.999 509.104C452.999 509.104 477.311 524.493 498.401 535.444L499.301 542.924L468.072 539.815C468.072 539.815 485.828 563.586 504.935 589.114L479.316 571.562L457.122 556.353L481.344 606.486C464.173 610.136 435.379 623.002 435.379 623.002L465.571 631.97C406.156 633.501 363.908 682.238 363.908 682.238C360.527 670.972 360.461 641.86 360.461 641.86C385.606 608.063 425.015 592.291 425.015 592.291C398.021 595.288 369.879 610.316 369.879 610.316C369.879 610.271 369.901 610.249 369.901 610.204C394.168 468.321 437.271 381.98 437.271 381.98C464.107 359.83 488.102 345.861 505.565 337.366C518.678 396.648 551.462 426.209 557.433 431.166C557.951 431.595 558.267 431.841 558.357 431.909C558.38 431.909 558.38 431.933 558.38 431.933H489.635ZM326.392 646.728C325.695 642.469 324.86 638.188 324.229 633.907L322.675 620.974C322.404 618.811 322.111 616.648 321.887 614.485L321.436 607.973L320.489 594.927C318.732 560.07 321.391 524.809 328.397 490.132C335.472 455.456 346.829 421.342 362.308 388.693C321.075 448.087 297.259 520.707 294.036 594.972C293.811 601.8 293.7 608.672 293.766 615.545C293.474 612.322 293.226 609.099 293.091 605.855L292.595 598.374L292.347 594.612L292.279 590.872L292.031 575.82L292.414 560.769L292.505 557.007L292.775 553.243L293.271 545.741C294.69 525.664 297.372 505.61 301.607 485.829C305.799 466.023 311.408 446.465 318.191 427.223C324.973 407.981 333.242 389.212 342.705 370.962C352.033 352.62 362.85 334.978 374.52 317.809C318.123 378.802 279.662 458.226 266.999 542.743C265.422 551.959 264.52 561.242 263.596 570.547C264.047 546.438 266.323 522.285 270.491 498.401C274.458 475.982 280.18 453.878 287.12 432.044C294.442 410.37 303.252 389.122 313.301 368.37C323.712 347.798 335.518 327.858 348.654 308.684C361.88 289.576 376.593 271.438 392.231 253.954C374.408 269.208 357.847 285.971 342.21 303.704C326.978 321.775 313.032 340.994 300.3 361.092C287.795 381.348 276.957 402.663 267.405 424.632C258.279 446.758 250.64 469.56 244.625 492.88C243.16 498.717 241.988 504.62 240.682 510.5C240.05 513.452 239.375 516.381 238.812 519.355L237.348 528.278C236.423 534.226 235.252 540.174 234.553 546.169L232.548 564.171L232.052 568.677L231.781 573.206L231.287 582.264C231.218 583.503 231.15 584.766 231.082 586.027C231.308 360.417 384.367 170.587 592.29 114.459C547.429 183.699 530.733 264.679 529.922 268.78C529.899 268.87 529.877 268.937 529.877 268.937C527.556 278.108 525.866 287.548 524.853 297.192C460.231 324.23 419.02 361.926 416.272 364.472L416.137 364.607L413.59 369.744C411.743 373.418 368.369 461.381 343.696 605.674L340.587 623.79C340.137 624.376 339.731 624.939 339.28 625.525L335.563 630.528L334.391 636.679C334.256 637.422 332.026 649.116 329.615 662.996C328.42 657.61 327.226 652.202 326.392 646.728V646.728ZM631.63 105.582C654.657 77.1017 683.724 54.0964 719.91 46.0301C709.59 50.672 700.397 58.7163 692.917 66.9175C695.486 66.9175 698.054 67.0305 700.645 67.1654C706.458 67.5251 712.182 68.1569 717.882 68.9905C723.561 69.8921 729.216 70.9056 734.78 72.28C740.346 73.5413 745.844 75.1417 751.297 76.8089C745.686 75.8623 740.053 75.0287 734.421 74.4879C728.787 73.8791 723.155 73.6313 717.521 73.4745C711.889 73.4065 706.279 73.5194 700.69 73.9253C695.509 74.33 690.123 74.9388 685.324 75.9303C684.423 77.1018 683.566 78.2282 682.777 79.3328C683.454 79.3097 684.13 79.3097 684.827 79.3097C687.194 79.3097 689.559 79.3996 691.925 79.4446L699 79.8285C708.397 80.4811 717.747 81.8105 726.963 83.7037C731.559 84.5592 736.088 85.8217 740.617 86.9931C742.871 87.6238 745.079 88.3906 747.332 89.0651L750.665 90.1246L753.955 91.3641C761.053 93.843 767.858 97.1105 774.459 100.625C776.081 101.458 777.681 102.337 779.259 103.216C776.984 102.247 774.707 101.3 772.431 100.4C766.123 97.8761 759.724 95.622 753.145 94.0678L749.832 93.1674L746.43 92.4687C744.199 92.0179 741.968 91.499 739.715 91.1162C735.164 90.4175 730.679 89.6519 726.106 89.2691C717.049 88.3444 707.923 87.9836 698.843 88.2776L692.038 88.6154C689.785 88.7965 687.532 88.9314 685.279 89.1562C681.944 89.494 678.519 89.9217 675.275 90.4405H675.252C673.899 92.6485 673.202 93.9549 673.202 93.9549C691.948 92.8515 709.41 94.3607 725.498 97.6513C800.799 112.927 845.57 166.53 847.17 168.49C812.988 138.455 768.488 120.295 719.91 120.295C671.332 120.295 626.808 138.478 592.628 168.535C603.037 146.995 615.926 125.027 631.63 105.582V105.582ZM1105.56 200.981C1017.46 112.905 904.536 58.6483 782.548 44.8137C764.14 32.1286 743.343 22.7779 719.91 18.4739C696.477 22.7779 675.68 32.1286 657.272 44.8367C535.352 58.6933 422.491 112.949 334.437 200.981C231.443 303.975 174.731 440.899 174.731 586.546C174.731 631.661 180.181 675.942 190.741 718.649H370.241L372.555 721.469H554.662L553.807 718.649H871.912C869.447 722.383 867.832 724.762 867.832 724.762L985.813 718.649H1249.25C1259.84 675.952 1265.27 631.654 1265.27 586.546C1265.27 440.899 1208.56 303.975 1105.56 200.981" fill="#2E023F"/>
<path d="M540.084 652.113L549.052 490.741L609.326 549.242C609.326 549.242 568.163 666.146 567.834 668.78C567.505 671.415 518.438 670.427 518.438 670.427" fill="#2E023F"/>
<path d="M520.166 463.071L528.646 543.643L536.879 476.465L534.245 466.257" fill="#14FEFD"/>
<path d="M720 490.74H544.453C544.453 490.74 555.266 469.221 557.433 469.221C559.601 469.221 720 490.74 720 490.74Z" fill="#14FEFD"/>
<path d="M609.326 249.244V345.14L666.626 413.816L767.789 445.84L847.169 383.601L827.656 253.863L758.502 202.813L673.077 223.468L609.326 249.244Z" fill="#2E023F"/>
<path d="M1060.91 586.732C1060.91 592.342 1056.36 596.89 1050.75 596.89C1045.14 596.89 1040.59 592.342 1040.59 586.732C1040.59 581.123 1045.14 576.574 1050.75 576.574C1056.36 576.574 1060.91 581.123 1060.91 586.732Z" fill="#14FEFD"/>
<path d="M1044.54 564.491C1044.54 566.548 1042.88 568.214 1040.82 568.214C1038.76 568.214 1037.1 566.548 1037.1 564.491C1037.1 562.434 1038.76 560.768 1040.82 560.768C1042.88 560.768 1044.54 562.434 1044.54 564.491Z" fill="#14FEFD"/>
<path d="M809.821 344.321C808.478 348.478 806.219 352.187 803.264 355.208C795.148 363.501 777.115 378.793 760.817 398.158C757.631 401.945 751.956 400.798 750.141 396.066C749.022 393.148 747.872 389.623 746.917 385.581C746.917 385.581 737.554 393.121 719.899 393.121C702.242 393.121 692.88 385.581 692.88 385.581C691.926 389.623 690.776 393.148 689.655 396.066C687.84 400.798 682.166 401.945 678.98 398.158C662.681 378.793 644.648 363.501 636.534 355.208C633.577 352.187 631.32 348.478 629.977 344.321C625.382 330.113 621.186 310.163 621.186 310.163C621.186 310.163 622.484 322.478 623.69 338.749C624.369 347.909 628.349 356.41 634.798 362.372C646.306 373.006 665.482 392.047 680.908 413.852C684.962 419.581 690.493 423.878 696.869 425.967C702.739 427.889 710.668 429.669 719.899 429.669C729.13 429.669 737.059 427.889 742.927 425.967C749.303 423.878 754.835 419.581 758.888 413.852C774.316 392.047 793.491 373.006 804.998 362.372C811.448 356.41 815.428 347.909 816.107 338.749C817.313 322.478 818.611 310.163 818.611 310.163C818.611 310.163 814.414 330.113 809.821 344.321Z" fill="#15717E"/>
<path d="M205.004 936.835C290.837 933.156 376.669 931.231 462.503 929.923C505.418 929.103 548.334 928.922 591.252 928.44L720 927.949L848.749 928.416L913.123 929.044L945.311 929.377L977.499 929.897C1063.33 931.199 1149.16 933.134 1235 936.835C1149.16 940.536 1063.33 942.471 977.499 943.774L945.311 944.294L913.123 944.625L848.749 945.254L720 945.721L591.252 945.23C548.334 944.748 505.418 944.566 462.503 943.747C376.669 942.439 290.837 940.514 205.004 936.835Z" fill="#BF04F5"/>
<path d="M558.379 1005.34C558.379 1017.88 548.22 1028.04 535.688 1028.04C523.156 1028.04 512.997 1017.88 512.997 1005.34C512.997 992.812 523.156 982.654 535.688 982.654C548.22 982.654 558.379 992.812 558.379 1005.34Z" fill="#BF04F5"/>
<path d="M570.296 1002.61C570.296 1007.34 574.13 1011.17 578.858 1011.17C583.586 1011.17 587.42 1007.34 587.42 1002.61C587.42 997.879 583.586 994.046 578.858 994.046C574.13 994.046 570.296 997.879 570.296 1002.61Z" fill="#BF04F5"/>
<defs>
<linearGradient id="paint0_linear" x1="661.756" y1="884.02" x2="661.756" y2="815.995" gradientUnits="userSpaceOnUse">
<stop stop-color="white"/>
<stop offset="1" stop-color="#ABABAB"/>
</linearGradient>
<linearGradient id="paint1_linear" x1="519.944" y1="884.02" x2="519.944" y2="815.995" gradientUnits="userSpaceOnUse">
<stop stop-color="white"/>
<stop offset="1" stop-color="#ABABAB"/>
</linearGradient>
<linearGradient id="paint2_linear" x1="378.347" y1="884.099" x2="378.347" y2="815.995" gradientUnits="userSpaceOnUse">
<stop stop-color="white"/>
<stop offset="1" stop-color="#ABABAB"/>
</linearGradient>
<linearGradient id="paint3_linear" x1="206.332" y1="884.02" x2="206.332" y2="815.995" gradientUnits="userSpaceOnUse">
<stop stop-color="white"/>
<stop offset="1" stop-color="#ABABAB"/>
</linearGradient>
<linearGradient id="paint4_linear" x1="1249.87" y1="877.956" x2="1249.87" y2="817.299" gradientUnits="userSpaceOnUse">
<stop stop-color="#BF04F5"/>
<stop offset="1" stop-color="#60017F"/>
</linearGradient>
<linearGradient id="paint5_linear" x1="1185.27" y1="877.97" x2="1185.27" y2="817.299" gradientUnits="userSpaceOnUse">
<stop stop-color="#BF04F5"/>
<stop offset="1" stop-color="#60017F"/>
</linearGradient>
<linearGradient id="paint6_linear" x1="1080.47" y1="877.97" x2="1080.47" y2="817.299" gradientUnits="userSpaceOnUse">
<stop stop-color="#BF04F5"/>
<stop offset="1" stop-color="#60017F"/>
</linearGradient>
<linearGradient id="paint7_linear" x1="938.688" y1="877.97" x2="938.688" y2="817.299" gradientUnits="userSpaceOnUse">
<stop stop-color="#BF04F5"/>
<stop offset="1" stop-color="#60017F"/>
</linearGradient>
<linearGradient id="paint8_linear" x1="798.598" y1="878.041" x2="798.598" y2="817.3" gradientUnits="userSpaceOnUse">
<stop stop-color="#BF04F5"/>
<stop offset="1" stop-color="#60017F"/>
</linearGradient>
</defs>
</svg>
