<svg width="1600" height="326" viewBox="0 0 1600 326" fill="none" xmlns="http://www.w3.org/2000/svg">
<path d="M925.971 184.978C925.971 207.854 914.005 220.974 893.139 220.974C872.277 220.974 860.31 207.854 860.31 184.978V101.946H821.837V188.621C821.837 238.737 858.669 256.594 893.139 256.594C927.533 256.594 964.283 238.737 964.283 188.621V101.946H925.971V184.978Z" fill="black"/>
<path d="M705.982 220.974C681.542 220.974 663.804 202.569 663.804 177.21C663.804 151.85 681.542 133.445 705.982 133.445C730.516 133.445 748.322 151.85 748.322 177.21C748.322 202.569 730.516 220.974 705.982 220.974ZM749.404 109.023L747.27 107.874C734.889 101.206 720.997 97.8247 705.982 97.8247C659.55 97.8247 624.537 131.953 624.537 177.21C624.537 222.466 659.55 256.594 705.982 256.594C726.236 256.594 744.318 250.145 758.301 239.146C764.006 249.543 775.05 256.594 787.746 256.594V177.21V27.2927H749.404V109.023Z" fill="black"/>
<path d="M523.874 130.591C542.34 130.591 554.706 141.889 558.713 162.401H487.926C491.9 141.889 504.66 130.591 523.874 130.591ZM524.193 97.8239C478.604 97.8239 447.976 129.919 447.976 177.684C447.976 224.881 479.433 256.593 526.254 256.593C551.917 256.593 573.24 249.211 589.661 234.641L567.318 210.108C556.249 219.017 541.89 224.303 528.629 224.303C506.522 224.303 492.004 212.577 487.746 191.284L487.4 189.553H596.766C597.144 186.14 597.394 181.231 597.394 177.057C597.238 129.665 567.821 97.8239 524.193 97.8239Z" fill="black"/>
<path d="M1172.38 213.098L1136.42 101.946H1094.94L1059.46 212.644L1025.61 101.946H984.64L1035.65 252.632H1080.47L1115.28 145.604L1150.41 252.632H1195.55L1246.56 101.946H1206.38L1172.38 213.098Z" fill="black"/>
<path d="M1518.55 220.974C1494.02 220.974 1476.21 202.569 1476.21 177.21C1476.21 151.85 1494.02 133.445 1518.55 133.445C1542.99 133.445 1560.73 151.85 1560.73 177.21C1560.73 202.569 1542.99 220.974 1518.55 220.974ZM1518.55 97.8247C1503.54 97.8247 1489.65 101.206 1477.27 107.874L1475.13 109.023V27.2927H1436.79V177.21V256.594C1449.49 256.594 1460.53 249.543 1466.24 239.147C1480.22 250.145 1498.3 256.594 1518.55 256.594C1564.99 256.594 1600 222.466 1600 177.21C1600 131.953 1564.99 97.8247 1518.55 97.8247Z" fill="black"/>
<path d="M1336.03 130.591C1354.49 130.591 1366.86 141.889 1370.87 162.401H1300.08C1304.06 141.889 1316.82 130.591 1336.03 130.591ZM1336.35 97.8239C1290.76 97.8239 1260.13 129.919 1260.13 177.684C1260.13 224.881 1291.59 256.593 1338.4 256.593C1364.07 256.593 1385.4 249.211 1401.82 234.641L1379.47 210.108C1368.4 219.017 1354.05 224.303 1340.78 224.303C1318.68 224.303 1304.16 212.577 1299.9 191.284L1299.56 189.553H1408.92C1409.3 186.168 1409.55 181.261 1409.55 177.057C1409.39 129.665 1379.98 97.8239 1336.35 97.8239Z" fill="black"/>
<path d="M48.4307 162.529L0 210.96V282.613C0 315.404 34.5653 336.225 62.888 320.495L276.445 201.877C291.144 193.715 298.52 178.917 298.556 164.099C298.556 163.732 298.551 163.367 298.541 163C298.539 162.843 298.521 162.687 298.517 162.529H48.4307Z" fill="url(#paint0_linear)"/>
<path d="M0 43.3881V114.099L48.4307 162.529H298.517C298.051 148.276 290.8 134.22 276.708 126.263L63.1493 5.65069C56.464 1.87736 49.416 0.152024 42.5507 0.15069C20.324 0.149357 0 18.2321 0 43.3881Z" fill="url(#paint1_linear)"/>
<defs>
<linearGradient id="paint0_linear" x1="82.6165" y1="244.189" x2="429.49" y2="244.189" gradientUnits="userSpaceOnUse">
<stop stop-color="#FC4C44"/>
<stop offset="0.424238" stop-color="#FC4C44"/>
<stop offset="1" stop-color="#193FB5"/>
</linearGradient>
<linearGradient id="paint1_linear" x1="115.935" y1="206.214" x2="150.225" y2="96.4375" gradientUnits="userSpaceOnUse">
<stop stop-color="#193FB5"/>
<stop offset="0.492087" stop-color="#FC4C44"/>
<stop offset="1" stop-color="#FC4C44"/>
</linearGradient>
</defs>
</svg>
