<?xml version="1.0" encoding="UTF-8"?>
<svg width="1405px" height="241px" viewBox="0 0 1405 241" version="1.1" xmlns="http://www.w3.org/2000/svg" xmlns:xlink="http://www.w3.org/1999/xlink">
  <g id="Page-1" stroke="none" stroke-width="1" fill="none" fill-rule="evenodd">
    <g id="Vue.js-Krk" transform="translate(-82.000000, -93.000000)">
      <g id="Group-2" transform="translate(87.000000, 96.000000)">
        <g id="Meetups">
          <g id="vue-logo" fill-rule="nonzero" stroke="#D4213D" stroke-width="5">
            <polygon id="Shape" points="165.909208 0 134.782609 53.7190271 103.65601 0 0 0 134.782609 232.608696 269.565217 0"></polygon>
            <polygon id="Shape" points="166.316091 0 134.782609 53.922614 103.249126 0 52.855925 0 134.782609 140.093874 216.709292 0"></polygon>
          </g>
          <path d="M381.994782,151.069906 L424.760464,58.1415175 L446.598259,58.1415175 L381.994782,193.776641 L317.391304,58.1415175 L339.2291,58.1415175 L381.994782,151.069906 Z M513.021553,153.452685 L513.021553,102.131287 L532.129624,102.131287 L532.129624,186.445013 L513.021553,186.445013 L513.021553,173.981245 C506.470214,183.695652 495.91528,190.110827 486.270254,190.110827 C468.981999,190.110827 456.607249,180.763001 456.607249,155.285592 L456.607249,102.131287 L475.715319,102.131287 L475.715319,153.452685 C475.715319,167.382779 481.720713,172.69821 491.729702,172.69821 C502.6486,172.69821 513.021553,165.549872 513.021553,153.452685 Z M568.889912,148.870418 C570.527747,163.716965 580.718718,172.69821 593.639413,172.69821 C604.012366,172.69821 613.839374,168.849105 619.480804,159.684569 L633.857353,168.665814 C625.486198,181.496164 613.475411,190.110827 593.639413,190.110827 C565.432261,190.110827 549.417878,169.765558 549.417878,144.28815 C549.417878,118.810742 567.252077,98.4654731 593.639413,98.4654731 C619.116841,98.4654731 635.859151,116.061381 635.859151,142.638534 C635.859151,144.104859 635.859151,146.487639 635.495187,148.870418 L568.889912,148.870418 Z M615.295227,133.473998 C613.293429,121.926684 605.832182,114.961637 593.639413,114.961637 C582.538534,114.961637 572.165581,122.476556 569.617839,133.473998 L615.295227,133.473998 Z M654.057313,179.113384 C654.057313,172.514919 659.516762,167.199488 666.432064,167.199488 C673.347366,167.199488 678.806814,172.514919 678.806814,179.113384 C678.806814,185.71185 673.347366,191.02728 666.432064,191.02728 C659.516762,191.02728 654.057313,185.71185 654.057313,179.113384 Z M683.720318,206.606991 C686.268061,210.822677 688.997786,212.105712 691.909492,212.105712 C697.36894,212.105712 702.464426,207.706735 702.464426,197.442455 L702.464426,102.131287 L721.754478,102.131287 L721.754478,199.275362 C721.754478,219.254049 711.745489,230.434783 692.8194,230.434783 C683.174373,230.434783 677.16898,225.485934 674.439255,221.820119 L683.720318,206.606991 Z M699.734701,69.1389599 C699.734701,62.5404945 705.19415,57.2250639 712.109452,57.2250639 C719.024754,57.2250639 724.484203,62.5404945 724.484203,69.1389599 C724.484203,75.7374254 719.024754,81.0528559 712.109452,81.0528559 C705.19415,81.0528559 699.734701,75.7374254 699.734701,69.1389599 Z M752.873336,156.935209 C755.057116,167.199488 764.156197,172.69821 772.709334,172.69821 C780.898507,172.69821 785.448048,169.398977 785.448048,163.900256 C785.448048,156.568627 778.168782,152.719523 768.341775,149.603581 C756.876932,145.937766 741.590476,138.422847 741.590476,122.476556 C741.590476,106.713555 756.149006,98.4654731 771.435462,98.4654731 C786.539937,98.4654731 800.188559,107.446718 803.464229,116.794544 L788.177772,124.309463 C784.538139,119.177323 778.350764,115.144928 771.617444,115.144928 C765.794032,115.144928 760.698546,117.710997 760.698546,122.476556 C760.698546,127.425405 767.977811,130.907928 779.260672,135.123615 C791.089478,139.522592 805.102063,146.670929 805.102063,164.450128 C805.102063,180.763001 789.815607,190.110827 771.799426,190.110827 C754.511171,190.110827 739.770659,177.647059 737.222917,163.900256 L752.873336,156.935209 Z M898.822601,76.4705882 L898.822601,118.627451 L917.930672,118.627451 C932.30722,118.627451 941.22432,111.479113 941.22432,97.5490196 C941.22432,83.6189258 932.30722,76.4705882 917.930672,76.4705882 L898.822601,76.4705882 Z M878.804622,58.1415175 L917.930672,58.1415175 C942.498191,58.1415175 961.242299,73.9045183 961.242299,97.5490196 C961.242299,121.193521 942.498191,136.956522 917.930672,136.956522 L898.822601,136.956522 L898.822601,186.445013 L878.804622,186.445013 L878.804622,58.1415175 Z M990.541341,144.28815 C990.541341,160.967604 1001.8242,172.69821 1017.29264,172.69821 C1032.76108,172.69821 1044.04394,160.967604 1044.04394,144.28815 C1044.04394,127.608696 1032.76108,115.87809 1017.29264,115.87809 C1001.8242,115.87809 990.541341,127.608696 990.541341,144.28815 Z M971.251288,144.28815 C971.251288,116.977835 991.815212,98.4654731 1017.29264,98.4654731 C1042.77007,98.4654731 1063.33399,116.977835 1063.33399,144.28815 C1063.33399,171.598465 1042.77007,190.110827 1017.29264,190.110827 C991.815212,190.110827 971.251288,171.598465 971.251288,144.28815 Z M1080.62225,43.4782609 L1099.73032,43.4782609 L1099.73032,186.445013 L1080.62225,186.445013 L1080.62225,43.4782609 Z M1134.48881,160.784314 C1134.48881,169.215686 1143.95185,173.431373 1152.14102,173.431373 C1166.69955,173.431373 1175.25269,169.215686 1175.25269,153.452685 L1175.25269,150.336743 C1168.88333,147.953964 1162.87794,147.037511 1156.14462,147.037511 C1142.67798,147.037511 1134.48881,153.819267 1134.48881,160.784314 Z M1131.75908,124.492754 L1124.6618,109.646206 C1130.84917,105.063939 1142.496,98.4654731 1157.60047,98.4654731 C1178.52836,98.4654731 1194.36076,107.813299 1194.36076,125.959079 L1194.36076,186.445013 L1175.25269,186.445013 L1175.25269,174.714408 C1170.15721,184.245524 1159.23831,190.110827 1146.68158,190.110827 C1131.21314,190.110827 1116.10866,182.595908 1116.10866,162.617221 C1116.10866,143.005115 1133.39692,133.107417 1153.59688,133.107417 C1163.05992,133.107417 1170.15721,135.306905 1175.25269,138.056266 L1175.25269,125.959079 C1175.25269,118.627451 1166.69955,116.244672 1157.60047,116.244672 C1145.58969,116.244672 1135.76268,121.560102 1131.75908,124.492754 Z M1236.21654,135.123615 L1236.21654,186.445013 L1217.10847,186.445013 L1217.10847,102.131287 L1236.21654,102.131287 L1236.21654,114.595055 C1242.76787,104.880648 1253.32281,98.4654731 1262.96784,98.4654731 C1280.25609,98.4654731 1292.63084,107.813299 1292.63084,133.290708 L1292.63084,186.445013 L1273.52277,186.445013 L1273.52277,135.123615 C1273.52277,121.193521 1267.51738,115.87809 1257.50839,115.87809 C1246.58949,115.87809 1236.21654,123.026428 1236.21654,135.123615 Z M1328.29924,144.28815 C1328.29924,161.884058 1339.5821,172.69821 1355.05054,172.69821 C1367.78925,172.69821 1380.89193,163.716965 1380.89193,144.28815 C1380.89193,124.859335 1367.78925,115.87809 1355.05054,115.87809 C1339.5821,115.87809 1328.29924,126.692242 1328.29924,144.28815 Z M1309.00919,144.28815 C1309.00919,115.144928 1328.6632,98.4654731 1351.41091,98.4654731 C1363.96764,98.4654731 1374.52257,105.247229 1380.89193,116.611253 L1380.89193,43.4782609 L1400,43.4782609 L1400,186.445013 L1380.89193,186.445013 L1380.89193,171.965047 C1374.52257,183.329071 1363.96764,190.110827 1351.41091,190.110827 C1328.6632,190.110827 1309.00919,173.431373 1309.00919,144.28815 Z" id="Vue.js-Poland" fill="#D4213D"></path>
        </g>
      </g>
    </g>
  </g>
</svg>
