<?xml version="1.0" encoding="UTF-8"?>
<svg width="240px" height="24px" viewBox="0 0 240 24" version="1.1" xmlns="http://www.w3.org/2000/svg" xmlns:xlink="http://www.w3.org/1999/xlink">
    <!-- Generator: Sketch 55.2 (78181) - https://sketchapp.com -->
    <title>ITCraftship logo / dark@3x</title>
    <desc>Created with Sketch.</desc>
    <defs>
        <polygon id="path-1" points="0 0.796 0 11.732 210 11.732 210 5.214 203.505 5.214 203.505 0.796"></polygon>
        <linearGradient x1="100%" y1="49.9968297%" x2="0%" y2="49.9968297%" id="linearGradient-3">
            <stop stop-color="#08E8B1" offset="0%"></stop>
            <stop stop-color="#77EDF2" offset="100%"></stop>
        </linearGradient>
        <polygon id="path-4" points="0 0.7667 28.3855 0.7667 28.3855 22.9997 0 22.9997"></polygon>
        <polygon id="path-6" points="0 0.7667 28.3855 0.7667 28.3855 22.9997 0 22.9997"></polygon>
    </defs>
    <g id="ITCraftship-logo-/-dark" stroke="none" stroke-width="1" fill="none" fill-rule="evenodd">
        <g id="Group-13">
            <g id="Group-3" transform="translate(28.000000, 11.907800)">
                <mask id="mask-2" fill="white">
                    <use xlink:href="#path-1"></use>
                </mask>
                <g id="Clip-2"></g>
                <polygon id="Fill-1" fill="url(#linearGradient-3)" mask="url(#mask-2)" points="0 0.796 0 11.732 210 11.732 210 5.214 203.505 5.214 203.505 0.796"></polygon>
            </g>
            <g id="Group-12" transform="translate(0.000000, 0.907800)">
                <path d="M224.9375,11.171 C224.6045,11.691 223.4585,12.802 222.9405,13.172 C222.1275,13.765 221.1295,14.025 220.1685,14.025 L214.2545,14.025 L214.2545,22.509 L209.7455,22.509 L209.7455,0.277 L220.1685,0.277 C221.0925,0.277 222.2385,0.611 222.9405,1.129 C223.4585,1.537 224.5665,2.687 224.9375,3.167 C225.4165,3.835 225.6395,4.798 225.6395,5.613 L225.6395,8.763 C225.6395,9.652 225.4165,10.468 224.9375,11.171 L224.9375,11.171 Z M221.1295,5.503 C220.9445,5.205 220.5385,4.798 220.1685,4.612 L214.2545,4.612 L214.2545,9.691 L220.1685,9.691 C220.2795,9.691 220.9085,9.171 221.1295,8.801 L221.1295,5.504 L221.1295,5.503 Z M196.7725,22.508 L201.3185,22.508 L201.3185,0.277 L196.7725,0.277 L196.7725,22.508 Z M183.7245,22.51 L183.7245,13.617 L176.7025,13.617 L176.7025,22.51 L172.1935,22.51 L172.1935,0.277 L176.7025,0.277 L176.7025,9.282 L183.7245,9.282 L183.7245,0.276 L188.2355,0.276 L188.2355,22.51 L183.7245,22.51 Z M164.0985,19.36 C163.7655,19.879 162.1395,21.546 161.6225,21.916 C160.8455,22.473 159.8115,22.733 158.8495,22.733 L153.5275,22.733 C151.3465,22.733 149.6105,20.879 148.6855,19.62 C148.3895,19.286 148.0205,18.435 147.7615,17.915 L152.1595,16.73 C152.5305,17.618 153.1585,18.175 153.5275,18.397 L158.9985,18.397 C159.5155,18.101 160.1805,17.174 160.1805,17.138 L160.1805,14.915 C160.1805,14.766 160.0695,14.692 160.0695,14.692 C157.1505,13.876 154.1565,12.986 151.1995,12.173 C149.1665,11.616 148.1305,9.689 148.1305,7.873 L148.1305,5.835 C148.1305,5.168 148.2415,4.242 148.7225,3.501 C149.0555,3.057 150.5715,1.426 151.1615,0.982 C151.9015,0.463 152.9735,0.092 153.9345,0.092 L158.6665,0.092 C160.8455,0.092 162.6935,1.907 163.5065,3.167 C163.8395,3.724 164.0615,4.094 164.3945,4.835 L160.0695,6.022 C159.6255,5.131 158.9615,4.687 158.5175,4.428 L154.1565,4.428 C153.4165,4.798 152.6405,5.725 152.6405,5.762 L152.6405,7.725 C152.6405,7.873 152.7505,7.947 152.7505,7.947 C155.6705,8.8 158.7025,9.652 161.6595,10.504 C163.6555,11.097 164.6905,13.024 164.6905,14.803 L164.6905,17.025 C164.6905,17.656 164.5795,18.619 164.0985,19.36 L164.0985,19.36 Z M135.6385,4.612 L135.6385,22.51 L131.0915,22.51 L131.0915,4.612 L125.2905,4.612 L125.2905,0.277 L141.4045,0.277 L141.4045,4.613 L135.6385,4.612 Z M108.8405,4.612 L108.8405,9.208 L118.0065,9.208 L118.0065,13.542 L108.8405,13.542 L108.8405,22.51 L104.3315,22.51 L104.3315,0.276 L118.5255,0.276 L118.5255,4.612 L108.8405,4.612 Z M92.9475,22.51 L91.4685,18.249 L83.7435,18.249 C83.2635,19.62 82.7095,21.139 82.2285,22.51 L77.4235,22.51 L85.1115,0.277 L90.1015,0.277 L97.7515,22.51 L92.9475,22.51 Z M87.5885,6.762 C86.7745,9.134 85.9245,11.541 85.1115,13.913 L90.1015,13.913 L87.5885,6.762 Z M70.8085,11.171 C70.4755,11.691 69.3295,12.802 68.8115,13.172 C68.5495,13.368 68.2635,13.53 67.9615,13.654 C69.7355,16.989 72.6175,22.509 72.6175,22.509 L67.5915,22.509 L63.3775,14.025 L60.1255,14.025 L60.1255,22.509 L55.6165,22.509 L55.6165,0.277 L66.0395,0.277 C66.9635,0.277 68.1095,0.611 68.8115,1.129 C69.3295,1.537 70.4375,2.687 70.8085,3.167 C71.2875,3.835 71.5105,4.798 71.5105,5.613 L71.5105,8.763 C71.5105,9.652 71.2875,10.468 70.8085,11.171 L70.8085,11.171 Z M67.0005,5.503 C66.8155,5.205 66.4095,4.798 66.0395,4.612 L60.1255,4.612 L60.1255,9.691 L66.0385,9.691 C66.1495,9.691 66.7785,9.171 67.0005,8.801 L67.0005,5.504 L67.0005,5.503 Z M47.3755,19.582 C46.5235,20.879 44.7125,22.695 42.5315,22.695 L38.2815,22.695 C37.3205,22.695 36.3595,22.51 35.6205,21.991 C34.8435,21.51 33.4395,20.026 32.9225,19.323 C32.4785,18.619 32.2935,17.767 32.2935,17.025 L32.2935,5.909 C32.2935,5.095 32.4415,4.317 32.9215,3.612 C33.2555,3.131 34.9555,1.463 35.5465,1.019 C36.2865,0.5 37.3575,0.13 38.3175,0.13 L42.5325,0.13 C44.7505,0.13 46.4865,2.019 47.3745,3.205 C47.5595,3.465 48.0015,4.205 48.2615,4.872 L43.9365,6.058 C43.3825,4.984 42.8645,4.687 42.3855,4.465 L38.3545,4.465 C37.9845,4.724 37.1355,5.54 36.8025,6.058 L36.8025,17.1 C36.8025,17.174 37.5045,17.988 38.3175,18.36 L42.4195,18.36 C42.9005,18.175 43.4925,17.619 43.9355,16.692 L48.2605,17.878 C48.0385,18.508 47.6685,19.138 47.3735,19.582 L47.3755,19.582 Z" id="Fill-4" fill="#010714"></path>
                <g id="Group-8">
                    <mask id="mask-5" fill="white">
                        <use xlink:href="#path-4"></use>
                    </mask>
                    <g id="Clip-7"></g>
                    <path d="M22.4355,5.1017 L22.4355,22.9997 L17.8895,22.9997 L17.8895,5.1017 L11.9015,5.1017 L11.9015,0.7667 L28.3855,0.7667 L28.3855,5.1017 L22.4355,5.1017 Z M-0.0005,22.9987 L4.5455,22.9987 L4.5455,0.7667 L-0.0005,0.7667 L-0.0005,22.9987 Z" id="Fill-6" fill="#AAF0F2" mask="url(#mask-5)"></path>
                </g>
                <g id="Group-11">
                    <mask id="mask-7" fill="white">
                        <use xlink:href="#path-6"></use>
                    </mask>
                    <g id="Clip-10"></g>
                    <path d="M22.4355,5.1017 L22.4355,22.9997 L17.8895,22.9997 L17.8895,5.1017 L11.9015,5.1017 L11.9015,0.7667 L28.3855,0.7667 L28.3855,5.1017 L22.4355,5.1017 Z M-0.0005,22.9987 L4.5455,22.9987 L4.5455,0.7667 L-0.0005,0.7667 L-0.0005,22.9987 Z" id="Fill-9" fill="#AAF0F2" mask="url(#mask-7)"></path>
                </g>
            </g>
        </g>
    </g>
</svg>