<svg width="400" height="200" viewBox="0 0 400 200" fill="none" xmlns="http://www.w3.org/2000/svg">
<rect x="54" y="74" width="289" height="53" fill="#E44B3B"/>
<path fill-rule="evenodd" clip-rule="evenodd" d="M318.2 95.2V112.2H319.4H320.6V95.2V78.2H319.4H318.2V95.2ZM181.649 95.55L181.7 112.1L183.2 112.238C198.213 113.622 201.793 111.304 201.793 100.2C201.793 89.908 196.911 85.964 188.013 89.069C186.758 89.507 186.8 89.68 186.8 84.088V79H184.199H181.598L181.649 95.55ZM277.8 83.766C277.8 89.124 277.917 88.841 275.8 88.581C268.502 87.682 264.864 88.859 263.088 92.692C260.966 97.271 261.488 107.193 264.011 110.251C266.384 113.126 271.705 113.445 276.6 111.004C277.51 110.551 277.8 110.677 277.8 111.526V112.219L279.05 112.16L280.3 112.1V95.7V79.3L279.05 79.24L277.8 79.181V83.766ZM102.2 79.932C98.944 80.249 89.94 82.604 88.153 83.605C87.962 83.712 87.715 83.8 87.604 83.8C87.422 83.8 86.774 84.086 83.5 85.612C79.728 87.37 77.376 89.613 77.104 91.715C76.971 92.737 77.271 96.301 77.6 97.6C77.697 97.985 77.88 98.75 78.007 99.3C78.134 99.85 78.309 100.525 78.396 100.8C78.483 101.075 78.653 101.66 78.774 102.1C79.29 103.975 80.775 108.276 81.397 109.7C81.493 109.92 82.002 111.09 82.527 112.3C84.348 116.493 85.756 118.755 87.239 119.874C88.599 120.899 93.484 120.556 99.4 119.021C102.631 118.182 105.556 117.298 106.7 116.814C106.92 116.721 107.955 116.303 109 115.884C115.843 113.146 118.207 110.942 118.196 107.314C118.187 104.076 116.091 95.531 114.329 91.545C114.172 91.19 113.901 90.521 113.726 90.057C112.556 86.949 109.914 82.349 108.457 80.88C107.423 79.837 105.76 79.586 102.2 79.932ZM101.926 84.316C103.591 84.8 104.377 85.845 105.45 89C107.862 96.087 108.417 104.833 106.595 107.042C104.444 109.653 91.31 112.133 86.1 110.913C83.653 110.34 82.572 107.852 80.88 98.9C80.53 97.05 80.279 91.303 80.487 89.914C80.884 87.268 84.846 85.457 92.9 84.24C95.06 83.913 100.704 83.961 101.926 84.316ZM87.1 87.123C85.575 87.459 84.294 88.08 84.088 88.582C82.639 92.105 83.477 101.933 85.297 102.762C88.552 104.245 98.048 103.57 99.169 101.775C100.624 99.445 100.132 89.43 98.487 87.906C97.421 86.917 90.265 86.425 87.1 87.123ZM165.756 88.508C161.038 89.798 158.946 93.533 158.926 100.7C158.897 110.862 162.7 113.843 173.7 112.285C174.91 112.114 176.326 111.923 176.846 111.862C178.13 111.71 178.226 111.535 178.158 109.47L178.1 107.7L175.1 107.8C166.313 108.093 164.965 107.688 164.207 104.53C163.73 102.542 163.089 102.714 171.403 102.6L178.7 102.5L178.837 100.6C179.343 93.575 177.313 89.795 172.34 88.502C170.924 88.133 167.112 88.137 165.756 88.508ZM215.5 88.446C213.88 88.996 211.242 90.103 210.769 90.431C210.477 90.634 210.18 90.8 210.109 90.8C210.037 90.8 209.648 91.025 209.243 91.3C208.213 92 208.2 91.986 208.2 90.2V88.6H206.9H205.6V100.41V112.219L206.85 112.16L208.1 112.1L208.152 103.291L208.204 94.482L209.252 93.856C211.223 92.678 213.881 91.593 216.55 90.879C216.718 90.835 216.8 90.382 216.8 89.506C216.8 88.073 216.741 88.025 215.5 88.446ZM224.698 88.487C219.668 89.49 217.808 92.706 217.808 100.4C217.807 109.634 220.156 112.571 227.561 112.593C232.248 112.606 234.701 111.386 236.081 108.353C237.871 104.422 237.82 96.403 235.982 92.599C234.307 89.132 229.765 87.477 224.698 88.487ZM246.6 88.423C245.775 88.517 244.491 88.685 243.746 88.796C243.002 88.908 242.134 89 241.818 89C241.132 89 241.044 89.195 241.157 90.469L241.243 91.438L242.072 91.335C252.378 90.051 254.541 90.801 254.761 95.734L254.852 97.79L254.313 97.995C254.017 98.108 253.352 98.2 252.837 98.2C252.322 98.2 251.18 98.285 250.3 98.39C249.42 98.495 247.8 98.685 246.7 98.812C241.41 99.422 239.933 100.899 239.911 105.6C239.882 112.14 243.205 113.84 252.1 111.833C252.54 111.734 253.305 111.507 253.8 111.329C254.925 110.925 255.284 110.92 255.603 111.304C256.156 111.97 258.3 112.665 259.5 112.566L260.3 112.5L260.359 111.496L260.418 110.493L259.499 110.221C258.994 110.072 258.315 109.685 257.991 109.36L257.4 108.769L257.393 101.535C257.384 92.906 257.238 91.929 255.704 90.231C254.088 88.442 251.311 87.89 246.6 88.423ZM303.2 88.502C301.753 88.831 300.323 89.335 299.143 89.931C298 90.508 297.8 90.427 297.8 89.388V88.6H296.604C295.046 88.6 295.181 86.862 295.245 106.1L295.3 122.7L296.547 122.759L297.793 122.819L297.847 117.559L297.9 112.3L298.8 112.344C307.421 112.765 308.842 112.526 311.084 110.284C314.82 106.549 314.957 94.359 311.308 90.43C309.529 88.514 306.41 87.772 303.2 88.502ZM125.005 88.844C125.008 88.985 125.105 89.505 125.221 90C125.337 90.495 125.515 91.328 125.616 91.85C125.717 92.373 125.898 93.273 126.018 93.85C126.304 95.233 126.469 96.062 126.984 98.7C127.22 99.91 127.506 101.305 127.62 101.8C127.901 103.017 128.123 104.068 128.4 105.5C128.528 106.16 128.708 107.06 128.8 107.5C129.048 108.686 129.392 110.393 129.565 111.3L129.718 112.1H134.006H138.293L138.454 111.3C138.665 110.25 138.954 108.893 139.179 107.9C139.278 107.46 139.468 106.605 139.6 106C139.732 105.395 139.912 104.585 139.999 104.2C140.086 103.815 140.31 102.78 140.496 101.9C140.683 101.02 140.928 99.895 141.041 99.4C141.154 98.905 141.304 98.14 141.373 97.7C141.452 97.201 141.607 96.9 141.785 96.9C142.074 96.9 142.322 97.894 143.799 104.95C143.908 105.472 144.077 106.26 144.175 106.7C144.272 107.14 144.549 108.4 144.788 109.5C145.028 110.6 145.27 111.658 145.326 111.85C145.418 112.169 145.801 112.2 149.682 112.2H153.936L154.184 111.05C154.321 110.418 154.515 109.54 154.616 109.1C154.788 108.349 156.274 101.051 156.611 99.3C156.985 97.355 157.2 96.289 157.878 93C158.275 91.075 158.655 89.298 158.723 89.05C158.846 88.601 158.842 88.6 156.348 88.6C153.544 88.6 153.513 88.615 153.34 90C153.279 90.495 153.137 91.395 153.026 92C151.89 98.196 151.496 100.299 151.004 102.8C150.906 103.295 150.721 104.33 150.592 105.1C150.255 107.118 150.113 107.4 149.436 107.4C148.903 107.4 148.846 107.322 148.604 106.25C147.709 102.284 146.663 97.81 146.395 96.8C146.142 95.845 144.963 90.63 144.849 89.956C144.697 89.06 144.432 88.984 141.68 89.044L139.116 89.1L138.947 89.8C138.855 90.185 138.702 90.815 138.609 91.2C138.516 91.585 138.336 92.35 138.21 92.9C138.084 93.45 137.906 94.215 137.814 94.6C137.723 94.985 137.402 96.38 137.102 97.7C136.802 99.02 136.471 100.46 136.367 100.9C136.263 101.34 136.098 102.06 136.001 102.5C135.83 103.27 135.704 103.816 135.149 106.2C134.911 107.22 134.848 107.304 134.269 107.361C133.544 107.432 133.569 107.506 132.704 102.7C132.427 101.16 132.11 99.428 132 98.85C131.89 98.273 131.713 97.328 131.606 96.75C131.499 96.173 131.324 95.25 131.216 94.7C131.109 94.15 130.87 92.845 130.687 91.8C130.503 90.755 130.291 89.63 130.214 89.3L130.075 88.7L127.538 88.644C125.578 88.601 125.001 88.646 125.005 88.844ZM230.124 90.916C233.385 91.863 234.6 94.526 234.6 100.722C234.6 108.016 232.916 110.363 227.66 110.393C221.957 110.426 220.101 107.454 220.484 98.9C220.72 93.634 221.797 91.709 225 90.828C226.125 90.519 228.925 90.567 230.124 90.916ZM275.2 90.831C278.087 91.153 277.8 90.174 277.8 99.693C277.8 108.814 277.893 108.163 276.5 108.785C268.244 112.475 264.414 109.913 264.414 100.7C264.414 92.093 266.813 89.898 275.2 90.831ZM307.638 91.074C310.062 92.256 311.2 95.205 311.2 100.3C311.199 108.434 308.397 111.111 300.836 110.198C299.661 110.056 298.498 109.865 298.25 109.775L297.8 109.61V101.336C297.8 91.72 297.498 92.81 300.5 91.598C303.04 90.572 306.143 90.345 307.638 91.074ZM171.054 93.012C172.64 93.452 173.8 95.386 173.8 97.591V98.607L168.95 98.554L164.1 98.5L164.033 97.916C163.631 94.388 167.152 91.928 171.054 93.012ZM194.523 93.715C196.787 95.548 197.3 103.284 195.347 106.137C194.319 107.639 189.317 108.625 187.15 107.753C186.697 107.571 186.6 93.95 187.05 93.666C188.406 92.81 193.447 92.843 194.523 93.715ZM254.754 104.422C254.815 109.052 254.913 108.747 253.192 109.273C246.554 111.299 243.331 110.622 242.589 107.047C242.02 104.306 242.923 102.154 245.019 101.259C245.808 100.922 252.311 100.208 254 100.273L254.7 100.3L254.754 104.422ZM286 109.9V112.2H287.4H288.8V109.9V107.6H287.4H286V109.9Z" fill="#FBF8F8"/>
<path fill-rule="evenodd" clip-rule="evenodd" d="M318.04 78.04C317.856 78.224 317.811 82.272 317.848 95.29L317.897 112.3L317.998 95.2L318.1 78.1H319.431C320.164 78.1 320.721 78.033 320.67 77.95C320.517 77.704 318.3 77.78 318.04 78.04ZM181.495 95.5C181.495 104.41 181.52 108.084 181.55 103.665C181.58 99.246 181.58 91.956 181.55 87.465C181.52 82.974 181.495 86.59 181.495 95.5ZM277.486 84C277.486 86.475 277.514 87.488 277.549 86.25C277.584 85.013 277.584 82.988 277.549 81.75C277.514 80.513 277.486 81.525 277.486 84ZM97.35 84.145C97.708 84.189 98.293 84.189 98.65 84.145C99.008 84.1 98.715 84.064 98 84.064C97.285 84.064 96.993 84.1 97.35 84.145ZM168.55 87.941C168.798 87.989 169.203 87.989 169.45 87.941C169.697 87.893 169.495 87.854 169 87.854C168.505 87.854 168.303 87.893 168.55 87.941ZM192.552 87.941C192.801 87.989 193.161 87.987 193.352 87.937C193.544 87.887 193.34 87.848 192.9 87.85C192.46 87.853 192.304 87.894 192.552 87.941ZM216.997 89.359L217.095 90.7L217.158 89.521C217.193 88.872 217.149 88.269 217.061 88.18C216.972 88.091 216.944 88.622 216.997 89.359ZM226.75 88.146C227.218 88.189 227.982 88.189 228.45 88.146C228.918 88.104 228.535 88.07 227.6 88.07C226.665 88.07 226.282 88.104 226.75 88.146ZM249.056 88.147C249.582 88.189 250.392 88.188 250.856 88.146C251.32 88.104 250.89 88.07 249.9 88.071C248.91 88.072 248.53 88.106 249.056 88.147ZM270.75 88.146C271.218 88.189 271.983 88.189 272.45 88.146C272.918 88.104 272.535 88.07 271.6 88.07C270.665 88.07 270.282 88.104 270.75 88.146ZM304.946 88.144C305.301 88.189 305.931 88.189 306.346 88.146C306.76 88.103 306.47 88.067 305.7 88.066C304.93 88.065 304.59 88.1 304.946 88.144ZM78.287 88.85L77.7 89.5L78.35 88.913C78.708 88.59 79 88.297 79 88.263C79 88.108 78.835 88.244 78.287 88.85ZM126.258 88.548C127.005 88.587 128.175 88.587 128.858 88.548C129.541 88.509 128.93 88.477 127.5 88.478C126.07 88.478 125.511 88.51 126.258 88.548ZM156.187 88.547C158.436 88.603 158.784 88.656 158.856 88.956C158.917 89.208 158.934 89.193 158.92 88.9C158.901 88.522 158.757 88.5 156.25 88.491L153.599 88.482L156.187 88.547ZM208.2 89.953C208.266 90.956 208.386 91.486 208.555 91.519C208.695 91.547 208.718 91.524 208.605 91.468C208.492 91.412 208.4 90.749 208.4 89.995C208.4 89.241 208.332 88.582 208.25 88.53C208.168 88.479 208.145 89.119 208.2 89.953ZM295.092 88.65C295.04 88.788 295.02 96.55 295.05 105.9L295.102 122.9L295.151 105.759L295.2 88.618L296.55 88.548L297.9 88.478L296.544 88.439C295.612 88.412 295.158 88.478 295.092 88.65ZM298 89.288C298 89.667 298.069 90.019 298.154 90.071C298.238 90.124 298.274 89.814 298.233 89.383C298.14 88.416 298 88.359 298 89.288ZM138.933 88.933C138.86 89.007 138.801 89.164 138.803 89.283C138.805 89.416 138.866 89.406 138.961 89.256C139.068 89.088 139.988 88.992 141.908 88.95L144.7 88.888L141.883 88.844C140.334 88.82 139.007 88.86 138.933 88.933ZM310.8 89.663C310.8 89.697 311.093 89.99 311.45 90.313L312.1 90.9L311.513 90.25C310.965 89.644 310.8 89.508 310.8 89.663ZM176 90.063C176 90.097 176.293 90.39 176.65 90.713L177.3 91.3L176.713 90.65C176.165 90.044 176 89.908 176 90.063ZM80.473 92.5C80.474 93.6 80.507 94.024 80.548 93.443C80.588 92.862 80.588 91.962 80.547 91.443C80.506 90.924 80.473 91.4 80.473 92.5ZM249.35 90.941C249.597 90.989 250.003 90.989 250.25 90.941C250.498 90.893 250.295 90.854 249.8 90.854C249.305 90.854 249.103 90.893 249.35 90.941ZM246.45 91.138C246.643 91.188 246.957 91.188 247.15 91.138C247.343 91.088 247.185 91.046 246.8 91.046C246.415 91.046 246.257 91.088 246.45 91.138ZM277.491 99.8C277.491 104.365 277.518 106.233 277.55 103.95C277.582 101.668 277.582 97.933 277.55 95.65C277.518 93.368 277.491 95.235 277.491 99.8ZM191.552 93.141C191.801 93.189 192.161 93.187 192.352 93.137C192.544 93.087 192.34 93.048 191.9 93.05C191.46 93.053 191.304 93.094 191.552 93.141ZM298.091 101.2C298.091 105.765 298.118 107.633 298.15 105.35C298.182 103.068 298.182 99.333 298.15 97.05C298.118 94.768 298.091 96.635 298.091 101.2ZM100.273 96.1C100.274 97.2 100.307 97.624 100.348 97.043C100.388 96.462 100.388 95.562 100.347 95.043C100.306 94.524 100.273 95 100.273 96.1ZM257.49 101.3C257.49 105.26 257.517 106.908 257.55 104.963C257.582 103.018 257.582 99.778 257.55 97.763C257.517 95.748 257.49 97.34 257.49 101.3ZM208.248 103.441L208.2 112.182L206.85 112.252L205.5 112.322L206.856 112.361C208.571 112.41 208.414 113.362 208.35 103.3L208.296 94.7L208.248 103.441ZM201.857 97.9C201.859 98.45 201.898 98.651 201.944 98.347C201.989 98.043 201.988 97.593 201.941 97.347C201.893 97.101 201.856 97.35 201.857 97.9ZM220.657 98.3C220.659 98.85 220.698 99.051 220.744 98.747C220.789 98.443 220.788 97.993 220.741 97.747C220.693 97.501 220.656 97.75 220.657 98.3ZM237.478 100.3C237.478 101.73 237.51 102.289 237.548 101.542C237.587 100.795 237.587 99.625 237.548 98.942C237.509 98.259 237.477 98.87 237.478 100.3ZM166.75 98.549C167.988 98.584 170.013 98.584 171.25 98.549C172.488 98.514 171.475 98.486 169 98.486C166.525 98.486 165.513 98.514 166.75 98.549ZM247.05 98.538C247.243 98.588 247.558 98.588 247.75 98.538C247.943 98.488 247.785 98.446 247.4 98.446C247.015 98.446 246.857 98.488 247.05 98.538ZM314.072 100.2C314.072 101.245 314.106 101.673 314.147 101.15C314.188 100.627 314.188 99.773 314.147 99.25C314.106 98.728 314.072 99.155 314.072 100.2ZM196.271 100.3C196.27 101.29 196.304 101.72 196.346 101.256C196.388 100.792 196.389 99.982 196.347 99.456C196.306 98.93 196.272 99.31 196.271 100.3ZM217.46 100.2C217.46 100.805 217.497 101.053 217.543 100.75C217.589 100.448 217.589 99.953 217.543 99.65C217.497 99.348 217.46 99.595 217.46 100.2ZM261.462 100.7C261.463 101.36 261.5 101.606 261.545 101.246C261.589 100.887 261.589 100.347 261.543 100.046C261.497 99.746 261.461 100.04 261.462 100.7ZM264.462 100.7C264.463 101.36 264.5 101.606 264.545 101.246C264.589 100.887 264.589 100.347 264.543 100.046C264.497 99.746 264.461 100.04 264.462 100.7ZM107.47 102.2C107.47 103.135 107.504 103.517 107.546 103.05C107.589 102.583 107.589 101.817 107.546 101.35C107.504 100.883 107.47 101.265 107.47 102.2ZM220.657 102.3C220.659 102.85 220.698 103.051 220.744 102.747C220.789 102.443 220.788 101.993 220.741 101.747C220.693 101.501 220.656 101.75 220.657 102.3ZM201.854 102.4C201.854 102.895 201.893 103.097 201.941 102.85C201.989 102.603 201.989 102.198 201.941 101.95C201.893 101.703 201.854 101.905 201.854 102.4ZM168.15 102.95C170.048 102.983 173.153 102.983 175.05 102.95C176.947 102.917 175.395 102.89 171.6 102.89C167.805 102.89 166.253 102.917 168.15 102.95ZM89.05 103.738C89.243 103.788 89.558 103.788 89.75 103.738C89.942 103.688 89.785 103.646 89.4 103.646C89.015 103.646 88.858 103.688 89.05 103.738ZM93.152 103.741C93.401 103.789 93.761 103.787 93.952 103.737C94.144 103.687 93.94 103.648 93.5 103.65C93.06 103.653 92.904 103.694 93.152 103.741ZM175.65 107.538C175.843 107.588 176.158 107.588 176.35 107.538C176.543 107.488 176.385 107.446 176 107.446C175.615 107.446 175.458 107.488 175.65 107.538ZM187.176 107.656C187.272 107.752 187.61 107.799 187.926 107.76C188.454 107.694 188.44 107.68 187.75 107.584C187.32 107.525 187.075 107.555 187.176 107.656ZM173.053 107.744C173.357 107.789 173.807 107.788 174.053 107.741C174.299 107.693 174.05 107.656 173.5 107.657C172.95 107.659 172.749 107.698 173.053 107.744ZM178.27 109.2C178.27 110.135 178.304 110.517 178.346 110.05C178.389 109.583 178.389 108.817 178.346 108.35C178.304 107.883 178.27 108.265 178.27 109.2ZM289.042 109.865L289 112.23L287.418 112.165C286.549 112.129 285.879 112.168 285.93 112.25C286.103 112.527 289.003 112.424 289.113 112.137C289.169 111.993 289.185 110.89 289.15 109.687L289.085 107.5L289.042 109.865ZM234.789 110.55L234.1 111.3L234.85 110.611C235.548 109.969 235.692 109.8 235.539 109.8C235.506 109.8 235.168 110.138 234.789 110.55ZM226.75 110.146C227.218 110.189 227.982 110.189 228.45 110.146C228.918 110.104 228.535 110.07 227.6 110.07C226.665 110.07 226.282 110.104 226.75 110.146ZM269.75 110.141C269.998 110.189 270.403 110.189 270.65 110.141C270.897 110.093 270.695 110.054 270.2 110.054C269.705 110.054 269.502 110.093 269.75 110.141ZM302.55 110.146C303.018 110.189 303.782 110.189 304.25 110.146C304.718 110.104 304.335 110.07 303.4 110.07C302.465 110.07 302.082 110.104 302.55 110.146ZM91.45 110.938C91.642 110.988 91.958 110.988 92.15 110.938C92.343 110.888 92.185 110.846 91.8 110.846C91.415 110.846 91.258 110.888 91.45 110.938ZM276.908 110.987C276.832 111.11 276.901 111.149 277.076 111.082C277.295 110.998 277.389 111.142 277.436 111.634L277.5 112.3L279 112.315L280.5 112.33L279.062 112.257L277.624 112.183L277.562 111.557C277.499 110.92 277.142 110.609 276.908 110.987ZM131.639 112.349C132.815 112.384 134.795 112.385 136.039 112.349C137.283 112.314 136.32 112.285 133.9 112.285C131.48 112.285 130.463 112.314 131.639 112.349ZM147.439 112.349C148.615 112.384 150.595 112.385 151.839 112.349C153.083 112.314 152.12 112.285 149.7 112.285C147.28 112.285 146.263 112.314 147.439 112.349ZM298.096 112.45C297.938 112.885 297.893 122.967 298.05 122.869C298.132 122.818 298.2 120.449 298.2 117.605C298.2 113.655 298.259 112.41 298.45 112.332C298.646 112.253 298.644 112.228 298.444 112.216C298.303 112.207 298.146 112.313 298.096 112.45ZM318.746 112.344C319.101 112.389 319.731 112.389 320.146 112.346C320.56 112.303 320.27 112.267 319.5 112.266C318.73 112.265 318.39 112.3 318.746 112.344ZM186.552 112.741C186.801 112.789 187.161 112.787 187.352 112.737C187.544 112.687 187.34 112.648 186.9 112.65C186.46 112.653 186.304 112.694 186.552 112.741ZM167.95 112.946C168.418 112.989 169.183 112.989 169.65 112.946C170.118 112.904 169.735 112.87 168.8 112.87C167.865 112.87 167.483 112.904 167.95 112.946ZM189.656 112.947C190.182 112.989 190.992 112.988 191.456 112.946C191.92 112.904 191.49 112.87 190.5 112.871C189.51 112.872 189.13 112.906 189.656 112.947ZM226.75 112.946C227.218 112.989 227.982 112.989 228.45 112.946C228.918 112.904 228.535 112.87 227.6 112.87C226.665 112.87 226.282 112.904 226.75 112.946ZM245.55 112.945C245.907 112.989 246.493 112.989 246.85 112.945C247.207 112.9 246.915 112.864 246.2 112.864C245.485 112.864 245.193 112.9 245.55 112.945ZM269.354 112.945C269.713 112.989 270.253 112.989 270.554 112.943C270.854 112.897 270.56 112.861 269.9 112.862C269.24 112.863 268.994 112.9 269.354 112.945ZM302.95 112.946C303.418 112.989 304.183 112.989 304.65 112.946C305.118 112.904 304.735 112.87 303.8 112.87C302.865 112.87 302.483 112.904 302.95 112.946ZM89.45 120.746C89.863 120.789 90.538 120.789 90.95 120.746C91.363 120.703 91.025 120.667 90.2 120.667C89.375 120.667 89.038 120.703 89.45 120.746Z" fill="#F08D84"/>
<path fill-rule="evenodd" clip-rule="evenodd" d="M318.096 78.24C318.041 78.383 318.02 86.105 318.05 95.4L318.102 112.3L318.151 95.25L318.2 78.2H319.399H320.598L320.651 95.15L320.703 112.1L320.702 95.1L320.7 78.1L319.447 78.04C318.56 77.998 318.166 78.056 318.096 78.24ZM181.495 79.008C181.421 79.128 181.414 79.281 181.48 79.347C181.546 79.413 181.6 79.362 181.6 79.233C181.6 79.068 182.352 79 184.2 79H186.8V84.088C186.8 89.259 186.855 89.636 187.548 89.201C187.854 89.01 187.841 88.997 187.453 89.103L187.007 89.225L186.953 84.062L186.9 78.9L184.265 78.844C182.515 78.807 181.585 78.862 181.495 79.008ZM277.698 79.204C277.628 79.316 277.581 81.433 277.593 83.908L277.614 88.408L277.157 88.591C276.881 88.702 276.823 88.78 277.01 88.787C277.739 88.817 277.8 88.428 277.8 83.743V79.166L279.082 79.233C279.786 79.27 280.321 79.233 280.27 79.15C280.128 78.923 277.842 78.971 277.698 79.204ZM102 79.78C101.615 79.85 102.622 79.906 104.238 79.904C105.853 79.902 107.023 79.839 106.838 79.764C106.419 79.595 102.95 79.607 102 79.78ZM99.5 80.2L99.1 80.372L99.5 80.366C99.72 80.363 100.125 80.288 100.4 80.2L100.9 80.04L100.4 80.034C100.125 80.031 99.72 80.105 99.5 80.2ZM97.5 80.6L97.1 80.772H97.5C97.72 80.772 98.08 80.695 98.3 80.6L98.7 80.428H98.3C98.08 80.428 97.72 80.505 97.5 80.6ZM95.8 81C95.398 81.129 95.378 81.161 95.7 81.166C95.92 81.169 96.28 81.095 96.5 81C97.01 80.781 96.484 80.781 95.8 81ZM94.3 81.4L93.9 81.572L94.3 81.583C94.52 81.589 94.835 81.507 95 81.4C95.398 81.143 94.898 81.143 94.3 81.4ZM110.574 83.7C110.682 83.92 110.917 84.28 111.096 84.5L111.422 84.9L111.226 84.5C111.118 84.28 110.883 83.92 110.704 83.7L110.378 83.3L110.574 83.7ZM93.5 84.201C93.17 84.285 93.755 84.307 94.8 84.249C95.845 84.191 96.738 84.112 96.783 84.072C96.941 83.936 94.1 84.047 93.5 84.201ZM99.217 84.073C99.263 84.113 99.885 84.193 100.6 84.251C101.363 84.313 101.735 84.289 101.5 84.192C101.113 84.033 99.048 83.925 99.217 84.073ZM84.696 84.885C83.928 85.262 83.357 85.577 83.428 85.585C83.601 85.605 86.2 84.383 86.2 84.281C86.2 84.151 86.159 84.167 84.696 84.885ZM90.7 84.61C90.431 84.733 90.627 84.752 91.3 84.67C91.85 84.604 92.338 84.515 92.383 84.474C92.559 84.318 91.08 84.437 90.7 84.61ZM102.5 84.633C103.346 85.101 103.881 85.75 104.536 87.1C104.91 87.87 105.155 88.275 105.082 88C104.634 86.327 103.103 84.375 102.263 84.406C102.173 84.409 102.28 84.512 102.5 84.633ZM88.7 85C88.19 85.219 88.716 85.219 89.4 85C89.802 84.871 89.822 84.839 89.5 84.834C89.28 84.831 88.92 84.905 88.7 85ZM87 85.4C86.598 85.529 86.578 85.561 86.9 85.566C87.12 85.569 87.48 85.495 87.7 85.4C88.21 85.181 87.684 85.181 87 85.4ZM81.65 86.423C80.968 86.86 80.748 87.153 81.35 86.822C81.809 86.569 82.528 86.014 82.4 86.01C82.345 86.008 82.008 86.194 81.65 86.423ZM84.45 86.206C83.78 86.475 83.905 86.612 84.6 86.37C84.93 86.255 85.2 86.125 85.2 86.08C85.2 85.962 84.957 86.003 84.45 86.206ZM82.95 86.914C82.175 87.335 82.262 87.48 83.05 87.08C83.804 86.696 83.937 86.597 83.683 86.608C83.583 86.612 83.252 86.75 82.95 86.914ZM90.25 86.749C91.103 86.786 92.498 86.786 93.35 86.749C94.203 86.711 93.505 86.68 91.8 86.68C90.095 86.68 89.398 86.711 90.25 86.749ZM86.1 87.2C85.59 87.419 86.116 87.419 86.8 87.2C87.202 87.071 87.222 87.039 86.9 87.034C86.68 87.031 86.32 87.105 86.1 87.2ZM96.8 87.2C97.484 87.419 98.01 87.419 97.5 87.2C97.28 87.105 96.92 87.031 96.7 87.034C96.378 87.039 96.398 87.071 96.8 87.2ZM98.45 87.863C98.752 88.148 99 88.49 99 88.624C99 88.757 99.052 88.814 99.116 88.75C99.306 88.56 98.825 87.827 98.345 87.577C97.977 87.384 97.995 87.433 98.45 87.863ZM112.617 87.5C112.617 87.61 112.789 88.015 113 88.4C113.211 88.785 113.383 89.01 113.383 88.9C113.383 88.79 113.211 88.385 113 88C112.789 87.615 112.617 87.39 112.617 87.5ZM168.157 88.148C168.738 88.188 169.638 88.188 170.157 88.147C170.676 88.106 170.2 88.073 169.1 88.073C168 88.074 167.576 88.107 168.157 88.148ZM192.15 88.146C192.618 88.189 193.383 88.189 193.85 88.146C194.317 88.104 193.935 88.07 193 88.07C192.065 88.07 191.683 88.104 192.15 88.146ZM216.568 88.158C216.759 88.292 216.817 88.725 216.768 89.664C216.731 90.389 216.772 90.909 216.86 90.821C217.155 90.524 216.931 88.14 216.6 88.051C216.36 87.986 216.354 88.007 216.568 88.158ZM165.6 88.4C165.198 88.529 165.178 88.561 165.5 88.566C165.72 88.569 166.08 88.495 166.3 88.4C166.81 88.181 166.284 88.181 165.6 88.4ZM171.9 88.4C172.12 88.495 172.48 88.572 172.7 88.572H173.1L172.7 88.4C172.48 88.305 172.12 88.228 171.9 88.228H171.5L171.9 88.4ZM189.6 88.4C189.198 88.529 189.178 88.561 189.5 88.566C189.72 88.569 190.08 88.495 190.3 88.4C190.81 88.181 190.284 88.181 189.6 88.4ZM195.5 88.4C195.72 88.495 196.08 88.569 196.3 88.566C196.622 88.561 196.602 88.529 196.2 88.4C195.516 88.181 194.99 88.181 195.5 88.4ZM215.2 88.4C214.788 88.532 214.77 88.563 215.1 88.577C215.32 88.586 215.635 88.507 215.8 88.4C216.15 88.174 215.907 88.174 215.2 88.4ZM224.4 88.4C223.728 88.615 224.454 88.615 225.3 88.4C225.839 88.263 225.849 88.247 225.4 88.244C225.125 88.242 224.675 88.312 224.4 88.4ZM229.8 88.4C230.075 88.488 230.525 88.558 230.8 88.556C231.249 88.553 231.239 88.537 230.7 88.4C229.854 88.185 229.128 88.185 229.8 88.4ZM245.5 88.4C244.545 88.531 244.536 88.538 245.3 88.551C245.74 88.559 246.55 88.495 247.1 88.409C248.45 88.199 247.025 88.191 245.5 88.4ZM252.1 88.4C252.32 88.495 252.68 88.569 252.9 88.566C253.222 88.561 253.202 88.529 252.8 88.4C252.116 88.181 251.59 88.181 252.1 88.4ZM268.5 88.4C267.961 88.537 267.951 88.553 268.4 88.556C268.675 88.558 269.125 88.488 269.4 88.4C270.072 88.185 269.346 88.185 268.5 88.4ZM274.2 88.41C274.695 88.498 275.415 88.565 275.8 88.558C276.372 88.549 276.318 88.518 275.5 88.391C274.126 88.177 272.984 88.194 274.2 88.41ZM303 88.4C302.604 88.527 302.583 88.56 302.9 88.56C303.12 88.56 303.525 88.488 303.8 88.4C304.196 88.273 304.217 88.24 303.9 88.24C303.68 88.24 303.275 88.312 303 88.4ZM307.4 88.4C307.675 88.488 308.08 88.56 308.3 88.56C308.617 88.56 308.596 88.527 308.2 88.4C307.925 88.312 307.52 88.24 307.3 88.24C306.983 88.24 307.004 88.273 307.4 88.4ZM80.794 88.811C80.673 89.037 80.604 89.311 80.64 89.42C80.676 89.528 80.809 89.343 80.936 89.009C81.198 88.312 81.12 88.203 80.794 88.811ZM205.492 88.65C205.439 88.788 205.42 94.165 205.45 100.6L205.503 112.3L205.552 100.46L205.6 88.619L206.85 88.548L208.1 88.477L206.844 88.439C205.993 88.412 205.557 88.481 205.492 88.65ZM174.323 89.188C174.996 89.523 175.92 90.203 176.377 90.698C176.834 91.194 177.27 91.6 177.346 91.6C178.045 91.6 174.658 88.988 173.6 88.711C173.325 88.639 173.65 88.854 174.323 89.188ZM222.45 88.995C221.982 89.207 221.6 89.425 221.6 89.479C221.6 89.57 223.395 88.841 223.583 88.674C223.8 88.482 223.216 88.647 222.45 88.995ZM231.4 88.649C231.562 88.809 233.4 89.585 233.4 89.494C233.4 89.448 233.153 89.284 232.85 89.13C232.251 88.826 231.239 88.49 231.4 88.649ZM242.3 88.8L241.5 88.943L242.2 88.948C242.585 88.951 243.17 88.884 243.5 88.8C244.314 88.593 243.457 88.593 242.3 88.8ZM297.83 89.338C297.792 90.393 297.996 90.517 298.944 90.017C299.36 89.797 299.628 89.614 299.54 89.609C299.452 89.604 299.113 89.738 298.786 89.907C298.133 90.245 298.082 90.197 297.939 89.1C297.877 88.631 297.853 88.683 297.83 89.338ZM309.613 89.095C310.116 89.356 310.858 89.937 311.263 90.385C311.668 90.833 312.063 91.2 312.141 91.2C312.219 91.2 311.882 90.788 311.392 90.283C310.588 89.457 309.268 88.585 308.858 88.609C308.771 88.614 309.111 88.833 309.613 89.095ZM99.228 89.2C99.228 89.365 99.305 89.68 99.4 89.9C99.508 90.152 99.572 90.189 99.572 90C99.572 89.835 99.495 89.52 99.4 89.3C99.292 89.048 99.228 89.011 99.228 89.2ZM197.6 89.047C197.655 89.107 198.15 89.493 198.7 89.906C199.289 90.348 199.52 90.46 199.262 90.178C199.021 89.915 198.526 89.529 198.162 89.319C197.798 89.109 197.545 88.987 197.6 89.047ZM240.928 89.155C240.651 89.602 241.11 91.501 241.5 91.52C241.804 91.535 241.816 91.519 241.55 91.456C241.219 91.377 241.066 90.54 241.166 89.35C241.197 88.982 241.089 88.894 240.928 89.155ZM254.942 89.51C255.295 89.789 255.82 90.305 256.108 90.658C256.396 91.011 256.54 91.112 256.427 90.883C256.205 90.434 254.696 88.999 254.449 89.002C254.367 89.003 254.589 89.232 254.942 89.51ZM265.85 89.398C265.493 89.616 265.2 89.837 265.2 89.89C265.2 89.943 265.515 89.801 265.9 89.573C266.285 89.346 266.6 89.124 266.6 89.08C266.6 88.952 266.537 88.979 265.85 89.398ZM77.699 89.601C77.499 89.822 77.383 90.05 77.441 90.107C77.499 90.165 77.695 89.985 77.878 89.706C78.276 89.098 78.197 89.051 77.699 89.601ZM83.511 89.911C83.436 90.312 83.414 90.681 83.463 90.73C83.512 90.779 83.614 90.49 83.689 90.089C83.764 89.688 83.786 89.319 83.737 89.27C83.688 89.221 83.586 89.51 83.511 89.911ZM158.528 89.642C158.461 89.894 158.413 90.28 158.423 90.5C158.432 90.72 158.523 90.549 158.623 90.12C158.818 89.289 158.735 88.87 158.528 89.642ZM138.823 89.634C138.81 89.817 138.748 90.132 138.685 90.334C138.576 90.681 138.582 90.681 138.798 90.344C138.924 90.148 138.986 89.833 138.937 89.644C138.855 89.334 138.844 89.333 138.823 89.634ZM144.834 89.9C144.831 90.12 144.905 90.48 145 90.7C145.219 91.21 145.219 90.684 145 90C144.871 89.598 144.839 89.578 144.834 89.9ZM153.12 90.42C153.047 90.878 153.026 91.292 153.074 91.34C153.121 91.388 153.223 91.055 153.3 90.6C153.377 90.145 153.398 89.731 153.346 89.68C153.295 89.629 153.193 89.962 153.12 90.42ZM105.606 90C105.606 90.165 105.693 90.435 105.8 90.6C105.972 90.867 105.994 90.867 105.994 90.6C105.994 90.435 105.907 90.165 105.8 90C105.628 89.733 105.606 89.733 105.606 90ZM264.287 90.65L263.7 91.3L264.35 90.713C264.956 90.165 265.092 90 264.937 90C264.903 90 264.61 90.293 264.287 90.65ZM125.24 90.7C125.24 90.92 125.312 91.325 125.4 91.6C125.527 91.996 125.56 92.017 125.56 91.7C125.56 91.48 125.488 91.075 125.4 90.8C125.273 90.404 125.24 90.383 125.24 90.7ZM99.64 91C99.64 91.275 99.712 91.725 99.8 92L99.96 92.5V92C99.96 91.725 99.888 91.275 99.8 91L99.64 90.5V91ZM226.557 90.748C227.138 90.788 228.038 90.788 228.557 90.747C229.076 90.706 228.6 90.673 227.5 90.673C226.4 90.674 225.976 90.707 226.557 90.748ZM270.95 90.747C271.528 90.788 272.473 90.788 273.05 90.747C273.627 90.707 273.155 90.674 272 90.674C270.845 90.674 270.373 90.707 270.95 90.747ZM304.45 90.746C304.863 90.789 305.538 90.789 305.95 90.746C306.363 90.703 306.025 90.667 305.2 90.667C304.375 90.667 304.038 90.703 304.45 90.746ZM247.15 90.945C247.507 90.989 248.093 90.989 248.45 90.945C248.808 90.9 248.515 90.864 247.8 90.864C247.085 90.864 246.793 90.9 247.15 90.945ZM274.65 90.938C274.843 90.988 275.157 90.988 275.35 90.938C275.543 90.888 275.385 90.846 275 90.846C274.615 90.846 274.457 90.888 274.65 90.938ZM138.325 91.625C138.158 92.459 138.32 92.62 138.5 91.8C138.576 91.454 138.596 91.13 138.545 91.079C138.494 91.028 138.395 91.274 138.325 91.625ZM215.4 91.209C215.181 91.357 215.262 91.376 215.7 91.278C216.435 91.113 216.595 90.999 216.083 91.003C215.873 91.005 215.565 91.097 215.4 91.209ZM231.179 91.527C231.818 91.845 232.467 92.372 232.818 92.857C233.138 93.299 233.4 93.593 233.4 93.511C233.4 92.876 231.175 91 230.422 91C230.257 91 230.597 91.237 231.179 91.527ZM244.35 91.145C244.707 91.189 245.293 91.189 245.65 91.145C246.007 91.1 245.715 91.064 245 91.064C244.285 91.064 243.993 91.1 244.35 91.145ZM267.95 91.314C267.647 91.479 267.4 91.657 267.4 91.712C267.4 91.766 267.647 91.685 267.95 91.533C268.252 91.38 268.635 91.205 268.8 91.143C269.067 91.044 269.067 91.031 268.8 91.024C268.635 91.02 268.252 91.15 267.95 91.314ZM276.598 91.148C277.621 91.272 277.594 91.032 277.597 99.839L277.6 107.977L277.155 108.289C276.911 108.46 276.807 108.6 276.925 108.6C277.766 108.6 277.8 108.254 277.8 99.674C277.8 90.72 277.835 90.977 276.61 91.032L275.9 91.064L276.598 91.148ZM301.6 91.209C301.381 91.357 301.462 91.376 301.9 91.278C302.635 91.113 302.795 90.999 302.283 91.003C302.072 91.005 301.765 91.097 301.6 91.209ZM106.034 91.4C106.044 91.92 106.359 92.773 106.366 92.3C106.369 92.08 106.295 91.72 106.2 91.5C106.095 91.255 106.03 91.216 106.034 91.4ZM83.278 94C83.278 95.485 83.31 96.093 83.348 95.35C83.387 94.608 83.387 93.392 83.348 92.65C83.31 91.908 83.278 92.515 83.278 94ZM145.234 91.6C145.244 92.12 145.559 92.973 145.566 92.5C145.569 92.28 145.495 91.92 145.4 91.7C145.295 91.455 145.23 91.416 145.234 91.6ZM222.915 91.704C222.703 91.865 222.568 92.034 222.615 92.081C222.662 92.127 222.912 91.993 223.172 91.783C223.719 91.339 223.49 91.269 222.915 91.704ZM152.72 92.62C152.647 93.078 152.626 93.492 152.674 93.54C152.721 93.588 152.823 93.255 152.9 92.8C152.977 92.345 152.998 91.931 152.946 91.88C152.895 91.829 152.793 92.162 152.72 92.62ZM235.957 92.552C236.451 93.657 236.744 93.945 236.311 92.9C236.128 92.46 235.889 92.01 235.778 91.9C235.667 91.79 235.748 92.084 235.957 92.552ZM266.487 92.45L265.9 93.1L266.55 92.513C267.156 91.965 267.292 91.8 267.137 91.8C267.103 91.8 266.81 92.093 266.487 92.45ZM158.025 92.3C158.008 92.52 157.948 92.925 157.892 93.2L157.789 93.7L158.003 93.209C158.121 92.94 158.181 92.535 158.136 92.309C158.057 91.911 158.054 91.91 158.025 92.3ZM160.092 93.016C159.809 93.575 159.605 94.102 159.639 94.188C159.672 94.274 159.943 93.817 160.239 93.172C160.901 91.733 160.798 91.623 160.092 93.016ZM200.634 92.61C200.751 92.946 200.883 93.183 200.929 93.138C201.028 93.039 200.65 92 200.515 92C200.463 92 200.517 92.275 200.634 92.61ZM76.846 92.8C76.846 93.185 76.888 93.343 76.938 93.15C76.988 92.958 76.988 92.642 76.938 92.45C76.888 92.258 76.846 92.415 76.846 92.8ZM210.75 93.012C209.898 93.448 209.2 93.85 209.2 93.905C209.2 93.994 212.38 92.464 212.583 92.277C212.867 92.016 212.089 92.328 210.75 93.012ZM298.327 92.615L297.8 93.029V101.319V109.61L298.313 109.805C298.595 109.912 299.023 109.991 299.263 109.98C299.582 109.965 299.534 109.919 299.083 109.811C298.743 109.73 298.36 109.599 298.233 109.52C298.062 109.415 298 107.194 298 101.185V92.994L298.65 92.598C299.007 92.38 299.2 92.201 299.077 92.201C298.954 92.2 298.617 92.387 298.327 92.615ZM309.208 92.3C309.208 92.41 309.393 92.725 309.618 93C309.89 93.332 309.957 93.366 309.82 93.1C309.483 92.448 309.206 92.086 309.208 92.3ZM254.128 93.05C254.356 93.487 254.497 94.366 254.559 95.734L254.651 97.768L253.676 97.897C252.178 98.094 252.027 98.152 252.937 98.177C253.397 98.19 254.017 98.108 254.313 97.995L254.852 97.79L254.759 95.745C254.676 93.912 254.283 92.4 253.89 92.4C253.835 92.4 253.942 92.692 254.128 93.05ZM257.04 92.7C257.04 92.92 257.112 93.325 257.2 93.6C257.327 93.996 257.36 94.017 257.36 93.7C257.36 93.48 257.288 93.075 257.2 92.8C257.073 92.404 257.04 92.383 257.04 92.7ZM125.623 92.8C125.632 92.965 125.712 93.325 125.8 93.6L125.96 94.1L125.977 93.6C125.986 93.325 125.907 92.965 125.8 92.8C125.628 92.533 125.608 92.533 125.623 92.8ZM106.537 93.6C106.602 94.095 106.688 94.538 106.728 94.583C106.878 94.757 106.764 93.482 106.595 93.1C106.477 92.833 106.457 92.999 106.537 93.6ZM137.914 93.314C137.841 93.607 137.826 93.892 137.881 93.947C137.936 94.002 138.041 93.807 138.114 93.514C138.188 93.221 138.203 92.936 138.148 92.881C138.093 92.826 137.988 93.021 137.914 93.314ZM168.15 92.946C168.618 92.989 169.383 92.989 169.85 92.946C170.317 92.904 169.935 92.87 169 92.87C168.065 92.87 167.683 92.904 168.15 92.946ZM190.152 93.141C190.401 93.189 190.761 93.187 190.952 93.137C191.144 93.087 190.94 93.048 190.5 93.05C190.06 93.053 189.904 93.094 190.152 93.141ZM192.8 93.114C193.691 93.463 194.278 93.598 194.089 93.409C193.978 93.298 193.575 93.16 193.194 93.102C192.812 93.044 192.635 93.049 192.8 93.114ZM145.634 93.4C145.644 93.92 145.959 94.773 145.966 94.3C145.969 94.08 145.895 93.72 145.8 93.5C145.695 93.255 145.63 93.216 145.634 93.4ZM188.65 93.338C188.843 93.388 189.158 93.388 189.35 93.338C189.543 93.288 189.385 93.246 189 93.246C188.615 93.246 188.458 93.288 188.65 93.338ZM313.122 93.7C313.287 94.435 313.401 94.595 313.397 94.083C313.395 93.873 313.303 93.565 313.191 93.4C313.043 93.181 313.024 93.262 313.122 93.7ZM100.079 96.1C100.079 97.64 100.111 98.244 100.149 97.441C100.187 96.639 100.186 95.379 100.148 94.641C100.11 93.904 100.079 94.56 100.079 96.1ZM201.028 93.6C201.028 93.765 201.105 94.08 201.2 94.3C201.308 94.552 201.372 94.589 201.372 94.4C201.372 94.235 201.295 93.92 201.2 93.7C201.092 93.448 201.028 93.411 201.028 93.6ZM172.758 94.479C173.056 94.962 173.336 95.324 173.379 95.283C173.468 95.2 172.446 93.6 172.305 93.6C172.256 93.6 172.459 93.996 172.758 94.479ZM186.933 93.733C186.748 93.918 186.765 107.555 186.95 107.669C187.033 107.72 187.1 104.575 187.1 100.681C187.1 96.786 187.093 93.6 187.083 93.6C187.074 93.6 187.007 93.66 186.933 93.733ZM194.915 94.219C195.237 94.614 195.54 94.904 195.59 94.862C195.639 94.821 195.376 94.498 195.004 94.144L194.329 93.5L194.915 94.219ZM77.057 94.7C77.059 95.25 77.098 95.451 77.144 95.147C77.189 94.843 77.188 94.393 77.141 94.147C77.093 93.901 77.056 94.15 77.057 94.7ZM262.325 94.108C262.256 94.286 262.208 94.583 262.217 94.766C262.227 94.95 262.314 94.835 262.411 94.51C262.599 93.879 262.532 93.566 262.325 94.108ZM152.3 94.8C152.223 95.255 152.202 95.669 152.254 95.72C152.305 95.771 152.407 95.438 152.48 94.98C152.553 94.522 152.574 94.108 152.526 94.06C152.479 94.012 152.377 94.345 152.3 94.8ZM157.525 94.625C157.358 95.459 157.52 95.62 157.7 94.8C157.776 94.454 157.796 94.13 157.745 94.079C157.694 94.028 157.595 94.274 157.525 94.625ZM236.628 94.2C236.628 94.365 236.705 94.68 236.8 94.9C236.908 95.152 236.972 95.189 236.972 95C236.972 94.835 236.895 94.52 236.8 94.3C236.692 94.048 236.628 94.011 236.628 94.2ZM80.454 95.2C80.454 95.695 80.493 95.898 80.541 95.65C80.589 95.403 80.589 94.998 80.541 94.75C80.493 94.502 80.454 94.705 80.454 95.2ZM126.137 95.2C126.202 95.695 126.288 96.138 126.328 96.183C126.478 96.357 126.364 95.082 126.195 94.7C126.077 94.433 126.057 94.599 126.137 95.2ZM137.514 95.114C137.441 95.407 137.419 95.686 137.466 95.733C137.513 95.78 137.612 95.579 137.686 95.286C137.759 94.993 137.781 94.714 137.734 94.667C137.687 94.62 137.588 94.821 137.514 95.114ZM233.922 95.1C234.087 95.835 234.201 95.995 234.197 95.483C234.195 95.273 234.103 94.965 233.991 94.8C233.843 94.581 233.824 94.662 233.922 95.1ZM310.434 94.8C310.444 95.32 310.759 96.173 310.766 95.7C310.769 95.48 310.695 95.12 310.6 94.9C310.495 94.655 310.43 94.616 310.434 94.8ZM201.435 95.2C201.428 95.475 201.498 96.06 201.589 96.5C201.695 97.013 201.758 97.121 201.765 96.8C201.772 96.525 201.702 95.94 201.611 95.5C201.505 94.987 201.442 94.879 201.435 95.2ZM264.925 95.108C264.856 95.286 264.808 95.583 264.817 95.766C264.827 95.95 264.914 95.835 265.011 95.51C265.199 94.879 265.132 94.566 264.925 95.108ZM217.938 95.405C217.865 95.677 217.813 96.125 217.823 96.4C217.835 96.759 217.892 96.678 218.025 96.113C218.228 95.247 218.15 94.612 217.938 95.405ZM131.414 95.717C131.422 96.038 131.508 96.48 131.605 96.7C131.723 96.967 131.743 96.801 131.663 96.2C131.523 95.14 131.394 94.89 131.414 95.717ZM159.125 95.825C158.958 96.659 159.12 96.82 159.3 96C159.376 95.654 159.396 95.33 159.345 95.279C159.294 95.228 159.195 95.474 159.125 95.825ZM220.728 95.642C220.661 95.894 220.615 96.415 220.628 96.8C220.645 97.334 220.688 97.24 220.809 96.401C220.976 95.246 220.936 94.866 220.728 95.642ZM237.035 95.8C237.029 96.075 237.098 96.66 237.189 97.1L237.354 97.9L237.353 97.2C237.353 96.318 237.054 95.006 237.035 95.8ZM313.65 96.1C313.653 96.54 313.694 96.696 313.741 96.448C313.789 96.199 313.787 95.839 313.737 95.648C313.687 95.456 313.648 95.66 313.65 96.1ZM107.046 96.2C107.046 96.585 107.088 96.743 107.138 96.55C107.188 96.358 107.188 96.043 107.138 95.85C107.088 95.658 107.046 95.815 107.046 96.2ZM146.223 96C146.214 96.275 146.293 96.635 146.4 96.8C146.647 97.182 146.647 96.771 146.4 96L146.24 95.5L146.223 96ZM178.883 98.6C178.881 101.337 178.899 101.51 179.038 100.076C179.124 99.183 179.125 97.788 179.04 96.976C178.91 95.734 178.885 95.992 178.883 98.6ZM173.548 96.723C173.606 97.26 173.686 97.738 173.727 97.783C173.886 97.964 173.783 96.282 173.618 96.023C173.511 95.854 173.484 96.126 173.548 96.723ZM157.089 96.689C157.014 97.09 156.997 97.464 157.052 97.519C157.107 97.574 157.214 97.29 157.289 96.889C157.364 96.488 157.381 96.114 157.326 96.059C157.271 96.004 157.164 96.288 157.089 96.689ZM261.85 96.7C261.853 97.14 261.894 97.296 261.941 97.048C261.989 96.799 261.987 96.439 261.937 96.248C261.887 96.056 261.848 96.26 261.85 96.7ZM80.654 97C80.654 97.495 80.693 97.698 80.741 97.45C80.789 97.203 80.789 96.798 80.741 96.55C80.693 96.303 80.654 96.505 80.654 97ZM151.9 97C151.823 97.455 151.802 97.869 151.854 97.92C151.905 97.971 152.007 97.638 152.08 97.18C152.153 96.722 152.174 96.308 152.126 96.26C152.079 96.212 151.977 96.545 151.9 97ZM164.092 96.874C163.919 97.794 164.04 98.453 164.4 98.55C164.651 98.617 164.654 98.598 164.42 98.435C164.212 98.29 164.171 97.975 164.26 97.22C164.396 96.072 164.285 95.844 164.092 96.874ZM196.147 97.3C196.206 97.96 196.288 98.538 196.328 98.583C196.476 98.754 196.366 96.885 196.205 96.5C196.104 96.258 196.081 96.575 196.147 97.3ZM264.529 96.944C264.461 97.36 264.416 98.15 264.429 98.7C264.449 99.461 264.493 99.296 264.617 98.007C264.789 96.228 264.742 95.66 264.529 96.944ZM126.531 97.1C126.598 97.54 126.686 97.938 126.727 97.983C126.878 98.155 126.765 97.084 126.591 96.7C126.464 96.421 126.446 96.542 126.531 97.1ZM310.9 100.303C310.9 102.49 310.957 104.014 311.026 103.69C311.096 103.365 311.153 101.84 311.153 100.3C311.153 98.76 311.096 97.236 311.026 96.913C310.957 96.591 310.9 98.116 310.9 100.303ZM141.483 97.072C141.419 97.239 141.408 97.539 141.46 97.738C141.531 98.011 141.559 97.983 141.577 97.626C141.597 97.212 141.642 97.186 141.923 97.419C142.203 97.651 142.236 97.636 142.173 97.31C142.08 96.827 141.636 96.674 141.483 97.072ZM107.246 97.6C107.246 97.985 107.288 98.142 107.338 97.95C107.388 97.758 107.388 97.442 107.338 97.25C107.288 97.058 107.246 97.215 107.246 97.6ZM158.857 97.9C158.859 98.45 158.898 98.651 158.944 98.347C158.989 98.043 158.988 97.593 158.941 97.347C158.893 97.101 158.856 97.35 158.857 97.9ZM313.854 97.8C313.854 98.295 313.893 98.498 313.941 98.25C313.989 98.002 313.989 97.598 313.941 97.35C313.893 97.103 313.854 97.305 313.854 97.8ZM77.434 97.4C77.444 97.92 77.759 98.773 77.766 98.3C77.769 98.08 77.695 97.72 77.6 97.5C77.495 97.255 77.43 97.216 77.434 97.4ZM234.483 100.7C234.483 102.68 234.513 103.463 234.549 102.44C234.586 101.417 234.585 99.797 234.549 98.84C234.512 97.883 234.482 98.72 234.483 100.7ZM146.634 97.7C146.631 97.92 146.705 98.28 146.8 98.5C147.019 99.01 147.019 98.484 146.8 97.8C146.671 97.398 146.639 97.378 146.634 97.7ZM83.431 97.9C83.427 98.12 83.498 98.66 83.589 99.1L83.754 99.9L83.757 99.2C83.759 98.815 83.688 98.275 83.6 98C83.47 97.596 83.438 97.576 83.431 97.9ZM131.834 98C131.831 98.275 131.905 98.68 132 98.9L132.172 99.3L132.166 98.9C132.163 98.68 132.088 98.275 132 98L131.84 97.5L131.834 98ZM217.678 100.3C217.678 101.73 217.71 102.289 217.748 101.542C217.787 100.795 217.787 99.625 217.748 98.942C217.709 98.259 217.677 98.87 217.678 100.3ZM220.478 100.3C220.478 101.73 220.51 102.289 220.548 101.542C220.587 100.795 220.587 99.625 220.548 98.942C220.509 98.259 220.477 98.87 220.478 100.3ZM261.679 100.6C261.679 102.195 261.711 102.847 261.749 102.05C261.786 101.252 261.786 99.948 261.749 99.15C261.711 98.353 261.679 99.005 261.679 100.6ZM136.615 99.015C136.492 99.589 136.43 100.096 136.476 100.143C136.523 100.19 136.662 99.758 136.785 99.185C136.908 98.611 136.97 98.104 136.924 98.057C136.877 98.01 136.738 98.442 136.615 99.015ZM142.214 98.417C142.222 98.683 142.31 99.08 142.409 99.3C142.536 99.579 142.554 99.458 142.469 98.9C142.327 97.971 142.194 97.718 142.214 98.417ZM156.728 98.442C156.661 98.694 156.613 99.08 156.623 99.3C156.632 99.52 156.723 99.349 156.823 98.92C157.018 98.089 156.935 97.67 156.728 98.442ZM116.628 98.4C116.628 98.565 116.705 98.88 116.8 99.1C116.908 99.352 116.972 99.389 116.972 99.2C116.972 99.035 116.895 98.72 116.8 98.5C116.692 98.248 116.628 98.211 116.628 98.4ZM248.9 98.4C247.94 98.532 247.932 98.538 248.7 98.554C249.14 98.563 249.905 98.498 250.4 98.41C251.585 98.199 250.421 98.191 248.9 98.4ZM107.46 99.6C107.46 100.205 107.497 100.453 107.543 100.15C107.589 99.848 107.589 99.353 107.543 99.05C107.497 98.748 107.46 98.995 107.46 99.6ZM245.4 98.8C244.869 98.912 244.821 98.951 245.2 98.962C245.475 98.97 246.06 98.902 246.5 98.811C247.167 98.674 247.2 98.647 246.7 98.649C246.37 98.651 245.785 98.719 245.4 98.8ZM201.867 100.2C201.867 101.025 201.903 101.363 201.946 100.95C201.989 100.538 201.989 99.863 201.946 99.45C201.903 99.038 201.867 99.375 201.867 100.2ZM77.828 99.2C77.828 99.365 77.905 99.68 78 99.9C78.108 100.152 78.172 100.189 78.172 100C78.172 99.835 78.095 99.52 78 99.3C77.892 99.048 77.828 99.011 77.828 99.2ZM147.034 99.3C147.031 99.52 147.105 99.88 147.2 100.1C147.419 100.61 147.419 100.084 147.2 99.4C147.071 98.998 147.039 98.978 147.034 99.3ZM158.62 100.717C158.631 101.698 158.708 102.995 158.792 103.6C158.883 104.255 158.904 103.569 158.844 101.9C158.732 98.747 158.59 97.999 158.62 100.717ZM151.427 99.6C151.409 99.875 151.348 100.325 151.292 100.6L151.189 101.1L151.404 100.608C151.522 100.337 151.583 99.887 151.539 99.608L151.46 99.1L151.427 99.6ZM99.7 100.2C99.624 100.546 99.607 100.874 99.662 100.929C99.717 100.984 99.824 100.746 99.9 100.4C99.976 100.054 99.993 99.726 99.938 99.671C99.883 99.616 99.776 99.854 99.7 100.2ZM117.034 99.9C117.031 100.12 117.105 100.48 117.2 100.7C117.419 101.21 117.419 100.684 117.2 100C117.071 99.598 117.039 99.578 117.034 99.9ZM132.244 100.1C132.246 100.32 132.316 100.77 132.4 101.1C132.537 101.639 132.553 101.649 132.556 101.2C132.558 100.925 132.488 100.475 132.4 100.2C132.275 99.808 132.241 99.787 132.244 100.1ZM142.634 100.3C142.631 100.52 142.705 100.88 142.8 101.1C143.019 101.61 143.019 101.084 142.8 100.4C142.671 99.998 142.639 99.978 142.634 100.3ZM156.328 100.442C156.261 100.694 156.213 101.08 156.223 101.3C156.232 101.52 156.323 101.349 156.423 100.92C156.618 100.089 156.535 99.67 156.328 100.442ZM241.123 100.801C240.725 101.241 240.4 101.664 240.4 101.741C240.4 101.817 240.468 101.794 240.551 101.69C240.633 101.586 241.011 101.163 241.39 100.75C241.769 100.338 242.026 100 241.963 100C241.899 100 241.521 100.36 241.123 100.801ZM83.931 100.8C84.137 102.03 85.123 103.344 85.532 102.934C85.586 102.881 85.443 102.777 85.215 102.705C84.752 102.558 84.492 102.148 84.087 100.927C83.831 100.155 83.821 100.146 83.931 100.8ZM140.6 101.3C140.471 101.922 140.405 102.472 140.454 102.521C140.503 102.57 140.646 102.097 140.771 101.471C140.897 100.845 140.963 100.296 140.917 100.251C140.872 100.205 140.729 100.678 140.6 101.3ZM253.85 100.338L254.6 100.424V104.519C254.6 108.578 254.596 108.614 254.15 108.794C253.845 108.916 253.805 108.979 254.026 108.987C254.737 109.015 254.81 108.554 254.754 104.374L254.7 100.3L253.9 100.276L253.1 100.252L253.85 100.338ZM136.227 100.734C136.212 100.972 136.148 101.332 136.085 101.534C135.976 101.88 135.982 101.881 136.198 101.544C136.324 101.349 136.388 100.989 136.34 100.744C136.255 100.3 136.254 100.3 136.227 100.734ZM250.95 100.541C251.197 100.589 251.603 100.589 251.85 100.541C252.097 100.493 251.895 100.454 251.4 100.454C250.905 100.454 250.703 100.493 250.95 100.541ZM78.322 101.1C78.487 101.835 78.601 101.995 78.597 101.483C78.595 101.273 78.503 100.965 78.391 100.8C78.243 100.581 78.224 100.662 78.322 101.1ZM248.65 100.743C248.953 100.789 249.447 100.789 249.75 100.743C250.053 100.697 249.805 100.66 249.2 100.66C248.595 100.66 248.347 100.697 248.65 100.743ZM246.85 100.938C247.043 100.988 247.357 100.988 247.55 100.938C247.743 100.888 247.585 100.846 247.2 100.846C246.815 100.846 246.657 100.888 246.85 100.938ZM107.666 102.3C107.667 103.07 107.703 103.36 107.746 102.946C107.789 102.531 107.789 101.901 107.744 101.546C107.7 101.19 107.665 101.53 107.666 102.3ZM147.428 101.2C147.428 101.365 147.505 101.68 147.6 101.9C147.708 102.152 147.772 102.189 147.772 102C147.772 101.835 147.695 101.52 147.6 101.3C147.492 101.048 147.428 101.011 147.428 101.2ZM245.2 101.209C244.981 101.357 245.062 101.376 245.5 101.278C246.235 101.113 246.395 100.999 245.883 101.003C245.673 101.005 245.365 101.097 245.2 101.209ZM81.414 101.617C81.422 101.883 81.51 102.28 81.609 102.5C81.736 102.779 81.754 102.658 81.669 102.1C81.527 101.171 81.394 100.918 81.414 101.617ZM117.44 101.5C117.44 101.72 117.512 102.125 117.6 102.4C117.727 102.796 117.76 102.817 117.76 102.5C117.76 102.28 117.688 101.875 117.6 101.6C117.473 101.204 117.44 101.183 117.44 101.5ZM127.434 101.6C127.444 102.12 127.759 102.973 127.766 102.5C127.769 102.28 127.695 101.92 127.6 101.7C127.495 101.455 127.43 101.416 127.434 101.6ZM150.927 102.177C150.85 102.659 150.829 103.096 150.88 103.147C151.015 103.281 151.258 101.873 151.154 101.561C151.106 101.418 151.004 101.695 150.927 102.177ZM243.947 101.825C243.643 102.052 243.299 102.432 243.183 102.669C242.986 103.075 242.995 103.073 243.343 102.643C243.547 102.391 243.98 102.009 244.306 101.794C244.633 101.579 244.81 101.405 244.7 101.408C244.59 101.41 244.251 101.598 243.947 101.825ZM313.857 102.5C313.859 103.05 313.898 103.251 313.944 102.947C313.989 102.643 313.988 102.193 313.941 101.947C313.893 101.701 313.856 101.95 313.857 102.5ZM132.647 102.2C132.647 102.475 132.716 102.97 132.8 103.3C132.936 103.835 132.953 103.846 132.953 103.4C132.953 103.125 132.884 102.63 132.8 102.3C132.664 101.765 132.647 101.754 132.647 102.2ZM143.131 102.5C143.198 102.94 143.286 103.338 143.327 103.383C143.478 103.555 143.365 102.484 143.191 102.1C143.064 101.821 143.046 101.942 143.131 102.5ZM264.42 102.917C264.431 103.567 264.509 104.325 264.594 104.6C264.679 104.875 264.702 104.38 264.647 103.5C264.526 101.595 264.392 101.25 264.42 102.917ZM78.722 102.5C78.887 103.235 79.001 103.395 78.997 102.883C78.995 102.672 78.903 102.365 78.791 102.2C78.643 101.981 78.624 102.062 78.722 102.5ZM196.232 102.7C196.211 103.14 196.148 103.725 196.092 104L195.989 104.5L196.204 104.007C196.322 103.736 196.385 103.151 196.344 102.707L196.27 101.9L196.232 102.7ZM135.825 102.4C135.808 102.565 135.745 102.925 135.684 103.2C135.588 103.632 135.603 103.652 135.799 103.344C135.924 103.149 135.988 102.789 135.94 102.544C135.893 102.3 135.841 102.235 135.825 102.4ZM171.4 102.596L164.1 102.7L164.041 103.307C164.008 103.641 164.066 104.136 164.171 104.407C164.327 104.814 164.355 104.725 164.33 103.9L164.3 102.9L171.393 102.847C175.718 102.815 178.562 102.718 178.683 102.597C178.791 102.489 178.84 102.421 178.79 102.446C178.74 102.472 175.415 102.539 171.4 102.596ZM147.834 102.8C147.844 103.32 148.159 104.173 148.166 103.7C148.169 103.48 148.095 103.12 148 102.9C147.895 102.655 147.83 102.616 147.834 102.8ZM86.1 103.195C86.482 103.364 87.757 103.478 87.583 103.328C87.538 103.288 87.095 103.202 86.6 103.137C85.999 103.057 85.833 103.077 86.1 103.195ZM140.1 103.6C140.024 103.946 140.004 104.27 140.055 104.321C140.106 104.372 140.205 104.126 140.275 103.775C140.345 103.424 140.366 103.099 140.32 103.054C140.275 103.008 140.176 103.254 140.1 103.6ZM237.114 104.214C237.038 104.89 237.016 105.483 237.067 105.533C237.117 105.583 237.222 105.073 237.3 104.4C237.378 103.727 237.4 103.133 237.348 103.081C237.296 103.029 237.191 103.539 237.114 104.214ZM81.817 103.5C81.811 103.72 81.893 104.035 82 104.2C82.257 104.598 82.257 104.098 82 103.5L81.828 103.1L81.817 103.5ZM95.45 103.338C95.642 103.388 95.958 103.388 96.15 103.338C96.343 103.288 96.185 103.246 95.8 103.246C95.415 103.246 95.258 103.288 95.45 103.338ZM127.828 103.5C127.828 103.72 127.905 104.08 128 104.3L128.172 104.7V104.3C128.172 104.08 128.095 103.72 128 103.5L127.828 103.1V103.5ZM201.508 104.308C201.43 104.927 201.409 105.475 201.459 105.526C201.51 105.577 201.615 105.112 201.692 104.492C201.77 103.873 201.791 103.325 201.741 103.274C201.69 103.223 201.585 103.688 201.508 104.308ZM220.657 104.1C220.659 104.65 220.698 104.851 220.744 104.547C220.789 104.243 220.788 103.793 220.741 103.547C220.693 103.301 220.656 103.55 220.657 104.1ZM239.726 103.65C239.564 104.253 239.593 107.412 239.764 107.843C239.839 108.031 239.9 107.063 239.9 105.693C239.9 102.978 239.901 102.995 239.726 103.65ZM93.85 103.538C94.043 103.588 94.358 103.588 94.55 103.538C94.743 103.488 94.585 103.446 94.2 103.446C93.815 103.446 93.658 103.488 93.85 103.538ZM117.94 104.4C118.003 105.005 118.087 105.538 118.127 105.583C118.267 105.744 118.159 104.296 117.993 103.8C117.886 103.477 117.867 103.69 117.94 104.4ZM90.65 103.746C91.063 103.789 91.738 103.789 92.15 103.746C92.563 103.703 92.225 103.667 91.4 103.667C90.575 103.667 90.238 103.703 90.65 103.746ZM150.52 104.42C150.447 104.878 150.426 105.292 150.474 105.34C150.521 105.388 150.623 105.055 150.7 104.6C150.777 104.145 150.798 103.731 150.746 103.68C150.695 103.629 150.593 103.962 150.52 104.42ZM313.65 104.3C313.653 104.74 313.694 104.896 313.741 104.648C313.789 104.399 313.787 104.039 313.737 103.848C313.687 103.656 313.648 103.86 313.65 104.3ZM107.446 104.4C107.446 104.785 107.488 104.942 107.538 104.75C107.588 104.558 107.588 104.243 107.538 104.05C107.488 103.858 107.446 104.015 107.446 104.4ZM143.423 104C143.432 104.165 143.512 104.525 143.6 104.8L143.76 105.3L143.777 104.8C143.786 104.525 143.707 104.165 143.6 104C143.428 103.733 143.408 103.733 143.423 104ZM261.82 104.517C261.831 104.947 261.914 105.525 262.004 105.8C262.106 106.111 262.125 105.845 262.056 105.1C261.927 103.71 261.791 103.375 261.82 104.517ZM135.325 104.625C135.255 104.976 135.234 105.301 135.28 105.346C135.325 105.392 135.424 105.146 135.5 104.8C135.576 104.454 135.596 104.13 135.545 104.079C135.494 104.028 135.395 104.274 135.325 104.625ZM217.844 104.5C217.842 104.83 217.912 105.325 218 105.6L218.16 106.1L218.156 105.6C218.154 105.325 218.084 104.83 218 104.5L217.847 103.9L217.844 104.5ZM234.112 105.35C234.038 105.763 233.934 106.28 233.88 106.5C233.803 106.811 233.822 106.833 233.968 106.6C234.178 106.263 234.487 104.6 234.34 104.6C234.287 104.6 234.185 104.938 234.112 105.35ZM242.46 105.6C242.46 106.205 242.497 106.453 242.543 106.15C242.589 105.847 242.589 105.353 242.543 105.05C242.497 104.748 242.46 104.995 242.46 105.6ZM310.623 104.834C310.61 105.017 310.548 105.332 310.485 105.534C310.376 105.881 310.382 105.881 310.598 105.544C310.724 105.348 310.786 105.033 310.737 104.844C310.655 104.534 310.644 104.533 310.623 104.834ZM82.228 105C82.228 105.165 82.305 105.48 82.4 105.7C82.508 105.952 82.572 105.989 82.572 105.8C82.572 105.635 82.495 105.32 82.4 105.1C82.292 104.848 82.228 104.811 82.228 105ZM139.7 105.4C139.624 105.746 139.604 106.07 139.655 106.121C139.706 106.172 139.805 105.926 139.875 105.575C139.945 105.224 139.966 104.899 139.92 104.854C139.875 104.808 139.776 105.054 139.7 105.4ZM155.311 105.511C155.236 105.912 155.214 106.281 155.263 106.33C155.312 106.379 155.414 106.09 155.489 105.689C155.564 105.288 155.586 104.919 155.537 104.87C155.488 104.821 155.386 105.11 155.311 105.511ZM195.599 105.402C195.459 105.74 194.975 106.344 194.522 106.744C193.908 107.288 193.852 107.378 194.3 107.101C195.107 106.602 196.194 105.128 195.942 104.875C195.893 104.827 195.739 105.064 195.599 105.402ZM148.414 105.417C148.422 105.683 148.51 106.08 148.609 106.3C148.736 106.579 148.754 106.458 148.669 105.9C148.527 104.971 148.394 104.718 148.414 105.417ZM128.331 105.9C128.398 106.34 128.486 106.738 128.527 106.783C128.678 106.955 128.565 105.884 128.391 105.5C128.264 105.221 128.246 105.342 128.331 105.9ZM107.098 105.835C107.022 106.091 106.683 106.66 106.345 107.1C105.793 107.818 105.784 107.851 106.254 107.426C106.795 106.935 107.51 105.643 107.335 105.469C107.281 105.414 107.174 105.579 107.098 105.835ZM143.931 106.3C143.998 106.74 144.086 107.138 144.127 107.183C144.278 107.355 144.165 106.284 143.991 105.9C143.864 105.621 143.846 105.742 143.931 106.3ZM134.839 106.625C134.724 107.079 134.704 107.371 134.794 107.275C134.98 107.076 135.28 105.8 135.14 105.8C135.09 105.8 134.954 106.171 134.839 106.625ZM200.871 107.107C200.641 107.813 200.517 108.351 200.597 108.302C200.774 108.193 201.475 106.008 201.367 105.901C201.325 105.858 201.102 106.401 200.871 107.107ZM150.042 106.75C149.84 107.424 149.847 107.46 150.109 107.112C150.363 106.773 150.519 106 150.334 106C150.297 106 150.166 106.338 150.042 106.75ZM164.8 106.063C164.8 106.097 165.093 106.39 165.45 106.713L166.1 107.3L165.513 106.65C164.965 106.044 164.8 105.908 164.8 106.063ZM236.714 106.514C236.641 106.807 236.619 107.086 236.666 107.133C236.713 107.18 236.812 106.979 236.886 106.686C236.959 106.393 236.981 106.114 236.934 106.067C236.887 106.02 236.788 106.221 236.714 106.514ZM313.223 106.234C313.21 106.417 313.148 106.732 313.085 106.934C312.976 107.281 312.982 107.281 313.198 106.944C313.324 106.748 313.386 106.433 313.337 106.244C313.255 105.934 313.244 105.933 313.223 106.234ZM118.262 107.3C118.263 107.96 118.3 108.206 118.345 107.846C118.389 107.487 118.389 106.947 118.343 106.646C118.297 106.346 118.261 106.64 118.262 107.3ZM309.939 106.903C309.756 107.286 309.648 107.6 309.698 107.6C309.835 107.6 310.442 106.375 310.351 106.284C310.307 106.241 310.122 106.519 309.939 106.903ZM218.228 106.6C218.228 106.765 218.305 107.08 218.4 107.3C218.508 107.552 218.572 107.589 218.572 107.4C218.572 107.235 218.495 106.92 218.4 106.7C218.292 106.448 218.228 106.411 218.228 106.6ZM139.328 107.042C139.261 107.294 139.213 107.68 139.223 107.9C139.232 108.12 139.323 107.949 139.423 107.52C139.618 106.689 139.535 106.27 139.328 107.042ZM154.911 107.511C154.836 107.912 154.814 108.281 154.863 108.33C154.912 108.379 155.014 108.09 155.089 107.689C155.164 107.288 155.186 106.919 155.137 106.87C155.088 106.821 154.986 107.11 154.911 107.511ZM265.2 106.893C265.2 107.102 266.003 108.4 266.133 108.4C266.188 108.4 266.03 108.063 265.782 107.65C265.229 106.731 265.2 106.693 265.2 106.893ZM128.731 107.9C128.798 108.34 128.886 108.738 128.927 108.783C129.078 108.955 128.965 107.884 128.791 107.5C128.664 107.221 128.646 107.342 128.731 107.9ZM80.526 107.787C80.713 108.519 81.185 109.543 81.177 109.2C81.173 109.035 80.997 108.54 80.786 108.1C80.574 107.66 80.457 107.519 80.526 107.787ZM175.5 107.608C174.465 107.729 174.568 107.745 176.248 107.724C177.32 107.711 178.198 107.633 178.198 107.55C178.2 107.381 177.269 107.401 175.5 107.608ZM287.344 107.548L288.787 107.617L288.851 109.959L288.914 112.3L288.957 109.85L289 107.4L287.45 107.44L285.9 107.479L287.344 107.548ZM236.024 108.493C235.806 108.985 235.197 109.862 234.671 110.443C233.725 111.488 233.723 111.491 234.569 110.7C235.468 109.86 236.034 109.063 236.382 108.148C236.717 107.265 236.455 107.519 236.024 108.493ZM169.25 107.947C169.773 107.988 170.628 107.988 171.15 107.947C171.673 107.906 171.245 107.872 170.2 107.872C169.155 107.872 168.728 107.906 169.25 107.947ZM189.456 107.947C189.982 107.989 190.792 107.988 191.256 107.946C191.72 107.904 191.29 107.87 190.3 107.871C189.31 107.872 188.93 107.906 189.456 107.947ZM285.875 109.9C285.875 111.11 285.908 111.579 285.948 110.943C285.988 110.306 285.987 109.316 285.947 108.743C285.907 108.169 285.874 108.69 285.875 109.9ZM308.802 108.498C308.431 108.881 307.736 109.344 307.259 109.526C306.782 109.709 306.431 109.897 306.479 109.946C306.678 110.145 308.348 109.2 308.989 108.525C309.368 108.126 309.633 107.8 309.578 107.8C309.523 107.8 309.174 108.114 308.802 108.498ZM144.444 108.4C144.442 108.675 144.512 109.125 144.6 109.4C144.815 110.072 144.815 109.346 144.6 108.5C144.463 107.961 144.447 107.951 144.444 108.4ZM222.118 108.433C222.328 108.726 222.77 109.122 223.1 109.312C223.43 109.501 223.61 109.576 223.5 109.478C223.39 109.379 222.948 108.984 222.518 108.599C221.87 108.019 221.802 107.991 222.118 108.433ZM83.548 108.822C83.709 109.437 85.074 110.801 85.519 110.792C85.783 110.787 85.709 110.701 85.279 110.514C84.678 110.252 83.8 109.253 83.8 108.831C83.8 108.717 83.718 108.573 83.619 108.512C83.519 108.45 83.487 108.59 83.548 108.822ZM138.928 108.842C138.861 109.094 138.813 109.48 138.823 109.7C138.832 109.92 138.923 109.749 139.023 109.32C139.218 108.489 139.135 108.07 138.928 108.842ZM160.261 108.915C160.433 109.253 160.725 109.655 160.911 109.809C161.097 109.963 161.007 109.734 160.713 109.3C160.017 108.274 159.874 108.152 160.261 108.915ZM243.168 108.702C243.376 109.132 243.91 109.646 244.4 109.887C244.565 109.968 244.485 109.86 244.222 109.645C243.959 109.431 243.571 109.041 243.359 108.778C243.066 108.415 243.02 108.397 243.168 108.702ZM200 109.001C199.872 109.24 199.44 109.81 199.041 110.268C198.324 111.089 198.323 111.092 198.976 110.5C199.767 109.782 200.485 108.818 200.338 108.671C200.28 108.613 200.128 108.761 200 109.001ZM266.396 108.895C266.686 109.244 267.993 110.08 268.081 109.973C268.115 109.933 267.693 109.606 267.144 109.247C266.595 108.888 266.259 108.73 266.396 108.895ZM118.023 109.034C118.01 109.217 117.948 109.532 117.885 109.734C117.776 110.081 117.782 110.081 117.998 109.744C118.124 109.548 118.186 109.233 118.137 109.044C118.055 108.734 118.044 108.733 118.023 109.034ZM154.528 109.242C154.461 109.494 154.413 109.88 154.423 110.1C154.432 110.32 154.523 110.149 154.623 109.72C154.818 108.889 154.735 108.47 154.528 109.242ZM219.341 109.369C219.739 110.111 220.911 111.247 221.632 111.589C222.066 111.795 222.064 111.786 221.6 111.461C220.962 111.014 219.792 109.846 219.336 109.2C219.009 108.737 219.009 108.75 219.341 109.369ZM252.5 109.308C251.708 109.582 251.707 109.583 252.4 109.469C252.785 109.406 253.235 109.277 253.4 109.183C253.84 108.932 253.415 108.991 252.5 109.308ZM274.85 109.224C274.493 109.327 274.2 109.456 274.2 109.51C274.2 109.655 275.269 109.377 275.49 109.174C275.708 108.975 275.715 108.974 274.85 109.224ZM231.1 109.611C230.66 109.819 230.435 109.988 230.6 109.986C230.765 109.985 231.215 109.811 231.6 109.6C232.498 109.108 232.146 109.116 231.1 109.611ZM311 110.346C310.273 111.092 310.124 111.311 310.561 110.992C311.104 110.595 312.373 109.18 312.16 109.208C312.127 109.212 311.605 109.724 311 110.346ZM81.434 110.21C81.551 110.546 81.683 110.783 81.729 110.738C81.828 110.639 81.45 109.6 81.315 109.6C81.263 109.6 81.317 109.875 81.434 110.21ZM99.8 109.8C99.398 109.929 99.378 109.961 99.7 109.966C99.92 109.969 100.28 109.895 100.5 109.8C101.01 109.581 100.484 109.581 99.8 109.8ZM250.4 109.8C250.004 109.927 249.983 109.96 250.3 109.96C250.52 109.96 250.925 109.888 251.2 109.8C251.596 109.673 251.617 109.64 251.3 109.64C251.08 109.64 250.675 109.712 250.4 109.8ZM272.9 109.8C272.648 109.908 272.611 109.972 272.8 109.972C272.965 109.972 273.28 109.895 273.5 109.8C273.752 109.692 273.789 109.628 273.6 109.628C273.435 109.628 273.12 109.705 272.9 109.8ZM97.8 110.2C97.404 110.327 97.383 110.36 97.7 110.36C97.92 110.36 98.325 110.288 98.6 110.2C98.996 110.073 99.017 110.04 98.7 110.04C98.48 110.04 98.075 110.112 97.8 110.2ZM144.84 110.3C144.84 110.52 144.912 110.925 145 111.2C145.127 111.596 145.16 111.617 145.16 111.3C145.16 111.08 145.088 110.675 145 110.4C144.873 110.004 144.84 109.983 144.84 110.3ZM225.511 110.226C226.287 110.393 228.976 110.395 229.56 110.23C229.813 110.159 228.873 110.1 227.471 110.1C226.069 110.1 225.186 110.157 225.511 110.226ZM245.072 110.247C245.35 110.426 248.268 110.405 249.1 110.218C249.43 110.144 248.607 110.087 247.272 110.091C245.937 110.096 244.947 110.166 245.072 110.247ZM259.4 110.2C259.565 110.307 259.852 110.395 260.038 110.397C260.28 110.399 260.398 110.612 260.454 111.15L260.533 111.9L260.566 111.145C260.595 110.504 260.523 110.361 260.087 110.195C259.423 109.943 259.006 109.946 259.4 110.2ZM269.355 110.278C269.859 110.385 270.621 110.381 271.249 110.27C272.235 110.094 272.183 110.083 270.406 110.091C268.787 110.099 268.634 110.126 269.355 110.278ZM301 110.229C302.118 110.404 304.942 110.405 305.558 110.23C305.811 110.159 304.686 110.097 303.058 110.094C301.214 110.091 300.439 110.141 301 110.229ZM264.344 110.812C264.698 111.194 265.283 111.667 265.644 111.862C266.277 112.205 266.282 112.205 265.802 111.859C265.528 111.661 264.943 111.189 264.502 110.808L263.7 110.117L264.344 110.812ZM95.1 110.6L94.3 110.743L95.1 110.752C95.54 110.756 96.125 110.688 96.4 110.6L96.9 110.44L96.4 110.448C96.125 110.453 95.54 110.521 95.1 110.6ZM138.525 110.708C138.456 110.886 138.409 111.228 138.42 111.466C138.433 111.74 138.501 111.643 138.605 111.201C138.78 110.458 138.732 110.167 138.525 110.708ZM241.4 111.1C241.773 111.485 242.123 111.8 242.178 111.8C242.233 111.8 241.973 111.485 241.6 111.1C241.227 110.715 240.877 110.4 240.822 110.4C240.767 110.4 241.027 110.715 241.4 111.1ZM277.354 110.845C277.47 110.985 277.604 111.37 277.652 111.7C277.734 112.259 277.742 112.251 277.77 111.571C277.791 111.061 277.702 110.805 277.472 110.717C277.223 110.621 277.194 110.653 277.354 110.845ZM86.516 111.026C87.305 111.197 91.881 111.203 93 111.035C93.495 110.961 92.107 110.9 89.916 110.9C87.724 110.9 86.194 110.957 86.516 111.026ZM154.1 111.4C154.024 111.746 154.004 112.07 154.055 112.121C154.106 112.172 154.205 111.926 154.275 111.575C154.345 111.224 154.366 110.899 154.32 110.854C154.275 110.808 154.176 111.054 154.1 111.4ZM178.067 111.315C177.941 111.582 177.913 111.8 178.005 111.8C178.179 111.8 178.49 111.024 178.366 110.899C178.327 110.861 178.193 111.048 178.067 111.315ZM81.817 111.1C81.817 111.21 81.989 111.615 82.2 112C82.411 112.385 82.583 112.61 82.583 112.5C82.583 112.39 82.411 111.985 82.2 111.6C81.989 111.215 81.817 110.99 81.817 111.1ZM254.8 111.145C255.075 111.196 255.48 111.386 255.7 111.568C256.097 111.897 256.097 111.896 255.719 111.45C255.486 111.175 255.136 111.011 254.819 111.027L254.3 111.054L254.8 111.145ZM115.6 112.424C114.903 113.035 114.903 113.036 115.544 112.61C115.898 112.374 116.241 112.096 116.306 111.991C116.499 111.679 116.339 111.777 115.6 112.424ZM175.8 112L175.3 112.16H175.8C176.075 112.16 176.525 112.088 176.8 112L177.3 111.84H176.8C176.525 111.84 176.075 111.912 175.8 112ZM251.4 112C251.002 112.257 251.502 112.257 252.1 112L252.5 111.828L252.1 111.817C251.88 111.811 251.565 111.893 251.4 112ZM274 112C273.733 112.172 273.733 112.194 274 112.194C274.165 112.194 274.435 112.107 274.6 112C274.867 111.828 274.867 111.806 274.6 111.806C274.435 111.806 274.165 111.893 274 112ZM164.9 112.4C165.12 112.495 165.48 112.569 165.7 112.566C166.022 112.561 166.002 112.529 165.6 112.4C164.916 112.181 164.39 112.181 164.9 112.4ZM172.9 112.4C172.22 112.522 172.19 112.546 172.7 112.56C173.03 112.569 173.66 112.502 174.1 112.411C175.147 112.195 174.101 112.185 172.9 112.4ZM183.5 112.408C184.16 112.49 185.105 112.553 185.6 112.549C186.417 112.542 186.39 112.528 185.3 112.392C184.64 112.31 183.695 112.247 183.2 112.251C182.383 112.258 182.41 112.272 183.5 112.408ZM194.3 112.4C193.756 112.539 193.746 112.554 194.2 112.562C194.475 112.568 194.88 112.495 195.1 112.4C195.593 112.188 195.133 112.188 194.3 112.4ZM223.7 112.4C223.92 112.495 224.28 112.569 224.5 112.566C224.822 112.561 224.802 112.529 224.4 112.4C223.716 112.181 223.19 112.181 223.7 112.4ZM230.8 112.4C230.398 112.529 230.378 112.561 230.7 112.566C230.92 112.569 231.28 112.495 231.5 112.4C232.01 112.181 231.484 112.181 230.8 112.4ZM249.3 112.4C248.761 112.537 248.751 112.553 249.2 112.556C249.475 112.558 249.925 112.488 250.2 112.4C250.872 112.185 250.146 112.185 249.3 112.4ZM257.3 112.4C257.52 112.495 257.835 112.572 258 112.572C258.189 112.572 258.152 112.508 257.9 112.4C257.68 112.305 257.365 112.228 257.2 112.228C257.011 112.228 257.048 112.292 257.3 112.4ZM272.4 112.4C272.004 112.527 271.983 112.56 272.3 112.56C272.52 112.56 272.925 112.488 273.2 112.4C273.596 112.273 273.617 112.24 273.3 112.24C273.08 112.24 272.675 112.312 272.4 112.4ZM297.933 112.333C297.86 112.407 297.8 114.799 297.8 117.65V122.834L296.5 122.767C295.784 122.73 295.199 122.772 295.2 122.859C295.2 122.947 295.808 122.992 296.55 122.959L297.9 122.9L298 117.55C298.055 114.607 298.093 112.2 298.083 112.2C298.074 112.2 298.007 112.26 297.933 112.333ZM299 112.39C299.5 112.56 300.741 112.666 300.583 112.526C300.538 112.485 300.05 112.399 299.5 112.336C298.826 112.258 298.663 112.276 299 112.39ZM307 112.4C306.598 112.529 306.578 112.561 306.9 112.566C307.12 112.569 307.48 112.495 307.7 112.4C308.21 112.181 307.684 112.181 307 112.4ZM259.5 112.6L258.7 112.743L259.55 112.772C260.018 112.787 260.4 112.71 260.4 112.6C260.4 112.49 260.377 112.413 260.35 112.428C260.322 112.444 259.94 112.521 259.5 112.6ZM167.75 112.748C168.438 112.787 169.563 112.787 170.25 112.748C170.938 112.709 170.375 112.677 169 112.677C167.625 112.677 167.063 112.709 167.75 112.748ZM188.95 112.749C189.748 112.786 191.053 112.786 191.85 112.749C192.648 112.711 191.995 112.679 190.4 112.679C188.805 112.679 188.153 112.711 188.95 112.749ZM226.45 112.748C227.082 112.787 228.118 112.787 228.75 112.748C229.382 112.708 228.865 112.676 227.6 112.676C226.335 112.676 225.818 112.708 226.45 112.748ZM245.357 112.748C245.938 112.788 246.838 112.788 247.357 112.747C247.876 112.706 247.4 112.673 246.3 112.673C245.2 112.674 244.776 112.707 245.357 112.748ZM269.056 112.747C269.582 112.789 270.392 112.788 270.856 112.746C271.32 112.704 270.89 112.67 269.9 112.671C268.91 112.672 268.53 112.706 269.056 112.747ZM302.35 112.748C303.038 112.787 304.163 112.787 304.85 112.748C305.538 112.709 304.975 112.677 303.6 112.677C302.225 112.677 301.663 112.709 302.35 112.748ZM82.617 112.9C82.617 113.01 82.789 113.415 83 113.8C83.211 114.185 83.383 114.41 83.383 114.3C83.383 114.19 83.211 113.785 83 113.4C82.789 113.015 82.617 112.79 82.617 112.9ZM109.1 115.907C108.598 116.149 108.581 116.176 109 116.076C109.275 116.009 109.586 115.875 109.69 115.778C109.949 115.535 109.807 115.567 109.1 115.907ZM84.774 117.1C84.882 117.32 85.117 117.68 85.296 117.9L85.622 118.3L85.426 117.9C85.318 117.68 85.083 117.32 84.904 117.1L84.578 116.7L84.774 117.1ZM101 118.609C100.781 118.757 100.862 118.776 101.3 118.678C102.035 118.513 102.195 118.399 101.683 118.403C101.473 118.405 101.165 118.497 101 118.609ZM99.5 119C98.99 119.219 99.516 119.219 100.2 119C100.602 118.871 100.622 118.839 100.3 118.834C100.08 118.831 99.72 118.905 99.5 119ZM97.9 119.4C97.39 119.619 97.916 119.619 98.6 119.4C99.002 119.271 99.022 119.239 98.7 119.234C98.48 119.231 98.12 119.305 97.9 119.4ZM86.919 119.9C87.239 120.175 87.59 120.399 87.7 120.399C87.943 120.398 86.775 119.417 86.519 119.407C86.419 119.403 86.599 119.625 86.919 119.9ZM96 119.8C95.604 119.927 95.583 119.96 95.9 119.96C96.12 119.96 96.525 119.888 96.8 119.8C97.196 119.673 97.217 119.64 96.9 119.64C96.68 119.64 96.275 119.712 96 119.8ZM93.7 120.2C93.165 120.336 93.154 120.353 93.6 120.353C93.875 120.353 94.37 120.284 94.7 120.2C95.235 120.064 95.246 120.047 94.8 120.047C94.525 120.047 94.03 120.116 93.7 120.2ZM88.55 120.541C88.798 120.589 89.203 120.589 89.45 120.541C89.698 120.493 89.495 120.454 89 120.454C88.505 120.454 88.303 120.493 88.55 120.541ZM90.754 120.545C91.113 120.589 91.653 120.589 91.954 120.543C92.254 120.497 91.96 120.461 91.3 120.462C90.64 120.463 90.394 120.5 90.754 120.545Z" fill="#F4A49B"/>
<path fill-rule="evenodd" clip-rule="evenodd" d="M181.4 78.745C181.399 78.83 182.658 78.873 184.196 78.839L186.993 78.779L187.052 83.939L187.111 89.1L187.105 83.9L187.1 78.7L184.25 78.645C182.683 78.614 181.4 78.659 181.4 78.745ZM320.896 95.5C320.896 104.85 320.92 108.646 320.95 103.935C320.98 99.224 320.98 91.574 320.95 86.935C320.92 82.296 320.896 86.15 320.896 95.5ZM277.535 78.942C277.481 79.029 278.103 79.07 278.917 79.034L280.398 78.968L280.451 95.684L280.503 112.4L280.502 95.65L280.5 78.9L279.067 78.842C278.279 78.809 277.59 78.854 277.535 78.942ZM103.955 79.547C104.426 79.589 105.146 79.588 105.555 79.545C105.965 79.502 105.58 79.468 104.7 79.469C103.82 79.469 103.485 79.504 103.955 79.547ZM100.5 79.8C99.965 79.936 99.954 79.953 100.4 79.953C100.675 79.953 101.17 79.884 101.5 79.8C102.035 79.664 102.046 79.647 101.6 79.647C101.325 79.647 100.83 79.716 100.5 79.8ZM108.6 80.7C108.973 81.085 109.323 81.4 109.378 81.4C109.433 81.4 109.173 81.085 108.8 80.7C108.427 80.315 108.077 80 108.022 80C107.967 80 108.227 80.315 108.6 80.7ZM95.8 80.809C95.581 80.957 95.662 80.976 96.1 80.878C96.835 80.713 96.995 80.599 96.483 80.603C96.273 80.605 95.965 80.697 95.8 80.809ZM95.352 84.341C95.601 84.389 95.961 84.387 96.152 84.337C96.344 84.287 96.14 84.248 95.7 84.25C95.26 84.253 95.104 84.294 95.352 84.341ZM93.35 84.541C93.598 84.589 94.002 84.589 94.25 84.541C94.498 84.493 94.295 84.454 93.8 84.454C93.305 84.454 93.103 84.493 93.35 84.541ZM90.2 86.4C89.58 86.496 90.047 86.541 91.7 86.545C93.506 86.549 93.877 86.51 93.2 86.39C92.153 86.204 91.448 86.206 90.2 86.4ZM167.25 87.938C167.442 87.988 167.758 87.988 167.95 87.938C168.143 87.888 167.985 87.846 167.6 87.846C167.215 87.846 167.058 87.888 167.25 87.938ZM170.05 87.938C170.243 87.988 170.558 87.988 170.75 87.938C170.942 87.888 170.785 87.846 170.4 87.846C170.015 87.846 169.858 87.888 170.05 87.938ZM195.217 88.072C195.263 88.111 195.57 88.204 195.9 88.278C196.338 88.376 196.419 88.357 196.2 88.209C195.93 88.026 195.016 87.899 195.217 88.072ZM225.05 88.138C225.243 88.188 225.558 88.188 225.75 88.138C225.943 88.088 225.785 88.046 225.4 88.046C225.015 88.046 224.857 88.088 225.05 88.138ZM229.45 88.138C229.643 88.188 229.957 88.188 230.15 88.138C230.343 88.088 230.185 88.046 229.8 88.046C229.415 88.046 229.257 88.088 229.45 88.138ZM246.853 88.144C247.157 88.189 247.607 88.188 247.853 88.141C248.099 88.093 247.85 88.056 247.3 88.057C246.75 88.059 246.549 88.098 246.853 88.144ZM269.05 88.138C269.243 88.188 269.558 88.188 269.75 88.138C269.943 88.088 269.785 88.046 269.4 88.046C269.015 88.046 268.858 88.088 269.05 88.138ZM273.653 88.144C273.957 88.189 274.407 88.188 274.653 88.141C274.899 88.093 274.65 88.056 274.1 88.057C273.55 88.059 273.349 88.098 273.653 88.144ZM206.9 88.385L208.3 88.5L208.414 90L208.528 91.5L208.564 90.09C208.609 88.322 208.484 88.19 206.81 88.235L205.5 88.271L206.9 88.385ZM205.246 100.35C205.221 106.978 205.268 112.4 205.35 112.4C205.486 112.4 205.484 103.723 205.345 92.6C205.316 90.235 205.271 93.723 205.246 100.35ZM242.3 88.605C242.033 88.723 242.199 88.743 242.8 88.663C243.295 88.598 243.738 88.512 243.783 88.472C243.957 88.322 242.682 88.436 242.3 88.605ZM240.679 89.083C240.619 89.239 240.603 89.621 240.642 89.933C240.701 90.396 240.732 90.344 240.812 89.65C240.913 88.775 240.869 88.587 240.679 89.083ZM158.714 89.914C158.641 90.207 158.619 90.486 158.666 90.533C158.713 90.58 158.812 90.379 158.886 90.086C158.959 89.793 158.981 89.514 158.934 89.467C158.887 89.42 158.788 89.621 158.714 89.914ZM161.887 90.25L161.3 90.9L161.95 90.313C162.308 89.99 162.6 89.697 162.6 89.663C162.6 89.508 162.435 89.644 161.887 90.25ZM220.189 90.35L219.5 91.1L220.25 90.411C220.663 90.032 221 89.694 221 89.661C221 89.508 220.831 89.652 220.189 90.35ZM80.646 90.6C80.646 90.985 80.688 91.142 80.738 90.95C80.788 90.758 80.788 90.442 80.738 90.25C80.688 90.058 80.646 90.215 80.646 90.6ZM234.4 90.063C234.4 90.097 234.693 90.39 235.05 90.713L235.7 91.3L235.113 90.65C234.565 90.044 234.4 89.908 234.4 90.063ZM226.2 90.911C226.894 91.061 229.864 91.126 229.499 90.984C229.279 90.898 228.38 90.832 227.5 90.837C226.62 90.842 226.035 90.876 226.2 90.911ZM271.056 90.947C271.582 90.989 272.392 90.988 272.856 90.946C273.32 90.904 272.89 90.87 271.9 90.871C270.91 90.872 270.53 90.906 271.056 90.947ZM304.55 90.945C304.907 90.989 305.493 90.989 305.85 90.945C306.207 90.9 305.915 90.864 305.2 90.864C304.485 90.864 304.193 90.9 304.55 90.945ZM248.35 91.147C248.928 91.188 249.873 91.188 250.45 91.147C251.028 91.107 250.555 91.074 249.4 91.074C248.245 91.074 247.773 91.107 248.35 91.147ZM274.152 91.141C274.401 91.189 274.761 91.187 274.952 91.137C275.144 91.087 274.94 91.048 274.5 91.05C274.06 91.053 273.904 91.094 274.152 91.141ZM158.325 91.825C158.158 92.659 158.32 92.82 158.5 92C158.576 91.654 158.596 91.33 158.545 91.279C158.494 91.228 158.395 91.474 158.325 91.825ZM243.5 91.4L242.7 91.543L243.4 91.548C243.785 91.551 244.37 91.484 244.7 91.4C245.514 91.193 244.657 91.193 243.5 91.4ZM83.078 94.1C83.078 95.53 83.11 96.089 83.148 95.342C83.187 94.595 83.187 93.425 83.148 92.742C83.109 92.059 83.077 92.67 83.078 94.1ZM76.662 92.9C76.663 93.56 76.7 93.806 76.745 93.446C76.789 93.087 76.789 92.547 76.743 92.246C76.697 91.946 76.661 92.24 76.662 92.9ZM222.487 92.45L221.9 93.1L222.55 92.513C223.156 91.965 223.292 91.8 223.137 91.8C223.103 91.8 222.81 92.093 222.487 92.45ZM232.199 92.5C232.584 92.94 232.978 93.39 233.074 93.5C233.17 93.61 233.156 93.52 233.042 93.3C232.928 93.08 232.534 92.63 232.167 92.3L231.5 91.701L232.199 92.5ZM100.246 93.6C100.246 93.985 100.288 94.142 100.338 93.95C100.388 93.758 100.388 93.442 100.338 93.25C100.288 93.058 100.246 93.215 100.246 93.6ZM167.1 93.205C166.833 93.323 166.999 93.343 167.6 93.263C168.095 93.198 168.538 93.112 168.583 93.072C168.757 92.922 167.482 93.036 167.1 93.205ZM169.65 93.138C169.843 93.188 170.158 93.188 170.35 93.138C170.543 93.088 170.385 93.046 170 93.046C169.615 93.046 169.458 93.088 169.65 93.138ZM190.946 93.344C191.301 93.389 191.931 93.389 192.346 93.346C192.76 93.303 192.47 93.267 191.7 93.266C190.93 93.265 190.59 93.3 190.946 93.344ZM188.1 93.6L187.7 93.772L188.1 93.783C188.32 93.789 188.635 93.707 188.8 93.6C189.198 93.343 188.698 93.343 188.1 93.6ZM80.657 94.5C80.659 95.05 80.698 95.251 80.744 94.947C80.789 94.643 80.788 94.193 80.741 93.947C80.693 93.701 80.656 93.95 80.657 94.5ZM131.322 94.1C131.487 94.835 131.601 94.995 131.597 94.483C131.595 94.273 131.503 93.965 131.391 93.8C131.243 93.581 131.224 93.662 131.322 94.1ZM187.096 100.583C187.099 106.53 187.141 107.478 187.4 107.549C187.619 107.608 187.633 107.583 187.453 107.455C187.267 107.323 187.191 105.6 187.149 100.49L187.092 93.7L187.096 100.583ZM208.629 94.465C208.376 94.77 208.198 112.425 208.45 112.269C208.532 112.218 208.6 108.24 208.6 103.428C208.6 96.891 208.661 94.619 208.84 94.44C208.972 94.308 209.028 94.2 208.964 94.2C208.901 94.2 208.75 94.319 208.629 94.465ZM254.466 96.3C254.467 97.07 254.503 97.36 254.546 96.946C254.589 96.531 254.589 95.901 254.544 95.546C254.5 95.19 254.465 95.53 254.466 96.3ZM257.689 101.4C257.689 104.975 257.716 106.438 257.75 104.65C257.783 102.863 257.783 99.938 257.75 98.15C257.716 96.363 257.689 97.825 257.689 101.4ZM151.9 95.8C151.824 96.146 151.804 96.47 151.855 96.521C151.906 96.572 152.005 96.326 152.075 95.975C152.242 95.141 152.08 94.98 151.9 95.8ZM137.114 95.914C137.041 96.207 137.019 96.486 137.066 96.533C137.113 96.58 137.212 96.379 137.286 96.086C137.359 95.793 137.381 95.514 137.334 95.467C137.287 95.42 137.188 95.621 137.114 95.914ZM146.522 96.3C146.687 97.035 146.801 97.195 146.797 96.683C146.795 96.473 146.703 96.165 146.591 96C146.443 95.781 146.424 95.862 146.522 96.3ZM201.846 96.4C201.846 96.785 201.888 96.942 201.938 96.75C201.988 96.558 201.988 96.243 201.938 96.05C201.888 95.858 201.846 96.015 201.846 96.4ZM313.949 97C314.007 97.715 314.087 98.338 314.127 98.383C314.275 98.552 314.167 96.487 314.008 96.1C313.911 95.865 313.887 96.237 313.949 97ZM179.1 98.549C179.1 99.94 179.157 100.813 179.226 100.489C179.398 99.69 179.404 96.781 179.236 96.36C179.161 96.173 179.1 97.158 179.1 98.549ZM234.136 97.3C234.199 97.85 234.285 98.338 234.326 98.383C234.466 98.541 234.36 97.3 234.19 96.8C234.076 96.463 234.058 96.626 234.136 97.3ZM310.65 97.1C310.653 97.54 310.694 97.696 310.741 97.448C310.789 97.199 310.787 96.839 310.737 96.648C310.687 96.456 310.648 96.66 310.65 97.1ZM237.446 97.2C237.446 97.585 237.488 97.743 237.538 97.55C237.588 97.358 237.588 97.043 237.538 96.85C237.488 96.658 237.446 96.815 237.446 97.2ZM141.762 97.7C141.863 97.92 141.996 98.235 142.057 98.4C142.153 98.659 142.171 98.658 142.184 98.388C142.193 98.217 142.06 97.902 141.889 97.688C141.583 97.306 141.581 97.306 141.762 97.7ZM158.525 98.025C158.368 98.808 158.404 103.097 158.574 103.89C158.643 104.215 158.7 102.887 158.7 100.94C158.7 97.064 158.704 97.13 158.525 98.025ZM217.457 98.3C217.459 98.85 217.498 99.051 217.544 98.747C217.589 98.443 217.588 97.993 217.541 97.747C217.493 97.501 217.456 97.75 217.457 98.3ZM261.462 98.5C261.463 99.16 261.5 99.406 261.545 99.046C261.589 98.687 261.589 98.147 261.543 97.846C261.497 97.546 261.461 97.84 261.462 98.5ZM83.246 98.2C83.246 98.585 83.288 98.743 83.338 98.55C83.388 98.358 83.388 98.043 83.338 97.85C83.288 97.658 83.246 97.815 83.246 98.2ZM264.654 98.6C264.654 99.095 264.693 99.298 264.741 99.05C264.789 98.803 264.789 98.398 264.741 98.15C264.693 97.903 264.654 98.105 264.654 98.6ZM249.95 98.141C250.197 98.189 250.603 98.189 250.85 98.141C251.097 98.093 250.895 98.054 250.4 98.054C249.905 98.054 249.703 98.093 249.95 98.141ZM310.873 100.1C310.874 101.2 310.907 101.624 310.948 101.043C310.988 100.462 310.988 99.562 310.947 99.043C310.906 98.524 310.873 99 310.873 100.1ZM141.423 98.634C141.41 98.817 141.348 99.132 141.285 99.334C141.176 99.681 141.182 99.681 141.398 99.344C141.524 99.148 141.586 98.833 141.537 98.644C141.455 98.334 141.444 98.333 141.423 98.634ZM245.3 98.605C245.033 98.723 245.199 98.743 245.8 98.663C246.295 98.598 246.738 98.512 246.783 98.472C246.957 98.322 245.682 98.436 245.3 98.605ZM126.628 98.8C126.628 98.965 126.705 99.28 126.8 99.5C126.908 99.752 126.972 99.789 126.972 99.6C126.972 99.435 126.895 99.12 126.8 98.9C126.692 98.648 126.628 98.611 126.628 98.8ZM202.069 100.1C202.069 100.98 202.104 101.315 202.147 100.845C202.189 100.374 202.188 99.654 202.145 99.245C202.102 98.835 202.068 99.22 202.069 100.1ZM107.246 99.4C107.246 99.785 107.288 99.942 107.338 99.75C107.388 99.558 107.388 99.243 107.338 99.05C107.288 98.858 107.246 99.015 107.246 99.4ZM237.669 100.3C237.669 101.18 237.704 101.515 237.747 101.045C237.789 100.574 237.788 99.854 237.745 99.445C237.702 99.035 237.668 99.42 237.669 100.3ZM220.662 100.3C220.663 100.96 220.7 101.206 220.745 100.846C220.789 100.487 220.789 99.947 220.743 99.646C220.697 99.346 220.661 99.64 220.662 100.3ZM81.322 100.1C81.487 100.835 81.601 100.995 81.597 100.483C81.595 100.273 81.503 99.965 81.391 99.8C81.243 99.581 81.224 99.662 81.322 100.1ZM151.125 99.908C151.056 100.086 151.009 100.428 151.02 100.666C151.033 100.94 151.101 100.843 151.205 100.401C151.38 99.658 151.332 99.367 151.125 99.908ZM241.661 100.115L241.1 100.629L241.75 100.177C242.107 99.928 242.4 99.697 242.4 99.662C242.4 99.505 242.179 99.64 241.661 100.115ZM156.525 100.625C156.358 101.459 156.52 101.62 156.7 100.8C156.776 100.454 156.796 100.13 156.745 100.079C156.694 100.028 156.595 100.274 156.525 100.625ZM140.914 100.914C140.841 101.207 140.819 101.486 140.866 101.533C140.913 101.58 141.012 101.379 141.086 101.086C141.159 100.793 141.181 100.514 141.134 100.467C141.087 100.42 140.988 100.621 140.914 100.914ZM253.05 100.538C253.243 100.588 253.558 100.588 253.75 100.538C253.943 100.488 253.785 100.446 253.4 100.446C253.015 100.446 252.857 100.488 253.05 100.538ZM254.484 104.4C254.484 106.655 254.514 107.578 254.549 106.45C254.585 105.322 254.585 103.478 254.549 102.35C254.514 101.223 254.484 102.145 254.484 104.4ZM251.552 100.741C251.801 100.789 252.161 100.787 252.352 100.737C252.544 100.687 252.34 100.648 251.9 100.65C251.46 100.653 251.304 100.694 251.552 100.741ZM247.6 101C246.782 101.127 246.764 101.141 247.4 101.155C247.785 101.164 248.505 101.098 249 101.01C250.199 100.797 248.964 100.788 247.6 101ZM217.46 102.2C217.46 102.805 217.497 103.053 217.543 102.75C217.589 102.447 217.589 101.953 217.543 101.65C217.497 101.348 217.46 101.595 217.46 102.2ZM150.7 102.2C150.624 102.546 150.604 102.87 150.655 102.921C150.706 102.972 150.805 102.726 150.875 102.375C151.042 101.541 150.88 101.38 150.7 102.2ZM84 101.932C84 102.041 84.248 102.348 84.55 102.615L85.1 103.1L84.6 102.5C84.325 102.17 84.078 101.863 84.05 101.817C84.023 101.771 84 101.823 84 101.932ZM261.46 102.8C261.46 103.405 261.497 103.653 261.543 103.35C261.589 103.047 261.589 102.553 261.543 102.25C261.497 101.948 261.46 102.195 261.46 102.8ZM264.657 102.7C264.659 103.25 264.698 103.451 264.744 103.147C264.789 102.843 264.788 102.393 264.741 102.147C264.693 101.901 264.656 102.15 264.657 102.7ZM156.223 102.234C156.21 102.417 156.148 102.732 156.085 102.934C155.976 103.281 155.982 103.281 156.198 102.944C156.324 102.748 156.386 102.433 156.337 102.244C156.255 101.934 156.244 101.933 156.223 102.234ZM314.057 102.9C314.059 103.45 314.098 103.651 314.144 103.347C314.189 103.043 314.188 102.593 314.141 102.347C314.093 102.101 314.056 102.35 314.057 102.9ZM117.84 102.5C117.84 102.72 117.912 103.125 118 103.4C118.127 103.796 118.16 103.817 118.16 103.5C118.16 103.28 118.088 102.875 118 102.6C117.873 102.204 117.84 102.183 117.84 102.5ZM310.654 103.2C310.654 103.695 310.693 103.897 310.741 103.65C310.789 103.403 310.789 102.998 310.741 102.75C310.693 102.503 310.654 102.705 310.654 103.2ZM234.123 103.723C234.05 104.346 234.03 104.896 234.078 104.945C234.127 104.994 234.23 104.527 234.308 103.908C234.385 103.288 234.405 102.738 234.352 102.686C234.3 102.633 234.196 103.1 234.123 103.723ZM237.454 103.6C237.454 104.095 237.493 104.297 237.541 104.05C237.589 103.803 237.589 103.397 237.541 103.15C237.493 102.903 237.454 103.105 237.454 103.6ZM201.85 103.9C201.853 104.34 201.894 104.496 201.941 104.248C201.989 103.999 201.987 103.639 201.937 103.448C201.887 103.256 201.848 103.46 201.85 103.9ZM87.1 103.599C87.482 103.764 88.957 103.878 88.783 103.728C88.738 103.689 88.25 103.604 87.7 103.541C87.057 103.466 86.843 103.487 87.1 103.599ZM94.8 103.6C94.116 103.744 94.114 103.748 94.7 103.76C95.03 103.766 95.48 103.695 95.7 103.6C96.181 103.393 95.782 103.393 94.8 103.6ZM148.228 103.6C148.228 103.765 148.305 104.08 148.4 104.3C148.508 104.552 148.572 104.589 148.572 104.4C148.572 104.235 148.495 103.92 148.4 103.7C148.292 103.448 148.228 103.411 148.228 103.6ZM217.646 104.4C217.646 104.785 217.688 104.942 217.738 104.75C217.788 104.558 217.788 104.243 217.738 104.05C217.688 103.858 217.646 104.015 217.646 104.4ZM220.844 104.2C220.842 104.475 220.912 104.925 221 105.2C221.215 105.872 221.215 105.146 221 104.3C220.863 103.761 220.847 103.751 220.844 104.2ZM264.846 104.4C264.846 104.785 264.888 104.942 264.938 104.75C264.988 104.558 264.988 104.243 264.938 104.05C264.888 103.858 264.846 104.015 264.846 104.4ZM107.225 104.3C107.208 104.52 107.148 104.925 107.092 105.2L106.989 105.7L107.203 105.209C107.321 104.94 107.381 104.535 107.336 104.309C107.257 103.911 107.254 103.91 107.225 104.3ZM239.47 105.6C239.47 106.535 239.504 106.918 239.546 106.45C239.589 105.983 239.589 105.218 239.546 104.75C239.504 104.283 239.47 104.665 239.47 105.6ZM242.654 105.6C242.654 106.095 242.693 106.297 242.741 106.05C242.789 105.803 242.789 105.397 242.741 105.15C242.693 104.903 242.654 105.105 242.654 105.6ZM158.803 105.517C158.805 105.728 158.897 106.035 159.009 106.2C159.157 106.419 159.176 106.338 159.078 105.9C158.913 105.165 158.799 105.005 158.803 105.517ZM133.522 105.9C133.687 106.635 133.801 106.795 133.797 106.283C133.795 106.072 133.703 105.765 133.591 105.6C133.443 105.381 133.424 105.462 133.522 105.9ZM143.603 105.917C143.605 106.128 143.697 106.435 143.809 106.6C143.957 106.819 143.976 106.738 143.878 106.3C143.713 105.565 143.599 105.405 143.603 105.917ZM118.437 107.1C118.414 107.87 118.348 108.725 118.292 109L118.189 109.5L118.402 109.011C118.52 108.742 118.585 107.887 118.548 107.111L118.479 105.7L118.437 107.1ZM237.023 106.234C237.01 106.417 236.948 106.732 236.885 106.934C236.776 107.281 236.782 107.281 236.998 106.944C237.124 106.748 237.186 106.433 237.137 106.244C237.055 105.934 237.044 105.933 237.023 106.234ZM177.2 107.277C177.2 107.32 177.465 107.394 177.789 107.441C178.114 107.489 178.333 107.454 178.278 107.364C178.179 107.203 177.2 107.125 177.2 107.277ZM286.65 107.346C287.063 107.389 287.738 107.389 288.15 107.346C288.563 107.303 288.225 107.267 287.4 107.267C286.575 107.267 286.238 107.303 286.65 107.346ZM128.428 107.6C128.428 107.765 128.505 108.08 128.6 108.3C128.708 108.552 128.772 108.589 128.772 108.4C128.772 108.235 128.695 107.92 128.6 107.7C128.492 107.448 128.428 107.411 128.428 107.6ZM174.15 107.541C174.398 107.589 174.803 107.589 175.05 107.541C175.298 107.493 175.095 107.454 174.6 107.454C174.105 107.454 173.903 107.493 174.15 107.541ZM262.3 107.8C262.48 108.399 262.977 109.4 263.094 109.4C263.185 109.4 262.409 107.562 262.249 107.4C262.195 107.345 262.218 107.525 262.3 107.8ZM289.1 109.9C289.1 111.254 289.168 112.32 289.25 112.269C289.332 112.218 289.4 111.152 289.4 109.9C289.4 108.648 289.332 107.582 289.25 107.531C289.168 107.48 289.1 108.546 289.1 109.9ZM169.25 107.748C169.883 107.787 170.918 107.787 171.55 107.748C172.183 107.708 171.665 107.676 170.4 107.676C169.135 107.676 168.618 107.708 169.25 107.748ZM189.25 107.747C189.773 107.788 190.628 107.788 191.15 107.747C191.673 107.706 191.245 107.672 190.2 107.672C189.155 107.672 188.728 107.706 189.25 107.747ZM285.635 109.838C285.616 111.124 285.668 112.218 285.75 112.27C285.832 112.321 285.876 111.629 285.846 110.732C285.749 107.791 285.67 107.459 285.635 109.838ZM178.442 109.64C178.407 111.249 178.34 111.615 178.05 111.784C177.858 111.896 177.79 111.989 177.9 111.991C178.514 112 178.615 111.644 178.55 109.683L178.484 107.7L178.442 109.64ZM222 108.063C222 108.097 222.293 108.39 222.65 108.713L223.3 109.3L222.713 108.65C222.165 108.044 222 107.908 222 108.063ZM128.834 109.5C128.831 109.72 128.905 110.08 129 110.3C129.219 110.81 129.219 110.284 129 109.6C128.871 109.198 128.839 109.178 128.834 109.5ZM251.3 109.4C251.048 109.508 251.011 109.572 251.2 109.572C251.365 109.572 251.68 109.495 251.9 109.4C252.152 109.292 252.189 109.228 252 109.228C251.835 109.228 251.52 109.305 251.3 109.4ZM224.7 109.8C224.92 109.895 225.28 109.969 225.5 109.966C225.822 109.961 225.802 109.929 225.4 109.8C224.716 109.581 224.19 109.581 224.7 109.8ZM229.8 109.8C229.388 109.932 229.37 109.963 229.7 109.977C229.92 109.986 230.235 109.907 230.4 109.8C230.75 109.574 230.507 109.574 229.8 109.8ZM249.1 109.8C248.561 109.937 248.551 109.953 249 109.956C249.275 109.958 249.725 109.888 250 109.8C250.672 109.585 249.946 109.585 249.1 109.8ZM271.8 109.8C271.398 109.929 271.378 109.961 271.7 109.966C271.92 109.969 272.28 109.895 272.5 109.8C273.01 109.581 272.484 109.581 271.8 109.8ZM305.8 109.8C305.388 109.932 305.37 109.963 305.7 109.977C305.92 109.986 306.235 109.907 306.4 109.8C306.75 109.574 306.507 109.574 305.8 109.8ZM300.45 109.938C300.643 109.988 300.957 109.988 301.15 109.938C301.343 109.888 301.185 109.846 300.8 109.846C300.415 109.846 300.257 109.888 300.45 109.938ZM246.05 110.143C246.353 110.189 246.847 110.189 247.15 110.143C247.453 110.097 247.205 110.06 246.6 110.06C245.995 110.06 245.748 110.097 246.05 110.143ZM260.361 110.251C260.524 110.449 260.599 110.968 260.561 111.634L260.5 112.7L259.5 112.819L258.5 112.937L259.426 112.969C260.013 112.989 260.437 112.897 260.586 112.717C260.931 112.301 260.783 110.159 260.4 110.033C260.148 109.951 260.142 109.986 260.361 110.251ZM92.05 110.743C92.353 110.789 92.848 110.789 93.15 110.743C93.453 110.697 93.205 110.66 92.6 110.66C91.995 110.66 91.748 110.697 92.05 110.743ZM88.656 110.947C89.182 110.989 89.992 110.988 90.456 110.946C90.92 110.904 90.49 110.87 89.5 110.871C88.51 110.872 88.13 110.906 88.656 110.947ZM264.784 111.473C265.05 111.801 265.8 112.297 265.8 112.145C265.8 112.106 265.507 111.861 265.15 111.599C264.748 111.305 264.608 111.257 264.784 111.473ZM172.65 112.738C172.843 112.788 173.158 112.788 173.35 112.738C173.543 112.688 173.385 112.646 173 112.646C172.615 112.646 172.458 112.688 172.65 112.738ZM184.853 112.744C185.157 112.789 185.607 112.788 185.853 112.741C186.099 112.693 185.85 112.656 185.3 112.657C184.75 112.659 184.549 112.698 184.853 112.744ZM170.752 112.941C171.001 112.989 171.361 112.987 171.552 112.937C171.744 112.887 171.54 112.848 171.1 112.85C170.66 112.853 170.504 112.894 170.752 112.941ZM187.453 112.944C187.757 112.989 188.207 112.988 188.453 112.941C188.699 112.893 188.45 112.856 187.9 112.857C187.35 112.859 187.149 112.898 187.453 112.944ZM192.45 112.938C192.643 112.988 192.958 112.988 193.15 112.938C193.343 112.888 193.185 112.846 192.8 112.846C192.415 112.846 192.258 112.888 192.45 112.938ZM301.152 112.941C301.401 112.989 301.761 112.987 301.952 112.937C302.144 112.887 301.94 112.848 301.5 112.85C301.06 112.853 300.904 112.894 301.152 112.941ZM87.8 120.591C87.965 120.703 88.273 120.795 88.483 120.797C88.995 120.801 88.835 120.687 88.1 120.522C87.662 120.424 87.581 120.443 87.8 120.591ZM91.85 120.738C92.043 120.788 92.358 120.788 92.55 120.738C92.743 120.688 92.585 120.646 92.2 120.646C91.815 120.646 91.658 120.688 91.85 120.738ZM295.131 123.05C295.182 123.133 295.843 123.2 296.6 123.2C297.357 123.2 298.018 123.133 298.069 123.05C298.12 122.968 297.459 122.9 296.6 122.9C295.741 122.9 295.08 122.968 295.131 123.05Z" fill="#EC6C61"/>
</svg>
