<?xml version="1.0" encoding="UTF-8" standalone="no"?><!DOCTYPE svg PUBLIC "-//W3C//DTD SVG 1.1//EN" "http://www.w3.org/Graphics/SVG/1.1/DTD/svg11.dtd"><svg width="100%" height="100%" viewBox="0 0 201 56" version="1.1" xmlns="http://www.w3.org/2000/svg" xmlns:xlink="http://www.w3.org/1999/xlink" xml:space="preserve" xmlns:serif="http://www.serif.com/" style="fill-rule:evenodd;clip-rule:evenodd;stroke-linejoin:round;stroke-miterlimit:2;"><g id="Logo"><g><ellipse id="v" cx="32.474" cy="28.138" rx="31.986" ry="25.179" style="fill:#108dff;fill-opacity:0.2;"/><circle id="v1" serif:id="v" cx="32.474" cy="28.138" r="27.755" style="fill:#108dff;"/><path d="M20.482,37.83l-3.439,-3.439c-2.231,-2.267 -3.464,-4.497 -3.7,-6.692c-0.235,-2.194 0.599,-4.243 2.503,-6.148c1.115,-1.115 2.351,-1.765 3.707,-1.951c1.355,-0.186 2.668,0.102 3.937,0.863c-0.544,-1.233 -0.696,-2.468 -0.456,-3.706c0.241,-1.238 0.846,-2.342 1.816,-3.312c1.778,-1.777 3.747,-2.505 5.91,-2.183c2.163,0.322 4.445,1.684 6.848,4.087l10.403,10.403c1.487,1.487 2.523,3.067 3.108,4.74c0.585,1.673 0.68,3.314 0.286,4.924c-0.395,1.609 -1.231,3.053 -2.51,4.332c-1.94,1.94 -4.135,2.806 -6.583,2.598c-2.448,-0.209 -4.846,-1.487 -7.195,-3.836l-3.398,-3.398l-6.978,6.978l-0.179,-0.179l-4.08,-4.081Zm20.758,-12.239l-6.216,6.216l3.466,3.466c1.079,1.079 2.156,1.648 3.231,1.707c1.074,0.059 2.083,-0.383 3.026,-1.326c0.97,-0.97 1.469,-2.04 1.496,-3.21c0.027,-1.17 -0.453,-2.267 -1.442,-3.292l-3.561,-3.561Zm-12.135,3.616l-3.561,-3.562c-1.904,-1.849 -3.763,-1.867 -5.577,-0.054c-0.807,0.807 -1.169,1.709 -1.088,2.707c0.082,0.997 0.603,1.976 1.564,2.938l3.317,3.316l5.345,-5.345Zm7.875,-7.875l-2.677,-2.678c-1.124,-1.124 -2.144,-1.75 -3.06,-1.877c-0.916,-0.127 -1.823,0.259 -2.72,1.157c-1.605,1.604 -1.397,3.454 0.625,5.549l2.841,2.84l4.991,-4.991Z" style="fill:#fff;"/><path d="M29.888,8.916l0.134,0.003l0.134,0.005l0.134,0.007l0.134,0.009l0.135,0.011l0.134,0.013l0.134,0.015l0.133,0.016l0.135,0.019l0.134,0.021l0.133,0.023l0.133,0.025l0.134,0.027l0.133,0.028l0.133,0.031l0.132,0.032l0.132,0.034l0.133,0.036l0.132,0.038l0.132,0.04l0.131,0.041l0.131,0.043l0.13,0.045l0.131,0.047l0.13,0.048l0.131,0.051l0.13,0.052l0.129,0.053l0.129,0.055l0.129,0.057l0.129,0.059l0.128,0.06l0.128,0.062l0.129,0.064l0.127,0.065l0.127,0.066l0.128,0.068l0.126,0.07l0.127,0.072l0.126,0.072l0.126,0.074l0.127,0.077l0.125,0.078l0.125,0.078l0.126,0.081l0.126,0.083l0.124,0.083l0.125,0.085l0.125,0.087l0.125,0.088l0.124,0.09l0.124,0.091l0.123,0.092l0.124,0.093l0.124,0.096l0.124,0.098l0.124,0.098l0.122,0.1l0.123,0.101l0.124,0.103l0.122,0.104l0.124,0.106l0.123,0.107l0.122,0.108l0.123,0.111l0.122,0.111l0.122,0.112l0.124,0.116l0.122,0.115l0.122,0.117l0.123,0.119l0.122,0.12l0.12,0.119l6.939,6.939l3.47,3.47l0.152,0.154l0.155,0.16l0.15,0.16l0.149,0.161l0.147,0.164l0.143,0.163l0.141,0.165l0.138,0.165l0.135,0.167l0.133,0.168l0.13,0.169l0.127,0.17l0.125,0.171l0.121,0.172l0.119,0.174l0.117,0.174l0.114,0.177l0.11,0.176l0.107,0.177l0.105,0.18l0.102,0.18l0.098,0.179l0.097,0.184l0.093,0.183l0.09,0.184l0.087,0.185l0.084,0.186l0.08,0.187l0.078,0.188l0.075,0.189l0.072,0.19l0.068,0.191l0.065,0.191l0.062,0.192l0.059,0.194l0.055,0.192l0.052,0.192l0.048,0.193l0.045,0.194l0.042,0.194l0.038,0.193l0.035,0.195l0.031,0.197l0.028,0.195l0.023,0.196l0.021,0.195l0.016,0.194l0.014,0.196l0.009,0.198l0.006,0.196l0.002,0.194l-0.001,0.196l-0.005,0.196l-0.009,0.195l-0.012,0.198l-0.016,0.193l-0.02,0.195l-0.024,0.194l-0.027,0.194l-0.031,0.194l-0.033,0.191l-0.039,0.195l-0.041,0.192l-0.045,0.19l-0.048,0.19l-0.052,0.189l-0.055,0.188l-0.058,0.185l-0.061,0.186l-0.065,0.183l-0.068,0.183l-0.072,0.182l-0.074,0.179l-0.078,0.18l-0.08,0.177l-0.085,0.176l-0.088,0.176l-0.089,0.172l-0.094,0.173l-0.098,0.171l-0.099,0.168l-0.102,0.166l-0.106,0.166l-0.109,0.165l-0.113,0.163l-0.115,0.162l-0.117,0.158l-0.12,0.158l-0.123,0.156l-0.127,0.155l-0.128,0.152l-0.132,0.152l-0.135,0.149l-0.137,0.148l-0.14,0.146l-0.14,0.143l-0.11,0.109l-0.11,0.107l-0.111,0.104l-0.109,0.101l-0.112,0.101l-0.113,0.101l-0.113,0.098l-0.114,0.096l-0.116,0.096l-0.115,0.092l-0.116,0.091l-0.119,0.091l-0.117,0.087l-0.12,0.087l-0.12,0.085l-0.12,0.082l-0.122,0.082l-0.123,0.081l-0.123,0.077l-0.123,0.076l-0.126,0.075l-0.125,0.072l-0.126,0.07l-0.128,0.07l-0.128,0.067l-0.129,0.065l-0.129,0.063l-0.13,0.061l-0.131,0.06l-0.132,0.057l-0.133,0.056l-0.133,0.054l-0.134,0.051l-0.134,0.05l-0.134,0.047l-0.136,0.046l-0.138,0.044l-0.136,0.042l-0.137,0.039l-0.138,0.038l-0.138,0.035l-0.14,0.034l-0.14,0.031l-0.139,0.03l-0.141,0.027l-0.141,0.025l-0.141,0.024l-0.141,0.021l-0.142,0.019l-0.143,0.017l-0.142,0.015l-0.143,0.012l-0.144,0.011l-0.143,0.009l-0.144,0.007l-0.143,0.004l-0.144,0.003l-0.145,0l-0.144,-0.001l-0.145,-0.003l-0.144,-0.006l-0.145,-0.007l-0.145,-0.01l-0.145,-0.011l-0.145,-0.013l-0.146,-0.016l-0.145,-0.017l-0.145,-0.02l-0.144,-0.021l-0.145,-0.023l-0.144,-0.025l-0.144,-0.027l-0.144,-0.029l-0.144,-0.032l-0.143,-0.033l-0.143,-0.034l-0.142,-0.037l-0.143,-0.039l-0.142,-0.041l-0.141,-0.042l-0.141,-0.044l-0.141,-0.046l-0.141,-0.048l-0.139,-0.05l-0.14,-0.052l-0.14,-0.053l-0.138,-0.056l-0.138,-0.056l-0.139,-0.06l-0.137,-0.06l-0.138,-0.063l-0.137,-0.064l-0.136,-0.066l-0.135,-0.067l-0.136,-0.069l-0.135,-0.072l-0.134,-0.072l-0.133,-0.074l-0.134,-0.076l-0.135,-0.079l-0.132,-0.079l-0.132,-0.08l-0.132,-0.083l-0.131,-0.084l-0.132,-0.086l-0.13,-0.088l-0.13,-0.088l-0.13,-0.091l-0.13,-0.093l-0.128,-0.093l-0.129,-0.096l-0.128,-0.097l-0.127,-0.098l-0.127,-0.1l-0.127,-0.101l-0.127,-0.104l-0.126,-0.104l-0.126,-0.107l-0.126,-0.108l-0.124,-0.108l-0.125,-0.111l-0.125,-0.113l-0.123,-0.113l-0.124,-0.116l-0.123,-0.116l-0.122,-0.118l-0.124,-0.121l-0.119,-0.119l-1.794,-1.793l-5.371,5.37l-0.131,0.121l-0.14,0.111l-0.148,0.099l-0.156,0.087l-0.162,0.075l-0.167,0.062l-0.172,0.048l-0.175,0.035l-0.177,0.021l-0.178,0.007l-0.178,-0.007l-0.177,-0.021l-0.175,-0.035l-0.172,-0.048l-0.167,-0.062l-0.162,-0.074l-0.156,-0.087l-0.148,-0.099l-0.14,-0.111l-0.131,-0.121l-0.18,-0.179l-4.081,-4.081l-3.447,-3.448l-0.119,-0.121l-0.114,-0.118l-0.111,-0.118l-0.111,-0.117l-0.109,-0.118l-0.108,-0.119l-0.106,-0.118l-0.104,-0.118l-0.104,-0.119l-0.103,-0.12l-0.099,-0.118l-0.1,-0.119l-0.098,-0.121l-0.097,-0.12l-0.094,-0.12l-0.095,-0.122l-0.092,-0.12l-0.089,-0.119l-0.091,-0.123l-0.088,-0.123l-0.085,-0.12l-0.085,-0.122l-0.085,-0.123l-0.081,-0.123l-0.081,-0.122l-0.079,-0.123l-0.078,-0.125l-0.076,-0.124l-0.075,-0.124l-0.073,-0.124l-0.071,-0.125l-0.071,-0.126l-0.068,-0.126l-0.067,-0.125l-0.065,-0.126l-0.064,-0.126l-0.062,-0.127l-0.062,-0.129l-0.059,-0.127l-0.057,-0.127l-0.056,-0.128l-0.054,-0.129l-0.053,-0.13l-0.051,-0.129l-0.049,-0.129l-0.048,-0.13l-0.046,-0.13l-0.045,-0.132l-0.042,-0.13l-0.041,-0.131l-0.039,-0.134l-0.037,-0.129l-0.035,-0.131l-0.035,-0.135l-0.031,-0.132l-0.031,-0.132l-0.028,-0.135l-0.027,-0.133l-0.024,-0.131l-0.023,-0.135l-0.021,-0.136l-0.019,-0.131l-0.017,-0.134l-0.016,-0.137l-0.014,-0.136l-0.011,-0.136l-0.01,-0.136l-0.007,-0.137l-0.005,-0.136l-0.004,-0.137l-0.001,-0.136l0.001,-0.139l0.003,-0.136l0.005,-0.133l0.008,-0.139l0.009,-0.136l0.011,-0.132l0.014,-0.138l0.016,-0.136l0.018,-0.134l0.021,-0.138l0.021,-0.131l0.024,-0.134l0.028,-0.136l0.027,-0.131l0.031,-0.132l0.033,-0.135l0.035,-0.132l0.037,-0.131l0.039,-0.131l0.04,-0.13l0.043,-0.13l0.045,-0.129l0.047,-0.128l0.048,-0.128l0.052,-0.13l0.053,-0.126l0.054,-0.124l0.056,-0.125l0.059,-0.127l0.06,-0.124l0.062,-0.123l0.064,-0.123l0.066,-0.122l0.067,-0.121l0.069,-0.121l0.073,-0.121l0.072,-0.119l0.074,-0.117l0.076,-0.118l0.078,-0.118l0.08,-0.117l0.08,-0.113l0.084,-0.117l0.084,-0.114l0.086,-0.113l0.088,-0.113l0.089,-0.112l0.092,-0.113l0.091,-0.109l0.094,-0.11l0.096,-0.111l0.097,-0.109l0.097,-0.106l0.101,-0.109l0.102,-0.107l0.103,-0.106l0.107,-0.108l0.128,-0.126l0.135,-0.128l0.135,-0.125l0.136,-0.12l0.139,-0.119l0.14,-0.116l0.141,-0.112l0.145,-0.111l0.145,-0.107l0.146,-0.104l0.149,-0.101l0.152,-0.098l0.152,-0.095l0.153,-0.091l0.155,-0.088l0.157,-0.084l0.159,-0.082l0.161,-0.078l0.161,-0.074l0.163,-0.071l0.165,-0.068l0.166,-0.064l0.166,-0.06l0.169,-0.056l0.17,-0.053l0.17,-0.049l0.172,-0.045l0.173,-0.042l0.174,-0.037l0.174,-0.034l0.175,-0.03l0.175,-0.026l0.176,-0.022l0.175,-0.018l0.175,-0.015l0.176,-0.01l0.176,-0.007l0.176,-0.003l0.175,0.001l0.176,0.004l0.027,0.002l0.014,-0.16l0.016,-0.158l0.02,-0.159l0.023,-0.162l0.027,-0.159l0.028,-0.157l0.033,-0.16l0.035,-0.157l0.038,-0.155l0.042,-0.158l0.045,-0.156l0.046,-0.152l0.051,-0.153l0.053,-0.152l0.056,-0.15l0.059,-0.15l0.063,-0.151l0.064,-0.145l0.068,-0.147l0.071,-0.145l0.073,-0.144l0.077,-0.142l0.078,-0.14l0.081,-0.139l0.085,-0.139l0.087,-0.136l0.09,-0.135l0.092,-0.134l0.095,-0.132l0.096,-0.129l0.1,-0.129l0.102,-0.127l0.104,-0.126l0.107,-0.124l0.109,-0.123l0.112,-0.121l0.112,-0.118l0.114,-0.115l0.104,-0.103l0.102,-0.098l0.102,-0.097l0.104,-0.097l0.104,-0.093l0.105,-0.093l0.106,-0.092l0.108,-0.09l0.107,-0.087l0.108,-0.087l0.108,-0.084l0.109,-0.083l0.112,-0.082l0.112,-0.081l0.111,-0.077l0.113,-0.077l0.115,-0.076l0.113,-0.072l0.116,-0.072l0.118,-0.07l0.116,-0.068l0.118,-0.066l0.118,-0.065l0.12,-0.063l0.121,-0.061l0.12,-0.058l0.122,-0.058l0.124,-0.055l0.122,-0.053l0.124,-0.051l0.126,-0.05l0.124,-0.047l0.126,-0.046l0.127,-0.043l0.127,-0.041l0.128,-0.04l0.129,-0.037l0.128,-0.035l0.13,-0.034l0.13,-0.031l0.131,-0.029l0.13,-0.026l0.131,-0.025l0.132,-0.023l0.132,-0.02l0.133,-0.019l0.132,-0.016l0.133,-0.014l0.133,-0.012l0.134,-0.01l0.133,-0.008l0.134,-0.005l0.134,-0.004l0.134,-0.001l0.134,0Zm-0.226,2.273l-0.098,0.003l-0.098,0.004l-0.097,0.005l-0.098,0.008l-0.097,0.008l-0.096,0.011l-0.097,0.011l-0.096,0.014l-0.096,0.015l-0.096,0.016l-0.095,0.018l-0.095,0.02l-0.095,0.021l-0.094,0.022l-0.094,0.024l-0.094,0.026l-0.094,0.027l-0.093,0.029l-0.093,0.03l-0.093,0.032l-0.092,0.033l-0.093,0.035l-0.091,0.037l-0.092,0.038l-0.091,0.039l-0.092,0.041l-0.09,0.043l-0.091,0.044l-0.09,0.045l-0.09,0.048l-0.09,0.048l-0.089,0.051l-0.089,0.051l-0.089,0.054l-0.088,0.055l-0.089,0.056l-0.088,0.058l-0.087,0.059l-0.088,0.061l-0.087,0.063l-0.087,0.064l-0.086,0.066l-0.087,0.067l-0.086,0.069l-0.085,0.07l-0.086,0.072l-0.085,0.073l-0.085,0.075l-0.084,0.076l-0.085,0.078l-0.084,0.08l-0.083,0.081l-0.084,0.082l-0.09,0.091l-0.087,0.093l-0.086,0.092l-0.083,0.094l-0.082,0.095l-0.079,0.095l-0.077,0.096l-0.075,0.097l-0.073,0.097l-0.07,0.099l-0.069,0.099l-0.066,0.1l-0.065,0.101l-0.062,0.101l-0.06,0.103l-0.057,0.103l-0.056,0.104l-0.054,0.104l-0.051,0.106l-0.049,0.106l-0.047,0.107l-0.045,0.108l-0.043,0.108l-0.041,0.11l-0.038,0.11l-0.037,0.111l-0.034,0.112l-0.032,0.112l-0.03,0.113l-0.028,0.114l-0.026,0.115l-0.024,0.116l-0.021,0.116l-0.019,0.116l-0.017,0.116l-0.014,0.116l-0.012,0.116l-0.01,0.116l-0.008,0.116l-0.005,0.116l-0.003,0.116l-0.001,0.116l0.002,0.116l0.004,0.115l0.006,0.116l0.008,0.116l0.011,0.116l0.013,0.116l0.016,0.116l0.017,0.115l0.02,0.116l0.023,0.116l0.024,0.116l0.027,0.116l0.029,0.115l0.032,0.116l0.033,0.116l0.036,0.115l0.039,0.116l0.04,0.116l0.043,0.115l0.046,0.116l0.047,0.116l0.05,0.115l-0.119,-0.07l-0.119,-0.067l-0.12,-0.064l-0.12,-0.062l-0.12,-0.059l-0.12,-0.056l-0.121,-0.053l-0.121,-0.051l-0.121,-0.048l-0.122,-0.045l-0.121,-0.042l-0.122,-0.04l-0.122,-0.036l-0.123,-0.034l-0.122,-0.031l-0.123,-0.029l-0.124,-0.025l-0.123,-0.023l-0.124,-0.02l-0.124,-0.018l-0.124,-0.014l-0.124,-0.012l-0.125,-0.009l-0.125,-0.006l-0.125,-0.003l-0.125,-0.001l-0.126,0.002l-0.126,0.005l-0.126,0.008l-0.127,0.01l-0.127,0.014l-0.126,0.016l-0.127,0.018l-0.126,0.022l-0.126,0.024l-0.124,0.027l-0.124,0.03l-0.123,0.032l-0.123,0.035l-0.122,0.038l-0.121,0.041l-0.12,0.043l-0.12,0.046l-0.119,0.049l-0.118,0.051l-0.118,0.054l-0.117,0.057l-0.116,0.06l-0.115,0.062l-0.115,0.065l-0.114,0.068l-0.113,0.071l-0.113,0.073l-0.112,0.076l-0.111,0.079l-0.111,0.081l-0.11,0.084l-0.109,0.087l-0.108,0.09l-0.108,0.092l-0.107,0.095l-0.106,0.098l-0.106,0.1l-0.105,0.103l-0.088,0.09l-0.087,0.089l-0.086,0.09l-0.083,0.09l-0.083,0.09l-0.08,0.091l-0.079,0.09l-0.078,0.091l-0.076,0.091l-0.074,0.092l-0.073,0.091l-0.071,0.092l-0.07,0.092l-0.068,0.092l-0.066,0.092l-0.065,0.093l-0.064,0.093l-0.062,0.093l-0.06,0.093l-0.059,0.093l-0.057,0.094l-0.055,0.094l-0.054,0.094l-0.053,0.094l-0.051,0.094l-0.049,0.095l-0.048,0.095l-0.046,0.095l-0.044,0.095l-0.043,0.096l-0.042,0.096l-0.04,0.096l-0.038,0.096l-0.037,0.096l-0.035,0.097l-0.034,0.097l-0.032,0.097l-0.03,0.097l-0.029,0.097l-0.027,0.098l-0.026,0.098l-0.024,0.098l-0.023,0.098l-0.021,0.099l-0.02,0.098l-0.018,0.099l-0.016,0.099l-0.015,0.1l-0.013,0.099l-0.012,0.1l-0.01,0.1l-0.008,0.1l-0.007,0.101l-0.006,0.1l-0.003,0.101l-0.003,0.101l0,0.101l0,0.102l0.003,0.102l0.004,0.102l0.005,0.102l0.008,0.102l0.008,0.103l0.01,0.102l0.012,0.103l0.014,0.103l0.014,0.103l0.016,0.103l0.018,0.103l0.019,0.103l0.021,0.104l0.022,0.103l0.023,0.103l0.025,0.104l0.026,0.103l0.028,0.103l0.03,0.104l0.03,0.104l0.033,0.103l0.033,0.104l0.035,0.104l0.037,0.103l0.038,0.104l0.04,0.104l0.041,0.104l0.042,0.104l0.044,0.104l0.046,0.104l0.046,0.104l0.049,0.105l0.049,0.104l0.052,0.104l0.052,0.105l0.055,0.104l0.055,0.105l0.057,0.104l0.059,0.105l0.06,0.104l0.061,0.105l0.063,0.105l0.064,0.105l0.066,0.104l0.068,0.105l0.068,0.105l0.071,0.105l0.071,0.105l0.073,0.105l0.075,0.106l0.076,0.105l0.078,0.105l0.079,0.105l0.08,0.106l0.082,0.105l0.083,0.106l0.085,0.105l0.087,0.106l0.087,0.106l0.09,0.105l0.09,0.106l0.092,0.106l0.094,0.106l0.095,0.106l0.097,0.106l0.098,0.106l0.099,0.106l0.101,0.106l0.102,0.106l0.104,0.106l7.698,7.699l6.978,-6.978l3.398,3.398l0.11,0.109l0.11,0.108l0.111,0.106l0.11,0.105l0.11,0.103l0.111,0.101l0.11,0.1l0.111,0.099l0.111,0.096l0.111,0.096l0.11,0.093l0.111,0.092l0.111,0.091l0.111,0.089l0.112,0.087l0.111,0.086l0.111,0.084l0.111,0.083l0.112,0.081l0.111,0.079l0.112,0.078l0.112,0.077l0.111,0.075l0.112,0.073l0.112,0.072l0.112,0.07l0.112,0.068l0.112,0.067l0.112,0.066l0.113,0.063l0.112,0.063l0.112,0.06l0.113,0.06l0.112,0.057l0.113,0.056l0.113,0.055l0.112,0.053l0.113,0.051l0.113,0.05l0.113,0.048l0.113,0.046l0.113,0.045l0.113,0.044l0.114,0.042l0.113,0.04l0.113,0.039l0.114,0.037l0.113,0.036l0.114,0.034l0.114,0.032l0.113,0.031l0.114,0.03l0.114,0.027l0.114,0.027l0.114,0.024l0.114,0.023l0.115,0.022l0.114,0.02l0.114,0.018l0.115,0.017l0.114,0.015l0.115,0.014l0.114,0.012l0.115,0.011l0.115,0.009l0.114,0.007l0.114,0.006l0.113,0.004l0.113,0.003l0.113,0.001l0.112,0l0.112,-0.002l0.112,-0.004l0.111,-0.005l0.111,-0.007l0.111,-0.008l0.11,-0.01l0.109,-0.012l0.11,-0.013l0.109,-0.014l0.108,-0.016l0.109,-0.018l0.108,-0.02l0.107,-0.021l0.107,-0.022l0.107,-0.024l0.106,-0.026l0.106,-0.027l0.106,-0.029l0.105,-0.03l0.105,-0.032l0.105,-0.034l0.104,-0.035l0.104,-0.036l0.103,-0.038l0.103,-0.04l0.103,-0.042l0.102,-0.043l0.102,-0.044l0.102,-0.046l0.101,-0.048l0.101,-0.049l0.1,-0.051l0.1,-0.052l0.1,-0.054l0.099,-0.056l0.099,-0.057l0.099,-0.059l0.098,-0.06l0.098,-0.062l0.097,-0.063l0.097,-0.065l0.097,-0.067l0.096,-0.068l0.096,-0.07l0.096,-0.071l0.095,-0.073l0.095,-0.074l0.095,-0.076l0.094,-0.078l0.093,-0.079l0.094,-0.081l0.093,-0.082l0.092,-0.084l0.093,-0.085l0.092,-0.087l0.091,-0.089l0.091,-0.09l0.119,-0.12l0.116,-0.122l0.113,-0.122l0.111,-0.123l0.108,-0.125l0.106,-0.125l0.103,-0.126l0.1,-0.127l0.098,-0.128l0.095,-0.129l0.093,-0.13l0.09,-0.131l0.088,-0.132l0.085,-0.133l0.082,-0.134l0.08,-0.135l0.077,-0.136l0.074,-0.137l0.072,-0.138l0.069,-0.138l0.067,-0.14l0.064,-0.141l0.062,-0.141l0.059,-0.143l0.056,-0.144l0.054,-0.144l0.051,-0.146l0.049,-0.146l0.046,-0.148l0.044,-0.148l0.04,-0.15l0.039,-0.15l0.035,-0.151l0.033,-0.151l0.03,-0.152l0.027,-0.151l0.024,-0.152l0.021,-0.152l0.018,-0.152l0.016,-0.152l0.012,-0.153l0.01,-0.152l0.007,-0.153l0.004,-0.153l0.001,-0.153l-0.002,-0.154l-0.004,-0.153l-0.008,-0.154l-0.01,-0.154l-0.013,-0.154l-0.017,-0.155l-0.019,-0.154l-0.021,-0.155l-0.025,-0.155l-0.028,-0.155l-0.03,-0.155l-0.033,-0.156l-0.037,-0.155l-0.039,-0.156l-0.042,-0.156l-0.044,-0.156l-0.048,-0.157l-0.051,-0.156l-0.053,-0.157l-0.056,-0.156l-0.059,-0.156l-0.061,-0.156l-0.064,-0.155l-0.067,-0.154l-0.069,-0.154l-0.072,-0.153l-0.075,-0.153l-0.077,-0.152l-0.08,-0.152l-0.083,-0.151l-0.085,-0.151l-0.088,-0.15l-0.091,-0.149l-0.093,-0.149l-0.096,-0.149l-0.098,-0.147l-0.101,-0.148l-0.104,-0.147l-0.106,-0.146l-0.109,-0.145l-0.112,-0.146l-0.114,-0.144l-0.117,-0.144l-0.12,-0.144l-0.122,-0.143l-0.125,-0.142l-0.127,-0.142l-0.13,-0.141l-0.133,-0.141l-0.136,-0.14l-0.138,-0.14l-3.466,-3.466l-6.937,-6.937l-0.112,-0.112l-0.113,-0.11l-0.112,-0.109l-0.112,-0.107l-0.112,-0.106l-0.111,-0.104l-0.112,-0.103l-0.111,-0.101l-0.111,-0.1l-0.111,-0.098l-0.111,-0.097l-0.111,-0.095l-0.11,-0.093l-0.11,-0.092l-0.11,-0.091l-0.11,-0.089l-0.11,-0.087l-0.11,-0.086l-0.109,-0.085l-0.109,-0.083l-0.109,-0.081l-0.109,-0.08l-0.109,-0.078l-0.108,-0.077l-0.109,-0.075l-0.108,-0.074l-0.108,-0.072l-0.107,-0.071l-0.108,-0.069l-0.108,-0.068l-0.107,-0.066l-0.107,-0.065l-0.107,-0.063l-0.107,-0.061l-0.106,-0.06l-0.107,-0.059l-0.106,-0.057l-0.106,-0.055l-0.106,-0.054l-0.105,-0.053l-0.106,-0.051l-0.105,-0.049l-0.105,-0.048l-0.105,-0.046l-0.105,-0.045l-0.105,-0.043l-0.104,-0.042l-0.104,-0.04l-0.105,-0.039l-0.103,-0.037l-0.104,-0.036l-0.104,-0.034l-0.103,-0.033l-0.103,-0.031l-0.103,-0.029l-0.103,-0.028l-0.103,-0.027l-0.103,-0.025l-0.102,-0.023l-0.102,-0.022l-0.102,-0.021l-0.102,-0.019l-0.101,-0.017l-0.102,-0.016l-0.101,-0.014l-0.101,-0.013l-0.101,-0.011l-0.1,-0.01l-0.1,-0.008l-0.1,-0.007l-0.1,-0.005l-0.099,-0.003l-0.099,-0.003l-0.099,0l-0.098,0.001Zm15.139,17.963l0.091,0.097l0.089,0.096l0.085,0.098l0.082,0.097l0.079,0.098l0.077,0.098l0.073,0.099l0.07,0.099l0.068,0.1l0.064,0.1l0.062,0.101l0.058,0.101l0.055,0.101l0.053,0.102l0.049,0.102l0.047,0.103l0.044,0.103l0.04,0.103l0.038,0.104l0.034,0.105l0.032,0.104l0.029,0.106l0.025,0.105l0.023,0.106l0.01,0.053l0.01,0.054l0.009,0.053l0.008,0.054l0.007,0.053l0.007,0.054l0.005,0.054l0.005,0.054l0.008,0.108l0.005,0.108l0.002,0.109l-0.001,0.11l-0.004,0.109l-0.007,0.109l-0.009,0.108l-0.012,0.108l-0.015,0.107l-0.018,0.106l-0.021,0.106l-0.023,0.106l-0.026,0.104l-0.029,0.104l-0.031,0.104l-0.035,0.103l-0.037,0.102l-0.039,0.102l-0.043,0.101l-0.045,0.101l-0.049,0.1l-0.05,0.099l-0.054,0.099l-0.057,0.098l-0.059,0.098l-0.062,0.097l-0.064,0.097l-0.068,0.095l-0.07,0.096l-0.073,0.095l-0.076,0.094l-0.078,0.093l-0.082,0.093l-0.084,0.093l-0.087,0.092l-0.089,0.091l-0.089,0.087l-0.089,0.084l-0.089,0.081l-0.09,0.078l-0.09,0.075l-0.091,0.072l-0.09,0.07l-0.092,0.066l-0.091,0.064l-0.092,0.06l-0.093,0.058l-0.093,0.054l-0.093,0.052l-0.094,0.049l-0.094,0.046l-0.094,0.043l-0.095,0.04l-0.095,0.037l-0.095,0.034l-0.096,0.031l-0.097,0.028l-0.096,0.025l-0.097,0.023l-0.098,0.019l-0.098,0.017l-0.098,0.013l-0.099,0.011l-0.099,0.008l-0.099,0.004l-0.1,0.002l-0.1,-0.001l-0.1,-0.004l-0.101,-0.007l-0.101,-0.01l-0.101,-0.013l-0.101,-0.016l-0.1,-0.019l-0.101,-0.022l-0.101,-0.025l-0.101,-0.028l-0.101,-0.031l-0.1,-0.034l-0.101,-0.037l-0.101,-0.039l-0.101,-0.043l-0.101,-0.046l-0.101,-0.049l-0.101,-0.052l-0.101,-0.055l-0.101,-0.058l-0.101,-0.06l-0.101,-0.064l-0.101,-0.067l-0.101,-0.07l-0.101,-0.073l-0.101,-0.075l-0.101,-0.079l-0.101,-0.082l-0.101,-0.085l-0.101,-0.087l-0.101,-0.091l-0.101,-0.094l-0.102,-0.096l-0.101,-0.1l-3.466,-3.466l6.216,-6.216l3.561,3.561Zm-6.563,2.655l1.853,1.854l0.083,0.081l0.076,0.073l0.075,0.069l0.073,0.066l0.072,0.062l0.071,0.06l0.069,0.056l0.068,0.053l0.068,0.05l0.065,0.047l0.064,0.044l0.062,0.041l0.06,0.039l0.059,0.035l0.057,0.032l0.056,0.031l0.054,0.028l0.051,0.024l0.05,0.023l0.049,0.021l0.047,0.019l0.045,0.016l0.044,0.015l0.042,0.013l0.04,0.011l0.039,0.01l0.039,0.008l0.037,0.007l0.035,0.006l0.036,0.004l0.034,0.004l0.034,0.002l0.035,0.001l0.033,0.001l0.033,-0.001l0.032,-0.002l0.032,-0.002l0.031,-0.003l0.031,-0.005l0.031,-0.005l0.031,-0.006l0.032,-0.007l0.033,-0.009l0.031,-0.009l0.034,-0.011l0.035,-0.013l0.035,-0.013l0.037,-0.016l0.038,-0.017l0.039,-0.019l0.041,-0.021l0.041,-0.023l0.043,-0.026l0.047,-0.029l0.045,-0.029l0.047,-0.033l0.05,-0.036l0.049,-0.038l0.052,-0.041l0.053,-0.045l0.054,-0.046l0.057,-0.052l0.055,-0.052l0.057,-0.057l0.061,-0.061l0.057,-0.06l0.054,-0.06l0.051,-0.059l0.049,-0.058l0.046,-0.057l0.044,-0.057l0.041,-0.056l0.039,-0.055l0.035,-0.052l0.034,-0.053l0.033,-0.054l0.029,-0.052l0.027,-0.049l0.026,-0.05l0.024,-0.05l0.022,-0.049l0.021,-0.05l0.018,-0.046l0.017,-0.048l0.016,-0.047l0.014,-0.047l0.013,-0.047l0.011,-0.045l0.011,-0.05l0.01,-0.047l0.007,-0.046l0.007,-0.049l0.006,-0.051l0.004,-0.05l0.003,-0.048l0.002,-0.052l0.001,-0.05l-0.001,-0.044l-0.002,-0.046l-0.004,-0.055l-0.002,-0.016l-0.002,-0.023l-0.003,-0.024l-0.003,-0.018l-0.003,-0.024l-0.004,-0.023l-0.003,-0.018l-0.003,-0.016l-0.012,-0.054l-0.011,-0.045l-0.012,-0.045l-0.014,-0.045l-0.015,-0.046l-0.018,-0.049l-0.018,-0.047l-0.021,-0.049l-0.022,-0.049l-0.025,-0.05l-0.027,-0.054l-0.029,-0.052l-0.03,-0.052l-0.034,-0.057l-0.037,-0.057l-0.038,-0.056l-0.041,-0.058l-0.045,-0.061l-0.047,-0.06l-0.05,-0.062l-0.053,-0.062l-0.056,-0.064l-0.059,-0.065l-0.055,-0.058l-1.933,-1.933l-3.002,3.002Zm-15.429,-7.56l0.087,0.005l0.087,0.007l0.088,0.01l0.087,0.013l0.088,0.016l0.087,0.018l0.088,0.021l0.088,0.024l0.087,0.026l0.088,0.029l0.088,0.032l0.088,0.034l0.088,0.037l0.088,0.04l0.088,0.043l0.089,0.045l0.088,0.048l0.088,0.05l0.089,0.053l0.088,0.056l0.089,0.059l0.088,0.061l0.089,0.064l0.089,0.066l0.089,0.07l0.088,0.071l0.089,0.075l0.089,0.077l0.09,0.08l0.089,0.083l0.089,0.085l3.561,3.562l-5.345,5.345l-3.317,-3.316l-0.088,-0.091l-0.087,-0.09l-0.083,-0.09l-0.081,-0.091l-0.079,-0.09l-0.076,-0.091l-0.073,-0.091l-0.071,-0.091l-0.068,-0.091l-0.066,-0.091l-0.063,-0.091l-0.06,-0.091l-0.058,-0.092l-0.056,-0.091l-0.052,-0.092l-0.051,-0.092l-0.047,-0.092l-0.045,-0.092l-0.043,-0.092l-0.039,-0.092l-0.038,-0.092l-0.034,-0.092l-0.033,-0.093l-0.029,-0.093l-0.027,-0.092l-0.024,-0.093l-0.022,-0.093l-0.02,-0.093l-0.016,-0.093l-0.014,-0.093l-0.012,-0.094l-0.009,-0.093l-0.006,-0.093l-0.004,-0.093l-0.001,-0.092l0.001,-0.092l0.005,-0.091l0.006,-0.09l0.009,-0.09l0.012,-0.089l0.015,-0.089l0.017,-0.088l0.02,-0.088l0.022,-0.087l0.025,-0.087l0.027,-0.086l0.03,-0.085l0.033,-0.085l0.035,-0.084l0.038,-0.084l0.041,-0.083l0.043,-0.083l0.046,-0.082l0.048,-0.081l0.051,-0.081l0.053,-0.081l0.057,-0.08l0.058,-0.079l0.062,-0.079l0.064,-0.078l0.066,-0.077l0.069,-0.077l0.072,-0.077l0.074,-0.076l0.085,-0.084l0.086,-0.081l0.085,-0.078l0.085,-0.075l0.085,-0.073l0.086,-0.071l0.085,-0.067l0.086,-0.065l0.085,-0.062l0.086,-0.06l0.085,-0.057l0.086,-0.054l0.086,-0.051l0.086,-0.049l0.086,-0.046l0.086,-0.044l0.086,-0.04l0.086,-0.038l0.087,-0.036l0.086,-0.032l0.086,-0.03l0.087,-0.028l0.086,-0.024l0.087,-0.022l0.086,-0.02l0.087,-0.016l0.087,-0.014l0.087,-0.011l0.087,-0.009l0.087,-0.006l0.087,-0.003l0.087,0l0.087,0.002Zm-0.126,2.27l-0.018,0.001l-0.017,0.001l-0.017,0.002l-0.018,0.002l-0.02,0.003l-0.019,0.004l-0.021,0.004l-0.022,0.006l-0.024,0.007l-0.024,0.007l-0.026,0.009l-0.028,0.011l-0.031,0.013l-0.031,0.013l-0.032,0.016l-0.036,0.018l-0.038,0.02l-0.038,0.021l-0.039,0.024l-0.043,0.028l-0.044,0.028l-0.045,0.031l-0.047,0.035l-0.05,0.038l-0.05,0.039l-0.051,0.042l-0.054,0.046l-0.054,0.048l-0.055,0.051l-0.058,0.055l-0.057,0.056l-0.043,0.044l-0.038,0.041l-0.034,0.038l-0.032,0.037l-0.032,0.039l-0.027,0.035l-0.025,0.034l-0.024,0.034l-0.021,0.032l-0.019,0.03l-0.019,0.031l-0.015,0.027l-0.014,0.027l-0.012,0.025l-0.012,0.025l-0.01,0.026l-0.009,0.023l-0.008,0.022l-0.008,0.025l-0.006,0.021l-0.005,0.021l-0.006,0.024l-0.004,0.022l-0.004,0.021l-0.003,0.022l-0.002,0.023l-0.002,0.027l-0.001,0.025l0,0.026l0,0.03l0.001,0.029l0.002,0.03l0.003,0.033l0.004,0.03l0.005,0.031l0.006,0.034l0.007,0.035l0.008,0.033l0.009,0.036l0.01,0.035l0.012,0.036l0.014,0.04l0.015,0.041l0.016,0.039l0.018,0.042l0.021,0.044l0.022,0.046l0.023,0.045l0.026,0.047l0.029,0.05l0.031,0.052l0.032,0.051l0.035,0.052l0.038,0.055l0.041,0.057l0.042,0.056l0.045,0.058l0.048,0.06l0.052,0.061l0.052,0.061l0.056,0.062l0.06,0.065l0.061,0.064l0.071,0.072l1.704,1.704l2.132,-2.132l-1.936,-1.936l-0.059,-0.056l-0.064,-0.06l-0.061,-0.055l-0.06,-0.051l-0.059,-0.05l-0.056,-0.046l-0.057,-0.044l-0.054,-0.04l-0.053,-0.038l-0.051,-0.036l-0.049,-0.032l-0.048,-0.03l-0.045,-0.027l-0.043,-0.025l-0.042,-0.023l-0.041,-0.021l-0.039,-0.019l-0.035,-0.016l-0.034,-0.014l-0.033,-0.013l-0.032,-0.011l-0.028,-0.009l-0.026,-0.008l-0.027,-0.008l-0.024,-0.005l-0.022,-0.005l-0.022,-0.004l-0.02,-0.003l-0.019,-0.002l-0.019,-0.002l-0.017,-0.001l-0.017,0l-0.017,0Zm8.26,-9.763l0.043,0.001l0.085,0.005l0.086,0.007l0.086,0.01l0.086,0.014l0.087,0.016l0.087,0.019l0.088,0.022l0.089,0.025l0.089,0.028l0.09,0.031l0.09,0.034l0.091,0.037l0.092,0.04l0.092,0.042l0.093,0.046l0.094,0.048l0.094,0.051l0.095,0.055l0.095,0.057l0.096,0.06l0.096,0.063l0.098,0.066l0.097,0.069l0.099,0.072l0.099,0.074l0.099,0.078l0.1,0.081l0.101,0.083l0.102,0.087l0.102,0.089l0.102,0.092l0.104,0.095l0.104,0.098l0.104,0.101l0.105,0.104l2.677,2.678l-4.991,4.991l-2.841,-2.84l-0.093,-0.098l-0.091,-0.098l-0.088,-0.097l-0.086,-0.097l-0.082,-0.097l-0.081,-0.096l-0.077,-0.096l-0.075,-0.095l-0.072,-0.095l-0.07,-0.095l-0.067,-0.094l-0.064,-0.095l-0.061,-0.093l-0.059,-0.094l-0.057,-0.093l-0.053,-0.092l-0.051,-0.092l-0.048,-0.092l-0.046,-0.092l-0.043,-0.091l-0.04,-0.091l-0.038,-0.09l-0.035,-0.091l-0.032,-0.089l-0.03,-0.09l-0.027,-0.089l-0.025,-0.088l-0.021,-0.089l-0.019,-0.088l-0.017,-0.087l-0.014,-0.088l-0.011,-0.086l-0.008,-0.087l-0.006,-0.086l-0.003,-0.086l-0.001,-0.085l0.003,-0.085l0.004,-0.085l0.008,-0.085l0.01,-0.084l0.013,-0.083l0.015,-0.084l0.019,-0.083l0.02,-0.082l0.024,-0.082l0.026,-0.082l0.029,-0.082l0.031,-0.081l0.034,-0.081l0.037,-0.08l0.039,-0.08l0.042,-0.08l0.045,-0.079l0.047,-0.079l0.05,-0.079l0.053,-0.078l0.055,-0.078l0.058,-0.078l0.061,-0.077l0.063,-0.077l0.066,-0.076l0.068,-0.076l0.072,-0.076l0.074,-0.075l0.084,-0.083l0.084,-0.08l0.084,-0.076l0.085,-0.074l0.084,-0.071l0.085,-0.067l0.084,-0.065l0.085,-0.062l0.084,-0.058l0.085,-0.056l0.085,-0.053l0.084,-0.049l0.085,-0.047l0.085,-0.044l0.085,-0.04l0.085,-0.038l0.085,-0.034l0.085,-0.032l0.085,-0.029l0.085,-0.025l0.086,-0.023l0.085,-0.02l0.085,-0.016l0.086,-0.014l0.085,-0.01l0.086,-0.008l0.042,-0.003l0.043,-0.002l0.043,-0.001l0.043,0l0.043,0Zm-0.043,2.272l-0.002,0l-0.014,0.002l-0.007,0l-0.008,0.002l-0.01,0.002l-0.011,0.002l-0.013,0.004l-0.014,0.004l-0.016,0.005l-0.019,0.007l-0.022,0.009l-0.022,0.01l-0.025,0.012l-0.029,0.015l-0.03,0.016l-0.033,0.02l-0.035,0.021l-0.036,0.024l-0.04,0.027l-0.042,0.031l-0.043,0.033l-0.044,0.036l-0.048,0.04l-0.05,0.043l-0.051,0.047l-0.053,0.049l-0.052,0.052l-0.043,0.044l-0.039,0.041l-0.035,0.039l-0.033,0.038l-0.03,0.037l-0.028,0.035l-0.025,0.034l-0.023,0.033l-0.02,0.028l-0.018,0.029l-0.016,0.027l-0.015,0.026l-0.012,0.024l-0.01,0.02l-0.011,0.023l-0.008,0.02l-0.006,0.015l-0.005,0.014l-0.005,0.016l-0.005,0.018l-0.003,0.011l-0.003,0.014l-0.002,0.013l-0.002,0.013l-0.002,0.013l-0.001,0.011l-0.001,0.013l0,0.015l0,0.015l0.001,0.017l0.001,0.018l0.001,0.016l0.003,0.021l0.004,0.025l0.004,0.022l0.005,0.023l0.007,0.028l0.009,0.033l0.01,0.033l0.011,0.032l0.012,0.034l0.016,0.04l0.018,0.043l0.019,0.044l0.021,0.043l0.023,0.048l0.027,0.05l0.027,0.05l0.032,0.054l0.035,0.058l0.036,0.058l0.037,0.056l0.042,0.062l0.046,0.065l0.048,0.065l0.049,0.065l0.053,0.068l0.057,0.07l0.059,0.071l0.062,0.072l0.065,0.073l0.068,0.075l0.071,0.077l0.065,0.068l1.215,1.215l1.778,-1.778l-1.067,-1.067l-0.091,-0.09l-0.085,-0.082l-0.084,-0.08l-0.084,-0.077l-0.08,-0.072l-0.079,-0.069l-0.078,-0.067l-0.076,-0.063l-0.074,-0.059l-0.073,-0.057l-0.069,-0.052l-0.069,-0.05l-0.066,-0.047l-0.065,-0.044l-0.061,-0.04l-0.058,-0.036l-0.058,-0.035l-0.055,-0.031l-0.051,-0.029l-0.049,-0.025l-0.047,-0.023l-0.044,-0.02l-0.041,-0.018l-0.036,-0.015l-0.035,-0.012l-0.033,-0.012l-0.028,-0.009l-0.026,-0.007l-0.023,-0.006l-0.02,-0.004l-0.017,-0.003l-0.013,-0.002l-0.009,-0.001l-0.008,-0.001l-0.013,-0.001l-0.002,0Z" style="fill:#1d2025;"/></g><g transform="matrix(1.13616,0,0,1.13616,-515.282,-65.9598)"><text x="519.027px" y="88.524px" style="font-family:'OpenSans-ExtraBold', 'Open Sans', sans-serif;font-weight:800;font-size:16px;fill:#108dff;">DEV</text><text x="550.652px" y="88.524px" style="font-family:'OpenSans-ExtraBold', 'Open Sans', sans-serif;font-weight:800;font-size:16px;fill:#262626;">PEBE.<tspan x="592.934px 602.996px 615.746px " y="88.524px 88.524px 88.524px ">COM</tspan></text></g></g></svg>