<svg width="1640" height="923" viewBox="0 0 1640 923" fill="none" xmlns="http://www.w3.org/2000/svg">
<path d="M1197.98 140.272H1223.57C1268.05 140.272 1301.13 150.705 1322.8 171.565C1344.47 192.43 1355.31 224.069 1355.31 266.48V346.355C1355.31 357.653 1356.57 367.74 1359.11 376.611C1361.65 385.489 1366.08 392.981 1372.42 399.087C1378.76 405.197 1387.23 409.866 1397.84 413.091C1408.44 416.321 1421.7 417.932 1437.61 417.932H1452.47V465.995H1437.61C1420.78 465.995 1407 467.378 1396.28 470.144C1385.57 472.91 1377.21 477.119 1371.22 482.764C1365.22 488.415 1361.07 495.618 1358.77 504.375C1356.46 513.138 1355.31 523.511 1355.31 535.495V656.517C1355.31 675.88 1353 693.342 1348.4 708.902C1343.78 724.463 1336.29 737.715 1325.92 748.667C1315.54 759.613 1301.94 768.03 1285.12 773.908C1268.29 779.786 1247.77 782.726 1223.57 782.726H1197.98V734.317H1218.73C1271.98 734.317 1298.6 708.383 1298.6 656.517V536.877C1298.6 480.634 1322.92 449.05 1371.56 442.134C1322.46 436.834 1297.91 405.136 1297.91 347.046V267.862C1297.91 215.077 1271.51 188.678 1218.73 188.678H1197.98V140.272H1197.98Z" fill="#F7923A"/>
<path d="M441.844 140.249H416.256C371.77 140.249 338.69 150.682 317.019 171.542C295.353 192.407 284.515 224.046 284.515 266.457V346.332C284.515 357.63 283.249 367.717 280.711 376.588C278.178 385.466 273.741 392.958 267.399 399.064C261.06 405.174 252.589 409.843 241.984 413.068C231.382 416.298 218.125 417.909 202.218 417.909H187.35V465.972H202.218C219.048 465.972 232.822 467.355 243.539 470.121C254.257 472.887 262.616 477.096 268.607 482.741C274.604 488.392 278.753 495.595 281.055 504.352C283.363 513.115 284.513 523.488 284.513 535.472V656.494C284.513 675.857 286.822 693.319 291.428 708.879C296.041 724.44 303.532 737.692 313.904 748.644C324.279 759.59 337.882 768.007 354.706 773.885C371.536 779.763 392.051 782.703 416.255 782.703H441.843V734.294H421.096C367.847 734.294 341.221 708.36 341.221 656.494V536.854C341.221 480.611 316.906 449.027 268.263 442.111C317.363 436.811 341.912 405.113 341.912 347.023V267.839C341.912 215.054 368.309 188.655 421.096 188.655H441.843V140.249H441.844Z" fill="#F7923A"/>
<path d="M671.859 545.909C671.859 568.767 669.04 589.517 663.401 608.161C657.762 626.808 648.964 642.711 637.01 655.868C625.055 669.028 609.753 679.178 591.11 686.317C572.463 693.461 550.133 697.032 524.119 697.032H449.235V402.228H536.526C559.083 402.228 578.817 405.048 595.734 410.688C612.65 416.327 626.748 425.01 638.026 436.74C649.305 448.468 657.762 463.357 663.401 481.402C669.039 499.444 671.859 520.95 671.859 545.909ZM612.312 549.518C612.312 533.58 611.032 519.372 608.477 506.887C605.918 494.408 601.598 483.846 595.507 475.197C589.418 466.551 581.26 459.971 571.036 455.461C560.808 450.95 548.102 448.694 532.916 448.694H504.722V650.568H529.083C556.297 650.568 576.973 642.449 591.109 626.206C605.242 609.965 612.312 584.405 612.312 549.518Z" fill="black"/>
<path d="M725.314 697.032V402.229H902.827V449.144H781.704V522.453H897.189V568.24H781.704V650.117H902.828V697.033H725.314V697.032Z" fill="black"/>
<path d="M1101.32 697.032H1027.78L937.789 402.228H1000.72L1050.57 579.743L1066.58 637.935L1083.27 576.358L1132.67 402.228H1191.76L1101.32 697.032Z" fill="black"/>
<path d="M541.25 360.688H523.152V299.683H467.332V360.688H449.234V227.8H467.332V284.026H523.152V227.8H541.25V360.688Z" fill="black"/>
<path d="M676.945 293.38C676.945 305.311 675.536 315.612 672.725 324.288C669.911 332.966 666.115 340.134 661.337 345.792C656.558 351.453 650.966 355.654 644.561 358.4C638.155 361.145 631.394 362.517 624.277 362.517C615.736 362.517 608.298 360.975 601.961 357.891C595.621 354.808 590.369 350.351 586.2 344.521C582.031 338.692 578.931 331.592 576.898 323.22C574.864 314.849 573.847 305.411 573.847 294.904C573.847 283.11 575.236 272.876 578.016 264.199C580.794 255.523 584.573 248.355 589.352 242.694C594.131 237.036 599.706 232.832 606.078 230.087C612.449 227.342 619.194 225.969 626.311 225.969C634.852 225.969 642.29 227.529 648.63 230.646C654.967 233.765 660.235 238.221 664.44 244.017C668.642 249.812 671.777 256.878 673.846 265.216C675.909 273.553 676.945 282.942 676.945 293.38ZM658.135 294.701C658.135 286.907 657.539 279.772 656.354 273.299C655.166 266.826 653.254 261.25 650.61 256.573C647.966 251.895 644.56 248.27 640.391 245.694C636.223 243.118 631.191 241.831 625.292 241.831C619.599 241.831 614.701 243.203 610.602 245.948C606.498 248.693 603.128 252.423 600.485 257.132C597.841 261.844 595.872 267.368 594.586 273.705C593.298 280.044 592.656 286.77 592.656 293.888C592.656 301.752 593.265 308.919 594.485 315.392C595.704 321.867 597.618 327.424 600.23 332.067C602.838 336.711 606.211 340.32 610.347 342.896C614.481 345.472 619.464 346.759 625.294 346.759C630.988 346.759 635.901 345.386 640.035 342.641C644.168 339.896 647.576 336.169 650.255 331.456C652.933 326.746 654.913 321.238 656.201 314.935C657.488 308.631 658.135 301.887 658.135 294.701Z" fill="black"/>
<path d="M805.219 292.77C805.219 299.142 804.726 305.243 803.744 311.072C802.762 316.901 801.184 322.324 799.017 327.34C796.847 332.357 794.034 336.914 790.576 341.016C787.119 345.118 782.884 348.624 777.867 351.538C772.851 354.454 767.021 356.707 760.38 358.3C753.735 359.893 746.179 360.69 737.707 360.69H709.237V227.8H743.502C764.243 227.8 779.715 233.137 789.916 243.813C800.117 254.488 805.219 270.808 805.219 292.77ZM786.205 294.091C786.205 284.67 785.323 276.705 783.561 270.197C781.798 263.69 779.121 258.438 775.529 254.437C771.935 250.439 767.429 247.541 762.007 245.745C756.582 243.95 750.213 243.051 742.892 243.051H727.335V345.03H740.857C771.089 345.03 786.205 328.05 786.205 294.091Z" fill="black"/>
<path d="M827.841 361.651L873.638 226.837H898.393L943.159 361.651H922.427L893.339 270.778L885.089 244.166L876.63 270.778L847.44 361.651H827.841Z" fill="#F7923A"/>
<path d="M1059.73 324.695C1059.73 330.999 1058.44 336.524 1055.86 341.267C1053.29 346.013 1049.7 349.961 1045.09 353.114C1040.48 356.266 1034.94 358.621 1028.46 360.179C1021.99 361.737 1014.85 362.517 1007.06 362.517C1003.54 362.517 1000.03 362.381 996.54 362.111C993.047 361.84 989.691 361.502 986.474 361.095C983.252 360.689 980.22 360.214 977.374 359.671C974.526 359.128 971.95 358.552 969.645 357.942V340.455C974.729 342.353 980.44 343.845 986.778 344.929C993.116 346.014 1000.32 346.556 1008.38 346.556C1014.21 346.556 1019.18 346.099 1023.28 345.184C1027.38 344.269 1030.73 342.912 1033.34 341.116C1035.95 339.321 1037.85 337.137 1039.04 334.559C1040.22 331.984 1040.82 329.036 1040.82 325.713C1040.82 322.12 1039.82 319.052 1037.82 316.51C1035.82 313.968 1033.19 311.699 1029.94 309.699C1026.68 307.7 1022.97 305.87 1018.8 304.208C1014.64 302.549 1010.38 300.838 1006.04 299.074C1001.7 297.312 997.452 295.398 993.284 293.329C989.115 291.263 985.405 288.822 982.151 286.009C978.898 283.197 976.268 279.893 974.27 276.096C972.27 272.3 971.27 267.793 971.27 262.574C971.27 258.033 972.218 253.559 974.118 249.152C976.014 244.747 978.963 240.832 982.964 237.408C986.963 233.986 992.097 231.224 998.368 229.122C1004.64 227.021 1012.11 225.971 1020.79 225.971C1023.02 225.971 1025.44 226.073 1028.06 226.277C1030.66 226.48 1033.31 226.769 1035.99 227.14C1038.66 227.514 1041.31 227.938 1043.92 228.411C1046.53 228.886 1048.95 229.394 1051.19 229.936V246.204C1045.97 244.714 1040.75 243.578 1035.53 242.798C1030.31 242.02 1025.26 241.629 1020.38 241.629C1010.01 241.629 1002.39 243.357 997.505 246.814C992.625 250.271 990.185 254.916 990.185 260.744C990.185 264.338 991.184 267.422 993.184 269.997C995.183 272.574 997.811 274.878 1001.06 276.911C1004.32 278.944 1008.03 280.792 1012.2 282.452C1016.37 284.114 1020.62 285.825 1024.96 287.587C1029.3 289.351 1033.55 291.281 1037.72 293.382C1041.89 295.484 1045.6 297.976 1048.85 300.856C1052.11 303.738 1054.73 307.108 1056.73 310.971C1058.73 314.833 1059.73 319.408 1059.73 324.695Z" fill="black"/>
<path d="M1191.76 360.688H1173.67V299.683H1117.85V360.688H1099.75V227.8H1117.85V284.026H1173.67V227.8H1191.76V360.688Z" fill="black"/>
</svg>
