<?xml version="1.0" encoding="utf-8"?>
<!-- Generator: Adobe Illustrator 16.0.0, SVG Export Plug-In . SVG Version: 6.00 Build 0)  -->
<!DOCTYPE svg PUBLIC "-//W3C//DTD SVG 1.1//EN" "http://www.w3.org/Graphics/SVG/1.1/DTD/svg11.dtd">
<svg version="1.1" id="Warstwa_1" xmlns="http://www.w3.org/2000/svg" xmlns:xlink="http://www.w3.org/1999/xlink" x="0px" y="0px"
	 width="522px" height="163.329px" viewBox="0 0 522 163.329" enable-background="new 0 0 522 163.329" xml:space="preserve">
<g>
	<path d="M115.09,76.279h-8.348v23.9h-6.613v-23.9h-8.307v-5.368h23.267V76.279z"/>
	<path d="M158.115,70.911l-7.736,29.268h-7.307l-4.857-18.777c-0.259-0.979-0.416-2.075-0.47-3.286h-0.082
		c-0.123,1.333-0.299,2.429-0.531,3.286l-4.98,18.777h-7.613l-7.695-29.268h7.205l4.123,19.492c0.177,0.83,0.306,1.946,0.388,3.347
		h0.123c0.054-1.047,0.251-2.19,0.592-3.429l5.307-19.41h7.062l4.796,19.655c0.177,0.722,0.333,1.769,0.469,3.144h0.082
		c0.054-1.075,0.197-2.164,0.429-3.266l4.042-19.533H158.115z"/>
	<path d="M174.198,100.689c-4.191,0-7.606-1.364-10.246-4.092c-2.64-2.728-3.959-6.283-3.959-10.664
		c0-4.626,1.34-8.368,4.021-11.226s6.231-4.286,10.654-4.286c4.177,0,7.555,1.368,10.133,4.103
		c2.579,2.735,3.868,6.341,3.868,10.817c0,4.599-1.337,8.307-4.011,11.123C181.984,99.281,178.498,100.689,174.198,100.689z
		 M174.483,76.095c-2.313,0-4.149,0.868-5.511,2.603c-1.36,1.735-2.04,4.031-2.04,6.888c0,2.898,0.68,5.191,2.04,6.878
		c1.361,1.687,3.144,2.531,5.348,2.531c2.272,0,4.075-0.82,5.409-2.459c1.333-1.64,2-3.915,2-6.827c0-3.034-0.646-5.395-1.939-7.082
		C178.498,76.939,176.728,76.095,174.483,76.095z"/>
	<path d="M218.079,100.179h-7.572l-4.551-7.531c-0.341-0.571-0.667-1.082-0.98-1.531c-0.313-0.449-0.629-0.833-0.948-1.153
		c-0.32-0.319-0.653-0.564-1.001-0.734c-0.347-0.17-0.725-0.255-1.133-0.255h-1.775v11.205h-6.592V70.911h10.449
		c7.103,0,10.654,2.653,10.654,7.96c0,1.021-0.156,1.963-0.47,2.827c-0.313,0.864-0.755,1.643-1.326,2.337
		c-0.571,0.694-1.263,1.292-2.072,1.796s-1.711,0.898-2.704,1.184v0.082c0.436,0.136,0.857,0.357,1.266,0.664
		s0.803,0.663,1.184,1.071s0.745,0.847,1.092,1.316c0.348,0.47,0.664,0.929,0.949,1.378L218.079,100.179z M200.118,75.851v8.144
		h2.857c1.415,0,2.552-0.408,3.408-1.225c0.871-0.83,1.307-1.857,1.307-3.082c0-2.558-1.53-3.837-4.592-3.837H200.118z"/>
	<path d="M241.204,99.138c-2.137,1.034-4.926,1.551-8.368,1.551c-4.49,0-8.021-1.32-10.593-3.959
		c-2.572-2.64-3.857-6.157-3.857-10.552c0-4.68,1.445-8.477,4.337-11.389c2.891-2.912,6.644-4.368,11.256-4.368
		c2.857,0,5.266,0.361,7.226,1.082v6.347c-1.96-1.17-4.191-1.755-6.695-1.755c-2.748,0-4.966,0.864-6.653,2.592
		s-2.53,4.069-2.53,7.021c0,2.831,0.796,5.085,2.388,6.766s3.734,2.521,6.429,2.521c2.572,0,4.926-0.626,7.063-1.878V99.138z"/>
	<path d="M272.042,100.179h-7.185l-2.081-6.511h-10.409l-2.062,6.511h-7.144l10.654-29.268h7.816L272.042,100.179z M261.266,88.607
		l-3.143-9.838c-0.232-0.735-0.396-1.612-0.49-2.633h-0.163c-0.068,0.857-0.238,1.708-0.511,2.551l-3.184,9.919H261.266z"/>
	<path d="M282.709,99.057v-6.531c1.184,0.994,2.47,1.738,3.857,2.235c1.388,0.497,2.789,0.745,4.205,0.745
		c0.829,0,1.554-0.075,2.173-0.225c0.619-0.149,1.137-0.357,1.552-0.623c0.415-0.265,0.725-0.578,0.929-0.939
		c0.204-0.36,0.306-0.751,0.306-1.173c0-0.571-0.163-1.082-0.489-1.531c-0.327-0.449-0.772-0.864-1.337-1.245
		c-0.565-0.381-1.235-0.748-2.011-1.102c-0.775-0.354-1.612-0.714-2.511-1.082c-2.285-0.953-3.989-2.116-5.112-3.49
		c-1.122-1.374-1.684-3.034-1.684-4.98c0-1.524,0.306-2.833,0.918-3.929c0.612-1.095,1.446-1.997,2.5-2.704
		c1.055-0.708,2.276-1.228,3.664-1.562c1.388-0.333,2.857-0.5,4.408-0.5c1.524,0,2.875,0.092,4.052,0.275
		c1.177,0.184,2.262,0.466,3.256,0.847v6.103c-0.49-0.34-1.024-0.639-1.603-0.898c-0.579-0.258-1.174-0.473-1.786-0.643
		c-0.612-0.17-1.222-0.296-1.826-0.377c-0.606-0.082-1.181-0.123-1.725-0.123c-0.749,0-1.429,0.072-2.041,0.214
		c-0.612,0.143-1.13,0.344-1.552,0.602c-0.422,0.259-0.748,0.568-0.979,0.929c-0.231,0.361-0.347,0.766-0.347,1.214
		c0,0.49,0.129,0.929,0.388,1.316c0.258,0.388,0.626,0.755,1.102,1.102c0.477,0.347,1.055,0.688,1.735,1.021
		c0.68,0.334,1.449,0.677,2.307,1.031c1.17,0.49,2.221,1.01,3.153,1.562c0.932,0.551,1.73,1.173,2.397,1.868
		c0.667,0.694,1.177,1.487,1.531,2.377c0.354,0.892,0.53,1.929,0.53,3.113c0,1.633-0.31,3.003-0.929,4.112
		c-0.619,1.109-1.459,2.007-2.521,2.694s-2.296,1.181-3.704,1.479c-1.408,0.299-2.896,0.449-4.46,0.449
		c-1.605,0-3.133-0.136-4.582-0.408S283.771,99.601,282.709,99.057z"/>
	<path d="M328.041,76.279h-8.348v23.9h-6.613v-23.9h-8.307v-5.368h23.268V76.279z"/>
	<path d="M356.533,100.179h-7.572l-4.551-7.531c-0.341-0.571-0.667-1.082-0.98-1.531c-0.313-0.449-0.629-0.833-0.948-1.153
		c-0.32-0.319-0.653-0.564-1.001-0.734c-0.347-0.17-0.725-0.255-1.133-0.255h-1.775v11.205h-6.592V70.911h10.449
		c7.103,0,10.654,2.653,10.654,7.96c0,1.021-0.156,1.963-0.47,2.827c-0.313,0.864-0.755,1.643-1.326,2.337
		c-0.571,0.694-1.263,1.292-2.072,1.796s-1.711,0.898-2.704,1.184v0.082c0.436,0.136,0.857,0.357,1.266,0.664
		s0.803,0.663,1.184,1.071s0.745,0.847,1.092,1.316c0.348,0.47,0.664,0.929,0.949,1.378L356.533,100.179z M338.572,75.851v8.144
		h2.857c1.415,0,2.552-0.408,3.408-1.225c0.871-0.83,1.307-1.857,1.307-3.082c0-2.558-1.53-3.837-4.592-3.837H338.572z"/>
	<path d="M371.228,100.689c-4.191,0-7.606-1.364-10.246-4.092c-2.64-2.728-3.959-6.283-3.959-10.664
		c0-4.626,1.34-8.368,4.021-11.226s6.231-4.286,10.654-4.286c4.177,0,7.555,1.368,10.133,4.103
		c2.579,2.735,3.868,6.341,3.868,10.817c0,4.599-1.337,8.307-4.011,11.123C379.014,99.281,375.528,100.689,371.228,100.689z
		 M371.513,76.095c-2.313,0-4.149,0.868-5.511,2.603c-1.36,1.735-2.04,4.031-2.04,6.888c0,2.898,0.68,5.191,2.04,6.878
		c1.361,1.687,3.144,2.531,5.348,2.531c2.272,0,4.075-0.82,5.409-2.459c1.333-1.64,2-3.915,2-6.827c0-3.034-0.646-5.395-1.939-7.082
		C375.528,76.939,373.758,76.095,371.513,76.095z"/>
	<path d="M416.884,100.179h-6.653L398.168,81.79c-0.707-1.075-1.197-1.885-1.47-2.429h-0.081c0.108,1.034,0.163,2.613,0.163,4.735
		v16.083h-6.225V70.911h7.103l11.613,17.818c0.53,0.803,1.021,1.599,1.469,2.388h0.082c-0.109-0.68-0.163-2.021-0.163-4.021V70.911
		h6.225V100.179z"/>
	<path d="M425.825,100.689c-1.062,0-1.946-0.327-2.653-0.979c-0.708-0.653-1.062-1.456-1.062-2.409c0-0.979,0.363-1.782,1.092-2.408
		c0.728-0.626,1.636-0.939,2.725-0.939c1.103,0,2.003,0.316,2.704,0.949s1.052,1.432,1.052,2.398c0,0.994-0.357,1.807-1.072,2.439
		C427.896,100.373,426.967,100.689,425.825,100.689z"/>
	<path d="M441.499,90.097v10.083h-6.592V70.911h10.327c7.375,0,11.063,3.109,11.063,9.328c0,2.939-1.059,5.317-3.174,7.133
		c-2.116,1.816-4.943,2.725-8.48,2.725H441.499z M441.499,75.973v9.123h2.592c3.511,0,5.267-1.538,5.267-4.613
		c0-3.007-1.756-4.51-5.267-4.51H441.499z"/>
	<path d="M478.012,100.179h-17.43V70.911h6.592v23.921h10.838V100.179z"/>
</g>
<g opacity="0.6">
	<path d="M98.265,102.796c4.013,0.674,9.588,0.486,14.797-1.448c6.532-2.424,9.035-6.833,7.347-11.382
		c-1.565-4.216-5.297-5.654-13.359-5.578c-10.406,0.099-18.087-2.6-21.065-10.621c-3.376-9.096,1.653-18.865,13.726-23.346
		c6.036-2.24,10.993-2.575,14.439-2.161l0.558,9.107c-2.383-0.338-6.853-0.467-12.062,1.466c-6.45,2.394-7.972,6.91-6.775,10.135
		c1.596,4.3,5.557,5.087,14.073,5.219c11.025,0.048,17.548,3.177,20.526,11.198c3.314,8.93-0.581,19.218-14.969,24.559
		c-5.871,2.179-12.603,2.797-16.338,2.113L98.265,102.796z"/>
	<path d="M84.408,57.137L39.246,73.899l3.172,8.512l19.016-7.058l17.525,47.215l10.17-3.775L71.605,71.578l9.682-3.593
		C80.948,64.185,82.023,60.427,84.408,57.137z"/>
</g>
<path opacity="0.6" fill="none" stroke="#000000" stroke-width="7.2203" stroke-miterlimit="10" d="M144.412,102.078
	c1.291,3.477-0.589,7.381-4.199,8.721l-72.982,27.089c-3.609,1.34-7.582-0.393-8.872-3.87L32.27,63.727
	c-1.291-3.476,0.589-7.38,4.199-8.72l72.982-27.089c3.609-1.339,7.582,0.393,8.872,3.869L144.412,102.078z"/>
<path opacity="0.6" d="M43.783,62.428c0.409,1.103-0.152,2.329-1.256,2.738l0,0c-1.103,0.409-2.329-0.153-2.738-1.256l-0.063-0.17
	c-0.41-1.103,0.153-2.329,1.255-2.738l0,0c1.103-0.409,2.329,0.153,2.738,1.256L43.783,62.428z"/>
<path opacity="0.6" d="M49.334,60.367c0.41,1.103-0.152,2.329-1.255,2.738l0,0c-1.103,0.41-2.329-0.152-2.738-1.255l-0.063-0.17
	c-0.409-1.103,0.153-2.329,1.256-2.738l0,0c1.103-0.41,2.329,0.153,2.738,1.256L49.334,60.367z"/>
<path opacity="0.6" d="M55.184,58.196c0.409,1.103-0.152,2.329-1.255,2.738l0,0c-1.103,0.41-2.329-0.153-2.738-1.255l-0.063-0.17
	c-0.41-1.103,0.153-2.329,1.255-2.738l0,0c1.104-0.41,2.329,0.153,2.738,1.255L55.184,58.196z"/>
</svg>
