<svg width="1121" height="221" viewBox="0 0 1121 221" fill="none" xmlns="http://www.w3.org/2000/svg">
<path d="M283.719 57.5587H305.112V154.808H283.719V57.5587Z" fill="#1A1A1A"/>
<path d="M319.007 57.5592H338.733L384.302 117.438V57.5592H405.418V154.809H387.218L340.122 92.9859V154.809H319.007V57.5592Z" fill="#1A1A1A"/>
<path d="M453.07 156.198C445.659 156.198 438.39 154.925 431.258 152.377C424.126 149.831 417.644 145.918 411.808 140.638L424.451 125.495C428.896 129.107 433.458 131.978 438.134 134.111C442.811 136.239 447.93 137.303 453.486 137.303C457.931 137.303 461.382 136.494 463.836 134.871C466.29 133.251 467.518 131.006 467.518 128.135V127.857C467.518 126.467 467.263 125.242 466.752 124.175C466.24 123.111 465.264 122.115 463.826 121.189C462.387 120.263 460.39 119.337 457.838 118.41C455.282 117.485 451.962 116.511 447.876 115.493C442.954 114.29 438.498 112.946 434.504 111.463C430.51 109.983 427.12 108.153 424.335 105.975C421.548 103.801 419.391 101.091 417.858 97.8486C416.326 94.6086 415.559 90.5792 415.559 85.7619V85.4832C415.559 81.0379 416.386 77.0339 418.043 73.4659C419.699 69.9019 422.02 66.8219 425.014 64.2272C428.004 61.6352 431.575 59.6432 435.728 58.2539C439.878 56.8646 444.456 56.1699 449.458 56.1699C456.588 56.1699 463.142 57.2366 469.116 59.3646C475.09 61.4979 480.578 64.5539 485.578 68.5352L474.464 84.6512C470.11 81.6872 465.851 79.3486 461.683 77.6352C457.515 75.9206 453.347 75.0646 449.18 75.0646C445.012 75.0646 441.887 75.8766 439.802 77.4952C437.718 79.1166 436.676 81.1312 436.676 83.5379V83.8166C436.676 85.3926 436.979 86.7579 437.582 87.9152C438.184 89.0739 439.274 90.1152 440.855 91.0419C442.434 91.9686 444.594 92.8472 447.332 93.6806C450.072 94.5139 453.53 95.4872 457.71 96.5979C462.632 97.8952 467.019 99.3552 470.875 100.974C474.727 102.597 477.978 104.541 480.626 106.809C483.271 109.079 485.268 111.741 486.615 114.798C487.959 117.854 488.635 121.514 488.635 125.774V126.051C488.635 130.869 487.76 135.151 486.014 138.901C484.263 142.653 481.824 145.802 478.698 148.347C475.567 150.897 471.834 152.842 467.496 154.183C463.158 155.523 458.35 156.198 453.07 156.198Z" fill="#1A1A1A"/>
<path d="M535.176 106.601C540.545 106.601 544.714 105.19 547.68 102.364C550.642 99.5397 552.125 96.0423 552.125 91.8743V91.597C552.125 86.7823 550.573 83.1223 547.47 80.6223C544.368 78.121 540.129 76.8703 534.758 76.8703H518.226V106.601H535.176ZM496.832 57.5597H536.565C542.4 57.5597 547.61 58.3717 552.194 59.9903C556.78 61.613 560.669 63.905 563.864 66.8677C567.06 69.833 569.512 73.3757 571.229 77.4957C572.941 81.6183 573.797 86.1783 573.797 91.1797V91.4583C573.797 97.1077 572.777 102.065 570.74 106.324C568.704 110.584 565.901 114.15 562.336 117.021C558.768 119.893 554.601 122.045 549.832 123.481C545.061 124.917 539.945 125.633 534.481 125.633H518.226V154.809H496.832V57.5597Z" fill="#1A1A1A"/>
<path d="M580.189 57.5587H601.585V154.808H580.189V57.5587Z" fill="#1A1A1A"/>
<path d="M658.543 104.794C663.823 104.794 667.875 103.545 670.699 101.044C673.523 98.5436 674.936 95.209 674.936 91.0423V90.7636C674.936 86.133 673.455 82.6596 670.491 80.3436C667.528 78.029 663.407 76.8703 658.127 76.8703H636.871V104.794H658.543ZM615.475 57.5596H659.932C672.25 57.5596 681.696 60.8476 688.274 67.4236C693.83 72.981 696.612 80.3916 696.612 89.6516V89.929C696.612 97.8023 694.687 104.217 690.844 109.17C687 114.128 681.974 117.762 675.771 120.077L699.528 154.809H674.52L653.683 123.689H653.403H636.871V154.809H615.475V57.5596Z" fill="#1A1A1A"/>
<path d="M705.501 57.5592H778.713V76.5925H726.62V96.3192H772.465V115.354H726.62V135.777H779.412V154.809H705.501V57.5592Z" fill="#1A1A1A"/>
<path d="M790.939 57.5592H798.167V148.279H855.264V154.809H790.939V57.5592Z" fill="#1A1A1A"/>
<path d="M932.367 121.05L906.804 64.7842L881.103 121.05H932.367ZM903.472 56.8642H910.418L955.706 154.808H947.786L935.422 127.579H878.048L865.679 154.808H858.18L903.472 56.8642Z" fill="#1A1A1A"/>
<path d="M1008.36 148.279C1016.69 148.279 1023.32 146.489 1028.23 142.912C1033.13 139.335 1035.59 134.475 1035.59 128.34V128.063C1035.59 122.023 1033.06 117.351 1028.02 114.051C1022.97 110.751 1015.63 109.101 1006 109.101H973.071V148.279H1008.36ZM1005.16 102.572C1008.77 102.572 1012.11 102.129 1015.16 101.243C1018.22 100.359 1020.86 99.0747 1023.08 97.3947C1025.31 95.7147 1027.04 93.6147 1028.3 91.0974C1029.55 88.58 1030.17 85.6854 1030.17 82.42V82.1414C1030.17 76.7307 1028.09 72.3707 1023.92 69.0574C1019.75 65.7454 1013.73 64.088 1005.86 64.088H973.071V102.572H1005.16ZM965.849 57.5587H1005.92C1011.46 57.5587 1016.39 58.3254 1020.68 59.8574C1024.99 61.3894 1028.48 63.4987 1031.16 66.188C1035.32 70.3654 1037.4 75.4707 1037.4 81.5014V81.7787C1037.4 85.1187 1036.91 88.0427 1035.94 90.548C1034.97 93.0534 1033.7 95.2361 1032.13 97.0907C1030.56 98.9467 1028.78 100.501 1026.79 101.753C1024.81 103.005 1022.84 104.051 1020.9 104.884C1023.77 105.624 1026.54 106.619 1029.22 107.867C1031.9 109.115 1034.23 110.687 1036.22 112.581C1038.21 114.476 1039.81 116.696 1041.01 119.237C1042.21 121.781 1042.81 124.715 1042.81 128.044V128.321C1042.81 132.389 1041.98 136.065 1040.32 139.347C1038.65 142.631 1036.29 145.404 1033.24 147.667C1030.19 149.932 1026.54 151.689 1022.29 152.937C1018.04 154.187 1013.27 154.808 1008.01 154.808H965.849V57.5587Z" fill="#1A1A1A"/>
<path d="M1088.66 156.198C1080.88 156.198 1073.86 154.901 1067.61 152.307C1061.36 149.717 1055.32 145.829 1049.48 140.638L1054.2 135.221C1056.89 137.719 1059.55 139.875 1062.19 141.678C1064.83 143.486 1067.54 144.969 1070.32 146.125C1073.1 147.286 1076.02 148.163 1079.07 148.766C1082.13 149.367 1085.46 149.669 1089.08 149.669C1092.69 149.669 1096.02 149.182 1099.08 148.21C1102.14 147.238 1104.73 145.897 1106.86 144.179C1108.99 142.467 1110.65 140.429 1111.86 138.067C1113.06 135.707 1113.66 133.137 1113.66 130.357V130.081C1113.66 127.487 1113.27 125.171 1112.48 123.134C1111.7 121.097 1110.26 119.243 1108.18 117.575C1106.1 115.909 1103.29 114.405 1099.77 113.061C1096.25 111.719 1091.71 110.49 1086.16 109.379C1080.32 108.177 1075.32 106.763 1071.15 105.142C1066.98 103.523 1063.58 101.623 1060.94 99.4472C1058.3 97.2712 1056.38 94.7459 1055.18 91.8739C1053.97 89.0046 1053.37 85.7152 1053.37 82.0112V81.7326C1053.37 78.1206 1054.16 74.7646 1055.73 71.6606C1057.31 68.5579 1059.48 65.8486 1062.26 63.5339C1065.04 61.2192 1068.33 59.4139 1072.13 58.1153C1075.92 56.8193 1080.09 56.1699 1084.63 56.1699C1091.66 56.1699 1097.76 57.1419 1102.9 59.0872C1108.04 61.0312 1113.06 63.9979 1117.97 67.9792L1113.39 73.6752C1108.75 69.6939 1104.1 66.8672 1099.43 65.2006C1094.75 63.5339 1089.72 62.6992 1084.35 62.6992C1080.74 62.6992 1077.47 63.1859 1074.56 64.1592C1071.64 65.1312 1069.14 66.4512 1067.06 68.1166C1064.97 69.7846 1063.37 71.7299 1062.26 73.9526C1061.15 76.1752 1060.6 78.5366 1060.6 81.0379V81.3166C1060.6 83.9099 1060.99 86.2472 1061.78 88.3326C1062.56 90.4166 1064 92.3152 1066.08 94.0272C1068.17 95.7432 1071.06 97.2926 1074.76 98.6819C1078.47 100.071 1083.19 101.369 1088.94 102.573C1100.23 104.889 1108.39 108.153 1113.39 112.366C1118.39 116.582 1120.89 122.254 1120.89 129.385V129.663C1120.89 133.553 1120.08 137.142 1118.46 140.429C1116.83 143.719 1114.61 146.519 1111.79 148.835C1108.96 151.151 1105.58 152.958 1101.65 154.253C1097.71 155.55 1093.38 156.198 1088.66 156.198Z" fill="#1A1A1A"/>
<path d="M241.441 104.396L241.425 104.405L182.923 105.176L181.287 104.483L211.301 52.4532L241.441 104.396Z" fill="#2285B3"/>
<path d="M211.301 52.4531L181.302 104.525L151.095 52.3531L211.301 52.4531Z" fill="#00598A"/>
<path d="M0.886658 104.728V104.732L61.0253 104.604L61.0413 104.567L30.816 52.6559L0.886658 104.728Z" fill="#FBE500"/>
<path d="M0.753845 103.875V103.879L60.8925 103.751L60.9085 103.714L30.8152 52.6565L0.753845 103.875Z" fill="#FBE500"/>
<path d="M60.7922 0.469531L30.8109 52.6615L90.9802 52.5135L91.0069 52.4682L60.7922 0.469531Z" fill="#F79420"/>
<path d="M30.8112 52.6615L61.0418 103.88L91.0072 52.4668L30.8112 52.6562V52.6615Z" fill="#FABA18"/>
<path d="M151.096 52.3528L181.093 0.231484L121.365 0.308816L151.096 52.3528Z" fill="#039047"/>
<path d="M121.365 0.309268L60.7838 0.479933L91.0011 52.4773L121.365 0.309268Z" fill="#49B649"/>
<path d="M151.096 52.3528L121.365 0.308816L91.001 52.4781L151.096 52.3528Z" fill="#016A38"/>
<path d="M181.061 0.189492L211.301 52.4535L151.096 52.3535L151.064 52.3108L181.061 0.189492Z" fill="#45B1E4"/>
<path d="M241.441 104.387L241.425 104.377L181.287 104.3L211.301 156.329L241.441 104.387Z" fill="#915BA4"/>
<path d="M211.301 156.329L181.302 104.258L151.102 156.269L211.301 156.329Z" fill="#632C81"/>
<path d="M0.886658 103.884V103.88L61.0253 103.751L61.0413 103.88L30.816 155.956L0.886658 103.884Z" fill="#E02128"/>
<path d="M39.5266 220.743L9.54529 168.552L69.7133 168.701L69.7413 168.746L39.5266 220.743Z" fill="#F42427"/>
<path d="M30.8112 155.951L61.0258 103.751L91.0072 156.145L30.8112 155.956V155.951Z" fill="#BF272D"/>
<path d="M151.102 156.269L181.1 208.392L121.372 208.312L151.102 156.269Z" fill="#CD0F66"/>
<path d="M121.372 208.313L60.7904 208.142L91.0077 156.145L121.372 208.313Z" fill="#AC1E3C"/>
<path d="M151.102 156.269L121.372 208.312L91.0076 156.144L151.102 156.269Z" fill="#E81F79"/>
<path d="M181.1 208.392L211.301 156.329L151.134 156.228L151.102 156.269L181.1 208.392Z" fill="#7A48A5"/>
</svg>
