<?xml version="1.0" encoding="UTF-8" standalone="no"?>
<!-- Created with Inkscape (http://www.inkscape.org/) -->

<svg
   xmlns:dc="http://purl.org/dc/elements/1.1/"
   xmlns:cc="http://creativecommons.org/ns#"
   xmlns:rdf="http://www.w3.org/1999/02/22-rdf-syntax-ns#"
   xmlns:svg="http://www.w3.org/2000/svg"
   xmlns="http://www.w3.org/2000/svg"
   xmlns:sodipodi="http://sodipodi.sourceforge.net/DTD/sodipodi-0.dtd"
   xmlns:inkscape="http://www.inkscape.org/namespaces/inkscape"
   width="990"
   height="140"
   viewBox="0 0 990.00004 140"
   version="1.1"
   id="svg4006"
   inkscape:version="0.92.3 (2405546, 2018-03-11)"
   sodipodi:docname="okruchkodu.svg">
  <defs
     id="defs4000" />
  <sodipodi:namedview
     id="base"
     pagecolor="#ffffff"
     bordercolor="#666666"
     borderopacity="1.0"
     inkscape:pageopacity="0.0"
     inkscape:pageshadow="2"
     inkscape:zoom="1.08"
     inkscape:cx="513.18327"
     inkscape:cy="140.64815"
     inkscape:document-units="px"
     inkscape:current-layer="layer1"
     showgrid="false"
     inkscape:measure-start="-0.925926,251.852"
     inkscape:measure-end="-1.85185,-18.5185"
     units="px"
     inkscape:window-width="1440"
     inkscape:window-height="847"
     inkscape:window-x="0"
     inkscape:window-y="25"
     inkscape:window-maximized="1" />
  <metadata
     id="metadata4003">
    <rdf:RDF>
      <cc:Work
         rdf:about="">
        <dc:format>image/svg+xml</dc:format>
        <dc:type
           rdf:resource="http://purl.org/dc/dcmitype/StillImage" />
        <dc:title></dc:title>
      </cc:Work>
    </rdf:RDF>
  </metadata>
  <g
     inkscape:label="Layer 1"
     inkscape:groupmode="layer"
     id="layer1"
     transform="translate(0,-982.5197)">
    <g
       aria-label="&lt;okruch-kodu/&gt;"
       style="font-style:normal;font-variant:normal;font-weight:normal;font-stretch:normal;font-size:128px;line-height:1.25;font-family:NovaMono;-inkscape-font-specification:NovaMono;letter-spacing:0px;word-spacing:0px;fill:#000000;fill-opacity:1;stroke:none"
       id="text4010"
       transform="translate(5.095114,590.40714)">
      <path
         d="m 9.7767859,461.60898 38.8750001,16.5625 -4.375,10 -49.6250001,-22.125 4.37499995,-10 45.50000015,-21.1875 4.125,9.25 z"
         id="path4012"
         inkscape:connector-curvature="0" />
      <path
         d="m 80.089286,484.54648 q 0,5.75 4.1875,9.625 4.25,3.9375 9.6875,3.9375 5.25,0 9.250004,-3.9375 3.875,-3.8125 4,-9.625 v -22.625 q -0.125,-5.8125 -4,-9.625 -4.000004,-3.9375 -10.000004,-3.9375 -5.25,0 -9.1875,3.9375 -3.875,3.875 -3.9375,9.25 v 0.375 z m -10,-22.8125 q 0,-9.75 6.875,-16.625 6.875,-6.875 16.625,-6.875 9.750004,0 16.687504,6.875 6.9375,6.875 6.9375,16.625 v 23 q 0,9.75 -6.9375,16.625 -6.9375,6.875 -16.687504,6.875 -9.75,0 -16.625,-6.875 -6.875,-6.875 -6.875,-16.625 z"
         id="path4014"
         inkscape:connector-curvature="0" />
      <path
         d="m 142.08929,508.23398 v -90.0625 l 10,-4.375 v 51.25 l 27.625,-26.8125 9.5,4.375 -19.125,18.9375 q 7.4375,1.375 12.1875,6.1875 6.9375,6.875 6.9375,16.625 v 19.5 l -10,4.375 v -23.6875 q -0.125,-5.75 -4,-9.625 -3.875,-3.875 -9.625,-3.9375 -5.5,0 -9.5625,3.9375 -3.9375,3.8125 -3.9375,9.25 v 0.375 19.3125 z"
         id="path4016"
         inkscape:connector-curvature="0" />
      <path
         d="m 214.08929,508.23398 v -46.5 q 0,-9.75 6.875,-16.625 6.875,-6.875 16.625,-6.875 9.9375,0 16.6875,6.875 6.9375,7.125 6.9375,16.625 v 0.25 l -10,4.375 v -4.4375 q -0.125,-5.8125 -4,-9.625 -4,-3.9375 -9.4375,-3.9375 -5.6875,0 -9.6875,3.9375 -4,3.9375 -4,9.4375 0,0.125 0,0.1875 v 41.9375 z"
         id="path4018"
         inkscape:connector-curvature="0" />
      <path
         d="m 310.08929,498.10898 q 5.25,0 9.1875,-3.9375 3.9375,-3.9375 3.9375,-9.4375 0,-0.125 0,-0.1875 v -41.9375 q 0,0 10,-4.375 v 46.5 q 0,9.75 -6.875,16.625 -6.875,6.875 -16.625,6.875 -9.75,0 -16.6875,-6.875 -6.9375,-6.875 -6.9375,-16.625 v -42.125 l 10,-4.375 v 46.3125 q 0.125,5.8125 4,9.625 4,3.9375 10,3.9375 z"
         id="path4020"
         inkscape:connector-curvature="0" />
      <path
         d="m 368.08929,484.54648 q 0,5.75 4.1875,9.625 4.25,3.9375 9.6875,3.9375 5.25,0 9.25,-3.9375 3.875,-3.8125 4,-9.625 v -0.875 l 10,-4.4375 v 5.5 q 0,8.75 -7.5,16.75 -6.375,6.75 -16.125,6.75 -9.75,0 -16.625,-6.875 -6.875,-6.875 -6.875,-16.625 v -23 q 0,-9.75 6.875,-16.625 6.875,-6.875 16.625,-6.875 9.875,0 16.6875,6.875 6.9375,6.875 6.9375,16.625 v 0.625 l -10,4.5 v -4.9375 q -0.125,-5.8125 -4,-9.625 -4,-3.9375 -9.4375,-3.9375 -5.625,0 -9.6875,3.9375 -4,3.9375 -4,9.4375 0,0.125 0,0.1875 z"
         id="path4022"
         inkscape:connector-curvature="0" />
      <path
         d="m 430.08929,508.23398 v -90.0625 l 10,-4.375 v 28.625 q 5.875,-4.1875 13.5,-4.1875 9.75,0 16.6875,6.875 6.9375,6.875 6.9375,16.625 v 42.125 l -10,4.375 v -46.3125 q -0.125,-5.8125 -4,-9.625 -4,-3.9375 -9.4375,-3.9375 -5.8125,0 -9.75,3.9375 -3.875,3.875 -3.9375,9.25 v 0.375 41.9375 z"
         id="path4024"
         inkscape:connector-curvature="0" />
      <path
         d="m 502.77679,456.04648 h 50.125 l -4.375,10 h -50.125 z"
         id="path4026"
         inkscape:connector-curvature="0" />
      <path
         d="m 574.08929,508.23398 v -90.0625 l 10,-4.375 v 51.25 l 27.625,-26.8125 9.5,4.375 -19.125,18.9375 q 7.4375,1.375 12.1875,6.1875 6.9375,6.875 6.9375,16.625 v 19.5 l -10,4.375 v -23.6875 q -0.125,-5.75 -4,-9.625 -3.875,-3.875 -9.625,-3.9375 -5.5,0 -9.5625,3.9375 -3.9375,3.8125 -3.9375,9.25 v 0.375 19.3125 z"
         id="path4028"
         inkscape:connector-curvature="0" />
      <path
         d="m 656.08929,484.54648 q 0,5.75 4.1875,9.625 4.25,3.9375 9.6875,3.9375 5.25,0 9.25,-3.9375 3.875,-3.8125 4,-9.625 v -22.625 q -0.125,-5.8125 -4,-9.625 -4,-3.9375 -10,-3.9375 -5.25,0 -9.1875,3.9375 -3.875,3.875 -3.9375,9.25 v 0.375 z m -10,-22.8125 q 0,-9.75 6.875,-16.625 6.875,-6.875 16.625,-6.875 9.75,0 16.6875,6.875 6.9375,6.875 6.9375,16.625 v 23 q 0,9.75 -6.9375,16.625 -6.9375,6.875 -16.6875,6.875 -9.75,0 -16.625,-6.875 -6.875,-6.875 -6.875,-16.625 z"
         id="path4030"
         inkscape:connector-curvature="0" />
      <path
         d="m 728.08929,484.54648 q 0,5.75 4.1875,9.625 4.25,3.9375 9.6875,3.9375 5.25,0 9.25,-3.9375 3.875,-3.8125 4,-9.625 v -22.625 q -0.125,-5.8125 -4,-9.625 -4,-3.9375 -10,-3.9375 -5.25,0 -9.1875,3.9375 -3.875,3.875 -3.9375,9.25 v 0.375 z m 37.125,-70.75 v 70.9375 q 0,9.75 -6.9375,16.625 -6.9375,6.875 -16.6875,6.875 -9.75,0 -16.625,-6.875 -6.875,-6.875 -6.875,-16.625 v -23 q 0,-9.75 6.875,-16.625 6.875,-6.875 16.625,-6.875 7.6875,0 13.625,4.25 v -24.3125 z"
         id="path4032"
         inkscape:connector-curvature="0" />
      <path
         d="m 814.08929,498.10898 q 5.25,0 9.1875,-3.9375 3.9375,-3.9375 3.9375,-9.4375 0,-0.125 0,-0.1875 v -41.9375 q 0,0 10,-4.375 v 46.5 q 0,9.75 -6.875,16.625 -6.875,6.875 -16.625,6.875 -9.75,0 -16.6875,-6.875 -6.9375,-6.875 -6.9375,-16.625 v -42.125 l 10,-4.375 v 46.3125 q 0.125,5.8125 4,9.625 4,3.9375 10,3.9375 z"
         id="path4034"
         inkscape:connector-curvature="0" />
      <path
         d="m 909.40179,391.92148 9.0625,4.25 -56.5625,133.9375 -9.0625,-4.25 z"
         id="path4036"
         inkscape:connector-curvature="0" />
      <path
         d="m 969.52679,461.42148 -38.875,-16.5625 4.375,-10 49.625,22.125 -4.375,10 -45.5,21.1875 -4.125,-9.25 z"
         id="path4038"
         inkscape:connector-curvature="0" />
    </g>
  </g>
</svg>
