<svg xmlns="http://www.w3.org/2000/svg" viewBox="0 0 1120 480"><defs><style>.cls-1{fill:none;}.cls-2{fill:#ffd82b;}</style></defs><title>Logo Horizontal Inverted</title><g id="Warstwa_2" data-name="Warstwa 2"><g id="Logo_Horizontal" data-name="Logo Horizontal"><g id="Logo_Horizontal_Inverted" data-name="Logo Horizontal Inverted"><g id="Mark"><rect id="Mask" class="cls-1" width="384" height="480"/><path id="Shading" class="cls-2" d="M350,264c-3.46,5.54-7.43,10.31-15.17,12.26,4.4-21.65,8.38-44,11.52-64.62A49.25,49.25,0,0,1,358,218C367.51,225.39,356.47,253.65,350,264ZM58.5,160.88l-.15,2.25C79,159.36,109.48,154.9,130.93,153c9.54-54.64,27.49-103.32,55.59-135.9-19.06,2.24-46.61,8.9-71.89,27.74C80.81,70,61.93,109.05,58.5,160.88Zm-24.64,77c.77,5.8,2,12.29,4.94,16.38,1.15,1.59,4.21,5.81,16,5.81h.89Q56.79,247,59,233c3-22,5-31,5-31,8,0,8,5,8,14,0,99.87,22.85,118.73,54.25,113.21-5-47.38-5.23-97.95.27-145.62-19.42-.2-52.79.41-60.52.41-12,0-30-14-35.5-10.38-1.66,1.09-4.5,5.3-4.5,12.38,0,6.28,2.5,20.35,4.52,31.66C31.84,225.11,33.1,232.16,33.86,237.89Z"/><path id="Outline" d="M348.31,198.1c3.92-28.36,5.91-52.31,4.69-65.1C349,91,303,0,204,0,147,0,51,32,42.53,159.82a23.31,23.31,0,0,0-10.34-2.59A20,20,0,0,0,24,159c-9,4-14,15-14,27s6,39,8,54,6.64,36.06,36.77,36.08C49.64,431,165.15,480,224,480c68,0,88-40,81-96,8.08-15.76,18.14-52.77,27-94.11,23.22-2.46,31.08-22.11,36-37.89,3.11-10,10-13,10-13s6-12,6-30A284.27,284.27,0,0,0,348.31,198.1ZM58.5,160.88C61.93,109.05,80.81,70,114.63,44.81,149.53,18.81,188.75,16,204,16a126.42,126.42,0,0,1,57.3,13.17,133.65,133.65,0,0,1,40.76,32.09c21.74,25,33.25,54.79,35,73.26,1,10.73-.67,32.56-4.44,60.14-15.71-3.08-31.54-5.09-44.61-5.16a48.68,48.68,0,0,1-21.46-5.08C238.41,170.44,187.44,152,148,152c-18.22,0-62.48,6.17-89.65,11.13ZM254,210l-7,8c-7,8-20,30-20,30-12,6-30.81,4.48-52-3-17-6-17-24-16-36s0-36,29-36c26,0,59,17,66,21S254,210,254,210Zm26.91,138.59c-1.14,15-9.59,25.13-23.91,29.41-6,1,9-21-18-21s-22,21-30,18c-18.39-7.85-23.9-22.2-25.48-31.61a8,8,0,0,1,7.72-9.31c26.11-.69,50.9-3.74,61.76-10.08,6.9,7.59,17.6,13.75,23.58,16.84A8,8,0,0,1,280.91,348.59Zm26.86-25.1c-4.58-7.32-13.24-17.07-27.77-19.49-13.77-2.3-23.85,7.85-24,8h0c-.08-.22-6.15-16-28-16-68,0-156,116-156-80,0-9,0-14-8-14,0,0-2,9-5,31q-2.22,14-3.29,27.08h-.89c-11.81,0-14.87-4.22-16-5.81-3-4.09-4.17-10.58-4.94-16.38s-2-12.78-3.34-20.23C28.5,206.35,26,192.28,26,186c0-7.08,2.84-11.29,4.5-12.38C36,170,54,184,66,184c10,0,62.85-1,73,0,10,1,8,4,7,29s9.06,37.85,24,44c17,7,48,10.95,63,3,17-9,32.88-40.64,35-47,2-6,7-5,7,0v9c0,26,10,34,10,48,0,11.05-5,11.89-10,13-9,2-9,10-9,10,21,4,28.73-4,31-11a50.61,50.61,0,0,0,18.74,7.33C313.1,301.51,310.41,313,307.77,323.49ZM350,264c-5,8-11.06,14.41-28,13-12-1-23-8-23-8,0-13-6.58-21.4-9.29-36.2S284,203,308,204c22,.92,41,7,50,14C367.51,225.39,356.47,253.65,350,264Z"/></g><g id="Text"><path d="M571.61,240H544.38V180.27c0-17.57-9.67-29-25.92-29-15.15,0-27.23,10.76-27.23,38.43V240H464V96h27.23v48a42,42,0,0,1,34.92-18.23c34.7,0,45.46,25,45.46,51Z"/><path d="M699.38,204.42c-2.2,17.57-22,37.78-51.17,37.78-33.82,0-60-20.21-60-57.54,0-34.26,24.15-58.86,57.75-58.86,39.1,0,60.84,29.43,55.57,65.45H615.71c0,11.42,9.66,26.57,30.09,26.57,15.81,0,23.27-7.69,25-13.4Zm-80.6-33.6h54.91c-.88-10.76-13.18-20.64-27.68-20.64C630.86,150.18,619.44,160.06,618.78,170.82Z"/><path d="M747.43,240H720.2V96h27.23Z"/><path d="M797.11,240H769.88V96h27.23Z"/><path d="M933.88,184c0,34-24.82,58.2-58.86,58.2-32.28,0-58.85-24.16-58.85-58.2s23.94-58.2,58.85-58.2S933.88,150,933.88,184ZM875,150.18c-19.76,0-31.18,15.37-31.18,33.82s11.42,33.82,31.18,33.82,31.19-15.37,31.19-33.82S894.79,150.18,875,150.18Z"/><path d="M530.76,296.16c-24.81,0-39.53,13.17-39.53,42.6V384H464V272h27.45v19.76c3.3-8.34,20.65-24.37,39.31-22.18Z"/><path d="M657.6,328c0,34-24.82,58.2-58.86,58.2-32.28,0-58.85-24.16-58.85-58.2s23.94-58.2,58.85-58.2S657.6,294,657.6,328Zm-58.86-33.82c-19.76,0-31.18,15.37-31.18,33.82s11.42,33.82,31.18,33.82,31.19-15.37,31.19-33.82S618.51,294.18,598.74,294.18Z"/><path d="M856.48,384H829.25V321.63c0-15.81-7.91-27.45-24.82-26.79-16.25.66-23.94,13.83-23.94,37.11V384H753.26V321.63c0-15.81-8.56-27.67-25.26-26.79-17.56.88-23.49,15.15-23.49,38.21V384H677.27V272h27.24v16c2.41-6.37,11.64-18.23,32.06-18.23,14.27,0,28.33,6.37,36.46,20.65,2.63-7.47,18.22-20.65,38-20.65,14.93,0,45.46,6.81,45.46,51.83Z"/><path d="M979.25,319.21V384H952.9V367.75c-1.54,4.17-11.86,18.67-36.9,18.45-33.82-.22-41.72-20.87-41.72-34.7,0-19.55,17.13-34.92,62.59-34.92h14c0-11.2-5.71-23.06-25.25-23.06-15.38,0-22.84,9-23.5,15.37H873.84c.44-14.93,15.81-39.09,50.29-39.09C952,269.8,979.25,282.76,979.25,319.21Zm-28.33,17.36H937.31c-16,0-36.46,1.09-36.46,14.49,0,7.69,9,12.52,21.74,11.64C941.92,361.38,950.26,348.86,950.92,336.57Z"/><path d="M1109.44,384H1082.2V324.27c0-17.57-9.66-29-25.91-29-15.15,0-27.23,10.76-27.23,38.43V384h-27.23V272h27.23v16A42,42,0,0,1,1064,269.8c34.69,0,45.46,25,45.46,50.95Z"/><rect id="Mask-2" data-name="Mask" class="cls-1" x="464" y="96" width="656" height="288"/></g></g></g></g></svg>